{
  "asset": {
    "generator": "UnityGLTF",
    "version": "2.0"
  },
  "extensionsUsed": [
    "KHR_texture_transform"
  ],
  "scene": 0,
  "scenes": [
    {
      "nodes": [
        0
      ],
      "name": "tool-shovel"
    }
  ],
  "accessors": [
    {
      "bufferView": 0,
      "componentType": 5126,
      "count": 198,
      "type": "VEC3",
      "max": [
        0.03546350076794624,
        0.28999999165534973,
        0.015463500283658504
      ],
      "min": [
        -0.03546350076794624,
        0.0,
        -0.015463500283658504
      ]
    },
    {
      "bufferView": 1,
      "componentType": 5126,
      "count": 198,
      "type": "VEC3",
      "max": [
        1.0,
        1.0,
        1.0
      ],
      "min": [
        -1.0,
        -1.0,
        -1.0
      ]
    },
    {
      "bufferView": 2,
      "componentType": 5126,
      "count": 198,
      "type": "VEC4",
      "max": [
        1.0,
        0.7071068286895752,
        1.0,
        1.0
      ],
      "min": [
        -1.0,
        -0.7071068286895752,
        -1.0,
        1.0
      ]
    },
    {
      "bufferView": 3,
      "componentType": 5126,
      "count": 198,
      "type": "VEC2",
      "max": [
        0.59375,
        0.9750000238418579
      ],
      "min": [
        0.34375,
        0.7749999761581421
      ]
    },
    {
      "bufferView": 4,
      "componentType": 5121,
      "count": 372,
      "type": "SCALAR",
      "max": [
        197.0
      ],
      "min": [
        0.0
      ]
    }
  ],
  "buffers": [
    {
      "byteLength": 9876,
      "uri": "model.bin"
    }
  ],
  "bufferViews": [
    {
      "buffer": 0,
      "byteLength": 2376,
      "byteStride": 12,
      "target": 34962
    },
    {
      "buffer": 0,
      "byteOffset": 2376,
      "byteLength": 2376,
      "byteStride": 12,
      "target": 34962
    },
    {
      "buffer": 0,
      "byteOffset": 4752,
      "byteLength": 3168,
      "target": 34962
    },
    {
      "buffer": 0,
      "byteOffset": 7920,
      "byteLength": 1584,
      "target": 34962
    },
    {
      "buffer": 0,
      "byteOffset": 9504,
      "byteLength": 372,
      "target": 34963
    }
  ],
  "images": [
    {
      "uri": "Textures/colormap.png",
      "name": "colormap"
    }
  ],
  "materials": [
    {
      "pbrMetallicRoughness": {
        "baseColorTexture": {
          "index": 0,
          "extensions": {
            "KHR_texture_transform": {
              "texCoord": 0
            }
          }
        },
        "metallicFactor": 0.0
      },
      "doubleSided": true,
      "name": "colormap"
    }
  ],
  "meshes": [
    {
      "primitives": [
        {
          "attributes": {
            "POSITION": 0,
            "NORMAL": 1,
            "TANGENT": 2,
            "TEXCOORD_0": 3
          },
          "indices": 4,
          "material": 0
        }
      ],
      "name": "tool-shovel"
    }
  ],
  "nodes": [
    {
      "mesh": 0,
      "name": "tool-shovel"
    }
  ],
  "samplers": [
    {
      "magFilter": 9728,
      "minFilter": 9984
    }
  ],
  "textures": [
    {
      "sampler": 0,
      "source": 0,
      "name": "colormap"
    }
  ]
}
