{
  "asset": {
    "version": "2.0",
    "generator": "b3d_export_gltf.py"
  },
  "scene": 0,
  "scenes": [
    {
      "nodes": [
        0
      ]
    }
  ],
  "nodes": [
    {
      "name": "armature",
      "children": [
        9
      ]
    },
    {
      "name": "Cube",
      "translation": [
        0.0,
        0.0,
        0.0
      ],
      "rotation": [
        0.0,
        0.0,
        0.0,
        1.0
      ],
      "scale": [
        1.0,
        1.0,
        1.0
      ],
      "children": [
        2,
        3,
        4,
        5,
        6,
        7,
        8
      ]
    },
    {
      "name": "Bone.005",
      "translation": [
        0.21789636030399975,
        0.07861002133545843,
        -0.3404467806408567
      ],
      "rotation": [
        0.707106721581899,
        -1.545431009634189e-08,
        0.7071068407911907,
        1.5454308319985022e-08
      ],
      "scale": [
        2.8184216022491455,
        2.8184216022491455,
        2.8184216022491455
      ]
    },
    {
      "name": "Bone",
      "translation": [
        0.0,
        0.2589053831185678,
        -0.2729231068885475
      ],
      "rotation": [
        0.0,
        0.7071067811865476,
        0.7071067811865476,
        0.0
      ],
      "scale": [
        2.8184216022491455,
        2.8184216022491455,
        2.8184216022491455
      ]
    },
    {
      "name": "Bone.003",
      "translation": [
        -0.18516368298903843,
        0.13736690924430023,
        0.35019976582610846
      ],
      "rotation": [
        0.707106721581899,
        -1.545431009634189e-08,
        0.7071068407911907,
        1.5454308319985022e-08
      ],
      "scale": [
        2.8184216022491455,
        2.8184216022491455,
        2.8184216022491455
      ]
    },
    {
      "name": "Bone.002",
      "translation": [
        -0.0012211947034747612,
        0.2977718344952511,
        -0.4393562671816198
      ],
      "rotation": [
        0.7071067215818988,
        2.5154867064632134e-08,
        0.7071068407911903,
        -2.5154865288275265e-08
      ],
      "scale": [
        2.8184216022491455,
        2.8184216022491455,
        2.8184216022491455
      ]
    },
    {
      "name": "Bone.001",
      "translation": [
        0.008602010314240184,
        0.32817352705214525,
        0.4313854420943828
      ],
      "rotation": [
        -1.706025813678309e-07,
        0.6505242209180875,
        0.7594855087484322,
        1.461267138767407e-07
      ],
      "scale": [
        2.8184213638305664,
        2.8184213638305664,
        2.8184213638305664
      ]
    },
    {
      "name": "Bone.006",
      "translation": [
        -0.2228864424244214,
        0.07861002133545843,
        -0.3404467806408567
      ],
      "rotation": [
        0.707106721581899,
        -1.545431009634189e-08,
        0.7071068407911907,
        1.5454308319985022e-08
      ],
      "scale": [
        2.8184216022491455,
        2.8184216022491455,
        2.8184216022491455
      ]
    },
    {
      "name": "Bone.004",
      "translation": [
        0.1783817221390869,
        0.13548958150210796,
        0.35019976582610846
      ],
      "rotation": [
        0.707106721581899,
        -1.545431009634189e-08,
        0.7071068407911907,
        1.5454308319985022e-08
      ],
      "scale": [
        2.8184216022491455,
        2.8184216022491455,
        2.8184216022491455
      ]
    },
    {
      "name": "badger",
      "mesh": 0,
      "skin": 0
    }
  ],
  "meshes": [
    {
      "name": "badger",
      "primitives": [
        {
          "attributes": {
            "POSITION": 0,
            "TEXCOORD_0": 1,
            "JOINTS_0": 2,
            "WEIGHTS_0": 3
          },
          "indices": 4,
          "material": 0
        }
      ]
    }
  ],
  "skins": [
    {
      "inverseBindMatrices": 5,
      "joints": [
        1,
        2,
        3,
        4,
        5,
        6,
        7,
        8
      ],
      "skeleton": 1
    }
  ],
  "materials": [
    {
      "name": "body",
      "pbrMetallicRoughness": {
        "baseColorTexture": {
          "index": 0
        },
        "metallicFactor": 0.0,
        "roughnessFactor": 1.0
      },
      "doubleSided": true
    }
  ],
  "textures": [
    {
      "source": 0
    }
  ],
  "images": [
    {
      "uri": "textures/body.png"
    }
  ],
  "buffers": [
    {
      "byteLength": 52452,
      "uri": "model.bin"
    }
  ],
  "bufferViews": [
    {
      "buffer": 0,
      "byteOffset": 0,
      "byteLength": 7392,
      "target": 34962
    },
    {
      "buffer": 0,
      "byteOffset": 7392,
      "byteLength": 4928,
      "target": 34962
    },
    {
      "buffer": 0,
      "byteOffset": 12320,
      "byteLength": 2464,
      "target": 34962
    },
    {
      "buffer": 0,
      "byteOffset": 14784,
      "byteLength": 9856,
      "target": 34962
    },
    {
      "buffer": 0,
      "byteOffset": 24640,
      "byteLength": 1848,
      "target": 34963
    },
    {
      "buffer": 0,
      "byteOffset": 26488,
      "byteLength": 512
    },
    {
      "buffer": 0,
      "byteOffset": 27000,
      "byteLength": 120
    },
    {
      "buffer": 0,
      "byteOffset": 27120,
      "byteLength": 480
    },
    {
      "buffer": 0,
      "byteOffset": 27600,
      "byteLength": 120
    },
    {
      "buffer": 0,
      "byteOffset": 27720,
      "byteLength": 360
    },
    {
      "buffer": 0,
      "byteOffset": 28080,
      "byteLength": 120
    },
    {
      "buffer": 0,
      "byteOffset": 28200,
      "byteLength": 480
    },
    {
      "buffer": 0,
      "byteOffset": 28680,
      "byteLength": 120
    },
    {
      "buffer": 0,
      "byteOffset": 28800,
      "byteLength": 360
    },
    {
      "buffer": 0,
      "byteOffset": 29160,
      "byteLength": 120
    },
    {
      "buffer": 0,
      "byteOffset": 29280,
      "byteLength": 480
    },
    {
      "buffer": 0,
      "byteOffset": 29760,
      "byteLength": 120
    },
    {
      "buffer": 0,
      "byteOffset": 29880,
      "byteLength": 360
    },
    {
      "buffer": 0,
      "byteOffset": 30240,
      "byteLength": 120
    },
    {
      "buffer": 0,
      "byteOffset": 30360,
      "byteLength": 480
    },
    {
      "buffer": 0,
      "byteOffset": 30840,
      "byteLength": 120
    },
    {
      "buffer": 0,
      "byteOffset": 30960,
      "byteLength": 360
    },
    {
      "buffer": 0,
      "byteOffset": 31320,
      "byteLength": 120
    },
    {
      "buffer": 0,
      "byteOffset": 31440,
      "byteLength": 480
    },
    {
      "buffer": 0,
      "byteOffset": 31920,
      "byteLength": 120
    },
    {
      "buffer": 0,
      "byteOffset": 32040,
      "byteLength": 360
    },
    {
      "buffer": 0,
      "byteOffset": 32400,
      "byteLength": 120
    },
    {
      "buffer": 0,
      "byteOffset": 32520,
      "byteLength": 480
    },
    {
      "buffer": 0,
      "byteOffset": 33000,
      "byteLength": 120
    },
    {
      "buffer": 0,
      "byteOffset": 33120,
      "byteLength": 360
    },
    {
      "buffer": 0,
      "byteOffset": 33480,
      "byteLength": 120
    },
    {
      "buffer": 0,
      "byteOffset": 33600,
      "byteLength": 480
    },
    {
      "buffer": 0,
      "byteOffset": 34080,
      "byteLength": 120
    },
    {
      "buffer": 0,
      "byteOffset": 34200,
      "byteLength": 360
    },
    {
      "buffer": 0,
      "byteOffset": 34560,
      "byteLength": 100
    },
    {
      "buffer": 0,
      "byteOffset": 34660,
      "byteLength": 400
    },
    {
      "buffer": 0,
      "byteOffset": 35060,
      "byteLength": 100
    },
    {
      "buffer": 0,
      "byteOffset": 35160,
      "byteLength": 300
    },
    {
      "buffer": 0,
      "byteOffset": 35460,
      "byteLength": 100
    },
    {
      "buffer": 0,
      "byteOffset": 35560,
      "byteLength": 400
    },
    {
      "buffer": 0,
      "byteOffset": 35960,
      "byteLength": 100
    },
    {
      "buffer": 0,
      "byteOffset": 36060,
      "byteLength": 300
    },
    {
      "buffer": 0,
      "byteOffset": 36360,
      "byteLength": 100
    },
    {
      "buffer": 0,
      "byteOffset": 36460,
      "byteLength": 400
    },
    {
      "buffer": 0,
      "byteOffset": 36860,
      "byteLength": 100
    },
    {
      "buffer": 0,
      "byteOffset": 36960,
      "byteLength": 300
    },
    {
      "buffer": 0,
      "byteOffset": 37260,
      "byteLength": 100
    },
    {
      "buffer": 0,
      "byteOffset": 37360,
      "byteLength": 400
    },
    {
      "buffer": 0,
      "byteOffset": 37760,
      "byteLength": 100
    },
    {
      "buffer": 0,
      "byteOffset": 37860,
      "byteLength": 300
    },
    {
      "buffer": 0,
      "byteOffset": 38160,
      "byteLength": 100
    },
    {
      "buffer": 0,
      "byteOffset": 38260,
      "byteLength": 400
    },
    {
      "buffer": 0,
      "byteOffset": 38660,
      "byteLength": 100
    },
    {
      "buffer": 0,
      "byteOffset": 38760,
      "byteLength": 300
    },
    {
      "buffer": 0,
      "byteOffset": 39060,
      "byteLength": 100
    },
    {
      "buffer": 0,
      "byteOffset": 39160,
      "byteLength": 400
    },
    {
      "buffer": 0,
      "byteOffset": 39560,
      "byteLength": 100
    },
    {
      "buffer": 0,
      "byteOffset": 39660,
      "byteLength": 300
    },
    {
      "buffer": 0,
      "byteOffset": 39960,
      "byteLength": 100
    },
    {
      "buffer": 0,
      "byteOffset": 40060,
      "byteLength": 400
    },
    {
      "buffer": 0,
      "byteOffset": 40460,
      "byteLength": 100
    },
    {
      "buffer": 0,
      "byteOffset": 40560,
      "byteLength": 300
    },
    {
      "buffer": 0,
      "byteOffset": 40860,
      "byteLength": 100
    },
    {
      "buffer": 0,
      "byteOffset": 40960,
      "byteLength": 400
    },
    {
      "buffer": 0,
      "byteOffset": 41360,
      "byteLength": 100
    },
    {
      "buffer": 0,
      "byteOffset": 41460,
      "byteLength": 300
    },
    {
      "buffer": 0,
      "byteOffset": 41760,
      "byteLength": 100
    },
    {
      "buffer": 0,
      "byteOffset": 41860,
      "byteLength": 400
    },
    {
      "buffer": 0,
      "byteOffset": 42260,
      "byteLength": 100
    },
    {
      "buffer": 0,
      "byteOffset": 42360,
      "byteLength": 300
    },
    {
      "buffer": 0,
      "byteOffset": 42660,
      "byteLength": 100
    },
    {
      "buffer": 0,
      "byteOffset": 42760,
      "byteLength": 400
    },
    {
      "buffer": 0,
      "byteOffset": 43160,
      "byteLength": 100
    },
    {
      "buffer": 0,
      "byteOffset": 43260,
      "byteLength": 300
    },
    {
      "buffer": 0,
      "byteOffset": 43560,
      "byteLength": 100
    },
    {
      "buffer": 0,
      "byteOffset": 43660,
      "byteLength": 400
    },
    {
      "buffer": 0,
      "byteOffset": 44060,
      "byteLength": 100
    },
    {
      "buffer": 0,
      "byteOffset": 44160,
      "byteLength": 300
    },
    {
      "buffer": 0,
      "byteOffset": 44460,
      "byteLength": 100
    },
    {
      "buffer": 0,
      "byteOffset": 44560,
      "byteLength": 400
    },
    {
      "buffer": 0,
      "byteOffset": 44960,
      "byteLength": 100
    },
    {
      "buffer": 0,
      "byteOffset": 45060,
      "byteLength": 300
    },
    {
      "buffer": 0,
      "byteOffset": 45360,
      "byteLength": 100
    },
    {
      "buffer": 0,
      "byteOffset": 45460,
      "byteLength": 400
    },
    {
      "buffer": 0,
      "byteOffset": 45860,
      "byteLength": 100
    },
    {
      "buffer": 0,
      "byteOffset": 45960,
      "byteLength": 300
    },
    {
      "buffer": 0,
      "byteOffset": 46260,
      "byteLength": 100
    },
    {
      "buffer": 0,
      "byteOffset": 46360,
      "byteLength": 400
    },
    {
      "buffer": 0,
      "byteOffset": 46760,
      "byteLength": 100
    },
    {
      "buffer": 0,
      "byteOffset": 46860,
      "byteLength": 300
    },
    {
      "buffer": 0,
      "byteOffset": 47160,
      "byteLength": 84
    },
    {
      "buffer": 0,
      "byteOffset": 47244,
      "byteLength": 336
    },
    {
      "buffer": 0,
      "byteOffset": 47580,
      "byteLength": 84
    },
    {
      "buffer": 0,
      "byteOffset": 47664,
      "byteLength": 252
    },
    {
      "buffer": 0,
      "byteOffset": 47916,
      "byteLength": 84
    },
    {
      "buffer": 0,
      "byteOffset": 48000,
      "byteLength": 336
    },
    {
      "buffer": 0,
      "byteOffset": 48336,
      "byteLength": 84
    },
    {
      "buffer": 0,
      "byteOffset": 48420,
      "byteLength": 252
    },
    {
      "buffer": 0,
      "byteOffset": 48672,
      "byteLength": 84
    },
    {
      "buffer": 0,
      "byteOffset": 48756,
      "byteLength": 336
    },
    {
      "buffer": 0,
      "byteOffset": 49092,
      "byteLength": 84
    },
    {
      "buffer": 0,
      "byteOffset": 49176,
      "byteLength": 252
    },
    {
      "buffer": 0,
      "byteOffset": 49428,
      "byteLength": 84
    },
    {
      "buffer": 0,
      "byteOffset": 49512,
      "byteLength": 336
    },
    {
      "buffer": 0,
      "byteOffset": 49848,
      "byteLength": 84
    },
    {
      "buffer": 0,
      "byteOffset": 49932,
      "byteLength": 252
    },
    {
      "buffer": 0,
      "byteOffset": 50184,
      "byteLength": 84
    },
    {
      "buffer": 0,
      "byteOffset": 50268,
      "byteLength": 336
    },
    {
      "buffer": 0,
      "byteOffset": 50604,
      "byteLength": 84
    },
    {
      "buffer": 0,
      "byteOffset": 50688,
      "byteLength": 252
    },
    {
      "buffer": 0,
      "byteOffset": 50940,
      "byteLength": 84
    },
    {
      "buffer": 0,
      "byteOffset": 51024,
      "byteLength": 336
    },
    {
      "buffer": 0,
      "byteOffset": 51360,
      "byteLength": 84
    },
    {
      "buffer": 0,
      "byteOffset": 51444,
      "byteLength": 252
    },
    {
      "buffer": 0,
      "byteOffset": 51696,
      "byteLength": 84
    },
    {
      "buffer": 0,
      "byteOffset": 51780,
      "byteLength": 336
    },
    {
      "buffer": 0,
      "byteOffset": 52116,
      "byteLength": 84
    },
    {
      "buffer": 0,
      "byteOffset": 52200,
      "byteLength": 252
    }
  ],
  "accessors": [
    {
      "bufferView": 0,
      "componentType": 5126,
      "count": 616,
      "type": "VEC3",
      "min": [
        -0.27011906411512565,
        -0.11024859107040692,
        -0.47315075334101125
      ],
      "max": [
        0.2695871987088242,
        0.4431306258617378,
        0.7268492466589886
      ]
    },
    {
      "bufferView": 1,
      "componentType": 5126,
      "count": 616,
      "type": "VEC2"
    },
    {
      "bufferView": 2,
      "componentType": 5121,
      "count": 616,
      "type": "VEC4"
    },
    {
      "bufferView": 3,
      "componentType": 5126,
      "count": 616,
      "type": "VEC4"
    },
    {
      "bufferView": 4,
      "componentType": 5123,
      "count": 924,
      "type": "SCALAR"
    },
    {
      "bufferView": 5,
      "componentType": 5126,
      "count": 8,
      "type": "MAT4"
    },
    {
      "bufferView": 6,
      "componentType": 5126,
      "count": 30,
      "type": "SCALAR",
      "min": [
        0.0
      ],
      "max": [
        2.4166666666666665
      ]
    },
    {
      "bufferView": 7,
      "componentType": 5126,
      "count": 30,
      "type": "VEC4"
    },
    {
      "bufferView": 8,
      "componentType": 5126,
      "count": 30,
      "type": "SCALAR",
      "min": [
        0.0
      ],
      "max": [
        2.4166666666666665
      ]
    },
    {
      "bufferView": 9,
      "componentType": 5126,
      "count": 30,
      "type": "VEC3"
    },
    {
      "bufferView": 10,
      "componentType": 5126,
      "count": 30,
      "type": "SCALAR",
      "min": [
        0.0
      ],
      "max": [
        2.4166666666666665
      ]
    },
    {
      "bufferView": 11,
      "componentType": 5126,
      "count": 30,
      "type": "VEC4"
    },
    {
      "bufferView": 12,
      "componentType": 5126,
      "count": 30,
      "type": "SCALAR",
      "min": [
        0.0
      ],
      "max": [
        2.4166666666666665
      ]
    },
    {
      "bufferView": 13,
      "componentType": 5126,
      "count": 30,
      "type": "VEC3"
    },
    {
      "bufferView": 14,
      "componentType": 5126,
      "count": 30,
      "type": "SCALAR",
      "min": [
        0.0
      ],
      "max": [
        2.4166666666666665
      ]
    },
    {
      "bufferView": 15,
      "componentType": 5126,
      "count": 30,
      "type": "VEC4"
    },
    {
      "bufferView": 16,
      "componentType": 5126,
      "count": 30,
      "type": "SCALAR",
      "min": [
        0.0
      ],
      "max": [
        2.4166666666666665
      ]
    },
    {
      "bufferView": 17,
      "componentType": 5126,
      "count": 30,
      "type": "VEC3"
    },
    {
      "bufferView": 18,
      "componentType": 5126,
      "count": 30,
      "type": "SCALAR",
      "min": [
        0.0
      ],
      "max": [
        2.4166666666666665
      ]
    },
    {
      "bufferView": 19,
      "componentType": 5126,
      "count": 30,
      "type": "VEC4"
    },
    {
      "bufferView": 20,
      "componentType": 5126,
      "count": 30,
      "type": "SCALAR",
      "min": [
        0.0
      ],
      "max": [
        2.4166666666666665
      ]
    },
    {
      "bufferView": 21,
      "componentType": 5126,
      "count": 30,
      "type": "VEC3"
    },
    {
      "bufferView": 22,
      "componentType": 5126,
      "count": 30,
      "type": "SCALAR",
      "min": [
        0.0
      ],
      "max": [
        2.4166666666666665
      ]
    },
    {
      "bufferView": 23,
      "componentType": 5126,
      "count": 30,
      "type": "VEC4"
    },
    {
      "bufferView": 24,
      "componentType": 5126,
      "count": 30,
      "type": "SCALAR",
      "min": [
        0.0
      ],
      "max": [
        2.4166666666666665
      ]
    },
    {
      "bufferView": 25,
      "componentType": 5126,
      "count": 30,
      "type": "VEC3"
    },
    {
      "bufferView": 26,
      "componentType": 5126,
      "count": 30,
      "type": "SCALAR",
      "min": [
        0.0
      ],
      "max": [
        2.4166666666666665
      ]
    },
    {
      "bufferView": 27,
      "componentType": 5126,
      "count": 30,
      "type": "VEC4"
    },
    {
      "bufferView": 28,
      "componentType": 5126,
      "count": 30,
      "type": "SCALAR",
      "min": [
        0.0
      ],
      "max": [
        2.4166666666666665
      ]
    },
    {
      "bufferView": 29,
      "componentType": 5126,
      "count": 30,
      "type": "VEC3"
    },
    {
      "bufferView": 30,
      "componentType": 5126,
      "count": 30,
      "type": "SCALAR",
      "min": [
        0.0
      ],
      "max": [
        2.4166666666666665
      ]
    },
    {
      "bufferView": 31,
      "componentType": 5126,
      "count": 30,
      "type": "VEC4"
    },
    {
      "bufferView": 32,
      "componentType": 5126,
      "count": 30,
      "type": "SCALAR",
      "min": [
        0.0
      ],
      "max": [
        2.4166666666666665
      ]
    },
    {
      "bufferView": 33,
      "componentType": 5126,
      "count": 30,
      "type": "VEC3"
    },
    {
      "bufferView": 34,
      "componentType": 5126,
      "count": 25,
      "type": "SCALAR",
      "min": [
        0.0
      ],
      "max": [
        2.0
      ]
    },
    {
      "bufferView": 35,
      "componentType": 5126,
      "count": 25,
      "type": "VEC4"
    },
    {
      "bufferView": 36,
      "componentType": 5126,
      "count": 25,
      "type": "SCALAR",
      "min": [
        0.0
      ],
      "max": [
        2.0
      ]
    },
    {
      "bufferView": 37,
      "componentType": 5126,
      "count": 25,
      "type": "VEC3"
    },
    {
      "bufferView": 38,
      "componentType": 5126,
      "count": 25,
      "type": "SCALAR",
      "min": [
        0.0
      ],
      "max": [
        2.0
      ]
    },
    {
      "bufferView": 39,
      "componentType": 5126,
      "count": 25,
      "type": "VEC4"
    },
    {
      "bufferView": 40,
      "componentType": 5126,
      "count": 25,
      "type": "SCALAR",
      "min": [
        0.0
      ],
      "max": [
        2.0
      ]
    },
    {
      "bufferView": 41,
      "componentType": 5126,
      "count": 25,
      "type": "VEC3"
    },
    {
      "bufferView": 42,
      "componentType": 5126,
      "count": 25,
      "type": "SCALAR",
      "min": [
        0.0
      ],
      "max": [
        2.0
      ]
    },
    {
      "bufferView": 43,
      "componentType": 5126,
      "count": 25,
      "type": "VEC4"
    },
    {
      "bufferView": 44,
      "componentType": 5126,
      "count": 25,
      "type": "SCALAR",
      "min": [
        0.0
      ],
      "max": [
        2.0
      ]
    },
    {
      "bufferView": 45,
      "componentType": 5126,
      "count": 25,
      "type": "VEC3"
    },
    {
      "bufferView": 46,
      "componentType": 5126,
      "count": 25,
      "type": "SCALAR",
      "min": [
        0.0
      ],
      "max": [
        2.0
      ]
    },
    {
      "bufferView": 47,
      "componentType": 5126,
      "count": 25,
      "type": "VEC4"
    },
    {
      "bufferView": 48,
      "componentType": 5126,
      "count": 25,
      "type": "SCALAR",
      "min": [
        0.0
      ],
      "max": [
        2.0
      ]
    },
    {
      "bufferView": 49,
      "componentType": 5126,
      "count": 25,
      "type": "VEC3"
    },
    {
      "bufferView": 50,
      "componentType": 5126,
      "count": 25,
      "type": "SCALAR",
      "min": [
        0.0
      ],
      "max": [
        2.0
      ]
    },
    {
      "bufferView": 51,
      "componentType": 5126,
      "count": 25,
      "type": "VEC4"
    },
    {
      "bufferView": 52,
      "componentType": 5126,
      "count": 25,
      "type": "SCALAR",
      "min": [
        0.0
      ],
      "max": [
        2.0
      ]
    },
    {
      "bufferView": 53,
      "componentType": 5126,
      "count": 25,
      "type": "VEC3"
    },
    {
      "bufferView": 54,
      "componentType": 5126,
      "count": 25,
      "type": "SCALAR",
      "min": [
        0.0
      ],
      "max": [
        2.0
      ]
    },
    {
      "bufferView": 55,
      "componentType": 5126,
      "count": 25,
      "type": "VEC4"
    },
    {
      "bufferView": 56,
      "componentType": 5126,
      "count": 25,
      "type": "SCALAR",
      "min": [
        0.0
      ],
      "max": [
        2.0
      ]
    },
    {
      "bufferView": 57,
      "componentType": 5126,
      "count": 25,
      "type": "VEC3"
    },
    {
      "bufferView": 58,
      "componentType": 5126,
      "count": 25,
      "type": "SCALAR",
      "min": [
        0.0
      ],
      "max": [
        2.0
      ]
    },
    {
      "bufferView": 59,
      "componentType": 5126,
      "count": 25,
      "type": "VEC4"
    },
    {
      "bufferView": 60,
      "componentType": 5126,
      "count": 25,
      "type": "SCALAR",
      "min": [
        0.0
      ],
      "max": [
        2.0
      ]
    },
    {
      "bufferView": 61,
      "componentType": 5126,
      "count": 25,
      "type": "VEC3"
    },
    {
      "bufferView": 62,
      "componentType": 5126,
      "count": 25,
      "type": "SCALAR",
      "min": [
        0.0
      ],
      "max": [
        2.0
      ]
    },
    {
      "bufferView": 63,
      "componentType": 5126,
      "count": 25,
      "type": "VEC4"
    },
    {
      "bufferView": 64,
      "componentType": 5126,
      "count": 25,
      "type": "SCALAR",
      "min": [
        0.0
      ],
      "max": [
        2.0
      ]
    },
    {
      "bufferView": 65,
      "componentType": 5126,
      "count": 25,
      "type": "VEC3"
    },
    {
      "bufferView": 66,
      "componentType": 5126,
      "count": 25,
      "type": "SCALAR",
      "min": [
        0.0
      ],
      "max": [
        2.0
      ]
    },
    {
      "bufferView": 67,
      "componentType": 5126,
      "count": 25,
      "type": "VEC4"
    },
    {
      "bufferView": 68,
      "componentType": 5126,
      "count": 25,
      "type": "SCALAR",
      "min": [
        0.0
      ],
      "max": [
        2.0
      ]
    },
    {
      "bufferView": 69,
      "componentType": 5126,
      "count": 25,
      "type": "VEC3"
    },
    {
      "bufferView": 70,
      "componentType": 5126,
      "count": 25,
      "type": "SCALAR",
      "min": [
        0.0
      ],
      "max": [
        2.0
      ]
    },
    {
      "bufferView": 71,
      "componentType": 5126,
      "count": 25,
      "type": "VEC4"
    },
    {
      "bufferView": 72,
      "componentType": 5126,
      "count": 25,
      "type": "SCALAR",
      "min": [
        0.0
      ],
      "max": [
        2.0
      ]
    },
    {
      "bufferView": 73,
      "componentType": 5126,
      "count": 25,
      "type": "VEC3"
    },
    {
      "bufferView": 74,
      "componentType": 5126,
      "count": 25,
      "type": "SCALAR",
      "min": [
        0.0
      ],
      "max": [
        2.0
      ]
    },
    {
      "bufferView": 75,
      "componentType": 5126,
      "count": 25,
      "type": "VEC4"
    },
    {
      "bufferView": 76,
      "componentType": 5126,
      "count": 25,
      "type": "SCALAR",
      "min": [
        0.0
      ],
      "max": [
        2.0
      ]
    },
    {
      "bufferView": 77,
      "componentType": 5126,
      "count": 25,
      "type": "VEC3"
    },
    {
      "bufferView": 78,
      "componentType": 5126,
      "count": 25,
      "type": "SCALAR",
      "min": [
        0.0
      ],
      "max": [
        2.0
      ]
    },
    {
      "bufferView": 79,
      "componentType": 5126,
      "count": 25,
      "type": "VEC4"
    },
    {
      "bufferView": 80,
      "componentType": 5126,
      "count": 25,
      "type": "SCALAR",
      "min": [
        0.0
      ],
      "max": [
        2.0
      ]
    },
    {
      "bufferView": 81,
      "componentType": 5126,
      "count": 25,
      "type": "VEC3"
    },
    {
      "bufferView": 82,
      "componentType": 5126,
      "count": 25,
      "type": "SCALAR",
      "min": [
        0.0
      ],
      "max": [
        2.0
      ]
    },
    {
      "bufferView": 83,
      "componentType": 5126,
      "count": 25,
      "type": "VEC4"
    },
    {
      "bufferView": 84,
      "componentType": 5126,
      "count": 25,
      "type": "SCALAR",
      "min": [
        0.0
      ],
      "max": [
        2.0
      ]
    },
    {
      "bufferView": 85,
      "componentType": 5126,
      "count": 25,
      "type": "VEC3"
    },
    {
      "bufferView": 86,
      "componentType": 5126,
      "count": 25,
      "type": "SCALAR",
      "min": [
        0.0
      ],
      "max": [
        2.0
      ]
    },
    {
      "bufferView": 87,
      "componentType": 5126,
      "count": 25,
      "type": "VEC4"
    },
    {
      "bufferView": 88,
      "componentType": 5126,
      "count": 25,
      "type": "SCALAR",
      "min": [
        0.0
      ],
      "max": [
        2.0
      ]
    },
    {
      "bufferView": 89,
      "componentType": 5126,
      "count": 25,
      "type": "VEC3"
    },
    {
      "bufferView": 90,
      "componentType": 5126,
      "count": 21,
      "type": "SCALAR",
      "min": [
        0.0
      ],
      "max": [
        1.6666666666666667
      ]
    },
    {
      "bufferView": 91,
      "componentType": 5126,
      "count": 21,
      "type": "VEC4"
    },
    {
      "bufferView": 92,
      "componentType": 5126,
      "count": 21,
      "type": "SCALAR",
      "min": [
        0.0
      ],
      "max": [
        1.6666666666666667
      ]
    },
    {
      "bufferView": 93,
      "componentType": 5126,
      "count": 21,
      "type": "VEC3"
    },
    {
      "bufferView": 94,
      "componentType": 5126,
      "count": 21,
      "type": "SCALAR",
      "min": [
        0.0
      ],
      "max": [
        1.6666666666666667
      ]
    },
    {
      "bufferView": 95,
      "componentType": 5126,
      "count": 21,
      "type": "VEC4"
    },
    {
      "bufferView": 96,
      "componentType": 5126,
      "count": 21,
      "type": "SCALAR",
      "min": [
        0.0
      ],
      "max": [
        1.6666666666666667
      ]
    },
    {
      "bufferView": 97,
      "componentType": 5126,
      "count": 21,
      "type": "VEC3"
    },
    {
      "bufferView": 98,
      "componentType": 5126,
      "count": 21,
      "type": "SCALAR",
      "min": [
        0.0
      ],
      "max": [
        1.6666666666666667
      ]
    },
    {
      "bufferView": 99,
      "componentType": 5126,
      "count": 21,
      "type": "VEC4"
    },
    {
      "bufferView": 100,
      "componentType": 5126,
      "count": 21,
      "type": "SCALAR",
      "min": [
        0.0
      ],
      "max": [
        1.6666666666666667
      ]
    },
    {
      "bufferView": 101,
      "componentType": 5126,
      "count": 21,
      "type": "VEC3"
    },
    {
      "bufferView": 102,
      "componentType": 5126,
      "count": 21,
      "type": "SCALAR",
      "min": [
        0.0
      ],
      "max": [
        1.6666666666666667
      ]
    },
    {
      "bufferView": 103,
      "componentType": 5126,
      "count": 21,
      "type": "VEC4"
    },
    {
      "bufferView": 104,
      "componentType": 5126,
      "count": 21,
      "type": "SCALAR",
      "min": [
        0.0
      ],
      "max": [
        1.6666666666666667
      ]
    },
    {
      "bufferView": 105,
      "componentType": 5126,
      "count": 21,
      "type": "VEC3"
    },
    {
      "bufferView": 106,
      "componentType": 5126,
      "count": 21,
      "type": "SCALAR",
      "min": [
        0.0
      ],
      "max": [
        1.6666666666666667
      ]
    },
    {
      "bufferView": 107,
      "componentType": 5126,
      "count": 21,
      "type": "VEC4"
    },
    {
      "bufferView": 108,
      "componentType": 5126,
      "count": 21,
      "type": "SCALAR",
      "min": [
        0.0
      ],
      "max": [
        1.6666666666666667
      ]
    },
    {
      "bufferView": 109,
      "componentType": 5126,
      "count": 21,
      "type": "VEC3"
    },
    {
      "bufferView": 110,
      "componentType": 5126,
      "count": 21,
      "type": "SCALAR",
      "min": [
        0.0
      ],
      "max": [
        1.6666666666666667
      ]
    },
    {
      "bufferView": 111,
      "componentType": 5126,
      "count": 21,
      "type": "VEC4"
    },
    {
      "bufferView": 112,
      "componentType": 5126,
      "count": 21,
      "type": "SCALAR",
      "min": [
        0.0
      ],
      "max": [
        1.6666666666666667
      ]
    },
    {
      "bufferView": 113,
      "componentType": 5126,
      "count": 21,
      "type": "VEC3"
    },
    {
      "bufferView": 114,
      "componentType": 5126,
      "count": 21,
      "type": "SCALAR",
      "min": [
        0.0
      ],
      "max": [
        1.6666666666666667
      ]
    },
    {
      "bufferView": 115,
      "componentType": 5126,
      "count": 21,
      "type": "VEC4"
    },
    {
      "bufferView": 116,
      "componentType": 5126,
      "count": 21,
      "type": "SCALAR",
      "min": [
        0.0
      ],
      "max": [
        1.6666666666666667
      ]
    },
    {
      "bufferView": 117,
      "componentType": 5126,
      "count": 21,
      "type": "VEC3"
    }
  ],
  "animations": [
    {
      "name": "idle",
      "channels": [
        {
          "sampler": 0,
          "target": {
            "node": 2,
            "path": "rotation"
          }
        },
        {
          "sampler": 1,
          "target": {
            "node": 2,
            "path": "translation"
          }
        },
        {
          "sampler": 2,
          "target": {
            "node": 3,
            "path": "rotation"
          }
        },
        {
          "sampler": 3,
          "target": {
            "node": 3,
            "path": "translation"
          }
        },
        {
          "sampler": 4,
          "target": {
            "node": 4,
            "path": "rotation"
          }
        },
        {
          "sampler": 5,
          "target": {
            "node": 4,
            "path": "translation"
          }
        },
        {
          "sampler": 6,
          "target": {
            "node": 5,
            "path": "rotation"
          }
        },
        {
          "sampler": 7,
          "target": {
            "node": 5,
            "path": "translation"
          }
        },
        {
          "sampler": 8,
          "target": {
            "node": 6,
            "path": "rotation"
          }
        },
        {
          "sampler": 9,
          "target": {
            "node": 6,
            "path": "translation"
          }
        },
        {
          "sampler": 10,
          "target": {
            "node": 7,
            "path": "rotation"
          }
        },
        {
          "sampler": 11,
          "target": {
            "node": 7,
            "path": "translation"
          }
        },
        {
          "sampler": 12,
          "target": {
            "node": 8,
            "path": "rotation"
          }
        },
        {
          "sampler": 13,
          "target": {
            "node": 8,
            "path": "translation"
          }
        }
      ],
      "samplers": [
        {
          "input": 6,
          "interpolation": "LINEAR",
          "output": 7
        },
        {
          "input": 8,
          "interpolation": "LINEAR",
          "output": 9
        },
        {
          "input": 10,
          "interpolation": "LINEAR",
          "output": 11
        },
        {
          "input": 12,
          "interpolation": "LINEAR",
          "output": 13
        },
        {
          "input": 14,
          "interpolation": "LINEAR",
          "output": 15
        },
        {
          "input": 16,
          "interpolation": "LINEAR",
          "output": 17
        },
        {
          "input": 18,
          "interpolation": "LINEAR",
          "output": 19
        },
        {
          "input": 20,
          "interpolation": "LINEAR",
          "output": 21
        },
        {
          "input": 22,
          "interpolation": "LINEAR",
          "output": 23
        },
        {
          "input": 24,
          "interpolation": "LINEAR",
          "output": 25
        },
        {
          "input": 26,
          "interpolation": "LINEAR",
          "output": 27
        },
        {
          "input": 28,
          "interpolation": "LINEAR",
          "output": 29
        },
        {
          "input": 30,
          "interpolation": "LINEAR",
          "output": 31
        },
        {
          "input": 32,
          "interpolation": "LINEAR",
          "output": 33
        }
      ]
    },
    {
      "name": "walk",
      "channels": [
        {
          "sampler": 0,
          "target": {
            "node": 2,
            "path": "rotation"
          }
        },
        {
          "sampler": 1,
          "target": {
            "node": 2,
            "path": "translation"
          }
        },
        {
          "sampler": 2,
          "target": {
            "node": 3,
            "path": "rotation"
          }
        },
        {
          "sampler": 3,
          "target": {
            "node": 3,
            "path": "translation"
          }
        },
        {
          "sampler": 4,
          "target": {
            "node": 4,
            "path": "rotation"
          }
        },
        {
          "sampler": 5,
          "target": {
            "node": 4,
            "path": "translation"
          }
        },
        {
          "sampler": 6,
          "target": {
            "node": 5,
            "path": "rotation"
          }
        },
        {
          "sampler": 7,
          "target": {
            "node": 5,
            "path": "translation"
          }
        },
        {
          "sampler": 8,
          "target": {
            "node": 6,
            "path": "rotation"
          }
        },
        {
          "sampler": 9,
          "target": {
            "node": 6,
            "path": "translation"
          }
        },
        {
          "sampler": 10,
          "target": {
            "node": 7,
            "path": "rotation"
          }
        },
        {
          "sampler": 11,
          "target": {
            "node": 7,
            "path": "translation"
          }
        },
        {
          "sampler": 12,
          "target": {
            "node": 8,
            "path": "rotation"
          }
        },
        {
          "sampler": 13,
          "target": {
            "node": 8,
            "path": "translation"
          }
        }
      ],
      "samplers": [
        {
          "input": 34,
          "interpolation": "LINEAR",
          "output": 35
        },
        {
          "input": 36,
          "interpolation": "LINEAR",
          "output": 37
        },
        {
          "input": 38,
          "interpolation": "LINEAR",
          "output": 39
        },
        {
          "input": 40,
          "interpolation": "LINEAR",
          "output": 41
        },
        {
          "input": 42,
          "interpolation": "LINEAR",
          "output": 43
        },
        {
          "input": 44,
          "interpolation": "LINEAR",
          "output": 45
        },
        {
          "input": 46,
          "interpolation": "LINEAR",
          "output": 47
        },
        {
          "input": 48,
          "interpolation": "LINEAR",
          "output": 49
        },
        {
          "input": 50,
          "interpolation": "LINEAR",
          "output": 51
        },
        {
          "input": 52,
          "interpolation": "LINEAR",
          "output": 53
        },
        {
          "input": 54,
          "interpolation": "LINEAR",
          "output": 55
        },
        {
          "input": 56,
          "interpolation": "LINEAR",
          "output": 57
        },
        {
          "input": 58,
          "interpolation": "LINEAR",
          "output": 59
        },
        {
          "input": 60,
          "interpolation": "LINEAR",
          "output": 61
        }
      ]
    },
    {
      "name": "run",
      "channels": [
        {
          "sampler": 0,
          "target": {
            "node": 2,
            "path": "rotation"
          }
        },
        {
          "sampler": 1,
          "target": {
            "node": 2,
            "path": "translation"
          }
        },
        {
          "sampler": 2,
          "target": {
            "node": 3,
            "path": "rotation"
          }
        },
        {
          "sampler": 3,
          "target": {
            "node": 3,
            "path": "translation"
          }
        },
        {
          "sampler": 4,
          "target": {
            "node": 4,
            "path": "rotation"
          }
        },
        {
          "sampler": 5,
          "target": {
            "node": 4,
            "path": "translation"
          }
        },
        {
          "sampler": 6,
          "target": {
            "node": 5,
            "path": "rotation"
          }
        },
        {
          "sampler": 7,
          "target": {
            "node": 5,
            "path": "translation"
          }
        },
        {
          "sampler": 8,
          "target": {
            "node": 6,
            "path": "rotation"
          }
        },
        {
          "sampler": 9,
          "target": {
            "node": 6,
            "path": "translation"
          }
        },
        {
          "sampler": 10,
          "target": {
            "node": 7,
            "path": "rotation"
          }
        },
        {
          "sampler": 11,
          "target": {
            "node": 7,
            "path": "translation"
          }
        },
        {
          "sampler": 12,
          "target": {
            "node": 8,
            "path": "rotation"
          }
        },
        {
          "sampler": 13,
          "target": {
            "node": 8,
            "path": "translation"
          }
        }
      ],
      "samplers": [
        {
          "input": 62,
          "interpolation": "LINEAR",
          "output": 63
        },
        {
          "input": 64,
          "interpolation": "LINEAR",
          "output": 65
        },
        {
          "input": 66,
          "interpolation": "LINEAR",
          "output": 67
        },
        {
          "input": 68,
          "interpolation": "LINEAR",
          "output": 69
        },
        {
          "input": 70,
          "interpolation": "LINEAR",
          "output": 71
        },
        {
          "input": 72,
          "interpolation": "LINEAR",
          "output": 73
        },
        {
          "input": 74,
          "interpolation": "LINEAR",
          "output": 75
        },
        {
          "input": 76,
          "interpolation": "LINEAR",
          "output": 77
        },
        {
          "input": 78,
          "interpolation": "LINEAR",
          "output": 79
        },
        {
          "input": 80,
          "interpolation": "LINEAR",
          "output": 81
        },
        {
          "input": 82,
          "interpolation": "LINEAR",
          "output": 83
        },
        {
          "input": 84,
          "interpolation": "LINEAR",
          "output": 85
        },
        {
          "input": 86,
          "interpolation": "LINEAR",
          "output": 87
        },
        {
          "input": 88,
          "interpolation": "LINEAR",
          "output": 89
        }
      ]
    },
    {
      "name": "punch",
      "channels": [
        {
          "sampler": 0,
          "target": {
            "node": 2,
            "path": "rotation"
          }
        },
        {
          "sampler": 1,
          "target": {
            "node": 2,
            "path": "translation"
          }
        },
        {
          "sampler": 2,
          "target": {
            "node": 3,
            "path": "rotation"
          }
        },
        {
          "sampler": 3,
          "target": {
            "node": 3,
            "path": "translation"
          }
        },
        {
          "sampler": 4,
          "target": {
            "node": 4,
            "path": "rotation"
          }
        },
        {
          "sampler": 5,
          "target": {
            "node": 4,
            "path": "translation"
          }
        },
        {
          "sampler": 6,
          "target": {
            "node": 5,
            "path": "rotation"
          }
        },
        {
          "sampler": 7,
          "target": {
            "node": 5,
            "path": "translation"
          }
        },
        {
          "sampler": 8,
          "target": {
            "node": 6,
            "path": "rotation"
          }
        },
        {
          "sampler": 9,
          "target": {
            "node": 6,
            "path": "translation"
          }
        },
        {
          "sampler": 10,
          "target": {
            "node": 7,
            "path": "rotation"
          }
        },
        {
          "sampler": 11,
          "target": {
            "node": 7,
            "path": "translation"
          }
        },
        {
          "sampler": 12,
          "target": {
            "node": 8,
            "path": "rotation"
          }
        },
        {
          "sampler": 13,
          "target": {
            "node": 8,
            "path": "translation"
          }
        }
      ],
      "samplers": [
        {
          "input": 90,
          "interpolation": "LINEAR",
          "output": 91
        },
        {
          "input": 92,
          "interpolation": "LINEAR",
          "output": 93
        },
        {
          "input": 94,
          "interpolation": "LINEAR",
          "output": 95
        },
        {
          "input": 96,
          "interpolation": "LINEAR",
          "output": 97
        },
        {
          "input": 98,
          "interpolation": "LINEAR",
          "output": 99
        },
        {
          "input": 100,
          "interpolation": "LINEAR",
          "output": 101
        },
        {
          "input": 102,
          "interpolation": "LINEAR",
          "output": 103
        },
        {
          "input": 104,
          "interpolation": "LINEAR",
          "output": 105
        },
        {
          "input": 106,
          "interpolation": "LINEAR",
          "output": 107
        },
        {
          "input": 108,
          "interpolation": "LINEAR",
          "output": 109
        },
        {
          "input": 110,
          "interpolation": "LINEAR",
          "output": 111
        },
        {
          "input": 112,
          "interpolation": "LINEAR",
          "output": 113
        },
        {
          "input": 114,
          "interpolation": "LINEAR",
          "output": 115
        },
        {
          "input": 116,
          "interpolation": "LINEAR",
          "output": 117
        }
      ]
    }
  ]
}