{
  "asset": {
    "version": "2.0",
    "generator": "b3d_export_gltf.py"
  },
  "scene": 0,
  "scenes": [
    {
      "nodes": [
        0
      ]
    }
  ],
  "nodes": [
    {
      "name": "armature",
      "children": [
        7
      ]
    },
    {
      "name": "Cube",
      "translation": [
        0.0,
        0.0,
        0.0
      ],
      "rotation": [
        0.0,
        0.0,
        0.0,
        1.0
      ],
      "scale": [
        1.0,
        1.0,
        1.0
      ],
      "children": [
        2
      ]
    },
    {
      "name": "Bone",
      "translation": [
        0.0,
        -0.3249997830392379,
        0.0
      ],
      "rotation": [
        3.774895063202153e-08,
        -7.549790126404306e-08,
        -2.849966441363856e-15,
        0.9999999999999964
      ],
      "scale": [
        5.0,
        5.0,
        5.0
      ],
      "children": [
        3
      ]
    },
    {
      "name": "Bone.001",
      "translation": [
        -0.0,
        0.12999991321569515,
        -0.0
      ],
      "rotation": [
        0.0,
        0.0,
        0.0,
        1.0
      ],
      "scale": [
        1.0,
        1.0,
        1.0
      ],
      "children": [
        4
      ]
    },
    {
      "name": "Bone.002",
      "translation": [
        -0.0,
        0.019499983882914813,
        -0.0
      ],
      "rotation": [
        0.0,
        0.0,
        0.0,
        1.0
      ],
      "scale": [
        1.0,
        1.0,
        1.0
      ],
      "children": [
        5
      ]
    },
    {
      "name": "Bone.003",
      "translation": [
        -0.0,
        0.019499983882914813,
        -0.0
      ],
      "rotation": [
        0.0,
        0.0,
        0.0,
        1.0
      ],
      "scale": [
        1.0,
        1.0,
        1.0
      ],
      "children": [
        6
      ]
    },
    {
      "name": "Bone.004",
      "translation": [
        -0.0,
        0.025999988842017947,
        -0.0
      ],
      "rotation": [
        0.0,
        0.0,
        0.0,
        1.0
      ],
      "scale": [
        1.0,
        1.0,
        1.0
      ]
    },
    {
      "name": "lava_flan",
      "mesh": 0,
      "skin": 0
    }
  ],
  "meshes": [
    {
      "name": "lava_flan",
      "primitives": [
        {
          "attributes": {
            "POSITION": 0,
            "TEXCOORD_0": 1,
            "JOINTS_0": 2,
            "WEIGHTS_0": 3
          },
          "indices": 4,
          "material": 0
        }
      ]
    }
  ],
  "skins": [
    {
      "inverseBindMatrices": 5,
      "joints": [
        1,
        2,
        3,
        4,
        5,
        6
      ],
      "skeleton": 1
    }
  ],
  "materials": [
    {
      "name": "body",
      "pbrMetallicRoughness": {
        "baseColorTexture": {
          "index": 0
        },
        "metallicFactor": 0.0,
        "roughnessFactor": 1.0
      },
      "doubleSided": true
    }
  ],
  "textures": [
    {
      "source": 0
    }
  ],
  "images": [
    {
      "uri": "textures/body.png"
    }
  ],
  "buffers": [
    {
      "byteLength": 16952,
      "uri": "model.bin"
    }
  ],
  "bufferViews": [
    {
      "buffer": 0,
      "byteOffset": 0,
      "byteLength": 2832,
      "target": 34962
    },
    {
      "buffer": 0,
      "byteOffset": 2832,
      "byteLength": 1888,
      "target": 34962
    },
    {
      "buffer": 0,
      "byteOffset": 4720,
      "byteLength": 944,
      "target": 34962
    },
    {
      "buffer": 0,
      "byteOffset": 5664,
      "byteLength": 3776,
      "target": 34962
    },
    {
      "buffer": 0,
      "byteOffset": 9440,
      "byteLength": 648,
      "target": 34963
    },
    {
      "buffer": 0,
      "byteOffset": 10088,
      "byteLength": 384
    },
    {
      "buffer": 0,
      "byteOffset": 10472,
      "byteLength": 36
    },
    {
      "buffer": 0,
      "byteOffset": 10508,
      "byteLength": 144
    },
    {
      "buffer": 0,
      "byteOffset": 10652,
      "byteLength": 36
    },
    {
      "buffer": 0,
      "byteOffset": 10688,
      "byteLength": 108
    },
    {
      "buffer": 0,
      "byteOffset": 10796,
      "byteLength": 36
    },
    {
      "buffer": 0,
      "byteOffset": 10832,
      "byteLength": 144
    },
    {
      "buffer": 0,
      "byteOffset": 10976,
      "byteLength": 36
    },
    {
      "buffer": 0,
      "byteOffset": 11012,
      "byteLength": 108
    },
    {
      "buffer": 0,
      "byteOffset": 11120,
      "byteLength": 36
    },
    {
      "buffer": 0,
      "byteOffset": 11156,
      "byteLength": 144
    },
    {
      "buffer": 0,
      "byteOffset": 11300,
      "byteLength": 36
    },
    {
      "buffer": 0,
      "byteOffset": 11336,
      "byteLength": 108
    },
    {
      "buffer": 0,
      "byteOffset": 11444,
      "byteLength": 36
    },
    {
      "buffer": 0,
      "byteOffset": 11480,
      "byteLength": 144
    },
    {
      "buffer": 0,
      "byteOffset": 11624,
      "byteLength": 36
    },
    {
      "buffer": 0,
      "byteOffset": 11660,
      "byteLength": 108
    },
    {
      "buffer": 0,
      "byteOffset": 11768,
      "byteLength": 36
    },
    {
      "buffer": 0,
      "byteOffset": 11804,
      "byteLength": 144
    },
    {
      "buffer": 0,
      "byteOffset": 11948,
      "byteLength": 36
    },
    {
      "buffer": 0,
      "byteOffset": 11984,
      "byteLength": 108
    },
    {
      "buffer": 0,
      "byteOffset": 12092,
      "byteLength": 36
    },
    {
      "buffer": 0,
      "byteOffset": 12128,
      "byteLength": 144
    },
    {
      "buffer": 0,
      "byteOffset": 12272,
      "byteLength": 36
    },
    {
      "buffer": 0,
      "byteOffset": 12308,
      "byteLength": 108
    },
    {
      "buffer": 0,
      "byteOffset": 12416,
      "byteLength": 36
    },
    {
      "buffer": 0,
      "byteOffset": 12452,
      "byteLength": 144
    },
    {
      "buffer": 0,
      "byteOffset": 12596,
      "byteLength": 36
    },
    {
      "buffer": 0,
      "byteOffset": 12632,
      "byteLength": 108
    },
    {
      "buffer": 0,
      "byteOffset": 12740,
      "byteLength": 36
    },
    {
      "buffer": 0,
      "byteOffset": 12776,
      "byteLength": 144
    },
    {
      "buffer": 0,
      "byteOffset": 12920,
      "byteLength": 36
    },
    {
      "buffer": 0,
      "byteOffset": 12956,
      "byteLength": 108
    },
    {
      "buffer": 0,
      "byteOffset": 13064,
      "byteLength": 36
    },
    {
      "buffer": 0,
      "byteOffset": 13100,
      "byteLength": 144
    },
    {
      "buffer": 0,
      "byteOffset": 13244,
      "byteLength": 36
    },
    {
      "buffer": 0,
      "byteOffset": 13280,
      "byteLength": 108
    },
    {
      "buffer": 0,
      "byteOffset": 13388,
      "byteLength": 36
    },
    {
      "buffer": 0,
      "byteOffset": 13424,
      "byteLength": 144
    },
    {
      "buffer": 0,
      "byteOffset": 13568,
      "byteLength": 36
    },
    {
      "buffer": 0,
      "byteOffset": 13604,
      "byteLength": 108
    },
    {
      "buffer": 0,
      "byteOffset": 13712,
      "byteLength": 36
    },
    {
      "buffer": 0,
      "byteOffset": 13748,
      "byteLength": 144
    },
    {
      "buffer": 0,
      "byteOffset": 13892,
      "byteLength": 36
    },
    {
      "buffer": 0,
      "byteOffset": 13928,
      "byteLength": 108
    },
    {
      "buffer": 0,
      "byteOffset": 14036,
      "byteLength": 36
    },
    {
      "buffer": 0,
      "byteOffset": 14072,
      "byteLength": 144
    },
    {
      "buffer": 0,
      "byteOffset": 14216,
      "byteLength": 36
    },
    {
      "buffer": 0,
      "byteOffset": 14252,
      "byteLength": 108
    },
    {
      "buffer": 0,
      "byteOffset": 14360,
      "byteLength": 36
    },
    {
      "buffer": 0,
      "byteOffset": 14396,
      "byteLength": 144
    },
    {
      "buffer": 0,
      "byteOffset": 14540,
      "byteLength": 36
    },
    {
      "buffer": 0,
      "byteOffset": 14576,
      "byteLength": 108
    },
    {
      "buffer": 0,
      "byteOffset": 14684,
      "byteLength": 36
    },
    {
      "buffer": 0,
      "byteOffset": 14720,
      "byteLength": 144
    },
    {
      "buffer": 0,
      "byteOffset": 14864,
      "byteLength": 36
    },
    {
      "buffer": 0,
      "byteOffset": 14900,
      "byteLength": 108
    },
    {
      "buffer": 0,
      "byteOffset": 15008,
      "byteLength": 36
    },
    {
      "buffer": 0,
      "byteOffset": 15044,
      "byteLength": 144
    },
    {
      "buffer": 0,
      "byteOffset": 15188,
      "byteLength": 36
    },
    {
      "buffer": 0,
      "byteOffset": 15224,
      "byteLength": 108
    },
    {
      "buffer": 0,
      "byteOffset": 15332,
      "byteLength": 36
    },
    {
      "buffer": 0,
      "byteOffset": 15368,
      "byteLength": 144
    },
    {
      "buffer": 0,
      "byteOffset": 15512,
      "byteLength": 36
    },
    {
      "buffer": 0,
      "byteOffset": 15548,
      "byteLength": 108
    },
    {
      "buffer": 0,
      "byteOffset": 15656,
      "byteLength": 36
    },
    {
      "buffer": 0,
      "byteOffset": 15692,
      "byteLength": 144
    },
    {
      "buffer": 0,
      "byteOffset": 15836,
      "byteLength": 36
    },
    {
      "buffer": 0,
      "byteOffset": 15872,
      "byteLength": 108
    },
    {
      "buffer": 0,
      "byteOffset": 15980,
      "byteLength": 36
    },
    {
      "buffer": 0,
      "byteOffset": 16016,
      "byteLength": 144
    },
    {
      "buffer": 0,
      "byteOffset": 16160,
      "byteLength": 36
    },
    {
      "buffer": 0,
      "byteOffset": 16196,
      "byteLength": 108
    },
    {
      "buffer": 0,
      "byteOffset": 16304,
      "byteLength": 36
    },
    {
      "buffer": 0,
      "byteOffset": 16340,
      "byteLength": 144
    },
    {
      "buffer": 0,
      "byteOffset": 16484,
      "byteLength": 36
    },
    {
      "buffer": 0,
      "byteOffset": 16520,
      "byteLength": 108
    },
    {
      "buffer": 0,
      "byteOffset": 16628,
      "byteLength": 36
    },
    {
      "buffer": 0,
      "byteOffset": 16664,
      "byteLength": 144
    },
    {
      "buffer": 0,
      "byteOffset": 16808,
      "byteLength": 36
    },
    {
      "buffer": 0,
      "byteOffset": 16844,
      "byteLength": 108
    }
  ],
  "accessors": [
    {
      "bufferView": 0,
      "componentType": 5126,
      "count": 236,
      "type": "VEC3",
      "min": [
        -0.325,
        -0.3249997830392379,
        -0.3249999690056054
      ],
      "max": [
        0.3249999690056054,
        0.8124994575980947,
        0.3250000309943946
      ]
    },
    {
      "bufferView": 1,
      "componentType": 5126,
      "count": 236,
      "type": "VEC2"
    },
    {
      "bufferView": 2,
      "componentType": 5121,
      "count": 236,
      "type": "VEC4"
    },
    {
      "bufferView": 3,
      "componentType": 5126,
      "count": 236,
      "type": "VEC4"
    },
    {
      "bufferView": 4,
      "componentType": 5123,
      "count": 324,
      "type": "SCALAR"
    },
    {
      "bufferView": 5,
      "componentType": 5126,
      "count": 6,
      "type": "MAT4"
    },
    {
      "bufferView": 6,
      "componentType": 5126,
      "count": 9,
      "type": "SCALAR",
      "min": [
        0.0
      ],
      "max": [
        0.5333333333333333
      ]
    },
    {
      "bufferView": 7,
      "componentType": 5126,
      "count": 9,
      "type": "VEC4"
    },
    {
      "bufferView": 8,
      "componentType": 5126,
      "count": 9,
      "type": "SCALAR",
      "min": [
        0.0
      ],
      "max": [
        0.5333333333333333
      ]
    },
    {
      "bufferView": 9,
      "componentType": 5126,
      "count": 9,
      "type": "VEC3"
    },
    {
      "bufferView": 10,
      "componentType": 5126,
      "count": 9,
      "type": "SCALAR",
      "min": [
        0.0
      ],
      "max": [
        0.5333333333333333
      ]
    },
    {
      "bufferView": 11,
      "componentType": 5126,
      "count": 9,
      "type": "VEC4"
    },
    {
      "bufferView": 12,
      "componentType": 5126,
      "count": 9,
      "type": "SCALAR",
      "min": [
        0.0
      ],
      "max": [
        0.5333333333333333
      ]
    },
    {
      "bufferView": 13,
      "componentType": 5126,
      "count": 9,
      "type": "VEC3"
    },
    {
      "bufferView": 14,
      "componentType": 5126,
      "count": 9,
      "type": "SCALAR",
      "min": [
        0.0
      ],
      "max": [
        0.5333333333333333
      ]
    },
    {
      "bufferView": 15,
      "componentType": 5126,
      "count": 9,
      "type": "VEC4"
    },
    {
      "bufferView": 16,
      "componentType": 5126,
      "count": 9,
      "type": "SCALAR",
      "min": [
        0.0
      ],
      "max": [
        0.5333333333333333
      ]
    },
    {
      "bufferView": 17,
      "componentType": 5126,
      "count": 9,
      "type": "VEC3"
    },
    {
      "bufferView": 18,
      "componentType": 5126,
      "count": 9,
      "type": "SCALAR",
      "min": [
        0.0
      ],
      "max": [
        0.5333333333333333
      ]
    },
    {
      "bufferView": 19,
      "componentType": 5126,
      "count": 9,
      "type": "VEC4"
    },
    {
      "bufferView": 20,
      "componentType": 5126,
      "count": 9,
      "type": "SCALAR",
      "min": [
        0.0
      ],
      "max": [
        0.5333333333333333
      ]
    },
    {
      "bufferView": 21,
      "componentType": 5126,
      "count": 9,
      "type": "VEC3"
    },
    {
      "bufferView": 22,
      "componentType": 5126,
      "count": 9,
      "type": "SCALAR",
      "min": [
        0.0
      ],
      "max": [
        0.5333333333333333
      ]
    },
    {
      "bufferView": 23,
      "componentType": 5126,
      "count": 9,
      "type": "VEC4"
    },
    {
      "bufferView": 24,
      "componentType": 5126,
      "count": 9,
      "type": "SCALAR",
      "min": [
        0.0
      ],
      "max": [
        0.5333333333333333
      ]
    },
    {
      "bufferView": 25,
      "componentType": 5126,
      "count": 9,
      "type": "VEC3"
    },
    {
      "bufferView": 26,
      "componentType": 5126,
      "count": 9,
      "type": "SCALAR",
      "min": [
        0.0
      ],
      "max": [
        0.5333333333333333
      ]
    },
    {
      "bufferView": 27,
      "componentType": 5126,
      "count": 9,
      "type": "VEC4"
    },
    {
      "bufferView": 28,
      "componentType": 5126,
      "count": 9,
      "type": "SCALAR",
      "min": [
        0.0
      ],
      "max": [
        0.5333333333333333
      ]
    },
    {
      "bufferView": 29,
      "componentType": 5126,
      "count": 9,
      "type": "VEC3"
    },
    {
      "bufferView": 30,
      "componentType": 5126,
      "count": 9,
      "type": "SCALAR",
      "min": [
        0.0
      ],
      "max": [
        0.5333333333333333
      ]
    },
    {
      "bufferView": 31,
      "componentType": 5126,
      "count": 9,
      "type": "VEC4"
    },
    {
      "bufferView": 32,
      "componentType": 5126,
      "count": 9,
      "type": "SCALAR",
      "min": [
        0.0
      ],
      "max": [
        0.5333333333333333
      ]
    },
    {
      "bufferView": 33,
      "componentType": 5126,
      "count": 9,
      "type": "VEC3"
    },
    {
      "bufferView": 34,
      "componentType": 5126,
      "count": 9,
      "type": "SCALAR",
      "min": [
        0.0
      ],
      "max": [
        0.5333333333333333
      ]
    },
    {
      "bufferView": 35,
      "componentType": 5126,
      "count": 9,
      "type": "VEC4"
    },
    {
      "bufferView": 36,
      "componentType": 5126,
      "count": 9,
      "type": "SCALAR",
      "min": [
        0.0
      ],
      "max": [
        0.5333333333333333
      ]
    },
    {
      "bufferView": 37,
      "componentType": 5126,
      "count": 9,
      "type": "VEC3"
    },
    {
      "bufferView": 38,
      "componentType": 5126,
      "count": 9,
      "type": "SCALAR",
      "min": [
        0.0
      ],
      "max": [
        0.5333333333333333
      ]
    },
    {
      "bufferView": 39,
      "componentType": 5126,
      "count": 9,
      "type": "VEC4"
    },
    {
      "bufferView": 40,
      "componentType": 5126,
      "count": 9,
      "type": "SCALAR",
      "min": [
        0.0
      ],
      "max": [
        0.5333333333333333
      ]
    },
    {
      "bufferView": 41,
      "componentType": 5126,
      "count": 9,
      "type": "VEC3"
    },
    {
      "bufferView": 42,
      "componentType": 5126,
      "count": 9,
      "type": "SCALAR",
      "min": [
        0.0
      ],
      "max": [
        0.5333333333333333
      ]
    },
    {
      "bufferView": 43,
      "componentType": 5126,
      "count": 9,
      "type": "VEC4"
    },
    {
      "bufferView": 44,
      "componentType": 5126,
      "count": 9,
      "type": "SCALAR",
      "min": [
        0.0
      ],
      "max": [
        0.5333333333333333
      ]
    },
    {
      "bufferView": 45,
      "componentType": 5126,
      "count": 9,
      "type": "VEC3"
    },
    {
      "bufferView": 46,
      "componentType": 5126,
      "count": 9,
      "type": "SCALAR",
      "min": [
        0.0
      ],
      "max": [
        0.5333333333333333
      ]
    },
    {
      "bufferView": 47,
      "componentType": 5126,
      "count": 9,
      "type": "VEC4"
    },
    {
      "bufferView": 48,
      "componentType": 5126,
      "count": 9,
      "type": "SCALAR",
      "min": [
        0.0
      ],
      "max": [
        0.5333333333333333
      ]
    },
    {
      "bufferView": 49,
      "componentType": 5126,
      "count": 9,
      "type": "VEC3"
    },
    {
      "bufferView": 50,
      "componentType": 5126,
      "count": 9,
      "type": "SCALAR",
      "min": [
        0.0
      ],
      "max": [
        0.5333333333333333
      ]
    },
    {
      "bufferView": 51,
      "componentType": 5126,
      "count": 9,
      "type": "VEC4"
    },
    {
      "bufferView": 52,
      "componentType": 5126,
      "count": 9,
      "type": "SCALAR",
      "min": [
        0.0
      ],
      "max": [
        0.5333333333333333
      ]
    },
    {
      "bufferView": 53,
      "componentType": 5126,
      "count": 9,
      "type": "VEC3"
    },
    {
      "bufferView": 54,
      "componentType": 5126,
      "count": 9,
      "type": "SCALAR",
      "min": [
        0.0
      ],
      "max": [
        0.5333333333333333
      ]
    },
    {
      "bufferView": 55,
      "componentType": 5126,
      "count": 9,
      "type": "VEC4"
    },
    {
      "bufferView": 56,
      "componentType": 5126,
      "count": 9,
      "type": "SCALAR",
      "min": [
        0.0
      ],
      "max": [
        0.5333333333333333
      ]
    },
    {
      "bufferView": 57,
      "componentType": 5126,
      "count": 9,
      "type": "VEC3"
    },
    {
      "bufferView": 58,
      "componentType": 5126,
      "count": 9,
      "type": "SCALAR",
      "min": [
        0.0
      ],
      "max": [
        0.5333333333333333
      ]
    },
    {
      "bufferView": 59,
      "componentType": 5126,
      "count": 9,
      "type": "VEC4"
    },
    {
      "bufferView": 60,
      "componentType": 5126,
      "count": 9,
      "type": "SCALAR",
      "min": [
        0.0
      ],
      "max": [
        0.5333333333333333
      ]
    },
    {
      "bufferView": 61,
      "componentType": 5126,
      "count": 9,
      "type": "VEC3"
    },
    {
      "bufferView": 62,
      "componentType": 5126,
      "count": 9,
      "type": "SCALAR",
      "min": [
        0.0
      ],
      "max": [
        0.5333333333333333
      ]
    },
    {
      "bufferView": 63,
      "componentType": 5126,
      "count": 9,
      "type": "VEC4"
    },
    {
      "bufferView": 64,
      "componentType": 5126,
      "count": 9,
      "type": "SCALAR",
      "min": [
        0.0
      ],
      "max": [
        0.5333333333333333
      ]
    },
    {
      "bufferView": 65,
      "componentType": 5126,
      "count": 9,
      "type": "VEC3"
    },
    {
      "bufferView": 66,
      "componentType": 5126,
      "count": 9,
      "type": "SCALAR",
      "min": [
        0.0
      ],
      "max": [
        0.5333333333333333
      ]
    },
    {
      "bufferView": 67,
      "componentType": 5126,
      "count": 9,
      "type": "VEC4"
    },
    {
      "bufferView": 68,
      "componentType": 5126,
      "count": 9,
      "type": "SCALAR",
      "min": [
        0.0
      ],
      "max": [
        0.5333333333333333
      ]
    },
    {
      "bufferView": 69,
      "componentType": 5126,
      "count": 9,
      "type": "VEC3"
    },
    {
      "bufferView": 70,
      "componentType": 5126,
      "count": 9,
      "type": "SCALAR",
      "min": [
        0.0
      ],
      "max": [
        0.5333333333333333
      ]
    },
    {
      "bufferView": 71,
      "componentType": 5126,
      "count": 9,
      "type": "VEC4"
    },
    {
      "bufferView": 72,
      "componentType": 5126,
      "count": 9,
      "type": "SCALAR",
      "min": [
        0.0
      ],
      "max": [
        0.5333333333333333
      ]
    },
    {
      "bufferView": 73,
      "componentType": 5126,
      "count": 9,
      "type": "VEC3"
    },
    {
      "bufferView": 74,
      "componentType": 5126,
      "count": 9,
      "type": "SCALAR",
      "min": [
        0.0
      ],
      "max": [
        0.5333333333333333
      ]
    },
    {
      "bufferView": 75,
      "componentType": 5126,
      "count": 9,
      "type": "VEC4"
    },
    {
      "bufferView": 76,
      "componentType": 5126,
      "count": 9,
      "type": "SCALAR",
      "min": [
        0.0
      ],
      "max": [
        0.5333333333333333
      ]
    },
    {
      "bufferView": 77,
      "componentType": 5126,
      "count": 9,
      "type": "VEC3"
    },
    {
      "bufferView": 78,
      "componentType": 5126,
      "count": 9,
      "type": "SCALAR",
      "min": [
        0.0
      ],
      "max": [
        0.5333333333333333
      ]
    },
    {
      "bufferView": 79,
      "componentType": 5126,
      "count": 9,
      "type": "VEC4"
    },
    {
      "bufferView": 80,
      "componentType": 5126,
      "count": 9,
      "type": "SCALAR",
      "min": [
        0.0
      ],
      "max": [
        0.5333333333333333
      ]
    },
    {
      "bufferView": 81,
      "componentType": 5126,
      "count": 9,
      "type": "VEC3"
    },
    {
      "bufferView": 82,
      "componentType": 5126,
      "count": 9,
      "type": "SCALAR",
      "min": [
        0.0
      ],
      "max": [
        0.5333333333333333
      ]
    },
    {
      "bufferView": 83,
      "componentType": 5126,
      "count": 9,
      "type": "VEC4"
    },
    {
      "bufferView": 84,
      "componentType": 5126,
      "count": 9,
      "type": "SCALAR",
      "min": [
        0.0
      ],
      "max": [
        0.5333333333333333
      ]
    },
    {
      "bufferView": 85,
      "componentType": 5126,
      "count": 9,
      "type": "VEC3"
    }
  ],
  "animations": [
    {
      "name": "idle",
      "channels": [
        {
          "sampler": 0,
          "target": {
            "node": 2,
            "path": "rotation"
          }
        },
        {
          "sampler": 1,
          "target": {
            "node": 2,
            "path": "translation"
          }
        },
        {
          "sampler": 2,
          "target": {
            "node": 3,
            "path": "rotation"
          }
        },
        {
          "sampler": 3,
          "target": {
            "node": 3,
            "path": "translation"
          }
        },
        {
          "sampler": 4,
          "target": {
            "node": 4,
            "path": "rotation"
          }
        },
        {
          "sampler": 5,
          "target": {
            "node": 4,
            "path": "translation"
          }
        },
        {
          "sampler": 6,
          "target": {
            "node": 5,
            "path": "rotation"
          }
        },
        {
          "sampler": 7,
          "target": {
            "node": 5,
            "path": "translation"
          }
        },
        {
          "sampler": 8,
          "target": {
            "node": 6,
            "path": "rotation"
          }
        },
        {
          "sampler": 9,
          "target": {
            "node": 6,
            "path": "translation"
          }
        }
      ],
      "samplers": [
        {
          "input": 6,
          "interpolation": "LINEAR",
          "output": 7
        },
        {
          "input": 8,
          "interpolation": "LINEAR",
          "output": 9
        },
        {
          "input": 10,
          "interpolation": "LINEAR",
          "output": 11
        },
        {
          "input": 12,
          "interpolation": "LINEAR",
          "output": 13
        },
        {
          "input": 14,
          "interpolation": "LINEAR",
          "output": 15
        },
        {
          "input": 16,
          "interpolation": "LINEAR",
          "output": 17
        },
        {
          "input": 18,
          "interpolation": "LINEAR",
          "output": 19
        },
        {
          "input": 20,
          "interpolation": "LINEAR",
          "output": 21
        },
        {
          "input": 22,
          "interpolation": "LINEAR",
          "output": 23
        },
        {
          "input": 24,
          "interpolation": "LINEAR",
          "output": 25
        }
      ]
    },
    {
      "name": "walk",
      "channels": [
        {
          "sampler": 0,
          "target": {
            "node": 2,
            "path": "rotation"
          }
        },
        {
          "sampler": 1,
          "target": {
            "node": 2,
            "path": "translation"
          }
        },
        {
          "sampler": 2,
          "target": {
            "node": 3,
            "path": "rotation"
          }
        },
        {
          "sampler": 3,
          "target": {
            "node": 3,
            "path": "translation"
          }
        },
        {
          "sampler": 4,
          "target": {
            "node": 4,
            "path": "rotation"
          }
        },
        {
          "sampler": 5,
          "target": {
            "node": 4,
            "path": "translation"
          }
        },
        {
          "sampler": 6,
          "target": {
            "node": 5,
            "path": "rotation"
          }
        },
        {
          "sampler": 7,
          "target": {
            "node": 5,
            "path": "translation"
          }
        },
        {
          "sampler": 8,
          "target": {
            "node": 6,
            "path": "rotation"
          }
        },
        {
          "sampler": 9,
          "target": {
            "node": 6,
            "path": "translation"
          }
        }
      ],
      "samplers": [
        {
          "input": 26,
          "interpolation": "LINEAR",
          "output": 27
        },
        {
          "input": 28,
          "interpolation": "LINEAR",
          "output": 29
        },
        {
          "input": 30,
          "interpolation": "LINEAR",
          "output": 31
        },
        {
          "input": 32,
          "interpolation": "LINEAR",
          "output": 33
        },
        {
          "input": 34,
          "interpolation": "LINEAR",
          "output": 35
        },
        {
          "input": 36,
          "interpolation": "LINEAR",
          "output": 37
        },
        {
          "input": 38,
          "interpolation": "LINEAR",
          "output": 39
        },
        {
          "input": 40,
          "interpolation": "LINEAR",
          "output": 41
        },
        {
          "input": 42,
          "interpolation": "LINEAR",
          "output": 43
        },
        {
          "input": 44,
          "interpolation": "LINEAR",
          "output": 45
        }
      ]
    },
    {
      "name": "run",
      "channels": [
        {
          "sampler": 0,
          "target": {
            "node": 2,
            "path": "rotation"
          }
        },
        {
          "sampler": 1,
          "target": {
            "node": 2,
            "path": "translation"
          }
        },
        {
          "sampler": 2,
          "target": {
            "node": 3,
            "path": "rotation"
          }
        },
        {
          "sampler": 3,
          "target": {
            "node": 3,
            "path": "translation"
          }
        },
        {
          "sampler": 4,
          "target": {
            "node": 4,
            "path": "rotation"
          }
        },
        {
          "sampler": 5,
          "target": {
            "node": 4,
            "path": "translation"
          }
        },
        {
          "sampler": 6,
          "target": {
            "node": 5,
            "path": "rotation"
          }
        },
        {
          "sampler": 7,
          "target": {
            "node": 5,
            "path": "translation"
          }
        },
        {
          "sampler": 8,
          "target": {
            "node": 6,
            "path": "rotation"
          }
        },
        {
          "sampler": 9,
          "target": {
            "node": 6,
            "path": "translation"
          }
        }
      ],
      "samplers": [
        {
          "input": 46,
          "interpolation": "LINEAR",
          "output": 47
        },
        {
          "input": 48,
          "interpolation": "LINEAR",
          "output": 49
        },
        {
          "input": 50,
          "interpolation": "LINEAR",
          "output": 51
        },
        {
          "input": 52,
          "interpolation": "LINEAR",
          "output": 53
        },
        {
          "input": 54,
          "interpolation": "LINEAR",
          "output": 55
        },
        {
          "input": 56,
          "interpolation": "LINEAR",
          "output": 57
        },
        {
          "input": 58,
          "interpolation": "LINEAR",
          "output": 59
        },
        {
          "input": 60,
          "interpolation": "LINEAR",
          "output": 61
        },
        {
          "input": 62,
          "interpolation": "LINEAR",
          "output": 63
        },
        {
          "input": 64,
          "interpolation": "LINEAR",
          "output": 65
        }
      ]
    },
    {
      "name": "punch",
      "channels": [
        {
          "sampler": 0,
          "target": {
            "node": 2,
            "path": "rotation"
          }
        },
        {
          "sampler": 1,
          "target": {
            "node": 2,
            "path": "translation"
          }
        },
        {
          "sampler": 2,
          "target": {
            "node": 3,
            "path": "rotation"
          }
        },
        {
          "sampler": 3,
          "target": {
            "node": 3,
            "path": "translation"
          }
        },
        {
          "sampler": 4,
          "target": {
            "node": 4,
            "path": "rotation"
          }
        },
        {
          "sampler": 5,
          "target": {
            "node": 4,
            "path": "translation"
          }
        },
        {
          "sampler": 6,
          "target": {
            "node": 5,
            "path": "rotation"
          }
        },
        {
          "sampler": 7,
          "target": {
            "node": 5,
            "path": "translation"
          }
        },
        {
          "sampler": 8,
          "target": {
            "node": 6,
            "path": "rotation"
          }
        },
        {
          "sampler": 9,
          "target": {
            "node": 6,
            "path": "translation"
          }
        }
      ],
      "samplers": [
        {
          "input": 66,
          "interpolation": "LINEAR",
          "output": 67
        },
        {
          "input": 68,
          "interpolation": "LINEAR",
          "output": 69
        },
        {
          "input": 70,
          "interpolation": "LINEAR",
          "output": 71
        },
        {
          "input": 72,
          "interpolation": "LINEAR",
          "output": 73
        },
        {
          "input": 74,
          "interpolation": "LINEAR",
          "output": 75
        },
        {
          "input": 76,
          "interpolation": "LINEAR",
          "output": 77
        },
        {
          "input": 78,
          "interpolation": "LINEAR",
          "output": 79
        },
        {
          "input": 80,
          "interpolation": "LINEAR",
          "output": 81
        },
        {
          "input": 82,
          "interpolation": "LINEAR",
          "output": 83
        },
        {
          "input": 84,
          "interpolation": "LINEAR",
          "output": 85
        }
      ]
    }
  ]
}