{"scene":0,"scenes":[{"nodes":[0]}],"asset":{"version":"2.0","generator":"https://github.com/mikedh/trimesh"},"accessors":[{"componentType":5125,"type":"SCALAR","bufferView":0,"count":3120,"max":[2087],"min":[0]},{"componentType":5126,"type":"VEC3","byteOffset":0,"bufferView":1,"count":2088,"max":[0.7699459791183472,0.6385689973831177,0.4243229925632477],"min":[-0.7699459791183472,-0.5631539821624756,-0.33521100878715515]}],"meshes":[{"name":"Armor_Golden_Cylinder.054","extras":{"processed":true,"name":"Armor_Golden_Cylinder.054","node":"Armor_Golden_Cylinder.054"},"primitives":[{"attributes":{"POSITION":1},"indices":0,"mode":4,"material":0}]}],"materials":[{"pbrMetallicRoughness":{"baseColorFactor":[0.37254901960784315,0.27058823529411763,0.047058823529411764,1.0],"roughnessFactor":0.377888888028231},"doubleSided":false}],"nodes":[{"name":"Armor_Golden_Cylinder.054","mesh":0}],"buffers":[{"uri":"gltf_buffer_0.bin","byteLength":12480},{"uri":"gltf_buffer_1.bin","byteLength":25056}],"bufferViews":[{"buffer":0,"byteOffset":0,"byteLength":12480},{"buffer":1,"byteOffset":0,"byteLength":25056}]}