{
  "asset": {
    "version": "2.0",
    "generator": "b3d_export_gltf.py"
  },
  "scene": 0,
  "scenes": [
    {
      "nodes": [
        0
      ]
    }
  ],
  "nodes": [
    {
      "name": "armature",
      "children": [
        12
      ]
    },
    {
      "name": "mobs_pumba.ms3d.mo",
      "translation": [
        0.0,
        0.0,
        0.0
      ],
      "rotation": [
        0.0,
        0.0,
        0.0,
        1.0
      ],
      "scale": [
        1.0,
        1.0,
        1.0
      ],
      "children": [
        2
      ]
    },
    {
      "name": "Root",
      "translation": [
        -0.0005364298820495605,
        -0.01114354133605957,
        0.002280402183532715
      ],
      "rotation": [
        0.0,
        0.7071067215818992,
        0.0,
        0.7071068407911908
      ],
      "scale": [
        1.0,
        1.0,
        1.0
      ],
      "children": [
        3,
        11
      ]
    },
    {
      "name": "Armature",
      "translation": [
        -0.2791351556777954,
        0.4770042896270752,
        0.01641835868358612
      ],
      "rotation": [
        0.0,
        0.7071371491001434,
        0.0,
        0.7070764119686936
      ],
      "scale": [
        1.0,
        0.9999999403953552,
        1.0
      ],
      "children": [
        4
      ]
    },
    {
      "name": "Armature_body2",
      "translation": [
        7.294779061339796e-06,
        -0.0,
        0.0425419807434082
      ],
      "rotation": [
        -0.7064239799055025,
        -0.7064296423466121,
        0.031067059516229945,
        0.030937983798607755
      ],
      "scale": [
        1.0,
        1.0000001192092896,
        0.9999999403953552
      ],
      "children": [
        5,
        6,
        7,
        8,
        9,
        10
      ]
    },
    {
      "name": "Armature_head",
      "translation": [
        0.07985214591026306,
        4.669004920287989e-06,
        0.4504815101623535
      ],
      "rotation": [
        0.7046278125302665,
        0.7046272164838183,
        -0.0591595508680047,
        0.05916315694901679
      ],
      "scale": [
        0.9999998807907104,
        0.9999998211860657,
        1.0
      ]
    },
    {
      "name": "Armature_noga2",
      "translation": [
        -0.10403335094451904,
        -0.24027230739593505,
        0.5103320121765137
      ],
      "rotation": [
        -0.728725985536775,
        -0.08174976959541701,
        -0.6757753680724289,
        0.07485362436866635
      ],
      "scale": [
        1.0,
        1.0,
        0.9999985694885254
      ]
    },
    {
      "name": "Armature_noga3",
      "translation": [
        -0.15008056163787842,
        0.19426050186157226,
        -0.013264967501163483
      ],
      "rotation": [
        -0.7287228913485017,
        -0.08174205138362851,
        -0.675776624641294,
        0.07488082697657411
      ],
      "scale": [
        0.9999999403953552,
        1.0,
        0.9999992847442627
      ]
    },
    {
      "name": "Armature_hvost",
      "translation": [
        0.08554964065551758,
        -0.014556989073753357,
        -0.09963882565498353
      ],
      "rotation": [
        0.09173188486048746,
        0.990419222769857,
        -0.02081978908807611,
        0.10110173514941583
      ],
      "scale": [
        1.0,
        0.9999999403953552,
        1.0
      ]
    },
    {
      "name": "Armature_noga1",
      "translation": [
        -0.1040337085723877,
        0.19091906547546386,
        0.5103276252746582
      ],
      "rotation": [
        -0.7287226616097771,
        -0.0817327018789959,
        -0.6757790168761869,
        0.07487167855588506
      ],
      "scale": [
        1.0000001192092896,
        1.0000001192092896,
        1.000003457069397
      ]
    },
    {
      "name": "Armature_noga4",
      "translation": [
        -0.150080144405365,
        -0.24027769565582274,
        -0.013260526955127716
      ],
      "rotation": [
        -0.7287226177972218,
        -0.08172879209548098,
        -0.6757799255905922,
        0.0748681709550299
      ],
      "scale": [
        1.0,
        1.000000238418579,
        1.0000044107437134
      ]
    },
    {
      "name": "Cube",
      "translation": [
        -0.1486683487892151,
        0.5904222011566163,
        -0.0022274225950241087
      ],
      "rotation": [
        0.0,
        0.7071371491001434,
        0.0,
        0.7070764119686936
      ],
      "scale": [
        1.0,
        0.9999999403953552,
        1.0
      ]
    },
    {
      "name": "warthog",
      "mesh": 0,
      "skin": 0
    }
  ],
  "meshes": [
    {
      "name": "warthog",
      "primitives": [
        {
          "attributes": {
            "POSITION": 0,
            "TEXCOORD_0": 1,
            "JOINTS_0": 2,
            "WEIGHTS_0": 3
          },
          "indices": 4,
          "material": 0
        },
        {
          "attributes": {
            "POSITION": 5,
            "TEXCOORD_0": 6,
            "JOINTS_0": 7,
            "WEIGHTS_0": 8
          },
          "indices": 9,
          "material": 1
        },
        {
          "attributes": {
            "POSITION": 10,
            "TEXCOORD_0": 11,
            "JOINTS_0": 12,
            "WEIGHTS_0": 13
          },
          "indices": 14,
          "material": 2
        },
        {
          "attributes": {
            "POSITION": 15,
            "TEXCOORD_0": 16,
            "JOINTS_0": 17,
            "WEIGHTS_0": 18
          },
          "indices": 19,
          "material": 3
        }
      ]
    }
  ],
  "skins": [
    {
      "inverseBindMatrices": 20,
      "joints": [
        1,
        2,
        3,
        4,
        5,
        6,
        7,
        8,
        9,
        10,
        11
      ],
      "skeleton": 1
    }
  ],
  "materials": [
    {
      "name": "body",
      "pbrMetallicRoughness": {
        "baseColorTexture": {
          "index": 0
        },
        "metallicFactor": 0.0,
        "roughnessFactor": 1.0
      },
      "doubleSided": true
    },
    {
      "name": "face",
      "pbrMetallicRoughness": {
        "baseColorTexture": {
          "index": 1
        },
        "metallicFactor": 0.0,
        "roughnessFactor": 1.0
      },
      "doubleSided": true
    },
    {
      "name": "leg",
      "pbrMetallicRoughness": {
        "baseColorTexture": {
          "index": 2
        },
        "metallicFactor": 0.0,
        "roughnessFactor": 1.0
      },
      "doubleSided": true
    },
    {
      "name": "tail",
      "pbrMetallicRoughness": {
        "baseColorTexture": {
          "index": 3
        },
        "metallicFactor": 0.0,
        "roughnessFactor": 1.0
      },
      "doubleSided": true
    }
  ],
  "textures": [
    {
      "source": 0
    },
    {
      "source": 1
    },
    {
      "source": 2
    },
    {
      "source": 3
    }
  ],
  "images": [
    {
      "uri": "textures/body.png"
    },
    {
      "uri": "textures/face.png"
    },
    {
      "uri": "textures/leg.png"
    },
    {
      "uri": "textures/tail.png"
    }
  ],
  "buffers": [
    {
      "byteLength": 71940,
      "uri": "model.bin"
    }
  ],
  "bufferViews": [
    {
      "buffer": 0,
      "byteOffset": 0,
      "byteLength": 5580,
      "target": 34962
    },
    {
      "buffer": 0,
      "byteOffset": 5580,
      "byteLength": 3720,
      "target": 34962
    },
    {
      "buffer": 0,
      "byteOffset": 9300,
      "byteLength": 1860,
      "target": 34962
    },
    {
      "buffer": 0,
      "byteOffset": 11160,
      "byteLength": 7440,
      "target": 34962
    },
    {
      "buffer": 0,
      "byteOffset": 18600,
      "byteLength": 930,
      "target": 34963
    },
    {
      "buffer": 0,
      "byteOffset": 19530,
      "byteLength": 372,
      "target": 34962
    },
    {
      "buffer": 0,
      "byteOffset": 19902,
      "byteLength": 248,
      "target": 34962
    },
    {
      "buffer": 0,
      "byteOffset": 20150,
      "byteLength": 124,
      "target": 34962
    },
    {
      "buffer": 0,
      "byteOffset": 20274,
      "byteLength": 496,
      "target": 34962
    },
    {
      "buffer": 0,
      "byteOffset": 20770,
      "byteLength": 66,
      "target": 34963
    },
    {
      "buffer": 0,
      "byteOffset": 20836,
      "byteLength": 1224,
      "target": 34962
    },
    {
      "buffer": 0,
      "byteOffset": 22060,
      "byteLength": 816,
      "target": 34962
    },
    {
      "buffer": 0,
      "byteOffset": 22876,
      "byteLength": 408,
      "target": 34962
    },
    {
      "buffer": 0,
      "byteOffset": 23284,
      "byteLength": 1632,
      "target": 34962
    },
    {
      "buffer": 0,
      "byteOffset": 24916,
      "byteLength": 204,
      "target": 34963
    },
    {
      "buffer": 0,
      "byteOffset": 25120,
      "byteLength": 216,
      "target": 34962
    },
    {
      "buffer": 0,
      "byteOffset": 25336,
      "byteLength": 144,
      "target": 34962
    },
    {
      "buffer": 0,
      "byteOffset": 25480,
      "byteLength": 72,
      "target": 34962
    },
    {
      "buffer": 0,
      "byteOffset": 25552,
      "byteLength": 288,
      "target": 34962
    },
    {
      "buffer": 0,
      "byteOffset": 25840,
      "byteLength": 36,
      "target": 34963
    },
    {
      "buffer": 0,
      "byteOffset": 25876,
      "byteLength": 704
    },
    {
      "buffer": 0,
      "byteOffset": 26580,
      "byteLength": 124
    },
    {
      "buffer": 0,
      "byteOffset": 26704,
      "byteLength": 496
    },
    {
      "buffer": 0,
      "byteOffset": 27200,
      "byteLength": 124
    },
    {
      "buffer": 0,
      "byteOffset": 27324,
      "byteLength": 372
    },
    {
      "buffer": 0,
      "byteOffset": 27696,
      "byteLength": 124
    },
    {
      "buffer": 0,
      "byteOffset": 27820,
      "byteLength": 496
    },
    {
      "buffer": 0,
      "byteOffset": 28316,
      "byteLength": 124
    },
    {
      "buffer": 0,
      "byteOffset": 28440,
      "byteLength": 372
    },
    {
      "buffer": 0,
      "byteOffset": 28812,
      "byteLength": 124
    },
    {
      "buffer": 0,
      "byteOffset": 28936,
      "byteLength": 496
    },
    {
      "buffer": 0,
      "byteOffset": 29432,
      "byteLength": 124
    },
    {
      "buffer": 0,
      "byteOffset": 29556,
      "byteLength": 372
    },
    {
      "buffer": 0,
      "byteOffset": 29928,
      "byteLength": 124
    },
    {
      "buffer": 0,
      "byteOffset": 30052,
      "byteLength": 496
    },
    {
      "buffer": 0,
      "byteOffset": 30548,
      "byteLength": 124
    },
    {
      "buffer": 0,
      "byteOffset": 30672,
      "byteLength": 372
    },
    {
      "buffer": 0,
      "byteOffset": 31044,
      "byteLength": 124
    },
    {
      "buffer": 0,
      "byteOffset": 31168,
      "byteLength": 496
    },
    {
      "buffer": 0,
      "byteOffset": 31664,
      "byteLength": 124
    },
    {
      "buffer": 0,
      "byteOffset": 31788,
      "byteLength": 372
    },
    {
      "buffer": 0,
      "byteOffset": 32160,
      "byteLength": 124
    },
    {
      "buffer": 0,
      "byteOffset": 32284,
      "byteLength": 496
    },
    {
      "buffer": 0,
      "byteOffset": 32780,
      "byteLength": 124
    },
    {
      "buffer": 0,
      "byteOffset": 32904,
      "byteLength": 372
    },
    {
      "buffer": 0,
      "byteOffset": 33276,
      "byteLength": 124
    },
    {
      "buffer": 0,
      "byteOffset": 33400,
      "byteLength": 496
    },
    {
      "buffer": 0,
      "byteOffset": 33896,
      "byteLength": 124
    },
    {
      "buffer": 0,
      "byteOffset": 34020,
      "byteLength": 372
    },
    {
      "buffer": 0,
      "byteOffset": 34392,
      "byteLength": 124
    },
    {
      "buffer": 0,
      "byteOffset": 34516,
      "byteLength": 496
    },
    {
      "buffer": 0,
      "byteOffset": 35012,
      "byteLength": 124
    },
    {
      "buffer": 0,
      "byteOffset": 35136,
      "byteLength": 372
    },
    {
      "buffer": 0,
      "byteOffset": 35508,
      "byteLength": 124
    },
    {
      "buffer": 0,
      "byteOffset": 35632,
      "byteLength": 496
    },
    {
      "buffer": 0,
      "byteOffset": 36128,
      "byteLength": 124
    },
    {
      "buffer": 0,
      "byteOffset": 36252,
      "byteLength": 372
    },
    {
      "buffer": 0,
      "byteOffset": 36624,
      "byteLength": 124
    },
    {
      "buffer": 0,
      "byteOffset": 36748,
      "byteLength": 496
    },
    {
      "buffer": 0,
      "byteOffset": 37244,
      "byteLength": 124
    },
    {
      "buffer": 0,
      "byteOffset": 37368,
      "byteLength": 372
    },
    {
      "buffer": 0,
      "byteOffset": 37740,
      "byteLength": 124
    },
    {
      "buffer": 0,
      "byteOffset": 37864,
      "byteLength": 496
    },
    {
      "buffer": 0,
      "byteOffset": 38360,
      "byteLength": 124
    },
    {
      "buffer": 0,
      "byteOffset": 38484,
      "byteLength": 372
    },
    {
      "buffer": 0,
      "byteOffset": 38856,
      "byteLength": 124
    },
    {
      "buffer": 0,
      "byteOffset": 38980,
      "byteLength": 496
    },
    {
      "buffer": 0,
      "byteOffset": 39476,
      "byteLength": 124
    },
    {
      "buffer": 0,
      "byteOffset": 39600,
      "byteLength": 372
    },
    {
      "buffer": 0,
      "byteOffset": 39972,
      "byteLength": 124
    },
    {
      "buffer": 0,
      "byteOffset": 40096,
      "byteLength": 496
    },
    {
      "buffer": 0,
      "byteOffset": 40592,
      "byteLength": 124
    },
    {
      "buffer": 0,
      "byteOffset": 40716,
      "byteLength": 372
    },
    {
      "buffer": 0,
      "byteOffset": 41088,
      "byteLength": 124
    },
    {
      "buffer": 0,
      "byteOffset": 41212,
      "byteLength": 496
    },
    {
      "buffer": 0,
      "byteOffset": 41708,
      "byteLength": 124
    },
    {
      "buffer": 0,
      "byteOffset": 41832,
      "byteLength": 372
    },
    {
      "buffer": 0,
      "byteOffset": 42204,
      "byteLength": 124
    },
    {
      "buffer": 0,
      "byteOffset": 42328,
      "byteLength": 496
    },
    {
      "buffer": 0,
      "byteOffset": 42824,
      "byteLength": 124
    },
    {
      "buffer": 0,
      "byteOffset": 42948,
      "byteLength": 372
    },
    {
      "buffer": 0,
      "byteOffset": 43320,
      "byteLength": 124
    },
    {
      "buffer": 0,
      "byteOffset": 43444,
      "byteLength": 496
    },
    {
      "buffer": 0,
      "byteOffset": 43940,
      "byteLength": 124
    },
    {
      "buffer": 0,
      "byteOffset": 44064,
      "byteLength": 372
    },
    {
      "buffer": 0,
      "byteOffset": 44436,
      "byteLength": 124
    },
    {
      "buffer": 0,
      "byteOffset": 44560,
      "byteLength": 496
    },
    {
      "buffer": 0,
      "byteOffset": 45056,
      "byteLength": 124
    },
    {
      "buffer": 0,
      "byteOffset": 45180,
      "byteLength": 372
    },
    {
      "buffer": 0,
      "byteOffset": 45552,
      "byteLength": 124
    },
    {
      "buffer": 0,
      "byteOffset": 45676,
      "byteLength": 496
    },
    {
      "buffer": 0,
      "byteOffset": 46172,
      "byteLength": 124
    },
    {
      "buffer": 0,
      "byteOffset": 46296,
      "byteLength": 372
    },
    {
      "buffer": 0,
      "byteOffset": 46668,
      "byteLength": 124
    },
    {
      "buffer": 0,
      "byteOffset": 46792,
      "byteLength": 496
    },
    {
      "buffer": 0,
      "byteOffset": 47288,
      "byteLength": 124
    },
    {
      "buffer": 0,
      "byteOffset": 47412,
      "byteLength": 372
    },
    {
      "buffer": 0,
      "byteOffset": 47784,
      "byteLength": 124
    },
    {
      "buffer": 0,
      "byteOffset": 47908,
      "byteLength": 496
    },
    {
      "buffer": 0,
      "byteOffset": 48404,
      "byteLength": 124
    },
    {
      "buffer": 0,
      "byteOffset": 48528,
      "byteLength": 372
    },
    {
      "buffer": 0,
      "byteOffset": 48900,
      "byteLength": 124
    },
    {
      "buffer": 0,
      "byteOffset": 49024,
      "byteLength": 496
    },
    {
      "buffer": 0,
      "byteOffset": 49520,
      "byteLength": 124
    },
    {
      "buffer": 0,
      "byteOffset": 49644,
      "byteLength": 372
    },
    {
      "buffer": 0,
      "byteOffset": 50016,
      "byteLength": 124
    },
    {
      "buffer": 0,
      "byteOffset": 50140,
      "byteLength": 496
    },
    {
      "buffer": 0,
      "byteOffset": 50636,
      "byteLength": 124
    },
    {
      "buffer": 0,
      "byteOffset": 50760,
      "byteLength": 372
    },
    {
      "buffer": 0,
      "byteOffset": 51132,
      "byteLength": 124
    },
    {
      "buffer": 0,
      "byteOffset": 51256,
      "byteLength": 496
    },
    {
      "buffer": 0,
      "byteOffset": 51752,
      "byteLength": 124
    },
    {
      "buffer": 0,
      "byteOffset": 51876,
      "byteLength": 372
    },
    {
      "buffer": 0,
      "byteOffset": 52248,
      "byteLength": 124
    },
    {
      "buffer": 0,
      "byteOffset": 52372,
      "byteLength": 496
    },
    {
      "buffer": 0,
      "byteOffset": 52868,
      "byteLength": 124
    },
    {
      "buffer": 0,
      "byteOffset": 52992,
      "byteLength": 372
    },
    {
      "buffer": 0,
      "byteOffset": 53364,
      "byteLength": 124
    },
    {
      "buffer": 0,
      "byteOffset": 53488,
      "byteLength": 496
    },
    {
      "buffer": 0,
      "byteOffset": 53984,
      "byteLength": 124
    },
    {
      "buffer": 0,
      "byteOffset": 54108,
      "byteLength": 372
    },
    {
      "buffer": 0,
      "byteOffset": 54480,
      "byteLength": 124
    },
    {
      "buffer": 0,
      "byteOffset": 54604,
      "byteLength": 496
    },
    {
      "buffer": 0,
      "byteOffset": 55100,
      "byteLength": 124
    },
    {
      "buffer": 0,
      "byteOffset": 55224,
      "byteLength": 372
    },
    {
      "buffer": 0,
      "byteOffset": 55596,
      "byteLength": 124
    },
    {
      "buffer": 0,
      "byteOffset": 55720,
      "byteLength": 496
    },
    {
      "buffer": 0,
      "byteOffset": 56216,
      "byteLength": 124
    },
    {
      "buffer": 0,
      "byteOffset": 56340,
      "byteLength": 372
    },
    {
      "buffer": 0,
      "byteOffset": 56712,
      "byteLength": 124
    },
    {
      "buffer": 0,
      "byteOffset": 56836,
      "byteLength": 496
    },
    {
      "buffer": 0,
      "byteOffset": 57332,
      "byteLength": 124
    },
    {
      "buffer": 0,
      "byteOffset": 57456,
      "byteLength": 372
    },
    {
      "buffer": 0,
      "byteOffset": 57828,
      "byteLength": 124
    },
    {
      "buffer": 0,
      "byteOffset": 57952,
      "byteLength": 496
    },
    {
      "buffer": 0,
      "byteOffset": 58448,
      "byteLength": 124
    },
    {
      "buffer": 0,
      "byteOffset": 58572,
      "byteLength": 372
    },
    {
      "buffer": 0,
      "byteOffset": 58944,
      "byteLength": 124
    },
    {
      "buffer": 0,
      "byteOffset": 59068,
      "byteLength": 496
    },
    {
      "buffer": 0,
      "byteOffset": 59564,
      "byteLength": 124
    },
    {
      "buffer": 0,
      "byteOffset": 59688,
      "byteLength": 372
    },
    {
      "buffer": 0,
      "byteOffset": 60060,
      "byteLength": 124
    },
    {
      "buffer": 0,
      "byteOffset": 60184,
      "byteLength": 496
    },
    {
      "buffer": 0,
      "byteOffset": 60680,
      "byteLength": 124
    },
    {
      "buffer": 0,
      "byteOffset": 60804,
      "byteLength": 372
    },
    {
      "buffer": 0,
      "byteOffset": 61176,
      "byteLength": 124
    },
    {
      "buffer": 0,
      "byteOffset": 61300,
      "byteLength": 496
    },
    {
      "buffer": 0,
      "byteOffset": 61796,
      "byteLength": 124
    },
    {
      "buffer": 0,
      "byteOffset": 61920,
      "byteLength": 372
    },
    {
      "buffer": 0,
      "byteOffset": 62292,
      "byteLength": 124
    },
    {
      "buffer": 0,
      "byteOffset": 62416,
      "byteLength": 496
    },
    {
      "buffer": 0,
      "byteOffset": 62912,
      "byteLength": 124
    },
    {
      "buffer": 0,
      "byteOffset": 63036,
      "byteLength": 372
    },
    {
      "buffer": 0,
      "byteOffset": 63408,
      "byteLength": 124
    },
    {
      "buffer": 0,
      "byteOffset": 63532,
      "byteLength": 496
    },
    {
      "buffer": 0,
      "byteOffset": 64028,
      "byteLength": 124
    },
    {
      "buffer": 0,
      "byteOffset": 64152,
      "byteLength": 372
    },
    {
      "buffer": 0,
      "byteOffset": 64524,
      "byteLength": 124
    },
    {
      "buffer": 0,
      "byteOffset": 64648,
      "byteLength": 496
    },
    {
      "buffer": 0,
      "byteOffset": 65144,
      "byteLength": 124
    },
    {
      "buffer": 0,
      "byteOffset": 65268,
      "byteLength": 372
    },
    {
      "buffer": 0,
      "byteOffset": 65640,
      "byteLength": 124
    },
    {
      "buffer": 0,
      "byteOffset": 65764,
      "byteLength": 496
    },
    {
      "buffer": 0,
      "byteOffset": 66260,
      "byteLength": 124
    },
    {
      "buffer": 0,
      "byteOffset": 66384,
      "byteLength": 372
    },
    {
      "buffer": 0,
      "byteOffset": 66756,
      "byteLength": 124
    },
    {
      "buffer": 0,
      "byteOffset": 66880,
      "byteLength": 496
    },
    {
      "buffer": 0,
      "byteOffset": 67376,
      "byteLength": 124
    },
    {
      "buffer": 0,
      "byteOffset": 67500,
      "byteLength": 372
    },
    {
      "buffer": 0,
      "byteOffset": 67872,
      "byteLength": 124
    },
    {
      "buffer": 0,
      "byteOffset": 67996,
      "byteLength": 496
    },
    {
      "buffer": 0,
      "byteOffset": 68492,
      "byteLength": 124
    },
    {
      "buffer": 0,
      "byteOffset": 68616,
      "byteLength": 372
    },
    {
      "buffer": 0,
      "byteOffset": 68988,
      "byteLength": 124
    },
    {
      "buffer": 0,
      "byteOffset": 69112,
      "byteLength": 496
    },
    {
      "buffer": 0,
      "byteOffset": 69608,
      "byteLength": 124
    },
    {
      "buffer": 0,
      "byteOffset": 69732,
      "byteLength": 372
    },
    {
      "buffer": 0,
      "byteOffset": 70104,
      "byteLength": 124
    },
    {
      "buffer": 0,
      "byteOffset": 70228,
      "byteLength": 496
    },
    {
      "buffer": 0,
      "byteOffset": 70724,
      "byteLength": 124
    },
    {
      "buffer": 0,
      "byteOffset": 70848,
      "byteLength": 372
    },
    {
      "buffer": 0,
      "byteOffset": 71220,
      "byteLength": 8
    },
    {
      "buffer": 0,
      "byteOffset": 71228,
      "byteLength": 32
    },
    {
      "buffer": 0,
      "byteOffset": 71260,
      "byteLength": 8
    },
    {
      "buffer": 0,
      "byteOffset": 71268,
      "byteLength": 24
    },
    {
      "buffer": 0,
      "byteOffset": 71292,
      "byteLength": 8
    },
    {
      "buffer": 0,
      "byteOffset": 71300,
      "byteLength": 32
    },
    {
      "buffer": 0,
      "byteOffset": 71332,
      "byteLength": 8
    },
    {
      "buffer": 0,
      "byteOffset": 71340,
      "byteLength": 24
    },
    {
      "buffer": 0,
      "byteOffset": 71364,
      "byteLength": 8
    },
    {
      "buffer": 0,
      "byteOffset": 71372,
      "byteLength": 32
    },
    {
      "buffer": 0,
      "byteOffset": 71404,
      "byteLength": 8
    },
    {
      "buffer": 0,
      "byteOffset": 71412,
      "byteLength": 24
    },
    {
      "buffer": 0,
      "byteOffset": 71436,
      "byteLength": 8
    },
    {
      "buffer": 0,
      "byteOffset": 71444,
      "byteLength": 32
    },
    {
      "buffer": 0,
      "byteOffset": 71476,
      "byteLength": 8
    },
    {
      "buffer": 0,
      "byteOffset": 71484,
      "byteLength": 24
    },
    {
      "buffer": 0,
      "byteOffset": 71508,
      "byteLength": 8
    },
    {
      "buffer": 0,
      "byteOffset": 71516,
      "byteLength": 32
    },
    {
      "buffer": 0,
      "byteOffset": 71548,
      "byteLength": 8
    },
    {
      "buffer": 0,
      "byteOffset": 71556,
      "byteLength": 24
    },
    {
      "buffer": 0,
      "byteOffset": 71580,
      "byteLength": 8
    },
    {
      "buffer": 0,
      "byteOffset": 71588,
      "byteLength": 32
    },
    {
      "buffer": 0,
      "byteOffset": 71620,
      "byteLength": 8
    },
    {
      "buffer": 0,
      "byteOffset": 71628,
      "byteLength": 24
    },
    {
      "buffer": 0,
      "byteOffset": 71652,
      "byteLength": 8
    },
    {
      "buffer": 0,
      "byteOffset": 71660,
      "byteLength": 32
    },
    {
      "buffer": 0,
      "byteOffset": 71692,
      "byteLength": 8
    },
    {
      "buffer": 0,
      "byteOffset": 71700,
      "byteLength": 24
    },
    {
      "buffer": 0,
      "byteOffset": 71724,
      "byteLength": 8
    },
    {
      "buffer": 0,
      "byteOffset": 71732,
      "byteLength": 32
    },
    {
      "buffer": 0,
      "byteOffset": 71764,
      "byteLength": 8
    },
    {
      "buffer": 0,
      "byteOffset": 71772,
      "byteLength": 24
    },
    {
      "buffer": 0,
      "byteOffset": 71796,
      "byteLength": 8
    },
    {
      "buffer": 0,
      "byteOffset": 71804,
      "byteLength": 32
    },
    {
      "buffer": 0,
      "byteOffset": 71836,
      "byteLength": 8
    },
    {
      "buffer": 0,
      "byteOffset": 71844,
      "byteLength": 24
    },
    {
      "buffer": 0,
      "byteOffset": 71868,
      "byteLength": 8
    },
    {
      "buffer": 0,
      "byteOffset": 71876,
      "byteLength": 32
    },
    {
      "buffer": 0,
      "byteOffset": 71908,
      "byteLength": 8
    },
    {
      "buffer": 0,
      "byteOffset": 71916,
      "byteLength": 24
    }
  ],
  "accessors": [
    {
      "bufferView": 0,
      "componentType": 5126,
      "count": 465,
      "type": "VEC3",
      "min": [
        -0.301570200920105,
        0.0,
        -0.6386074542999267
      ],
      "max": [
        0.3671217918395996,
        1.0677912645041943,
        0.7769516944885254
      ]
    },
    {
      "bufferView": 1,
      "componentType": 5126,
      "count": 465,
      "type": "VEC2"
    },
    {
      "bufferView": 2,
      "componentType": 5121,
      "count": 465,
      "type": "VEC4"
    },
    {
      "bufferView": 3,
      "componentType": 5126,
      "count": 465,
      "type": "VEC4"
    },
    {
      "bufferView": 4,
      "componentType": 5123,
      "count": 465,
      "type": "SCALAR"
    },
    {
      "bufferView": 5,
      "componentType": 5126,
      "count": 31,
      "type": "VEC3",
      "min": [
        -0.11410202980041503,
        0.305330603569746,
        -0.41968722343444825
      ],
      "max": [
        0.3671217918395996,
        1.0445120744407177,
        0.7770002365112305
      ]
    },
    {
      "bufferView": 6,
      "componentType": 5126,
      "count": 31,
      "type": "VEC2"
    },
    {
      "bufferView": 7,
      "componentType": 5121,
      "count": 31,
      "type": "VEC4"
    },
    {
      "bufferView": 8,
      "componentType": 5126,
      "count": 31,
      "type": "VEC4"
    },
    {
      "bufferView": 9,
      "componentType": 5123,
      "count": 33,
      "type": "SCALAR"
    },
    {
      "bufferView": 10,
      "componentType": 5126,
      "count": 102,
      "type": "VEC3",
      "min": [
        -0.27160844802856443,
        0.0,
        -0.6386074542999267
      ],
      "max": [
        0.2750110387802124,
        0.6599904946982861,
        0.7538638114929199
      ]
    },
    {
      "bufferView": 11,
      "componentType": 5126,
      "count": 102,
      "type": "VEC2"
    },
    {
      "bufferView": 12,
      "componentType": 5121,
      "count": 102,
      "type": "VEC4"
    },
    {
      "bufferView": 13,
      "componentType": 5126,
      "count": 102,
      "type": "VEC4"
    },
    {
      "bufferView": 14,
      "componentType": 5123,
      "count": 102,
      "type": "SCALAR"
    },
    {
      "bufferView": 15,
      "componentType": 5126,
      "count": 18,
      "type": "VEC3",
      "min": [
        0.05661867260932922,
        0.44405230805277823,
        0.6577364444732666
      ],
      "max": [
        0.25930609703063967,
        0.6598649434745312,
        0.7467111110687256
      ]
    },
    {
      "bufferView": 16,
      "componentType": 5126,
      "count": 18,
      "type": "VEC2"
    },
    {
      "bufferView": 17,
      "componentType": 5121,
      "count": 18,
      "type": "VEC4"
    },
    {
      "bufferView": 18,
      "componentType": 5126,
      "count": 18,
      "type": "VEC4"
    },
    {
      "bufferView": 19,
      "componentType": 5123,
      "count": 18,
      "type": "SCALAR"
    },
    {
      "bufferView": 20,
      "componentType": 5126,
      "count": 11,
      "type": "MAT4"
    },
    {
      "bufferView": 21,
      "componentType": 5126,
      "count": 31,
      "type": "SCALAR",
      "min": [
        0.0
      ],
      "max": [
        2.0
      ]
    },
    {
      "bufferView": 22,
      "componentType": 5126,
      "count": 31,
      "type": "VEC4"
    },
    {
      "bufferView": 23,
      "componentType": 5126,
      "count": 31,
      "type": "SCALAR",
      "min": [
        0.0
      ],
      "max": [
        2.0
      ]
    },
    {
      "bufferView": 24,
      "componentType": 5126,
      "count": 31,
      "type": "VEC3"
    },
    {
      "bufferView": 25,
      "componentType": 5126,
      "count": 31,
      "type": "SCALAR",
      "min": [
        0.0
      ],
      "max": [
        2.0
      ]
    },
    {
      "bufferView": 26,
      "componentType": 5126,
      "count": 31,
      "type": "VEC4"
    },
    {
      "bufferView": 27,
      "componentType": 5126,
      "count": 31,
      "type": "SCALAR",
      "min": [
        0.0
      ],
      "max": [
        2.0
      ]
    },
    {
      "bufferView": 28,
      "componentType": 5126,
      "count": 31,
      "type": "VEC3"
    },
    {
      "bufferView": 29,
      "componentType": 5126,
      "count": 31,
      "type": "SCALAR",
      "min": [
        0.0
      ],
      "max": [
        2.0
      ]
    },
    {
      "bufferView": 30,
      "componentType": 5126,
      "count": 31,
      "type": "VEC4"
    },
    {
      "bufferView": 31,
      "componentType": 5126,
      "count": 31,
      "type": "SCALAR",
      "min": [
        0.0
      ],
      "max": [
        2.0
      ]
    },
    {
      "bufferView": 32,
      "componentType": 5126,
      "count": 31,
      "type": "VEC3"
    },
    {
      "bufferView": 33,
      "componentType": 5126,
      "count": 31,
      "type": "SCALAR",
      "min": [
        0.0
      ],
      "max": [
        2.0
      ]
    },
    {
      "bufferView": 34,
      "componentType": 5126,
      "count": 31,
      "type": "VEC4"
    },
    {
      "bufferView": 35,
      "componentType": 5126,
      "count": 31,
      "type": "SCALAR",
      "min": [
        0.0
      ],
      "max": [
        2.0
      ]
    },
    {
      "bufferView": 36,
      "componentType": 5126,
      "count": 31,
      "type": "VEC3"
    },
    {
      "bufferView": 37,
      "componentType": 5126,
      "count": 31,
      "type": "SCALAR",
      "min": [
        0.0
      ],
      "max": [
        2.0
      ]
    },
    {
      "bufferView": 38,
      "componentType": 5126,
      "count": 31,
      "type": "VEC4"
    },
    {
      "bufferView": 39,
      "componentType": 5126,
      "count": 31,
      "type": "SCALAR",
      "min": [
        0.0
      ],
      "max": [
        2.0
      ]
    },
    {
      "bufferView": 40,
      "componentType": 5126,
      "count": 31,
      "type": "VEC3"
    },
    {
      "bufferView": 41,
      "componentType": 5126,
      "count": 31,
      "type": "SCALAR",
      "min": [
        0.0
      ],
      "max": [
        2.0
      ]
    },
    {
      "bufferView": 42,
      "componentType": 5126,
      "count": 31,
      "type": "VEC4"
    },
    {
      "bufferView": 43,
      "componentType": 5126,
      "count": 31,
      "type": "SCALAR",
      "min": [
        0.0
      ],
      "max": [
        2.0
      ]
    },
    {
      "bufferView": 44,
      "componentType": 5126,
      "count": 31,
      "type": "VEC3"
    },
    {
      "bufferView": 45,
      "componentType": 5126,
      "count": 31,
      "type": "SCALAR",
      "min": [
        0.0
      ],
      "max": [
        2.0
      ]
    },
    {
      "bufferView": 46,
      "componentType": 5126,
      "count": 31,
      "type": "VEC4"
    },
    {
      "bufferView": 47,
      "componentType": 5126,
      "count": 31,
      "type": "SCALAR",
      "min": [
        0.0
      ],
      "max": [
        2.0
      ]
    },
    {
      "bufferView": 48,
      "componentType": 5126,
      "count": 31,
      "type": "VEC3"
    },
    {
      "bufferView": 49,
      "componentType": 5126,
      "count": 31,
      "type": "SCALAR",
      "min": [
        0.0
      ],
      "max": [
        2.0
      ]
    },
    {
      "bufferView": 50,
      "componentType": 5126,
      "count": 31,
      "type": "VEC4"
    },
    {
      "bufferView": 51,
      "componentType": 5126,
      "count": 31,
      "type": "SCALAR",
      "min": [
        0.0
      ],
      "max": [
        2.0
      ]
    },
    {
      "bufferView": 52,
      "componentType": 5126,
      "count": 31,
      "type": "VEC3"
    },
    {
      "bufferView": 53,
      "componentType": 5126,
      "count": 31,
      "type": "SCALAR",
      "min": [
        0.0
      ],
      "max": [
        2.0
      ]
    },
    {
      "bufferView": 54,
      "componentType": 5126,
      "count": 31,
      "type": "VEC4"
    },
    {
      "bufferView": 55,
      "componentType": 5126,
      "count": 31,
      "type": "SCALAR",
      "min": [
        0.0
      ],
      "max": [
        2.0
      ]
    },
    {
      "bufferView": 56,
      "componentType": 5126,
      "count": 31,
      "type": "VEC3"
    },
    {
      "bufferView": 57,
      "componentType": 5126,
      "count": 31,
      "type": "SCALAR",
      "min": [
        0.0
      ],
      "max": [
        2.0
      ]
    },
    {
      "bufferView": 58,
      "componentType": 5126,
      "count": 31,
      "type": "VEC4"
    },
    {
      "bufferView": 59,
      "componentType": 5126,
      "count": 31,
      "type": "SCALAR",
      "min": [
        0.0
      ],
      "max": [
        2.0
      ]
    },
    {
      "bufferView": 60,
      "componentType": 5126,
      "count": 31,
      "type": "VEC3"
    },
    {
      "bufferView": 61,
      "componentType": 5126,
      "count": 31,
      "type": "SCALAR",
      "min": [
        0.0
      ],
      "max": [
        2.0
      ]
    },
    {
      "bufferView": 62,
      "componentType": 5126,
      "count": 31,
      "type": "VEC4"
    },
    {
      "bufferView": 63,
      "componentType": 5126,
      "count": 31,
      "type": "SCALAR",
      "min": [
        0.0
      ],
      "max": [
        2.0
      ]
    },
    {
      "bufferView": 64,
      "componentType": 5126,
      "count": 31,
      "type": "VEC3"
    },
    {
      "bufferView": 65,
      "componentType": 5126,
      "count": 31,
      "type": "SCALAR",
      "min": [
        0.0
      ],
      "max": [
        2.0
      ]
    },
    {
      "bufferView": 66,
      "componentType": 5126,
      "count": 31,
      "type": "VEC4"
    },
    {
      "bufferView": 67,
      "componentType": 5126,
      "count": 31,
      "type": "SCALAR",
      "min": [
        0.0
      ],
      "max": [
        2.0
      ]
    },
    {
      "bufferView": 68,
      "componentType": 5126,
      "count": 31,
      "type": "VEC3"
    },
    {
      "bufferView": 69,
      "componentType": 5126,
      "count": 31,
      "type": "SCALAR",
      "min": [
        0.0
      ],
      "max": [
        2.0
      ]
    },
    {
      "bufferView": 70,
      "componentType": 5126,
      "count": 31,
      "type": "VEC4"
    },
    {
      "bufferView": 71,
      "componentType": 5126,
      "count": 31,
      "type": "SCALAR",
      "min": [
        0.0
      ],
      "max": [
        2.0
      ]
    },
    {
      "bufferView": 72,
      "componentType": 5126,
      "count": 31,
      "type": "VEC3"
    },
    {
      "bufferView": 73,
      "componentType": 5126,
      "count": 31,
      "type": "SCALAR",
      "min": [
        0.0
      ],
      "max": [
        2.0
      ]
    },
    {
      "bufferView": 74,
      "componentType": 5126,
      "count": 31,
      "type": "VEC4"
    },
    {
      "bufferView": 75,
      "componentType": 5126,
      "count": 31,
      "type": "SCALAR",
      "min": [
        0.0
      ],
      "max": [
        2.0
      ]
    },
    {
      "bufferView": 76,
      "componentType": 5126,
      "count": 31,
      "type": "VEC3"
    },
    {
      "bufferView": 77,
      "componentType": 5126,
      "count": 31,
      "type": "SCALAR",
      "min": [
        0.0
      ],
      "max": [
        2.0
      ]
    },
    {
      "bufferView": 78,
      "componentType": 5126,
      "count": 31,
      "type": "VEC4"
    },
    {
      "bufferView": 79,
      "componentType": 5126,
      "count": 31,
      "type": "SCALAR",
      "min": [
        0.0
      ],
      "max": [
        2.0
      ]
    },
    {
      "bufferView": 80,
      "componentType": 5126,
      "count": 31,
      "type": "VEC3"
    },
    {
      "bufferView": 81,
      "componentType": 5126,
      "count": 31,
      "type": "SCALAR",
      "min": [
        0.0
      ],
      "max": [
        2.0
      ]
    },
    {
      "bufferView": 82,
      "componentType": 5126,
      "count": 31,
      "type": "VEC4"
    },
    {
      "bufferView": 83,
      "componentType": 5126,
      "count": 31,
      "type": "SCALAR",
      "min": [
        0.0
      ],
      "max": [
        2.0
      ]
    },
    {
      "bufferView": 84,
      "componentType": 5126,
      "count": 31,
      "type": "VEC3"
    },
    {
      "bufferView": 85,
      "componentType": 5126,
      "count": 31,
      "type": "SCALAR",
      "min": [
        0.0
      ],
      "max": [
        2.0
      ]
    },
    {
      "bufferView": 86,
      "componentType": 5126,
      "count": 31,
      "type": "VEC4"
    },
    {
      "bufferView": 87,
      "componentType": 5126,
      "count": 31,
      "type": "SCALAR",
      "min": [
        0.0
      ],
      "max": [
        2.0
      ]
    },
    {
      "bufferView": 88,
      "componentType": 5126,
      "count": 31,
      "type": "VEC3"
    },
    {
      "bufferView": 89,
      "componentType": 5126,
      "count": 31,
      "type": "SCALAR",
      "min": [
        0.0
      ],
      "max": [
        2.0
      ]
    },
    {
      "bufferView": 90,
      "componentType": 5126,
      "count": 31,
      "type": "VEC4"
    },
    {
      "bufferView": 91,
      "componentType": 5126,
      "count": 31,
      "type": "SCALAR",
      "min": [
        0.0
      ],
      "max": [
        2.0
      ]
    },
    {
      "bufferView": 92,
      "componentType": 5126,
      "count": 31,
      "type": "VEC3"
    },
    {
      "bufferView": 93,
      "componentType": 5126,
      "count": 31,
      "type": "SCALAR",
      "min": [
        0.0
      ],
      "max": [
        2.0
      ]
    },
    {
      "bufferView": 94,
      "componentType": 5126,
      "count": 31,
      "type": "VEC4"
    },
    {
      "bufferView": 95,
      "componentType": 5126,
      "count": 31,
      "type": "SCALAR",
      "min": [
        0.0
      ],
      "max": [
        2.0
      ]
    },
    {
      "bufferView": 96,
      "componentType": 5126,
      "count": 31,
      "type": "VEC3"
    },
    {
      "bufferView": 97,
      "componentType": 5126,
      "count": 31,
      "type": "SCALAR",
      "min": [
        0.0
      ],
      "max": [
        2.0
      ]
    },
    {
      "bufferView": 98,
      "componentType": 5126,
      "count": 31,
      "type": "VEC4"
    },
    {
      "bufferView": 99,
      "componentType": 5126,
      "count": 31,
      "type": "SCALAR",
      "min": [
        0.0
      ],
      "max": [
        2.0
      ]
    },
    {
      "bufferView": 100,
      "componentType": 5126,
      "count": 31,
      "type": "VEC3"
    },
    {
      "bufferView": 101,
      "componentType": 5126,
      "count": 31,
      "type": "SCALAR",
      "min": [
        0.0
      ],
      "max": [
        2.0
      ]
    },
    {
      "bufferView": 102,
      "componentType": 5126,
      "count": 31,
      "type": "VEC4"
    },
    {
      "bufferView": 103,
      "componentType": 5126,
      "count": 31,
      "type": "SCALAR",
      "min": [
        0.0
      ],
      "max": [
        2.0
      ]
    },
    {
      "bufferView": 104,
      "componentType": 5126,
      "count": 31,
      "type": "VEC3"
    },
    {
      "bufferView": 105,
      "componentType": 5126,
      "count": 31,
      "type": "SCALAR",
      "min": [
        0.0
      ],
      "max": [
        2.0
      ]
    },
    {
      "bufferView": 106,
      "componentType": 5126,
      "count": 31,
      "type": "VEC4"
    },
    {
      "bufferView": 107,
      "componentType": 5126,
      "count": 31,
      "type": "SCALAR",
      "min": [
        0.0
      ],
      "max": [
        2.0
      ]
    },
    {
      "bufferView": 108,
      "componentType": 5126,
      "count": 31,
      "type": "VEC3"
    },
    {
      "bufferView": 109,
      "componentType": 5126,
      "count": 31,
      "type": "SCALAR",
      "min": [
        0.0
      ],
      "max": [
        2.0
      ]
    },
    {
      "bufferView": 110,
      "componentType": 5126,
      "count": 31,
      "type": "VEC4"
    },
    {
      "bufferView": 111,
      "componentType": 5126,
      "count": 31,
      "type": "SCALAR",
      "min": [
        0.0
      ],
      "max": [
        2.0
      ]
    },
    {
      "bufferView": 112,
      "componentType": 5126,
      "count": 31,
      "type": "VEC3"
    },
    {
      "bufferView": 113,
      "componentType": 5126,
      "count": 31,
      "type": "SCALAR",
      "min": [
        0.0
      ],
      "max": [
        2.0
      ]
    },
    {
      "bufferView": 114,
      "componentType": 5126,
      "count": 31,
      "type": "VEC4"
    },
    {
      "bufferView": 115,
      "componentType": 5126,
      "count": 31,
      "type": "SCALAR",
      "min": [
        0.0
      ],
      "max": [
        2.0
      ]
    },
    {
      "bufferView": 116,
      "componentType": 5126,
      "count": 31,
      "type": "VEC3"
    },
    {
      "bufferView": 117,
      "componentType": 5126,
      "count": 31,
      "type": "SCALAR",
      "min": [
        0.0
      ],
      "max": [
        2.0
      ]
    },
    {
      "bufferView": 118,
      "componentType": 5126,
      "count": 31,
      "type": "VEC4"
    },
    {
      "bufferView": 119,
      "componentType": 5126,
      "count": 31,
      "type": "SCALAR",
      "min": [
        0.0
      ],
      "max": [
        2.0
      ]
    },
    {
      "bufferView": 120,
      "componentType": 5126,
      "count": 31,
      "type": "VEC3"
    },
    {
      "bufferView": 121,
      "componentType": 5126,
      "count": 31,
      "type": "SCALAR",
      "min": [
        0.0
      ],
      "max": [
        2.0
      ]
    },
    {
      "bufferView": 122,
      "componentType": 5126,
      "count": 31,
      "type": "VEC4"
    },
    {
      "bufferView": 123,
      "componentType": 5126,
      "count": 31,
      "type": "SCALAR",
      "min": [
        0.0
      ],
      "max": [
        2.0
      ]
    },
    {
      "bufferView": 124,
      "componentType": 5126,
      "count": 31,
      "type": "VEC3"
    },
    {
      "bufferView": 125,
      "componentType": 5126,
      "count": 31,
      "type": "SCALAR",
      "min": [
        0.0
      ],
      "max": [
        2.0
      ]
    },
    {
      "bufferView": 126,
      "componentType": 5126,
      "count": 31,
      "type": "VEC4"
    },
    {
      "bufferView": 127,
      "componentType": 5126,
      "count": 31,
      "type": "SCALAR",
      "min": [
        0.0
      ],
      "max": [
        2.0
      ]
    },
    {
      "bufferView": 128,
      "componentType": 5126,
      "count": 31,
      "type": "VEC3"
    },
    {
      "bufferView": 129,
      "componentType": 5126,
      "count": 31,
      "type": "SCALAR",
      "min": [
        0.0
      ],
      "max": [
        2.0
      ]
    },
    {
      "bufferView": 130,
      "componentType": 5126,
      "count": 31,
      "type": "VEC4"
    },
    {
      "bufferView": 131,
      "componentType": 5126,
      "count": 31,
      "type": "SCALAR",
      "min": [
        0.0
      ],
      "max": [
        2.0
      ]
    },
    {
      "bufferView": 132,
      "componentType": 5126,
      "count": 31,
      "type": "VEC3"
    },
    {
      "bufferView": 133,
      "componentType": 5126,
      "count": 31,
      "type": "SCALAR",
      "min": [
        0.0
      ],
      "max": [
        2.0
      ]
    },
    {
      "bufferView": 134,
      "componentType": 5126,
      "count": 31,
      "type": "VEC4"
    },
    {
      "bufferView": 135,
      "componentType": 5126,
      "count": 31,
      "type": "SCALAR",
      "min": [
        0.0
      ],
      "max": [
        2.0
      ]
    },
    {
      "bufferView": 136,
      "componentType": 5126,
      "count": 31,
      "type": "VEC3"
    },
    {
      "bufferView": 137,
      "componentType": 5126,
      "count": 31,
      "type": "SCALAR",
      "min": [
        0.0
      ],
      "max": [
        2.0
      ]
    },
    {
      "bufferView": 138,
      "componentType": 5126,
      "count": 31,
      "type": "VEC4"
    },
    {
      "bufferView": 139,
      "componentType": 5126,
      "count": 31,
      "type": "SCALAR",
      "min": [
        0.0
      ],
      "max": [
        2.0
      ]
    },
    {
      "bufferView": 140,
      "componentType": 5126,
      "count": 31,
      "type": "VEC3"
    },
    {
      "bufferView": 141,
      "componentType": 5126,
      "count": 31,
      "type": "SCALAR",
      "min": [
        0.0
      ],
      "max": [
        2.0
      ]
    },
    {
      "bufferView": 142,
      "componentType": 5126,
      "count": 31,
      "type": "VEC4"
    },
    {
      "bufferView": 143,
      "componentType": 5126,
      "count": 31,
      "type": "SCALAR",
      "min": [
        0.0
      ],
      "max": [
        2.0
      ]
    },
    {
      "bufferView": 144,
      "componentType": 5126,
      "count": 31,
      "type": "VEC3"
    },
    {
      "bufferView": 145,
      "componentType": 5126,
      "count": 31,
      "type": "SCALAR",
      "min": [
        0.0
      ],
      "max": [
        2.0
      ]
    },
    {
      "bufferView": 146,
      "componentType": 5126,
      "count": 31,
      "type": "VEC4"
    },
    {
      "bufferView": 147,
      "componentType": 5126,
      "count": 31,
      "type": "SCALAR",
      "min": [
        0.0
      ],
      "max": [
        2.0
      ]
    },
    {
      "bufferView": 148,
      "componentType": 5126,
      "count": 31,
      "type": "VEC3"
    },
    {
      "bufferView": 149,
      "componentType": 5126,
      "count": 31,
      "type": "SCALAR",
      "min": [
        0.0
      ],
      "max": [
        2.0
      ]
    },
    {
      "bufferView": 150,
      "componentType": 5126,
      "count": 31,
      "type": "VEC4"
    },
    {
      "bufferView": 151,
      "componentType": 5126,
      "count": 31,
      "type": "SCALAR",
      "min": [
        0.0
      ],
      "max": [
        2.0
      ]
    },
    {
      "bufferView": 152,
      "componentType": 5126,
      "count": 31,
      "type": "VEC3"
    },
    {
      "bufferView": 153,
      "componentType": 5126,
      "count": 31,
      "type": "SCALAR",
      "min": [
        0.0
      ],
      "max": [
        2.0
      ]
    },
    {
      "bufferView": 154,
      "componentType": 5126,
      "count": 31,
      "type": "VEC4"
    },
    {
      "bufferView": 155,
      "componentType": 5126,
      "count": 31,
      "type": "SCALAR",
      "min": [
        0.0
      ],
      "max": [
        2.0
      ]
    },
    {
      "bufferView": 156,
      "componentType": 5126,
      "count": 31,
      "type": "VEC3"
    },
    {
      "bufferView": 157,
      "componentType": 5126,
      "count": 31,
      "type": "SCALAR",
      "min": [
        0.0
      ],
      "max": [
        2.0
      ]
    },
    {
      "bufferView": 158,
      "componentType": 5126,
      "count": 31,
      "type": "VEC4"
    },
    {
      "bufferView": 159,
      "componentType": 5126,
      "count": 31,
      "type": "SCALAR",
      "min": [
        0.0
      ],
      "max": [
        2.0
      ]
    },
    {
      "bufferView": 160,
      "componentType": 5126,
      "count": 31,
      "type": "VEC3"
    },
    {
      "bufferView": 161,
      "componentType": 5126,
      "count": 31,
      "type": "SCALAR",
      "min": [
        0.0
      ],
      "max": [
        2.0
      ]
    },
    {
      "bufferView": 162,
      "componentType": 5126,
      "count": 31,
      "type": "VEC4"
    },
    {
      "bufferView": 163,
      "componentType": 5126,
      "count": 31,
      "type": "SCALAR",
      "min": [
        0.0
      ],
      "max": [
        2.0
      ]
    },
    {
      "bufferView": 164,
      "componentType": 5126,
      "count": 31,
      "type": "VEC3"
    },
    {
      "bufferView": 165,
      "componentType": 5126,
      "count": 31,
      "type": "SCALAR",
      "min": [
        0.0
      ],
      "max": [
        2.0
      ]
    },
    {
      "bufferView": 166,
      "componentType": 5126,
      "count": 31,
      "type": "VEC4"
    },
    {
      "bufferView": 167,
      "componentType": 5126,
      "count": 31,
      "type": "SCALAR",
      "min": [
        0.0
      ],
      "max": [
        2.0
      ]
    },
    {
      "bufferView": 168,
      "componentType": 5126,
      "count": 31,
      "type": "VEC3"
    },
    {
      "bufferView": 169,
      "componentType": 5126,
      "count": 31,
      "type": "SCALAR",
      "min": [
        0.0
      ],
      "max": [
        2.0
      ]
    },
    {
      "bufferView": 170,
      "componentType": 5126,
      "count": 31,
      "type": "VEC4"
    },
    {
      "bufferView": 171,
      "componentType": 5126,
      "count": 31,
      "type": "SCALAR",
      "min": [
        0.0
      ],
      "max": [
        2.0
      ]
    },
    {
      "bufferView": 172,
      "componentType": 5126,
      "count": 31,
      "type": "VEC3"
    },
    {
      "bufferView": 173,
      "componentType": 5126,
      "count": 31,
      "type": "SCALAR",
      "min": [
        0.0
      ],
      "max": [
        2.0
      ]
    },
    {
      "bufferView": 174,
      "componentType": 5126,
      "count": 31,
      "type": "VEC4"
    },
    {
      "bufferView": 175,
      "componentType": 5126,
      "count": 31,
      "type": "SCALAR",
      "min": [
        0.0
      ],
      "max": [
        2.0
      ]
    },
    {
      "bufferView": 176,
      "componentType": 5126,
      "count": 31,
      "type": "VEC3"
    },
    {
      "bufferView": 177,
      "componentType": 5126,
      "count": 31,
      "type": "SCALAR",
      "min": [
        0.0
      ],
      "max": [
        2.0
      ]
    },
    {
      "bufferView": 178,
      "componentType": 5126,
      "count": 31,
      "type": "VEC4"
    },
    {
      "bufferView": 179,
      "componentType": 5126,
      "count": 31,
      "type": "SCALAR",
      "min": [
        0.0
      ],
      "max": [
        2.0
      ]
    },
    {
      "bufferView": 180,
      "componentType": 5126,
      "count": 31,
      "type": "VEC3"
    },
    {
      "bufferView": 181,
      "componentType": 5126,
      "count": 2,
      "type": "SCALAR",
      "min": [
        0.0
      ],
      "max": [
        0.06666666666666667
      ]
    },
    {
      "bufferView": 182,
      "componentType": 5126,
      "count": 2,
      "type": "VEC4"
    },
    {
      "bufferView": 183,
      "componentType": 5126,
      "count": 2,
      "type": "SCALAR",
      "min": [
        0.0
      ],
      "max": [
        0.06666666666666667
      ]
    },
    {
      "bufferView": 184,
      "componentType": 5126,
      "count": 2,
      "type": "VEC3"
    },
    {
      "bufferView": 185,
      "componentType": 5126,
      "count": 2,
      "type": "SCALAR",
      "min": [
        0.0
      ],
      "max": [
        0.06666666666666667
      ]
    },
    {
      "bufferView": 186,
      "componentType": 5126,
      "count": 2,
      "type": "VEC4"
    },
    {
      "bufferView": 187,
      "componentType": 5126,
      "count": 2,
      "type": "SCALAR",
      "min": [
        0.0
      ],
      "max": [
        0.06666666666666667
      ]
    },
    {
      "bufferView": 188,
      "componentType": 5126,
      "count": 2,
      "type": "VEC3"
    },
    {
      "bufferView": 189,
      "componentType": 5126,
      "count": 2,
      "type": "SCALAR",
      "min": [
        0.0
      ],
      "max": [
        0.06666666666666667
      ]
    },
    {
      "bufferView": 190,
      "componentType": 5126,
      "count": 2,
      "type": "VEC4"
    },
    {
      "bufferView": 191,
      "componentType": 5126,
      "count": 2,
      "type": "SCALAR",
      "min": [
        0.0
      ],
      "max": [
        0.06666666666666667
      ]
    },
    {
      "bufferView": 192,
      "componentType": 5126,
      "count": 2,
      "type": "VEC3"
    },
    {
      "bufferView": 193,
      "componentType": 5126,
      "count": 2,
      "type": "SCALAR",
      "min": [
        0.0
      ],
      "max": [
        0.06666666666666667
      ]
    },
    {
      "bufferView": 194,
      "componentType": 5126,
      "count": 2,
      "type": "VEC4"
    },
    {
      "bufferView": 195,
      "componentType": 5126,
      "count": 2,
      "type": "SCALAR",
      "min": [
        0.0
      ],
      "max": [
        0.06666666666666667
      ]
    },
    {
      "bufferView": 196,
      "componentType": 5126,
      "count": 2,
      "type": "VEC3"
    },
    {
      "bufferView": 197,
      "componentType": 5126,
      "count": 2,
      "type": "SCALAR",
      "min": [
        0.0
      ],
      "max": [
        0.06666666666666667
      ]
    },
    {
      "bufferView": 198,
      "componentType": 5126,
      "count": 2,
      "type": "VEC4"
    },
    {
      "bufferView": 199,
      "componentType": 5126,
      "count": 2,
      "type": "SCALAR",
      "min": [
        0.0
      ],
      "max": [
        0.06666666666666667
      ]
    },
    {
      "bufferView": 200,
      "componentType": 5126,
      "count": 2,
      "type": "VEC3"
    },
    {
      "bufferView": 201,
      "componentType": 5126,
      "count": 2,
      "type": "SCALAR",
      "min": [
        0.0
      ],
      "max": [
        0.06666666666666667
      ]
    },
    {
      "bufferView": 202,
      "componentType": 5126,
      "count": 2,
      "type": "VEC4"
    },
    {
      "bufferView": 203,
      "componentType": 5126,
      "count": 2,
      "type": "SCALAR",
      "min": [
        0.0
      ],
      "max": [
        0.06666666666666667
      ]
    },
    {
      "bufferView": 204,
      "componentType": 5126,
      "count": 2,
      "type": "VEC3"
    },
    {
      "bufferView": 205,
      "componentType": 5126,
      "count": 2,
      "type": "SCALAR",
      "min": [
        0.0
      ],
      "max": [
        0.06666666666666667
      ]
    },
    {
      "bufferView": 206,
      "componentType": 5126,
      "count": 2,
      "type": "VEC4"
    },
    {
      "bufferView": 207,
      "componentType": 5126,
      "count": 2,
      "type": "SCALAR",
      "min": [
        0.0
      ],
      "max": [
        0.06666666666666667
      ]
    },
    {
      "bufferView": 208,
      "componentType": 5126,
      "count": 2,
      "type": "VEC3"
    },
    {
      "bufferView": 209,
      "componentType": 5126,
      "count": 2,
      "type": "SCALAR",
      "min": [
        0.0
      ],
      "max": [
        0.06666666666666667
      ]
    },
    {
      "bufferView": 210,
      "componentType": 5126,
      "count": 2,
      "type": "VEC4"
    },
    {
      "bufferView": 211,
      "componentType": 5126,
      "count": 2,
      "type": "SCALAR",
      "min": [
        0.0
      ],
      "max": [
        0.06666666666666667
      ]
    },
    {
      "bufferView": 212,
      "componentType": 5126,
      "count": 2,
      "type": "VEC3"
    },
    {
      "bufferView": 213,
      "componentType": 5126,
      "count": 2,
      "type": "SCALAR",
      "min": [
        0.0
      ],
      "max": [
        0.06666666666666667
      ]
    },
    {
      "bufferView": 214,
      "componentType": 5126,
      "count": 2,
      "type": "VEC4"
    },
    {
      "bufferView": 215,
      "componentType": 5126,
      "count": 2,
      "type": "SCALAR",
      "min": [
        0.0
      ],
      "max": [
        0.06666666666666667
      ]
    },
    {
      "bufferView": 216,
      "componentType": 5126,
      "count": 2,
      "type": "VEC3"
    },
    {
      "bufferView": 217,
      "componentType": 5126,
      "count": 2,
      "type": "SCALAR",
      "min": [
        0.0
      ],
      "max": [
        0.06666666666666667
      ]
    },
    {
      "bufferView": 218,
      "componentType": 5126,
      "count": 2,
      "type": "VEC4"
    },
    {
      "bufferView": 219,
      "componentType": 5126,
      "count": 2,
      "type": "SCALAR",
      "min": [
        0.0
      ],
      "max": [
        0.06666666666666667
      ]
    },
    {
      "bufferView": 220,
      "componentType": 5126,
      "count": 2,
      "type": "VEC3"
    }
  ],
  "animations": [
    {
      "name": "idle",
      "channels": [
        {
          "sampler": 0,
          "target": {
            "node": 2,
            "path": "rotation"
          }
        },
        {
          "sampler": 1,
          "target": {
            "node": 2,
            "path": "translation"
          }
        },
        {
          "sampler": 2,
          "target": {
            "node": 3,
            "path": "rotation"
          }
        },
        {
          "sampler": 3,
          "target": {
            "node": 3,
            "path": "translation"
          }
        },
        {
          "sampler": 4,
          "target": {
            "node": 4,
            "path": "rotation"
          }
        },
        {
          "sampler": 5,
          "target": {
            "node": 4,
            "path": "translation"
          }
        },
        {
          "sampler": 6,
          "target": {
            "node": 5,
            "path": "rotation"
          }
        },
        {
          "sampler": 7,
          "target": {
            "node": 5,
            "path": "translation"
          }
        },
        {
          "sampler": 8,
          "target": {
            "node": 6,
            "path": "rotation"
          }
        },
        {
          "sampler": 9,
          "target": {
            "node": 6,
            "path": "translation"
          }
        },
        {
          "sampler": 10,
          "target": {
            "node": 7,
            "path": "rotation"
          }
        },
        {
          "sampler": 11,
          "target": {
            "node": 7,
            "path": "translation"
          }
        },
        {
          "sampler": 12,
          "target": {
            "node": 8,
            "path": "rotation"
          }
        },
        {
          "sampler": 13,
          "target": {
            "node": 8,
            "path": "translation"
          }
        },
        {
          "sampler": 14,
          "target": {
            "node": 9,
            "path": "rotation"
          }
        },
        {
          "sampler": 15,
          "target": {
            "node": 9,
            "path": "translation"
          }
        },
        {
          "sampler": 16,
          "target": {
            "node": 10,
            "path": "rotation"
          }
        },
        {
          "sampler": 17,
          "target": {
            "node": 10,
            "path": "translation"
          }
        },
        {
          "sampler": 18,
          "target": {
            "node": 11,
            "path": "rotation"
          }
        },
        {
          "sampler": 19,
          "target": {
            "node": 11,
            "path": "translation"
          }
        }
      ],
      "samplers": [
        {
          "input": 21,
          "interpolation": "LINEAR",
          "output": 22
        },
        {
          "input": 23,
          "interpolation": "LINEAR",
          "output": 24
        },
        {
          "input": 25,
          "interpolation": "LINEAR",
          "output": 26
        },
        {
          "input": 27,
          "interpolation": "LINEAR",
          "output": 28
        },
        {
          "input": 29,
          "interpolation": "LINEAR",
          "output": 30
        },
        {
          "input": 31,
          "interpolation": "LINEAR",
          "output": 32
        },
        {
          "input": 33,
          "interpolation": "LINEAR",
          "output": 34
        },
        {
          "input": 35,
          "interpolation": "LINEAR",
          "output": 36
        },
        {
          "input": 37,
          "interpolation": "LINEAR",
          "output": 38
        },
        {
          "input": 39,
          "interpolation": "LINEAR",
          "output": 40
        },
        {
          "input": 41,
          "interpolation": "LINEAR",
          "output": 42
        },
        {
          "input": 43,
          "interpolation": "LINEAR",
          "output": 44
        },
        {
          "input": 45,
          "interpolation": "LINEAR",
          "output": 46
        },
        {
          "input": 47,
          "interpolation": "LINEAR",
          "output": 48
        },
        {
          "input": 49,
          "interpolation": "LINEAR",
          "output": 50
        },
        {
          "input": 51,
          "interpolation": "LINEAR",
          "output": 52
        },
        {
          "input": 53,
          "interpolation": "LINEAR",
          "output": 54
        },
        {
          "input": 55,
          "interpolation": "LINEAR",
          "output": 56
        },
        {
          "input": 57,
          "interpolation": "LINEAR",
          "output": 58
        },
        {
          "input": 59,
          "interpolation": "LINEAR",
          "output": 60
        }
      ]
    },
    {
      "name": "walk",
      "channels": [
        {
          "sampler": 0,
          "target": {
            "node": 2,
            "path": "rotation"
          }
        },
        {
          "sampler": 1,
          "target": {
            "node": 2,
            "path": "translation"
          }
        },
        {
          "sampler": 2,
          "target": {
            "node": 3,
            "path": "rotation"
          }
        },
        {
          "sampler": 3,
          "target": {
            "node": 3,
            "path": "translation"
          }
        },
        {
          "sampler": 4,
          "target": {
            "node": 4,
            "path": "rotation"
          }
        },
        {
          "sampler": 5,
          "target": {
            "node": 4,
            "path": "translation"
          }
        },
        {
          "sampler": 6,
          "target": {
            "node": 5,
            "path": "rotation"
          }
        },
        {
          "sampler": 7,
          "target": {
            "node": 5,
            "path": "translation"
          }
        },
        {
          "sampler": 8,
          "target": {
            "node": 6,
            "path": "rotation"
          }
        },
        {
          "sampler": 9,
          "target": {
            "node": 6,
            "path": "translation"
          }
        },
        {
          "sampler": 10,
          "target": {
            "node": 7,
            "path": "rotation"
          }
        },
        {
          "sampler": 11,
          "target": {
            "node": 7,
            "path": "translation"
          }
        },
        {
          "sampler": 12,
          "target": {
            "node": 8,
            "path": "rotation"
          }
        },
        {
          "sampler": 13,
          "target": {
            "node": 8,
            "path": "translation"
          }
        },
        {
          "sampler": 14,
          "target": {
            "node": 9,
            "path": "rotation"
          }
        },
        {
          "sampler": 15,
          "target": {
            "node": 9,
            "path": "translation"
          }
        },
        {
          "sampler": 16,
          "target": {
            "node": 10,
            "path": "rotation"
          }
        },
        {
          "sampler": 17,
          "target": {
            "node": 10,
            "path": "translation"
          }
        },
        {
          "sampler": 18,
          "target": {
            "node": 11,
            "path": "rotation"
          }
        },
        {
          "sampler": 19,
          "target": {
            "node": 11,
            "path": "translation"
          }
        }
      ],
      "samplers": [
        {
          "input": 61,
          "interpolation": "LINEAR",
          "output": 62
        },
        {
          "input": 63,
          "interpolation": "LINEAR",
          "output": 64
        },
        {
          "input": 65,
          "interpolation": "LINEAR",
          "output": 66
        },
        {
          "input": 67,
          "interpolation": "LINEAR",
          "output": 68
        },
        {
          "input": 69,
          "interpolation": "LINEAR",
          "output": 70
        },
        {
          "input": 71,
          "interpolation": "LINEAR",
          "output": 72
        },
        {
          "input": 73,
          "interpolation": "LINEAR",
          "output": 74
        },
        {
          "input": 75,
          "interpolation": "LINEAR",
          "output": 76
        },
        {
          "input": 77,
          "interpolation": "LINEAR",
          "output": 78
        },
        {
          "input": 79,
          "interpolation": "LINEAR",
          "output": 80
        },
        {
          "input": 81,
          "interpolation": "LINEAR",
          "output": 82
        },
        {
          "input": 83,
          "interpolation": "LINEAR",
          "output": 84
        },
        {
          "input": 85,
          "interpolation": "LINEAR",
          "output": 86
        },
        {
          "input": 87,
          "interpolation": "LINEAR",
          "output": 88
        },
        {
          "input": 89,
          "interpolation": "LINEAR",
          "output": 90
        },
        {
          "input": 91,
          "interpolation": "LINEAR",
          "output": 92
        },
        {
          "input": 93,
          "interpolation": "LINEAR",
          "output": 94
        },
        {
          "input": 95,
          "interpolation": "LINEAR",
          "output": 96
        },
        {
          "input": 97,
          "interpolation": "LINEAR",
          "output": 98
        },
        {
          "input": 99,
          "interpolation": "LINEAR",
          "output": 100
        }
      ]
    },
    {
      "name": "run",
      "channels": [
        {
          "sampler": 0,
          "target": {
            "node": 2,
            "path": "rotation"
          }
        },
        {
          "sampler": 1,
          "target": {
            "node": 2,
            "path": "translation"
          }
        },
        {
          "sampler": 2,
          "target": {
            "node": 3,
            "path": "rotation"
          }
        },
        {
          "sampler": 3,
          "target": {
            "node": 3,
            "path": "translation"
          }
        },
        {
          "sampler": 4,
          "target": {
            "node": 4,
            "path": "rotation"
          }
        },
        {
          "sampler": 5,
          "target": {
            "node": 4,
            "path": "translation"
          }
        },
        {
          "sampler": 6,
          "target": {
            "node": 5,
            "path": "rotation"
          }
        },
        {
          "sampler": 7,
          "target": {
            "node": 5,
            "path": "translation"
          }
        },
        {
          "sampler": 8,
          "target": {
            "node": 6,
            "path": "rotation"
          }
        },
        {
          "sampler": 9,
          "target": {
            "node": 6,
            "path": "translation"
          }
        },
        {
          "sampler": 10,
          "target": {
            "node": 7,
            "path": "rotation"
          }
        },
        {
          "sampler": 11,
          "target": {
            "node": 7,
            "path": "translation"
          }
        },
        {
          "sampler": 12,
          "target": {
            "node": 8,
            "path": "rotation"
          }
        },
        {
          "sampler": 13,
          "target": {
            "node": 8,
            "path": "translation"
          }
        },
        {
          "sampler": 14,
          "target": {
            "node": 9,
            "path": "rotation"
          }
        },
        {
          "sampler": 15,
          "target": {
            "node": 9,
            "path": "translation"
          }
        },
        {
          "sampler": 16,
          "target": {
            "node": 10,
            "path": "rotation"
          }
        },
        {
          "sampler": 17,
          "target": {
            "node": 10,
            "path": "translation"
          }
        },
        {
          "sampler": 18,
          "target": {
            "node": 11,
            "path": "rotation"
          }
        },
        {
          "sampler": 19,
          "target": {
            "node": 11,
            "path": "translation"
          }
        }
      ],
      "samplers": [
        {
          "input": 101,
          "interpolation": "LINEAR",
          "output": 102
        },
        {
          "input": 103,
          "interpolation": "LINEAR",
          "output": 104
        },
        {
          "input": 105,
          "interpolation": "LINEAR",
          "output": 106
        },
        {
          "input": 107,
          "interpolation": "LINEAR",
          "output": 108
        },
        {
          "input": 109,
          "interpolation": "LINEAR",
          "output": 110
        },
        {
          "input": 111,
          "interpolation": "LINEAR",
          "output": 112
        },
        {
          "input": 113,
          "interpolation": "LINEAR",
          "output": 114
        },
        {
          "input": 115,
          "interpolation": "LINEAR",
          "output": 116
        },
        {
          "input": 117,
          "interpolation": "LINEAR",
          "output": 118
        },
        {
          "input": 119,
          "interpolation": "LINEAR",
          "output": 120
        },
        {
          "input": 121,
          "interpolation": "LINEAR",
          "output": 122
        },
        {
          "input": 123,
          "interpolation": "LINEAR",
          "output": 124
        },
        {
          "input": 125,
          "interpolation": "LINEAR",
          "output": 126
        },
        {
          "input": 127,
          "interpolation": "LINEAR",
          "output": 128
        },
        {
          "input": 129,
          "interpolation": "LINEAR",
          "output": 130
        },
        {
          "input": 131,
          "interpolation": "LINEAR",
          "output": 132
        },
        {
          "input": 133,
          "interpolation": "LINEAR",
          "output": 134
        },
        {
          "input": 135,
          "interpolation": "LINEAR",
          "output": 136
        },
        {
          "input": 137,
          "interpolation": "LINEAR",
          "output": 138
        },
        {
          "input": 139,
          "interpolation": "LINEAR",
          "output": 140
        }
      ]
    },
    {
      "name": "punch",
      "channels": [
        {
          "sampler": 0,
          "target": {
            "node": 2,
            "path": "rotation"
          }
        },
        {
          "sampler": 1,
          "target": {
            "node": 2,
            "path": "translation"
          }
        },
        {
          "sampler": 2,
          "target": {
            "node": 3,
            "path": "rotation"
          }
        },
        {
          "sampler": 3,
          "target": {
            "node": 3,
            "path": "translation"
          }
        },
        {
          "sampler": 4,
          "target": {
            "node": 4,
            "path": "rotation"
          }
        },
        {
          "sampler": 5,
          "target": {
            "node": 4,
            "path": "translation"
          }
        },
        {
          "sampler": 6,
          "target": {
            "node": 5,
            "path": "rotation"
          }
        },
        {
          "sampler": 7,
          "target": {
            "node": 5,
            "path": "translation"
          }
        },
        {
          "sampler": 8,
          "target": {
            "node": 6,
            "path": "rotation"
          }
        },
        {
          "sampler": 9,
          "target": {
            "node": 6,
            "path": "translation"
          }
        },
        {
          "sampler": 10,
          "target": {
            "node": 7,
            "path": "rotation"
          }
        },
        {
          "sampler": 11,
          "target": {
            "node": 7,
            "path": "translation"
          }
        },
        {
          "sampler": 12,
          "target": {
            "node": 8,
            "path": "rotation"
          }
        },
        {
          "sampler": 13,
          "target": {
            "node": 8,
            "path": "translation"
          }
        },
        {
          "sampler": 14,
          "target": {
            "node": 9,
            "path": "rotation"
          }
        },
        {
          "sampler": 15,
          "target": {
            "node": 9,
            "path": "translation"
          }
        },
        {
          "sampler": 16,
          "target": {
            "node": 10,
            "path": "rotation"
          }
        },
        {
          "sampler": 17,
          "target": {
            "node": 10,
            "path": "translation"
          }
        },
        {
          "sampler": 18,
          "target": {
            "node": 11,
            "path": "rotation"
          }
        },
        {
          "sampler": 19,
          "target": {
            "node": 11,
            "path": "translation"
          }
        }
      ],
      "samplers": [
        {
          "input": 141,
          "interpolation": "LINEAR",
          "output": 142
        },
        {
          "input": 143,
          "interpolation": "LINEAR",
          "output": 144
        },
        {
          "input": 145,
          "interpolation": "LINEAR",
          "output": 146
        },
        {
          "input": 147,
          "interpolation": "LINEAR",
          "output": 148
        },
        {
          "input": 149,
          "interpolation": "LINEAR",
          "output": 150
        },
        {
          "input": 151,
          "interpolation": "LINEAR",
          "output": 152
        },
        {
          "input": 153,
          "interpolation": "LINEAR",
          "output": 154
        },
        {
          "input": 155,
          "interpolation": "LINEAR",
          "output": 156
        },
        {
          "input": 157,
          "interpolation": "LINEAR",
          "output": 158
        },
        {
          "input": 159,
          "interpolation": "LINEAR",
          "output": 160
        },
        {
          "input": 161,
          "interpolation": "LINEAR",
          "output": 162
        },
        {
          "input": 163,
          "interpolation": "LINEAR",
          "output": 164
        },
        {
          "input": 165,
          "interpolation": "LINEAR",
          "output": 166
        },
        {
          "input": 167,
          "interpolation": "LINEAR",
          "output": 168
        },
        {
          "input": 169,
          "interpolation": "LINEAR",
          "output": 170
        },
        {
          "input": 171,
          "interpolation": "LINEAR",
          "output": 172
        },
        {
          "input": 173,
          "interpolation": "LINEAR",
          "output": 174
        },
        {
          "input": 175,
          "interpolation": "LINEAR",
          "output": 176
        },
        {
          "input": 177,
          "interpolation": "LINEAR",
          "output": 178
        },
        {
          "input": 179,
          "interpolation": "LINEAR",
          "output": 180
        }
      ]
    },
    {
      "name": "die",
      "channels": [
        {
          "sampler": 0,
          "target": {
            "node": 2,
            "path": "rotation"
          }
        },
        {
          "sampler": 1,
          "target": {
            "node": 2,
            "path": "translation"
          }
        },
        {
          "sampler": 2,
          "target": {
            "node": 3,
            "path": "rotation"
          }
        },
        {
          "sampler": 3,
          "target": {
            "node": 3,
            "path": "translation"
          }
        },
        {
          "sampler": 4,
          "target": {
            "node": 4,
            "path": "rotation"
          }
        },
        {
          "sampler": 5,
          "target": {
            "node": 4,
            "path": "translation"
          }
        },
        {
          "sampler": 6,
          "target": {
            "node": 5,
            "path": "rotation"
          }
        },
        {
          "sampler": 7,
          "target": {
            "node": 5,
            "path": "translation"
          }
        },
        {
          "sampler": 8,
          "target": {
            "node": 6,
            "path": "rotation"
          }
        },
        {
          "sampler": 9,
          "target": {
            "node": 6,
            "path": "translation"
          }
        },
        {
          "sampler": 10,
          "target": {
            "node": 7,
            "path": "rotation"
          }
        },
        {
          "sampler": 11,
          "target": {
            "node": 7,
            "path": "translation"
          }
        },
        {
          "sampler": 12,
          "target": {
            "node": 8,
            "path": "rotation"
          }
        },
        {
          "sampler": 13,
          "target": {
            "node": 8,
            "path": "translation"
          }
        },
        {
          "sampler": 14,
          "target": {
            "node": 9,
            "path": "rotation"
          }
        },
        {
          "sampler": 15,
          "target": {
            "node": 9,
            "path": "translation"
          }
        },
        {
          "sampler": 16,
          "target": {
            "node": 10,
            "path": "rotation"
          }
        },
        {
          "sampler": 17,
          "target": {
            "node": 10,
            "path": "translation"
          }
        },
        {
          "sampler": 18,
          "target": {
            "node": 11,
            "path": "rotation"
          }
        },
        {
          "sampler": 19,
          "target": {
            "node": 11,
            "path": "translation"
          }
        }
      ],
      "samplers": [
        {
          "input": 181,
          "interpolation": "LINEAR",
          "output": 182
        },
        {
          "input": 183,
          "interpolation": "LINEAR",
          "output": 184
        },
        {
          "input": 185,
          "interpolation": "LINEAR",
          "output": 186
        },
        {
          "input": 187,
          "interpolation": "LINEAR",
          "output": 188
        },
        {
          "input": 189,
          "interpolation": "LINEAR",
          "output": 190
        },
        {
          "input": 191,
          "interpolation": "LINEAR",
          "output": 192
        },
        {
          "input": 193,
          "interpolation": "LINEAR",
          "output": 194
        },
        {
          "input": 195,
          "interpolation": "LINEAR",
          "output": 196
        },
        {
          "input": 197,
          "interpolation": "LINEAR",
          "output": 198
        },
        {
          "input": 199,
          "interpolation": "LINEAR",
          "output": 200
        },
        {
          "input": 201,
          "interpolation": "LINEAR",
          "output": 202
        },
        {
          "input": 203,
          "interpolation": "LINEAR",
          "output": 204
        },
        {
          "input": 205,
          "interpolation": "LINEAR",
          "output": 206
        },
        {
          "input": 207,
          "interpolation": "LINEAR",
          "output": 208
        },
        {
          "input": 209,
          "interpolation": "LINEAR",
          "output": 210
        },
        {
          "input": 211,
          "interpolation": "LINEAR",
          "output": 212
        },
        {
          "input": 213,
          "interpolation": "LINEAR",
          "output": 214
        },
        {
          "input": 215,
          "interpolation": "LINEAR",
          "output": 216
        },
        {
          "input": 217,
          "interpolation": "LINEAR",
          "output": 218
        },
        {
          "input": 219,
          "interpolation": "LINEAR",
          "output": 220
        }
      ]
    }
  ]
}