{"scene":0,"scenes":[{"nodes":[0]}],"asset":{"version":"2.0","generator":"https://github.com/mikedh/trimesh"},"accessors":[{"componentType":5125,"type":"SCALAR","bufferView":0,"count":1752,"max":[1175],"min":[0]},{"componentType":5126,"type":"VEC3","byteOffset":0,"bufferView":1,"count":1176,"max":[0.7156209945678711,0.4310370087623596,0.4243229925632477],"min":[-0.7156209945678711,-0.5115240216255188,-0.33521100878715515]}],"meshes":[{"name":"Armor_Metal_Cylinder.049","extras":{"processed":true,"name":"Armor_Metal_Cylinder.049","node":"Armor_Metal_Cylinder.049"},"primitives":[{"attributes":{"POSITION":1},"indices":0,"mode":4,"material":0}]}],"materials":[{"pbrMetallicRoughness":{"baseColorFactor":[0.21176470588235294,0.21176470588235294,0.1803921568627451,1.0],"roughnessFactor":0.377888888028231},"doubleSided":false}],"nodes":[{"name":"Armor_Metal_Cylinder.049","mesh":0}],"buffers":[{"uri":"gltf_buffer_0.bin","byteLength":7008},{"uri":"gltf_buffer_1.bin","byteLength":14112}],"bufferViews":[{"buffer":0,"byteOffset":0,"byteLength":7008},{"buffer":1,"byteOffset":0,"byteLength":14112}]}