{
  "asset": {
    "version": "2.0",
    "generator": "b3d_export_gltf.py"
  },
  "scene": 0,
  "scenes": [
    {
      "nodes": [
        0
      ]
    }
  ],
  "nodes": [
    {
      "name": "armature",
      "children": [
        8
      ]
    },
    {
      "name": "Cube.005",
      "translation": [
        0.0,
        0.0,
        0.0
      ],
      "rotation": [
        0.0,
        0.0,
        0.0,
        1.0
      ],
      "scale": [
        1.0,
        1.0,
        1.0
      ],
      "children": [
        2
      ]
    },
    {
      "name": "root",
      "translation": [
        0.001444412302225828,
        -0.5432353019714355,
        -0.015843331813812256
      ],
      "rotation": [
        0.0,
        0.9999999999999993,
        3.7748950632021634e-08,
        0.0
      ],
      "scale": [
        1.0,
        1.0,
        1.0
      ],
      "children": [
        3,
        4,
        5,
        6,
        7
      ]
    },
    {
      "name": "Bone.005",
      "translation": [
        0.1347007632255554,
        -0.0036311142146587374,
        -0.025793927907943725
      ],
      "rotation": [
        0.9999999999999469,
        -5.3173771163980655e-08,
        -7.549790126403931e-08,
        3.123959118056353e-07
      ],
      "scale": [
        1.0,
        1.0,
        1.0
      ]
    },
    {
      "name": "Bone.003",
      "translation": [
        0.1347007632255554,
        -0.003631133586168289,
        0.22927770614624024
      ],
      "rotation": [
        0.9999999999999605,
        -5.317377116398137e-08,
        -7.549790126404034e-08,
        2.6586886292533425e-07
      ],
      "scale": [
        1.0,
        1.0,
        1.0
      ]
    },
    {
      "name": "Bone.004",
      "translation": [
        -0.13756673336029052,
        -0.0036311142146587374,
        -0.025793927907943725
      ],
      "rotation": [
        0.9999999999999469,
        -5.3173771163980655e-08,
        -7.549790126403931e-08,
        3.123959118056353e-07
      ],
      "scale": [
        1.0,
        1.0,
        1.0
      ]
    },
    {
      "name": "Bone.002",
      "translation": [
        -0.13756673336029052,
        -0.003631133586168289,
        0.22927770614624024
      ],
      "rotation": [
        0.9999999999999605,
        -5.317377116398137e-08,
        -7.549790126404034e-08,
        2.6586886292533425e-07
      ],
      "scale": [
        1.0,
        1.0,
        1.0
      ]
    },
    {
      "name": "Bone.001",
      "translation": [
        -0.0,
        0.42447309494018554,
        0.1948861598968506
      ],
      "rotation": [
        0.0,
        0.0,
        0.0,
        1.0
      ],
      "scale": [
        1.0,
        1.0,
        1.0
      ]
    },
    {
      "name": "tree_monster",
      "mesh": 0,
      "skin": 0
    }
  ],
  "meshes": [
    {
      "name": "tree_monster",
      "primitives": [
        {
          "attributes": {
            "POSITION": 0,
            "TEXCOORD_0": 1,
            "JOINTS_0": 2,
            "WEIGHTS_0": 3
          },
          "indices": 4,
          "material": 0
        },
        {
          "attributes": {
            "POSITION": 5,
            "TEXCOORD_0": 6,
            "JOINTS_0": 7,
            "WEIGHTS_0": 8
          },
          "indices": 9,
          "material": 1
        },
        {
          "attributes": {
            "POSITION": 10,
            "TEXCOORD_0": 11,
            "JOINTS_0": 12,
            "WEIGHTS_0": 13
          },
          "indices": 14,
          "material": 2
        },
        {
          "attributes": {
            "POSITION": 15,
            "TEXCOORD_0": 16,
            "JOINTS_0": 17,
            "WEIGHTS_0": 18
          },
          "indices": 19,
          "material": 3
        }
      ]
    }
  ],
  "skins": [
    {
      "inverseBindMatrices": 20,
      "joints": [
        1,
        2,
        3,
        4,
        5,
        6,
        7
      ],
      "skeleton": 1
    }
  ],
  "materials": [
    {
      "name": "arm",
      "pbrMetallicRoughness": {
        "baseColorTexture": {
          "index": 0
        },
        "metallicFactor": 0.0,
        "roughnessFactor": 1.0
      },
      "doubleSided": true
    },
    {
      "name": "body",
      "pbrMetallicRoughness": {
        "baseColorTexture": {
          "index": 1
        },
        "metallicFactor": 0.0,
        "roughnessFactor": 1.0
      },
      "doubleSided": true
    },
    {
      "name": "face",
      "pbrMetallicRoughness": {
        "baseColorTexture": {
          "index": 2
        },
        "metallicFactor": 0.0,
        "roughnessFactor": 1.0
      },
      "doubleSided": true
    },
    {
      "name": "leg",
      "pbrMetallicRoughness": {
        "baseColorTexture": {
          "index": 3
        },
        "metallicFactor": 0.0,
        "roughnessFactor": 1.0
      },
      "doubleSided": true
    }
  ],
  "textures": [
    {
      "source": 0
    },
    {
      "source": 1
    },
    {
      "source": 2
    },
    {
      "source": 3
    }
  ],
  "images": [
    {
      "uri": "textures/arm.png"
    },
    {
      "uri": "textures/body.png"
    },
    {
      "uri": "textures/face.png"
    },
    {
      "uri": "textures/leg.png"
    }
  ],
  "buffers": [
    {
      "byteLength": 36164,
      "uri": "model.bin"
    }
  ],
  "bufferViews": [
    {
      "buffer": 0,
      "byteOffset": 0,
      "byteLength": 216,
      "target": 34962
    },
    {
      "buffer": 0,
      "byteOffset": 216,
      "byteLength": 144,
      "target": 34962
    },
    {
      "buffer": 0,
      "byteOffset": 360,
      "byteLength": 72,
      "target": 34962
    },
    {
      "buffer": 0,
      "byteOffset": 432,
      "byteLength": 288,
      "target": 34962
    },
    {
      "buffer": 0,
      "byteOffset": 720,
      "byteLength": 36,
      "target": 34963
    },
    {
      "buffer": 0,
      "byteOffset": 756,
      "byteLength": 4164,
      "target": 34962
    },
    {
      "buffer": 0,
      "byteOffset": 4920,
      "byteLength": 2776,
      "target": 34962
    },
    {
      "buffer": 0,
      "byteOffset": 7696,
      "byteLength": 1388,
      "target": 34962
    },
    {
      "buffer": 0,
      "byteOffset": 9084,
      "byteLength": 5552,
      "target": 34962
    },
    {
      "buffer": 0,
      "byteOffset": 14636,
      "byteLength": 990,
      "target": 34963
    },
    {
      "buffer": 0,
      "byteOffset": 15626,
      "byteLength": 600,
      "target": 34962
    },
    {
      "buffer": 0,
      "byteOffset": 16226,
      "byteLength": 400,
      "target": 34962
    },
    {
      "buffer": 0,
      "byteOffset": 16626,
      "byteLength": 200,
      "target": 34962
    },
    {
      "buffer": 0,
      "byteOffset": 16826,
      "byteLength": 800,
      "target": 34962
    },
    {
      "buffer": 0,
      "byteOffset": 17626,
      "byteLength": 108,
      "target": 34963
    },
    {
      "buffer": 0,
      "byteOffset": 17734,
      "byteLength": 324,
      "target": 34962
    },
    {
      "buffer": 0,
      "byteOffset": 18058,
      "byteLength": 216,
      "target": 34962
    },
    {
      "buffer": 0,
      "byteOffset": 18274,
      "byteLength": 108,
      "target": 34962
    },
    {
      "buffer": 0,
      "byteOffset": 18382,
      "byteLength": 432,
      "target": 34962
    },
    {
      "buffer": 0,
      "byteOffset": 18814,
      "byteLength": 54,
      "target": 34963
    },
    {
      "buffer": 0,
      "byteOffset": 18868,
      "byteLength": 448
    },
    {
      "buffer": 0,
      "byteOffset": 19316,
      "byteLength": 100
    },
    {
      "buffer": 0,
      "byteOffset": 19416,
      "byteLength": 400
    },
    {
      "buffer": 0,
      "byteOffset": 19816,
      "byteLength": 100
    },
    {
      "buffer": 0,
      "byteOffset": 19916,
      "byteLength": 300
    },
    {
      "buffer": 0,
      "byteOffset": 20216,
      "byteLength": 100
    },
    {
      "buffer": 0,
      "byteOffset": 20316,
      "byteLength": 400
    },
    {
      "buffer": 0,
      "byteOffset": 20716,
      "byteLength": 100
    },
    {
      "buffer": 0,
      "byteOffset": 20816,
      "byteLength": 300
    },
    {
      "buffer": 0,
      "byteOffset": 21116,
      "byteLength": 100
    },
    {
      "buffer": 0,
      "byteOffset": 21216,
      "byteLength": 400
    },
    {
      "buffer": 0,
      "byteOffset": 21616,
      "byteLength": 100
    },
    {
      "buffer": 0,
      "byteOffset": 21716,
      "byteLength": 300
    },
    {
      "buffer": 0,
      "byteOffset": 22016,
      "byteLength": 100
    },
    {
      "buffer": 0,
      "byteOffset": 22116,
      "byteLength": 400
    },
    {
      "buffer": 0,
      "byteOffset": 22516,
      "byteLength": 100
    },
    {
      "buffer": 0,
      "byteOffset": 22616,
      "byteLength": 300
    },
    {
      "buffer": 0,
      "byteOffset": 22916,
      "byteLength": 100
    },
    {
      "buffer": 0,
      "byteOffset": 23016,
      "byteLength": 400
    },
    {
      "buffer": 0,
      "byteOffset": 23416,
      "byteLength": 100
    },
    {
      "buffer": 0,
      "byteOffset": 23516,
      "byteLength": 300
    },
    {
      "buffer": 0,
      "byteOffset": 23816,
      "byteLength": 100
    },
    {
      "buffer": 0,
      "byteOffset": 23916,
      "byteLength": 400
    },
    {
      "buffer": 0,
      "byteOffset": 24316,
      "byteLength": 100
    },
    {
      "buffer": 0,
      "byteOffset": 24416,
      "byteLength": 300
    },
    {
      "buffer": 0,
      "byteOffset": 24716,
      "byteLength": 92
    },
    {
      "buffer": 0,
      "byteOffset": 24808,
      "byteLength": 368
    },
    {
      "buffer": 0,
      "byteOffset": 25176,
      "byteLength": 92
    },
    {
      "buffer": 0,
      "byteOffset": 25268,
      "byteLength": 276
    },
    {
      "buffer": 0,
      "byteOffset": 25544,
      "byteLength": 92
    },
    {
      "buffer": 0,
      "byteOffset": 25636,
      "byteLength": 368
    },
    {
      "buffer": 0,
      "byteOffset": 26004,
      "byteLength": 92
    },
    {
      "buffer": 0,
      "byteOffset": 26096,
      "byteLength": 276
    },
    {
      "buffer": 0,
      "byteOffset": 26372,
      "byteLength": 92
    },
    {
      "buffer": 0,
      "byteOffset": 26464,
      "byteLength": 368
    },
    {
      "buffer": 0,
      "byteOffset": 26832,
      "byteLength": 92
    },
    {
      "buffer": 0,
      "byteOffset": 26924,
      "byteLength": 276
    },
    {
      "buffer": 0,
      "byteOffset": 27200,
      "byteLength": 92
    },
    {
      "buffer": 0,
      "byteOffset": 27292,
      "byteLength": 368
    },
    {
      "buffer": 0,
      "byteOffset": 27660,
      "byteLength": 92
    },
    {
      "buffer": 0,
      "byteOffset": 27752,
      "byteLength": 276
    },
    {
      "buffer": 0,
      "byteOffset": 28028,
      "byteLength": 92
    },
    {
      "buffer": 0,
      "byteOffset": 28120,
      "byteLength": 368
    },
    {
      "buffer": 0,
      "byteOffset": 28488,
      "byteLength": 92
    },
    {
      "buffer": 0,
      "byteOffset": 28580,
      "byteLength": 276
    },
    {
      "buffer": 0,
      "byteOffset": 28856,
      "byteLength": 92
    },
    {
      "buffer": 0,
      "byteOffset": 28948,
      "byteLength": 368
    },
    {
      "buffer": 0,
      "byteOffset": 29316,
      "byteLength": 92
    },
    {
      "buffer": 0,
      "byteOffset": 29408,
      "byteLength": 276
    },
    {
      "buffer": 0,
      "byteOffset": 29684,
      "byteLength": 60
    },
    {
      "buffer": 0,
      "byteOffset": 29744,
      "byteLength": 240
    },
    {
      "buffer": 0,
      "byteOffset": 29984,
      "byteLength": 60
    },
    {
      "buffer": 0,
      "byteOffset": 30044,
      "byteLength": 180
    },
    {
      "buffer": 0,
      "byteOffset": 30224,
      "byteLength": 60
    },
    {
      "buffer": 0,
      "byteOffset": 30284,
      "byteLength": 240
    },
    {
      "buffer": 0,
      "byteOffset": 30524,
      "byteLength": 60
    },
    {
      "buffer": 0,
      "byteOffset": 30584,
      "byteLength": 180
    },
    {
      "buffer": 0,
      "byteOffset": 30764,
      "byteLength": 60
    },
    {
      "buffer": 0,
      "byteOffset": 30824,
      "byteLength": 240
    },
    {
      "buffer": 0,
      "byteOffset": 31064,
      "byteLength": 60
    },
    {
      "buffer": 0,
      "byteOffset": 31124,
      "byteLength": 180
    },
    {
      "buffer": 0,
      "byteOffset": 31304,
      "byteLength": 60
    },
    {
      "buffer": 0,
      "byteOffset": 31364,
      "byteLength": 240
    },
    {
      "buffer": 0,
      "byteOffset": 31604,
      "byteLength": 60
    },
    {
      "buffer": 0,
      "byteOffset": 31664,
      "byteLength": 180
    },
    {
      "buffer": 0,
      "byteOffset": 31844,
      "byteLength": 60
    },
    {
      "buffer": 0,
      "byteOffset": 31904,
      "byteLength": 240
    },
    {
      "buffer": 0,
      "byteOffset": 32144,
      "byteLength": 60
    },
    {
      "buffer": 0,
      "byteOffset": 32204,
      "byteLength": 180
    },
    {
      "buffer": 0,
      "byteOffset": 32384,
      "byteLength": 60
    },
    {
      "buffer": 0,
      "byteOffset": 32444,
      "byteLength": 240
    },
    {
      "buffer": 0,
      "byteOffset": 32684,
      "byteLength": 60
    },
    {
      "buffer": 0,
      "byteOffset": 32744,
      "byteLength": 180
    },
    {
      "buffer": 0,
      "byteOffset": 32924,
      "byteLength": 60
    },
    {
      "buffer": 0,
      "byteOffset": 32984,
      "byteLength": 240
    },
    {
      "buffer": 0,
      "byteOffset": 33224,
      "byteLength": 60
    },
    {
      "buffer": 0,
      "byteOffset": 33284,
      "byteLength": 180
    },
    {
      "buffer": 0,
      "byteOffset": 33464,
      "byteLength": 60
    },
    {
      "buffer": 0,
      "byteOffset": 33524,
      "byteLength": 240
    },
    {
      "buffer": 0,
      "byteOffset": 33764,
      "byteLength": 60
    },
    {
      "buffer": 0,
      "byteOffset": 33824,
      "byteLength": 180
    },
    {
      "buffer": 0,
      "byteOffset": 34004,
      "byteLength": 60
    },
    {
      "buffer": 0,
      "byteOffset": 34064,
      "byteLength": 240
    },
    {
      "buffer": 0,
      "byteOffset": 34304,
      "byteLength": 60
    },
    {
      "buffer": 0,
      "byteOffset": 34364,
      "byteLength": 180
    },
    {
      "buffer": 0,
      "byteOffset": 34544,
      "byteLength": 60
    },
    {
      "buffer": 0,
      "byteOffset": 34604,
      "byteLength": 240
    },
    {
      "buffer": 0,
      "byteOffset": 34844,
      "byteLength": 60
    },
    {
      "buffer": 0,
      "byteOffset": 34904,
      "byteLength": 180
    },
    {
      "buffer": 0,
      "byteOffset": 35084,
      "byteLength": 60
    },
    {
      "buffer": 0,
      "byteOffset": 35144,
      "byteLength": 240
    },
    {
      "buffer": 0,
      "byteOffset": 35384,
      "byteLength": 60
    },
    {
      "buffer": 0,
      "byteOffset": 35444,
      "byteLength": 180
    },
    {
      "buffer": 0,
      "byteOffset": 35624,
      "byteLength": 60
    },
    {
      "buffer": 0,
      "byteOffset": 35684,
      "byteLength": 240
    },
    {
      "buffer": 0,
      "byteOffset": 35924,
      "byteLength": 60
    },
    {
      "buffer": 0,
      "byteOffset": 35984,
      "byteLength": 180
    }
  ],
  "accessors": [
    {
      "bufferView": 0,
      "componentType": 5126,
      "count": 18,
      "type": "VEC3",
      "min": [
        -0.2037485122680664,
        0.5607178688049317,
        -0.31992058753967284
      ],
      "max": [
        0.2037484884262085,
        1.855483341217041,
        0.07653005123138427
      ]
    },
    {
      "bufferView": 1,
      "componentType": 5126,
      "count": 18,
      "type": "VEC2"
    },
    {
      "bufferView": 2,
      "componentType": 5121,
      "count": 18,
      "type": "VEC4"
    },
    {
      "bufferView": 3,
      "componentType": 5126,
      "count": 18,
      "type": "VEC4"
    },
    {
      "bufferView": 4,
      "componentType": 5123,
      "count": 18,
      "type": "SCALAR"
    },
    {
      "bufferView": 5,
      "componentType": 5126,
      "count": 347,
      "type": "VEC3",
      "min": [
        -0.5833337306976318,
        0.0,
        -0.41424007415771485
      ],
      "max": [
        0.5412996292114258,
        2.389074420928955,
        0.5904193878173828
      ]
    },
    {
      "bufferView": 6,
      "componentType": 5126,
      "count": 347,
      "type": "VEC2"
    },
    {
      "bufferView": 7,
      "componentType": 5121,
      "count": 347,
      "type": "VEC4"
    },
    {
      "bufferView": 8,
      "componentType": 5126,
      "count": 347,
      "type": "VEC4"
    },
    {
      "bufferView": 9,
      "componentType": 5123,
      "count": 495,
      "type": "SCALAR"
    },
    {
      "bufferView": 10,
      "componentType": 5126,
      "count": 50,
      "type": "VEC3",
      "min": [
        -0.2037485122680664,
        0.5607178688049317,
        -0.31992058753967284
      ],
      "max": [
        0.2037484884262085,
        1.855483341217041,
        0.07653005123138427
      ]
    },
    {
      "bufferView": 11,
      "componentType": 5126,
      "count": 50,
      "type": "VEC2"
    },
    {
      "bufferView": 12,
      "componentType": 5121,
      "count": 50,
      "type": "VEC4"
    },
    {
      "bufferView": 13,
      "componentType": 5126,
      "count": 50,
      "type": "VEC4"
    },
    {
      "bufferView": 14,
      "componentType": 5123,
      "count": 54,
      "type": "SCALAR"
    },
    {
      "bufferView": 15,
      "componentType": 5126,
      "count": 27,
      "type": "VEC3",
      "min": [
        -0.2037485122680664,
        0.5607178688049317,
        -0.31992058753967284
      ],
      "max": [
        0.2037484884262085,
        1.855483341217041,
        0.07653005123138427
      ]
    },
    {
      "bufferView": 16,
      "componentType": 5126,
      "count": 27,
      "type": "VEC2"
    },
    {
      "bufferView": 17,
      "componentType": 5121,
      "count": 27,
      "type": "VEC4"
    },
    {
      "bufferView": 18,
      "componentType": 5126,
      "count": 27,
      "type": "VEC4"
    },
    {
      "bufferView": 19,
      "componentType": 5123,
      "count": 27,
      "type": "SCALAR"
    },
    {
      "bufferView": 20,
      "componentType": 5126,
      "count": 7,
      "type": "MAT4"
    },
    {
      "bufferView": 21,
      "componentType": 5126,
      "count": 25,
      "type": "SCALAR",
      "min": [
        0.0
      ],
      "max": [
        1.6
      ]
    },
    {
      "bufferView": 22,
      "componentType": 5126,
      "count": 25,
      "type": "VEC4"
    },
    {
      "bufferView": 23,
      "componentType": 5126,
      "count": 25,
      "type": "SCALAR",
      "min": [
        0.0
      ],
      "max": [
        1.6
      ]
    },
    {
      "bufferView": 24,
      "componentType": 5126,
      "count": 25,
      "type": "VEC3"
    },
    {
      "bufferView": 25,
      "componentType": 5126,
      "count": 25,
      "type": "SCALAR",
      "min": [
        0.0
      ],
      "max": [
        1.6
      ]
    },
    {
      "bufferView": 26,
      "componentType": 5126,
      "count": 25,
      "type": "VEC4"
    },
    {
      "bufferView": 27,
      "componentType": 5126,
      "count": 25,
      "type": "SCALAR",
      "min": [
        0.0
      ],
      "max": [
        1.6
      ]
    },
    {
      "bufferView": 28,
      "componentType": 5126,
      "count": 25,
      "type": "VEC3"
    },
    {
      "bufferView": 29,
      "componentType": 5126,
      "count": 25,
      "type": "SCALAR",
      "min": [
        0.0
      ],
      "max": [
        1.6
      ]
    },
    {
      "bufferView": 30,
      "componentType": 5126,
      "count": 25,
      "type": "VEC4"
    },
    {
      "bufferView": 31,
      "componentType": 5126,
      "count": 25,
      "type": "SCALAR",
      "min": [
        0.0
      ],
      "max": [
        1.6
      ]
    },
    {
      "bufferView": 32,
      "componentType": 5126,
      "count": 25,
      "type": "VEC3"
    },
    {
      "bufferView": 33,
      "componentType": 5126,
      "count": 25,
      "type": "SCALAR",
      "min": [
        0.0
      ],
      "max": [
        1.6
      ]
    },
    {
      "bufferView": 34,
      "componentType": 5126,
      "count": 25,
      "type": "VEC4"
    },
    {
      "bufferView": 35,
      "componentType": 5126,
      "count": 25,
      "type": "SCALAR",
      "min": [
        0.0
      ],
      "max": [
        1.6
      ]
    },
    {
      "bufferView": 36,
      "componentType": 5126,
      "count": 25,
      "type": "VEC3"
    },
    {
      "bufferView": 37,
      "componentType": 5126,
      "count": 25,
      "type": "SCALAR",
      "min": [
        0.0
      ],
      "max": [
        1.6
      ]
    },
    {
      "bufferView": 38,
      "componentType": 5126,
      "count": 25,
      "type": "VEC4"
    },
    {
      "bufferView": 39,
      "componentType": 5126,
      "count": 25,
      "type": "SCALAR",
      "min": [
        0.0
      ],
      "max": [
        1.6
      ]
    },
    {
      "bufferView": 40,
      "componentType": 5126,
      "count": 25,
      "type": "VEC3"
    },
    {
      "bufferView": 41,
      "componentType": 5126,
      "count": 25,
      "type": "SCALAR",
      "min": [
        0.0
      ],
      "max": [
        1.6
      ]
    },
    {
      "bufferView": 42,
      "componentType": 5126,
      "count": 25,
      "type": "VEC4"
    },
    {
      "bufferView": 43,
      "componentType": 5126,
      "count": 25,
      "type": "SCALAR",
      "min": [
        0.0
      ],
      "max": [
        1.6
      ]
    },
    {
      "bufferView": 44,
      "componentType": 5126,
      "count": 25,
      "type": "VEC3"
    },
    {
      "bufferView": 45,
      "componentType": 5126,
      "count": 23,
      "type": "SCALAR",
      "min": [
        0.0
      ],
      "max": [
        1.4666666666666666
      ]
    },
    {
      "bufferView": 46,
      "componentType": 5126,
      "count": 23,
      "type": "VEC4"
    },
    {
      "bufferView": 47,
      "componentType": 5126,
      "count": 23,
      "type": "SCALAR",
      "min": [
        0.0
      ],
      "max": [
        1.4666666666666666
      ]
    },
    {
      "bufferView": 48,
      "componentType": 5126,
      "count": 23,
      "type": "VEC3"
    },
    {
      "bufferView": 49,
      "componentType": 5126,
      "count": 23,
      "type": "SCALAR",
      "min": [
        0.0
      ],
      "max": [
        1.4666666666666666
      ]
    },
    {
      "bufferView": 50,
      "componentType": 5126,
      "count": 23,
      "type": "VEC4"
    },
    {
      "bufferView": 51,
      "componentType": 5126,
      "count": 23,
      "type": "SCALAR",
      "min": [
        0.0
      ],
      "max": [
        1.4666666666666666
      ]
    },
    {
      "bufferView": 52,
      "componentType": 5126,
      "count": 23,
      "type": "VEC3"
    },
    {
      "bufferView": 53,
      "componentType": 5126,
      "count": 23,
      "type": "SCALAR",
      "min": [
        0.0
      ],
      "max": [
        1.4666666666666666
      ]
    },
    {
      "bufferView": 54,
      "componentType": 5126,
      "count": 23,
      "type": "VEC4"
    },
    {
      "bufferView": 55,
      "componentType": 5126,
      "count": 23,
      "type": "SCALAR",
      "min": [
        0.0
      ],
      "max": [
        1.4666666666666666
      ]
    },
    {
      "bufferView": 56,
      "componentType": 5126,
      "count": 23,
      "type": "VEC3"
    },
    {
      "bufferView": 57,
      "componentType": 5126,
      "count": 23,
      "type": "SCALAR",
      "min": [
        0.0
      ],
      "max": [
        1.4666666666666666
      ]
    },
    {
      "bufferView": 58,
      "componentType": 5126,
      "count": 23,
      "type": "VEC4"
    },
    {
      "bufferView": 59,
      "componentType": 5126,
      "count": 23,
      "type": "SCALAR",
      "min": [
        0.0
      ],
      "max": [
        1.4666666666666666
      ]
    },
    {
      "bufferView": 60,
      "componentType": 5126,
      "count": 23,
      "type": "VEC3"
    },
    {
      "bufferView": 61,
      "componentType": 5126,
      "count": 23,
      "type": "SCALAR",
      "min": [
        0.0
      ],
      "max": [
        1.4666666666666666
      ]
    },
    {
      "bufferView": 62,
      "componentType": 5126,
      "count": 23,
      "type": "VEC4"
    },
    {
      "bufferView": 63,
      "componentType": 5126,
      "count": 23,
      "type": "SCALAR",
      "min": [
        0.0
      ],
      "max": [
        1.4666666666666666
      ]
    },
    {
      "bufferView": 64,
      "componentType": 5126,
      "count": 23,
      "type": "VEC3"
    },
    {
      "bufferView": 65,
      "componentType": 5126,
      "count": 23,
      "type": "SCALAR",
      "min": [
        0.0
      ],
      "max": [
        1.4666666666666666
      ]
    },
    {
      "bufferView": 66,
      "componentType": 5126,
      "count": 23,
      "type": "VEC4"
    },
    {
      "bufferView": 67,
      "componentType": 5126,
      "count": 23,
      "type": "SCALAR",
      "min": [
        0.0
      ],
      "max": [
        1.4666666666666666
      ]
    },
    {
      "bufferView": 68,
      "componentType": 5126,
      "count": 23,
      "type": "VEC3"
    },
    {
      "bufferView": 69,
      "componentType": 5126,
      "count": 15,
      "type": "SCALAR",
      "min": [
        0.0
      ],
      "max": [
        0.9333333333333333
      ]
    },
    {
      "bufferView": 70,
      "componentType": 5126,
      "count": 15,
      "type": "VEC4"
    },
    {
      "bufferView": 71,
      "componentType": 5126,
      "count": 15,
      "type": "SCALAR",
      "min": [
        0.0
      ],
      "max": [
        0.9333333333333333
      ]
    },
    {
      "bufferView": 72,
      "componentType": 5126,
      "count": 15,
      "type": "VEC3"
    },
    {
      "bufferView": 73,
      "componentType": 5126,
      "count": 15,
      "type": "SCALAR",
      "min": [
        0.0
      ],
      "max": [
        0.9333333333333333
      ]
    },
    {
      "bufferView": 74,
      "componentType": 5126,
      "count": 15,
      "type": "VEC4"
    },
    {
      "bufferView": 75,
      "componentType": 5126,
      "count": 15,
      "type": "SCALAR",
      "min": [
        0.0
      ],
      "max": [
        0.9333333333333333
      ]
    },
    {
      "bufferView": 76,
      "componentType": 5126,
      "count": 15,
      "type": "VEC3"
    },
    {
      "bufferView": 77,
      "componentType": 5126,
      "count": 15,
      "type": "SCALAR",
      "min": [
        0.0
      ],
      "max": [
        0.9333333333333333
      ]
    },
    {
      "bufferView": 78,
      "componentType": 5126,
      "count": 15,
      "type": "VEC4"
    },
    {
      "bufferView": 79,
      "componentType": 5126,
      "count": 15,
      "type": "SCALAR",
      "min": [
        0.0
      ],
      "max": [
        0.9333333333333333
      ]
    },
    {
      "bufferView": 80,
      "componentType": 5126,
      "count": 15,
      "type": "VEC3"
    },
    {
      "bufferView": 81,
      "componentType": 5126,
      "count": 15,
      "type": "SCALAR",
      "min": [
        0.0
      ],
      "max": [
        0.9333333333333333
      ]
    },
    {
      "bufferView": 82,
      "componentType": 5126,
      "count": 15,
      "type": "VEC4"
    },
    {
      "bufferView": 83,
      "componentType": 5126,
      "count": 15,
      "type": "SCALAR",
      "min": [
        0.0
      ],
      "max": [
        0.9333333333333333
      ]
    },
    {
      "bufferView": 84,
      "componentType": 5126,
      "count": 15,
      "type": "VEC3"
    },
    {
      "bufferView": 85,
      "componentType": 5126,
      "count": 15,
      "type": "SCALAR",
      "min": [
        0.0
      ],
      "max": [
        0.9333333333333333
      ]
    },
    {
      "bufferView": 86,
      "componentType": 5126,
      "count": 15,
      "type": "VEC4"
    },
    {
      "bufferView": 87,
      "componentType": 5126,
      "count": 15,
      "type": "SCALAR",
      "min": [
        0.0
      ],
      "max": [
        0.9333333333333333
      ]
    },
    {
      "bufferView": 88,
      "componentType": 5126,
      "count": 15,
      "type": "VEC3"
    },
    {
      "bufferView": 89,
      "componentType": 5126,
      "count": 15,
      "type": "SCALAR",
      "min": [
        0.0
      ],
      "max": [
        0.9333333333333333
      ]
    },
    {
      "bufferView": 90,
      "componentType": 5126,
      "count": 15,
      "type": "VEC4"
    },
    {
      "bufferView": 91,
      "componentType": 5126,
      "count": 15,
      "type": "SCALAR",
      "min": [
        0.0
      ],
      "max": [
        0.9333333333333333
      ]
    },
    {
      "bufferView": 92,
      "componentType": 5126,
      "count": 15,
      "type": "VEC3"
    },
    {
      "bufferView": 93,
      "componentType": 5126,
      "count": 15,
      "type": "SCALAR",
      "min": [
        0.0
      ],
      "max": [
        0.9333333333333333
      ]
    },
    {
      "bufferView": 94,
      "componentType": 5126,
      "count": 15,
      "type": "VEC4"
    },
    {
      "bufferView": 95,
      "componentType": 5126,
      "count": 15,
      "type": "SCALAR",
      "min": [
        0.0
      ],
      "max": [
        0.9333333333333333
      ]
    },
    {
      "bufferView": 96,
      "componentType": 5126,
      "count": 15,
      "type": "VEC3"
    },
    {
      "bufferView": 97,
      "componentType": 5126,
      "count": 15,
      "type": "SCALAR",
      "min": [
        0.0
      ],
      "max": [
        0.9333333333333333
      ]
    },
    {
      "bufferView": 98,
      "componentType": 5126,
      "count": 15,
      "type": "VEC4"
    },
    {
      "bufferView": 99,
      "componentType": 5126,
      "count": 15,
      "type": "SCALAR",
      "min": [
        0.0
      ],
      "max": [
        0.9333333333333333
      ]
    },
    {
      "bufferView": 100,
      "componentType": 5126,
      "count": 15,
      "type": "VEC3"
    },
    {
      "bufferView": 101,
      "componentType": 5126,
      "count": 15,
      "type": "SCALAR",
      "min": [
        0.0
      ],
      "max": [
        0.9333333333333333
      ]
    },
    {
      "bufferView": 102,
      "componentType": 5126,
      "count": 15,
      "type": "VEC4"
    },
    {
      "bufferView": 103,
      "componentType": 5126,
      "count": 15,
      "type": "SCALAR",
      "min": [
        0.0
      ],
      "max": [
        0.9333333333333333
      ]
    },
    {
      "bufferView": 104,
      "componentType": 5126,
      "count": 15,
      "type": "VEC3"
    },
    {
      "bufferView": 105,
      "componentType": 5126,
      "count": 15,
      "type": "SCALAR",
      "min": [
        0.0
      ],
      "max": [
        0.9333333333333333
      ]
    },
    {
      "bufferView": 106,
      "componentType": 5126,
      "count": 15,
      "type": "VEC4"
    },
    {
      "bufferView": 107,
      "componentType": 5126,
      "count": 15,
      "type": "SCALAR",
      "min": [
        0.0
      ],
      "max": [
        0.9333333333333333
      ]
    },
    {
      "bufferView": 108,
      "componentType": 5126,
      "count": 15,
      "type": "VEC3"
    },
    {
      "bufferView": 109,
      "componentType": 5126,
      "count": 15,
      "type": "SCALAR",
      "min": [
        0.0
      ],
      "max": [
        0.9333333333333333
      ]
    },
    {
      "bufferView": 110,
      "componentType": 5126,
      "count": 15,
      "type": "VEC4"
    },
    {
      "bufferView": 111,
      "componentType": 5126,
      "count": 15,
      "type": "SCALAR",
      "min": [
        0.0
      ],
      "max": [
        0.9333333333333333
      ]
    },
    {
      "bufferView": 112,
      "componentType": 5126,
      "count": 15,
      "type": "VEC3"
    },
    {
      "bufferView": 113,
      "componentType": 5126,
      "count": 15,
      "type": "SCALAR",
      "min": [
        0.0
      ],
      "max": [
        0.9333333333333333
      ]
    },
    {
      "bufferView": 114,
      "componentType": 5126,
      "count": 15,
      "type": "VEC4"
    },
    {
      "bufferView": 115,
      "componentType": 5126,
      "count": 15,
      "type": "SCALAR",
      "min": [
        0.0
      ],
      "max": [
        0.9333333333333333
      ]
    },
    {
      "bufferView": 116,
      "componentType": 5126,
      "count": 15,
      "type": "VEC3"
    }
  ],
  "animations": [
    {
      "name": "idle",
      "channels": [
        {
          "sampler": 0,
          "target": {
            "node": 2,
            "path": "rotation"
          }
        },
        {
          "sampler": 1,
          "target": {
            "node": 2,
            "path": "translation"
          }
        },
        {
          "sampler": 2,
          "target": {
            "node": 3,
            "path": "rotation"
          }
        },
        {
          "sampler": 3,
          "target": {
            "node": 3,
            "path": "translation"
          }
        },
        {
          "sampler": 4,
          "target": {
            "node": 4,
            "path": "rotation"
          }
        },
        {
          "sampler": 5,
          "target": {
            "node": 4,
            "path": "translation"
          }
        },
        {
          "sampler": 6,
          "target": {
            "node": 5,
            "path": "rotation"
          }
        },
        {
          "sampler": 7,
          "target": {
            "node": 5,
            "path": "translation"
          }
        },
        {
          "sampler": 8,
          "target": {
            "node": 6,
            "path": "rotation"
          }
        },
        {
          "sampler": 9,
          "target": {
            "node": 6,
            "path": "translation"
          }
        },
        {
          "sampler": 10,
          "target": {
            "node": 7,
            "path": "rotation"
          }
        },
        {
          "sampler": 11,
          "target": {
            "node": 7,
            "path": "translation"
          }
        }
      ],
      "samplers": [
        {
          "input": 21,
          "interpolation": "LINEAR",
          "output": 22
        },
        {
          "input": 23,
          "interpolation": "LINEAR",
          "output": 24
        },
        {
          "input": 25,
          "interpolation": "LINEAR",
          "output": 26
        },
        {
          "input": 27,
          "interpolation": "LINEAR",
          "output": 28
        },
        {
          "input": 29,
          "interpolation": "LINEAR",
          "output": 30
        },
        {
          "input": 31,
          "interpolation": "LINEAR",
          "output": 32
        },
        {
          "input": 33,
          "interpolation": "LINEAR",
          "output": 34
        },
        {
          "input": 35,
          "interpolation": "LINEAR",
          "output": 36
        },
        {
          "input": 37,
          "interpolation": "LINEAR",
          "output": 38
        },
        {
          "input": 39,
          "interpolation": "LINEAR",
          "output": 40
        },
        {
          "input": 41,
          "interpolation": "LINEAR",
          "output": 42
        },
        {
          "input": 43,
          "interpolation": "LINEAR",
          "output": 44
        }
      ]
    },
    {
      "name": "walk",
      "channels": [
        {
          "sampler": 0,
          "target": {
            "node": 2,
            "path": "rotation"
          }
        },
        {
          "sampler": 1,
          "target": {
            "node": 2,
            "path": "translation"
          }
        },
        {
          "sampler": 2,
          "target": {
            "node": 3,
            "path": "rotation"
          }
        },
        {
          "sampler": 3,
          "target": {
            "node": 3,
            "path": "translation"
          }
        },
        {
          "sampler": 4,
          "target": {
            "node": 4,
            "path": "rotation"
          }
        },
        {
          "sampler": 5,
          "target": {
            "node": 4,
            "path": "translation"
          }
        },
        {
          "sampler": 6,
          "target": {
            "node": 5,
            "path": "rotation"
          }
        },
        {
          "sampler": 7,
          "target": {
            "node": 5,
            "path": "translation"
          }
        },
        {
          "sampler": 8,
          "target": {
            "node": 6,
            "path": "rotation"
          }
        },
        {
          "sampler": 9,
          "target": {
            "node": 6,
            "path": "translation"
          }
        },
        {
          "sampler": 10,
          "target": {
            "node": 7,
            "path": "rotation"
          }
        },
        {
          "sampler": 11,
          "target": {
            "node": 7,
            "path": "translation"
          }
        }
      ],
      "samplers": [
        {
          "input": 45,
          "interpolation": "LINEAR",
          "output": 46
        },
        {
          "input": 47,
          "interpolation": "LINEAR",
          "output": 48
        },
        {
          "input": 49,
          "interpolation": "LINEAR",
          "output": 50
        },
        {
          "input": 51,
          "interpolation": "LINEAR",
          "output": 52
        },
        {
          "input": 53,
          "interpolation": "LINEAR",
          "output": 54
        },
        {
          "input": 55,
          "interpolation": "LINEAR",
          "output": 56
        },
        {
          "input": 57,
          "interpolation": "LINEAR",
          "output": 58
        },
        {
          "input": 59,
          "interpolation": "LINEAR",
          "output": 60
        },
        {
          "input": 61,
          "interpolation": "LINEAR",
          "output": 62
        },
        {
          "input": 63,
          "interpolation": "LINEAR",
          "output": 64
        },
        {
          "input": 65,
          "interpolation": "LINEAR",
          "output": 66
        },
        {
          "input": 67,
          "interpolation": "LINEAR",
          "output": 68
        }
      ]
    },
    {
      "name": "run",
      "channels": [
        {
          "sampler": 0,
          "target": {
            "node": 2,
            "path": "rotation"
          }
        },
        {
          "sampler": 1,
          "target": {
            "node": 2,
            "path": "translation"
          }
        },
        {
          "sampler": 2,
          "target": {
            "node": 3,
            "path": "rotation"
          }
        },
        {
          "sampler": 3,
          "target": {
            "node": 3,
            "path": "translation"
          }
        },
        {
          "sampler": 4,
          "target": {
            "node": 4,
            "path": "rotation"
          }
        },
        {
          "sampler": 5,
          "target": {
            "node": 4,
            "path": "translation"
          }
        },
        {
          "sampler": 6,
          "target": {
            "node": 5,
            "path": "rotation"
          }
        },
        {
          "sampler": 7,
          "target": {
            "node": 5,
            "path": "translation"
          }
        },
        {
          "sampler": 8,
          "target": {
            "node": 6,
            "path": "rotation"
          }
        },
        {
          "sampler": 9,
          "target": {
            "node": 6,
            "path": "translation"
          }
        },
        {
          "sampler": 10,
          "target": {
            "node": 7,
            "path": "rotation"
          }
        },
        {
          "sampler": 11,
          "target": {
            "node": 7,
            "path": "translation"
          }
        }
      ],
      "samplers": [
        {
          "input": 69,
          "interpolation": "LINEAR",
          "output": 70
        },
        {
          "input": 71,
          "interpolation": "LINEAR",
          "output": 72
        },
        {
          "input": 73,
          "interpolation": "LINEAR",
          "output": 74
        },
        {
          "input": 75,
          "interpolation": "LINEAR",
          "output": 76
        },
        {
          "input": 77,
          "interpolation": "LINEAR",
          "output": 78
        },
        {
          "input": 79,
          "interpolation": "LINEAR",
          "output": 80
        },
        {
          "input": 81,
          "interpolation": "LINEAR",
          "output": 82
        },
        {
          "input": 83,
          "interpolation": "LINEAR",
          "output": 84
        },
        {
          "input": 85,
          "interpolation": "LINEAR",
          "output": 86
        },
        {
          "input": 87,
          "interpolation": "LINEAR",
          "output": 88
        },
        {
          "input": 89,
          "interpolation": "LINEAR",
          "output": 90
        },
        {
          "input": 91,
          "interpolation": "LINEAR",
          "output": 92
        }
      ]
    },
    {
      "name": "punch",
      "channels": [
        {
          "sampler": 0,
          "target": {
            "node": 2,
            "path": "rotation"
          }
        },
        {
          "sampler": 1,
          "target": {
            "node": 2,
            "path": "translation"
          }
        },
        {
          "sampler": 2,
          "target": {
            "node": 3,
            "path": "rotation"
          }
        },
        {
          "sampler": 3,
          "target": {
            "node": 3,
            "path": "translation"
          }
        },
        {
          "sampler": 4,
          "target": {
            "node": 4,
            "path": "rotation"
          }
        },
        {
          "sampler": 5,
          "target": {
            "node": 4,
            "path": "translation"
          }
        },
        {
          "sampler": 6,
          "target": {
            "node": 5,
            "path": "rotation"
          }
        },
        {
          "sampler": 7,
          "target": {
            "node": 5,
            "path": "translation"
          }
        },
        {
          "sampler": 8,
          "target": {
            "node": 6,
            "path": "rotation"
          }
        },
        {
          "sampler": 9,
          "target": {
            "node": 6,
            "path": "translation"
          }
        },
        {
          "sampler": 10,
          "target": {
            "node": 7,
            "path": "rotation"
          }
        },
        {
          "sampler": 11,
          "target": {
            "node": 7,
            "path": "translation"
          }
        }
      ],
      "samplers": [
        {
          "input": 93,
          "interpolation": "LINEAR",
          "output": 94
        },
        {
          "input": 95,
          "interpolation": "LINEAR",
          "output": 96
        },
        {
          "input": 97,
          "interpolation": "LINEAR",
          "output": 98
        },
        {
          "input": 99,
          "interpolation": "LINEAR",
          "output": 100
        },
        {
          "input": 101,
          "interpolation": "LINEAR",
          "output": 102
        },
        {
          "input": 103,
          "interpolation": "LINEAR",
          "output": 104
        },
        {
          "input": 105,
          "interpolation": "LINEAR",
          "output": 106
        },
        {
          "input": 107,
          "interpolation": "LINEAR",
          "output": 108
        },
        {
          "input": 109,
          "interpolation": "LINEAR",
          "output": 110
        },
        {
          "input": 111,
          "interpolation": "LINEAR",
          "output": 112
        },
        {
          "input": 113,
          "interpolation": "LINEAR",
          "output": 114
        },
        {
          "input": 115,
          "interpolation": "LINEAR",
          "output": 116
        }
      ]
    }
  ]
}