{
  "asset": {
    "version": "2.0",
    "generator": "b3d_export_gltf.py"
  },
  "scene": 0,
  "scenes": [
    {
      "nodes": [
        0
      ]
    }
  ],
  "nodes": [
    {
      "name": "armature",
      "children": [
        9
      ]
    },
    {
      "name": "Cube.003",
      "translation": [
        0.0,
        0.0,
        0.0
      ],
      "rotation": [
        0.0,
        0.0,
        0.0,
        1.0
      ],
      "scale": [
        1.0,
        1.0,
        1.0
      ],
      "children": [
        2,
        3,
        8
      ]
    },
    {
      "name": "Bone",
      "translation": [
        0.0,
        0.06789817180902638,
        0.27503242784785864
      ],
      "rotation": [
        0.0,
        -0.7071067811865476,
        0.7071067811865476,
        0.0
      ],
      "scale": [
        15.31357479095459,
        15.31357479095459,
        15.31357479095459
      ]
    },
    {
      "name": "Bone.001",
      "translation": [
        0.0,
        0.06789817180902638,
        0.27503242784785864
      ],
      "rotation": [
        0.0,
        0.7071067811865476,
        0.7071067811865476,
        0.0
      ],
      "scale": [
        15.31357479095459,
        15.313573837280273,
        15.313573837280273
      ],
      "children": [
        4
      ]
    },
    {
      "name": "Bone.002",
      "translation": [
        -0.0,
        0.035677549733972205,
        -1.608206971747803e-16
      ],
      "rotation": [
        4.440892098500623e-15,
        3.7748943526594276e-08,
        -1.0587911840678747e-22,
        0.9999999999999993
      ],
      "scale": [
        1.0,
        1.0,
        1.0
      ],
      "children": [
        5
      ]
    },
    {
      "name": "Bone.003",
      "translation": [
        1.9171316484467768e-23,
        0.025952214576659374,
        -3.216414710348448e-16
      ],
      "rotation": [
        -5.329070518200748e-15,
        -3.7748943526594276e-08,
        2.7564637758786937e-22,
        0.9999999999999993
      ],
      "scale": [
        1.0,
        1.0,
        1.0
      ],
      "children": [
        6
      ]
    },
    {
      "name": "Bone.004",
      "translation": [
        -2.9281681897712596e-30,
        0.021895208046193024,
        3.8342642110533786e-23
      ],
      "rotation": [
        9.769962616701378e-15,
        3.5527141023169746e-15,
        -2.9187856502442975e-29,
        1.0
      ],
      "scale": [
        1.0,
        1.0,
        1.0
      ],
      "children": [
        7
      ]
    },
    {
      "name": "Bone.005",
      "translation": [
        2.0062817239802785e-32,
        0.016237685404259496,
        -9.649244897898187e-16
      ],
      "rotation": [
        -1.509903313490213e-14,
        -4.235164736271502e-22,
        2.1007908416426754e-31,
        1.0
      ],
      "scale": [
        1.0,
        1.0,
        1.0
      ]
    },
    {
      "name": "Bone.006",
      "translation": [
        -0.05796187846385104,
        -0.39728695400411607,
        0.2817808234356567
      ],
      "rotation": [
        8.422338999834206e-08,
        -0.7048480135576837,
        0.7093583563924324,
        8.3687861072329e-08
      ],
      "scale": [
        15.31357479095459,
        15.313575744628906,
        15.313575744628906
      ]
    },
    {
      "name": "whale",
      "mesh": 0,
      "skin": 0
    }
  ],
  "meshes": [
    {
      "name": "whale",
      "primitives": [
        {
          "attributes": {
            "POSITION": 0,
            "TEXCOORD_0": 1,
            "JOINTS_0": 2,
            "WEIGHTS_0": 3
          },
          "indices": 4,
          "material": 0
        }
      ]
    }
  ],
  "skins": [
    {
      "inverseBindMatrices": 5,
      "joints": [
        1,
        2,
        3,
        4,
        5,
        6,
        7,
        8
      ],
      "skeleton": 1
    }
  ],
  "materials": [
    {
      "name": "body",
      "pbrMetallicRoughness": {
        "baseColorTexture": {
          "index": 0
        },
        "metallicFactor": 0.0,
        "roughnessFactor": 1.0
      },
      "doubleSided": true
    }
  ],
  "textures": [
    {
      "source": 0
    }
  ],
  "images": [
    {
      "uri": "textures/body.png"
    }
  ],
  "buffers": [
    {
      "byteLength": 39512,
      "uri": "model.bin"
    }
  ],
  "bufferViews": [
    {
      "buffer": 0,
      "byteOffset": 0,
      "byteLength": 2880,
      "target": 34962
    },
    {
      "buffer": 0,
      "byteOffset": 2880,
      "byteLength": 1920,
      "target": 34962
    },
    {
      "buffer": 0,
      "byteOffset": 4800,
      "byteLength": 960,
      "target": 34962
    },
    {
      "buffer": 0,
      "byteOffset": 5760,
      "byteLength": 3840,
      "target": 34962
    },
    {
      "buffer": 0,
      "byteOffset": 9600,
      "byteLength": 672,
      "target": 34963
    },
    {
      "buffer": 0,
      "byteOffset": 10272,
      "byteLength": 512
    },
    {
      "buffer": 0,
      "byteOffset": 10784,
      "byteLength": 152
    },
    {
      "buffer": 0,
      "byteOffset": 10936,
      "byteLength": 608
    },
    {
      "buffer": 0,
      "byteOffset": 11544,
      "byteLength": 152
    },
    {
      "buffer": 0,
      "byteOffset": 11696,
      "byteLength": 456
    },
    {
      "buffer": 0,
      "byteOffset": 12152,
      "byteLength": 152
    },
    {
      "buffer": 0,
      "byteOffset": 12304,
      "byteLength": 608
    },
    {
      "buffer": 0,
      "byteOffset": 12912,
      "byteLength": 152
    },
    {
      "buffer": 0,
      "byteOffset": 13064,
      "byteLength": 456
    },
    {
      "buffer": 0,
      "byteOffset": 13520,
      "byteLength": 152
    },
    {
      "buffer": 0,
      "byteOffset": 13672,
      "byteLength": 608
    },
    {
      "buffer": 0,
      "byteOffset": 14280,
      "byteLength": 152
    },
    {
      "buffer": 0,
      "byteOffset": 14432,
      "byteLength": 456
    },
    {
      "buffer": 0,
      "byteOffset": 14888,
      "byteLength": 152
    },
    {
      "buffer": 0,
      "byteOffset": 15040,
      "byteLength": 608
    },
    {
      "buffer": 0,
      "byteOffset": 15648,
      "byteLength": 152
    },
    {
      "buffer": 0,
      "byteOffset": 15800,
      "byteLength": 456
    },
    {
      "buffer": 0,
      "byteOffset": 16256,
      "byteLength": 152
    },
    {
      "buffer": 0,
      "byteOffset": 16408,
      "byteLength": 608
    },
    {
      "buffer": 0,
      "byteOffset": 17016,
      "byteLength": 152
    },
    {
      "buffer": 0,
      "byteOffset": 17168,
      "byteLength": 456
    },
    {
      "buffer": 0,
      "byteOffset": 17624,
      "byteLength": 152
    },
    {
      "buffer": 0,
      "byteOffset": 17776,
      "byteLength": 608
    },
    {
      "buffer": 0,
      "byteOffset": 18384,
      "byteLength": 152
    },
    {
      "buffer": 0,
      "byteOffset": 18536,
      "byteLength": 456
    },
    {
      "buffer": 0,
      "byteOffset": 18992,
      "byteLength": 152
    },
    {
      "buffer": 0,
      "byteOffset": 19144,
      "byteLength": 608
    },
    {
      "buffer": 0,
      "byteOffset": 19752,
      "byteLength": 152
    },
    {
      "buffer": 0,
      "byteOffset": 19904,
      "byteLength": 456
    },
    {
      "buffer": 0,
      "byteOffset": 20360,
      "byteLength": 152
    },
    {
      "buffer": 0,
      "byteOffset": 20512,
      "byteLength": 608
    },
    {
      "buffer": 0,
      "byteOffset": 21120,
      "byteLength": 152
    },
    {
      "buffer": 0,
      "byteOffset": 21272,
      "byteLength": 456
    },
    {
      "buffer": 0,
      "byteOffset": 21728,
      "byteLength": 152
    },
    {
      "buffer": 0,
      "byteOffset": 21880,
      "byteLength": 608
    },
    {
      "buffer": 0,
      "byteOffset": 22488,
      "byteLength": 152
    },
    {
      "buffer": 0,
      "byteOffset": 22640,
      "byteLength": 456
    },
    {
      "buffer": 0,
      "byteOffset": 23096,
      "byteLength": 152
    },
    {
      "buffer": 0,
      "byteOffset": 23248,
      "byteLength": 608
    },
    {
      "buffer": 0,
      "byteOffset": 23856,
      "byteLength": 152
    },
    {
      "buffer": 0,
      "byteOffset": 24008,
      "byteLength": 456
    },
    {
      "buffer": 0,
      "byteOffset": 24464,
      "byteLength": 152
    },
    {
      "buffer": 0,
      "byteOffset": 24616,
      "byteLength": 608
    },
    {
      "buffer": 0,
      "byteOffset": 25224,
      "byteLength": 152
    },
    {
      "buffer": 0,
      "byteOffset": 25376,
      "byteLength": 456
    },
    {
      "buffer": 0,
      "byteOffset": 25832,
      "byteLength": 152
    },
    {
      "buffer": 0,
      "byteOffset": 25984,
      "byteLength": 608
    },
    {
      "buffer": 0,
      "byteOffset": 26592,
      "byteLength": 152
    },
    {
      "buffer": 0,
      "byteOffset": 26744,
      "byteLength": 456
    },
    {
      "buffer": 0,
      "byteOffset": 27200,
      "byteLength": 152
    },
    {
      "buffer": 0,
      "byteOffset": 27352,
      "byteLength": 608
    },
    {
      "buffer": 0,
      "byteOffset": 27960,
      "byteLength": 152
    },
    {
      "buffer": 0,
      "byteOffset": 28112,
      "byteLength": 456
    },
    {
      "buffer": 0,
      "byteOffset": 28568,
      "byteLength": 152
    },
    {
      "buffer": 0,
      "byteOffset": 28720,
      "byteLength": 608
    },
    {
      "buffer": 0,
      "byteOffset": 29328,
      "byteLength": 152
    },
    {
      "buffer": 0,
      "byteOffset": 29480,
      "byteLength": 456
    },
    {
      "buffer": 0,
      "byteOffset": 29936,
      "byteLength": 152
    },
    {
      "buffer": 0,
      "byteOffset": 30088,
      "byteLength": 608
    },
    {
      "buffer": 0,
      "byteOffset": 30696,
      "byteLength": 152
    },
    {
      "buffer": 0,
      "byteOffset": 30848,
      "byteLength": 456
    },
    {
      "buffer": 0,
      "byteOffset": 31304,
      "byteLength": 152
    },
    {
      "buffer": 0,
      "byteOffset": 31456,
      "byteLength": 608
    },
    {
      "buffer": 0,
      "byteOffset": 32064,
      "byteLength": 152
    },
    {
      "buffer": 0,
      "byteOffset": 32216,
      "byteLength": 456
    },
    {
      "buffer": 0,
      "byteOffset": 32672,
      "byteLength": 152
    },
    {
      "buffer": 0,
      "byteOffset": 32824,
      "byteLength": 608
    },
    {
      "buffer": 0,
      "byteOffset": 33432,
      "byteLength": 152
    },
    {
      "buffer": 0,
      "byteOffset": 33584,
      "byteLength": 456
    },
    {
      "buffer": 0,
      "byteOffset": 34040,
      "byteLength": 152
    },
    {
      "buffer": 0,
      "byteOffset": 34192,
      "byteLength": 608
    },
    {
      "buffer": 0,
      "byteOffset": 34800,
      "byteLength": 152
    },
    {
      "buffer": 0,
      "byteOffset": 34952,
      "byteLength": 456
    },
    {
      "buffer": 0,
      "byteOffset": 35408,
      "byteLength": 152
    },
    {
      "buffer": 0,
      "byteOffset": 35560,
      "byteLength": 608
    },
    {
      "buffer": 0,
      "byteOffset": 36168,
      "byteLength": 152
    },
    {
      "buffer": 0,
      "byteOffset": 36320,
      "byteLength": 456
    },
    {
      "buffer": 0,
      "byteOffset": 36776,
      "byteLength": 152
    },
    {
      "buffer": 0,
      "byteOffset": 36928,
      "byteLength": 608
    },
    {
      "buffer": 0,
      "byteOffset": 37536,
      "byteLength": 152
    },
    {
      "buffer": 0,
      "byteOffset": 37688,
      "byteLength": 456
    },
    {
      "buffer": 0,
      "byteOffset": 38144,
      "byteLength": 152
    },
    {
      "buffer": 0,
      "byteOffset": 38296,
      "byteLength": 608
    },
    {
      "buffer": 0,
      "byteOffset": 38904,
      "byteLength": 152
    },
    {
      "buffer": 0,
      "byteOffset": 39056,
      "byteLength": 456
    }
  ],
  "accessors": [
    {
      "bufferView": 0,
      "componentType": 5126,
      "count": 240,
      "type": "VEC3",
      "min": [
        -0.9063491812238228,
        -0.5394294137776119,
        -1.4887814180301424
      ],
      "max": [
        0.9030566070642775,
        0.6605705862223881,
        2.4953685233881986
      ]
    },
    {
      "bufferView": 1,
      "componentType": 5126,
      "count": 240,
      "type": "VEC2"
    },
    {
      "bufferView": 2,
      "componentType": 5121,
      "count": 240,
      "type": "VEC4"
    },
    {
      "bufferView": 3,
      "componentType": 5126,
      "count": 240,
      "type": "VEC4"
    },
    {
      "bufferView": 4,
      "componentType": 5123,
      "count": 336,
      "type": "SCALAR"
    },
    {
      "bufferView": 5,
      "componentType": 5126,
      "count": 8,
      "type": "MAT4"
    },
    {
      "bufferView": 6,
      "componentType": 5126,
      "count": 38,
      "type": "SCALAR",
      "min": [
        0.0
      ],
      "max": [
        7.4
      ]
    },
    {
      "bufferView": 7,
      "componentType": 5126,
      "count": 38,
      "type": "VEC4"
    },
    {
      "bufferView": 8,
      "componentType": 5126,
      "count": 38,
      "type": "SCALAR",
      "min": [
        0.0
      ],
      "max": [
        7.4
      ]
    },
    {
      "bufferView": 9,
      "componentType": 5126,
      "count": 38,
      "type": "VEC3"
    },
    {
      "bufferView": 10,
      "componentType": 5126,
      "count": 38,
      "type": "SCALAR",
      "min": [
        0.0
      ],
      "max": [
        7.4
      ]
    },
    {
      "bufferView": 11,
      "componentType": 5126,
      "count": 38,
      "type": "VEC4"
    },
    {
      "bufferView": 12,
      "componentType": 5126,
      "count": 38,
      "type": "SCALAR",
      "min": [
        0.0
      ],
      "max": [
        7.4
      ]
    },
    {
      "bufferView": 13,
      "componentType": 5126,
      "count": 38,
      "type": "VEC3"
    },
    {
      "bufferView": 14,
      "componentType": 5126,
      "count": 38,
      "type": "SCALAR",
      "min": [
        0.0
      ],
      "max": [
        7.4
      ]
    },
    {
      "bufferView": 15,
      "componentType": 5126,
      "count": 38,
      "type": "VEC4"
    },
    {
      "bufferView": 16,
      "componentType": 5126,
      "count": 38,
      "type": "SCALAR",
      "min": [
        0.0
      ],
      "max": [
        7.4
      ]
    },
    {
      "bufferView": 17,
      "componentType": 5126,
      "count": 38,
      "type": "VEC3"
    },
    {
      "bufferView": 18,
      "componentType": 5126,
      "count": 38,
      "type": "SCALAR",
      "min": [
        0.0
      ],
      "max": [
        7.4
      ]
    },
    {
      "bufferView": 19,
      "componentType": 5126,
      "count": 38,
      "type": "VEC4"
    },
    {
      "bufferView": 20,
      "componentType": 5126,
      "count": 38,
      "type": "SCALAR",
      "min": [
        0.0
      ],
      "max": [
        7.4
      ]
    },
    {
      "bufferView": 21,
      "componentType": 5126,
      "count": 38,
      "type": "VEC3"
    },
    {
      "bufferView": 22,
      "componentType": 5126,
      "count": 38,
      "type": "SCALAR",
      "min": [
        0.0
      ],
      "max": [
        7.4
      ]
    },
    {
      "bufferView": 23,
      "componentType": 5126,
      "count": 38,
      "type": "VEC4"
    },
    {
      "bufferView": 24,
      "componentType": 5126,
      "count": 38,
      "type": "SCALAR",
      "min": [
        0.0
      ],
      "max": [
        7.4
      ]
    },
    {
      "bufferView": 25,
      "componentType": 5126,
      "count": 38,
      "type": "VEC3"
    },
    {
      "bufferView": 26,
      "componentType": 5126,
      "count": 38,
      "type": "SCALAR",
      "min": [
        0.0
      ],
      "max": [
        7.4
      ]
    },
    {
      "bufferView": 27,
      "componentType": 5126,
      "count": 38,
      "type": "VEC4"
    },
    {
      "bufferView": 28,
      "componentType": 5126,
      "count": 38,
      "type": "SCALAR",
      "min": [
        0.0
      ],
      "max": [
        7.4
      ]
    },
    {
      "bufferView": 29,
      "componentType": 5126,
      "count": 38,
      "type": "VEC3"
    },
    {
      "bufferView": 30,
      "componentType": 5126,
      "count": 38,
      "type": "SCALAR",
      "min": [
        0.0
      ],
      "max": [
        7.4
      ]
    },
    {
      "bufferView": 31,
      "componentType": 5126,
      "count": 38,
      "type": "VEC4"
    },
    {
      "bufferView": 32,
      "componentType": 5126,
      "count": 38,
      "type": "SCALAR",
      "min": [
        0.0
      ],
      "max": [
        7.4
      ]
    },
    {
      "bufferView": 33,
      "componentType": 5126,
      "count": 38,
      "type": "VEC3"
    },
    {
      "bufferView": 34,
      "componentType": 5126,
      "count": 38,
      "type": "SCALAR",
      "min": [
        0.0
      ],
      "max": [
        7.4
      ]
    },
    {
      "bufferView": 35,
      "componentType": 5126,
      "count": 38,
      "type": "VEC4"
    },
    {
      "bufferView": 36,
      "componentType": 5126,
      "count": 38,
      "type": "SCALAR",
      "min": [
        0.0
      ],
      "max": [
        7.4
      ]
    },
    {
      "bufferView": 37,
      "componentType": 5126,
      "count": 38,
      "type": "VEC3"
    },
    {
      "bufferView": 38,
      "componentType": 5126,
      "count": 38,
      "type": "SCALAR",
      "min": [
        0.0
      ],
      "max": [
        7.4
      ]
    },
    {
      "bufferView": 39,
      "componentType": 5126,
      "count": 38,
      "type": "VEC4"
    },
    {
      "bufferView": 40,
      "componentType": 5126,
      "count": 38,
      "type": "SCALAR",
      "min": [
        0.0
      ],
      "max": [
        7.4
      ]
    },
    {
      "bufferView": 41,
      "componentType": 5126,
      "count": 38,
      "type": "VEC3"
    },
    {
      "bufferView": 42,
      "componentType": 5126,
      "count": 38,
      "type": "SCALAR",
      "min": [
        0.0
      ],
      "max": [
        7.4
      ]
    },
    {
      "bufferView": 43,
      "componentType": 5126,
      "count": 38,
      "type": "VEC4"
    },
    {
      "bufferView": 44,
      "componentType": 5126,
      "count": 38,
      "type": "SCALAR",
      "min": [
        0.0
      ],
      "max": [
        7.4
      ]
    },
    {
      "bufferView": 45,
      "componentType": 5126,
      "count": 38,
      "type": "VEC3"
    },
    {
      "bufferView": 46,
      "componentType": 5126,
      "count": 38,
      "type": "SCALAR",
      "min": [
        0.0
      ],
      "max": [
        7.4
      ]
    },
    {
      "bufferView": 47,
      "componentType": 5126,
      "count": 38,
      "type": "VEC4"
    },
    {
      "bufferView": 48,
      "componentType": 5126,
      "count": 38,
      "type": "SCALAR",
      "min": [
        0.0
      ],
      "max": [
        7.4
      ]
    },
    {
      "bufferView": 49,
      "componentType": 5126,
      "count": 38,
      "type": "VEC3"
    },
    {
      "bufferView": 50,
      "componentType": 5126,
      "count": 38,
      "type": "SCALAR",
      "min": [
        0.0
      ],
      "max": [
        7.4
      ]
    },
    {
      "bufferView": 51,
      "componentType": 5126,
      "count": 38,
      "type": "VEC4"
    },
    {
      "bufferView": 52,
      "componentType": 5126,
      "count": 38,
      "type": "SCALAR",
      "min": [
        0.0
      ],
      "max": [
        7.4
      ]
    },
    {
      "bufferView": 53,
      "componentType": 5126,
      "count": 38,
      "type": "VEC3"
    },
    {
      "bufferView": 54,
      "componentType": 5126,
      "count": 38,
      "type": "SCALAR",
      "min": [
        0.0
      ],
      "max": [
        7.4
      ]
    },
    {
      "bufferView": 55,
      "componentType": 5126,
      "count": 38,
      "type": "VEC4"
    },
    {
      "bufferView": 56,
      "componentType": 5126,
      "count": 38,
      "type": "SCALAR",
      "min": [
        0.0
      ],
      "max": [
        7.4
      ]
    },
    {
      "bufferView": 57,
      "componentType": 5126,
      "count": 38,
      "type": "VEC3"
    },
    {
      "bufferView": 58,
      "componentType": 5126,
      "count": 38,
      "type": "SCALAR",
      "min": [
        0.0
      ],
      "max": [
        7.4
      ]
    },
    {
      "bufferView": 59,
      "componentType": 5126,
      "count": 38,
      "type": "VEC4"
    },
    {
      "bufferView": 60,
      "componentType": 5126,
      "count": 38,
      "type": "SCALAR",
      "min": [
        0.0
      ],
      "max": [
        7.4
      ]
    },
    {
      "bufferView": 61,
      "componentType": 5126,
      "count": 38,
      "type": "VEC3"
    },
    {
      "bufferView": 62,
      "componentType": 5126,
      "count": 38,
      "type": "SCALAR",
      "min": [
        0.0
      ],
      "max": [
        7.4
      ]
    },
    {
      "bufferView": 63,
      "componentType": 5126,
      "count": 38,
      "type": "VEC4"
    },
    {
      "bufferView": 64,
      "componentType": 5126,
      "count": 38,
      "type": "SCALAR",
      "min": [
        0.0
      ],
      "max": [
        7.4
      ]
    },
    {
      "bufferView": 65,
      "componentType": 5126,
      "count": 38,
      "type": "VEC3"
    },
    {
      "bufferView": 66,
      "componentType": 5126,
      "count": 38,
      "type": "SCALAR",
      "min": [
        0.0
      ],
      "max": [
        7.4
      ]
    },
    {
      "bufferView": 67,
      "componentType": 5126,
      "count": 38,
      "type": "VEC4"
    },
    {
      "bufferView": 68,
      "componentType": 5126,
      "count": 38,
      "type": "SCALAR",
      "min": [
        0.0
      ],
      "max": [
        7.4
      ]
    },
    {
      "bufferView": 69,
      "componentType": 5126,
      "count": 38,
      "type": "VEC3"
    },
    {
      "bufferView": 70,
      "componentType": 5126,
      "count": 38,
      "type": "SCALAR",
      "min": [
        0.0
      ],
      "max": [
        7.4
      ]
    },
    {
      "bufferView": 71,
      "componentType": 5126,
      "count": 38,
      "type": "VEC4"
    },
    {
      "bufferView": 72,
      "componentType": 5126,
      "count": 38,
      "type": "SCALAR",
      "min": [
        0.0
      ],
      "max": [
        7.4
      ]
    },
    {
      "bufferView": 73,
      "componentType": 5126,
      "count": 38,
      "type": "VEC3"
    },
    {
      "bufferView": 74,
      "componentType": 5126,
      "count": 38,
      "type": "SCALAR",
      "min": [
        0.0
      ],
      "max": [
        7.4
      ]
    },
    {
      "bufferView": 75,
      "componentType": 5126,
      "count": 38,
      "type": "VEC4"
    },
    {
      "bufferView": 76,
      "componentType": 5126,
      "count": 38,
      "type": "SCALAR",
      "min": [
        0.0
      ],
      "max": [
        7.4
      ]
    },
    {
      "bufferView": 77,
      "componentType": 5126,
      "count": 38,
      "type": "VEC3"
    },
    {
      "bufferView": 78,
      "componentType": 5126,
      "count": 38,
      "type": "SCALAR",
      "min": [
        0.0
      ],
      "max": [
        7.4
      ]
    },
    {
      "bufferView": 79,
      "componentType": 5126,
      "count": 38,
      "type": "VEC4"
    },
    {
      "bufferView": 80,
      "componentType": 5126,
      "count": 38,
      "type": "SCALAR",
      "min": [
        0.0
      ],
      "max": [
        7.4
      ]
    },
    {
      "bufferView": 81,
      "componentType": 5126,
      "count": 38,
      "type": "VEC3"
    },
    {
      "bufferView": 82,
      "componentType": 5126,
      "count": 38,
      "type": "SCALAR",
      "min": [
        0.0
      ],
      "max": [
        7.4
      ]
    },
    {
      "bufferView": 83,
      "componentType": 5126,
      "count": 38,
      "type": "VEC4"
    },
    {
      "bufferView": 84,
      "componentType": 5126,
      "count": 38,
      "type": "SCALAR",
      "min": [
        0.0
      ],
      "max": [
        7.4
      ]
    },
    {
      "bufferView": 85,
      "componentType": 5126,
      "count": 38,
      "type": "VEC3"
    },
    {
      "bufferView": 86,
      "componentType": 5126,
      "count": 38,
      "type": "SCALAR",
      "min": [
        0.0
      ],
      "max": [
        7.4
      ]
    },
    {
      "bufferView": 87,
      "componentType": 5126,
      "count": 38,
      "type": "VEC4"
    },
    {
      "bufferView": 88,
      "componentType": 5126,
      "count": 38,
      "type": "SCALAR",
      "min": [
        0.0
      ],
      "max": [
        7.4
      ]
    },
    {
      "bufferView": 89,
      "componentType": 5126,
      "count": 38,
      "type": "VEC3"
    }
  ],
  "animations": [
    {
      "name": "idle",
      "channels": [
        {
          "sampler": 0,
          "target": {
            "node": 2,
            "path": "rotation"
          }
        },
        {
          "sampler": 1,
          "target": {
            "node": 2,
            "path": "translation"
          }
        },
        {
          "sampler": 2,
          "target": {
            "node": 3,
            "path": "rotation"
          }
        },
        {
          "sampler": 3,
          "target": {
            "node": 3,
            "path": "translation"
          }
        },
        {
          "sampler": 4,
          "target": {
            "node": 4,
            "path": "rotation"
          }
        },
        {
          "sampler": 5,
          "target": {
            "node": 4,
            "path": "translation"
          }
        },
        {
          "sampler": 6,
          "target": {
            "node": 5,
            "path": "rotation"
          }
        },
        {
          "sampler": 7,
          "target": {
            "node": 5,
            "path": "translation"
          }
        },
        {
          "sampler": 8,
          "target": {
            "node": 6,
            "path": "rotation"
          }
        },
        {
          "sampler": 9,
          "target": {
            "node": 6,
            "path": "translation"
          }
        },
        {
          "sampler": 10,
          "target": {
            "node": 7,
            "path": "rotation"
          }
        },
        {
          "sampler": 11,
          "target": {
            "node": 7,
            "path": "translation"
          }
        },
        {
          "sampler": 12,
          "target": {
            "node": 8,
            "path": "rotation"
          }
        },
        {
          "sampler": 13,
          "target": {
            "node": 8,
            "path": "translation"
          }
        }
      ],
      "samplers": [
        {
          "input": 6,
          "interpolation": "LINEAR",
          "output": 7
        },
        {
          "input": 8,
          "interpolation": "LINEAR",
          "output": 9
        },
        {
          "input": 10,
          "interpolation": "LINEAR",
          "output": 11
        },
        {
          "input": 12,
          "interpolation": "LINEAR",
          "output": 13
        },
        {
          "input": 14,
          "interpolation": "LINEAR",
          "output": 15
        },
        {
          "input": 16,
          "interpolation": "LINEAR",
          "output": 17
        },
        {
          "input": 18,
          "interpolation": "LINEAR",
          "output": 19
        },
        {
          "input": 20,
          "interpolation": "LINEAR",
          "output": 21
        },
        {
          "input": 22,
          "interpolation": "LINEAR",
          "output": 23
        },
        {
          "input": 24,
          "interpolation": "LINEAR",
          "output": 25
        },
        {
          "input": 26,
          "interpolation": "LINEAR",
          "output": 27
        },
        {
          "input": 28,
          "interpolation": "LINEAR",
          "output": 29
        },
        {
          "input": 30,
          "interpolation": "LINEAR",
          "output": 31
        },
        {
          "input": 32,
          "interpolation": "LINEAR",
          "output": 33
        }
      ]
    },
    {
      "name": "walk",
      "channels": [
        {
          "sampler": 0,
          "target": {
            "node": 2,
            "path": "rotation"
          }
        },
        {
          "sampler": 1,
          "target": {
            "node": 2,
            "path": "translation"
          }
        },
        {
          "sampler": 2,
          "target": {
            "node": 3,
            "path": "rotation"
          }
        },
        {
          "sampler": 3,
          "target": {
            "node": 3,
            "path": "translation"
          }
        },
        {
          "sampler": 4,
          "target": {
            "node": 4,
            "path": "rotation"
          }
        },
        {
          "sampler": 5,
          "target": {
            "node": 4,
            "path": "translation"
          }
        },
        {
          "sampler": 6,
          "target": {
            "node": 5,
            "path": "rotation"
          }
        },
        {
          "sampler": 7,
          "target": {
            "node": 5,
            "path": "translation"
          }
        },
        {
          "sampler": 8,
          "target": {
            "node": 6,
            "path": "rotation"
          }
        },
        {
          "sampler": 9,
          "target": {
            "node": 6,
            "path": "translation"
          }
        },
        {
          "sampler": 10,
          "target": {
            "node": 7,
            "path": "rotation"
          }
        },
        {
          "sampler": 11,
          "target": {
            "node": 7,
            "path": "translation"
          }
        },
        {
          "sampler": 12,
          "target": {
            "node": 8,
            "path": "rotation"
          }
        },
        {
          "sampler": 13,
          "target": {
            "node": 8,
            "path": "translation"
          }
        }
      ],
      "samplers": [
        {
          "input": 34,
          "interpolation": "LINEAR",
          "output": 35
        },
        {
          "input": 36,
          "interpolation": "LINEAR",
          "output": 37
        },
        {
          "input": 38,
          "interpolation": "LINEAR",
          "output": 39
        },
        {
          "input": 40,
          "interpolation": "LINEAR",
          "output": 41
        },
        {
          "input": 42,
          "interpolation": "LINEAR",
          "output": 43
        },
        {
          "input": 44,
          "interpolation": "LINEAR",
          "output": 45
        },
        {
          "input": 46,
          "interpolation": "LINEAR",
          "output": 47
        },
        {
          "input": 48,
          "interpolation": "LINEAR",
          "output": 49
        },
        {
          "input": 50,
          "interpolation": "LINEAR",
          "output": 51
        },
        {
          "input": 52,
          "interpolation": "LINEAR",
          "output": 53
        },
        {
          "input": 54,
          "interpolation": "LINEAR",
          "output": 55
        },
        {
          "input": 56,
          "interpolation": "LINEAR",
          "output": 57
        },
        {
          "input": 58,
          "interpolation": "LINEAR",
          "output": 59
        },
        {
          "input": 60,
          "interpolation": "LINEAR",
          "output": 61
        }
      ]
    },
    {
      "name": "run",
      "channels": [
        {
          "sampler": 0,
          "target": {
            "node": 2,
            "path": "rotation"
          }
        },
        {
          "sampler": 1,
          "target": {
            "node": 2,
            "path": "translation"
          }
        },
        {
          "sampler": 2,
          "target": {
            "node": 3,
            "path": "rotation"
          }
        },
        {
          "sampler": 3,
          "target": {
            "node": 3,
            "path": "translation"
          }
        },
        {
          "sampler": 4,
          "target": {
            "node": 4,
            "path": "rotation"
          }
        },
        {
          "sampler": 5,
          "target": {
            "node": 4,
            "path": "translation"
          }
        },
        {
          "sampler": 6,
          "target": {
            "node": 5,
            "path": "rotation"
          }
        },
        {
          "sampler": 7,
          "target": {
            "node": 5,
            "path": "translation"
          }
        },
        {
          "sampler": 8,
          "target": {
            "node": 6,
            "path": "rotation"
          }
        },
        {
          "sampler": 9,
          "target": {
            "node": 6,
            "path": "translation"
          }
        },
        {
          "sampler": 10,
          "target": {
            "node": 7,
            "path": "rotation"
          }
        },
        {
          "sampler": 11,
          "target": {
            "node": 7,
            "path": "translation"
          }
        },
        {
          "sampler": 12,
          "target": {
            "node": 8,
            "path": "rotation"
          }
        },
        {
          "sampler": 13,
          "target": {
            "node": 8,
            "path": "translation"
          }
        }
      ],
      "samplers": [
        {
          "input": 62,
          "interpolation": "LINEAR",
          "output": 63
        },
        {
          "input": 64,
          "interpolation": "LINEAR",
          "output": 65
        },
        {
          "input": 66,
          "interpolation": "LINEAR",
          "output": 67
        },
        {
          "input": 68,
          "interpolation": "LINEAR",
          "output": 69
        },
        {
          "input": 70,
          "interpolation": "LINEAR",
          "output": 71
        },
        {
          "input": 72,
          "interpolation": "LINEAR",
          "output": 73
        },
        {
          "input": 74,
          "interpolation": "LINEAR",
          "output": 75
        },
        {
          "input": 76,
          "interpolation": "LINEAR",
          "output": 77
        },
        {
          "input": 78,
          "interpolation": "LINEAR",
          "output": 79
        },
        {
          "input": 80,
          "interpolation": "LINEAR",
          "output": 81
        },
        {
          "input": 82,
          "interpolation": "LINEAR",
          "output": 83
        },
        {
          "input": 84,
          "interpolation": "LINEAR",
          "output": 85
        },
        {
          "input": 86,
          "interpolation": "LINEAR",
          "output": 87
        },
        {
          "input": 88,
          "interpolation": "LINEAR",
          "output": 89
        }
      ]
    }
  ]
}