{
  "asset": {
    "version": "2.0",
    "generator": "b3d_export_gltf.py"
  },
  "scene": 0,
  "scenes": [
    {
      "nodes": [
        0
      ]
    }
  ],
  "nodes": [
    {
      "name": "armature",
      "children": [
        10
      ]
    },
    {
      "name": "Cube",
      "translation": [
        0.0,
        0.0,
        0.0
      ],
      "rotation": [
        0.0,
        0.0,
        0.0,
        1.0
      ],
      "scale": [
        1.0,
        1.0,
        1.0
      ],
      "children": [
        2
      ]
    },
    {
      "name": "Body",
      "translation": [
        -3.248541702305374e-08,
        0.1,
        -0.3625
      ],
      "rotation": [
        5.338508298721914e-08,
        0.7071067811865455,
        0.7071067811865455,
        5.338508298721914e-08
      ],
      "scale": [
        1.0,
        1.0,
        1.0
      ],
      "children": [
        3,
        5,
        6,
        7,
        8,
        9
      ]
    },
    {
      "name": "Tail_Front",
      "translation": [
        4.529873649516958e-08,
        -1.1723955140041652e-14,
        -0.01875
      ],
      "rotation": [
        0.0,
        0.0,
        1.0,
        0.0
      ],
      "scale": [
        1.0,
        1.0,
        1.0
      ],
      "children": [
        4
      ]
    },
    {
      "name": "Tail_Back",
      "translation": [
        5.684341886080802e-15,
        0.15,
        -0.0
      ],
      "rotation": [
        -0.09853761510413606,
        9.77623870897309e-08,
        -6.471343196278026e-08,
        0.9951333269515072
      ],
      "scale": [
        1.0,
        1.0,
        1.0
      ]
    },
    {
      "name": "Head",
      "translation": [
        -2.842170943040401e-15,
        0.6,
        -0.0
      ],
      "rotation": [
        0.0,
        0.0,
        -7.105427357601002e-15,
        1.0
      ],
      "scale": [
        1.0,
        1.0,
        1.0
      ]
    },
    {
      "name": "Leg_Front_L",
      "translation": [
        0.05625,
        0.45,
        -0.01875
      ],
      "rotation": [
        3.090862113999562e-08,
        0.7071067811865469,
        -0.7071067811865469,
        3.090862113999562e-08
      ],
      "scale": [
        1.0,
        1.0,
        1.0
      ]
    },
    {
      "name": "Leg_Back_R",
      "translation": [
        -0.05625000596046448,
        0.10000001192092896,
        -0.11875
      ],
      "rotation": [
        3.090862113999562e-08,
        0.7071067811865469,
        -0.7071067811865469,
        3.090862113999562e-08
      ],
      "scale": [
        1.0,
        1.0,
        1.0
      ]
    },
    {
      "name": "Leg_Back_L",
      "translation": [
        0.056249994039535525,
        0.09999999403953552,
        -0.11875
      ],
      "rotation": [
        3.090862113999562e-08,
        0.7071067811865469,
        -0.7071067811865469,
        3.090862113999562e-08
      ],
      "scale": [
        1.0,
        1.0,
        1.0
      ]
    },
    {
      "name": "Leg_Front_R",
      "translation": [
        -0.05625,
        0.45,
        -0.01875
      ],
      "rotation": [
        3.090862113999562e-08,
        0.7071067811865469,
        -0.7071067811865469,
        3.090862113999562e-08
      ],
      "scale": [
        1.0,
        1.0,
        1.0
      ]
    },
    {
      "name": "kitten",
      "mesh": 0,
      "skin": 0
    }
  ],
  "meshes": [
    {
      "name": "kitten",
      "primitives": [
        {
          "attributes": {
            "POSITION": 0,
            "TEXCOORD_0": 1,
            "JOINTS_0": 2,
            "WEIGHTS_0": 3
          },
          "indices": 4,
          "material": 0
        },
        {
          "attributes": {
            "POSITION": 5,
            "TEXCOORD_0": 6,
            "JOINTS_0": 7,
            "WEIGHTS_0": 8
          },
          "indices": 9,
          "material": 1
        },
        {
          "attributes": {
            "POSITION": 10,
            "TEXCOORD_0": 11,
            "JOINTS_0": 12,
            "WEIGHTS_0": 13
          },
          "indices": 14,
          "material": 2
        }
      ]
    }
  ],
  "skins": [
    {
      "inverseBindMatrices": 15,
      "joints": [
        1,
        2,
        3,
        4,
        5,
        6,
        7,
        8,
        9
      ],
      "skeleton": 1
    }
  ],
  "materials": [
    {
      "name": "body",
      "pbrMetallicRoughness": {
        "baseColorTexture": {
          "index": 0
        },
        "metallicFactor": 0.0,
        "roughnessFactor": 1.0
      },
      "doubleSided": true
    },
    {
      "name": "face",
      "pbrMetallicRoughness": {
        "baseColorTexture": {
          "index": 1
        },
        "metallicFactor": 0.0,
        "roughnessFactor": 1.0
      },
      "doubleSided": true
    },
    {
      "name": "tail",
      "pbrMetallicRoughness": {
        "baseColorTexture": {
          "index": 2
        },
        "metallicFactor": 0.0,
        "roughnessFactor": 1.0
      },
      "doubleSided": true
    }
  ],
  "textures": [
    {
      "source": 0
    },
    {
      "source": 1
    },
    {
      "source": 2
    }
  ],
  "images": [
    {
      "uri": "textures/body.png"
    },
    {
      "uri": "textures/face.png"
    },
    {
      "uri": "textures/tail.png"
    }
  ],
  "buffers": [
    {
      "byteLength": 96960,
      "uri": "model.bin"
    }
  ],
  "bufferViews": [
    {
      "buffer": 0,
      "byteOffset": 0,
      "byteLength": 2952,
      "target": 34962
    },
    {
      "buffer": 0,
      "byteOffset": 2952,
      "byteLength": 1968,
      "target": 34962
    },
    {
      "buffer": 0,
      "byteOffset": 4920,
      "byteLength": 984,
      "target": 34962
    },
    {
      "buffer": 0,
      "byteOffset": 5904,
      "byteLength": 3936,
      "target": 34962
    },
    {
      "buffer": 0,
      "byteOffset": 9840,
      "byteLength": 720,
      "target": 34963
    },
    {
      "buffer": 0,
      "byteOffset": 10560,
      "byteLength": 84,
      "target": 34962
    },
    {
      "buffer": 0,
      "byteOffset": 10644,
      "byteLength": 56,
      "target": 34962
    },
    {
      "buffer": 0,
      "byteOffset": 10700,
      "byteLength": 28,
      "target": 34962
    },
    {
      "buffer": 0,
      "byteOffset": 10728,
      "byteLength": 112,
      "target": 34962
    },
    {
      "buffer": 0,
      "byteOffset": 10840,
      "byteLength": 18,
      "target": 34963
    },
    {
      "buffer": 0,
      "byteOffset": 10858,
      "byteLength": 564,
      "target": 34962
    },
    {
      "buffer": 0,
      "byteOffset": 11422,
      "byteLength": 376,
      "target": 34962
    },
    {
      "buffer": 0,
      "byteOffset": 11798,
      "byteLength": 188,
      "target": 34962
    },
    {
      "buffer": 0,
      "byteOffset": 11986,
      "byteLength": 752,
      "target": 34962
    },
    {
      "buffer": 0,
      "byteOffset": 12738,
      "byteLength": 126,
      "target": 34963
    },
    {
      "buffer": 0,
      "byteOffset": 12864,
      "byteLength": 576
    },
    {
      "buffer": 0,
      "byteOffset": 13440,
      "byteLength": 384
    },
    {
      "buffer": 0,
      "byteOffset": 13824,
      "byteLength": 1536
    },
    {
      "buffer": 0,
      "byteOffset": 15360,
      "byteLength": 384
    },
    {
      "buffer": 0,
      "byteOffset": 15744,
      "byteLength": 1152
    },
    {
      "buffer": 0,
      "byteOffset": 16896,
      "byteLength": 384
    },
    {
      "buffer": 0,
      "byteOffset": 17280,
      "byteLength": 1536
    },
    {
      "buffer": 0,
      "byteOffset": 18816,
      "byteLength": 384
    },
    {
      "buffer": 0,
      "byteOffset": 19200,
      "byteLength": 1152
    },
    {
      "buffer": 0,
      "byteOffset": 20352,
      "byteLength": 384
    },
    {
      "buffer": 0,
      "byteOffset": 20736,
      "byteLength": 1536
    },
    {
      "buffer": 0,
      "byteOffset": 22272,
      "byteLength": 384
    },
    {
      "buffer": 0,
      "byteOffset": 22656,
      "byteLength": 1152
    },
    {
      "buffer": 0,
      "byteOffset": 23808,
      "byteLength": 384
    },
    {
      "buffer": 0,
      "byteOffset": 24192,
      "byteLength": 1536
    },
    {
      "buffer": 0,
      "byteOffset": 25728,
      "byteLength": 384
    },
    {
      "buffer": 0,
      "byteOffset": 26112,
      "byteLength": 1152
    },
    {
      "buffer": 0,
      "byteOffset": 27264,
      "byteLength": 384
    },
    {
      "buffer": 0,
      "byteOffset": 27648,
      "byteLength": 1536
    },
    {
      "buffer": 0,
      "byteOffset": 29184,
      "byteLength": 384
    },
    {
      "buffer": 0,
      "byteOffset": 29568,
      "byteLength": 1152
    },
    {
      "buffer": 0,
      "byteOffset": 30720,
      "byteLength": 384
    },
    {
      "buffer": 0,
      "byteOffset": 31104,
      "byteLength": 1536
    },
    {
      "buffer": 0,
      "byteOffset": 32640,
      "byteLength": 384
    },
    {
      "buffer": 0,
      "byteOffset": 33024,
      "byteLength": 1152
    },
    {
      "buffer": 0,
      "byteOffset": 34176,
      "byteLength": 384
    },
    {
      "buffer": 0,
      "byteOffset": 34560,
      "byteLength": 1536
    },
    {
      "buffer": 0,
      "byteOffset": 36096,
      "byteLength": 384
    },
    {
      "buffer": 0,
      "byteOffset": 36480,
      "byteLength": 1152
    },
    {
      "buffer": 0,
      "byteOffset": 37632,
      "byteLength": 384
    },
    {
      "buffer": 0,
      "byteOffset": 38016,
      "byteLength": 1536
    },
    {
      "buffer": 0,
      "byteOffset": 39552,
      "byteLength": 384
    },
    {
      "buffer": 0,
      "byteOffset": 39936,
      "byteLength": 1152
    },
    {
      "buffer": 0,
      "byteOffset": 41088,
      "byteLength": 388
    },
    {
      "buffer": 0,
      "byteOffset": 41476,
      "byteLength": 1552
    },
    {
      "buffer": 0,
      "byteOffset": 43028,
      "byteLength": 388
    },
    {
      "buffer": 0,
      "byteOffset": 43416,
      "byteLength": 1164
    },
    {
      "buffer": 0,
      "byteOffset": 44580,
      "byteLength": 388
    },
    {
      "buffer": 0,
      "byteOffset": 44968,
      "byteLength": 1552
    },
    {
      "buffer": 0,
      "byteOffset": 46520,
      "byteLength": 388
    },
    {
      "buffer": 0,
      "byteOffset": 46908,
      "byteLength": 1164
    },
    {
      "buffer": 0,
      "byteOffset": 48072,
      "byteLength": 388
    },
    {
      "buffer": 0,
      "byteOffset": 48460,
      "byteLength": 1552
    },
    {
      "buffer": 0,
      "byteOffset": 50012,
      "byteLength": 388
    },
    {
      "buffer": 0,
      "byteOffset": 50400,
      "byteLength": 1164
    },
    {
      "buffer": 0,
      "byteOffset": 51564,
      "byteLength": 388
    },
    {
      "buffer": 0,
      "byteOffset": 51952,
      "byteLength": 1552
    },
    {
      "buffer": 0,
      "byteOffset": 53504,
      "byteLength": 388
    },
    {
      "buffer": 0,
      "byteOffset": 53892,
      "byteLength": 1164
    },
    {
      "buffer": 0,
      "byteOffset": 55056,
      "byteLength": 388
    },
    {
      "buffer": 0,
      "byteOffset": 55444,
      "byteLength": 1552
    },
    {
      "buffer": 0,
      "byteOffset": 56996,
      "byteLength": 388
    },
    {
      "buffer": 0,
      "byteOffset": 57384,
      "byteLength": 1164
    },
    {
      "buffer": 0,
      "byteOffset": 58548,
      "byteLength": 388
    },
    {
      "buffer": 0,
      "byteOffset": 58936,
      "byteLength": 1552
    },
    {
      "buffer": 0,
      "byteOffset": 60488,
      "byteLength": 388
    },
    {
      "buffer": 0,
      "byteOffset": 60876,
      "byteLength": 1164
    },
    {
      "buffer": 0,
      "byteOffset": 62040,
      "byteLength": 388
    },
    {
      "buffer": 0,
      "byteOffset": 62428,
      "byteLength": 1552
    },
    {
      "buffer": 0,
      "byteOffset": 63980,
      "byteLength": 388
    },
    {
      "buffer": 0,
      "byteOffset": 64368,
      "byteLength": 1164
    },
    {
      "buffer": 0,
      "byteOffset": 65532,
      "byteLength": 388
    },
    {
      "buffer": 0,
      "byteOffset": 65920,
      "byteLength": 1552
    },
    {
      "buffer": 0,
      "byteOffset": 67472,
      "byteLength": 388
    },
    {
      "buffer": 0,
      "byteOffset": 67860,
      "byteLength": 1164
    },
    {
      "buffer": 0,
      "byteOffset": 69024,
      "byteLength": 388
    },
    {
      "buffer": 0,
      "byteOffset": 69412,
      "byteLength": 1552
    },
    {
      "buffer": 0,
      "byteOffset": 70964,
      "byteLength": 388
    },
    {
      "buffer": 0,
      "byteOffset": 71352,
      "byteLength": 1164
    },
    {
      "buffer": 0,
      "byteOffset": 72516,
      "byteLength": 388
    },
    {
      "buffer": 0,
      "byteOffset": 72904,
      "byteLength": 1552
    },
    {
      "buffer": 0,
      "byteOffset": 74456,
      "byteLength": 388
    },
    {
      "buffer": 0,
      "byteOffset": 74844,
      "byteLength": 1164
    },
    {
      "buffer": 0,
      "byteOffset": 76008,
      "byteLength": 388
    },
    {
      "buffer": 0,
      "byteOffset": 76396,
      "byteLength": 1552
    },
    {
      "buffer": 0,
      "byteOffset": 77948,
      "byteLength": 388
    },
    {
      "buffer": 0,
      "byteOffset": 78336,
      "byteLength": 1164
    },
    {
      "buffer": 0,
      "byteOffset": 79500,
      "byteLength": 388
    },
    {
      "buffer": 0,
      "byteOffset": 79888,
      "byteLength": 1552
    },
    {
      "buffer": 0,
      "byteOffset": 81440,
      "byteLength": 388
    },
    {
      "buffer": 0,
      "byteOffset": 81828,
      "byteLength": 1164
    },
    {
      "buffer": 0,
      "byteOffset": 82992,
      "byteLength": 388
    },
    {
      "buffer": 0,
      "byteOffset": 83380,
      "byteLength": 1552
    },
    {
      "buffer": 0,
      "byteOffset": 84932,
      "byteLength": 388
    },
    {
      "buffer": 0,
      "byteOffset": 85320,
      "byteLength": 1164
    },
    {
      "buffer": 0,
      "byteOffset": 86484,
      "byteLength": 388
    },
    {
      "buffer": 0,
      "byteOffset": 86872,
      "byteLength": 1552
    },
    {
      "buffer": 0,
      "byteOffset": 88424,
      "byteLength": 388
    },
    {
      "buffer": 0,
      "byteOffset": 88812,
      "byteLength": 1164
    },
    {
      "buffer": 0,
      "byteOffset": 89976,
      "byteLength": 388
    },
    {
      "buffer": 0,
      "byteOffset": 90364,
      "byteLength": 1552
    },
    {
      "buffer": 0,
      "byteOffset": 91916,
      "byteLength": 388
    },
    {
      "buffer": 0,
      "byteOffset": 92304,
      "byteLength": 1164
    },
    {
      "buffer": 0,
      "byteOffset": 93468,
      "byteLength": 388
    },
    {
      "buffer": 0,
      "byteOffset": 93856,
      "byteLength": 1552
    },
    {
      "buffer": 0,
      "byteOffset": 95408,
      "byteLength": 388
    },
    {
      "buffer": 0,
      "byteOffset": 95796,
      "byteLength": 1164
    }
  ],
  "accessors": [
    {
      "bufferView": 0,
      "componentType": 5126,
      "count": 246,
      "type": "VEC3",
      "min": [
        -0.12499994039535522,
        0.0,
        -0.765021562576294
      ],
      "max": [
        0.12500008344650268,
        0.54375,
        0.499920654296875
      ]
    },
    {
      "bufferView": 1,
      "componentType": 5126,
      "count": 246,
      "type": "VEC2"
    },
    {
      "bufferView": 2,
      "componentType": 5121,
      "count": 246,
      "type": "VEC4"
    },
    {
      "bufferView": 3,
      "componentType": 5126,
      "count": 246,
      "type": "VEC4"
    },
    {
      "bufferView": 4,
      "componentType": 5123,
      "count": 360,
      "type": "SCALAR"
    },
    {
      "bufferView": 5,
      "componentType": 5126,
      "count": 7,
      "type": "VEC3",
      "min": [
        -0.10000003576278686,
        0.19999999999999998,
        -0.36257936954498293
      ],
      "max": [
        0.09999997019767762,
        0.44999999999999996,
        0.2374206781387329
      ]
    },
    {
      "bufferView": 6,
      "componentType": 5126,
      "count": 7,
      "type": "VEC2"
    },
    {
      "bufferView": 7,
      "componentType": 5121,
      "count": 7,
      "type": "VEC4"
    },
    {
      "bufferView": 8,
      "componentType": 5126,
      "count": 7,
      "type": "VEC4"
    },
    {
      "bufferView": 9,
      "componentType": 5123,
      "count": 9,
      "type": "SCALAR"
    },
    {
      "bufferView": 10,
      "componentType": 5126,
      "count": 47,
      "type": "VEC3",
      "min": [
        -0.10625002384185792,
        0.0,
        -0.3125793695449829
      ],
      "max": [
        0.10625004768371582,
        0.39999999999999997,
        0.48742060661315917
      ]
    },
    {
      "bufferView": 11,
      "componentType": 5126,
      "count": 47,
      "type": "VEC2"
    },
    {
      "bufferView": 12,
      "componentType": 5121,
      "count": 47,
      "type": "VEC4"
    },
    {
      "bufferView": 13,
      "componentType": 5126,
      "count": 47,
      "type": "VEC4"
    },
    {
      "bufferView": 14,
      "componentType": 5123,
      "count": 63,
      "type": "SCALAR"
    },
    {
      "bufferView": 15,
      "componentType": 5126,
      "count": 9,
      "type": "MAT4"
    },
    {
      "bufferView": 16,
      "componentType": 5126,
      "count": 96,
      "type": "SCALAR",
      "min": [
        0.0
      ],
      "max": [
        2.261904761904762
      ]
    },
    {
      "bufferView": 17,
      "componentType": 5126,
      "count": 96,
      "type": "VEC4"
    },
    {
      "bufferView": 18,
      "componentType": 5126,
      "count": 96,
      "type": "SCALAR",
      "min": [
        0.0
      ],
      "max": [
        2.261904761904762
      ]
    },
    {
      "bufferView": 19,
      "componentType": 5126,
      "count": 96,
      "type": "VEC3"
    },
    {
      "bufferView": 20,
      "componentType": 5126,
      "count": 96,
      "type": "SCALAR",
      "min": [
        0.0
      ],
      "max": [
        2.261904761904762
      ]
    },
    {
      "bufferView": 21,
      "componentType": 5126,
      "count": 96,
      "type": "VEC4"
    },
    {
      "bufferView": 22,
      "componentType": 5126,
      "count": 96,
      "type": "SCALAR",
      "min": [
        0.0
      ],
      "max": [
        2.261904761904762
      ]
    },
    {
      "bufferView": 23,
      "componentType": 5126,
      "count": 96,
      "type": "VEC3"
    },
    {
      "bufferView": 24,
      "componentType": 5126,
      "count": 96,
      "type": "SCALAR",
      "min": [
        0.0
      ],
      "max": [
        2.261904761904762
      ]
    },
    {
      "bufferView": 25,
      "componentType": 5126,
      "count": 96,
      "type": "VEC4"
    },
    {
      "bufferView": 26,
      "componentType": 5126,
      "count": 96,
      "type": "SCALAR",
      "min": [
        0.0
      ],
      "max": [
        2.261904761904762
      ]
    },
    {
      "bufferView": 27,
      "componentType": 5126,
      "count": 96,
      "type": "VEC3"
    },
    {
      "bufferView": 28,
      "componentType": 5126,
      "count": 96,
      "type": "SCALAR",
      "min": [
        0.0
      ],
      "max": [
        2.261904761904762
      ]
    },
    {
      "bufferView": 29,
      "componentType": 5126,
      "count": 96,
      "type": "VEC4"
    },
    {
      "bufferView": 30,
      "componentType": 5126,
      "count": 96,
      "type": "SCALAR",
      "min": [
        0.0
      ],
      "max": [
        2.261904761904762
      ]
    },
    {
      "bufferView": 31,
      "componentType": 5126,
      "count": 96,
      "type": "VEC3"
    },
    {
      "bufferView": 32,
      "componentType": 5126,
      "count": 96,
      "type": "SCALAR",
      "min": [
        0.0
      ],
      "max": [
        2.261904761904762
      ]
    },
    {
      "bufferView": 33,
      "componentType": 5126,
      "count": 96,
      "type": "VEC4"
    },
    {
      "bufferView": 34,
      "componentType": 5126,
      "count": 96,
      "type": "SCALAR",
      "min": [
        0.0
      ],
      "max": [
        2.261904761904762
      ]
    },
    {
      "bufferView": 35,
      "componentType": 5126,
      "count": 96,
      "type": "VEC3"
    },
    {
      "bufferView": 36,
      "componentType": 5126,
      "count": 96,
      "type": "SCALAR",
      "min": [
        0.0
      ],
      "max": [
        2.261904761904762
      ]
    },
    {
      "bufferView": 37,
      "componentType": 5126,
      "count": 96,
      "type": "VEC4"
    },
    {
      "bufferView": 38,
      "componentType": 5126,
      "count": 96,
      "type": "SCALAR",
      "min": [
        0.0
      ],
      "max": [
        2.261904761904762
      ]
    },
    {
      "bufferView": 39,
      "componentType": 5126,
      "count": 96,
      "type": "VEC3"
    },
    {
      "bufferView": 40,
      "componentType": 5126,
      "count": 96,
      "type": "SCALAR",
      "min": [
        0.0
      ],
      "max": [
        2.261904761904762
      ]
    },
    {
      "bufferView": 41,
      "componentType": 5126,
      "count": 96,
      "type": "VEC4"
    },
    {
      "bufferView": 42,
      "componentType": 5126,
      "count": 96,
      "type": "SCALAR",
      "min": [
        0.0
      ],
      "max": [
        2.261904761904762
      ]
    },
    {
      "bufferView": 43,
      "componentType": 5126,
      "count": 96,
      "type": "VEC3"
    },
    {
      "bufferView": 44,
      "componentType": 5126,
      "count": 96,
      "type": "SCALAR",
      "min": [
        0.0
      ],
      "max": [
        2.261904761904762
      ]
    },
    {
      "bufferView": 45,
      "componentType": 5126,
      "count": 96,
      "type": "VEC4"
    },
    {
      "bufferView": 46,
      "componentType": 5126,
      "count": 96,
      "type": "SCALAR",
      "min": [
        0.0
      ],
      "max": [
        2.261904761904762
      ]
    },
    {
      "bufferView": 47,
      "componentType": 5126,
      "count": 96,
      "type": "VEC3"
    },
    {
      "bufferView": 48,
      "componentType": 5126,
      "count": 97,
      "type": "SCALAR",
      "min": [
        0.0
      ],
      "max": [
        2.2857142857142856
      ]
    },
    {
      "bufferView": 49,
      "componentType": 5126,
      "count": 97,
      "type": "VEC4"
    },
    {
      "bufferView": 50,
      "componentType": 5126,
      "count": 97,
      "type": "SCALAR",
      "min": [
        0.0
      ],
      "max": [
        2.2857142857142856
      ]
    },
    {
      "bufferView": 51,
      "componentType": 5126,
      "count": 97,
      "type": "VEC3"
    },
    {
      "bufferView": 52,
      "componentType": 5126,
      "count": 97,
      "type": "SCALAR",
      "min": [
        0.0
      ],
      "max": [
        2.2857142857142856
      ]
    },
    {
      "bufferView": 53,
      "componentType": 5126,
      "count": 97,
      "type": "VEC4"
    },
    {
      "bufferView": 54,
      "componentType": 5126,
      "count": 97,
      "type": "SCALAR",
      "min": [
        0.0
      ],
      "max": [
        2.2857142857142856
      ]
    },
    {
      "bufferView": 55,
      "componentType": 5126,
      "count": 97,
      "type": "VEC3"
    },
    {
      "bufferView": 56,
      "componentType": 5126,
      "count": 97,
      "type": "SCALAR",
      "min": [
        0.0
      ],
      "max": [
        2.2857142857142856
      ]
    },
    {
      "bufferView": 57,
      "componentType": 5126,
      "count": 97,
      "type": "VEC4"
    },
    {
      "bufferView": 58,
      "componentType": 5126,
      "count": 97,
      "type": "SCALAR",
      "min": [
        0.0
      ],
      "max": [
        2.2857142857142856
      ]
    },
    {
      "bufferView": 59,
      "componentType": 5126,
      "count": 97,
      "type": "VEC3"
    },
    {
      "bufferView": 60,
      "componentType": 5126,
      "count": 97,
      "type": "SCALAR",
      "min": [
        0.0
      ],
      "max": [
        2.2857142857142856
      ]
    },
    {
      "bufferView": 61,
      "componentType": 5126,
      "count": 97,
      "type": "VEC4"
    },
    {
      "bufferView": 62,
      "componentType": 5126,
      "count": 97,
      "type": "SCALAR",
      "min": [
        0.0
      ],
      "max": [
        2.2857142857142856
      ]
    },
    {
      "bufferView": 63,
      "componentType": 5126,
      "count": 97,
      "type": "VEC3"
    },
    {
      "bufferView": 64,
      "componentType": 5126,
      "count": 97,
      "type": "SCALAR",
      "min": [
        0.0
      ],
      "max": [
        2.2857142857142856
      ]
    },
    {
      "bufferView": 65,
      "componentType": 5126,
      "count": 97,
      "type": "VEC4"
    },
    {
      "bufferView": 66,
      "componentType": 5126,
      "count": 97,
      "type": "SCALAR",
      "min": [
        0.0
      ],
      "max": [
        2.2857142857142856
      ]
    },
    {
      "bufferView": 67,
      "componentType": 5126,
      "count": 97,
      "type": "VEC3"
    },
    {
      "bufferView": 68,
      "componentType": 5126,
      "count": 97,
      "type": "SCALAR",
      "min": [
        0.0
      ],
      "max": [
        2.2857142857142856
      ]
    },
    {
      "bufferView": 69,
      "componentType": 5126,
      "count": 97,
      "type": "VEC4"
    },
    {
      "bufferView": 70,
      "componentType": 5126,
      "count": 97,
      "type": "SCALAR",
      "min": [
        0.0
      ],
      "max": [
        2.2857142857142856
      ]
    },
    {
      "bufferView": 71,
      "componentType": 5126,
      "count": 97,
      "type": "VEC3"
    },
    {
      "bufferView": 72,
      "componentType": 5126,
      "count": 97,
      "type": "SCALAR",
      "min": [
        0.0
      ],
      "max": [
        2.2857142857142856
      ]
    },
    {
      "bufferView": 73,
      "componentType": 5126,
      "count": 97,
      "type": "VEC4"
    },
    {
      "bufferView": 74,
      "componentType": 5126,
      "count": 97,
      "type": "SCALAR",
      "min": [
        0.0
      ],
      "max": [
        2.2857142857142856
      ]
    },
    {
      "bufferView": 75,
      "componentType": 5126,
      "count": 97,
      "type": "VEC3"
    },
    {
      "bufferView": 76,
      "componentType": 5126,
      "count": 97,
      "type": "SCALAR",
      "min": [
        0.0
      ],
      "max": [
        2.2857142857142856
      ]
    },
    {
      "bufferView": 77,
      "componentType": 5126,
      "count": 97,
      "type": "VEC4"
    },
    {
      "bufferView": 78,
      "componentType": 5126,
      "count": 97,
      "type": "SCALAR",
      "min": [
        0.0
      ],
      "max": [
        2.2857142857142856
      ]
    },
    {
      "bufferView": 79,
      "componentType": 5126,
      "count": 97,
      "type": "VEC3"
    },
    {
      "bufferView": 80,
      "componentType": 5126,
      "count": 97,
      "type": "SCALAR",
      "min": [
        0.0
      ],
      "max": [
        2.2857142857142856
      ]
    },
    {
      "bufferView": 81,
      "componentType": 5126,
      "count": 97,
      "type": "VEC4"
    },
    {
      "bufferView": 82,
      "componentType": 5126,
      "count": 97,
      "type": "SCALAR",
      "min": [
        0.0
      ],
      "max": [
        2.2857142857142856
      ]
    },
    {
      "bufferView": 83,
      "componentType": 5126,
      "count": 97,
      "type": "VEC3"
    },
    {
      "bufferView": 84,
      "componentType": 5126,
      "count": 97,
      "type": "SCALAR",
      "min": [
        0.0
      ],
      "max": [
        2.2857142857142856
      ]
    },
    {
      "bufferView": 85,
      "componentType": 5126,
      "count": 97,
      "type": "VEC4"
    },
    {
      "bufferView": 86,
      "componentType": 5126,
      "count": 97,
      "type": "SCALAR",
      "min": [
        0.0
      ],
      "max": [
        2.2857142857142856
      ]
    },
    {
      "bufferView": 87,
      "componentType": 5126,
      "count": 97,
      "type": "VEC3"
    },
    {
      "bufferView": 88,
      "componentType": 5126,
      "count": 97,
      "type": "SCALAR",
      "min": [
        0.0
      ],
      "max": [
        2.2857142857142856
      ]
    },
    {
      "bufferView": 89,
      "componentType": 5126,
      "count": 97,
      "type": "VEC4"
    },
    {
      "bufferView": 90,
      "componentType": 5126,
      "count": 97,
      "type": "SCALAR",
      "min": [
        0.0
      ],
      "max": [
        2.2857142857142856
      ]
    },
    {
      "bufferView": 91,
      "componentType": 5126,
      "count": 97,
      "type": "VEC3"
    },
    {
      "bufferView": 92,
      "componentType": 5126,
      "count": 97,
      "type": "SCALAR",
      "min": [
        0.0
      ],
      "max": [
        2.2857142857142856
      ]
    },
    {
      "bufferView": 93,
      "componentType": 5126,
      "count": 97,
      "type": "VEC4"
    },
    {
      "bufferView": 94,
      "componentType": 5126,
      "count": 97,
      "type": "SCALAR",
      "min": [
        0.0
      ],
      "max": [
        2.2857142857142856
      ]
    },
    {
      "bufferView": 95,
      "componentType": 5126,
      "count": 97,
      "type": "VEC3"
    },
    {
      "bufferView": 96,
      "componentType": 5126,
      "count": 97,
      "type": "SCALAR",
      "min": [
        0.0
      ],
      "max": [
        2.2857142857142856
      ]
    },
    {
      "bufferView": 97,
      "componentType": 5126,
      "count": 97,
      "type": "VEC4"
    },
    {
      "bufferView": 98,
      "componentType": 5126,
      "count": 97,
      "type": "SCALAR",
      "min": [
        0.0
      ],
      "max": [
        2.2857142857142856
      ]
    },
    {
      "bufferView": 99,
      "componentType": 5126,
      "count": 97,
      "type": "VEC3"
    },
    {
      "bufferView": 100,
      "componentType": 5126,
      "count": 97,
      "type": "SCALAR",
      "min": [
        0.0
      ],
      "max": [
        2.2857142857142856
      ]
    },
    {
      "bufferView": 101,
      "componentType": 5126,
      "count": 97,
      "type": "VEC4"
    },
    {
      "bufferView": 102,
      "componentType": 5126,
      "count": 97,
      "type": "SCALAR",
      "min": [
        0.0
      ],
      "max": [
        2.2857142857142856
      ]
    },
    {
      "bufferView": 103,
      "componentType": 5126,
      "count": 97,
      "type": "VEC3"
    },
    {
      "bufferView": 104,
      "componentType": 5126,
      "count": 97,
      "type": "SCALAR",
      "min": [
        0.0
      ],
      "max": [
        2.2857142857142856
      ]
    },
    {
      "bufferView": 105,
      "componentType": 5126,
      "count": 97,
      "type": "VEC4"
    },
    {
      "bufferView": 106,
      "componentType": 5126,
      "count": 97,
      "type": "SCALAR",
      "min": [
        0.0
      ],
      "max": [
        2.2857142857142856
      ]
    },
    {
      "bufferView": 107,
      "componentType": 5126,
      "count": 97,
      "type": "VEC3"
    },
    {
      "bufferView": 108,
      "componentType": 5126,
      "count": 97,
      "type": "SCALAR",
      "min": [
        0.0
      ],
      "max": [
        2.2857142857142856
      ]
    },
    {
      "bufferView": 109,
      "componentType": 5126,
      "count": 97,
      "type": "VEC4"
    },
    {
      "bufferView": 110,
      "componentType": 5126,
      "count": 97,
      "type": "SCALAR",
      "min": [
        0.0
      ],
      "max": [
        2.2857142857142856
      ]
    },
    {
      "bufferView": 111,
      "componentType": 5126,
      "count": 97,
      "type": "VEC3"
    }
  ],
  "animations": [
    {
      "name": "idle",
      "channels": [
        {
          "sampler": 0,
          "target": {
            "node": 2,
            "path": "rotation"
          }
        },
        {
          "sampler": 1,
          "target": {
            "node": 2,
            "path": "translation"
          }
        },
        {
          "sampler": 2,
          "target": {
            "node": 3,
            "path": "rotation"
          }
        },
        {
          "sampler": 3,
          "target": {
            "node": 3,
            "path": "translation"
          }
        },
        {
          "sampler": 4,
          "target": {
            "node": 4,
            "path": "rotation"
          }
        },
        {
          "sampler": 5,
          "target": {
            "node": 4,
            "path": "translation"
          }
        },
        {
          "sampler": 6,
          "target": {
            "node": 5,
            "path": "rotation"
          }
        },
        {
          "sampler": 7,
          "target": {
            "node": 5,
            "path": "translation"
          }
        },
        {
          "sampler": 8,
          "target": {
            "node": 6,
            "path": "rotation"
          }
        },
        {
          "sampler": 9,
          "target": {
            "node": 6,
            "path": "translation"
          }
        },
        {
          "sampler": 10,
          "target": {
            "node": 7,
            "path": "rotation"
          }
        },
        {
          "sampler": 11,
          "target": {
            "node": 7,
            "path": "translation"
          }
        },
        {
          "sampler": 12,
          "target": {
            "node": 8,
            "path": "rotation"
          }
        },
        {
          "sampler": 13,
          "target": {
            "node": 8,
            "path": "translation"
          }
        },
        {
          "sampler": 14,
          "target": {
            "node": 9,
            "path": "rotation"
          }
        },
        {
          "sampler": 15,
          "target": {
            "node": 9,
            "path": "translation"
          }
        }
      ],
      "samplers": [
        {
          "input": 16,
          "interpolation": "LINEAR",
          "output": 17
        },
        {
          "input": 18,
          "interpolation": "LINEAR",
          "output": 19
        },
        {
          "input": 20,
          "interpolation": "LINEAR",
          "output": 21
        },
        {
          "input": 22,
          "interpolation": "LINEAR",
          "output": 23
        },
        {
          "input": 24,
          "interpolation": "LINEAR",
          "output": 25
        },
        {
          "input": 26,
          "interpolation": "LINEAR",
          "output": 27
        },
        {
          "input": 28,
          "interpolation": "LINEAR",
          "output": 29
        },
        {
          "input": 30,
          "interpolation": "LINEAR",
          "output": 31
        },
        {
          "input": 32,
          "interpolation": "LINEAR",
          "output": 33
        },
        {
          "input": 34,
          "interpolation": "LINEAR",
          "output": 35
        },
        {
          "input": 36,
          "interpolation": "LINEAR",
          "output": 37
        },
        {
          "input": 38,
          "interpolation": "LINEAR",
          "output": 39
        },
        {
          "input": 40,
          "interpolation": "LINEAR",
          "output": 41
        },
        {
          "input": 42,
          "interpolation": "LINEAR",
          "output": 43
        },
        {
          "input": 44,
          "interpolation": "LINEAR",
          "output": 45
        },
        {
          "input": 46,
          "interpolation": "LINEAR",
          "output": 47
        }
      ]
    },
    {
      "name": "walk",
      "channels": [
        {
          "sampler": 0,
          "target": {
            "node": 2,
            "path": "rotation"
          }
        },
        {
          "sampler": 1,
          "target": {
            "node": 2,
            "path": "translation"
          }
        },
        {
          "sampler": 2,
          "target": {
            "node": 3,
            "path": "rotation"
          }
        },
        {
          "sampler": 3,
          "target": {
            "node": 3,
            "path": "translation"
          }
        },
        {
          "sampler": 4,
          "target": {
            "node": 4,
            "path": "rotation"
          }
        },
        {
          "sampler": 5,
          "target": {
            "node": 4,
            "path": "translation"
          }
        },
        {
          "sampler": 6,
          "target": {
            "node": 5,
            "path": "rotation"
          }
        },
        {
          "sampler": 7,
          "target": {
            "node": 5,
            "path": "translation"
          }
        },
        {
          "sampler": 8,
          "target": {
            "node": 6,
            "path": "rotation"
          }
        },
        {
          "sampler": 9,
          "target": {
            "node": 6,
            "path": "translation"
          }
        },
        {
          "sampler": 10,
          "target": {
            "node": 7,
            "path": "rotation"
          }
        },
        {
          "sampler": 11,
          "target": {
            "node": 7,
            "path": "translation"
          }
        },
        {
          "sampler": 12,
          "target": {
            "node": 8,
            "path": "rotation"
          }
        },
        {
          "sampler": 13,
          "target": {
            "node": 8,
            "path": "translation"
          }
        },
        {
          "sampler": 14,
          "target": {
            "node": 9,
            "path": "rotation"
          }
        },
        {
          "sampler": 15,
          "target": {
            "node": 9,
            "path": "translation"
          }
        }
      ],
      "samplers": [
        {
          "input": 48,
          "interpolation": "LINEAR",
          "output": 49
        },
        {
          "input": 50,
          "interpolation": "LINEAR",
          "output": 51
        },
        {
          "input": 52,
          "interpolation": "LINEAR",
          "output": 53
        },
        {
          "input": 54,
          "interpolation": "LINEAR",
          "output": 55
        },
        {
          "input": 56,
          "interpolation": "LINEAR",
          "output": 57
        },
        {
          "input": 58,
          "interpolation": "LINEAR",
          "output": 59
        },
        {
          "input": 60,
          "interpolation": "LINEAR",
          "output": 61
        },
        {
          "input": 62,
          "interpolation": "LINEAR",
          "output": 63
        },
        {
          "input": 64,
          "interpolation": "LINEAR",
          "output": 65
        },
        {
          "input": 66,
          "interpolation": "LINEAR",
          "output": 67
        },
        {
          "input": 68,
          "interpolation": "LINEAR",
          "output": 69
        },
        {
          "input": 70,
          "interpolation": "LINEAR",
          "output": 71
        },
        {
          "input": 72,
          "interpolation": "LINEAR",
          "output": 73
        },
        {
          "input": 74,
          "interpolation": "LINEAR",
          "output": 75
        },
        {
          "input": 76,
          "interpolation": "LINEAR",
          "output": 77
        },
        {
          "input": 78,
          "interpolation": "LINEAR",
          "output": 79
        }
      ]
    },
    {
      "name": "run",
      "channels": [
        {
          "sampler": 0,
          "target": {
            "node": 2,
            "path": "rotation"
          }
        },
        {
          "sampler": 1,
          "target": {
            "node": 2,
            "path": "translation"
          }
        },
        {
          "sampler": 2,
          "target": {
            "node": 3,
            "path": "rotation"
          }
        },
        {
          "sampler": 3,
          "target": {
            "node": 3,
            "path": "translation"
          }
        },
        {
          "sampler": 4,
          "target": {
            "node": 4,
            "path": "rotation"
          }
        },
        {
          "sampler": 5,
          "target": {
            "node": 4,
            "path": "translation"
          }
        },
        {
          "sampler": 6,
          "target": {
            "node": 5,
            "path": "rotation"
          }
        },
        {
          "sampler": 7,
          "target": {
            "node": 5,
            "path": "translation"
          }
        },
        {
          "sampler": 8,
          "target": {
            "node": 6,
            "path": "rotation"
          }
        },
        {
          "sampler": 9,
          "target": {
            "node": 6,
            "path": "translation"
          }
        },
        {
          "sampler": 10,
          "target": {
            "node": 7,
            "path": "rotation"
          }
        },
        {
          "sampler": 11,
          "target": {
            "node": 7,
            "path": "translation"
          }
        },
        {
          "sampler": 12,
          "target": {
            "node": 8,
            "path": "rotation"
          }
        },
        {
          "sampler": 13,
          "target": {
            "node": 8,
            "path": "translation"
          }
        },
        {
          "sampler": 14,
          "target": {
            "node": 9,
            "path": "rotation"
          }
        },
        {
          "sampler": 15,
          "target": {
            "node": 9,
            "path": "translation"
          }
        }
      ],
      "samplers": [
        {
          "input": 80,
          "interpolation": "LINEAR",
          "output": 81
        },
        {
          "input": 82,
          "interpolation": "LINEAR",
          "output": 83
        },
        {
          "input": 84,
          "interpolation": "LINEAR",
          "output": 85
        },
        {
          "input": 86,
          "interpolation": "LINEAR",
          "output": 87
        },
        {
          "input": 88,
          "interpolation": "LINEAR",
          "output": 89
        },
        {
          "input": 90,
          "interpolation": "LINEAR",
          "output": 91
        },
        {
          "input": 92,
          "interpolation": "LINEAR",
          "output": 93
        },
        {
          "input": 94,
          "interpolation": "LINEAR",
          "output": 95
        },
        {
          "input": 96,
          "interpolation": "LINEAR",
          "output": 97
        },
        {
          "input": 98,
          "interpolation": "LINEAR",
          "output": 99
        },
        {
          "input": 100,
          "interpolation": "LINEAR",
          "output": 101
        },
        {
          "input": 102,
          "interpolation": "LINEAR",
          "output": 103
        },
        {
          "input": 104,
          "interpolation": "LINEAR",
          "output": 105
        },
        {
          "input": 106,
          "interpolation": "LINEAR",
          "output": 107
        },
        {
          "input": 108,
          "interpolation": "LINEAR",
          "output": 109
        },
        {
          "input": 110,
          "interpolation": "LINEAR",
          "output": 111
        }
      ]
    }
  ]
}