{
  "asset": {
    "version": "2.0",
    "generator": "b3d_export_gltf.py"
  },
  "scene": 0,
  "scenes": [
    {
      "nodes": [
        0
      ]
    }
  ],
  "nodes": [
    {
      "name": "armature",
      "children": [
        11
      ]
    },
    {
      "name": "Cube.009",
      "translation": [
        0.0,
        0.0,
        0.0
      ],
      "rotation": [
        0.0,
        0.0,
        0.0,
        1.0
      ],
      "scale": [
        1.0,
        1.0,
        1.0
      ],
      "children": [
        2
      ]
    },
    {
      "name": "Bone",
      "translation": [
        0.0,
        0.09294313788414002,
        0.0
      ],
      "rotation": [
        0.0,
        1.0,
        0.0,
        0.0
      ],
      "scale": [
        1.0,
        1.0,
        1.0
      ],
      "children": [
        3,
        6,
        7,
        8,
        9,
        10
      ]
    },
    {
      "name": "Bone.001",
      "translation": [
        -0.0,
        0.027057427167892455,
        -0.0
      ],
      "rotation": [
        0.4179606389436983,
        0.0,
        0.0,
        0.9084651365318183
      ],
      "scale": [
        1.0,
        1.0,
        1.0
      ],
      "children": [
        4
      ]
    },
    {
      "name": "Bone.002",
      "translation": [
        -0.0,
        0.007064464688301087,
        -3.7252902984619143e-10
      ],
      "rotation": [
        0.34683900889265096,
        0.0,
        0.0,
        0.9379246781647039
      ],
      "scale": [
        1.0,
        1.0,
        1.0
      ],
      "children": [
        5
      ]
    },
    {
      "name": "Bone.003",
      "translation": [
        -0.0,
        0.0056848030537366865,
        -9.879108198163066e-10
      ],
      "rotation": [
        0.1740611803892339,
        1.4673692586849947e-08,
        -2.593713706571369e-09,
        0.9847348401887213
      ],
      "scale": [
        1.0,
        1.0,
        1.0
      ]
    },
    {
      "name": "Bone.005",
      "translation": [
        -0.00939507707953453,
        0.02714669704437256,
        -0.000335613451898098
      ],
      "rotation": [
        -0.7071066619772459,
        0.0,
        0.707106900395829,
        0.0
      ],
      "scale": [
        1.0,
        1.0,
        1.0
      ]
    },
    {
      "name": "Bone.004",
      "translation": [
        0.009627629071474075,
        0.02714669704437256,
        -0.000335613451898098
      ],
      "rotation": [
        -0.7071066619772459,
        0.0,
        0.707106900395829,
        0.0
      ],
      "scale": [
        1.0,
        1.0,
        1.0
      ]
    },
    {
      "name": "Bone.008",
      "translation": [
        0.0036349162459373475,
        -0.004473257064819336,
        -0.008921901136636734
      ],
      "rotation": [
        0.7071067811865476,
        0.0,
        0.0,
        0.7071067811865476
      ],
      "scale": [
        1.0,
        1.0,
        1.0
      ]
    },
    {
      "name": "Bone.006",
      "translation": [
        -0.0,
        -0.0035491853952407835,
        0.004811122268438339
      ],
      "rotation": [
        5.338508298721914e-08,
        0.7071067811865455,
        0.7071067811865455,
        -5.338508298721914e-08
      ],
      "scale": [
        1.0,
        1.0,
        1.0
      ]
    },
    {
      "name": "Bone.007",
      "translation": [
        -0.0036042071878910065,
        -0.004473257064819336,
        -0.008921901136636734
      ],
      "rotation": [
        0.7071067811865476,
        0.0,
        0.0,
        0.7071067811865476
      ],
      "scale": [
        1.0,
        1.0,
        1.0
      ]
    },
    {
      "name": "penguin",
      "mesh": 0,
      "skin": 0
    }
  ],
  "meshes": [
    {
      "name": "penguin",
      "primitives": [
        {
          "attributes": {
            "POSITION": 0,
            "TEXCOORD_0": 1,
            "JOINTS_0": 2,
            "WEIGHTS_0": 3
          },
          "indices": 4,
          "material": 0
        },
        {
          "attributes": {
            "POSITION": 5,
            "TEXCOORD_0": 6,
            "JOINTS_0": 7,
            "WEIGHTS_0": 8
          },
          "indices": 9,
          "material": 1
        },
        {
          "attributes": {
            "POSITION": 10,
            "TEXCOORD_0": 11,
            "JOINTS_0": 12,
            "WEIGHTS_0": 13
          },
          "indices": 14,
          "material": 2
        }
      ]
    }
  ],
  "skins": [
    {
      "inverseBindMatrices": 15,
      "joints": [
        1,
        2,
        3,
        4,
        5,
        6,
        7,
        8,
        9,
        10
      ],
      "skeleton": 1
    }
  ],
  "materials": [
    {
      "name": "body",
      "pbrMetallicRoughness": {
        "baseColorTexture": {
          "index": 0
        },
        "metallicFactor": 0.0,
        "roughnessFactor": 1.0
      },
      "doubleSided": true
    },
    {
      "name": "face",
      "pbrMetallicRoughness": {
        "baseColorTexture": {
          "index": 1
        },
        "metallicFactor": 0.0,
        "roughnessFactor": 1.0
      },
      "doubleSided": true
    },
    {
      "name": "leg",
      "pbrMetallicRoughness": {
        "baseColorTexture": {
          "index": 2
        },
        "metallicFactor": 0.0,
        "roughnessFactor": 1.0
      },
      "doubleSided": true
    }
  ],
  "textures": [
    {
      "source": 0
    },
    {
      "source": 1
    },
    {
      "source": 2
    }
  ],
  "images": [
    {
      "uri": "textures/body.png"
    },
    {
      "uri": "textures/face.png"
    },
    {
      "uri": "textures/leg.png"
    }
  ],
  "buffers": [
    {
      "byteLength": 32056,
      "uri": "model.bin"
    }
  ],
  "bufferViews": [
    {
      "buffer": 0,
      "byteOffset": 0,
      "byteLength": 2448,
      "target": 34962
    },
    {
      "buffer": 0,
      "byteOffset": 2448,
      "byteLength": 1632,
      "target": 34962
    },
    {
      "buffer": 0,
      "byteOffset": 4080,
      "byteLength": 816,
      "target": 34962
    },
    {
      "buffer": 0,
      "byteOffset": 4896,
      "byteLength": 3264,
      "target": 34962
    },
    {
      "buffer": 0,
      "byteOffset": 8160,
      "byteLength": 600,
      "target": 34963
    },
    {
      "buffer": 0,
      "byteOffset": 8760,
      "byteLength": 552,
      "target": 34962
    },
    {
      "buffer": 0,
      "byteOffset": 9312,
      "byteLength": 368,
      "target": 34962
    },
    {
      "buffer": 0,
      "byteOffset": 9680,
      "byteLength": 184,
      "target": 34962
    },
    {
      "buffer": 0,
      "byteOffset": 9864,
      "byteLength": 736,
      "target": 34962
    },
    {
      "buffer": 0,
      "byteOffset": 10600,
      "byteLength": 132,
      "target": 34963
    },
    {
      "buffer": 0,
      "byteOffset": 10732,
      "byteLength": 168,
      "target": 34962
    },
    {
      "buffer": 0,
      "byteOffset": 10900,
      "byteLength": 112,
      "target": 34962
    },
    {
      "buffer": 0,
      "byteOffset": 11012,
      "byteLength": 56,
      "target": 34962
    },
    {
      "buffer": 0,
      "byteOffset": 11068,
      "byteLength": 224,
      "target": 34962
    },
    {
      "buffer": 0,
      "byteOffset": 11292,
      "byteLength": 36,
      "target": 34963
    },
    {
      "buffer": 0,
      "byteOffset": 11328,
      "byteLength": 640
    },
    {
      "buffer": 0,
      "byteOffset": 11968,
      "byteLength": 80
    },
    {
      "buffer": 0,
      "byteOffset": 12048,
      "byteLength": 320
    },
    {
      "buffer": 0,
      "byteOffset": 12368,
      "byteLength": 80
    },
    {
      "buffer": 0,
      "byteOffset": 12448,
      "byteLength": 240
    },
    {
      "buffer": 0,
      "byteOffset": 12688,
      "byteLength": 80
    },
    {
      "buffer": 0,
      "byteOffset": 12768,
      "byteLength": 320
    },
    {
      "buffer": 0,
      "byteOffset": 13088,
      "byteLength": 80
    },
    {
      "buffer": 0,
      "byteOffset": 13168,
      "byteLength": 240
    },
    {
      "buffer": 0,
      "byteOffset": 13408,
      "byteLength": 80
    },
    {
      "buffer": 0,
      "byteOffset": 13488,
      "byteLength": 320
    },
    {
      "buffer": 0,
      "byteOffset": 13808,
      "byteLength": 80
    },
    {
      "buffer": 0,
      "byteOffset": 13888,
      "byteLength": 240
    },
    {
      "buffer": 0,
      "byteOffset": 14128,
      "byteLength": 80
    },
    {
      "buffer": 0,
      "byteOffset": 14208,
      "byteLength": 320
    },
    {
      "buffer": 0,
      "byteOffset": 14528,
      "byteLength": 80
    },
    {
      "buffer": 0,
      "byteOffset": 14608,
      "byteLength": 240
    },
    {
      "buffer": 0,
      "byteOffset": 14848,
      "byteLength": 80
    },
    {
      "buffer": 0,
      "byteOffset": 14928,
      "byteLength": 320
    },
    {
      "buffer": 0,
      "byteOffset": 15248,
      "byteLength": 80
    },
    {
      "buffer": 0,
      "byteOffset": 15328,
      "byteLength": 240
    },
    {
      "buffer": 0,
      "byteOffset": 15568,
      "byteLength": 80
    },
    {
      "buffer": 0,
      "byteOffset": 15648,
      "byteLength": 320
    },
    {
      "buffer": 0,
      "byteOffset": 15968,
      "byteLength": 80
    },
    {
      "buffer": 0,
      "byteOffset": 16048,
      "byteLength": 240
    },
    {
      "buffer": 0,
      "byteOffset": 16288,
      "byteLength": 80
    },
    {
      "buffer": 0,
      "byteOffset": 16368,
      "byteLength": 320
    },
    {
      "buffer": 0,
      "byteOffset": 16688,
      "byteLength": 80
    },
    {
      "buffer": 0,
      "byteOffset": 16768,
      "byteLength": 240
    },
    {
      "buffer": 0,
      "byteOffset": 17008,
      "byteLength": 80
    },
    {
      "buffer": 0,
      "byteOffset": 17088,
      "byteLength": 320
    },
    {
      "buffer": 0,
      "byteOffset": 17408,
      "byteLength": 80
    },
    {
      "buffer": 0,
      "byteOffset": 17488,
      "byteLength": 240
    },
    {
      "buffer": 0,
      "byteOffset": 17728,
      "byteLength": 80
    },
    {
      "buffer": 0,
      "byteOffset": 17808,
      "byteLength": 320
    },
    {
      "buffer": 0,
      "byteOffset": 18128,
      "byteLength": 80
    },
    {
      "buffer": 0,
      "byteOffset": 18208,
      "byteLength": 240
    },
    {
      "buffer": 0,
      "byteOffset": 18448,
      "byteLength": 84
    },
    {
      "buffer": 0,
      "byteOffset": 18532,
      "byteLength": 336
    },
    {
      "buffer": 0,
      "byteOffset": 18868,
      "byteLength": 84
    },
    {
      "buffer": 0,
      "byteOffset": 18952,
      "byteLength": 252
    },
    {
      "buffer": 0,
      "byteOffset": 19204,
      "byteLength": 84
    },
    {
      "buffer": 0,
      "byteOffset": 19288,
      "byteLength": 336
    },
    {
      "buffer": 0,
      "byteOffset": 19624,
      "byteLength": 84
    },
    {
      "buffer": 0,
      "byteOffset": 19708,
      "byteLength": 252
    },
    {
      "buffer": 0,
      "byteOffset": 19960,
      "byteLength": 84
    },
    {
      "buffer": 0,
      "byteOffset": 20044,
      "byteLength": 336
    },
    {
      "buffer": 0,
      "byteOffset": 20380,
      "byteLength": 84
    },
    {
      "buffer": 0,
      "byteOffset": 20464,
      "byteLength": 252
    },
    {
      "buffer": 0,
      "byteOffset": 20716,
      "byteLength": 84
    },
    {
      "buffer": 0,
      "byteOffset": 20800,
      "byteLength": 336
    },
    {
      "buffer": 0,
      "byteOffset": 21136,
      "byteLength": 84
    },
    {
      "buffer": 0,
      "byteOffset": 21220,
      "byteLength": 252
    },
    {
      "buffer": 0,
      "byteOffset": 21472,
      "byteLength": 84
    },
    {
      "buffer": 0,
      "byteOffset": 21556,
      "byteLength": 336
    },
    {
      "buffer": 0,
      "byteOffset": 21892,
      "byteLength": 84
    },
    {
      "buffer": 0,
      "byteOffset": 21976,
      "byteLength": 252
    },
    {
      "buffer": 0,
      "byteOffset": 22228,
      "byteLength": 84
    },
    {
      "buffer": 0,
      "byteOffset": 22312,
      "byteLength": 336
    },
    {
      "buffer": 0,
      "byteOffset": 22648,
      "byteLength": 84
    },
    {
      "buffer": 0,
      "byteOffset": 22732,
      "byteLength": 252
    },
    {
      "buffer": 0,
      "byteOffset": 22984,
      "byteLength": 84
    },
    {
      "buffer": 0,
      "byteOffset": 23068,
      "byteLength": 336
    },
    {
      "buffer": 0,
      "byteOffset": 23404,
      "byteLength": 84
    },
    {
      "buffer": 0,
      "byteOffset": 23488,
      "byteLength": 252
    },
    {
      "buffer": 0,
      "byteOffset": 23740,
      "byteLength": 84
    },
    {
      "buffer": 0,
      "byteOffset": 23824,
      "byteLength": 336
    },
    {
      "buffer": 0,
      "byteOffset": 24160,
      "byteLength": 84
    },
    {
      "buffer": 0,
      "byteOffset": 24244,
      "byteLength": 252
    },
    {
      "buffer": 0,
      "byteOffset": 24496,
      "byteLength": 84
    },
    {
      "buffer": 0,
      "byteOffset": 24580,
      "byteLength": 336
    },
    {
      "buffer": 0,
      "byteOffset": 24916,
      "byteLength": 84
    },
    {
      "buffer": 0,
      "byteOffset": 25000,
      "byteLength": 252
    },
    {
      "buffer": 0,
      "byteOffset": 25252,
      "byteLength": 84
    },
    {
      "buffer": 0,
      "byteOffset": 25336,
      "byteLength": 336
    },
    {
      "buffer": 0,
      "byteOffset": 25672,
      "byteLength": 84
    },
    {
      "buffer": 0,
      "byteOffset": 25756,
      "byteLength": 252
    },
    {
      "buffer": 0,
      "byteOffset": 26008,
      "byteLength": 84
    },
    {
      "buffer": 0,
      "byteOffset": 26092,
      "byteLength": 336
    },
    {
      "buffer": 0,
      "byteOffset": 26428,
      "byteLength": 84
    },
    {
      "buffer": 0,
      "byteOffset": 26512,
      "byteLength": 252
    },
    {
      "buffer": 0,
      "byteOffset": 26764,
      "byteLength": 84
    },
    {
      "buffer": 0,
      "byteOffset": 26848,
      "byteLength": 336
    },
    {
      "buffer": 0,
      "byteOffset": 27184,
      "byteLength": 84
    },
    {
      "buffer": 0,
      "byteOffset": 27268,
      "byteLength": 252
    },
    {
      "buffer": 0,
      "byteOffset": 27520,
      "byteLength": 84
    },
    {
      "buffer": 0,
      "byteOffset": 27604,
      "byteLength": 336
    },
    {
      "buffer": 0,
      "byteOffset": 27940,
      "byteLength": 84
    },
    {
      "buffer": 0,
      "byteOffset": 28024,
      "byteLength": 252
    },
    {
      "buffer": 0,
      "byteOffset": 28276,
      "byteLength": 84
    },
    {
      "buffer": 0,
      "byteOffset": 28360,
      "byteLength": 336
    },
    {
      "buffer": 0,
      "byteOffset": 28696,
      "byteLength": 84
    },
    {
      "buffer": 0,
      "byteOffset": 28780,
      "byteLength": 252
    },
    {
      "buffer": 0,
      "byteOffset": 29032,
      "byteLength": 84
    },
    {
      "buffer": 0,
      "byteOffset": 29116,
      "byteLength": 336
    },
    {
      "buffer": 0,
      "byteOffset": 29452,
      "byteLength": 84
    },
    {
      "buffer": 0,
      "byteOffset": 29536,
      "byteLength": 252
    },
    {
      "buffer": 0,
      "byteOffset": 29788,
      "byteLength": 84
    },
    {
      "buffer": 0,
      "byteOffset": 29872,
      "byteLength": 336
    },
    {
      "buffer": 0,
      "byteOffset": 30208,
      "byteLength": 84
    },
    {
      "buffer": 0,
      "byteOffset": 30292,
      "byteLength": 252
    },
    {
      "buffer": 0,
      "byteOffset": 30544,
      "byteLength": 84
    },
    {
      "buffer": 0,
      "byteOffset": 30628,
      "byteLength": 336
    },
    {
      "buffer": 0,
      "byteOffset": 30964,
      "byteLength": 84
    },
    {
      "buffer": 0,
      "byteOffset": 31048,
      "byteLength": 252
    },
    {
      "buffer": 0,
      "byteOffset": 31300,
      "byteLength": 84
    },
    {
      "buffer": 0,
      "byteOffset": 31384,
      "byteLength": 336
    },
    {
      "buffer": 0,
      "byteOffset": 31720,
      "byteLength": 84
    },
    {
      "buffer": 0,
      "byteOffset": 31804,
      "byteLength": 252
    }
  ],
  "accessors": [
    {
      "bufferView": 0,
      "componentType": 5126,
      "count": 204,
      "type": "VEC3",
      "min": [
        -0.1498338460922241,
        0.0012537598609924316,
        -0.20215518474578859
      ],
      "max": [
        0.1490742564201355,
        0.7012175559997559,
        0.29272027015686036
      ]
    },
    {
      "bufferView": 1,
      "componentType": 5126,
      "count": 204,
      "type": "VEC2"
    },
    {
      "bufferView": 2,
      "componentType": 5121,
      "count": 204,
      "type": "VEC4"
    },
    {
      "bufferView": 3,
      "componentType": 5126,
      "count": 204,
      "type": "VEC4"
    },
    {
      "bufferView": 4,
      "componentType": 5123,
      "count": 300,
      "type": "SCALAR"
    },
    {
      "bufferView": 5,
      "componentType": 5126,
      "count": 46,
      "type": "VEC3",
      "min": [
        -0.18509263992309571,
        0.22972440719604492,
        -0.0641114056110382
      ],
      "max": [
        0.18433305025100707,
        0.5716829299926758,
        0.09973747730255127
      ]
    },
    {
      "bufferView": 6,
      "componentType": 5126,
      "count": 46,
      "type": "VEC2"
    },
    {
      "bufferView": 7,
      "componentType": 5121,
      "count": 46,
      "type": "VEC4"
    },
    {
      "bufferView": 8,
      "componentType": 5126,
      "count": 46,
      "type": "VEC4"
    },
    {
      "bufferView": 9,
      "componentType": 5123,
      "count": 66,
      "type": "SCALAR"
    },
    {
      "bufferView": 10,
      "componentType": 5126,
      "count": 14,
      "type": "VEC3",
      "min": [
        -0.14863371849060059,
        0.003102266788482666,
        -0.10436487197875977
      ],
      "max": [
        0.14863371849060059,
        0.59512300491333,
        0.16777623891830445
      ]
    },
    {
      "bufferView": 11,
      "componentType": 5126,
      "count": 14,
      "type": "VEC2"
    },
    {
      "bufferView": 12,
      "componentType": 5121,
      "count": 14,
      "type": "VEC4"
    },
    {
      "bufferView": 13,
      "componentType": 5126,
      "count": 14,
      "type": "VEC4"
    },
    {
      "bufferView": 14,
      "componentType": 5123,
      "count": 18,
      "type": "SCALAR"
    },
    {
      "bufferView": 15,
      "componentType": 5126,
      "count": 10,
      "type": "MAT4"
    },
    {
      "bufferView": 16,
      "componentType": 5126,
      "count": 20,
      "type": "SCALAR",
      "min": [
        0.0
      ],
      "max": [
        1.2666666666666666
      ]
    },
    {
      "bufferView": 17,
      "componentType": 5126,
      "count": 20,
      "type": "VEC4"
    },
    {
      "bufferView": 18,
      "componentType": 5126,
      "count": 20,
      "type": "SCALAR",
      "min": [
        0.0
      ],
      "max": [
        1.2666666666666666
      ]
    },
    {
      "bufferView": 19,
      "componentType": 5126,
      "count": 20,
      "type": "VEC3"
    },
    {
      "bufferView": 20,
      "componentType": 5126,
      "count": 20,
      "type": "SCALAR",
      "min": [
        0.0
      ],
      "max": [
        1.2666666666666666
      ]
    },
    {
      "bufferView": 21,
      "componentType": 5126,
      "count": 20,
      "type": "VEC4"
    },
    {
      "bufferView": 22,
      "componentType": 5126,
      "count": 20,
      "type": "SCALAR",
      "min": [
        0.0
      ],
      "max": [
        1.2666666666666666
      ]
    },
    {
      "bufferView": 23,
      "componentType": 5126,
      "count": 20,
      "type": "VEC3"
    },
    {
      "bufferView": 24,
      "componentType": 5126,
      "count": 20,
      "type": "SCALAR",
      "min": [
        0.0
      ],
      "max": [
        1.2666666666666666
      ]
    },
    {
      "bufferView": 25,
      "componentType": 5126,
      "count": 20,
      "type": "VEC4"
    },
    {
      "bufferView": 26,
      "componentType": 5126,
      "count": 20,
      "type": "SCALAR",
      "min": [
        0.0
      ],
      "max": [
        1.2666666666666666
      ]
    },
    {
      "bufferView": 27,
      "componentType": 5126,
      "count": 20,
      "type": "VEC3"
    },
    {
      "bufferView": 28,
      "componentType": 5126,
      "count": 20,
      "type": "SCALAR",
      "min": [
        0.0
      ],
      "max": [
        1.2666666666666666
      ]
    },
    {
      "bufferView": 29,
      "componentType": 5126,
      "count": 20,
      "type": "VEC4"
    },
    {
      "bufferView": 30,
      "componentType": 5126,
      "count": 20,
      "type": "SCALAR",
      "min": [
        0.0
      ],
      "max": [
        1.2666666666666666
      ]
    },
    {
      "bufferView": 31,
      "componentType": 5126,
      "count": 20,
      "type": "VEC3"
    },
    {
      "bufferView": 32,
      "componentType": 5126,
      "count": 20,
      "type": "SCALAR",
      "min": [
        0.0
      ],
      "max": [
        1.2666666666666666
      ]
    },
    {
      "bufferView": 33,
      "componentType": 5126,
      "count": 20,
      "type": "VEC4"
    },
    {
      "bufferView": 34,
      "componentType": 5126,
      "count": 20,
      "type": "SCALAR",
      "min": [
        0.0
      ],
      "max": [
        1.2666666666666666
      ]
    },
    {
      "bufferView": 35,
      "componentType": 5126,
      "count": 20,
      "type": "VEC3"
    },
    {
      "bufferView": 36,
      "componentType": 5126,
      "count": 20,
      "type": "SCALAR",
      "min": [
        0.0
      ],
      "max": [
        1.2666666666666666
      ]
    },
    {
      "bufferView": 37,
      "componentType": 5126,
      "count": 20,
      "type": "VEC4"
    },
    {
      "bufferView": 38,
      "componentType": 5126,
      "count": 20,
      "type": "SCALAR",
      "min": [
        0.0
      ],
      "max": [
        1.2666666666666666
      ]
    },
    {
      "bufferView": 39,
      "componentType": 5126,
      "count": 20,
      "type": "VEC3"
    },
    {
      "bufferView": 40,
      "componentType": 5126,
      "count": 20,
      "type": "SCALAR",
      "min": [
        0.0
      ],
      "max": [
        1.2666666666666666
      ]
    },
    {
      "bufferView": 41,
      "componentType": 5126,
      "count": 20,
      "type": "VEC4"
    },
    {
      "bufferView": 42,
      "componentType": 5126,
      "count": 20,
      "type": "SCALAR",
      "min": [
        0.0
      ],
      "max": [
        1.2666666666666666
      ]
    },
    {
      "bufferView": 43,
      "componentType": 5126,
      "count": 20,
      "type": "VEC3"
    },
    {
      "bufferView": 44,
      "componentType": 5126,
      "count": 20,
      "type": "SCALAR",
      "min": [
        0.0
      ],
      "max": [
        1.2666666666666666
      ]
    },
    {
      "bufferView": 45,
      "componentType": 5126,
      "count": 20,
      "type": "VEC4"
    },
    {
      "bufferView": 46,
      "componentType": 5126,
      "count": 20,
      "type": "SCALAR",
      "min": [
        0.0
      ],
      "max": [
        1.2666666666666666
      ]
    },
    {
      "bufferView": 47,
      "componentType": 5126,
      "count": 20,
      "type": "VEC3"
    },
    {
      "bufferView": 48,
      "componentType": 5126,
      "count": 20,
      "type": "SCALAR",
      "min": [
        0.0
      ],
      "max": [
        1.2666666666666666
      ]
    },
    {
      "bufferView": 49,
      "componentType": 5126,
      "count": 20,
      "type": "VEC4"
    },
    {
      "bufferView": 50,
      "componentType": 5126,
      "count": 20,
      "type": "SCALAR",
      "min": [
        0.0
      ],
      "max": [
        1.2666666666666666
      ]
    },
    {
      "bufferView": 51,
      "componentType": 5126,
      "count": 20,
      "type": "VEC3"
    },
    {
      "bufferView": 52,
      "componentType": 5126,
      "count": 21,
      "type": "SCALAR",
      "min": [
        0.0
      ],
      "max": [
        1.3333333333333333
      ]
    },
    {
      "bufferView": 53,
      "componentType": 5126,
      "count": 21,
      "type": "VEC4"
    },
    {
      "bufferView": 54,
      "componentType": 5126,
      "count": 21,
      "type": "SCALAR",
      "min": [
        0.0
      ],
      "max": [
        1.3333333333333333
      ]
    },
    {
      "bufferView": 55,
      "componentType": 5126,
      "count": 21,
      "type": "VEC3"
    },
    {
      "bufferView": 56,
      "componentType": 5126,
      "count": 21,
      "type": "SCALAR",
      "min": [
        0.0
      ],
      "max": [
        1.3333333333333333
      ]
    },
    {
      "bufferView": 57,
      "componentType": 5126,
      "count": 21,
      "type": "VEC4"
    },
    {
      "bufferView": 58,
      "componentType": 5126,
      "count": 21,
      "type": "SCALAR",
      "min": [
        0.0
      ],
      "max": [
        1.3333333333333333
      ]
    },
    {
      "bufferView": 59,
      "componentType": 5126,
      "count": 21,
      "type": "VEC3"
    },
    {
      "bufferView": 60,
      "componentType": 5126,
      "count": 21,
      "type": "SCALAR",
      "min": [
        0.0
      ],
      "max": [
        1.3333333333333333
      ]
    },
    {
      "bufferView": 61,
      "componentType": 5126,
      "count": 21,
      "type": "VEC4"
    },
    {
      "bufferView": 62,
      "componentType": 5126,
      "count": 21,
      "type": "SCALAR",
      "min": [
        0.0
      ],
      "max": [
        1.3333333333333333
      ]
    },
    {
      "bufferView": 63,
      "componentType": 5126,
      "count": 21,
      "type": "VEC3"
    },
    {
      "bufferView": 64,
      "componentType": 5126,
      "count": 21,
      "type": "SCALAR",
      "min": [
        0.0
      ],
      "max": [
        1.3333333333333333
      ]
    },
    {
      "bufferView": 65,
      "componentType": 5126,
      "count": 21,
      "type": "VEC4"
    },
    {
      "bufferView": 66,
      "componentType": 5126,
      "count": 21,
      "type": "SCALAR",
      "min": [
        0.0
      ],
      "max": [
        1.3333333333333333
      ]
    },
    {
      "bufferView": 67,
      "componentType": 5126,
      "count": 21,
      "type": "VEC3"
    },
    {
      "bufferView": 68,
      "componentType": 5126,
      "count": 21,
      "type": "SCALAR",
      "min": [
        0.0
      ],
      "max": [
        1.3333333333333333
      ]
    },
    {
      "bufferView": 69,
      "componentType": 5126,
      "count": 21,
      "type": "VEC4"
    },
    {
      "bufferView": 70,
      "componentType": 5126,
      "count": 21,
      "type": "SCALAR",
      "min": [
        0.0
      ],
      "max": [
        1.3333333333333333
      ]
    },
    {
      "bufferView": 71,
      "componentType": 5126,
      "count": 21,
      "type": "VEC3"
    },
    {
      "bufferView": 72,
      "componentType": 5126,
      "count": 21,
      "type": "SCALAR",
      "min": [
        0.0
      ],
      "max": [
        1.3333333333333333
      ]
    },
    {
      "bufferView": 73,
      "componentType": 5126,
      "count": 21,
      "type": "VEC4"
    },
    {
      "bufferView": 74,
      "componentType": 5126,
      "count": 21,
      "type": "SCALAR",
      "min": [
        0.0
      ],
      "max": [
        1.3333333333333333
      ]
    },
    {
      "bufferView": 75,
      "componentType": 5126,
      "count": 21,
      "type": "VEC3"
    },
    {
      "bufferView": 76,
      "componentType": 5126,
      "count": 21,
      "type": "SCALAR",
      "min": [
        0.0
      ],
      "max": [
        1.3333333333333333
      ]
    },
    {
      "bufferView": 77,
      "componentType": 5126,
      "count": 21,
      "type": "VEC4"
    },
    {
      "bufferView": 78,
      "componentType": 5126,
      "count": 21,
      "type": "SCALAR",
      "min": [
        0.0
      ],
      "max": [
        1.3333333333333333
      ]
    },
    {
      "bufferView": 79,
      "componentType": 5126,
      "count": 21,
      "type": "VEC3"
    },
    {
      "bufferView": 80,
      "componentType": 5126,
      "count": 21,
      "type": "SCALAR",
      "min": [
        0.0
      ],
      "max": [
        1.3333333333333333
      ]
    },
    {
      "bufferView": 81,
      "componentType": 5126,
      "count": 21,
      "type": "VEC4"
    },
    {
      "bufferView": 82,
      "componentType": 5126,
      "count": 21,
      "type": "SCALAR",
      "min": [
        0.0
      ],
      "max": [
        1.3333333333333333
      ]
    },
    {
      "bufferView": 83,
      "componentType": 5126,
      "count": 21,
      "type": "VEC3"
    },
    {
      "bufferView": 84,
      "componentType": 5126,
      "count": 21,
      "type": "SCALAR",
      "min": [
        0.0
      ],
      "max": [
        1.3333333333333333
      ]
    },
    {
      "bufferView": 85,
      "componentType": 5126,
      "count": 21,
      "type": "VEC4"
    },
    {
      "bufferView": 86,
      "componentType": 5126,
      "count": 21,
      "type": "SCALAR",
      "min": [
        0.0
      ],
      "max": [
        1.3333333333333333
      ]
    },
    {
      "bufferView": 87,
      "componentType": 5126,
      "count": 21,
      "type": "VEC3"
    },
    {
      "bufferView": 88,
      "componentType": 5126,
      "count": 21,
      "type": "SCALAR",
      "min": [
        0.0
      ],
      "max": [
        1.3333333333333333
      ]
    },
    {
      "bufferView": 89,
      "componentType": 5126,
      "count": 21,
      "type": "VEC4"
    },
    {
      "bufferView": 90,
      "componentType": 5126,
      "count": 21,
      "type": "SCALAR",
      "min": [
        0.0
      ],
      "max": [
        1.3333333333333333
      ]
    },
    {
      "bufferView": 91,
      "componentType": 5126,
      "count": 21,
      "type": "VEC3"
    },
    {
      "bufferView": 92,
      "componentType": 5126,
      "count": 21,
      "type": "SCALAR",
      "min": [
        0.0
      ],
      "max": [
        1.3333333333333333
      ]
    },
    {
      "bufferView": 93,
      "componentType": 5126,
      "count": 21,
      "type": "VEC4"
    },
    {
      "bufferView": 94,
      "componentType": 5126,
      "count": 21,
      "type": "SCALAR",
      "min": [
        0.0
      ],
      "max": [
        1.3333333333333333
      ]
    },
    {
      "bufferView": 95,
      "componentType": 5126,
      "count": 21,
      "type": "VEC3"
    },
    {
      "bufferView": 96,
      "componentType": 5126,
      "count": 21,
      "type": "SCALAR",
      "min": [
        0.0
      ],
      "max": [
        1.3333333333333333
      ]
    },
    {
      "bufferView": 97,
      "componentType": 5126,
      "count": 21,
      "type": "VEC4"
    },
    {
      "bufferView": 98,
      "componentType": 5126,
      "count": 21,
      "type": "SCALAR",
      "min": [
        0.0
      ],
      "max": [
        1.3333333333333333
      ]
    },
    {
      "bufferView": 99,
      "componentType": 5126,
      "count": 21,
      "type": "VEC3"
    },
    {
      "bufferView": 100,
      "componentType": 5126,
      "count": 21,
      "type": "SCALAR",
      "min": [
        0.0
      ],
      "max": [
        1.3333333333333333
      ]
    },
    {
      "bufferView": 101,
      "componentType": 5126,
      "count": 21,
      "type": "VEC4"
    },
    {
      "bufferView": 102,
      "componentType": 5126,
      "count": 21,
      "type": "SCALAR",
      "min": [
        0.0
      ],
      "max": [
        1.3333333333333333
      ]
    },
    {
      "bufferView": 103,
      "componentType": 5126,
      "count": 21,
      "type": "VEC3"
    },
    {
      "bufferView": 104,
      "componentType": 5126,
      "count": 21,
      "type": "SCALAR",
      "min": [
        0.0
      ],
      "max": [
        1.3333333333333333
      ]
    },
    {
      "bufferView": 105,
      "componentType": 5126,
      "count": 21,
      "type": "VEC4"
    },
    {
      "bufferView": 106,
      "componentType": 5126,
      "count": 21,
      "type": "SCALAR",
      "min": [
        0.0
      ],
      "max": [
        1.3333333333333333
      ]
    },
    {
      "bufferView": 107,
      "componentType": 5126,
      "count": 21,
      "type": "VEC3"
    },
    {
      "bufferView": 108,
      "componentType": 5126,
      "count": 21,
      "type": "SCALAR",
      "min": [
        0.0
      ],
      "max": [
        1.3333333333333333
      ]
    },
    {
      "bufferView": 109,
      "componentType": 5126,
      "count": 21,
      "type": "VEC4"
    },
    {
      "bufferView": 110,
      "componentType": 5126,
      "count": 21,
      "type": "SCALAR",
      "min": [
        0.0
      ],
      "max": [
        1.3333333333333333
      ]
    },
    {
      "bufferView": 111,
      "componentType": 5126,
      "count": 21,
      "type": "VEC3"
    },
    {
      "bufferView": 112,
      "componentType": 5126,
      "count": 21,
      "type": "SCALAR",
      "min": [
        0.0
      ],
      "max": [
        1.3333333333333333
      ]
    },
    {
      "bufferView": 113,
      "componentType": 5126,
      "count": 21,
      "type": "VEC4"
    },
    {
      "bufferView": 114,
      "componentType": 5126,
      "count": 21,
      "type": "SCALAR",
      "min": [
        0.0
      ],
      "max": [
        1.3333333333333333
      ]
    },
    {
      "bufferView": 115,
      "componentType": 5126,
      "count": 21,
      "type": "VEC3"
    },
    {
      "bufferView": 116,
      "componentType": 5126,
      "count": 21,
      "type": "SCALAR",
      "min": [
        0.0
      ],
      "max": [
        1.3333333333333333
      ]
    },
    {
      "bufferView": 117,
      "componentType": 5126,
      "count": 21,
      "type": "VEC4"
    },
    {
      "bufferView": 118,
      "componentType": 5126,
      "count": 21,
      "type": "SCALAR",
      "min": [
        0.0
      ],
      "max": [
        1.3333333333333333
      ]
    },
    {
      "bufferView": 119,
      "componentType": 5126,
      "count": 21,
      "type": "VEC3"
    },
    {
      "bufferView": 120,
      "componentType": 5126,
      "count": 21,
      "type": "SCALAR",
      "min": [
        0.0
      ],
      "max": [
        1.3333333333333333
      ]
    },
    {
      "bufferView": 121,
      "componentType": 5126,
      "count": 21,
      "type": "VEC4"
    },
    {
      "bufferView": 122,
      "componentType": 5126,
      "count": 21,
      "type": "SCALAR",
      "min": [
        0.0
      ],
      "max": [
        1.3333333333333333
      ]
    },
    {
      "bufferView": 123,
      "componentType": 5126,
      "count": 21,
      "type": "VEC3"
    }
  ],
  "animations": [
    {
      "name": "idle",
      "channels": [
        {
          "sampler": 0,
          "target": {
            "node": 2,
            "path": "rotation"
          }
        },
        {
          "sampler": 1,
          "target": {
            "node": 2,
            "path": "translation"
          }
        },
        {
          "sampler": 2,
          "target": {
            "node": 3,
            "path": "rotation"
          }
        },
        {
          "sampler": 3,
          "target": {
            "node": 3,
            "path": "translation"
          }
        },
        {
          "sampler": 4,
          "target": {
            "node": 4,
            "path": "rotation"
          }
        },
        {
          "sampler": 5,
          "target": {
            "node": 4,
            "path": "translation"
          }
        },
        {
          "sampler": 6,
          "target": {
            "node": 5,
            "path": "rotation"
          }
        },
        {
          "sampler": 7,
          "target": {
            "node": 5,
            "path": "translation"
          }
        },
        {
          "sampler": 8,
          "target": {
            "node": 6,
            "path": "rotation"
          }
        },
        {
          "sampler": 9,
          "target": {
            "node": 6,
            "path": "translation"
          }
        },
        {
          "sampler": 10,
          "target": {
            "node": 7,
            "path": "rotation"
          }
        },
        {
          "sampler": 11,
          "target": {
            "node": 7,
            "path": "translation"
          }
        },
        {
          "sampler": 12,
          "target": {
            "node": 8,
            "path": "rotation"
          }
        },
        {
          "sampler": 13,
          "target": {
            "node": 8,
            "path": "translation"
          }
        },
        {
          "sampler": 14,
          "target": {
            "node": 9,
            "path": "rotation"
          }
        },
        {
          "sampler": 15,
          "target": {
            "node": 9,
            "path": "translation"
          }
        },
        {
          "sampler": 16,
          "target": {
            "node": 10,
            "path": "rotation"
          }
        },
        {
          "sampler": 17,
          "target": {
            "node": 10,
            "path": "translation"
          }
        }
      ],
      "samplers": [
        {
          "input": 16,
          "interpolation": "LINEAR",
          "output": 17
        },
        {
          "input": 18,
          "interpolation": "LINEAR",
          "output": 19
        },
        {
          "input": 20,
          "interpolation": "LINEAR",
          "output": 21
        },
        {
          "input": 22,
          "interpolation": "LINEAR",
          "output": 23
        },
        {
          "input": 24,
          "interpolation": "LINEAR",
          "output": 25
        },
        {
          "input": 26,
          "interpolation": "LINEAR",
          "output": 27
        },
        {
          "input": 28,
          "interpolation": "LINEAR",
          "output": 29
        },
        {
          "input": 30,
          "interpolation": "LINEAR",
          "output": 31
        },
        {
          "input": 32,
          "interpolation": "LINEAR",
          "output": 33
        },
        {
          "input": 34,
          "interpolation": "LINEAR",
          "output": 35
        },
        {
          "input": 36,
          "interpolation": "LINEAR",
          "output": 37
        },
        {
          "input": 38,
          "interpolation": "LINEAR",
          "output": 39
        },
        {
          "input": 40,
          "interpolation": "LINEAR",
          "output": 41
        },
        {
          "input": 42,
          "interpolation": "LINEAR",
          "output": 43
        },
        {
          "input": 44,
          "interpolation": "LINEAR",
          "output": 45
        },
        {
          "input": 46,
          "interpolation": "LINEAR",
          "output": 47
        },
        {
          "input": 48,
          "interpolation": "LINEAR",
          "output": 49
        },
        {
          "input": 50,
          "interpolation": "LINEAR",
          "output": 51
        }
      ]
    },
    {
      "name": "walk",
      "channels": [
        {
          "sampler": 0,
          "target": {
            "node": 2,
            "path": "rotation"
          }
        },
        {
          "sampler": 1,
          "target": {
            "node": 2,
            "path": "translation"
          }
        },
        {
          "sampler": 2,
          "target": {
            "node": 3,
            "path": "rotation"
          }
        },
        {
          "sampler": 3,
          "target": {
            "node": 3,
            "path": "translation"
          }
        },
        {
          "sampler": 4,
          "target": {
            "node": 4,
            "path": "rotation"
          }
        },
        {
          "sampler": 5,
          "target": {
            "node": 4,
            "path": "translation"
          }
        },
        {
          "sampler": 6,
          "target": {
            "node": 5,
            "path": "rotation"
          }
        },
        {
          "sampler": 7,
          "target": {
            "node": 5,
            "path": "translation"
          }
        },
        {
          "sampler": 8,
          "target": {
            "node": 6,
            "path": "rotation"
          }
        },
        {
          "sampler": 9,
          "target": {
            "node": 6,
            "path": "translation"
          }
        },
        {
          "sampler": 10,
          "target": {
            "node": 7,
            "path": "rotation"
          }
        },
        {
          "sampler": 11,
          "target": {
            "node": 7,
            "path": "translation"
          }
        },
        {
          "sampler": 12,
          "target": {
            "node": 8,
            "path": "rotation"
          }
        },
        {
          "sampler": 13,
          "target": {
            "node": 8,
            "path": "translation"
          }
        },
        {
          "sampler": 14,
          "target": {
            "node": 9,
            "path": "rotation"
          }
        },
        {
          "sampler": 15,
          "target": {
            "node": 9,
            "path": "translation"
          }
        },
        {
          "sampler": 16,
          "target": {
            "node": 10,
            "path": "rotation"
          }
        },
        {
          "sampler": 17,
          "target": {
            "node": 10,
            "path": "translation"
          }
        }
      ],
      "samplers": [
        {
          "input": 52,
          "interpolation": "LINEAR",
          "output": 53
        },
        {
          "input": 54,
          "interpolation": "LINEAR",
          "output": 55
        },
        {
          "input": 56,
          "interpolation": "LINEAR",
          "output": 57
        },
        {
          "input": 58,
          "interpolation": "LINEAR",
          "output": 59
        },
        {
          "input": 60,
          "interpolation": "LINEAR",
          "output": 61
        },
        {
          "input": 62,
          "interpolation": "LINEAR",
          "output": 63
        },
        {
          "input": 64,
          "interpolation": "LINEAR",
          "output": 65
        },
        {
          "input": 66,
          "interpolation": "LINEAR",
          "output": 67
        },
        {
          "input": 68,
          "interpolation": "LINEAR",
          "output": 69
        },
        {
          "input": 70,
          "interpolation": "LINEAR",
          "output": 71
        },
        {
          "input": 72,
          "interpolation": "LINEAR",
          "output": 73
        },
        {
          "input": 74,
          "interpolation": "LINEAR",
          "output": 75
        },
        {
          "input": 76,
          "interpolation": "LINEAR",
          "output": 77
        },
        {
          "input": 78,
          "interpolation": "LINEAR",
          "output": 79
        },
        {
          "input": 80,
          "interpolation": "LINEAR",
          "output": 81
        },
        {
          "input": 82,
          "interpolation": "LINEAR",
          "output": 83
        },
        {
          "input": 84,
          "interpolation": "LINEAR",
          "output": 85
        },
        {
          "input": 86,
          "interpolation": "LINEAR",
          "output": 87
        }
      ]
    },
    {
      "name": "fly",
      "channels": [
        {
          "sampler": 0,
          "target": {
            "node": 2,
            "path": "rotation"
          }
        },
        {
          "sampler": 1,
          "target": {
            "node": 2,
            "path": "translation"
          }
        },
        {
          "sampler": 2,
          "target": {
            "node": 3,
            "path": "rotation"
          }
        },
        {
          "sampler": 3,
          "target": {
            "node": 3,
            "path": "translation"
          }
        },
        {
          "sampler": 4,
          "target": {
            "node": 4,
            "path": "rotation"
          }
        },
        {
          "sampler": 5,
          "target": {
            "node": 4,
            "path": "translation"
          }
        },
        {
          "sampler": 6,
          "target": {
            "node": 5,
            "path": "rotation"
          }
        },
        {
          "sampler": 7,
          "target": {
            "node": 5,
            "path": "translation"
          }
        },
        {
          "sampler": 8,
          "target": {
            "node": 6,
            "path": "rotation"
          }
        },
        {
          "sampler": 9,
          "target": {
            "node": 6,
            "path": "translation"
          }
        },
        {
          "sampler": 10,
          "target": {
            "node": 7,
            "path": "rotation"
          }
        },
        {
          "sampler": 11,
          "target": {
            "node": 7,
            "path": "translation"
          }
        },
        {
          "sampler": 12,
          "target": {
            "node": 8,
            "path": "rotation"
          }
        },
        {
          "sampler": 13,
          "target": {
            "node": 8,
            "path": "translation"
          }
        },
        {
          "sampler": 14,
          "target": {
            "node": 9,
            "path": "rotation"
          }
        },
        {
          "sampler": 15,
          "target": {
            "node": 9,
            "path": "translation"
          }
        },
        {
          "sampler": 16,
          "target": {
            "node": 10,
            "path": "rotation"
          }
        },
        {
          "sampler": 17,
          "target": {
            "node": 10,
            "path": "translation"
          }
        }
      ],
      "samplers": [
        {
          "input": 88,
          "interpolation": "LINEAR",
          "output": 89
        },
        {
          "input": 90,
          "interpolation": "LINEAR",
          "output": 91
        },
        {
          "input": 92,
          "interpolation": "LINEAR",
          "output": 93
        },
        {
          "input": 94,
          "interpolation": "LINEAR",
          "output": 95
        },
        {
          "input": 96,
          "interpolation": "LINEAR",
          "output": 97
        },
        {
          "input": 98,
          "interpolation": "LINEAR",
          "output": 99
        },
        {
          "input": 100,
          "interpolation": "LINEAR",
          "output": 101
        },
        {
          "input": 102,
          "interpolation": "LINEAR",
          "output": 103
        },
        {
          "input": 104,
          "interpolation": "LINEAR",
          "output": 105
        },
        {
          "input": 106,
          "interpolation": "LINEAR",
          "output": 107
        },
        {
          "input": 108,
          "interpolation": "LINEAR",
          "output": 109
        },
        {
          "input": 110,
          "interpolation": "LINEAR",
          "output": 111
        },
        {
          "input": 112,
          "interpolation": "LINEAR",
          "output": 113
        },
        {
          "input": 114,
          "interpolation": "LINEAR",
          "output": 115
        },
        {
          "input": 116,
          "interpolation": "LINEAR",
          "output": 117
        },
        {
          "input": 118,
          "interpolation": "LINEAR",
          "output": 119
        },
        {
          "input": 120,
          "interpolation": "LINEAR",
          "output": 121
        },
        {
          "input": 122,
          "interpolation": "LINEAR",
          "output": 123
        }
      ]
    }
  ]
}