{
  "asset": {
    "version": "2.0",
    "generator": "b3d_export_gltf.py"
  },
  "scene": 0,
  "scenes": [
    {
      "nodes": [
        0
      ]
    }
  ],
  "nodes": [
    {
      "name": "armature",
      "children": [
        4
      ]
    },
    {
      "name": "Cube",
      "translation": [
        0.0,
        0.0,
        0.0
      ],
      "rotation": [
        0.0,
        0.0,
        0.0,
        1.0
      ],
      "scale": [
        1.0,
        1.0,
        1.0
      ],
      "children": [
        2
      ]
    },
    {
      "name": "Bone",
      "translation": [
        -0.00018196518067270517,
        -0.005454755201935768,
        -0.15155705213546752
      ],
      "rotation": [
        -0.7016982290738146,
        -6.106903184286532e-05,
        6.0203163800894004e-05,
        0.7124742717886906
      ],
      "scale": [
        1.0,
        1.0,
        1.0
      ],
      "children": [
        3
      ]
    },
    {
      "name": "Bone.001",
      "translation": [
        -1.3736515947102241e-17,
        0.3607220411300659,
        -2.7977620220553945e-14
      ],
      "rotation": [
        0.05089952802500961,
        -5.178594625696831e-07,
        2.2201854602333327e-08,
        0.9987037789287485
      ],
      "scale": [
        1.0,
        1.0,
        1.0
      ]
    },
    {
      "name": "hedgehog",
      "mesh": 0,
      "skin": 0
    }
  ],
  "meshes": [
    {
      "name": "hedgehog",
      "primitives": [
        {
          "attributes": {
            "POSITION": 0,
            "TEXCOORD_0": 1,
            "JOINTS_0": 2,
            "WEIGHTS_0": 3
          },
          "indices": 4,
          "material": 0
        },
        {
          "attributes": {
            "POSITION": 5,
            "TEXCOORD_0": 6,
            "JOINTS_0": 7,
            "WEIGHTS_0": 8
          },
          "indices": 9,
          "material": 1
        },
        {
          "attributes": {
            "POSITION": 10,
            "TEXCOORD_0": 11,
            "JOINTS_0": 12,
            "WEIGHTS_0": 13
          },
          "indices": 14,
          "material": 2
        }
      ]
    }
  ],
  "skins": [
    {
      "inverseBindMatrices": 15,
      "joints": [
        1,
        2,
        3
      ],
      "skeleton": 1
    }
  ],
  "materials": [
    {
      "name": "body",
      "pbrMetallicRoughness": {
        "baseColorTexture": {
          "index": 0
        },
        "metallicFactor": 0.0,
        "roughnessFactor": 1.0
      },
      "doubleSided": true
    },
    {
      "name": "face",
      "pbrMetallicRoughness": {
        "baseColorTexture": {
          "index": 1
        },
        "metallicFactor": 0.0,
        "roughnessFactor": 1.0
      },
      "doubleSided": true
    },
    {
      "name": "leg",
      "pbrMetallicRoughness": {
        "baseColorTexture": {
          "index": 2
        },
        "metallicFactor": 0.0,
        "roughnessFactor": 1.0
      },
      "doubleSided": true
    }
  ],
  "textures": [
    {
      "source": 0
    },
    {
      "source": 1
    },
    {
      "source": 2
    }
  ],
  "images": [
    {
      "uri": "textures/body.png"
    },
    {
      "uri": "textures/face.png"
    },
    {
      "uri": "textures/leg.png"
    }
  ],
  "buffers": [
    {
      "byteLength": 12704,
      "uri": "model.bin"
    }
  ],
  "bufferViews": [
    {
      "buffer": 0,
      "byteOffset": 0,
      "byteLength": 2100,
      "target": 34962
    },
    {
      "buffer": 0,
      "byteOffset": 2100,
      "byteLength": 1400,
      "target": 34962
    },
    {
      "buffer": 0,
      "byteOffset": 3500,
      "byteLength": 700,
      "target": 34962
    },
    {
      "buffer": 0,
      "byteOffset": 4200,
      "byteLength": 2800,
      "target": 34962
    },
    {
      "buffer": 0,
      "byteOffset": 7000,
      "byteLength": 498,
      "target": 34963
    },
    {
      "buffer": 0,
      "byteOffset": 7498,
      "byteLength": 372,
      "target": 34962
    },
    {
      "buffer": 0,
      "byteOffset": 7870,
      "byteLength": 248,
      "target": 34962
    },
    {
      "buffer": 0,
      "byteOffset": 8118,
      "byteLength": 124,
      "target": 34962
    },
    {
      "buffer": 0,
      "byteOffset": 8242,
      "byteLength": 496,
      "target": 34962
    },
    {
      "buffer": 0,
      "byteOffset": 8738,
      "byteLength": 78,
      "target": 34963
    },
    {
      "buffer": 0,
      "byteOffset": 8816,
      "byteLength": 432,
      "target": 34962
    },
    {
      "buffer": 0,
      "byteOffset": 9248,
      "byteLength": 288,
      "target": 34962
    },
    {
      "buffer": 0,
      "byteOffset": 9536,
      "byteLength": 144,
      "target": 34962
    },
    {
      "buffer": 0,
      "byteOffset": 9680,
      "byteLength": 576,
      "target": 34962
    },
    {
      "buffer": 0,
      "byteOffset": 10256,
      "byteLength": 96,
      "target": 34963
    },
    {
      "buffer": 0,
      "byteOffset": 10352,
      "byteLength": 192
    },
    {
      "buffer": 0,
      "byteOffset": 10544,
      "byteLength": 40
    },
    {
      "buffer": 0,
      "byteOffset": 10584,
      "byteLength": 160
    },
    {
      "buffer": 0,
      "byteOffset": 10744,
      "byteLength": 40
    },
    {
      "buffer": 0,
      "byteOffset": 10784,
      "byteLength": 120
    },
    {
      "buffer": 0,
      "byteOffset": 10904,
      "byteLength": 40
    },
    {
      "buffer": 0,
      "byteOffset": 10944,
      "byteLength": 160
    },
    {
      "buffer": 0,
      "byteOffset": 11104,
      "byteLength": 40
    },
    {
      "buffer": 0,
      "byteOffset": 11144,
      "byteLength": 120
    },
    {
      "buffer": 0,
      "byteOffset": 11264,
      "byteLength": 40
    },
    {
      "buffer": 0,
      "byteOffset": 11304,
      "byteLength": 160
    },
    {
      "buffer": 0,
      "byteOffset": 11464,
      "byteLength": 40
    },
    {
      "buffer": 0,
      "byteOffset": 11504,
      "byteLength": 120
    },
    {
      "buffer": 0,
      "byteOffset": 11624,
      "byteLength": 40
    },
    {
      "buffer": 0,
      "byteOffset": 11664,
      "byteLength": 160
    },
    {
      "buffer": 0,
      "byteOffset": 11824,
      "byteLength": 40
    },
    {
      "buffer": 0,
      "byteOffset": 11864,
      "byteLength": 120
    },
    {
      "buffer": 0,
      "byteOffset": 11984,
      "byteLength": 40
    },
    {
      "buffer": 0,
      "byteOffset": 12024,
      "byteLength": 160
    },
    {
      "buffer": 0,
      "byteOffset": 12184,
      "byteLength": 40
    },
    {
      "buffer": 0,
      "byteOffset": 12224,
      "byteLength": 120
    },
    {
      "buffer": 0,
      "byteOffset": 12344,
      "byteLength": 40
    },
    {
      "buffer": 0,
      "byteOffset": 12384,
      "byteLength": 160
    },
    {
      "buffer": 0,
      "byteOffset": 12544,
      "byteLength": 40
    },
    {
      "buffer": 0,
      "byteOffset": 12584,
      "byteLength": 120
    }
  ],
  "accessors": [
    {
      "bufferView": 0,
      "componentType": 5126,
      "count": 175,
      "type": "VEC3",
      "min": [
        -0.20820143222808837,
        0.0,
        -0.18497810363769532
      ],
      "max": [
        0.19186718463897706,
        0.30422998666763307,
        0.4218412399291992
      ]
    },
    {
      "bufferView": 1,
      "componentType": 5126,
      "count": 175,
      "type": "VEC2"
    },
    {
      "bufferView": 2,
      "componentType": 5121,
      "count": 175,
      "type": "VEC4"
    },
    {
      "bufferView": 3,
      "componentType": 5126,
      "count": 175,
      "type": "VEC4"
    },
    {
      "bufferView": 4,
      "componentType": 5123,
      "count": 249,
      "type": "SCALAR"
    },
    {
      "bufferView": 5,
      "componentType": 5126,
      "count": 31,
      "type": "VEC3",
      "min": [
        -0.14451136589050292,
        1.1920928952302567e-08,
        0.20602648258209227
      ],
      "max": [
        0.19186718463897706,
        0.25701695680618286,
        0.4218331813812256
      ]
    },
    {
      "bufferView": 6,
      "componentType": 5126,
      "count": 31,
      "type": "VEC2"
    },
    {
      "bufferView": 7,
      "componentType": 5121,
      "count": 31,
      "type": "VEC4"
    },
    {
      "bufferView": 8,
      "componentType": 5126,
      "count": 31,
      "type": "VEC4"
    },
    {
      "bufferView": 9,
      "componentType": 5123,
      "count": 39,
      "type": "SCALAR"
    },
    {
      "bufferView": 10,
      "componentType": 5126,
      "count": 36,
      "type": "VEC3",
      "min": [
        -0.20820143222808837,
        0.0,
        -0.18497810363769532
      ],
      "max": [
        0.19186718463897706,
        0.30422998666763307,
        0.21509044170379638
      ]
    },
    {
      "bufferView": 11,
      "componentType": 5126,
      "count": 36,
      "type": "VEC2"
    },
    {
      "bufferView": 12,
      "componentType": 5121,
      "count": 36,
      "type": "VEC4"
    },
    {
      "bufferView": 13,
      "componentType": 5126,
      "count": 36,
      "type": "VEC4"
    },
    {
      "bufferView": 14,
      "componentType": 5123,
      "count": 48,
      "type": "SCALAR"
    },
    {
      "bufferView": 15,
      "componentType": 5126,
      "count": 3,
      "type": "MAT4"
    },
    {
      "bufferView": 16,
      "componentType": 5126,
      "count": 10,
      "type": "SCALAR",
      "min": [
        0.0
      ],
      "max": [
        1.8
      ]
    },
    {
      "bufferView": 17,
      "componentType": 5126,
      "count": 10,
      "type": "VEC4"
    },
    {
      "bufferView": 18,
      "componentType": 5126,
      "count": 10,
      "type": "SCALAR",
      "min": [
        0.0
      ],
      "max": [
        1.8
      ]
    },
    {
      "bufferView": 19,
      "componentType": 5126,
      "count": 10,
      "type": "VEC3"
    },
    {
      "bufferView": 20,
      "componentType": 5126,
      "count": 10,
      "type": "SCALAR",
      "min": [
        0.0
      ],
      "max": [
        1.8
      ]
    },
    {
      "bufferView": 21,
      "componentType": 5126,
      "count": 10,
      "type": "VEC4"
    },
    {
      "bufferView": 22,
      "componentType": 5126,
      "count": 10,
      "type": "SCALAR",
      "min": [
        0.0
      ],
      "max": [
        1.8
      ]
    },
    {
      "bufferView": 23,
      "componentType": 5126,
      "count": 10,
      "type": "VEC3"
    },
    {
      "bufferView": 24,
      "componentType": 5126,
      "count": 10,
      "type": "SCALAR",
      "min": [
        0.0
      ],
      "max": [
        1.8
      ]
    },
    {
      "bufferView": 25,
      "componentType": 5126,
      "count": 10,
      "type": "VEC4"
    },
    {
      "bufferView": 26,
      "componentType": 5126,
      "count": 10,
      "type": "SCALAR",
      "min": [
        0.0
      ],
      "max": [
        1.8
      ]
    },
    {
      "bufferView": 27,
      "componentType": 5126,
      "count": 10,
      "type": "VEC3"
    },
    {
      "bufferView": 28,
      "componentType": 5126,
      "count": 10,
      "type": "SCALAR",
      "min": [
        0.0
      ],
      "max": [
        1.8
      ]
    },
    {
      "bufferView": 29,
      "componentType": 5126,
      "count": 10,
      "type": "VEC4"
    },
    {
      "bufferView": 30,
      "componentType": 5126,
      "count": 10,
      "type": "SCALAR",
      "min": [
        0.0
      ],
      "max": [
        1.8
      ]
    },
    {
      "bufferView": 31,
      "componentType": 5126,
      "count": 10,
      "type": "VEC3"
    },
    {
      "bufferView": 32,
      "componentType": 5126,
      "count": 10,
      "type": "SCALAR",
      "min": [
        0.0
      ],
      "max": [
        1.8
      ]
    },
    {
      "bufferView": 33,
      "componentType": 5126,
      "count": 10,
      "type": "VEC4"
    },
    {
      "bufferView": 34,
      "componentType": 5126,
      "count": 10,
      "type": "SCALAR",
      "min": [
        0.0
      ],
      "max": [
        1.8
      ]
    },
    {
      "bufferView": 35,
      "componentType": 5126,
      "count": 10,
      "type": "VEC3"
    },
    {
      "bufferView": 36,
      "componentType": 5126,
      "count": 10,
      "type": "SCALAR",
      "min": [
        0.0
      ],
      "max": [
        1.8
      ]
    },
    {
      "bufferView": 37,
      "componentType": 5126,
      "count": 10,
      "type": "VEC4"
    },
    {
      "bufferView": 38,
      "componentType": 5126,
      "count": 10,
      "type": "SCALAR",
      "min": [
        0.0
      ],
      "max": [
        1.8
      ]
    },
    {
      "bufferView": 39,
      "componentType": 5126,
      "count": 10,
      "type": "VEC3"
    }
  ],
  "animations": [
    {
      "name": "idle",
      "channels": [
        {
          "sampler": 0,
          "target": {
            "node": 2,
            "path": "rotation"
          }
        },
        {
          "sampler": 1,
          "target": {
            "node": 2,
            "path": "translation"
          }
        },
        {
          "sampler": 2,
          "target": {
            "node": 3,
            "path": "rotation"
          }
        },
        {
          "sampler": 3,
          "target": {
            "node": 3,
            "path": "translation"
          }
        }
      ],
      "samplers": [
        {
          "input": 16,
          "interpolation": "LINEAR",
          "output": 17
        },
        {
          "input": 18,
          "interpolation": "LINEAR",
          "output": 19
        },
        {
          "input": 20,
          "interpolation": "LINEAR",
          "output": 21
        },
        {
          "input": 22,
          "interpolation": "LINEAR",
          "output": 23
        }
      ]
    },
    {
      "name": "walk",
      "channels": [
        {
          "sampler": 0,
          "target": {
            "node": 2,
            "path": "rotation"
          }
        },
        {
          "sampler": 1,
          "target": {
            "node": 2,
            "path": "translation"
          }
        },
        {
          "sampler": 2,
          "target": {
            "node": 3,
            "path": "rotation"
          }
        },
        {
          "sampler": 3,
          "target": {
            "node": 3,
            "path": "translation"
          }
        }
      ],
      "samplers": [
        {
          "input": 24,
          "interpolation": "LINEAR",
          "output": 25
        },
        {
          "input": 26,
          "interpolation": "LINEAR",
          "output": 27
        },
        {
          "input": 28,
          "interpolation": "LINEAR",
          "output": 29
        },
        {
          "input": 30,
          "interpolation": "LINEAR",
          "output": 31
        }
      ]
    },
    {
      "name": "run",
      "channels": [
        {
          "sampler": 0,
          "target": {
            "node": 2,
            "path": "rotation"
          }
        },
        {
          "sampler": 1,
          "target": {
            "node": 2,
            "path": "translation"
          }
        },
        {
          "sampler": 2,
          "target": {
            "node": 3,
            "path": "rotation"
          }
        },
        {
          "sampler": 3,
          "target": {
            "node": 3,
            "path": "translation"
          }
        }
      ],
      "samplers": [
        {
          "input": 32,
          "interpolation": "LINEAR",
          "output": 33
        },
        {
          "input": 34,
          "interpolation": "LINEAR",
          "output": 35
        },
        {
          "input": 36,
          "interpolation": "LINEAR",
          "output": 37
        },
        {
          "input": 38,
          "interpolation": "LINEAR",
          "output": 39
        }
      ]
    }
  ]
}