{
  "asset": {
    "version": "2.0",
    "generator": "b3d_export_gltf.py"
  },
  "scene": 0,
  "scenes": [
    {
      "nodes": [
        0
      ]
    }
  ],
  "nodes": [
    {
      "name": "armature",
      "children": [
        10
      ]
    },
    {
      "name": "Cube.004",
      "translation": [
        0.0,
        0.0,
        0.0
      ],
      "rotation": [
        0.0,
        0.0,
        0.0,
        1.0
      ],
      "scale": [
        1.0,
        1.0,
        1.0
      ],
      "children": [
        2,
        4,
        6,
        7,
        8
      ]
    },
    {
      "name": "Bone.006",
      "translation": [
        0.7286044836044311,
        0.576039183139801,
        0.11066645085811615
      ],
      "rotation": [
        -0.7071066619772459,
        0.0,
        0.707106900395829,
        0.0
      ],
      "scale": [
        1.0,
        1.0,
        1.0
      ],
      "children": [
        3
      ]
    },
    {
      "name": "Bone.007",
      "translation": [
        1.7582863165443995e-09,
        0.4555193424224853,
        -5.872821162711261e-09
      ],
      "rotation": [
        -0.5000000745058026,
        0.49999992549418626,
        -0.49999992549418626,
        0.5000000745058026
      ],
      "scale": [
        1.0,
        1.0,
        1.0
      ]
    },
    {
      "name": "Bone",
      "translation": [
        0.011179418116807937,
        -0.055881732702255243,
        -0.004801581054925918
      ],
      "rotation": [
        0.0,
        7.549790126404311e-08,
        0.0,
        0.9999999999999971
      ],
      "scale": [
        1.0,
        1.0,
        1.0
      ],
      "children": [
        5
      ]
    },
    {
      "name": "Bone.001",
      "translation": [
        -0.0,
        0.5787215709686279,
        -0.0
      ],
      "rotation": [
        -0.3538471179894277,
        1.448386946467341e-07,
        5.479585878947257e-08,
        0.9353032754623241
      ],
      "scale": [
        1.0,
        1.0,
        1.0
      ]
    },
    {
      "name": "Bone.003",
      "translation": [
        -0.2085700213909149,
        -0.38678863048553463,
        0.0021457496099174024
      ],
      "rotation": [
        0.9999999987437742,
        5.012424292614619e-05,
        1.0898160937765242e-07,
        -2.514545679626914e-09
      ],
      "scale": [
        1.0,
        1.0,
        1.0
      ]
    },
    {
      "name": "Bone.002",
      "translation": [
        0.24404971003532408,
        -0.3743564128875732,
        0.006557861901819706
      ],
      "rotation": [
        0.9999999987754122,
        4.9489026362940036e-05,
        1.0898162359195509e-07,
        -2.451242983365912e-09
      ],
      "scale": [
        1.0,
        1.0,
        1.0
      ]
    },
    {
      "name": "Bone.004",
      "translation": [
        -0.6883651971817016,
        0.576039183139801,
        0.11066623628139495
      ],
      "rotation": [
        -0.7071066619772459,
        0.0,
        0.707106900395829,
        0.0
      ],
      "scale": [
        1.0,
        1.0,
        1.0
      ],
      "children": [
        9
      ]
    },
    {
      "name": "Bone.005",
      "translation": [
        -1.477900468671578e-09,
        0.4555193424224853,
        -5.872821162711261e-09
      ],
      "rotation": [
        -0.5000000745058026,
        0.49999992549418626,
        -0.49999992549418626,
        0.5000000745058026
      ],
      "scale": [
        1.0,
        1.0,
        1.0
      ]
    },
    {
      "name": "orc",
      "mesh": 0,
      "skin": 0
    }
  ],
  "meshes": [
    {
      "name": "orc",
      "primitives": [
        {
          "attributes": {
            "POSITION": 0,
            "TEXCOORD_0": 1,
            "JOINTS_0": 2,
            "WEIGHTS_0": 3
          },
          "indices": 4,
          "material": 0
        },
        {
          "attributes": {
            "POSITION": 5,
            "TEXCOORD_0": 6,
            "JOINTS_0": 7,
            "WEIGHTS_0": 8
          },
          "indices": 9,
          "material": 1
        },
        {
          "attributes": {
            "POSITION": 10,
            "TEXCOORD_0": 11,
            "JOINTS_0": 12,
            "WEIGHTS_0": 13
          },
          "indices": 14,
          "material": 2
        },
        {
          "attributes": {
            "POSITION": 15,
            "TEXCOORD_0": 16,
            "JOINTS_0": 17,
            "WEIGHTS_0": 18
          },
          "indices": 19,
          "material": 3
        }
      ]
    }
  ],
  "skins": [
    {
      "inverseBindMatrices": 20,
      "joints": [
        1,
        2,
        3,
        4,
        5,
        6,
        7,
        8,
        9
      ],
      "skeleton": 1
    }
  ],
  "materials": [
    {
      "name": "arm",
      "pbrMetallicRoughness": {
        "baseColorTexture": {
          "index": 0
        },
        "metallicFactor": 0.0,
        "roughnessFactor": 1.0
      },
      "doubleSided": true
    },
    {
      "name": "body",
      "pbrMetallicRoughness": {
        "baseColorTexture": {
          "index": 1
        },
        "metallicFactor": 0.0,
        "roughnessFactor": 1.0
      },
      "doubleSided": true
    },
    {
      "name": "face",
      "pbrMetallicRoughness": {
        "baseColorTexture": {
          "index": 2
        },
        "metallicFactor": 0.0,
        "roughnessFactor": 1.0
      },
      "doubleSided": true
    },
    {
      "name": "leg",
      "pbrMetallicRoughness": {
        "baseColorTexture": {
          "index": 3
        },
        "metallicFactor": 0.0,
        "roughnessFactor": 1.0
      },
      "doubleSided": true
    }
  ],
  "textures": [
    {
      "source": 0
    },
    {
      "source": 1
    },
    {
      "source": 2
    },
    {
      "source": 3
    }
  ],
  "images": [
    {
      "uri": "textures/arm.png"
    },
    {
      "uri": "textures/body.png"
    },
    {
      "uri": "textures/face.png"
    },
    {
      "uri": "textures/leg.png"
    }
  ],
  "buffers": [
    {
      "byteLength": 31288,
      "uri": "model.bin"
    }
  ],
  "bufferViews": [
    {
      "buffer": 0,
      "byteOffset": 0,
      "byteLength": 396,
      "target": 34962
    },
    {
      "buffer": 0,
      "byteOffset": 396,
      "byteLength": 264,
      "target": 34962
    },
    {
      "buffer": 0,
      "byteOffset": 660,
      "byteLength": 132,
      "target": 34962
    },
    {
      "buffer": 0,
      "byteOffset": 792,
      "byteLength": 528,
      "target": 34962
    },
    {
      "buffer": 0,
      "byteOffset": 1320,
      "byteLength": 90,
      "target": 34963
    },
    {
      "buffer": 0,
      "byteOffset": 1410,
      "byteLength": 2952,
      "target": 34962
    },
    {
      "buffer": 0,
      "byteOffset": 4362,
      "byteLength": 1968,
      "target": 34962
    },
    {
      "buffer": 0,
      "byteOffset": 6330,
      "byteLength": 984,
      "target": 34962
    },
    {
      "buffer": 0,
      "byteOffset": 7314,
      "byteLength": 3936,
      "target": 34962
    },
    {
      "buffer": 0,
      "byteOffset": 11250,
      "byteLength": 720,
      "target": 34963
    },
    {
      "buffer": 0,
      "byteOffset": 11970,
      "byteLength": 564,
      "target": 34962
    },
    {
      "buffer": 0,
      "byteOffset": 12534,
      "byteLength": 376,
      "target": 34962
    },
    {
      "buffer": 0,
      "byteOffset": 12910,
      "byteLength": 188,
      "target": 34962
    },
    {
      "buffer": 0,
      "byteOffset": 13098,
      "byteLength": 752,
      "target": 34962
    },
    {
      "buffer": 0,
      "byteOffset": 13850,
      "byteLength": 138,
      "target": 34963
    },
    {
      "buffer": 0,
      "byteOffset": 13988,
      "byteLength": 168,
      "target": 34962
    },
    {
      "buffer": 0,
      "byteOffset": 14156,
      "byteLength": 112,
      "target": 34962
    },
    {
      "buffer": 0,
      "byteOffset": 14268,
      "byteLength": 56,
      "target": 34962
    },
    {
      "buffer": 0,
      "byteOffset": 14324,
      "byteLength": 224,
      "target": 34962
    },
    {
      "buffer": 0,
      "byteOffset": 14548,
      "byteLength": 36,
      "target": 34963
    },
    {
      "buffer": 0,
      "byteOffset": 14584,
      "byteLength": 576
    },
    {
      "buffer": 0,
      "byteOffset": 15160,
      "byteLength": 44
    },
    {
      "buffer": 0,
      "byteOffset": 15204,
      "byteLength": 176
    },
    {
      "buffer": 0,
      "byteOffset": 15380,
      "byteLength": 44
    },
    {
      "buffer": 0,
      "byteOffset": 15424,
      "byteLength": 132
    },
    {
      "buffer": 0,
      "byteOffset": 15556,
      "byteLength": 44
    },
    {
      "buffer": 0,
      "byteOffset": 15600,
      "byteLength": 176
    },
    {
      "buffer": 0,
      "byteOffset": 15776,
      "byteLength": 44
    },
    {
      "buffer": 0,
      "byteOffset": 15820,
      "byteLength": 132
    },
    {
      "buffer": 0,
      "byteOffset": 15952,
      "byteLength": 44
    },
    {
      "buffer": 0,
      "byteOffset": 15996,
      "byteLength": 176
    },
    {
      "buffer": 0,
      "byteOffset": 16172,
      "byteLength": 44
    },
    {
      "buffer": 0,
      "byteOffset": 16216,
      "byteLength": 132
    },
    {
      "buffer": 0,
      "byteOffset": 16348,
      "byteLength": 44
    },
    {
      "buffer": 0,
      "byteOffset": 16392,
      "byteLength": 176
    },
    {
      "buffer": 0,
      "byteOffset": 16568,
      "byteLength": 44
    },
    {
      "buffer": 0,
      "byteOffset": 16612,
      "byteLength": 132
    },
    {
      "buffer": 0,
      "byteOffset": 16744,
      "byteLength": 44
    },
    {
      "buffer": 0,
      "byteOffset": 16788,
      "byteLength": 176
    },
    {
      "buffer": 0,
      "byteOffset": 16964,
      "byteLength": 44
    },
    {
      "buffer": 0,
      "byteOffset": 17008,
      "byteLength": 132
    },
    {
      "buffer": 0,
      "byteOffset": 17140,
      "byteLength": 44
    },
    {
      "buffer": 0,
      "byteOffset": 17184,
      "byteLength": 176
    },
    {
      "buffer": 0,
      "byteOffset": 17360,
      "byteLength": 44
    },
    {
      "buffer": 0,
      "byteOffset": 17404,
      "byteLength": 132
    },
    {
      "buffer": 0,
      "byteOffset": 17536,
      "byteLength": 44
    },
    {
      "buffer": 0,
      "byteOffset": 17580,
      "byteLength": 176
    },
    {
      "buffer": 0,
      "byteOffset": 17756,
      "byteLength": 44
    },
    {
      "buffer": 0,
      "byteOffset": 17800,
      "byteLength": 132
    },
    {
      "buffer": 0,
      "byteOffset": 17932,
      "byteLength": 44
    },
    {
      "buffer": 0,
      "byteOffset": 17976,
      "byteLength": 176
    },
    {
      "buffer": 0,
      "byteOffset": 18152,
      "byteLength": 44
    },
    {
      "buffer": 0,
      "byteOffset": 18196,
      "byteLength": 132
    },
    {
      "buffer": 0,
      "byteOffset": 18328,
      "byteLength": 68
    },
    {
      "buffer": 0,
      "byteOffset": 18396,
      "byteLength": 272
    },
    {
      "buffer": 0,
      "byteOffset": 18668,
      "byteLength": 68
    },
    {
      "buffer": 0,
      "byteOffset": 18736,
      "byteLength": 204
    },
    {
      "buffer": 0,
      "byteOffset": 18940,
      "byteLength": 68
    },
    {
      "buffer": 0,
      "byteOffset": 19008,
      "byteLength": 272
    },
    {
      "buffer": 0,
      "byteOffset": 19280,
      "byteLength": 68
    },
    {
      "buffer": 0,
      "byteOffset": 19348,
      "byteLength": 204
    },
    {
      "buffer": 0,
      "byteOffset": 19552,
      "byteLength": 68
    },
    {
      "buffer": 0,
      "byteOffset": 19620,
      "byteLength": 272
    },
    {
      "buffer": 0,
      "byteOffset": 19892,
      "byteLength": 68
    },
    {
      "buffer": 0,
      "byteOffset": 19960,
      "byteLength": 204
    },
    {
      "buffer": 0,
      "byteOffset": 20164,
      "byteLength": 68
    },
    {
      "buffer": 0,
      "byteOffset": 20232,
      "byteLength": 272
    },
    {
      "buffer": 0,
      "byteOffset": 20504,
      "byteLength": 68
    },
    {
      "buffer": 0,
      "byteOffset": 20572,
      "byteLength": 204
    },
    {
      "buffer": 0,
      "byteOffset": 20776,
      "byteLength": 68
    },
    {
      "buffer": 0,
      "byteOffset": 20844,
      "byteLength": 272
    },
    {
      "buffer": 0,
      "byteOffset": 21116,
      "byteLength": 68
    },
    {
      "buffer": 0,
      "byteOffset": 21184,
      "byteLength": 204
    },
    {
      "buffer": 0,
      "byteOffset": 21388,
      "byteLength": 68
    },
    {
      "buffer": 0,
      "byteOffset": 21456,
      "byteLength": 272
    },
    {
      "buffer": 0,
      "byteOffset": 21728,
      "byteLength": 68
    },
    {
      "buffer": 0,
      "byteOffset": 21796,
      "byteLength": 204
    },
    {
      "buffer": 0,
      "byteOffset": 22000,
      "byteLength": 68
    },
    {
      "buffer": 0,
      "byteOffset": 22068,
      "byteLength": 272
    },
    {
      "buffer": 0,
      "byteOffset": 22340,
      "byteLength": 68
    },
    {
      "buffer": 0,
      "byteOffset": 22408,
      "byteLength": 204
    },
    {
      "buffer": 0,
      "byteOffset": 22612,
      "byteLength": 68
    },
    {
      "buffer": 0,
      "byteOffset": 22680,
      "byteLength": 272
    },
    {
      "buffer": 0,
      "byteOffset": 22952,
      "byteLength": 68
    },
    {
      "buffer": 0,
      "byteOffset": 23020,
      "byteLength": 204
    },
    {
      "buffer": 0,
      "byteOffset": 23224,
      "byteLength": 68
    },
    {
      "buffer": 0,
      "byteOffset": 23292,
      "byteLength": 272
    },
    {
      "buffer": 0,
      "byteOffset": 23564,
      "byteLength": 68
    },
    {
      "buffer": 0,
      "byteOffset": 23632,
      "byteLength": 204
    },
    {
      "buffer": 0,
      "byteOffset": 23836,
      "byteLength": 68
    },
    {
      "buffer": 0,
      "byteOffset": 23904,
      "byteLength": 272
    },
    {
      "buffer": 0,
      "byteOffset": 24176,
      "byteLength": 68
    },
    {
      "buffer": 0,
      "byteOffset": 24244,
      "byteLength": 204
    },
    {
      "buffer": 0,
      "byteOffset": 24448,
      "byteLength": 68
    },
    {
      "buffer": 0,
      "byteOffset": 24516,
      "byteLength": 272
    },
    {
      "buffer": 0,
      "byteOffset": 24788,
      "byteLength": 68
    },
    {
      "buffer": 0,
      "byteOffset": 24856,
      "byteLength": 204
    },
    {
      "buffer": 0,
      "byteOffset": 25060,
      "byteLength": 68
    },
    {
      "buffer": 0,
      "byteOffset": 25128,
      "byteLength": 272
    },
    {
      "buffer": 0,
      "byteOffset": 25400,
      "byteLength": 68
    },
    {
      "buffer": 0,
      "byteOffset": 25468,
      "byteLength": 204
    },
    {
      "buffer": 0,
      "byteOffset": 25672,
      "byteLength": 68
    },
    {
      "buffer": 0,
      "byteOffset": 25740,
      "byteLength": 272
    },
    {
      "buffer": 0,
      "byteOffset": 26012,
      "byteLength": 68
    },
    {
      "buffer": 0,
      "byteOffset": 26080,
      "byteLength": 204
    },
    {
      "buffer": 0,
      "byteOffset": 26284,
      "byteLength": 68
    },
    {
      "buffer": 0,
      "byteOffset": 26352,
      "byteLength": 272
    },
    {
      "buffer": 0,
      "byteOffset": 26624,
      "byteLength": 68
    },
    {
      "buffer": 0,
      "byteOffset": 26692,
      "byteLength": 204
    },
    {
      "buffer": 0,
      "byteOffset": 26896,
      "byteLength": 68
    },
    {
      "buffer": 0,
      "byteOffset": 26964,
      "byteLength": 272
    },
    {
      "buffer": 0,
      "byteOffset": 27236,
      "byteLength": 68
    },
    {
      "buffer": 0,
      "byteOffset": 27304,
      "byteLength": 204
    },
    {
      "buffer": 0,
      "byteOffset": 27508,
      "byteLength": 68
    },
    {
      "buffer": 0,
      "byteOffset": 27576,
      "byteLength": 272
    },
    {
      "buffer": 0,
      "byteOffset": 27848,
      "byteLength": 68
    },
    {
      "buffer": 0,
      "byteOffset": 27916,
      "byteLength": 204
    },
    {
      "buffer": 0,
      "byteOffset": 28120,
      "byteLength": 44
    },
    {
      "buffer": 0,
      "byteOffset": 28164,
      "byteLength": 176
    },
    {
      "buffer": 0,
      "byteOffset": 28340,
      "byteLength": 44
    },
    {
      "buffer": 0,
      "byteOffset": 28384,
      "byteLength": 132
    },
    {
      "buffer": 0,
      "byteOffset": 28516,
      "byteLength": 44
    },
    {
      "buffer": 0,
      "byteOffset": 28560,
      "byteLength": 176
    },
    {
      "buffer": 0,
      "byteOffset": 28736,
      "byteLength": 44
    },
    {
      "buffer": 0,
      "byteOffset": 28780,
      "byteLength": 132
    },
    {
      "buffer": 0,
      "byteOffset": 28912,
      "byteLength": 44
    },
    {
      "buffer": 0,
      "byteOffset": 28956,
      "byteLength": 176
    },
    {
      "buffer": 0,
      "byteOffset": 29132,
      "byteLength": 44
    },
    {
      "buffer": 0,
      "byteOffset": 29176,
      "byteLength": 132
    },
    {
      "buffer": 0,
      "byteOffset": 29308,
      "byteLength": 44
    },
    {
      "buffer": 0,
      "byteOffset": 29352,
      "byteLength": 176
    },
    {
      "buffer": 0,
      "byteOffset": 29528,
      "byteLength": 44
    },
    {
      "buffer": 0,
      "byteOffset": 29572,
      "byteLength": 132
    },
    {
      "buffer": 0,
      "byteOffset": 29704,
      "byteLength": 44
    },
    {
      "buffer": 0,
      "byteOffset": 29748,
      "byteLength": 176
    },
    {
      "buffer": 0,
      "byteOffset": 29924,
      "byteLength": 44
    },
    {
      "buffer": 0,
      "byteOffset": 29968,
      "byteLength": 132
    },
    {
      "buffer": 0,
      "byteOffset": 30100,
      "byteLength": 44
    },
    {
      "buffer": 0,
      "byteOffset": 30144,
      "byteLength": 176
    },
    {
      "buffer": 0,
      "byteOffset": 30320,
      "byteLength": 44
    },
    {
      "buffer": 0,
      "byteOffset": 30364,
      "byteLength": 132
    },
    {
      "buffer": 0,
      "byteOffset": 30496,
      "byteLength": 44
    },
    {
      "buffer": 0,
      "byteOffset": 30540,
      "byteLength": 176
    },
    {
      "buffer": 0,
      "byteOffset": 30716,
      "byteLength": 44
    },
    {
      "buffer": 0,
      "byteOffset": 30760,
      "byteLength": 132
    },
    {
      "buffer": 0,
      "byteOffset": 30892,
      "byteLength": 44
    },
    {
      "buffer": 0,
      "byteOffset": 30936,
      "byteLength": 176
    },
    {
      "buffer": 0,
      "byteOffset": 31112,
      "byteLength": 44
    },
    {
      "buffer": 0,
      "byteOffset": 31156,
      "byteLength": 132
    }
  ],
  "accessors": [
    {
      "bufferView": 0,
      "componentType": 5126,
      "count": 33,
      "type": "VEC3",
      "min": [
        -0.8415152549743652,
        1.0131816387176513,
        -0.19497497677803038
      ],
      "max": [
        0.8744012117385864,
        2.7422149658203123,
        0.5867320775985717
      ]
    },
    {
      "bufferView": 1,
      "componentType": 5126,
      "count": 33,
      "type": "VEC2"
    },
    {
      "bufferView": 2,
      "componentType": 5121,
      "count": 33,
      "type": "VEC4"
    },
    {
      "bufferView": 3,
      "componentType": 5126,
      "count": 33,
      "type": "VEC4"
    },
    {
      "bufferView": 4,
      "componentType": 5123,
      "count": 45,
      "type": "SCALAR"
    },
    {
      "bufferView": 5,
      "componentType": 5126,
      "count": 246,
      "type": "VEC3",
      "min": [
        -0.9103547573089599,
        0.0,
        -0.2896778047084808
      ],
      "max": [
        0.9443218231201171,
        2.7422149658203123,
        0.5867321491241455
      ]
    },
    {
      "bufferView": 6,
      "componentType": 5126,
      "count": 246,
      "type": "VEC2"
    },
    {
      "bufferView": 7,
      "componentType": 5121,
      "count": 246,
      "type": "VEC4"
    },
    {
      "bufferView": 8,
      "componentType": 5126,
      "count": 246,
      "type": "VEC4"
    },
    {
      "bufferView": 9,
      "componentType": 5123,
      "count": 360,
      "type": "SCALAR"
    },
    {
      "bufferView": 10,
      "componentType": 5126,
      "count": 47,
      "type": "VEC3",
      "min": [
        -0.9103547573089599,
        1.0131816387176513,
        -0.2741417169570923
      ],
      "max": [
        0.9443218231201171,
        2.5368042469024656,
        0.5867321491241455
      ]
    },
    {
      "bufferView": 11,
      "componentType": 5126,
      "count": 47,
      "type": "VEC2"
    },
    {
      "bufferView": 12,
      "componentType": 5121,
      "count": 47,
      "type": "VEC4"
    },
    {
      "bufferView": 13,
      "componentType": 5126,
      "count": 47,
      "type": "VEC4"
    },
    {
      "bufferView": 14,
      "componentType": 5123,
      "count": 69,
      "type": "SCALAR"
    },
    {
      "bufferView": 15,
      "componentType": 5126,
      "count": 14,
      "type": "VEC3",
      "min": [
        -0.8415152549743652,
        1.0236917495727538,
        -0.2741417527198791
      ],
      "max": [
        0.9443218231201171,
        2.2579827547073363,
        0.5867321491241455
      ]
    },
    {
      "bufferView": 16,
      "componentType": 5126,
      "count": 14,
      "type": "VEC2"
    },
    {
      "bufferView": 17,
      "componentType": 5121,
      "count": 14,
      "type": "VEC4"
    },
    {
      "bufferView": 18,
      "componentType": 5126,
      "count": 14,
      "type": "VEC4"
    },
    {
      "bufferView": 19,
      "componentType": 5123,
      "count": 18,
      "type": "SCALAR"
    },
    {
      "bufferView": 20,
      "componentType": 5126,
      "count": 9,
      "type": "MAT4"
    },
    {
      "bufferView": 21,
      "componentType": 5126,
      "count": 11,
      "type": "SCALAR",
      "min": [
        0.0
      ],
      "max": [
        1.0
      ]
    },
    {
      "bufferView": 22,
      "componentType": 5126,
      "count": 11,
      "type": "VEC4"
    },
    {
      "bufferView": 23,
      "componentType": 5126,
      "count": 11,
      "type": "SCALAR",
      "min": [
        0.0
      ],
      "max": [
        1.0
      ]
    },
    {
      "bufferView": 24,
      "componentType": 5126,
      "count": 11,
      "type": "VEC3"
    },
    {
      "bufferView": 25,
      "componentType": 5126,
      "count": 11,
      "type": "SCALAR",
      "min": [
        0.0
      ],
      "max": [
        1.0
      ]
    },
    {
      "bufferView": 26,
      "componentType": 5126,
      "count": 11,
      "type": "VEC4"
    },
    {
      "bufferView": 27,
      "componentType": 5126,
      "count": 11,
      "type": "SCALAR",
      "min": [
        0.0
      ],
      "max": [
        1.0
      ]
    },
    {
      "bufferView": 28,
      "componentType": 5126,
      "count": 11,
      "type": "VEC3"
    },
    {
      "bufferView": 29,
      "componentType": 5126,
      "count": 11,
      "type": "SCALAR",
      "min": [
        0.0
      ],
      "max": [
        1.0
      ]
    },
    {
      "bufferView": 30,
      "componentType": 5126,
      "count": 11,
      "type": "VEC4"
    },
    {
      "bufferView": 31,
      "componentType": 5126,
      "count": 11,
      "type": "SCALAR",
      "min": [
        0.0
      ],
      "max": [
        1.0
      ]
    },
    {
      "bufferView": 32,
      "componentType": 5126,
      "count": 11,
      "type": "VEC3"
    },
    {
      "bufferView": 33,
      "componentType": 5126,
      "count": 11,
      "type": "SCALAR",
      "min": [
        0.0
      ],
      "max": [
        1.0
      ]
    },
    {
      "bufferView": 34,
      "componentType": 5126,
      "count": 11,
      "type": "VEC4"
    },
    {
      "bufferView": 35,
      "componentType": 5126,
      "count": 11,
      "type": "SCALAR",
      "min": [
        0.0
      ],
      "max": [
        1.0
      ]
    },
    {
      "bufferView": 36,
      "componentType": 5126,
      "count": 11,
      "type": "VEC3"
    },
    {
      "bufferView": 37,
      "componentType": 5126,
      "count": 11,
      "type": "SCALAR",
      "min": [
        0.0
      ],
      "max": [
        1.0
      ]
    },
    {
      "bufferView": 38,
      "componentType": 5126,
      "count": 11,
      "type": "VEC4"
    },
    {
      "bufferView": 39,
      "componentType": 5126,
      "count": 11,
      "type": "SCALAR",
      "min": [
        0.0
      ],
      "max": [
        1.0
      ]
    },
    {
      "bufferView": 40,
      "componentType": 5126,
      "count": 11,
      "type": "VEC3"
    },
    {
      "bufferView": 41,
      "componentType": 5126,
      "count": 11,
      "type": "SCALAR",
      "min": [
        0.0
      ],
      "max": [
        1.0
      ]
    },
    {
      "bufferView": 42,
      "componentType": 5126,
      "count": 11,
      "type": "VEC4"
    },
    {
      "bufferView": 43,
      "componentType": 5126,
      "count": 11,
      "type": "SCALAR",
      "min": [
        0.0
      ],
      "max": [
        1.0
      ]
    },
    {
      "bufferView": 44,
      "componentType": 5126,
      "count": 11,
      "type": "VEC3"
    },
    {
      "bufferView": 45,
      "componentType": 5126,
      "count": 11,
      "type": "SCALAR",
      "min": [
        0.0
      ],
      "max": [
        1.0
      ]
    },
    {
      "bufferView": 46,
      "componentType": 5126,
      "count": 11,
      "type": "VEC4"
    },
    {
      "bufferView": 47,
      "componentType": 5126,
      "count": 11,
      "type": "SCALAR",
      "min": [
        0.0
      ],
      "max": [
        1.0
      ]
    },
    {
      "bufferView": 48,
      "componentType": 5126,
      "count": 11,
      "type": "VEC3"
    },
    {
      "bufferView": 49,
      "componentType": 5126,
      "count": 11,
      "type": "SCALAR",
      "min": [
        0.0
      ],
      "max": [
        1.0
      ]
    },
    {
      "bufferView": 50,
      "componentType": 5126,
      "count": 11,
      "type": "VEC4"
    },
    {
      "bufferView": 51,
      "componentType": 5126,
      "count": 11,
      "type": "SCALAR",
      "min": [
        0.0
      ],
      "max": [
        1.0
      ]
    },
    {
      "bufferView": 52,
      "componentType": 5126,
      "count": 11,
      "type": "VEC3"
    },
    {
      "bufferView": 53,
      "componentType": 5126,
      "count": 17,
      "type": "SCALAR",
      "min": [
        0.0
      ],
      "max": [
        1.6
      ]
    },
    {
      "bufferView": 54,
      "componentType": 5126,
      "count": 17,
      "type": "VEC4"
    },
    {
      "bufferView": 55,
      "componentType": 5126,
      "count": 17,
      "type": "SCALAR",
      "min": [
        0.0
      ],
      "max": [
        1.6
      ]
    },
    {
      "bufferView": 56,
      "componentType": 5126,
      "count": 17,
      "type": "VEC3"
    },
    {
      "bufferView": 57,
      "componentType": 5126,
      "count": 17,
      "type": "SCALAR",
      "min": [
        0.0
      ],
      "max": [
        1.6
      ]
    },
    {
      "bufferView": 58,
      "componentType": 5126,
      "count": 17,
      "type": "VEC4"
    },
    {
      "bufferView": 59,
      "componentType": 5126,
      "count": 17,
      "type": "SCALAR",
      "min": [
        0.0
      ],
      "max": [
        1.6
      ]
    },
    {
      "bufferView": 60,
      "componentType": 5126,
      "count": 17,
      "type": "VEC3"
    },
    {
      "bufferView": 61,
      "componentType": 5126,
      "count": 17,
      "type": "SCALAR",
      "min": [
        0.0
      ],
      "max": [
        1.6
      ]
    },
    {
      "bufferView": 62,
      "componentType": 5126,
      "count": 17,
      "type": "VEC4"
    },
    {
      "bufferView": 63,
      "componentType": 5126,
      "count": 17,
      "type": "SCALAR",
      "min": [
        0.0
      ],
      "max": [
        1.6
      ]
    },
    {
      "bufferView": 64,
      "componentType": 5126,
      "count": 17,
      "type": "VEC3"
    },
    {
      "bufferView": 65,
      "componentType": 5126,
      "count": 17,
      "type": "SCALAR",
      "min": [
        0.0
      ],
      "max": [
        1.6
      ]
    },
    {
      "bufferView": 66,
      "componentType": 5126,
      "count": 17,
      "type": "VEC4"
    },
    {
      "bufferView": 67,
      "componentType": 5126,
      "count": 17,
      "type": "SCALAR",
      "min": [
        0.0
      ],
      "max": [
        1.6
      ]
    },
    {
      "bufferView": 68,
      "componentType": 5126,
      "count": 17,
      "type": "VEC3"
    },
    {
      "bufferView": 69,
      "componentType": 5126,
      "count": 17,
      "type": "SCALAR",
      "min": [
        0.0
      ],
      "max": [
        1.6
      ]
    },
    {
      "bufferView": 70,
      "componentType": 5126,
      "count": 17,
      "type": "VEC4"
    },
    {
      "bufferView": 71,
      "componentType": 5126,
      "count": 17,
      "type": "SCALAR",
      "min": [
        0.0
      ],
      "max": [
        1.6
      ]
    },
    {
      "bufferView": 72,
      "componentType": 5126,
      "count": 17,
      "type": "VEC3"
    },
    {
      "bufferView": 73,
      "componentType": 5126,
      "count": 17,
      "type": "SCALAR",
      "min": [
        0.0
      ],
      "max": [
        1.6
      ]
    },
    {
      "bufferView": 74,
      "componentType": 5126,
      "count": 17,
      "type": "VEC4"
    },
    {
      "bufferView": 75,
      "componentType": 5126,
      "count": 17,
      "type": "SCALAR",
      "min": [
        0.0
      ],
      "max": [
        1.6
      ]
    },
    {
      "bufferView": 76,
      "componentType": 5126,
      "count": 17,
      "type": "VEC3"
    },
    {
      "bufferView": 77,
      "componentType": 5126,
      "count": 17,
      "type": "SCALAR",
      "min": [
        0.0
      ],
      "max": [
        1.6
      ]
    },
    {
      "bufferView": 78,
      "componentType": 5126,
      "count": 17,
      "type": "VEC4"
    },
    {
      "bufferView": 79,
      "componentType": 5126,
      "count": 17,
      "type": "SCALAR",
      "min": [
        0.0
      ],
      "max": [
        1.6
      ]
    },
    {
      "bufferView": 80,
      "componentType": 5126,
      "count": 17,
      "type": "VEC3"
    },
    {
      "bufferView": 81,
      "componentType": 5126,
      "count": 17,
      "type": "SCALAR",
      "min": [
        0.0
      ],
      "max": [
        1.6
      ]
    },
    {
      "bufferView": 82,
      "componentType": 5126,
      "count": 17,
      "type": "VEC4"
    },
    {
      "bufferView": 83,
      "componentType": 5126,
      "count": 17,
      "type": "SCALAR",
      "min": [
        0.0
      ],
      "max": [
        1.6
      ]
    },
    {
      "bufferView": 84,
      "componentType": 5126,
      "count": 17,
      "type": "VEC3"
    },
    {
      "bufferView": 85,
      "componentType": 5126,
      "count": 17,
      "type": "SCALAR",
      "min": [
        0.0
      ],
      "max": [
        1.6
      ]
    },
    {
      "bufferView": 86,
      "componentType": 5126,
      "count": 17,
      "type": "VEC4"
    },
    {
      "bufferView": 87,
      "componentType": 5126,
      "count": 17,
      "type": "SCALAR",
      "min": [
        0.0
      ],
      "max": [
        1.6
      ]
    },
    {
      "bufferView": 88,
      "componentType": 5126,
      "count": 17,
      "type": "VEC3"
    },
    {
      "bufferView": 89,
      "componentType": 5126,
      "count": 17,
      "type": "SCALAR",
      "min": [
        0.0
      ],
      "max": [
        1.6
      ]
    },
    {
      "bufferView": 90,
      "componentType": 5126,
      "count": 17,
      "type": "VEC4"
    },
    {
      "bufferView": 91,
      "componentType": 5126,
      "count": 17,
      "type": "SCALAR",
      "min": [
        0.0
      ],
      "max": [
        1.6
      ]
    },
    {
      "bufferView": 92,
      "componentType": 5126,
      "count": 17,
      "type": "VEC3"
    },
    {
      "bufferView": 93,
      "componentType": 5126,
      "count": 17,
      "type": "SCALAR",
      "min": [
        0.0
      ],
      "max": [
        1.6
      ]
    },
    {
      "bufferView": 94,
      "componentType": 5126,
      "count": 17,
      "type": "VEC4"
    },
    {
      "bufferView": 95,
      "componentType": 5126,
      "count": 17,
      "type": "SCALAR",
      "min": [
        0.0
      ],
      "max": [
        1.6
      ]
    },
    {
      "bufferView": 96,
      "componentType": 5126,
      "count": 17,
      "type": "VEC3"
    },
    {
      "bufferView": 97,
      "componentType": 5126,
      "count": 17,
      "type": "SCALAR",
      "min": [
        0.0
      ],
      "max": [
        1.6
      ]
    },
    {
      "bufferView": 98,
      "componentType": 5126,
      "count": 17,
      "type": "VEC4"
    },
    {
      "bufferView": 99,
      "componentType": 5126,
      "count": 17,
      "type": "SCALAR",
      "min": [
        0.0
      ],
      "max": [
        1.6
      ]
    },
    {
      "bufferView": 100,
      "componentType": 5126,
      "count": 17,
      "type": "VEC3"
    },
    {
      "bufferView": 101,
      "componentType": 5126,
      "count": 17,
      "type": "SCALAR",
      "min": [
        0.0
      ],
      "max": [
        1.6
      ]
    },
    {
      "bufferView": 102,
      "componentType": 5126,
      "count": 17,
      "type": "VEC4"
    },
    {
      "bufferView": 103,
      "componentType": 5126,
      "count": 17,
      "type": "SCALAR",
      "min": [
        0.0
      ],
      "max": [
        1.6
      ]
    },
    {
      "bufferView": 104,
      "componentType": 5126,
      "count": 17,
      "type": "VEC3"
    },
    {
      "bufferView": 105,
      "componentType": 5126,
      "count": 17,
      "type": "SCALAR",
      "min": [
        0.0
      ],
      "max": [
        1.6
      ]
    },
    {
      "bufferView": 106,
      "componentType": 5126,
      "count": 17,
      "type": "VEC4"
    },
    {
      "bufferView": 107,
      "componentType": 5126,
      "count": 17,
      "type": "SCALAR",
      "min": [
        0.0
      ],
      "max": [
        1.6
      ]
    },
    {
      "bufferView": 108,
      "componentType": 5126,
      "count": 17,
      "type": "VEC3"
    },
    {
      "bufferView": 109,
      "componentType": 5126,
      "count": 17,
      "type": "SCALAR",
      "min": [
        0.0
      ],
      "max": [
        1.6
      ]
    },
    {
      "bufferView": 110,
      "componentType": 5126,
      "count": 17,
      "type": "VEC4"
    },
    {
      "bufferView": 111,
      "componentType": 5126,
      "count": 17,
      "type": "SCALAR",
      "min": [
        0.0
      ],
      "max": [
        1.6
      ]
    },
    {
      "bufferView": 112,
      "componentType": 5126,
      "count": 17,
      "type": "VEC3"
    },
    {
      "bufferView": 113,
      "componentType": 5126,
      "count": 17,
      "type": "SCALAR",
      "min": [
        0.0
      ],
      "max": [
        1.6
      ]
    },
    {
      "bufferView": 114,
      "componentType": 5126,
      "count": 17,
      "type": "VEC4"
    },
    {
      "bufferView": 115,
      "componentType": 5126,
      "count": 17,
      "type": "SCALAR",
      "min": [
        0.0
      ],
      "max": [
        1.6
      ]
    },
    {
      "bufferView": 116,
      "componentType": 5126,
      "count": 17,
      "type": "VEC3"
    },
    {
      "bufferView": 117,
      "componentType": 5126,
      "count": 11,
      "type": "SCALAR",
      "min": [
        0.0
      ],
      "max": [
        1.0
      ]
    },
    {
      "bufferView": 118,
      "componentType": 5126,
      "count": 11,
      "type": "VEC4"
    },
    {
      "bufferView": 119,
      "componentType": 5126,
      "count": 11,
      "type": "SCALAR",
      "min": [
        0.0
      ],
      "max": [
        1.0
      ]
    },
    {
      "bufferView": 120,
      "componentType": 5126,
      "count": 11,
      "type": "VEC3"
    },
    {
      "bufferView": 121,
      "componentType": 5126,
      "count": 11,
      "type": "SCALAR",
      "min": [
        0.0
      ],
      "max": [
        1.0
      ]
    },
    {
      "bufferView": 122,
      "componentType": 5126,
      "count": 11,
      "type": "VEC4"
    },
    {
      "bufferView": 123,
      "componentType": 5126,
      "count": 11,
      "type": "SCALAR",
      "min": [
        0.0
      ],
      "max": [
        1.0
      ]
    },
    {
      "bufferView": 124,
      "componentType": 5126,
      "count": 11,
      "type": "VEC3"
    },
    {
      "bufferView": 125,
      "componentType": 5126,
      "count": 11,
      "type": "SCALAR",
      "min": [
        0.0
      ],
      "max": [
        1.0
      ]
    },
    {
      "bufferView": 126,
      "componentType": 5126,
      "count": 11,
      "type": "VEC4"
    },
    {
      "bufferView": 127,
      "componentType": 5126,
      "count": 11,
      "type": "SCALAR",
      "min": [
        0.0
      ],
      "max": [
        1.0
      ]
    },
    {
      "bufferView": 128,
      "componentType": 5126,
      "count": 11,
      "type": "VEC3"
    },
    {
      "bufferView": 129,
      "componentType": 5126,
      "count": 11,
      "type": "SCALAR",
      "min": [
        0.0
      ],
      "max": [
        1.0
      ]
    },
    {
      "bufferView": 130,
      "componentType": 5126,
      "count": 11,
      "type": "VEC4"
    },
    {
      "bufferView": 131,
      "componentType": 5126,
      "count": 11,
      "type": "SCALAR",
      "min": [
        0.0
      ],
      "max": [
        1.0
      ]
    },
    {
      "bufferView": 132,
      "componentType": 5126,
      "count": 11,
      "type": "VEC3"
    },
    {
      "bufferView": 133,
      "componentType": 5126,
      "count": 11,
      "type": "SCALAR",
      "min": [
        0.0
      ],
      "max": [
        1.0
      ]
    },
    {
      "bufferView": 134,
      "componentType": 5126,
      "count": 11,
      "type": "VEC4"
    },
    {
      "bufferView": 135,
      "componentType": 5126,
      "count": 11,
      "type": "SCALAR",
      "min": [
        0.0
      ],
      "max": [
        1.0
      ]
    },
    {
      "bufferView": 136,
      "componentType": 5126,
      "count": 11,
      "type": "VEC3"
    },
    {
      "bufferView": 137,
      "componentType": 5126,
      "count": 11,
      "type": "SCALAR",
      "min": [
        0.0
      ],
      "max": [
        1.0
      ]
    },
    {
      "bufferView": 138,
      "componentType": 5126,
      "count": 11,
      "type": "VEC4"
    },
    {
      "bufferView": 139,
      "componentType": 5126,
      "count": 11,
      "type": "SCALAR",
      "min": [
        0.0
      ],
      "max": [
        1.0
      ]
    },
    {
      "bufferView": 140,
      "componentType": 5126,
      "count": 11,
      "type": "VEC3"
    },
    {
      "bufferView": 141,
      "componentType": 5126,
      "count": 11,
      "type": "SCALAR",
      "min": [
        0.0
      ],
      "max": [
        1.0
      ]
    },
    {
      "bufferView": 142,
      "componentType": 5126,
      "count": 11,
      "type": "VEC4"
    },
    {
      "bufferView": 143,
      "componentType": 5126,
      "count": 11,
      "type": "SCALAR",
      "min": [
        0.0
      ],
      "max": [
        1.0
      ]
    },
    {
      "bufferView": 144,
      "componentType": 5126,
      "count": 11,
      "type": "VEC3"
    },
    {
      "bufferView": 145,
      "componentType": 5126,
      "count": 11,
      "type": "SCALAR",
      "min": [
        0.0
      ],
      "max": [
        1.0
      ]
    },
    {
      "bufferView": 146,
      "componentType": 5126,
      "count": 11,
      "type": "VEC4"
    },
    {
      "bufferView": 147,
      "componentType": 5126,
      "count": 11,
      "type": "SCALAR",
      "min": [
        0.0
      ],
      "max": [
        1.0
      ]
    },
    {
      "bufferView": 148,
      "componentType": 5126,
      "count": 11,
      "type": "VEC3"
    }
  ],
  "animations": [
    {
      "name": "idle",
      "channels": [
        {
          "sampler": 0,
          "target": {
            "node": 2,
            "path": "rotation"
          }
        },
        {
          "sampler": 1,
          "target": {
            "node": 2,
            "path": "translation"
          }
        },
        {
          "sampler": 2,
          "target": {
            "node": 3,
            "path": "rotation"
          }
        },
        {
          "sampler": 3,
          "target": {
            "node": 3,
            "path": "translation"
          }
        },
        {
          "sampler": 4,
          "target": {
            "node": 4,
            "path": "rotation"
          }
        },
        {
          "sampler": 5,
          "target": {
            "node": 4,
            "path": "translation"
          }
        },
        {
          "sampler": 6,
          "target": {
            "node": 5,
            "path": "rotation"
          }
        },
        {
          "sampler": 7,
          "target": {
            "node": 5,
            "path": "translation"
          }
        },
        {
          "sampler": 8,
          "target": {
            "node": 6,
            "path": "rotation"
          }
        },
        {
          "sampler": 9,
          "target": {
            "node": 6,
            "path": "translation"
          }
        },
        {
          "sampler": 10,
          "target": {
            "node": 7,
            "path": "rotation"
          }
        },
        {
          "sampler": 11,
          "target": {
            "node": 7,
            "path": "translation"
          }
        },
        {
          "sampler": 12,
          "target": {
            "node": 8,
            "path": "rotation"
          }
        },
        {
          "sampler": 13,
          "target": {
            "node": 8,
            "path": "translation"
          }
        },
        {
          "sampler": 14,
          "target": {
            "node": 9,
            "path": "rotation"
          }
        },
        {
          "sampler": 15,
          "target": {
            "node": 9,
            "path": "translation"
          }
        }
      ],
      "samplers": [
        {
          "input": 21,
          "interpolation": "LINEAR",
          "output": 22
        },
        {
          "input": 23,
          "interpolation": "LINEAR",
          "output": 24
        },
        {
          "input": 25,
          "interpolation": "LINEAR",
          "output": 26
        },
        {
          "input": 27,
          "interpolation": "LINEAR",
          "output": 28
        },
        {
          "input": 29,
          "interpolation": "LINEAR",
          "output": 30
        },
        {
          "input": 31,
          "interpolation": "LINEAR",
          "output": 32
        },
        {
          "input": 33,
          "interpolation": "LINEAR",
          "output": 34
        },
        {
          "input": 35,
          "interpolation": "LINEAR",
          "output": 36
        },
        {
          "input": 37,
          "interpolation": "LINEAR",
          "output": 38
        },
        {
          "input": 39,
          "interpolation": "LINEAR",
          "output": 40
        },
        {
          "input": 41,
          "interpolation": "LINEAR",
          "output": 42
        },
        {
          "input": 43,
          "interpolation": "LINEAR",
          "output": 44
        },
        {
          "input": 45,
          "interpolation": "LINEAR",
          "output": 46
        },
        {
          "input": 47,
          "interpolation": "LINEAR",
          "output": 48
        },
        {
          "input": 49,
          "interpolation": "LINEAR",
          "output": 50
        },
        {
          "input": 51,
          "interpolation": "LINEAR",
          "output": 52
        }
      ]
    },
    {
      "name": "walk",
      "channels": [
        {
          "sampler": 0,
          "target": {
            "node": 2,
            "path": "rotation"
          }
        },
        {
          "sampler": 1,
          "target": {
            "node": 2,
            "path": "translation"
          }
        },
        {
          "sampler": 2,
          "target": {
            "node": 3,
            "path": "rotation"
          }
        },
        {
          "sampler": 3,
          "target": {
            "node": 3,
            "path": "translation"
          }
        },
        {
          "sampler": 4,
          "target": {
            "node": 4,
            "path": "rotation"
          }
        },
        {
          "sampler": 5,
          "target": {
            "node": 4,
            "path": "translation"
          }
        },
        {
          "sampler": 6,
          "target": {
            "node": 5,
            "path": "rotation"
          }
        },
        {
          "sampler": 7,
          "target": {
            "node": 5,
            "path": "translation"
          }
        },
        {
          "sampler": 8,
          "target": {
            "node": 6,
            "path": "rotation"
          }
        },
        {
          "sampler": 9,
          "target": {
            "node": 6,
            "path": "translation"
          }
        },
        {
          "sampler": 10,
          "target": {
            "node": 7,
            "path": "rotation"
          }
        },
        {
          "sampler": 11,
          "target": {
            "node": 7,
            "path": "translation"
          }
        },
        {
          "sampler": 12,
          "target": {
            "node": 8,
            "path": "rotation"
          }
        },
        {
          "sampler": 13,
          "target": {
            "node": 8,
            "path": "translation"
          }
        },
        {
          "sampler": 14,
          "target": {
            "node": 9,
            "path": "rotation"
          }
        },
        {
          "sampler": 15,
          "target": {
            "node": 9,
            "path": "translation"
          }
        }
      ],
      "samplers": [
        {
          "input": 53,
          "interpolation": "LINEAR",
          "output": 54
        },
        {
          "input": 55,
          "interpolation": "LINEAR",
          "output": 56
        },
        {
          "input": 57,
          "interpolation": "LINEAR",
          "output": 58
        },
        {
          "input": 59,
          "interpolation": "LINEAR",
          "output": 60
        },
        {
          "input": 61,
          "interpolation": "LINEAR",
          "output": 62
        },
        {
          "input": 63,
          "interpolation": "LINEAR",
          "output": 64
        },
        {
          "input": 65,
          "interpolation": "LINEAR",
          "output": 66
        },
        {
          "input": 67,
          "interpolation": "LINEAR",
          "output": 68
        },
        {
          "input": 69,
          "interpolation": "LINEAR",
          "output": 70
        },
        {
          "input": 71,
          "interpolation": "LINEAR",
          "output": 72
        },
        {
          "input": 73,
          "interpolation": "LINEAR",
          "output": 74
        },
        {
          "input": 75,
          "interpolation": "LINEAR",
          "output": 76
        },
        {
          "input": 77,
          "interpolation": "LINEAR",
          "output": 78
        },
        {
          "input": 79,
          "interpolation": "LINEAR",
          "output": 80
        },
        {
          "input": 81,
          "interpolation": "LINEAR",
          "output": 82
        },
        {
          "input": 83,
          "interpolation": "LINEAR",
          "output": 84
        }
      ]
    },
    {
      "name": "run",
      "channels": [
        {
          "sampler": 0,
          "target": {
            "node": 2,
            "path": "rotation"
          }
        },
        {
          "sampler": 1,
          "target": {
            "node": 2,
            "path": "translation"
          }
        },
        {
          "sampler": 2,
          "target": {
            "node": 3,
            "path": "rotation"
          }
        },
        {
          "sampler": 3,
          "target": {
            "node": 3,
            "path": "translation"
          }
        },
        {
          "sampler": 4,
          "target": {
            "node": 4,
            "path": "rotation"
          }
        },
        {
          "sampler": 5,
          "target": {
            "node": 4,
            "path": "translation"
          }
        },
        {
          "sampler": 6,
          "target": {
            "node": 5,
            "path": "rotation"
          }
        },
        {
          "sampler": 7,
          "target": {
            "node": 5,
            "path": "translation"
          }
        },
        {
          "sampler": 8,
          "target": {
            "node": 6,
            "path": "rotation"
          }
        },
        {
          "sampler": 9,
          "target": {
            "node": 6,
            "path": "translation"
          }
        },
        {
          "sampler": 10,
          "target": {
            "node": 7,
            "path": "rotation"
          }
        },
        {
          "sampler": 11,
          "target": {
            "node": 7,
            "path": "translation"
          }
        },
        {
          "sampler": 12,
          "target": {
            "node": 8,
            "path": "rotation"
          }
        },
        {
          "sampler": 13,
          "target": {
            "node": 8,
            "path": "translation"
          }
        },
        {
          "sampler": 14,
          "target": {
            "node": 9,
            "path": "rotation"
          }
        },
        {
          "sampler": 15,
          "target": {
            "node": 9,
            "path": "translation"
          }
        }
      ],
      "samplers": [
        {
          "input": 85,
          "interpolation": "LINEAR",
          "output": 86
        },
        {
          "input": 87,
          "interpolation": "LINEAR",
          "output": 88
        },
        {
          "input": 89,
          "interpolation": "LINEAR",
          "output": 90
        },
        {
          "input": 91,
          "interpolation": "LINEAR",
          "output": 92
        },
        {
          "input": 93,
          "interpolation": "LINEAR",
          "output": 94
        },
        {
          "input": 95,
          "interpolation": "LINEAR",
          "output": 96
        },
        {
          "input": 97,
          "interpolation": "LINEAR",
          "output": 98
        },
        {
          "input": 99,
          "interpolation": "LINEAR",
          "output": 100
        },
        {
          "input": 101,
          "interpolation": "LINEAR",
          "output": 102
        },
        {
          "input": 103,
          "interpolation": "LINEAR",
          "output": 104
        },
        {
          "input": 105,
          "interpolation": "LINEAR",
          "output": 106
        },
        {
          "input": 107,
          "interpolation": "LINEAR",
          "output": 108
        },
        {
          "input": 109,
          "interpolation": "LINEAR",
          "output": 110
        },
        {
          "input": 111,
          "interpolation": "LINEAR",
          "output": 112
        },
        {
          "input": 113,
          "interpolation": "LINEAR",
          "output": 114
        },
        {
          "input": 115,
          "interpolation": "LINEAR",
          "output": 116
        }
      ]
    },
    {
      "name": "punch",
      "channels": [
        {
          "sampler": 0,
          "target": {
            "node": 2,
            "path": "rotation"
          }
        },
        {
          "sampler": 1,
          "target": {
            "node": 2,
            "path": "translation"
          }
        },
        {
          "sampler": 2,
          "target": {
            "node": 3,
            "path": "rotation"
          }
        },
        {
          "sampler": 3,
          "target": {
            "node": 3,
            "path": "translation"
          }
        },
        {
          "sampler": 4,
          "target": {
            "node": 4,
            "path": "rotation"
          }
        },
        {
          "sampler": 5,
          "target": {
            "node": 4,
            "path": "translation"
          }
        },
        {
          "sampler": 6,
          "target": {
            "node": 5,
            "path": "rotation"
          }
        },
        {
          "sampler": 7,
          "target": {
            "node": 5,
            "path": "translation"
          }
        },
        {
          "sampler": 8,
          "target": {
            "node": 6,
            "path": "rotation"
          }
        },
        {
          "sampler": 9,
          "target": {
            "node": 6,
            "path": "translation"
          }
        },
        {
          "sampler": 10,
          "target": {
            "node": 7,
            "path": "rotation"
          }
        },
        {
          "sampler": 11,
          "target": {
            "node": 7,
            "path": "translation"
          }
        },
        {
          "sampler": 12,
          "target": {
            "node": 8,
            "path": "rotation"
          }
        },
        {
          "sampler": 13,
          "target": {
            "node": 8,
            "path": "translation"
          }
        },
        {
          "sampler": 14,
          "target": {
            "node": 9,
            "path": "rotation"
          }
        },
        {
          "sampler": 15,
          "target": {
            "node": 9,
            "path": "translation"
          }
        }
      ],
      "samplers": [
        {
          "input": 117,
          "interpolation": "LINEAR",
          "output": 118
        },
        {
          "input": 119,
          "interpolation": "LINEAR",
          "output": 120
        },
        {
          "input": 121,
          "interpolation": "LINEAR",
          "output": 122
        },
        {
          "input": 123,
          "interpolation": "LINEAR",
          "output": 124
        },
        {
          "input": 125,
          "interpolation": "LINEAR",
          "output": 126
        },
        {
          "input": 127,
          "interpolation": "LINEAR",
          "output": 128
        },
        {
          "input": 129,
          "interpolation": "LINEAR",
          "output": 130
        },
        {
          "input": 131,
          "interpolation": "LINEAR",
          "output": 132
        },
        {
          "input": 133,
          "interpolation": "LINEAR",
          "output": 134
        },
        {
          "input": 135,
          "interpolation": "LINEAR",
          "output": 136
        },
        {
          "input": 137,
          "interpolation": "LINEAR",
          "output": 138
        },
        {
          "input": 139,
          "interpolation": "LINEAR",
          "output": 140
        },
        {
          "input": 141,
          "interpolation": "LINEAR",
          "output": 142
        },
        {
          "input": 143,
          "interpolation": "LINEAR",
          "output": 144
        },
        {
          "input": 145,
          "interpolation": "LINEAR",
          "output": 146
        },
        {
          "input": 147,
          "interpolation": "LINEAR",
          "output": 148
        }
      ]
    }
  ]
}