{"scene":0,"scenes":[{"nodes":[0]}],"asset":{"version":"2.0","generator":"https://github.com/mikedh/trimesh"},"accessors":[{"componentType":5125,"type":"SCALAR","bufferView":0,"count":1368,"max":[897],"min":[0]},{"componentType":5126,"type":"VEC3","byteOffset":0,"bufferView":1,"count":898,"max":[0.3145110011100769,0.1878580003976822,0.48047301173210144],"min":[-0.2837490141391754,-0.08026000112295151,-0.47527700662612915]},{"componentType":5126,"type":"VEC2","byteOffset":0,"bufferView":2,"count":898,"max":[0.0,1.0],"min":[0.0,1.0]}],"meshes":[{"name":"Glove__ncl1_29.000","extras":{"processed":true,"name":"Glove__ncl1_29.000","node":"Glove__ncl1_29.000"},"primitives":[{"attributes":{"POSITION":1,"TEXCOORD_0":2},"indices":0,"mode":4,"material":0}]}],"materials":[{"pbrMetallicRoughness":{"baseColorFactor":[0.10980392156862745,0.058823529411764705,0.0392156862745098,1.0],"roughnessFactor":0.377888888028231},"doubleSided":false}],"nodes":[{"name":"Glove__ncl1_29.000","mesh":0}],"buffers":[{"uri":"gltf_buffer_0.bin","byteLength":5472},{"uri":"gltf_buffer_1.bin","byteLength":10776},{"uri":"gltf_buffer_2.bin","byteLength":7184}],"bufferViews":[{"buffer":0,"byteOffset":0,"byteLength":5472},{"buffer":1,"byteOffset":0,"byteLength":10776},{"buffer":2,"byteOffset":0,"byteLength":7184}]}