{
  "asset": {
    "version": "2.0",
    "generator": "b3d_export_gltf.py"
  },
  "scene": 0,
  "scenes": [
    {
      "nodes": [
        0
      ]
    }
  ],
  "nodes": [
    {
      "name": "armature",
      "children": [
        14
      ]
    },
    {
      "name": "Cube.007",
      "translation": [
        0.0,
        0.0,
        0.0
      ],
      "rotation": [
        0.0,
        0.0,
        0.0,
        1.0
      ],
      "scale": [
        1.0,
        1.0,
        1.0
      ],
      "children": [
        2,
        6,
        8,
        10,
        12
      ]
    },
    {
      "name": "Bone",
      "translation": [
        0.0,
        0.5992802821699498,
        -0.015526019897962344
      ],
      "rotation": [
        1.1987427157775898e-08,
        0.9936661808787633,
        0.11237224291523869,
        -1.0600039340776516e-07
      ],
      "scale": [
        2.2561299800872803,
        2.2561299800872803,
        2.2561299800872803
      ],
      "children": [
        3
      ]
    },
    {
      "name": "Bone.001",
      "translation": [
        1.5530408922525954e-16,
        0.055832623121692515,
        -0.0
      ],
      "rotation": [
        0.0017787115826952838,
        0.000591222959452248,
        -0.005228912975977839,
        0.9999845724357987
      ],
      "scale": [
        0.9999999403953552,
        0.9999998807907104,
        0.9999999403953552
      ],
      "children": [
        4
      ]
    },
    {
      "name": "Bone.002",
      "translation": [
        -1.0432459011253275e-10,
        0.08730046502935092,
        -4.3996033314988084e-10
      ],
      "rotation": [
        0.5340084986996871,
        -0.0032995471001916886,
        0.004099253998028931,
        0.8454627327222055
      ],
      "scale": [
        1.0000001192092896,
        1.0,
        0.9999998807907104
      ],
      "children": [
        5
      ]
    },
    {
      "name": "Bone.003",
      "translation": [
        -1.331064757522932e-11,
        0.08316606601190585,
        2.6614017600837544e-09
      ],
      "rotation": [
        0.10745808882621391,
        -3.033201681363392e-08,
        -3.5151260773970053e-09,
        0.9942096152953945
      ],
      "scale": [
        1.0,
        0.9999999403953552,
        0.9999999403953552
      ]
    },
    {
      "name": "Bone.006",
      "translation": [
        0.26275714773660286,
        0.9469704529616323,
        0.2023379549361735
      ],
      "rotation": [
        0.7071069003958285,
        0.0,
        0.7071066619772453,
        4.214683785275218e-08
      ],
      "scale": [
        2.256129741668701,
        2.256129503250122,
        2.256129741668701
      ],
      "children": [
        7
      ]
    },
    {
      "name": "Bone.007",
      "translation": [
        5.052317842560157e-09,
        0.15035747461781737,
        2.933649517887456e-09
      ],
      "rotation": [
        5.711964293572152e-28,
        -0.70710693019814,
        5.024296926579126e-15,
        0.7071066321749235
      ],
      "scale": [
        1.0,
        0.9999999403953552,
        1.0
      ]
    },
    {
      "name": "Bone.004",
      "translation": [
        -0.26064475982302393,
        0.9469704529616323,
        0.2023379549361735
      ],
      "rotation": [
        0.7071069003958285,
        0.0,
        0.7071066619772453,
        4.214683785275218e-08
      ],
      "scale": [
        2.256129741668701,
        2.256129503250122,
        2.256129741668701
      ],
      "children": [
        9
      ]
    },
    {
      "name": "Bone.005",
      "translation": [
        -4.6765515228670015e-09,
        0.15035747461781737,
        2.933649517887456e-09
      ],
      "rotation": [
        5.711964293572152e-28,
        -0.70710693019814,
        5.024296926579126e-15,
        0.7071066321749235
      ],
      "scale": [
        1.0,
        0.9999999403953552,
        1.0
      ]
    },
    {
      "name": "Bone.010",
      "translation": [
        -0.17356813412276287,
        0.555328564332716,
        -0.04440050125719967
      ],
      "rotation": [
        -0.7013165160001138,
        -0.090306763823738,
        -0.7013162775815414,
        0.090306763823738
      ],
      "scale": [
        2.256129741668701,
        2.256129741668701,
        2.2561299800872803
      ],
      "children": [
        11
      ]
    },
    {
      "name": "Bone.011",
      "translation": [
        -2.7858720860424094e-09,
        0.12293285761339451,
        1.7384311108589292e-09
      ],
      "rotation": [
        0.09030678928207674,
        -0.7013165401257445,
        -0.09030682653497997,
        0.7013162421025186
      ],
      "scale": [
        0.9999999403953552,
        0.9999999403953552,
        1.0
      ]
    },
    {
      "name": "Bone.008",
      "translation": [
        0.17634960120985688,
        0.555328564332716,
        -0.04440050125719967
      ],
      "rotation": [
        -0.7013165160001138,
        -0.090306763823738,
        -0.7013162775815414,
        0.090306763823738
      ],
      "scale": [
        2.256129741668701,
        2.256129741668701,
        2.2561299800872803
      ],
      "children": [
        13
      ]
    },
    {
      "name": "Bone.009",
      "translation": [
        -3.2241054377201053e-09,
        0.12293285761339451,
        1.7384311108589292e-09
      ],
      "rotation": [
        0.09030678928207674,
        -0.7013165401257445,
        -0.09030682653497997,
        0.7013162421025186
      ],
      "scale": [
        0.9999999403953552,
        0.9999999403953552,
        1.0
      ]
    },
    {
      "name": "golem",
      "mesh": 0,
      "skin": 0
    }
  ],
  "meshes": [
    {
      "name": "golem",
      "primitives": [
        {
          "attributes": {
            "POSITION": 0,
            "TEXCOORD_0": 1,
            "JOINTS_0": 2,
            "WEIGHTS_0": 3
          },
          "indices": 4,
          "material": 0
        }
      ]
    }
  ],
  "skins": [
    {
      "inverseBindMatrices": 5,
      "joints": [
        1,
        2,
        3,
        4,
        5,
        6,
        7,
        8,
        9,
        10,
        11,
        12,
        13
      ],
      "skeleton": 1
    }
  ],
  "materials": [
    {
      "name": "body",
      "pbrMetallicRoughness": {
        "baseColorTexture": {
          "index": 0
        },
        "metallicFactor": 0.0,
        "roughnessFactor": 1.0
      },
      "doubleSided": true
    }
  ],
  "textures": [
    {
      "source": 0
    }
  ],
  "images": [
    {
      "uri": "textures/body.png"
    }
  ],
  "buffers": [
    {
      "byteLength": 53296,
      "uri": "model.bin"
    }
  ],
  "bufferViews": [
    {
      "buffer": 0,
      "byteOffset": 0,
      "byteLength": 4032,
      "target": 34962
    },
    {
      "buffer": 0,
      "byteOffset": 4032,
      "byteLength": 2688,
      "target": 34962
    },
    {
      "buffer": 0,
      "byteOffset": 6720,
      "byteLength": 1344,
      "target": 34962
    },
    {
      "buffer": 0,
      "byteOffset": 8064,
      "byteLength": 5376,
      "target": 34962
    },
    {
      "buffer": 0,
      "byteOffset": 13440,
      "byteLength": 1008,
      "target": 34963
    },
    {
      "buffer": 0,
      "byteOffset": 14448,
      "byteLength": 832
    },
    {
      "buffer": 0,
      "byteOffset": 15280,
      "byteLength": 80
    },
    {
      "buffer": 0,
      "byteOffset": 15360,
      "byteLength": 320
    },
    {
      "buffer": 0,
      "byteOffset": 15680,
      "byteLength": 80
    },
    {
      "buffer": 0,
      "byteOffset": 15760,
      "byteLength": 240
    },
    {
      "buffer": 0,
      "byteOffset": 16000,
      "byteLength": 80
    },
    {
      "buffer": 0,
      "byteOffset": 16080,
      "byteLength": 320
    },
    {
      "buffer": 0,
      "byteOffset": 16400,
      "byteLength": 80
    },
    {
      "buffer": 0,
      "byteOffset": 16480,
      "byteLength": 240
    },
    {
      "buffer": 0,
      "byteOffset": 16720,
      "byteLength": 80
    },
    {
      "buffer": 0,
      "byteOffset": 16800,
      "byteLength": 320
    },
    {
      "buffer": 0,
      "byteOffset": 17120,
      "byteLength": 80
    },
    {
      "buffer": 0,
      "byteOffset": 17200,
      "byteLength": 240
    },
    {
      "buffer": 0,
      "byteOffset": 17440,
      "byteLength": 80
    },
    {
      "buffer": 0,
      "byteOffset": 17520,
      "byteLength": 320
    },
    {
      "buffer": 0,
      "byteOffset": 17840,
      "byteLength": 80
    },
    {
      "buffer": 0,
      "byteOffset": 17920,
      "byteLength": 240
    },
    {
      "buffer": 0,
      "byteOffset": 18160,
      "byteLength": 80
    },
    {
      "buffer": 0,
      "byteOffset": 18240,
      "byteLength": 320
    },
    {
      "buffer": 0,
      "byteOffset": 18560,
      "byteLength": 80
    },
    {
      "buffer": 0,
      "byteOffset": 18640,
      "byteLength": 240
    },
    {
      "buffer": 0,
      "byteOffset": 18880,
      "byteLength": 80
    },
    {
      "buffer": 0,
      "byteOffset": 18960,
      "byteLength": 320
    },
    {
      "buffer": 0,
      "byteOffset": 19280,
      "byteLength": 80
    },
    {
      "buffer": 0,
      "byteOffset": 19360,
      "byteLength": 240
    },
    {
      "buffer": 0,
      "byteOffset": 19600,
      "byteLength": 80
    },
    {
      "buffer": 0,
      "byteOffset": 19680,
      "byteLength": 320
    },
    {
      "buffer": 0,
      "byteOffset": 20000,
      "byteLength": 80
    },
    {
      "buffer": 0,
      "byteOffset": 20080,
      "byteLength": 240
    },
    {
      "buffer": 0,
      "byteOffset": 20320,
      "byteLength": 80
    },
    {
      "buffer": 0,
      "byteOffset": 20400,
      "byteLength": 320
    },
    {
      "buffer": 0,
      "byteOffset": 20720,
      "byteLength": 80
    },
    {
      "buffer": 0,
      "byteOffset": 20800,
      "byteLength": 240
    },
    {
      "buffer": 0,
      "byteOffset": 21040,
      "byteLength": 80
    },
    {
      "buffer": 0,
      "byteOffset": 21120,
      "byteLength": 320
    },
    {
      "buffer": 0,
      "byteOffset": 21440,
      "byteLength": 80
    },
    {
      "buffer": 0,
      "byteOffset": 21520,
      "byteLength": 240
    },
    {
      "buffer": 0,
      "byteOffset": 21760,
      "byteLength": 80
    },
    {
      "buffer": 0,
      "byteOffset": 21840,
      "byteLength": 320
    },
    {
      "buffer": 0,
      "byteOffset": 22160,
      "byteLength": 80
    },
    {
      "buffer": 0,
      "byteOffset": 22240,
      "byteLength": 240
    },
    {
      "buffer": 0,
      "byteOffset": 22480,
      "byteLength": 80
    },
    {
      "buffer": 0,
      "byteOffset": 22560,
      "byteLength": 320
    },
    {
      "buffer": 0,
      "byteOffset": 22880,
      "byteLength": 80
    },
    {
      "buffer": 0,
      "byteOffset": 22960,
      "byteLength": 240
    },
    {
      "buffer": 0,
      "byteOffset": 23200,
      "byteLength": 80
    },
    {
      "buffer": 0,
      "byteOffset": 23280,
      "byteLength": 320
    },
    {
      "buffer": 0,
      "byteOffset": 23600,
      "byteLength": 80
    },
    {
      "buffer": 0,
      "byteOffset": 23680,
      "byteLength": 240
    },
    {
      "buffer": 0,
      "byteOffset": 23920,
      "byteLength": 84
    },
    {
      "buffer": 0,
      "byteOffset": 24004,
      "byteLength": 336
    },
    {
      "buffer": 0,
      "byteOffset": 24340,
      "byteLength": 84
    },
    {
      "buffer": 0,
      "byteOffset": 24424,
      "byteLength": 252
    },
    {
      "buffer": 0,
      "byteOffset": 24676,
      "byteLength": 84
    },
    {
      "buffer": 0,
      "byteOffset": 24760,
      "byteLength": 336
    },
    {
      "buffer": 0,
      "byteOffset": 25096,
      "byteLength": 84
    },
    {
      "buffer": 0,
      "byteOffset": 25180,
      "byteLength": 252
    },
    {
      "buffer": 0,
      "byteOffset": 25432,
      "byteLength": 84
    },
    {
      "buffer": 0,
      "byteOffset": 25516,
      "byteLength": 336
    },
    {
      "buffer": 0,
      "byteOffset": 25852,
      "byteLength": 84
    },
    {
      "buffer": 0,
      "byteOffset": 25936,
      "byteLength": 252
    },
    {
      "buffer": 0,
      "byteOffset": 26188,
      "byteLength": 84
    },
    {
      "buffer": 0,
      "byteOffset": 26272,
      "byteLength": 336
    },
    {
      "buffer": 0,
      "byteOffset": 26608,
      "byteLength": 84
    },
    {
      "buffer": 0,
      "byteOffset": 26692,
      "byteLength": 252
    },
    {
      "buffer": 0,
      "byteOffset": 26944,
      "byteLength": 84
    },
    {
      "buffer": 0,
      "byteOffset": 27028,
      "byteLength": 336
    },
    {
      "buffer": 0,
      "byteOffset": 27364,
      "byteLength": 84
    },
    {
      "buffer": 0,
      "byteOffset": 27448,
      "byteLength": 252
    },
    {
      "buffer": 0,
      "byteOffset": 27700,
      "byteLength": 84
    },
    {
      "buffer": 0,
      "byteOffset": 27784,
      "byteLength": 336
    },
    {
      "buffer": 0,
      "byteOffset": 28120,
      "byteLength": 84
    },
    {
      "buffer": 0,
      "byteOffset": 28204,
      "byteLength": 252
    },
    {
      "buffer": 0,
      "byteOffset": 28456,
      "byteLength": 84
    },
    {
      "buffer": 0,
      "byteOffset": 28540,
      "byteLength": 336
    },
    {
      "buffer": 0,
      "byteOffset": 28876,
      "byteLength": 84
    },
    {
      "buffer": 0,
      "byteOffset": 28960,
      "byteLength": 252
    },
    {
      "buffer": 0,
      "byteOffset": 29212,
      "byteLength": 84
    },
    {
      "buffer": 0,
      "byteOffset": 29296,
      "byteLength": 336
    },
    {
      "buffer": 0,
      "byteOffset": 29632,
      "byteLength": 84
    },
    {
      "buffer": 0,
      "byteOffset": 29716,
      "byteLength": 252
    },
    {
      "buffer": 0,
      "byteOffset": 29968,
      "byteLength": 84
    },
    {
      "buffer": 0,
      "byteOffset": 30052,
      "byteLength": 336
    },
    {
      "buffer": 0,
      "byteOffset": 30388,
      "byteLength": 84
    },
    {
      "buffer": 0,
      "byteOffset": 30472,
      "byteLength": 252
    },
    {
      "buffer": 0,
      "byteOffset": 30724,
      "byteLength": 84
    },
    {
      "buffer": 0,
      "byteOffset": 30808,
      "byteLength": 336
    },
    {
      "buffer": 0,
      "byteOffset": 31144,
      "byteLength": 84
    },
    {
      "buffer": 0,
      "byteOffset": 31228,
      "byteLength": 252
    },
    {
      "buffer": 0,
      "byteOffset": 31480,
      "byteLength": 84
    },
    {
      "buffer": 0,
      "byteOffset": 31564,
      "byteLength": 336
    },
    {
      "buffer": 0,
      "byteOffset": 31900,
      "byteLength": 84
    },
    {
      "buffer": 0,
      "byteOffset": 31984,
      "byteLength": 252
    },
    {
      "buffer": 0,
      "byteOffset": 32236,
      "byteLength": 84
    },
    {
      "buffer": 0,
      "byteOffset": 32320,
      "byteLength": 336
    },
    {
      "buffer": 0,
      "byteOffset": 32656,
      "byteLength": 84
    },
    {
      "buffer": 0,
      "byteOffset": 32740,
      "byteLength": 252
    },
    {
      "buffer": 0,
      "byteOffset": 32992,
      "byteLength": 84
    },
    {
      "buffer": 0,
      "byteOffset": 33076,
      "byteLength": 336
    },
    {
      "buffer": 0,
      "byteOffset": 33412,
      "byteLength": 84
    },
    {
      "buffer": 0,
      "byteOffset": 33496,
      "byteLength": 252
    },
    {
      "buffer": 0,
      "byteOffset": 33748,
      "byteLength": 84
    },
    {
      "buffer": 0,
      "byteOffset": 33832,
      "byteLength": 336
    },
    {
      "buffer": 0,
      "byteOffset": 34168,
      "byteLength": 84
    },
    {
      "buffer": 0,
      "byteOffset": 34252,
      "byteLength": 252
    },
    {
      "buffer": 0,
      "byteOffset": 34504,
      "byteLength": 84
    },
    {
      "buffer": 0,
      "byteOffset": 34588,
      "byteLength": 336
    },
    {
      "buffer": 0,
      "byteOffset": 34924,
      "byteLength": 84
    },
    {
      "buffer": 0,
      "byteOffset": 35008,
      "byteLength": 252
    },
    {
      "buffer": 0,
      "byteOffset": 35260,
      "byteLength": 84
    },
    {
      "buffer": 0,
      "byteOffset": 35344,
      "byteLength": 336
    },
    {
      "buffer": 0,
      "byteOffset": 35680,
      "byteLength": 84
    },
    {
      "buffer": 0,
      "byteOffset": 35764,
      "byteLength": 252
    },
    {
      "buffer": 0,
      "byteOffset": 36016,
      "byteLength": 84
    },
    {
      "buffer": 0,
      "byteOffset": 36100,
      "byteLength": 336
    },
    {
      "buffer": 0,
      "byteOffset": 36436,
      "byteLength": 84
    },
    {
      "buffer": 0,
      "byteOffset": 36520,
      "byteLength": 252
    },
    {
      "buffer": 0,
      "byteOffset": 36772,
      "byteLength": 84
    },
    {
      "buffer": 0,
      "byteOffset": 36856,
      "byteLength": 336
    },
    {
      "buffer": 0,
      "byteOffset": 37192,
      "byteLength": 84
    },
    {
      "buffer": 0,
      "byteOffset": 37276,
      "byteLength": 252
    },
    {
      "buffer": 0,
      "byteOffset": 37528,
      "byteLength": 84
    },
    {
      "buffer": 0,
      "byteOffset": 37612,
      "byteLength": 336
    },
    {
      "buffer": 0,
      "byteOffset": 37948,
      "byteLength": 84
    },
    {
      "buffer": 0,
      "byteOffset": 38032,
      "byteLength": 252
    },
    {
      "buffer": 0,
      "byteOffset": 38284,
      "byteLength": 84
    },
    {
      "buffer": 0,
      "byteOffset": 38368,
      "byteLength": 336
    },
    {
      "buffer": 0,
      "byteOffset": 38704,
      "byteLength": 84
    },
    {
      "buffer": 0,
      "byteOffset": 38788,
      "byteLength": 252
    },
    {
      "buffer": 0,
      "byteOffset": 39040,
      "byteLength": 84
    },
    {
      "buffer": 0,
      "byteOffset": 39124,
      "byteLength": 336
    },
    {
      "buffer": 0,
      "byteOffset": 39460,
      "byteLength": 84
    },
    {
      "buffer": 0,
      "byteOffset": 39544,
      "byteLength": 252
    },
    {
      "buffer": 0,
      "byteOffset": 39796,
      "byteLength": 84
    },
    {
      "buffer": 0,
      "byteOffset": 39880,
      "byteLength": 336
    },
    {
      "buffer": 0,
      "byteOffset": 40216,
      "byteLength": 84
    },
    {
      "buffer": 0,
      "byteOffset": 40300,
      "byteLength": 252
    },
    {
      "buffer": 0,
      "byteOffset": 40552,
      "byteLength": 84
    },
    {
      "buffer": 0,
      "byteOffset": 40636,
      "byteLength": 336
    },
    {
      "buffer": 0,
      "byteOffset": 40972,
      "byteLength": 84
    },
    {
      "buffer": 0,
      "byteOffset": 41056,
      "byteLength": 252
    },
    {
      "buffer": 0,
      "byteOffset": 41308,
      "byteLength": 84
    },
    {
      "buffer": 0,
      "byteOffset": 41392,
      "byteLength": 336
    },
    {
      "buffer": 0,
      "byteOffset": 41728,
      "byteLength": 84
    },
    {
      "buffer": 0,
      "byteOffset": 41812,
      "byteLength": 252
    },
    {
      "buffer": 0,
      "byteOffset": 42064,
      "byteLength": 104
    },
    {
      "buffer": 0,
      "byteOffset": 42168,
      "byteLength": 416
    },
    {
      "buffer": 0,
      "byteOffset": 42584,
      "byteLength": 104
    },
    {
      "buffer": 0,
      "byteOffset": 42688,
      "byteLength": 312
    },
    {
      "buffer": 0,
      "byteOffset": 43000,
      "byteLength": 104
    },
    {
      "buffer": 0,
      "byteOffset": 43104,
      "byteLength": 416
    },
    {
      "buffer": 0,
      "byteOffset": 43520,
      "byteLength": 104
    },
    {
      "buffer": 0,
      "byteOffset": 43624,
      "byteLength": 312
    },
    {
      "buffer": 0,
      "byteOffset": 43936,
      "byteLength": 104
    },
    {
      "buffer": 0,
      "byteOffset": 44040,
      "byteLength": 416
    },
    {
      "buffer": 0,
      "byteOffset": 44456,
      "byteLength": 104
    },
    {
      "buffer": 0,
      "byteOffset": 44560,
      "byteLength": 312
    },
    {
      "buffer": 0,
      "byteOffset": 44872,
      "byteLength": 104
    },
    {
      "buffer": 0,
      "byteOffset": 44976,
      "byteLength": 416
    },
    {
      "buffer": 0,
      "byteOffset": 45392,
      "byteLength": 104
    },
    {
      "buffer": 0,
      "byteOffset": 45496,
      "byteLength": 312
    },
    {
      "buffer": 0,
      "byteOffset": 45808,
      "byteLength": 104
    },
    {
      "buffer": 0,
      "byteOffset": 45912,
      "byteLength": 416
    },
    {
      "buffer": 0,
      "byteOffset": 46328,
      "byteLength": 104
    },
    {
      "buffer": 0,
      "byteOffset": 46432,
      "byteLength": 312
    },
    {
      "buffer": 0,
      "byteOffset": 46744,
      "byteLength": 104
    },
    {
      "buffer": 0,
      "byteOffset": 46848,
      "byteLength": 416
    },
    {
      "buffer": 0,
      "byteOffset": 47264,
      "byteLength": 104
    },
    {
      "buffer": 0,
      "byteOffset": 47368,
      "byteLength": 312
    },
    {
      "buffer": 0,
      "byteOffset": 47680,
      "byteLength": 104
    },
    {
      "buffer": 0,
      "byteOffset": 47784,
      "byteLength": 416
    },
    {
      "buffer": 0,
      "byteOffset": 48200,
      "byteLength": 104
    },
    {
      "buffer": 0,
      "byteOffset": 48304,
      "byteLength": 312
    },
    {
      "buffer": 0,
      "byteOffset": 48616,
      "byteLength": 104
    },
    {
      "buffer": 0,
      "byteOffset": 48720,
      "byteLength": 416
    },
    {
      "buffer": 0,
      "byteOffset": 49136,
      "byteLength": 104
    },
    {
      "buffer": 0,
      "byteOffset": 49240,
      "byteLength": 312
    },
    {
      "buffer": 0,
      "byteOffset": 49552,
      "byteLength": 104
    },
    {
      "buffer": 0,
      "byteOffset": 49656,
      "byteLength": 416
    },
    {
      "buffer": 0,
      "byteOffset": 50072,
      "byteLength": 104
    },
    {
      "buffer": 0,
      "byteOffset": 50176,
      "byteLength": 312
    },
    {
      "buffer": 0,
      "byteOffset": 50488,
      "byteLength": 104
    },
    {
      "buffer": 0,
      "byteOffset": 50592,
      "byteLength": 416
    },
    {
      "buffer": 0,
      "byteOffset": 51008,
      "byteLength": 104
    },
    {
      "buffer": 0,
      "byteOffset": 51112,
      "byteLength": 312
    },
    {
      "buffer": 0,
      "byteOffset": 51424,
      "byteLength": 104
    },
    {
      "buffer": 0,
      "byteOffset": 51528,
      "byteLength": 416
    },
    {
      "buffer": 0,
      "byteOffset": 51944,
      "byteLength": 104
    },
    {
      "buffer": 0,
      "byteOffset": 52048,
      "byteLength": 312
    },
    {
      "buffer": 0,
      "byteOffset": 52360,
      "byteLength": 104
    },
    {
      "buffer": 0,
      "byteOffset": 52464,
      "byteLength": 416
    },
    {
      "buffer": 0,
      "byteOffset": 52880,
      "byteLength": 104
    },
    {
      "buffer": 0,
      "byteOffset": 52984,
      "byteLength": 312
    }
  ],
  "accessors": [
    {
      "bufferView": 0,
      "componentType": 5126,
      "count": 336,
      "type": "VEC3",
      "min": [
        -0.3253707726466626,
        -0.01595855498184551,
        -0.1342348520884311
      ],
      "max": [
        0.32462922735333744,
        1.0533112372424467,
        0.3387395367113304
      ]
    },
    {
      "bufferView": 1,
      "componentType": 5126,
      "count": 336,
      "type": "VEC2"
    },
    {
      "bufferView": 2,
      "componentType": 5121,
      "count": 336,
      "type": "VEC4"
    },
    {
      "bufferView": 3,
      "componentType": 5126,
      "count": 336,
      "type": "VEC4"
    },
    {
      "bufferView": 4,
      "componentType": 5123,
      "count": 504,
      "type": "SCALAR"
    },
    {
      "bufferView": 5,
      "componentType": 5126,
      "count": 13,
      "type": "MAT4"
    },
    {
      "bufferView": 6,
      "componentType": 5126,
      "count": 20,
      "type": "SCALAR",
      "min": [
        0.0
      ],
      "max": [
        1.9
      ]
    },
    {
      "bufferView": 7,
      "componentType": 5126,
      "count": 20,
      "type": "VEC4"
    },
    {
      "bufferView": 8,
      "componentType": 5126,
      "count": 20,
      "type": "SCALAR",
      "min": [
        0.0
      ],
      "max": [
        1.9
      ]
    },
    {
      "bufferView": 9,
      "componentType": 5126,
      "count": 20,
      "type": "VEC3"
    },
    {
      "bufferView": 10,
      "componentType": 5126,
      "count": 20,
      "type": "SCALAR",
      "min": [
        0.0
      ],
      "max": [
        1.9
      ]
    },
    {
      "bufferView": 11,
      "componentType": 5126,
      "count": 20,
      "type": "VEC4"
    },
    {
      "bufferView": 12,
      "componentType": 5126,
      "count": 20,
      "type": "SCALAR",
      "min": [
        0.0
      ],
      "max": [
        1.9
      ]
    },
    {
      "bufferView": 13,
      "componentType": 5126,
      "count": 20,
      "type": "VEC3"
    },
    {
      "bufferView": 14,
      "componentType": 5126,
      "count": 20,
      "type": "SCALAR",
      "min": [
        0.0
      ],
      "max": [
        1.9
      ]
    },
    {
      "bufferView": 15,
      "componentType": 5126,
      "count": 20,
      "type": "VEC4"
    },
    {
      "bufferView": 16,
      "componentType": 5126,
      "count": 20,
      "type": "SCALAR",
      "min": [
        0.0
      ],
      "max": [
        1.9
      ]
    },
    {
      "bufferView": 17,
      "componentType": 5126,
      "count": 20,
      "type": "VEC3"
    },
    {
      "bufferView": 18,
      "componentType": 5126,
      "count": 20,
      "type": "SCALAR",
      "min": [
        0.0
      ],
      "max": [
        1.9
      ]
    },
    {
      "bufferView": 19,
      "componentType": 5126,
      "count": 20,
      "type": "VEC4"
    },
    {
      "bufferView": 20,
      "componentType": 5126,
      "count": 20,
      "type": "SCALAR",
      "min": [
        0.0
      ],
      "max": [
        1.9
      ]
    },
    {
      "bufferView": 21,
      "componentType": 5126,
      "count": 20,
      "type": "VEC3"
    },
    {
      "bufferView": 22,
      "componentType": 5126,
      "count": 20,
      "type": "SCALAR",
      "min": [
        0.0
      ],
      "max": [
        1.9
      ]
    },
    {
      "bufferView": 23,
      "componentType": 5126,
      "count": 20,
      "type": "VEC4"
    },
    {
      "bufferView": 24,
      "componentType": 5126,
      "count": 20,
      "type": "SCALAR",
      "min": [
        0.0
      ],
      "max": [
        1.9
      ]
    },
    {
      "bufferView": 25,
      "componentType": 5126,
      "count": 20,
      "type": "VEC3"
    },
    {
      "bufferView": 26,
      "componentType": 5126,
      "count": 20,
      "type": "SCALAR",
      "min": [
        0.0
      ],
      "max": [
        1.9
      ]
    },
    {
      "bufferView": 27,
      "componentType": 5126,
      "count": 20,
      "type": "VEC4"
    },
    {
      "bufferView": 28,
      "componentType": 5126,
      "count": 20,
      "type": "SCALAR",
      "min": [
        0.0
      ],
      "max": [
        1.9
      ]
    },
    {
      "bufferView": 29,
      "componentType": 5126,
      "count": 20,
      "type": "VEC3"
    },
    {
      "bufferView": 30,
      "componentType": 5126,
      "count": 20,
      "type": "SCALAR",
      "min": [
        0.0
      ],
      "max": [
        1.9
      ]
    },
    {
      "bufferView": 31,
      "componentType": 5126,
      "count": 20,
      "type": "VEC4"
    },
    {
      "bufferView": 32,
      "componentType": 5126,
      "count": 20,
      "type": "SCALAR",
      "min": [
        0.0
      ],
      "max": [
        1.9
      ]
    },
    {
      "bufferView": 33,
      "componentType": 5126,
      "count": 20,
      "type": "VEC3"
    },
    {
      "bufferView": 34,
      "componentType": 5126,
      "count": 20,
      "type": "SCALAR",
      "min": [
        0.0
      ],
      "max": [
        1.9
      ]
    },
    {
      "bufferView": 35,
      "componentType": 5126,
      "count": 20,
      "type": "VEC4"
    },
    {
      "bufferView": 36,
      "componentType": 5126,
      "count": 20,
      "type": "SCALAR",
      "min": [
        0.0
      ],
      "max": [
        1.9
      ]
    },
    {
      "bufferView": 37,
      "componentType": 5126,
      "count": 20,
      "type": "VEC3"
    },
    {
      "bufferView": 38,
      "componentType": 5126,
      "count": 20,
      "type": "SCALAR",
      "min": [
        0.0
      ],
      "max": [
        1.9
      ]
    },
    {
      "bufferView": 39,
      "componentType": 5126,
      "count": 20,
      "type": "VEC4"
    },
    {
      "bufferView": 40,
      "componentType": 5126,
      "count": 20,
      "type": "SCALAR",
      "min": [
        0.0
      ],
      "max": [
        1.9
      ]
    },
    {
      "bufferView": 41,
      "componentType": 5126,
      "count": 20,
      "type": "VEC3"
    },
    {
      "bufferView": 42,
      "componentType": 5126,
      "count": 20,
      "type": "SCALAR",
      "min": [
        0.0
      ],
      "max": [
        1.9
      ]
    },
    {
      "bufferView": 43,
      "componentType": 5126,
      "count": 20,
      "type": "VEC4"
    },
    {
      "bufferView": 44,
      "componentType": 5126,
      "count": 20,
      "type": "SCALAR",
      "min": [
        0.0
      ],
      "max": [
        1.9
      ]
    },
    {
      "bufferView": 45,
      "componentType": 5126,
      "count": 20,
      "type": "VEC3"
    },
    {
      "bufferView": 46,
      "componentType": 5126,
      "count": 20,
      "type": "SCALAR",
      "min": [
        0.0
      ],
      "max": [
        1.9
      ]
    },
    {
      "bufferView": 47,
      "componentType": 5126,
      "count": 20,
      "type": "VEC4"
    },
    {
      "bufferView": 48,
      "componentType": 5126,
      "count": 20,
      "type": "SCALAR",
      "min": [
        0.0
      ],
      "max": [
        1.9
      ]
    },
    {
      "bufferView": 49,
      "componentType": 5126,
      "count": 20,
      "type": "VEC3"
    },
    {
      "bufferView": 50,
      "componentType": 5126,
      "count": 20,
      "type": "SCALAR",
      "min": [
        0.0
      ],
      "max": [
        1.9
      ]
    },
    {
      "bufferView": 51,
      "componentType": 5126,
      "count": 20,
      "type": "VEC4"
    },
    {
      "bufferView": 52,
      "componentType": 5126,
      "count": 20,
      "type": "SCALAR",
      "min": [
        0.0
      ],
      "max": [
        1.9
      ]
    },
    {
      "bufferView": 53,
      "componentType": 5126,
      "count": 20,
      "type": "VEC3"
    },
    {
      "bufferView": 54,
      "componentType": 5126,
      "count": 21,
      "type": "SCALAR",
      "min": [
        0.0
      ],
      "max": [
        2.0
      ]
    },
    {
      "bufferView": 55,
      "componentType": 5126,
      "count": 21,
      "type": "VEC4"
    },
    {
      "bufferView": 56,
      "componentType": 5126,
      "count": 21,
      "type": "SCALAR",
      "min": [
        0.0
      ],
      "max": [
        2.0
      ]
    },
    {
      "bufferView": 57,
      "componentType": 5126,
      "count": 21,
      "type": "VEC3"
    },
    {
      "bufferView": 58,
      "componentType": 5126,
      "count": 21,
      "type": "SCALAR",
      "min": [
        0.0
      ],
      "max": [
        2.0
      ]
    },
    {
      "bufferView": 59,
      "componentType": 5126,
      "count": 21,
      "type": "VEC4"
    },
    {
      "bufferView": 60,
      "componentType": 5126,
      "count": 21,
      "type": "SCALAR",
      "min": [
        0.0
      ],
      "max": [
        2.0
      ]
    },
    {
      "bufferView": 61,
      "componentType": 5126,
      "count": 21,
      "type": "VEC3"
    },
    {
      "bufferView": 62,
      "componentType": 5126,
      "count": 21,
      "type": "SCALAR",
      "min": [
        0.0
      ],
      "max": [
        2.0
      ]
    },
    {
      "bufferView": 63,
      "componentType": 5126,
      "count": 21,
      "type": "VEC4"
    },
    {
      "bufferView": 64,
      "componentType": 5126,
      "count": 21,
      "type": "SCALAR",
      "min": [
        0.0
      ],
      "max": [
        2.0
      ]
    },
    {
      "bufferView": 65,
      "componentType": 5126,
      "count": 21,
      "type": "VEC3"
    },
    {
      "bufferView": 66,
      "componentType": 5126,
      "count": 21,
      "type": "SCALAR",
      "min": [
        0.0
      ],
      "max": [
        2.0
      ]
    },
    {
      "bufferView": 67,
      "componentType": 5126,
      "count": 21,
      "type": "VEC4"
    },
    {
      "bufferView": 68,
      "componentType": 5126,
      "count": 21,
      "type": "SCALAR",
      "min": [
        0.0
      ],
      "max": [
        2.0
      ]
    },
    {
      "bufferView": 69,
      "componentType": 5126,
      "count": 21,
      "type": "VEC3"
    },
    {
      "bufferView": 70,
      "componentType": 5126,
      "count": 21,
      "type": "SCALAR",
      "min": [
        0.0
      ],
      "max": [
        2.0
      ]
    },
    {
      "bufferView": 71,
      "componentType": 5126,
      "count": 21,
      "type": "VEC4"
    },
    {
      "bufferView": 72,
      "componentType": 5126,
      "count": 21,
      "type": "SCALAR",
      "min": [
        0.0
      ],
      "max": [
        2.0
      ]
    },
    {
      "bufferView": 73,
      "componentType": 5126,
      "count": 21,
      "type": "VEC3"
    },
    {
      "bufferView": 74,
      "componentType": 5126,
      "count": 21,
      "type": "SCALAR",
      "min": [
        0.0
      ],
      "max": [
        2.0
      ]
    },
    {
      "bufferView": 75,
      "componentType": 5126,
      "count": 21,
      "type": "VEC4"
    },
    {
      "bufferView": 76,
      "componentType": 5126,
      "count": 21,
      "type": "SCALAR",
      "min": [
        0.0
      ],
      "max": [
        2.0
      ]
    },
    {
      "bufferView": 77,
      "componentType": 5126,
      "count": 21,
      "type": "VEC3"
    },
    {
      "bufferView": 78,
      "componentType": 5126,
      "count": 21,
      "type": "SCALAR",
      "min": [
        0.0
      ],
      "max": [
        2.0
      ]
    },
    {
      "bufferView": 79,
      "componentType": 5126,
      "count": 21,
      "type": "VEC4"
    },
    {
      "bufferView": 80,
      "componentType": 5126,
      "count": 21,
      "type": "SCALAR",
      "min": [
        0.0
      ],
      "max": [
        2.0
      ]
    },
    {
      "bufferView": 81,
      "componentType": 5126,
      "count": 21,
      "type": "VEC3"
    },
    {
      "bufferView": 82,
      "componentType": 5126,
      "count": 21,
      "type": "SCALAR",
      "min": [
        0.0
      ],
      "max": [
        2.0
      ]
    },
    {
      "bufferView": 83,
      "componentType": 5126,
      "count": 21,
      "type": "VEC4"
    },
    {
      "bufferView": 84,
      "componentType": 5126,
      "count": 21,
      "type": "SCALAR",
      "min": [
        0.0
      ],
      "max": [
        2.0
      ]
    },
    {
      "bufferView": 85,
      "componentType": 5126,
      "count": 21,
      "type": "VEC3"
    },
    {
      "bufferView": 86,
      "componentType": 5126,
      "count": 21,
      "type": "SCALAR",
      "min": [
        0.0
      ],
      "max": [
        2.0
      ]
    },
    {
      "bufferView": 87,
      "componentType": 5126,
      "count": 21,
      "type": "VEC4"
    },
    {
      "bufferView": 88,
      "componentType": 5126,
      "count": 21,
      "type": "SCALAR",
      "min": [
        0.0
      ],
      "max": [
        2.0
      ]
    },
    {
      "bufferView": 89,
      "componentType": 5126,
      "count": 21,
      "type": "VEC3"
    },
    {
      "bufferView": 90,
      "componentType": 5126,
      "count": 21,
      "type": "SCALAR",
      "min": [
        0.0
      ],
      "max": [
        2.0
      ]
    },
    {
      "bufferView": 91,
      "componentType": 5126,
      "count": 21,
      "type": "VEC4"
    },
    {
      "bufferView": 92,
      "componentType": 5126,
      "count": 21,
      "type": "SCALAR",
      "min": [
        0.0
      ],
      "max": [
        2.0
      ]
    },
    {
      "bufferView": 93,
      "componentType": 5126,
      "count": 21,
      "type": "VEC3"
    },
    {
      "bufferView": 94,
      "componentType": 5126,
      "count": 21,
      "type": "SCALAR",
      "min": [
        0.0
      ],
      "max": [
        2.0
      ]
    },
    {
      "bufferView": 95,
      "componentType": 5126,
      "count": 21,
      "type": "VEC4"
    },
    {
      "bufferView": 96,
      "componentType": 5126,
      "count": 21,
      "type": "SCALAR",
      "min": [
        0.0
      ],
      "max": [
        2.0
      ]
    },
    {
      "bufferView": 97,
      "componentType": 5126,
      "count": 21,
      "type": "VEC3"
    },
    {
      "bufferView": 98,
      "componentType": 5126,
      "count": 21,
      "type": "SCALAR",
      "min": [
        0.0
      ],
      "max": [
        2.0
      ]
    },
    {
      "bufferView": 99,
      "componentType": 5126,
      "count": 21,
      "type": "VEC4"
    },
    {
      "bufferView": 100,
      "componentType": 5126,
      "count": 21,
      "type": "SCALAR",
      "min": [
        0.0
      ],
      "max": [
        2.0
      ]
    },
    {
      "bufferView": 101,
      "componentType": 5126,
      "count": 21,
      "type": "VEC3"
    },
    {
      "bufferView": 102,
      "componentType": 5126,
      "count": 21,
      "type": "SCALAR",
      "min": [
        0.0
      ],
      "max": [
        2.0
      ]
    },
    {
      "bufferView": 103,
      "componentType": 5126,
      "count": 21,
      "type": "VEC4"
    },
    {
      "bufferView": 104,
      "componentType": 5126,
      "count": 21,
      "type": "SCALAR",
      "min": [
        0.0
      ],
      "max": [
        2.0
      ]
    },
    {
      "bufferView": 105,
      "componentType": 5126,
      "count": 21,
      "type": "VEC3"
    },
    {
      "bufferView": 106,
      "componentType": 5126,
      "count": 21,
      "type": "SCALAR",
      "min": [
        0.0
      ],
      "max": [
        2.0
      ]
    },
    {
      "bufferView": 107,
      "componentType": 5126,
      "count": 21,
      "type": "VEC4"
    },
    {
      "bufferView": 108,
      "componentType": 5126,
      "count": 21,
      "type": "SCALAR",
      "min": [
        0.0
      ],
      "max": [
        2.0
      ]
    },
    {
      "bufferView": 109,
      "componentType": 5126,
      "count": 21,
      "type": "VEC3"
    },
    {
      "bufferView": 110,
      "componentType": 5126,
      "count": 21,
      "type": "SCALAR",
      "min": [
        0.0
      ],
      "max": [
        2.0
      ]
    },
    {
      "bufferView": 111,
      "componentType": 5126,
      "count": 21,
      "type": "VEC4"
    },
    {
      "bufferView": 112,
      "componentType": 5126,
      "count": 21,
      "type": "SCALAR",
      "min": [
        0.0
      ],
      "max": [
        2.0
      ]
    },
    {
      "bufferView": 113,
      "componentType": 5126,
      "count": 21,
      "type": "VEC3"
    },
    {
      "bufferView": 114,
      "componentType": 5126,
      "count": 21,
      "type": "SCALAR",
      "min": [
        0.0
      ],
      "max": [
        2.0
      ]
    },
    {
      "bufferView": 115,
      "componentType": 5126,
      "count": 21,
      "type": "VEC4"
    },
    {
      "bufferView": 116,
      "componentType": 5126,
      "count": 21,
      "type": "SCALAR",
      "min": [
        0.0
      ],
      "max": [
        2.0
      ]
    },
    {
      "bufferView": 117,
      "componentType": 5126,
      "count": 21,
      "type": "VEC3"
    },
    {
      "bufferView": 118,
      "componentType": 5126,
      "count": 21,
      "type": "SCALAR",
      "min": [
        0.0
      ],
      "max": [
        2.0
      ]
    },
    {
      "bufferView": 119,
      "componentType": 5126,
      "count": 21,
      "type": "VEC4"
    },
    {
      "bufferView": 120,
      "componentType": 5126,
      "count": 21,
      "type": "SCALAR",
      "min": [
        0.0
      ],
      "max": [
        2.0
      ]
    },
    {
      "bufferView": 121,
      "componentType": 5126,
      "count": 21,
      "type": "VEC3"
    },
    {
      "bufferView": 122,
      "componentType": 5126,
      "count": 21,
      "type": "SCALAR",
      "min": [
        0.0
      ],
      "max": [
        2.0
      ]
    },
    {
      "bufferView": 123,
      "componentType": 5126,
      "count": 21,
      "type": "VEC4"
    },
    {
      "bufferView": 124,
      "componentType": 5126,
      "count": 21,
      "type": "SCALAR",
      "min": [
        0.0
      ],
      "max": [
        2.0
      ]
    },
    {
      "bufferView": 125,
      "componentType": 5126,
      "count": 21,
      "type": "VEC3"
    },
    {
      "bufferView": 126,
      "componentType": 5126,
      "count": 21,
      "type": "SCALAR",
      "min": [
        0.0
      ],
      "max": [
        2.0
      ]
    },
    {
      "bufferView": 127,
      "componentType": 5126,
      "count": 21,
      "type": "VEC4"
    },
    {
      "bufferView": 128,
      "componentType": 5126,
      "count": 21,
      "type": "SCALAR",
      "min": [
        0.0
      ],
      "max": [
        2.0
      ]
    },
    {
      "bufferView": 129,
      "componentType": 5126,
      "count": 21,
      "type": "VEC3"
    },
    {
      "bufferView": 130,
      "componentType": 5126,
      "count": 21,
      "type": "SCALAR",
      "min": [
        0.0
      ],
      "max": [
        2.0
      ]
    },
    {
      "bufferView": 131,
      "componentType": 5126,
      "count": 21,
      "type": "VEC4"
    },
    {
      "bufferView": 132,
      "componentType": 5126,
      "count": 21,
      "type": "SCALAR",
      "min": [
        0.0
      ],
      "max": [
        2.0
      ]
    },
    {
      "bufferView": 133,
      "componentType": 5126,
      "count": 21,
      "type": "VEC3"
    },
    {
      "bufferView": 134,
      "componentType": 5126,
      "count": 21,
      "type": "SCALAR",
      "min": [
        0.0
      ],
      "max": [
        2.0
      ]
    },
    {
      "bufferView": 135,
      "componentType": 5126,
      "count": 21,
      "type": "VEC4"
    },
    {
      "bufferView": 136,
      "componentType": 5126,
      "count": 21,
      "type": "SCALAR",
      "min": [
        0.0
      ],
      "max": [
        2.0
      ]
    },
    {
      "bufferView": 137,
      "componentType": 5126,
      "count": 21,
      "type": "VEC3"
    },
    {
      "bufferView": 138,
      "componentType": 5126,
      "count": 21,
      "type": "SCALAR",
      "min": [
        0.0
      ],
      "max": [
        2.0
      ]
    },
    {
      "bufferView": 139,
      "componentType": 5126,
      "count": 21,
      "type": "VEC4"
    },
    {
      "bufferView": 140,
      "componentType": 5126,
      "count": 21,
      "type": "SCALAR",
      "min": [
        0.0
      ],
      "max": [
        2.0
      ]
    },
    {
      "bufferView": 141,
      "componentType": 5126,
      "count": 21,
      "type": "VEC3"
    },
    {
      "bufferView": 142,
      "componentType": 5126,
      "count": 21,
      "type": "SCALAR",
      "min": [
        0.0
      ],
      "max": [
        2.0
      ]
    },
    {
      "bufferView": 143,
      "componentType": 5126,
      "count": 21,
      "type": "VEC4"
    },
    {
      "bufferView": 144,
      "componentType": 5126,
      "count": 21,
      "type": "SCALAR",
      "min": [
        0.0
      ],
      "max": [
        2.0
      ]
    },
    {
      "bufferView": 145,
      "componentType": 5126,
      "count": 21,
      "type": "VEC3"
    },
    {
      "bufferView": 146,
      "componentType": 5126,
      "count": 21,
      "type": "SCALAR",
      "min": [
        0.0
      ],
      "max": [
        2.0
      ]
    },
    {
      "bufferView": 147,
      "componentType": 5126,
      "count": 21,
      "type": "VEC4"
    },
    {
      "bufferView": 148,
      "componentType": 5126,
      "count": 21,
      "type": "SCALAR",
      "min": [
        0.0
      ],
      "max": [
        2.0
      ]
    },
    {
      "bufferView": 149,
      "componentType": 5126,
      "count": 21,
      "type": "VEC3"
    },
    {
      "bufferView": 150,
      "componentType": 5126,
      "count": 26,
      "type": "SCALAR",
      "min": [
        0.0
      ],
      "max": [
        2.5
      ]
    },
    {
      "bufferView": 151,
      "componentType": 5126,
      "count": 26,
      "type": "VEC4"
    },
    {
      "bufferView": 152,
      "componentType": 5126,
      "count": 26,
      "type": "SCALAR",
      "min": [
        0.0
      ],
      "max": [
        2.5
      ]
    },
    {
      "bufferView": 153,
      "componentType": 5126,
      "count": 26,
      "type": "VEC3"
    },
    {
      "bufferView": 154,
      "componentType": 5126,
      "count": 26,
      "type": "SCALAR",
      "min": [
        0.0
      ],
      "max": [
        2.5
      ]
    },
    {
      "bufferView": 155,
      "componentType": 5126,
      "count": 26,
      "type": "VEC4"
    },
    {
      "bufferView": 156,
      "componentType": 5126,
      "count": 26,
      "type": "SCALAR",
      "min": [
        0.0
      ],
      "max": [
        2.5
      ]
    },
    {
      "bufferView": 157,
      "componentType": 5126,
      "count": 26,
      "type": "VEC3"
    },
    {
      "bufferView": 158,
      "componentType": 5126,
      "count": 26,
      "type": "SCALAR",
      "min": [
        0.0
      ],
      "max": [
        2.5
      ]
    },
    {
      "bufferView": 159,
      "componentType": 5126,
      "count": 26,
      "type": "VEC4"
    },
    {
      "bufferView": 160,
      "componentType": 5126,
      "count": 26,
      "type": "SCALAR",
      "min": [
        0.0
      ],
      "max": [
        2.5
      ]
    },
    {
      "bufferView": 161,
      "componentType": 5126,
      "count": 26,
      "type": "VEC3"
    },
    {
      "bufferView": 162,
      "componentType": 5126,
      "count": 26,
      "type": "SCALAR",
      "min": [
        0.0
      ],
      "max": [
        2.5
      ]
    },
    {
      "bufferView": 163,
      "componentType": 5126,
      "count": 26,
      "type": "VEC4"
    },
    {
      "bufferView": 164,
      "componentType": 5126,
      "count": 26,
      "type": "SCALAR",
      "min": [
        0.0
      ],
      "max": [
        2.5
      ]
    },
    {
      "bufferView": 165,
      "componentType": 5126,
      "count": 26,
      "type": "VEC3"
    },
    {
      "bufferView": 166,
      "componentType": 5126,
      "count": 26,
      "type": "SCALAR",
      "min": [
        0.0
      ],
      "max": [
        2.5
      ]
    },
    {
      "bufferView": 167,
      "componentType": 5126,
      "count": 26,
      "type": "VEC4"
    },
    {
      "bufferView": 168,
      "componentType": 5126,
      "count": 26,
      "type": "SCALAR",
      "min": [
        0.0
      ],
      "max": [
        2.5
      ]
    },
    {
      "bufferView": 169,
      "componentType": 5126,
      "count": 26,
      "type": "VEC3"
    },
    {
      "bufferView": 170,
      "componentType": 5126,
      "count": 26,
      "type": "SCALAR",
      "min": [
        0.0
      ],
      "max": [
        2.5
      ]
    },
    {
      "bufferView": 171,
      "componentType": 5126,
      "count": 26,
      "type": "VEC4"
    },
    {
      "bufferView": 172,
      "componentType": 5126,
      "count": 26,
      "type": "SCALAR",
      "min": [
        0.0
      ],
      "max": [
        2.5
      ]
    },
    {
      "bufferView": 173,
      "componentType": 5126,
      "count": 26,
      "type": "VEC3"
    },
    {
      "bufferView": 174,
      "componentType": 5126,
      "count": 26,
      "type": "SCALAR",
      "min": [
        0.0
      ],
      "max": [
        2.5
      ]
    },
    {
      "bufferView": 175,
      "componentType": 5126,
      "count": 26,
      "type": "VEC4"
    },
    {
      "bufferView": 176,
      "componentType": 5126,
      "count": 26,
      "type": "SCALAR",
      "min": [
        0.0
      ],
      "max": [
        2.5
      ]
    },
    {
      "bufferView": 177,
      "componentType": 5126,
      "count": 26,
      "type": "VEC3"
    },
    {
      "bufferView": 178,
      "componentType": 5126,
      "count": 26,
      "type": "SCALAR",
      "min": [
        0.0
      ],
      "max": [
        2.5
      ]
    },
    {
      "bufferView": 179,
      "componentType": 5126,
      "count": 26,
      "type": "VEC4"
    },
    {
      "bufferView": 180,
      "componentType": 5126,
      "count": 26,
      "type": "SCALAR",
      "min": [
        0.0
      ],
      "max": [
        2.5
      ]
    },
    {
      "bufferView": 181,
      "componentType": 5126,
      "count": 26,
      "type": "VEC3"
    },
    {
      "bufferView": 182,
      "componentType": 5126,
      "count": 26,
      "type": "SCALAR",
      "min": [
        0.0
      ],
      "max": [
        2.5
      ]
    },
    {
      "bufferView": 183,
      "componentType": 5126,
      "count": 26,
      "type": "VEC4"
    },
    {
      "bufferView": 184,
      "componentType": 5126,
      "count": 26,
      "type": "SCALAR",
      "min": [
        0.0
      ],
      "max": [
        2.5
      ]
    },
    {
      "bufferView": 185,
      "componentType": 5126,
      "count": 26,
      "type": "VEC3"
    },
    {
      "bufferView": 186,
      "componentType": 5126,
      "count": 26,
      "type": "SCALAR",
      "min": [
        0.0
      ],
      "max": [
        2.5
      ]
    },
    {
      "bufferView": 187,
      "componentType": 5126,
      "count": 26,
      "type": "VEC4"
    },
    {
      "bufferView": 188,
      "componentType": 5126,
      "count": 26,
      "type": "SCALAR",
      "min": [
        0.0
      ],
      "max": [
        2.5
      ]
    },
    {
      "bufferView": 189,
      "componentType": 5126,
      "count": 26,
      "type": "VEC3"
    },
    {
      "bufferView": 190,
      "componentType": 5126,
      "count": 26,
      "type": "SCALAR",
      "min": [
        0.0
      ],
      "max": [
        2.5
      ]
    },
    {
      "bufferView": 191,
      "componentType": 5126,
      "count": 26,
      "type": "VEC4"
    },
    {
      "bufferView": 192,
      "componentType": 5126,
      "count": 26,
      "type": "SCALAR",
      "min": [
        0.0
      ],
      "max": [
        2.5
      ]
    },
    {
      "bufferView": 193,
      "componentType": 5126,
      "count": 26,
      "type": "VEC3"
    },
    {
      "bufferView": 194,
      "componentType": 5126,
      "count": 26,
      "type": "SCALAR",
      "min": [
        0.0
      ],
      "max": [
        2.5
      ]
    },
    {
      "bufferView": 195,
      "componentType": 5126,
      "count": 26,
      "type": "VEC4"
    },
    {
      "bufferView": 196,
      "componentType": 5126,
      "count": 26,
      "type": "SCALAR",
      "min": [
        0.0
      ],
      "max": [
        2.5
      ]
    },
    {
      "bufferView": 197,
      "componentType": 5126,
      "count": 26,
      "type": "VEC3"
    }
  ],
  "animations": [
    {
      "name": "idle",
      "channels": [
        {
          "sampler": 0,
          "target": {
            "node": 2,
            "path": "rotation"
          }
        },
        {
          "sampler": 1,
          "target": {
            "node": 2,
            "path": "translation"
          }
        },
        {
          "sampler": 2,
          "target": {
            "node": 3,
            "path": "rotation"
          }
        },
        {
          "sampler": 3,
          "target": {
            "node": 3,
            "path": "translation"
          }
        },
        {
          "sampler": 4,
          "target": {
            "node": 4,
            "path": "rotation"
          }
        },
        {
          "sampler": 5,
          "target": {
            "node": 4,
            "path": "translation"
          }
        },
        {
          "sampler": 6,
          "target": {
            "node": 5,
            "path": "rotation"
          }
        },
        {
          "sampler": 7,
          "target": {
            "node": 5,
            "path": "translation"
          }
        },
        {
          "sampler": 8,
          "target": {
            "node": 6,
            "path": "rotation"
          }
        },
        {
          "sampler": 9,
          "target": {
            "node": 6,
            "path": "translation"
          }
        },
        {
          "sampler": 10,
          "target": {
            "node": 7,
            "path": "rotation"
          }
        },
        {
          "sampler": 11,
          "target": {
            "node": 7,
            "path": "translation"
          }
        },
        {
          "sampler": 12,
          "target": {
            "node": 8,
            "path": "rotation"
          }
        },
        {
          "sampler": 13,
          "target": {
            "node": 8,
            "path": "translation"
          }
        },
        {
          "sampler": 14,
          "target": {
            "node": 9,
            "path": "rotation"
          }
        },
        {
          "sampler": 15,
          "target": {
            "node": 9,
            "path": "translation"
          }
        },
        {
          "sampler": 16,
          "target": {
            "node": 10,
            "path": "rotation"
          }
        },
        {
          "sampler": 17,
          "target": {
            "node": 10,
            "path": "translation"
          }
        },
        {
          "sampler": 18,
          "target": {
            "node": 11,
            "path": "rotation"
          }
        },
        {
          "sampler": 19,
          "target": {
            "node": 11,
            "path": "translation"
          }
        },
        {
          "sampler": 20,
          "target": {
            "node": 12,
            "path": "rotation"
          }
        },
        {
          "sampler": 21,
          "target": {
            "node": 12,
            "path": "translation"
          }
        },
        {
          "sampler": 22,
          "target": {
            "node": 13,
            "path": "rotation"
          }
        },
        {
          "sampler": 23,
          "target": {
            "node": 13,
            "path": "translation"
          }
        }
      ],
      "samplers": [
        {
          "input": 6,
          "interpolation": "LINEAR",
          "output": 7
        },
        {
          "input": 8,
          "interpolation": "LINEAR",
          "output": 9
        },
        {
          "input": 10,
          "interpolation": "LINEAR",
          "output": 11
        },
        {
          "input": 12,
          "interpolation": "LINEAR",
          "output": 13
        },
        {
          "input": 14,
          "interpolation": "LINEAR",
          "output": 15
        },
        {
          "input": 16,
          "interpolation": "LINEAR",
          "output": 17
        },
        {
          "input": 18,
          "interpolation": "LINEAR",
          "output": 19
        },
        {
          "input": 20,
          "interpolation": "LINEAR",
          "output": 21
        },
        {
          "input": 22,
          "interpolation": "LINEAR",
          "output": 23
        },
        {
          "input": 24,
          "interpolation": "LINEAR",
          "output": 25
        },
        {
          "input": 26,
          "interpolation": "LINEAR",
          "output": 27
        },
        {
          "input": 28,
          "interpolation": "LINEAR",
          "output": 29
        },
        {
          "input": 30,
          "interpolation": "LINEAR",
          "output": 31
        },
        {
          "input": 32,
          "interpolation": "LINEAR",
          "output": 33
        },
        {
          "input": 34,
          "interpolation": "LINEAR",
          "output": 35
        },
        {
          "input": 36,
          "interpolation": "LINEAR",
          "output": 37
        },
        {
          "input": 38,
          "interpolation": "LINEAR",
          "output": 39
        },
        {
          "input": 40,
          "interpolation": "LINEAR",
          "output": 41
        },
        {
          "input": 42,
          "interpolation": "LINEAR",
          "output": 43
        },
        {
          "input": 44,
          "interpolation": "LINEAR",
          "output": 45
        },
        {
          "input": 46,
          "interpolation": "LINEAR",
          "output": 47
        },
        {
          "input": 48,
          "interpolation": "LINEAR",
          "output": 49
        },
        {
          "input": 50,
          "interpolation": "LINEAR",
          "output": 51
        },
        {
          "input": 52,
          "interpolation": "LINEAR",
          "output": 53
        }
      ]
    },
    {
      "name": "walk",
      "channels": [
        {
          "sampler": 0,
          "target": {
            "node": 2,
            "path": "rotation"
          }
        },
        {
          "sampler": 1,
          "target": {
            "node": 2,
            "path": "translation"
          }
        },
        {
          "sampler": 2,
          "target": {
            "node": 3,
            "path": "rotation"
          }
        },
        {
          "sampler": 3,
          "target": {
            "node": 3,
            "path": "translation"
          }
        },
        {
          "sampler": 4,
          "target": {
            "node": 4,
            "path": "rotation"
          }
        },
        {
          "sampler": 5,
          "target": {
            "node": 4,
            "path": "translation"
          }
        },
        {
          "sampler": 6,
          "target": {
            "node": 5,
            "path": "rotation"
          }
        },
        {
          "sampler": 7,
          "target": {
            "node": 5,
            "path": "translation"
          }
        },
        {
          "sampler": 8,
          "target": {
            "node": 6,
            "path": "rotation"
          }
        },
        {
          "sampler": 9,
          "target": {
            "node": 6,
            "path": "translation"
          }
        },
        {
          "sampler": 10,
          "target": {
            "node": 7,
            "path": "rotation"
          }
        },
        {
          "sampler": 11,
          "target": {
            "node": 7,
            "path": "translation"
          }
        },
        {
          "sampler": 12,
          "target": {
            "node": 8,
            "path": "rotation"
          }
        },
        {
          "sampler": 13,
          "target": {
            "node": 8,
            "path": "translation"
          }
        },
        {
          "sampler": 14,
          "target": {
            "node": 9,
            "path": "rotation"
          }
        },
        {
          "sampler": 15,
          "target": {
            "node": 9,
            "path": "translation"
          }
        },
        {
          "sampler": 16,
          "target": {
            "node": 10,
            "path": "rotation"
          }
        },
        {
          "sampler": 17,
          "target": {
            "node": 10,
            "path": "translation"
          }
        },
        {
          "sampler": 18,
          "target": {
            "node": 11,
            "path": "rotation"
          }
        },
        {
          "sampler": 19,
          "target": {
            "node": 11,
            "path": "translation"
          }
        },
        {
          "sampler": 20,
          "target": {
            "node": 12,
            "path": "rotation"
          }
        },
        {
          "sampler": 21,
          "target": {
            "node": 12,
            "path": "translation"
          }
        },
        {
          "sampler": 22,
          "target": {
            "node": 13,
            "path": "rotation"
          }
        },
        {
          "sampler": 23,
          "target": {
            "node": 13,
            "path": "translation"
          }
        }
      ],
      "samplers": [
        {
          "input": 54,
          "interpolation": "LINEAR",
          "output": 55
        },
        {
          "input": 56,
          "interpolation": "LINEAR",
          "output": 57
        },
        {
          "input": 58,
          "interpolation": "LINEAR",
          "output": 59
        },
        {
          "input": 60,
          "interpolation": "LINEAR",
          "output": 61
        },
        {
          "input": 62,
          "interpolation": "LINEAR",
          "output": 63
        },
        {
          "input": 64,
          "interpolation": "LINEAR",
          "output": 65
        },
        {
          "input": 66,
          "interpolation": "LINEAR",
          "output": 67
        },
        {
          "input": 68,
          "interpolation": "LINEAR",
          "output": 69
        },
        {
          "input": 70,
          "interpolation": "LINEAR",
          "output": 71
        },
        {
          "input": 72,
          "interpolation": "LINEAR",
          "output": 73
        },
        {
          "input": 74,
          "interpolation": "LINEAR",
          "output": 75
        },
        {
          "input": 76,
          "interpolation": "LINEAR",
          "output": 77
        },
        {
          "input": 78,
          "interpolation": "LINEAR",
          "output": 79
        },
        {
          "input": 80,
          "interpolation": "LINEAR",
          "output": 81
        },
        {
          "input": 82,
          "interpolation": "LINEAR",
          "output": 83
        },
        {
          "input": 84,
          "interpolation": "LINEAR",
          "output": 85
        },
        {
          "input": 86,
          "interpolation": "LINEAR",
          "output": 87
        },
        {
          "input": 88,
          "interpolation": "LINEAR",
          "output": 89
        },
        {
          "input": 90,
          "interpolation": "LINEAR",
          "output": 91
        },
        {
          "input": 92,
          "interpolation": "LINEAR",
          "output": 93
        },
        {
          "input": 94,
          "interpolation": "LINEAR",
          "output": 95
        },
        {
          "input": 96,
          "interpolation": "LINEAR",
          "output": 97
        },
        {
          "input": 98,
          "interpolation": "LINEAR",
          "output": 99
        },
        {
          "input": 100,
          "interpolation": "LINEAR",
          "output": 101
        }
      ]
    },
    {
      "name": "run",
      "channels": [
        {
          "sampler": 0,
          "target": {
            "node": 2,
            "path": "rotation"
          }
        },
        {
          "sampler": 1,
          "target": {
            "node": 2,
            "path": "translation"
          }
        },
        {
          "sampler": 2,
          "target": {
            "node": 3,
            "path": "rotation"
          }
        },
        {
          "sampler": 3,
          "target": {
            "node": 3,
            "path": "translation"
          }
        },
        {
          "sampler": 4,
          "target": {
            "node": 4,
            "path": "rotation"
          }
        },
        {
          "sampler": 5,
          "target": {
            "node": 4,
            "path": "translation"
          }
        },
        {
          "sampler": 6,
          "target": {
            "node": 5,
            "path": "rotation"
          }
        },
        {
          "sampler": 7,
          "target": {
            "node": 5,
            "path": "translation"
          }
        },
        {
          "sampler": 8,
          "target": {
            "node": 6,
            "path": "rotation"
          }
        },
        {
          "sampler": 9,
          "target": {
            "node": 6,
            "path": "translation"
          }
        },
        {
          "sampler": 10,
          "target": {
            "node": 7,
            "path": "rotation"
          }
        },
        {
          "sampler": 11,
          "target": {
            "node": 7,
            "path": "translation"
          }
        },
        {
          "sampler": 12,
          "target": {
            "node": 8,
            "path": "rotation"
          }
        },
        {
          "sampler": 13,
          "target": {
            "node": 8,
            "path": "translation"
          }
        },
        {
          "sampler": 14,
          "target": {
            "node": 9,
            "path": "rotation"
          }
        },
        {
          "sampler": 15,
          "target": {
            "node": 9,
            "path": "translation"
          }
        },
        {
          "sampler": 16,
          "target": {
            "node": 10,
            "path": "rotation"
          }
        },
        {
          "sampler": 17,
          "target": {
            "node": 10,
            "path": "translation"
          }
        },
        {
          "sampler": 18,
          "target": {
            "node": 11,
            "path": "rotation"
          }
        },
        {
          "sampler": 19,
          "target": {
            "node": 11,
            "path": "translation"
          }
        },
        {
          "sampler": 20,
          "target": {
            "node": 12,
            "path": "rotation"
          }
        },
        {
          "sampler": 21,
          "target": {
            "node": 12,
            "path": "translation"
          }
        },
        {
          "sampler": 22,
          "target": {
            "node": 13,
            "path": "rotation"
          }
        },
        {
          "sampler": 23,
          "target": {
            "node": 13,
            "path": "translation"
          }
        }
      ],
      "samplers": [
        {
          "input": 102,
          "interpolation": "LINEAR",
          "output": 103
        },
        {
          "input": 104,
          "interpolation": "LINEAR",
          "output": 105
        },
        {
          "input": 106,
          "interpolation": "LINEAR",
          "output": 107
        },
        {
          "input": 108,
          "interpolation": "LINEAR",
          "output": 109
        },
        {
          "input": 110,
          "interpolation": "LINEAR",
          "output": 111
        },
        {
          "input": 112,
          "interpolation": "LINEAR",
          "output": 113
        },
        {
          "input": 114,
          "interpolation": "LINEAR",
          "output": 115
        },
        {
          "input": 116,
          "interpolation": "LINEAR",
          "output": 117
        },
        {
          "input": 118,
          "interpolation": "LINEAR",
          "output": 119
        },
        {
          "input": 120,
          "interpolation": "LINEAR",
          "output": 121
        },
        {
          "input": 122,
          "interpolation": "LINEAR",
          "output": 123
        },
        {
          "input": 124,
          "interpolation": "LINEAR",
          "output": 125
        },
        {
          "input": 126,
          "interpolation": "LINEAR",
          "output": 127
        },
        {
          "input": 128,
          "interpolation": "LINEAR",
          "output": 129
        },
        {
          "input": 130,
          "interpolation": "LINEAR",
          "output": 131
        },
        {
          "input": 132,
          "interpolation": "LINEAR",
          "output": 133
        },
        {
          "input": 134,
          "interpolation": "LINEAR",
          "output": 135
        },
        {
          "input": 136,
          "interpolation": "LINEAR",
          "output": 137
        },
        {
          "input": 138,
          "interpolation": "LINEAR",
          "output": 139
        },
        {
          "input": 140,
          "interpolation": "LINEAR",
          "output": 141
        },
        {
          "input": 142,
          "interpolation": "LINEAR",
          "output": 143
        },
        {
          "input": 144,
          "interpolation": "LINEAR",
          "output": 145
        },
        {
          "input": 146,
          "interpolation": "LINEAR",
          "output": 147
        },
        {
          "input": 148,
          "interpolation": "LINEAR",
          "output": 149
        }
      ]
    },
    {
      "name": "punch",
      "channels": [
        {
          "sampler": 0,
          "target": {
            "node": 2,
            "path": "rotation"
          }
        },
        {
          "sampler": 1,
          "target": {
            "node": 2,
            "path": "translation"
          }
        },
        {
          "sampler": 2,
          "target": {
            "node": 3,
            "path": "rotation"
          }
        },
        {
          "sampler": 3,
          "target": {
            "node": 3,
            "path": "translation"
          }
        },
        {
          "sampler": 4,
          "target": {
            "node": 4,
            "path": "rotation"
          }
        },
        {
          "sampler": 5,
          "target": {
            "node": 4,
            "path": "translation"
          }
        },
        {
          "sampler": 6,
          "target": {
            "node": 5,
            "path": "rotation"
          }
        },
        {
          "sampler": 7,
          "target": {
            "node": 5,
            "path": "translation"
          }
        },
        {
          "sampler": 8,
          "target": {
            "node": 6,
            "path": "rotation"
          }
        },
        {
          "sampler": 9,
          "target": {
            "node": 6,
            "path": "translation"
          }
        },
        {
          "sampler": 10,
          "target": {
            "node": 7,
            "path": "rotation"
          }
        },
        {
          "sampler": 11,
          "target": {
            "node": 7,
            "path": "translation"
          }
        },
        {
          "sampler": 12,
          "target": {
            "node": 8,
            "path": "rotation"
          }
        },
        {
          "sampler": 13,
          "target": {
            "node": 8,
            "path": "translation"
          }
        },
        {
          "sampler": 14,
          "target": {
            "node": 9,
            "path": "rotation"
          }
        },
        {
          "sampler": 15,
          "target": {
            "node": 9,
            "path": "translation"
          }
        },
        {
          "sampler": 16,
          "target": {
            "node": 10,
            "path": "rotation"
          }
        },
        {
          "sampler": 17,
          "target": {
            "node": 10,
            "path": "translation"
          }
        },
        {
          "sampler": 18,
          "target": {
            "node": 11,
            "path": "rotation"
          }
        },
        {
          "sampler": 19,
          "target": {
            "node": 11,
            "path": "translation"
          }
        },
        {
          "sampler": 20,
          "target": {
            "node": 12,
            "path": "rotation"
          }
        },
        {
          "sampler": 21,
          "target": {
            "node": 12,
            "path": "translation"
          }
        },
        {
          "sampler": 22,
          "target": {
            "node": 13,
            "path": "rotation"
          }
        },
        {
          "sampler": 23,
          "target": {
            "node": 13,
            "path": "translation"
          }
        }
      ],
      "samplers": [
        {
          "input": 150,
          "interpolation": "LINEAR",
          "output": 151
        },
        {
          "input": 152,
          "interpolation": "LINEAR",
          "output": 153
        },
        {
          "input": 154,
          "interpolation": "LINEAR",
          "output": 155
        },
        {
          "input": 156,
          "interpolation": "LINEAR",
          "output": 157
        },
        {
          "input": 158,
          "interpolation": "LINEAR",
          "output": 159
        },
        {
          "input": 160,
          "interpolation": "LINEAR",
          "output": 161
        },
        {
          "input": 162,
          "interpolation": "LINEAR",
          "output": 163
        },
        {
          "input": 164,
          "interpolation": "LINEAR",
          "output": 165
        },
        {
          "input": 166,
          "interpolation": "LINEAR",
          "output": 167
        },
        {
          "input": 168,
          "interpolation": "LINEAR",
          "output": 169
        },
        {
          "input": 170,
          "interpolation": "LINEAR",
          "output": 171
        },
        {
          "input": 172,
          "interpolation": "LINEAR",
          "output": 173
        },
        {
          "input": 174,
          "interpolation": "LINEAR",
          "output": 175
        },
        {
          "input": 176,
          "interpolation": "LINEAR",
          "output": 177
        },
        {
          "input": 178,
          "interpolation": "LINEAR",
          "output": 179
        },
        {
          "input": 180,
          "interpolation": "LINEAR",
          "output": 181
        },
        {
          "input": 182,
          "interpolation": "LINEAR",
          "output": 183
        },
        {
          "input": 184,
          "interpolation": "LINEAR",
          "output": 185
        },
        {
          "input": 186,
          "interpolation": "LINEAR",
          "output": 187
        },
        {
          "input": 188,
          "interpolation": "LINEAR",
          "output": 189
        },
        {
          "input": 190,
          "interpolation": "LINEAR",
          "output": 191
        },
        {
          "input": 192,
          "interpolation": "LINEAR",
          "output": 193
        },
        {
          "input": 194,
          "interpolation": "LINEAR",
          "output": 195
        },
        {
          "input": 196,
          "interpolation": "LINEAR",
          "output": 197
        }
      ]
    }
  ]
}