{
  "asset": {
    "version": "2.0",
    "generator": "b3d_export_gltf.py"
  },
  "scene": 0,
  "scenes": [
    {
      "nodes": [
        0
      ]
    }
  ],
  "nodes": [
    {
      "name": "armature",
      "children": [
        25
      ]
    },
    {
      "name": "ROOT",
      "translation": [
        0.0,
        0.0,
        0.0
      ],
      "rotation": [
        0.0,
        0.0,
        0.0,
        1.0
      ],
      "scale": [
        1.0,
        1.0,
        1.0
      ],
      "children": [
        2,
        3,
        4,
        5,
        6,
        8,
        10,
        12,
        14,
        16,
        18,
        20,
        22,
        23
      ]
    },
    {
      "name": "cube.002",
      "translation": [
        0.00283961296081543,
        0.18415775299072265,
        0.4122129440307617
      ],
      "rotation": [
        0.0,
        -0.7063619571034829,
        0.0,
        0.7078508215414724
      ],
      "scale": [
        0.49457859992980957,
        0.49457859992980957,
        0.49457859992980957
      ]
    },
    {
      "name": "cube.003",
      "translation": [
        0.10165095329284668,
        0.28307347297668456,
        0.46187891960144045
      ],
      "rotation": [
        0.0,
        -0.7063619571034829,
        0.0,
        0.7078508215414724
      ],
      "scale": [
        0.49457859992980957,
        0.49457859992980957,
        0.49457859992980957
      ]
    },
    {
      "name": "cube.004",
      "translation": [
        -0.09618005752563477,
        0.28307347297668456,
        0.46146235466003416
      ],
      "rotation": [
        0.0,
        -0.7063619571034829,
        0.0,
        0.7078508215414724
      ],
      "scale": [
        0.49457859992980957,
        0.49457859992980957,
        0.49457859992980957
      ]
    },
    {
      "name": "cube.005",
      "translation": [
        0.0039330005645751955,
        0.060513103008270265,
        -0.10709341764450073
      ],
      "rotation": [
        0.0,
        -0.7063619571034829,
        0.0,
        0.7078508215414724
      ],
      "scale": [
        0.49457859992980957,
        0.49457859992980957,
        0.49457859992980957
      ]
    },
    {
      "name": "cube.006",
      "translation": [
        0.0,
        0.0,
        0.0
      ],
      "rotation": [
        0.0,
        0.0,
        0.0,
        1.0
      ],
      "scale": [
        1.0,
        1.0,
        1.0
      ],
      "children": [
        7
      ]
    },
    {
      "name": "Bone",
      "translation": [
        0.0,
        0.07028793692588806,
        -0.10012630224227906
      ],
      "rotation": [
        0.0,
        -0.6936454039682721,
        0.7203166342336491,
        0.0
      ],
      "scale": [
        1.6172738075256348,
        1.6172739267349243,
        1.6172739267349243
      ]
    },
    {
      "name": "cube.007",
      "translation": [
        0.0,
        0.0,
        0.0
      ],
      "rotation": [
        0.0,
        0.0,
        0.0,
        1.0
      ],
      "scale": [
        1.0,
        1.0,
        1.0
      ],
      "children": [
        9
      ]
    },
    {
      "name": "Bone",
      "translation": [
        0.0,
        0.07028793692588806,
        -0.3373969078063965
      ],
      "rotation": [
        0.0,
        -0.6936454039682721,
        0.7203166342336491,
        0.0
      ],
      "scale": [
        1.6172738075256348,
        1.6172739267349243,
        1.6172739267349243
      ]
    },
    {
      "name": "cube.008",
      "translation": [
        0.0,
        0.0,
        0.0
      ],
      "rotation": [
        0.0,
        0.0,
        0.0,
        1.0
      ],
      "scale": [
        1.0,
        1.0,
        1.0
      ],
      "children": [
        11
      ]
    },
    {
      "name": "Bone",
      "translation": [
        0.0,
        0.07028793692588806,
        -0.8391602516174317
      ],
      "rotation": [
        0.0,
        -0.6936454039682721,
        0.7203166342336491,
        0.0
      ],
      "scale": [
        1.6172738075256348,
        1.6172739267349243,
        1.6172739267349243
      ]
    },
    {
      "name": "cube.009",
      "translation": [
        0.0,
        0.0,
        0.0
      ],
      "rotation": [
        0.0,
        0.0,
        0.0,
        1.0
      ],
      "scale": [
        1.0,
        1.0,
        1.0
      ],
      "children": [
        13
      ]
    },
    {
      "name": "Bone",
      "translation": [
        -0.25115463733673093,
        0.033863550424575804,
        0.5622349739074707
      ],
      "rotation": [
        -0.6883762001670549,
        0.7253538495407374,
        0.0,
        0.0
      ],
      "scale": [
        1.7619315385818481,
        1.7619315385818481,
        1.7619314193725586
      ]
    },
    {
      "name": "cube.010",
      "translation": [
        0.0,
        0.0,
        0.0
      ],
      "rotation": [
        0.0,
        0.0,
        0.0,
        1.0
      ],
      "scale": [
        1.0,
        1.0,
        1.0
      ],
      "children": [
        15
      ]
    },
    {
      "name": "Bone",
      "translation": [
        -0.25115463733673093,
        0.033863550424575804,
        0.2087454080581665
      ],
      "rotation": [
        -0.6883762001670549,
        0.7253538495407374,
        0.0,
        0.0
      ],
      "scale": [
        1.7619315385818481,
        1.7619315385818481,
        1.7619314193725586
      ]
    },
    {
      "name": "cube.011",
      "translation": [
        0.0,
        0.0,
        0.0
      ],
      "rotation": [
        0.0,
        0.0,
        0.0,
        1.0
      ],
      "scale": [
        1.0,
        1.0,
        1.0
      ],
      "children": [
        17
      ]
    },
    {
      "name": "Bone",
      "translation": [
        0.26833248138427734,
        0.033863550424575804,
        0.1999519109725952
      ],
      "rotation": [
        -0.009533329775349993,
        0.01004543332057222,
        0.6883101993317892,
        0.7252842714333664
      ],
      "scale": [
        1.7619315385818481,
        1.7619314193725586,
        1.761931300163269
      ]
    },
    {
      "name": "cube.012",
      "translation": [
        0.0,
        0.0,
        0.0
      ],
      "rotation": [
        0.0,
        0.0,
        0.0,
        1.0
      ],
      "scale": [
        1.0,
        1.0,
        1.0
      ],
      "children": [
        19
      ]
    },
    {
      "name": "Bone",
      "translation": [
        0.11242700815200805,
        0.033863550424575804,
        -0.1416330337524414
      ],
      "rotation": [
        -0.009533329775349993,
        0.01004543332057222,
        0.6883101993317892,
        0.7252842714333664
      ],
      "scale": [
        1.7619315385818481,
        1.7619314193725586,
        1.761931300163269
      ]
    },
    {
      "name": "cube.013",
      "translation": [
        0.0,
        0.0,
        0.0
      ],
      "rotation": [
        0.0,
        0.0,
        0.0,
        1.0
      ],
      "scale": [
        1.0,
        1.0,
        1.0
      ],
      "children": [
        21
      ]
    },
    {
      "name": "Bone",
      "translation": [
        -0.08533928394317628,
        0.033863550424575804,
        -0.1416330337524414
      ],
      "rotation": [
        -0.6883762001670549,
        0.7253538495407374,
        0.0,
        0.0
      ],
      "scale": [
        1.7619315385818481,
        1.7619315385818481,
        1.7619314193725586
      ]
    },
    {
      "name": "cube.001",
      "translation": [
        0.0029958248138427734,
        0.08270589113235474,
        0.3380263090133667
      ],
      "rotation": [
        0.0,
        -0.7063619571034829,
        0.0,
        0.7078508215414724
      ],
      "scale": [
        0.49457859992980957,
        0.49457859992980957,
        0.49457859992980957
      ]
    },
    {
      "name": "cube",
      "translation": [
        0.0,
        0.0,
        0.0
      ],
      "rotation": [
        0.0,
        0.0,
        0.0,
        1.0
      ],
      "scale": [
        1.0,
        1.0,
        1.0
      ],
      "children": [
        24
      ]
    },
    {
      "name": "Bone",
      "translation": [
        0.26833248138427734,
        0.033863550424575804,
        0.5503559112548828
      ],
      "rotation": [
        -0.009533329775349993,
        0.01004543332057222,
        0.6883101993317892,
        0.7252842714333664
      ],
      "scale": [
        1.7619315385818481,
        1.7619314193725586,
        1.761931300163269
      ]
    },
    {
      "name": "stingray",
      "mesh": 0,
      "skin": 0
    }
  ],
  "meshes": [
    {
      "name": "stingray",
      "primitives": [
        {
          "attributes": {
            "POSITION": 0,
            "TEXCOORD_0": 1,
            "JOINTS_0": 2,
            "WEIGHTS_0": 3
          },
          "indices": 4,
          "material": 0
        },
        {
          "attributes": {
            "POSITION": 5,
            "TEXCOORD_0": 6,
            "JOINTS_0": 7,
            "WEIGHTS_0": 8
          },
          "indices": 9,
          "material": 1
        },
        {
          "attributes": {
            "POSITION": 10,
            "TEXCOORD_0": 11,
            "JOINTS_0": 12,
            "WEIGHTS_0": 13
          },
          "indices": 14,
          "material": 2
        }
      ]
    }
  ],
  "skins": [
    {
      "inverseBindMatrices": 15,
      "joints": [
        1,
        2,
        3,
        4,
        5,
        6,
        7,
        8,
        9,
        10,
        11,
        12,
        13,
        14,
        15,
        16,
        17,
        18,
        19,
        20,
        21,
        22,
        23,
        24
      ],
      "skeleton": 1
    }
  ],
  "materials": [
    {
      "name": "body",
      "pbrMetallicRoughness": {
        "baseColorTexture": {
          "index": 0
        },
        "metallicFactor": 0.0,
        "roughnessFactor": 1.0
      },
      "doubleSided": true
    },
    {
      "name": "face",
      "pbrMetallicRoughness": {
        "baseColorTexture": {
          "index": 1
        },
        "metallicFactor": 0.0,
        "roughnessFactor": 1.0
      },
      "doubleSided": true
    },
    {
      "name": "leg",
      "pbrMetallicRoughness": {
        "baseColorTexture": {
          "index": 2
        },
        "metallicFactor": 0.0,
        "roughnessFactor": 1.0
      },
      "doubleSided": true
    }
  ],
  "textures": [
    {
      "source": 0
    },
    {
      "source": 1
    },
    {
      "source": 2
    }
  ],
  "images": [
    {
      "uri": "textures/body.png"
    },
    {
      "uri": "textures/face.png"
    },
    {
      "uri": "textures/leg.png"
    }
  ],
  "buffers": [
    {
      "byteLength": 147520,
      "uri": "model.bin"
    }
  ],
  "bufferViews": [
    {
      "buffer": 0,
      "byteOffset": 0,
      "byteLength": 3552,
      "target": 34962
    },
    {
      "buffer": 0,
      "byteOffset": 3552,
      "byteLength": 2368,
      "target": 34962
    },
    {
      "buffer": 0,
      "byteOffset": 5920,
      "byteLength": 1184,
      "target": 34962
    },
    {
      "buffer": 0,
      "byteOffset": 7104,
      "byteLength": 4736,
      "target": 34962
    },
    {
      "buffer": 0,
      "byteOffset": 11840,
      "byteLength": 864,
      "target": 34963
    },
    {
      "buffer": 0,
      "byteOffset": 12704,
      "byteLength": 216,
      "target": 34962
    },
    {
      "buffer": 0,
      "byteOffset": 12920,
      "byteLength": 144,
      "target": 34962
    },
    {
      "buffer": 0,
      "byteOffset": 13064,
      "byteLength": 72,
      "target": 34962
    },
    {
      "buffer": 0,
      "byteOffset": 13136,
      "byteLength": 288,
      "target": 34962
    },
    {
      "buffer": 0,
      "byteOffset": 13424,
      "byteLength": 48,
      "target": 34963
    },
    {
      "buffer": 0,
      "byteOffset": 13472,
      "byteLength": 456,
      "target": 34962
    },
    {
      "buffer": 0,
      "byteOffset": 13928,
      "byteLength": 304,
      "target": 34962
    },
    {
      "buffer": 0,
      "byteOffset": 14232,
      "byteLength": 152,
      "target": 34962
    },
    {
      "buffer": 0,
      "byteOffset": 14384,
      "byteLength": 608,
      "target": 34962
    },
    {
      "buffer": 0,
      "byteOffset": 14992,
      "byteLength": 96,
      "target": 34963
    },
    {
      "buffer": 0,
      "byteOffset": 15088,
      "byteLength": 1536
    },
    {
      "buffer": 0,
      "byteOffset": 16624,
      "byteLength": 404
    },
    {
      "buffer": 0,
      "byteOffset": 17028,
      "byteLength": 1616
    },
    {
      "buffer": 0,
      "byteOffset": 18644,
      "byteLength": 404
    },
    {
      "buffer": 0,
      "byteOffset": 19048,
      "byteLength": 1212
    },
    {
      "buffer": 0,
      "byteOffset": 20260,
      "byteLength": 404
    },
    {
      "buffer": 0,
      "byteOffset": 20664,
      "byteLength": 1616
    },
    {
      "buffer": 0,
      "byteOffset": 22280,
      "byteLength": 404
    },
    {
      "buffer": 0,
      "byteOffset": 22684,
      "byteLength": 1212
    },
    {
      "buffer": 0,
      "byteOffset": 23896,
      "byteLength": 404
    },
    {
      "buffer": 0,
      "byteOffset": 24300,
      "byteLength": 1616
    },
    {
      "buffer": 0,
      "byteOffset": 25916,
      "byteLength": 404
    },
    {
      "buffer": 0,
      "byteOffset": 26320,
      "byteLength": 1212
    },
    {
      "buffer": 0,
      "byteOffset": 27532,
      "byteLength": 404
    },
    {
      "buffer": 0,
      "byteOffset": 27936,
      "byteLength": 1616
    },
    {
      "buffer": 0,
      "byteOffset": 29552,
      "byteLength": 404
    },
    {
      "buffer": 0,
      "byteOffset": 29956,
      "byteLength": 1212
    },
    {
      "buffer": 0,
      "byteOffset": 31168,
      "byteLength": 404
    },
    {
      "buffer": 0,
      "byteOffset": 31572,
      "byteLength": 1616
    },
    {
      "buffer": 0,
      "byteOffset": 33188,
      "byteLength": 404
    },
    {
      "buffer": 0,
      "byteOffset": 33592,
      "byteLength": 1212
    },
    {
      "buffer": 0,
      "byteOffset": 34804,
      "byteLength": 404
    },
    {
      "buffer": 0,
      "byteOffset": 35208,
      "byteLength": 1616
    },
    {
      "buffer": 0,
      "byteOffset": 36824,
      "byteLength": 404
    },
    {
      "buffer": 0,
      "byteOffset": 37228,
      "byteLength": 1212
    },
    {
      "buffer": 0,
      "byteOffset": 38440,
      "byteLength": 404
    },
    {
      "buffer": 0,
      "byteOffset": 38844,
      "byteLength": 1616
    },
    {
      "buffer": 0,
      "byteOffset": 40460,
      "byteLength": 404
    },
    {
      "buffer": 0,
      "byteOffset": 40864,
      "byteLength": 1212
    },
    {
      "buffer": 0,
      "byteOffset": 42076,
      "byteLength": 404
    },
    {
      "buffer": 0,
      "byteOffset": 42480,
      "byteLength": 1616
    },
    {
      "buffer": 0,
      "byteOffset": 44096,
      "byteLength": 404
    },
    {
      "buffer": 0,
      "byteOffset": 44500,
      "byteLength": 1212
    },
    {
      "buffer": 0,
      "byteOffset": 45712,
      "byteLength": 404
    },
    {
      "buffer": 0,
      "byteOffset": 46116,
      "byteLength": 1616
    },
    {
      "buffer": 0,
      "byteOffset": 47732,
      "byteLength": 404
    },
    {
      "buffer": 0,
      "byteOffset": 48136,
      "byteLength": 1212
    },
    {
      "buffer": 0,
      "byteOffset": 49348,
      "byteLength": 404
    },
    {
      "buffer": 0,
      "byteOffset": 49752,
      "byteLength": 1616
    },
    {
      "buffer": 0,
      "byteOffset": 51368,
      "byteLength": 404
    },
    {
      "buffer": 0,
      "byteOffset": 51772,
      "byteLength": 1212
    },
    {
      "buffer": 0,
      "byteOffset": 52984,
      "byteLength": 404
    },
    {
      "buffer": 0,
      "byteOffset": 53388,
      "byteLength": 1616
    },
    {
      "buffer": 0,
      "byteOffset": 55004,
      "byteLength": 404
    },
    {
      "buffer": 0,
      "byteOffset": 55408,
      "byteLength": 1212
    },
    {
      "buffer": 0,
      "byteOffset": 56620,
      "byteLength": 404
    },
    {
      "buffer": 0,
      "byteOffset": 57024,
      "byteLength": 1616
    },
    {
      "buffer": 0,
      "byteOffset": 58640,
      "byteLength": 404
    },
    {
      "buffer": 0,
      "byteOffset": 59044,
      "byteLength": 1212
    },
    {
      "buffer": 0,
      "byteOffset": 60256,
      "byteLength": 404
    },
    {
      "buffer": 0,
      "byteOffset": 60660,
      "byteLength": 1616
    },
    {
      "buffer": 0,
      "byteOffset": 62276,
      "byteLength": 404
    },
    {
      "buffer": 0,
      "byteOffset": 62680,
      "byteLength": 1212
    },
    {
      "buffer": 0,
      "byteOffset": 63892,
      "byteLength": 404
    },
    {
      "buffer": 0,
      "byteOffset": 64296,
      "byteLength": 1616
    },
    {
      "buffer": 0,
      "byteOffset": 65912,
      "byteLength": 404
    },
    {
      "buffer": 0,
      "byteOffset": 66316,
      "byteLength": 1212
    },
    {
      "buffer": 0,
      "byteOffset": 67528,
      "byteLength": 404
    },
    {
      "buffer": 0,
      "byteOffset": 67932,
      "byteLength": 1616
    },
    {
      "buffer": 0,
      "byteOffset": 69548,
      "byteLength": 404
    },
    {
      "buffer": 0,
      "byteOffset": 69952,
      "byteLength": 1212
    },
    {
      "buffer": 0,
      "byteOffset": 71164,
      "byteLength": 404
    },
    {
      "buffer": 0,
      "byteOffset": 71568,
      "byteLength": 1616
    },
    {
      "buffer": 0,
      "byteOffset": 73184,
      "byteLength": 404
    },
    {
      "buffer": 0,
      "byteOffset": 73588,
      "byteLength": 1212
    },
    {
      "buffer": 0,
      "byteOffset": 74800,
      "byteLength": 404
    },
    {
      "buffer": 0,
      "byteOffset": 75204,
      "byteLength": 1616
    },
    {
      "buffer": 0,
      "byteOffset": 76820,
      "byteLength": 404
    },
    {
      "buffer": 0,
      "byteOffset": 77224,
      "byteLength": 1212
    },
    {
      "buffer": 0,
      "byteOffset": 78436,
      "byteLength": 404
    },
    {
      "buffer": 0,
      "byteOffset": 78840,
      "byteLength": 1616
    },
    {
      "buffer": 0,
      "byteOffset": 80456,
      "byteLength": 404
    },
    {
      "buffer": 0,
      "byteOffset": 80860,
      "byteLength": 1212
    },
    {
      "buffer": 0,
      "byteOffset": 82072,
      "byteLength": 404
    },
    {
      "buffer": 0,
      "byteOffset": 82476,
      "byteLength": 1616
    },
    {
      "buffer": 0,
      "byteOffset": 84092,
      "byteLength": 404
    },
    {
      "buffer": 0,
      "byteOffset": 84496,
      "byteLength": 1212
    },
    {
      "buffer": 0,
      "byteOffset": 85708,
      "byteLength": 404
    },
    {
      "buffer": 0,
      "byteOffset": 86112,
      "byteLength": 1616
    },
    {
      "buffer": 0,
      "byteOffset": 87728,
      "byteLength": 404
    },
    {
      "buffer": 0,
      "byteOffset": 88132,
      "byteLength": 1212
    },
    {
      "buffer": 0,
      "byteOffset": 89344,
      "byteLength": 404
    },
    {
      "buffer": 0,
      "byteOffset": 89748,
      "byteLength": 1616
    },
    {
      "buffer": 0,
      "byteOffset": 91364,
      "byteLength": 404
    },
    {
      "buffer": 0,
      "byteOffset": 91768,
      "byteLength": 1212
    },
    {
      "buffer": 0,
      "byteOffset": 92980,
      "byteLength": 404
    },
    {
      "buffer": 0,
      "byteOffset": 93384,
      "byteLength": 1616
    },
    {
      "buffer": 0,
      "byteOffset": 95000,
      "byteLength": 404
    },
    {
      "buffer": 0,
      "byteOffset": 95404,
      "byteLength": 1212
    },
    {
      "buffer": 0,
      "byteOffset": 96616,
      "byteLength": 404
    },
    {
      "buffer": 0,
      "byteOffset": 97020,
      "byteLength": 1616
    },
    {
      "buffer": 0,
      "byteOffset": 98636,
      "byteLength": 404
    },
    {
      "buffer": 0,
      "byteOffset": 99040,
      "byteLength": 1212
    },
    {
      "buffer": 0,
      "byteOffset": 100252,
      "byteLength": 404
    },
    {
      "buffer": 0,
      "byteOffset": 100656,
      "byteLength": 1616
    },
    {
      "buffer": 0,
      "byteOffset": 102272,
      "byteLength": 404
    },
    {
      "buffer": 0,
      "byteOffset": 102676,
      "byteLength": 1212
    },
    {
      "buffer": 0,
      "byteOffset": 103888,
      "byteLength": 404
    },
    {
      "buffer": 0,
      "byteOffset": 104292,
      "byteLength": 1616
    },
    {
      "buffer": 0,
      "byteOffset": 105908,
      "byteLength": 404
    },
    {
      "buffer": 0,
      "byteOffset": 106312,
      "byteLength": 1212
    },
    {
      "buffer": 0,
      "byteOffset": 107524,
      "byteLength": 404
    },
    {
      "buffer": 0,
      "byteOffset": 107928,
      "byteLength": 1616
    },
    {
      "buffer": 0,
      "byteOffset": 109544,
      "byteLength": 404
    },
    {
      "buffer": 0,
      "byteOffset": 109948,
      "byteLength": 1212
    },
    {
      "buffer": 0,
      "byteOffset": 111160,
      "byteLength": 404
    },
    {
      "buffer": 0,
      "byteOffset": 111564,
      "byteLength": 1616
    },
    {
      "buffer": 0,
      "byteOffset": 113180,
      "byteLength": 404
    },
    {
      "buffer": 0,
      "byteOffset": 113584,
      "byteLength": 1212
    },
    {
      "buffer": 0,
      "byteOffset": 114796,
      "byteLength": 404
    },
    {
      "buffer": 0,
      "byteOffset": 115200,
      "byteLength": 1616
    },
    {
      "buffer": 0,
      "byteOffset": 116816,
      "byteLength": 404
    },
    {
      "buffer": 0,
      "byteOffset": 117220,
      "byteLength": 1212
    },
    {
      "buffer": 0,
      "byteOffset": 118432,
      "byteLength": 404
    },
    {
      "buffer": 0,
      "byteOffset": 118836,
      "byteLength": 1616
    },
    {
      "buffer": 0,
      "byteOffset": 120452,
      "byteLength": 404
    },
    {
      "buffer": 0,
      "byteOffset": 120856,
      "byteLength": 1212
    },
    {
      "buffer": 0,
      "byteOffset": 122068,
      "byteLength": 404
    },
    {
      "buffer": 0,
      "byteOffset": 122472,
      "byteLength": 1616
    },
    {
      "buffer": 0,
      "byteOffset": 124088,
      "byteLength": 404
    },
    {
      "buffer": 0,
      "byteOffset": 124492,
      "byteLength": 1212
    },
    {
      "buffer": 0,
      "byteOffset": 125704,
      "byteLength": 404
    },
    {
      "buffer": 0,
      "byteOffset": 126108,
      "byteLength": 1616
    },
    {
      "buffer": 0,
      "byteOffset": 127724,
      "byteLength": 404
    },
    {
      "buffer": 0,
      "byteOffset": 128128,
      "byteLength": 1212
    },
    {
      "buffer": 0,
      "byteOffset": 129340,
      "byteLength": 404
    },
    {
      "buffer": 0,
      "byteOffset": 129744,
      "byteLength": 1616
    },
    {
      "buffer": 0,
      "byteOffset": 131360,
      "byteLength": 404
    },
    {
      "buffer": 0,
      "byteOffset": 131764,
      "byteLength": 1212
    },
    {
      "buffer": 0,
      "byteOffset": 132976,
      "byteLength": 404
    },
    {
      "buffer": 0,
      "byteOffset": 133380,
      "byteLength": 1616
    },
    {
      "buffer": 0,
      "byteOffset": 134996,
      "byteLength": 404
    },
    {
      "buffer": 0,
      "byteOffset": 135400,
      "byteLength": 1212
    },
    {
      "buffer": 0,
      "byteOffset": 136612,
      "byteLength": 404
    },
    {
      "buffer": 0,
      "byteOffset": 137016,
      "byteLength": 1616
    },
    {
      "buffer": 0,
      "byteOffset": 138632,
      "byteLength": 404
    },
    {
      "buffer": 0,
      "byteOffset": 139036,
      "byteLength": 1212
    },
    {
      "buffer": 0,
      "byteOffset": 140248,
      "byteLength": 404
    },
    {
      "buffer": 0,
      "byteOffset": 140652,
      "byteLength": 1616
    },
    {
      "buffer": 0,
      "byteOffset": 142268,
      "byteLength": 404
    },
    {
      "buffer": 0,
      "byteOffset": 142672,
      "byteLength": 1212
    },
    {
      "buffer": 0,
      "byteOffset": 143884,
      "byteLength": 404
    },
    {
      "buffer": 0,
      "byteOffset": 144288,
      "byteLength": 1616
    },
    {
      "buffer": 0,
      "byteOffset": 145904,
      "byteLength": 404
    },
    {
      "buffer": 0,
      "byteOffset": 146308,
      "byteLength": 1212
    }
  ],
  "accessors": [
    {
      "bufferView": 0,
      "componentType": 5126,
      "count": 296,
      "type": "VEC3",
      "min": [
        -0.7884842872619628,
        0.007393237948417663,
        -1.4602932929992676
      ],
      "max": [
        0.7951007843017578,
        0.357260262966156,
        0.8092287063598633
      ]
    },
    {
      "bufferView": 1,
      "componentType": 5126,
      "count": 296,
      "type": "VEC2"
    },
    {
      "bufferView": 2,
      "componentType": 5121,
      "count": 296,
      "type": "VEC4"
    },
    {
      "bufferView": 3,
      "componentType": 5126,
      "count": 296,
      "type": "VEC4"
    },
    {
      "bufferView": 4,
      "componentType": 5123,
      "count": 432,
      "type": "SCALAR"
    },
    {
      "bufferView": 5,
      "componentType": 5126,
      "count": 18,
      "type": "VEC3",
      "min": [
        -0.5897161960601807,
        0.008519101142883304,
        -0.32965328693389895
      ],
      "max": [
        0.5484368801116943,
        0.357260262966156,
        0.709584258953146
      ]
    },
    {
      "bufferView": 6,
      "componentType": 5126,
      "count": 18,
      "type": "VEC2"
    },
    {
      "bufferView": 7,
      "componentType": 5121,
      "count": 18,
      "type": "VEC4"
    },
    {
      "bufferView": 8,
      "componentType": 5126,
      "count": 18,
      "type": "VEC4"
    },
    {
      "bufferView": 9,
      "componentType": 5123,
      "count": 24,
      "type": "SCALAR"
    },
    {
      "bufferView": 10,
      "componentType": 5126,
      "count": 38,
      "type": "VEC3",
      "min": [
        -0.19540793664015113,
        0.007393237948417663,
        -1.4602932929992676
      ],
      "max": [
        0.5484368801116943,
        0.357260262966156,
        0.609627397300886
      ]
    },
    {
      "bufferView": 11,
      "componentType": 5126,
      "count": 38,
      "type": "VEC2"
    },
    {
      "bufferView": 12,
      "componentType": 5121,
      "count": 38,
      "type": "VEC4"
    },
    {
      "bufferView": 13,
      "componentType": 5126,
      "count": 38,
      "type": "VEC4"
    },
    {
      "bufferView": 14,
      "componentType": 5123,
      "count": 48,
      "type": "SCALAR"
    },
    {
      "bufferView": 15,
      "componentType": 5126,
      "count": 24,
      "type": "MAT4"
    },
    {
      "bufferView": 16,
      "componentType": 5126,
      "count": 101,
      "type": "SCALAR",
      "min": [
        0.0
      ],
      "max": [
        1.0
      ]
    },
    {
      "bufferView": 17,
      "componentType": 5126,
      "count": 101,
      "type": "VEC4"
    },
    {
      "bufferView": 18,
      "componentType": 5126,
      "count": 101,
      "type": "SCALAR",
      "min": [
        0.0
      ],
      "max": [
        1.0
      ]
    },
    {
      "bufferView": 19,
      "componentType": 5126,
      "count": 101,
      "type": "VEC3"
    },
    {
      "bufferView": 20,
      "componentType": 5126,
      "count": 101,
      "type": "SCALAR",
      "min": [
        0.0
      ],
      "max": [
        1.0
      ]
    },
    {
      "bufferView": 21,
      "componentType": 5126,
      "count": 101,
      "type": "VEC4"
    },
    {
      "bufferView": 22,
      "componentType": 5126,
      "count": 101,
      "type": "SCALAR",
      "min": [
        0.0
      ],
      "max": [
        1.0
      ]
    },
    {
      "bufferView": 23,
      "componentType": 5126,
      "count": 101,
      "type": "VEC3"
    },
    {
      "bufferView": 24,
      "componentType": 5126,
      "count": 101,
      "type": "SCALAR",
      "min": [
        0.0
      ],
      "max": [
        1.0
      ]
    },
    {
      "bufferView": 25,
      "componentType": 5126,
      "count": 101,
      "type": "VEC4"
    },
    {
      "bufferView": 26,
      "componentType": 5126,
      "count": 101,
      "type": "SCALAR",
      "min": [
        0.0
      ],
      "max": [
        1.0
      ]
    },
    {
      "bufferView": 27,
      "componentType": 5126,
      "count": 101,
      "type": "VEC3"
    },
    {
      "bufferView": 28,
      "componentType": 5126,
      "count": 101,
      "type": "SCALAR",
      "min": [
        0.0
      ],
      "max": [
        1.0
      ]
    },
    {
      "bufferView": 29,
      "componentType": 5126,
      "count": 101,
      "type": "VEC4"
    },
    {
      "bufferView": 30,
      "componentType": 5126,
      "count": 101,
      "type": "SCALAR",
      "min": [
        0.0
      ],
      "max": [
        1.0
      ]
    },
    {
      "bufferView": 31,
      "componentType": 5126,
      "count": 101,
      "type": "VEC3"
    },
    {
      "bufferView": 32,
      "componentType": 5126,
      "count": 101,
      "type": "SCALAR",
      "min": [
        0.0
      ],
      "max": [
        1.0
      ]
    },
    {
      "bufferView": 33,
      "componentType": 5126,
      "count": 101,
      "type": "VEC4"
    },
    {
      "bufferView": 34,
      "componentType": 5126,
      "count": 101,
      "type": "SCALAR",
      "min": [
        0.0
      ],
      "max": [
        1.0
      ]
    },
    {
      "bufferView": 35,
      "componentType": 5126,
      "count": 101,
      "type": "VEC3"
    },
    {
      "bufferView": 36,
      "componentType": 5126,
      "count": 101,
      "type": "SCALAR",
      "min": [
        0.0
      ],
      "max": [
        1.0
      ]
    },
    {
      "bufferView": 37,
      "componentType": 5126,
      "count": 101,
      "type": "VEC4"
    },
    {
      "bufferView": 38,
      "componentType": 5126,
      "count": 101,
      "type": "SCALAR",
      "min": [
        0.0
      ],
      "max": [
        1.0
      ]
    },
    {
      "bufferView": 39,
      "componentType": 5126,
      "count": 101,
      "type": "VEC3"
    },
    {
      "bufferView": 40,
      "componentType": 5126,
      "count": 101,
      "type": "SCALAR",
      "min": [
        0.0
      ],
      "max": [
        1.0
      ]
    },
    {
      "bufferView": 41,
      "componentType": 5126,
      "count": 101,
      "type": "VEC4"
    },
    {
      "bufferView": 42,
      "componentType": 5126,
      "count": 101,
      "type": "SCALAR",
      "min": [
        0.0
      ],
      "max": [
        1.0
      ]
    },
    {
      "bufferView": 43,
      "componentType": 5126,
      "count": 101,
      "type": "VEC3"
    },
    {
      "bufferView": 44,
      "componentType": 5126,
      "count": 101,
      "type": "SCALAR",
      "min": [
        0.0
      ],
      "max": [
        1.0
      ]
    },
    {
      "bufferView": 45,
      "componentType": 5126,
      "count": 101,
      "type": "VEC4"
    },
    {
      "bufferView": 46,
      "componentType": 5126,
      "count": 101,
      "type": "SCALAR",
      "min": [
        0.0
      ],
      "max": [
        1.0
      ]
    },
    {
      "bufferView": 47,
      "componentType": 5126,
      "count": 101,
      "type": "VEC3"
    },
    {
      "bufferView": 48,
      "componentType": 5126,
      "count": 101,
      "type": "SCALAR",
      "min": [
        0.0
      ],
      "max": [
        1.0
      ]
    },
    {
      "bufferView": 49,
      "componentType": 5126,
      "count": 101,
      "type": "VEC4"
    },
    {
      "bufferView": 50,
      "componentType": 5126,
      "count": 101,
      "type": "SCALAR",
      "min": [
        0.0
      ],
      "max": [
        1.0
      ]
    },
    {
      "bufferView": 51,
      "componentType": 5126,
      "count": 101,
      "type": "VEC3"
    },
    {
      "bufferView": 52,
      "componentType": 5126,
      "count": 101,
      "type": "SCALAR",
      "min": [
        0.0
      ],
      "max": [
        1.0
      ]
    },
    {
      "bufferView": 53,
      "componentType": 5126,
      "count": 101,
      "type": "VEC4"
    },
    {
      "bufferView": 54,
      "componentType": 5126,
      "count": 101,
      "type": "SCALAR",
      "min": [
        0.0
      ],
      "max": [
        1.0
      ]
    },
    {
      "bufferView": 55,
      "componentType": 5126,
      "count": 101,
      "type": "VEC3"
    },
    {
      "bufferView": 56,
      "componentType": 5126,
      "count": 101,
      "type": "SCALAR",
      "min": [
        0.0
      ],
      "max": [
        1.0
      ]
    },
    {
      "bufferView": 57,
      "componentType": 5126,
      "count": 101,
      "type": "VEC4"
    },
    {
      "bufferView": 58,
      "componentType": 5126,
      "count": 101,
      "type": "SCALAR",
      "min": [
        0.0
      ],
      "max": [
        1.0
      ]
    },
    {
      "bufferView": 59,
      "componentType": 5126,
      "count": 101,
      "type": "VEC3"
    },
    {
      "bufferView": 60,
      "componentType": 5126,
      "count": 101,
      "type": "SCALAR",
      "min": [
        0.0
      ],
      "max": [
        1.0
      ]
    },
    {
      "bufferView": 61,
      "componentType": 5126,
      "count": 101,
      "type": "VEC4"
    },
    {
      "bufferView": 62,
      "componentType": 5126,
      "count": 101,
      "type": "SCALAR",
      "min": [
        0.0
      ],
      "max": [
        1.0
      ]
    },
    {
      "bufferView": 63,
      "componentType": 5126,
      "count": 101,
      "type": "VEC3"
    },
    {
      "bufferView": 64,
      "componentType": 5126,
      "count": 101,
      "type": "SCALAR",
      "min": [
        0.0
      ],
      "max": [
        1.0
      ]
    },
    {
      "bufferView": 65,
      "componentType": 5126,
      "count": 101,
      "type": "VEC4"
    },
    {
      "bufferView": 66,
      "componentType": 5126,
      "count": 101,
      "type": "SCALAR",
      "min": [
        0.0
      ],
      "max": [
        1.0
      ]
    },
    {
      "bufferView": 67,
      "componentType": 5126,
      "count": 101,
      "type": "VEC3"
    },
    {
      "bufferView": 68,
      "componentType": 5126,
      "count": 101,
      "type": "SCALAR",
      "min": [
        0.0
      ],
      "max": [
        1.0
      ]
    },
    {
      "bufferView": 69,
      "componentType": 5126,
      "count": 101,
      "type": "VEC4"
    },
    {
      "bufferView": 70,
      "componentType": 5126,
      "count": 101,
      "type": "SCALAR",
      "min": [
        0.0
      ],
      "max": [
        1.0
      ]
    },
    {
      "bufferView": 71,
      "componentType": 5126,
      "count": 101,
      "type": "VEC3"
    },
    {
      "bufferView": 72,
      "componentType": 5126,
      "count": 101,
      "type": "SCALAR",
      "min": [
        0.0
      ],
      "max": [
        1.0
      ]
    },
    {
      "bufferView": 73,
      "componentType": 5126,
      "count": 101,
      "type": "VEC4"
    },
    {
      "bufferView": 74,
      "componentType": 5126,
      "count": 101,
      "type": "SCALAR",
      "min": [
        0.0
      ],
      "max": [
        1.0
      ]
    },
    {
      "bufferView": 75,
      "componentType": 5126,
      "count": 101,
      "type": "VEC3"
    },
    {
      "bufferView": 76,
      "componentType": 5126,
      "count": 101,
      "type": "SCALAR",
      "min": [
        0.0
      ],
      "max": [
        1.0
      ]
    },
    {
      "bufferView": 77,
      "componentType": 5126,
      "count": 101,
      "type": "VEC4"
    },
    {
      "bufferView": 78,
      "componentType": 5126,
      "count": 101,
      "type": "SCALAR",
      "min": [
        0.0
      ],
      "max": [
        1.0
      ]
    },
    {
      "bufferView": 79,
      "componentType": 5126,
      "count": 101,
      "type": "VEC3"
    },
    {
      "bufferView": 80,
      "componentType": 5126,
      "count": 101,
      "type": "SCALAR",
      "min": [
        0.0
      ],
      "max": [
        1.0
      ]
    },
    {
      "bufferView": 81,
      "componentType": 5126,
      "count": 101,
      "type": "VEC4"
    },
    {
      "bufferView": 82,
      "componentType": 5126,
      "count": 101,
      "type": "SCALAR",
      "min": [
        0.0
      ],
      "max": [
        1.0
      ]
    },
    {
      "bufferView": 83,
      "componentType": 5126,
      "count": 101,
      "type": "VEC3"
    },
    {
      "bufferView": 84,
      "componentType": 5126,
      "count": 101,
      "type": "SCALAR",
      "min": [
        0.0
      ],
      "max": [
        1.0
      ]
    },
    {
      "bufferView": 85,
      "componentType": 5126,
      "count": 101,
      "type": "VEC4"
    },
    {
      "bufferView": 86,
      "componentType": 5126,
      "count": 101,
      "type": "SCALAR",
      "min": [
        0.0
      ],
      "max": [
        1.0
      ]
    },
    {
      "bufferView": 87,
      "componentType": 5126,
      "count": 101,
      "type": "VEC3"
    },
    {
      "bufferView": 88,
      "componentType": 5126,
      "count": 101,
      "type": "SCALAR",
      "min": [
        0.0
      ],
      "max": [
        1.0
      ]
    },
    {
      "bufferView": 89,
      "componentType": 5126,
      "count": 101,
      "type": "VEC4"
    },
    {
      "bufferView": 90,
      "componentType": 5126,
      "count": 101,
      "type": "SCALAR",
      "min": [
        0.0
      ],
      "max": [
        1.0
      ]
    },
    {
      "bufferView": 91,
      "componentType": 5126,
      "count": 101,
      "type": "VEC3"
    },
    {
      "bufferView": 92,
      "componentType": 5126,
      "count": 101,
      "type": "SCALAR",
      "min": [
        0.0
      ],
      "max": [
        1.0
      ]
    },
    {
      "bufferView": 93,
      "componentType": 5126,
      "count": 101,
      "type": "VEC4"
    },
    {
      "bufferView": 94,
      "componentType": 5126,
      "count": 101,
      "type": "SCALAR",
      "min": [
        0.0
      ],
      "max": [
        1.0
      ]
    },
    {
      "bufferView": 95,
      "componentType": 5126,
      "count": 101,
      "type": "VEC3"
    },
    {
      "bufferView": 96,
      "componentType": 5126,
      "count": 101,
      "type": "SCALAR",
      "min": [
        0.0
      ],
      "max": [
        1.0
      ]
    },
    {
      "bufferView": 97,
      "componentType": 5126,
      "count": 101,
      "type": "VEC4"
    },
    {
      "bufferView": 98,
      "componentType": 5126,
      "count": 101,
      "type": "SCALAR",
      "min": [
        0.0
      ],
      "max": [
        1.0
      ]
    },
    {
      "bufferView": 99,
      "componentType": 5126,
      "count": 101,
      "type": "VEC3"
    },
    {
      "bufferView": 100,
      "componentType": 5126,
      "count": 101,
      "type": "SCALAR",
      "min": [
        0.0
      ],
      "max": [
        1.0
      ]
    },
    {
      "bufferView": 101,
      "componentType": 5126,
      "count": 101,
      "type": "VEC4"
    },
    {
      "bufferView": 102,
      "componentType": 5126,
      "count": 101,
      "type": "SCALAR",
      "min": [
        0.0
      ],
      "max": [
        1.0
      ]
    },
    {
      "bufferView": 103,
      "componentType": 5126,
      "count": 101,
      "type": "VEC3"
    },
    {
      "bufferView": 104,
      "componentType": 5126,
      "count": 101,
      "type": "SCALAR",
      "min": [
        0.0
      ],
      "max": [
        1.0
      ]
    },
    {
      "bufferView": 105,
      "componentType": 5126,
      "count": 101,
      "type": "VEC4"
    },
    {
      "bufferView": 106,
      "componentType": 5126,
      "count": 101,
      "type": "SCALAR",
      "min": [
        0.0
      ],
      "max": [
        1.0
      ]
    },
    {
      "bufferView": 107,
      "componentType": 5126,
      "count": 101,
      "type": "VEC3"
    },
    {
      "bufferView": 108,
      "componentType": 5126,
      "count": 101,
      "type": "SCALAR",
      "min": [
        0.0
      ],
      "max": [
        1.0
      ]
    },
    {
      "bufferView": 109,
      "componentType": 5126,
      "count": 101,
      "type": "VEC4"
    },
    {
      "bufferView": 110,
      "componentType": 5126,
      "count": 101,
      "type": "SCALAR",
      "min": [
        0.0
      ],
      "max": [
        1.0
      ]
    },
    {
      "bufferView": 111,
      "componentType": 5126,
      "count": 101,
      "type": "VEC3"
    },
    {
      "bufferView": 112,
      "componentType": 5126,
      "count": 101,
      "type": "SCALAR",
      "min": [
        0.0
      ],
      "max": [
        1.0
      ]
    },
    {
      "bufferView": 113,
      "componentType": 5126,
      "count": 101,
      "type": "VEC4"
    },
    {
      "bufferView": 114,
      "componentType": 5126,
      "count": 101,
      "type": "SCALAR",
      "min": [
        0.0
      ],
      "max": [
        1.0
      ]
    },
    {
      "bufferView": 115,
      "componentType": 5126,
      "count": 101,
      "type": "VEC3"
    },
    {
      "bufferView": 116,
      "componentType": 5126,
      "count": 101,
      "type": "SCALAR",
      "min": [
        0.0
      ],
      "max": [
        1.0
      ]
    },
    {
      "bufferView": 117,
      "componentType": 5126,
      "count": 101,
      "type": "VEC4"
    },
    {
      "bufferView": 118,
      "componentType": 5126,
      "count": 101,
      "type": "SCALAR",
      "min": [
        0.0
      ],
      "max": [
        1.0
      ]
    },
    {
      "bufferView": 119,
      "componentType": 5126,
      "count": 101,
      "type": "VEC3"
    },
    {
      "bufferView": 120,
      "componentType": 5126,
      "count": 101,
      "type": "SCALAR",
      "min": [
        0.0
      ],
      "max": [
        1.0
      ]
    },
    {
      "bufferView": 121,
      "componentType": 5126,
      "count": 101,
      "type": "VEC4"
    },
    {
      "bufferView": 122,
      "componentType": 5126,
      "count": 101,
      "type": "SCALAR",
      "min": [
        0.0
      ],
      "max": [
        1.0
      ]
    },
    {
      "bufferView": 123,
      "componentType": 5126,
      "count": 101,
      "type": "VEC3"
    },
    {
      "bufferView": 124,
      "componentType": 5126,
      "count": 101,
      "type": "SCALAR",
      "min": [
        0.0
      ],
      "max": [
        1.0
      ]
    },
    {
      "bufferView": 125,
      "componentType": 5126,
      "count": 101,
      "type": "VEC4"
    },
    {
      "bufferView": 126,
      "componentType": 5126,
      "count": 101,
      "type": "SCALAR",
      "min": [
        0.0
      ],
      "max": [
        1.0
      ]
    },
    {
      "bufferView": 127,
      "componentType": 5126,
      "count": 101,
      "type": "VEC3"
    },
    {
      "bufferView": 128,
      "componentType": 5126,
      "count": 101,
      "type": "SCALAR",
      "min": [
        0.0
      ],
      "max": [
        1.0
      ]
    },
    {
      "bufferView": 129,
      "componentType": 5126,
      "count": 101,
      "type": "VEC4"
    },
    {
      "bufferView": 130,
      "componentType": 5126,
      "count": 101,
      "type": "SCALAR",
      "min": [
        0.0
      ],
      "max": [
        1.0
      ]
    },
    {
      "bufferView": 131,
      "componentType": 5126,
      "count": 101,
      "type": "VEC3"
    },
    {
      "bufferView": 132,
      "componentType": 5126,
      "count": 101,
      "type": "SCALAR",
      "min": [
        0.0
      ],
      "max": [
        1.0
      ]
    },
    {
      "bufferView": 133,
      "componentType": 5126,
      "count": 101,
      "type": "VEC4"
    },
    {
      "bufferView": 134,
      "componentType": 5126,
      "count": 101,
      "type": "SCALAR",
      "min": [
        0.0
      ],
      "max": [
        1.0
      ]
    },
    {
      "bufferView": 135,
      "componentType": 5126,
      "count": 101,
      "type": "VEC3"
    },
    {
      "bufferView": 136,
      "componentType": 5126,
      "count": 101,
      "type": "SCALAR",
      "min": [
        0.0
      ],
      "max": [
        1.0
      ]
    },
    {
      "bufferView": 137,
      "componentType": 5126,
      "count": 101,
      "type": "VEC4"
    },
    {
      "bufferView": 138,
      "componentType": 5126,
      "count": 101,
      "type": "SCALAR",
      "min": [
        0.0
      ],
      "max": [
        1.0
      ]
    },
    {
      "bufferView": 139,
      "componentType": 5126,
      "count": 101,
      "type": "VEC3"
    },
    {
      "bufferView": 140,
      "componentType": 5126,
      "count": 101,
      "type": "SCALAR",
      "min": [
        0.0
      ],
      "max": [
        1.0
      ]
    },
    {
      "bufferView": 141,
      "componentType": 5126,
      "count": 101,
      "type": "VEC4"
    },
    {
      "bufferView": 142,
      "componentType": 5126,
      "count": 101,
      "type": "SCALAR",
      "min": [
        0.0
      ],
      "max": [
        1.0
      ]
    },
    {
      "bufferView": 143,
      "componentType": 5126,
      "count": 101,
      "type": "VEC3"
    },
    {
      "bufferView": 144,
      "componentType": 5126,
      "count": 101,
      "type": "SCALAR",
      "min": [
        0.0
      ],
      "max": [
        1.0
      ]
    },
    {
      "bufferView": 145,
      "componentType": 5126,
      "count": 101,
      "type": "VEC4"
    },
    {
      "bufferView": 146,
      "componentType": 5126,
      "count": 101,
      "type": "SCALAR",
      "min": [
        0.0
      ],
      "max": [
        1.0
      ]
    },
    {
      "bufferView": 147,
      "componentType": 5126,
      "count": 101,
      "type": "VEC3"
    },
    {
      "bufferView": 148,
      "componentType": 5126,
      "count": 101,
      "type": "SCALAR",
      "min": [
        0.0
      ],
      "max": [
        1.0
      ]
    },
    {
      "bufferView": 149,
      "componentType": 5126,
      "count": 101,
      "type": "VEC4"
    },
    {
      "bufferView": 150,
      "componentType": 5126,
      "count": 101,
      "type": "SCALAR",
      "min": [
        0.0
      ],
      "max": [
        1.0
      ]
    },
    {
      "bufferView": 151,
      "componentType": 5126,
      "count": 101,
      "type": "VEC3"
    },
    {
      "bufferView": 152,
      "componentType": 5126,
      "count": 101,
      "type": "SCALAR",
      "min": [
        0.0
      ],
      "max": [
        1.0
      ]
    },
    {
      "bufferView": 153,
      "componentType": 5126,
      "count": 101,
      "type": "VEC4"
    },
    {
      "bufferView": 154,
      "componentType": 5126,
      "count": 101,
      "type": "SCALAR",
      "min": [
        0.0
      ],
      "max": [
        1.0
      ]
    },
    {
      "bufferView": 155,
      "componentType": 5126,
      "count": 101,
      "type": "VEC3"
    },
    {
      "bufferView": 156,
      "componentType": 5126,
      "count": 101,
      "type": "SCALAR",
      "min": [
        0.0
      ],
      "max": [
        1.0
      ]
    },
    {
      "bufferView": 157,
      "componentType": 5126,
      "count": 101,
      "type": "VEC4"
    },
    {
      "bufferView": 158,
      "componentType": 5126,
      "count": 101,
      "type": "SCALAR",
      "min": [
        0.0
      ],
      "max": [
        1.0
      ]
    },
    {
      "bufferView": 159,
      "componentType": 5126,
      "count": 101,
      "type": "VEC3"
    }
  ],
  "animations": [
    {
      "name": "idle",
      "channels": [
        {
          "sampler": 0,
          "target": {
            "node": 7,
            "path": "rotation"
          }
        },
        {
          "sampler": 1,
          "target": {
            "node": 7,
            "path": "translation"
          }
        },
        {
          "sampler": 2,
          "target": {
            "node": 9,
            "path": "rotation"
          }
        },
        {
          "sampler": 3,
          "target": {
            "node": 9,
            "path": "translation"
          }
        },
        {
          "sampler": 4,
          "target": {
            "node": 11,
            "path": "rotation"
          }
        },
        {
          "sampler": 5,
          "target": {
            "node": 11,
            "path": "translation"
          }
        },
        {
          "sampler": 6,
          "target": {
            "node": 13,
            "path": "rotation"
          }
        },
        {
          "sampler": 7,
          "target": {
            "node": 13,
            "path": "translation"
          }
        },
        {
          "sampler": 8,
          "target": {
            "node": 15,
            "path": "rotation"
          }
        },
        {
          "sampler": 9,
          "target": {
            "node": 15,
            "path": "translation"
          }
        },
        {
          "sampler": 10,
          "target": {
            "node": 17,
            "path": "rotation"
          }
        },
        {
          "sampler": 11,
          "target": {
            "node": 17,
            "path": "translation"
          }
        },
        {
          "sampler": 12,
          "target": {
            "node": 19,
            "path": "rotation"
          }
        },
        {
          "sampler": 13,
          "target": {
            "node": 19,
            "path": "translation"
          }
        },
        {
          "sampler": 14,
          "target": {
            "node": 21,
            "path": "rotation"
          }
        },
        {
          "sampler": 15,
          "target": {
            "node": 21,
            "path": "translation"
          }
        },
        {
          "sampler": 16,
          "target": {
            "node": 24,
            "path": "rotation"
          }
        },
        {
          "sampler": 17,
          "target": {
            "node": 24,
            "path": "translation"
          }
        }
      ],
      "samplers": [
        {
          "input": 16,
          "interpolation": "LINEAR",
          "output": 17
        },
        {
          "input": 18,
          "interpolation": "LINEAR",
          "output": 19
        },
        {
          "input": 20,
          "interpolation": "LINEAR",
          "output": 21
        },
        {
          "input": 22,
          "interpolation": "LINEAR",
          "output": 23
        },
        {
          "input": 24,
          "interpolation": "LINEAR",
          "output": 25
        },
        {
          "input": 26,
          "interpolation": "LINEAR",
          "output": 27
        },
        {
          "input": 28,
          "interpolation": "LINEAR",
          "output": 29
        },
        {
          "input": 30,
          "interpolation": "LINEAR",
          "output": 31
        },
        {
          "input": 32,
          "interpolation": "LINEAR",
          "output": 33
        },
        {
          "input": 34,
          "interpolation": "LINEAR",
          "output": 35
        },
        {
          "input": 36,
          "interpolation": "LINEAR",
          "output": 37
        },
        {
          "input": 38,
          "interpolation": "LINEAR",
          "output": 39
        },
        {
          "input": 40,
          "interpolation": "LINEAR",
          "output": 41
        },
        {
          "input": 42,
          "interpolation": "LINEAR",
          "output": 43
        },
        {
          "input": 44,
          "interpolation": "LINEAR",
          "output": 45
        },
        {
          "input": 46,
          "interpolation": "LINEAR",
          "output": 47
        },
        {
          "input": 48,
          "interpolation": "LINEAR",
          "output": 49
        },
        {
          "input": 50,
          "interpolation": "LINEAR",
          "output": 51
        }
      ]
    },
    {
      "name": "fly",
      "channels": [
        {
          "sampler": 0,
          "target": {
            "node": 7,
            "path": "rotation"
          }
        },
        {
          "sampler": 1,
          "target": {
            "node": 7,
            "path": "translation"
          }
        },
        {
          "sampler": 2,
          "target": {
            "node": 9,
            "path": "rotation"
          }
        },
        {
          "sampler": 3,
          "target": {
            "node": 9,
            "path": "translation"
          }
        },
        {
          "sampler": 4,
          "target": {
            "node": 11,
            "path": "rotation"
          }
        },
        {
          "sampler": 5,
          "target": {
            "node": 11,
            "path": "translation"
          }
        },
        {
          "sampler": 6,
          "target": {
            "node": 13,
            "path": "rotation"
          }
        },
        {
          "sampler": 7,
          "target": {
            "node": 13,
            "path": "translation"
          }
        },
        {
          "sampler": 8,
          "target": {
            "node": 15,
            "path": "rotation"
          }
        },
        {
          "sampler": 9,
          "target": {
            "node": 15,
            "path": "translation"
          }
        },
        {
          "sampler": 10,
          "target": {
            "node": 17,
            "path": "rotation"
          }
        },
        {
          "sampler": 11,
          "target": {
            "node": 17,
            "path": "translation"
          }
        },
        {
          "sampler": 12,
          "target": {
            "node": 19,
            "path": "rotation"
          }
        },
        {
          "sampler": 13,
          "target": {
            "node": 19,
            "path": "translation"
          }
        },
        {
          "sampler": 14,
          "target": {
            "node": 21,
            "path": "rotation"
          }
        },
        {
          "sampler": 15,
          "target": {
            "node": 21,
            "path": "translation"
          }
        },
        {
          "sampler": 16,
          "target": {
            "node": 24,
            "path": "rotation"
          }
        },
        {
          "sampler": 17,
          "target": {
            "node": 24,
            "path": "translation"
          }
        }
      ],
      "samplers": [
        {
          "input": 52,
          "interpolation": "LINEAR",
          "output": 53
        },
        {
          "input": 54,
          "interpolation": "LINEAR",
          "output": 55
        },
        {
          "input": 56,
          "interpolation": "LINEAR",
          "output": 57
        },
        {
          "input": 58,
          "interpolation": "LINEAR",
          "output": 59
        },
        {
          "input": 60,
          "interpolation": "LINEAR",
          "output": 61
        },
        {
          "input": 62,
          "interpolation": "LINEAR",
          "output": 63
        },
        {
          "input": 64,
          "interpolation": "LINEAR",
          "output": 65
        },
        {
          "input": 66,
          "interpolation": "LINEAR",
          "output": 67
        },
        {
          "input": 68,
          "interpolation": "LINEAR",
          "output": 69
        },
        {
          "input": 70,
          "interpolation": "LINEAR",
          "output": 71
        },
        {
          "input": 72,
          "interpolation": "LINEAR",
          "output": 73
        },
        {
          "input": 74,
          "interpolation": "LINEAR",
          "output": 75
        },
        {
          "input": 76,
          "interpolation": "LINEAR",
          "output": 77
        },
        {
          "input": 78,
          "interpolation": "LINEAR",
          "output": 79
        },
        {
          "input": 80,
          "interpolation": "LINEAR",
          "output": 81
        },
        {
          "input": 82,
          "interpolation": "LINEAR",
          "output": 83
        },
        {
          "input": 84,
          "interpolation": "LINEAR",
          "output": 85
        },
        {
          "input": 86,
          "interpolation": "LINEAR",
          "output": 87
        }
      ]
    },
    {
      "name": "punch",
      "channels": [
        {
          "sampler": 0,
          "target": {
            "node": 7,
            "path": "rotation"
          }
        },
        {
          "sampler": 1,
          "target": {
            "node": 7,
            "path": "translation"
          }
        },
        {
          "sampler": 2,
          "target": {
            "node": 9,
            "path": "rotation"
          }
        },
        {
          "sampler": 3,
          "target": {
            "node": 9,
            "path": "translation"
          }
        },
        {
          "sampler": 4,
          "target": {
            "node": 11,
            "path": "rotation"
          }
        },
        {
          "sampler": 5,
          "target": {
            "node": 11,
            "path": "translation"
          }
        },
        {
          "sampler": 6,
          "target": {
            "node": 13,
            "path": "rotation"
          }
        },
        {
          "sampler": 7,
          "target": {
            "node": 13,
            "path": "translation"
          }
        },
        {
          "sampler": 8,
          "target": {
            "node": 15,
            "path": "rotation"
          }
        },
        {
          "sampler": 9,
          "target": {
            "node": 15,
            "path": "translation"
          }
        },
        {
          "sampler": 10,
          "target": {
            "node": 17,
            "path": "rotation"
          }
        },
        {
          "sampler": 11,
          "target": {
            "node": 17,
            "path": "translation"
          }
        },
        {
          "sampler": 12,
          "target": {
            "node": 19,
            "path": "rotation"
          }
        },
        {
          "sampler": 13,
          "target": {
            "node": 19,
            "path": "translation"
          }
        },
        {
          "sampler": 14,
          "target": {
            "node": 21,
            "path": "rotation"
          }
        },
        {
          "sampler": 15,
          "target": {
            "node": 21,
            "path": "translation"
          }
        },
        {
          "sampler": 16,
          "target": {
            "node": 24,
            "path": "rotation"
          }
        },
        {
          "sampler": 17,
          "target": {
            "node": 24,
            "path": "translation"
          }
        }
      ],
      "samplers": [
        {
          "input": 88,
          "interpolation": "LINEAR",
          "output": 89
        },
        {
          "input": 90,
          "interpolation": "LINEAR",
          "output": 91
        },
        {
          "input": 92,
          "interpolation": "LINEAR",
          "output": 93
        },
        {
          "input": 94,
          "interpolation": "LINEAR",
          "output": 95
        },
        {
          "input": 96,
          "interpolation": "LINEAR",
          "output": 97
        },
        {
          "input": 98,
          "interpolation": "LINEAR",
          "output": 99
        },
        {
          "input": 100,
          "interpolation": "LINEAR",
          "output": 101
        },
        {
          "input": 102,
          "interpolation": "LINEAR",
          "output": 103
        },
        {
          "input": 104,
          "interpolation": "LINEAR",
          "output": 105
        },
        {
          "input": 106,
          "interpolation": "LINEAR",
          "output": 107
        },
        {
          "input": 108,
          "interpolation": "LINEAR",
          "output": 109
        },
        {
          "input": 110,
          "interpolation": "LINEAR",
          "output": 111
        },
        {
          "input": 112,
          "interpolation": "LINEAR",
          "output": 113
        },
        {
          "input": 114,
          "interpolation": "LINEAR",
          "output": 115
        },
        {
          "input": 116,
          "interpolation": "LINEAR",
          "output": 117
        },
        {
          "input": 118,
          "interpolation": "LINEAR",
          "output": 119
        },
        {
          "input": 120,
          "interpolation": "LINEAR",
          "output": 121
        },
        {
          "input": 122,
          "interpolation": "LINEAR",
          "output": 123
        }
      ]
    },
    {
      "name": "die",
      "channels": [
        {
          "sampler": 0,
          "target": {
            "node": 7,
            "path": "rotation"
          }
        },
        {
          "sampler": 1,
          "target": {
            "node": 7,
            "path": "translation"
          }
        },
        {
          "sampler": 2,
          "target": {
            "node": 9,
            "path": "rotation"
          }
        },
        {
          "sampler": 3,
          "target": {
            "node": 9,
            "path": "translation"
          }
        },
        {
          "sampler": 4,
          "target": {
            "node": 11,
            "path": "rotation"
          }
        },
        {
          "sampler": 5,
          "target": {
            "node": 11,
            "path": "translation"
          }
        },
        {
          "sampler": 6,
          "target": {
            "node": 13,
            "path": "rotation"
          }
        },
        {
          "sampler": 7,
          "target": {
            "node": 13,
            "path": "translation"
          }
        },
        {
          "sampler": 8,
          "target": {
            "node": 15,
            "path": "rotation"
          }
        },
        {
          "sampler": 9,
          "target": {
            "node": 15,
            "path": "translation"
          }
        },
        {
          "sampler": 10,
          "target": {
            "node": 17,
            "path": "rotation"
          }
        },
        {
          "sampler": 11,
          "target": {
            "node": 17,
            "path": "translation"
          }
        },
        {
          "sampler": 12,
          "target": {
            "node": 19,
            "path": "rotation"
          }
        },
        {
          "sampler": 13,
          "target": {
            "node": 19,
            "path": "translation"
          }
        },
        {
          "sampler": 14,
          "target": {
            "node": 21,
            "path": "rotation"
          }
        },
        {
          "sampler": 15,
          "target": {
            "node": 21,
            "path": "translation"
          }
        },
        {
          "sampler": 16,
          "target": {
            "node": 24,
            "path": "rotation"
          }
        },
        {
          "sampler": 17,
          "target": {
            "node": 24,
            "path": "translation"
          }
        }
      ],
      "samplers": [
        {
          "input": 124,
          "interpolation": "LINEAR",
          "output": 125
        },
        {
          "input": 126,
          "interpolation": "LINEAR",
          "output": 127
        },
        {
          "input": 128,
          "interpolation": "LINEAR",
          "output": 129
        },
        {
          "input": 130,
          "interpolation": "LINEAR",
          "output": 131
        },
        {
          "input": 132,
          "interpolation": "LINEAR",
          "output": 133
        },
        {
          "input": 134,
          "interpolation": "LINEAR",
          "output": 135
        },
        {
          "input": 136,
          "interpolation": "LINEAR",
          "output": 137
        },
        {
          "input": 138,
          "interpolation": "LINEAR",
          "output": 139
        },
        {
          "input": 140,
          "interpolation": "LINEAR",
          "output": 141
        },
        {
          "input": 142,
          "interpolation": "LINEAR",
          "output": 143
        },
        {
          "input": 144,
          "interpolation": "LINEAR",
          "output": 145
        },
        {
          "input": 146,
          "interpolation": "LINEAR",
          "output": 147
        },
        {
          "input": 148,
          "interpolation": "LINEAR",
          "output": 149
        },
        {
          "input": 150,
          "interpolation": "LINEAR",
          "output": 151
        },
        {
          "input": 152,
          "interpolation": "LINEAR",
          "output": 153
        },
        {
          "input": 154,
          "interpolation": "LINEAR",
          "output": 155
        },
        {
          "input": 156,
          "interpolation": "LINEAR",
          "output": 157
        },
        {
          "input": 158,
          "interpolation": "LINEAR",
          "output": 159
        }
      ]
    }
  ]
}