{
  "asset": {
    "version": "2.0",
    "generator": "b3d_export_gltf.py"
  },
  "scene": 0,
  "scenes": [
    {
      "nodes": [
        0
      ]
    }
  ],
  "nodes": [
    {
      "name": "armature",
      "children": [
        8
      ]
    },
    {
      "name": "mobs_stone_monster.ms3d.mo",
      "translation": [
        0.0,
        0.0,
        0.0
      ],
      "rotation": [
        0.0,
        0.0,
        0.0,
        1.0
      ],
      "scale": [
        1.0,
        1.0,
        1.0
      ],
      "children": [
        2
      ]
    },
    {
      "name": "Cube.003",
      "translation": [
        0.0014861390396064586,
        0.041451809862803675,
        -0.0038842325345783664
      ],
      "rotation": [
        -1.545431056999782e-08,
        0.7071067811865474,
        0.7071067811865474,
        -1.545431056999782e-08
      ],
      "scale": [
        1.0,
        1.0,
        1.0
      ],
      "children": [
        3
      ]
    },
    {
      "name": "Root",
      "translation": [
        -0.0015967470164662556,
        0.0005212531636243868,
        -0.11959759853462074
      ],
      "rotation": [
        -0.0036060153461664897,
        -7.692337011974834e-06,
        0.9999933826356546,
        0.0004809148079763681
      ],
      "scale": [
        1.0000004768371582,
        1.0,
        1.0
      ],
      "children": [
        4,
        5,
        6,
        7
      ]
    },
    {
      "name": "Bone.003",
      "translation": [
        0.0697124231725615,
        -6.464638330349077e-05,
        -0.053071792604919656
      ],
      "rotation": [
        0.9999930405083562,
        -0.00047082486651368866,
        0.0037009653697119426,
        -1.0683174120828567e-05
      ],
      "scale": [
        1.0000003576278687,
        0.9999997615814209,
        1.0
      ]
    },
    {
      "name": "Bone.002",
      "translation": [
        0.17808321921172304,
        -0.00019123946903115086,
        0.46344321751675227
      ],
      "rotation": [
        0.9951438643926083,
        0.011791236390698515,
        0.0977141906134894,
        -0.001262085130075058
      ],
      "scale": [
        0.9999472498893738,
        0.9999999403953552,
        0.9999977946281433
      ]
    },
    {
      "name": "Bone.004",
      "translation": [
        -0.10224265817640409,
        0.00010086008931340202,
        -0.05431194781030966
      ],
      "rotation": [
        0.9999930434524371,
        -0.0004648639958661762,
        0.0037009234710913817,
        -1.0661091620542137e-05
      ],
      "scale": [
        1.0000003576278687,
        1.0000001192092896,
        1.0
      ]
    },
    {
      "name": "Bone.001",
      "translation": [
        -0.18844900545665016,
        0.00016154731026921142,
        0.46079971801850217
      ],
      "rotation": [
        0.9978621798116476,
        -0.00948857850544846,
        -0.06465834120016234,
        -0.0005795625388206675
      ],
      "scale": [
        1.0002819299697876,
        1.0000001192092896,
        1.000004529953003
      ]
    },
    {
      "name": "dirt_monster",
      "mesh": 0,
      "skin": 0
    }
  ],
  "meshes": [
    {
      "name": "dirt_monster",
      "primitives": [
        {
          "attributes": {
            "POSITION": 0,
            "TEXCOORD_0": 1,
            "JOINTS_0": 2,
            "WEIGHTS_0": 3
          },
          "indices": 4,
          "material": 0
        }
      ]
    }
  ],
  "skins": [
    {
      "inverseBindMatrices": 5,
      "joints": [
        1,
        2,
        3,
        4,
        5,
        6,
        7
      ],
      "skeleton": 1
    }
  ],
  "materials": [
    {
      "name": "body",
      "pbrMetallicRoughness": {
        "baseColorTexture": {
          "index": 0
        },
        "metallicFactor": 0.0,
        "roughnessFactor": 1.0
      },
      "doubleSided": true
    }
  ],
  "textures": [
    {
      "source": 0
    }
  ],
  "images": [
    {
      "uri": "textures/body.png"
    }
  ],
  "buffers": [
    {
      "byteLength": 31336,
      "uri": "model.bin"
    }
  ],
  "bufferViews": [
    {
      "buffer": 0,
      "byteOffset": 0,
      "byteLength": 3456,
      "target": 34962
    },
    {
      "buffer": 0,
      "byteOffset": 3456,
      "byteLength": 2304,
      "target": 34962
    },
    {
      "buffer": 0,
      "byteOffset": 5760,
      "byteLength": 1152,
      "target": 34962
    },
    {
      "buffer": 0,
      "byteOffset": 6912,
      "byteLength": 4608,
      "target": 34962
    },
    {
      "buffer": 0,
      "byteOffset": 11520,
      "byteLength": 576,
      "target": 34963
    },
    {
      "buffer": 0,
      "byteOffset": 12096,
      "byteLength": 448
    },
    {
      "buffer": 0,
      "byteOffset": 12544,
      "byteLength": 60
    },
    {
      "buffer": 0,
      "byteOffset": 12604,
      "byteLength": 240
    },
    {
      "buffer": 0,
      "byteOffset": 12844,
      "byteLength": 60
    },
    {
      "buffer": 0,
      "byteOffset": 12904,
      "byteLength": 180
    },
    {
      "buffer": 0,
      "byteOffset": 13084,
      "byteLength": 60
    },
    {
      "buffer": 0,
      "byteOffset": 13144,
      "byteLength": 240
    },
    {
      "buffer": 0,
      "byteOffset": 13384,
      "byteLength": 60
    },
    {
      "buffer": 0,
      "byteOffset": 13444,
      "byteLength": 180
    },
    {
      "buffer": 0,
      "byteOffset": 13624,
      "byteLength": 60
    },
    {
      "buffer": 0,
      "byteOffset": 13684,
      "byteLength": 240
    },
    {
      "buffer": 0,
      "byteOffset": 13924,
      "byteLength": 60
    },
    {
      "buffer": 0,
      "byteOffset": 13984,
      "byteLength": 180
    },
    {
      "buffer": 0,
      "byteOffset": 14164,
      "byteLength": 60
    },
    {
      "buffer": 0,
      "byteOffset": 14224,
      "byteLength": 240
    },
    {
      "buffer": 0,
      "byteOffset": 14464,
      "byteLength": 60
    },
    {
      "buffer": 0,
      "byteOffset": 14524,
      "byteLength": 180
    },
    {
      "buffer": 0,
      "byteOffset": 14704,
      "byteLength": 60
    },
    {
      "buffer": 0,
      "byteOffset": 14764,
      "byteLength": 240
    },
    {
      "buffer": 0,
      "byteOffset": 15004,
      "byteLength": 60
    },
    {
      "buffer": 0,
      "byteOffset": 15064,
      "byteLength": 180
    },
    {
      "buffer": 0,
      "byteOffset": 15244,
      "byteLength": 60
    },
    {
      "buffer": 0,
      "byteOffset": 15304,
      "byteLength": 240
    },
    {
      "buffer": 0,
      "byteOffset": 15544,
      "byteLength": 60
    },
    {
      "buffer": 0,
      "byteOffset": 15604,
      "byteLength": 180
    },
    {
      "buffer": 0,
      "byteOffset": 15784,
      "byteLength": 96
    },
    {
      "buffer": 0,
      "byteOffset": 15880,
      "byteLength": 384
    },
    {
      "buffer": 0,
      "byteOffset": 16264,
      "byteLength": 96
    },
    {
      "buffer": 0,
      "byteOffset": 16360,
      "byteLength": 288
    },
    {
      "buffer": 0,
      "byteOffset": 16648,
      "byteLength": 96
    },
    {
      "buffer": 0,
      "byteOffset": 16744,
      "byteLength": 384
    },
    {
      "buffer": 0,
      "byteOffset": 17128,
      "byteLength": 96
    },
    {
      "buffer": 0,
      "byteOffset": 17224,
      "byteLength": 288
    },
    {
      "buffer": 0,
      "byteOffset": 17512,
      "byteLength": 96
    },
    {
      "buffer": 0,
      "byteOffset": 17608,
      "byteLength": 384
    },
    {
      "buffer": 0,
      "byteOffset": 17992,
      "byteLength": 96
    },
    {
      "buffer": 0,
      "byteOffset": 18088,
      "byteLength": 288
    },
    {
      "buffer": 0,
      "byteOffset": 18376,
      "byteLength": 96
    },
    {
      "buffer": 0,
      "byteOffset": 18472,
      "byteLength": 384
    },
    {
      "buffer": 0,
      "byteOffset": 18856,
      "byteLength": 96
    },
    {
      "buffer": 0,
      "byteOffset": 18952,
      "byteLength": 288
    },
    {
      "buffer": 0,
      "byteOffset": 19240,
      "byteLength": 96
    },
    {
      "buffer": 0,
      "byteOffset": 19336,
      "byteLength": 384
    },
    {
      "buffer": 0,
      "byteOffset": 19720,
      "byteLength": 96
    },
    {
      "buffer": 0,
      "byteOffset": 19816,
      "byteLength": 288
    },
    {
      "buffer": 0,
      "byteOffset": 20104,
      "byteLength": 96
    },
    {
      "buffer": 0,
      "byteOffset": 20200,
      "byteLength": 384
    },
    {
      "buffer": 0,
      "byteOffset": 20584,
      "byteLength": 96
    },
    {
      "buffer": 0,
      "byteOffset": 20680,
      "byteLength": 288
    },
    {
      "buffer": 0,
      "byteOffset": 20968,
      "byteLength": 96
    },
    {
      "buffer": 0,
      "byteOffset": 21064,
      "byteLength": 384
    },
    {
      "buffer": 0,
      "byteOffset": 21448,
      "byteLength": 96
    },
    {
      "buffer": 0,
      "byteOffset": 21544,
      "byteLength": 288
    },
    {
      "buffer": 0,
      "byteOffset": 21832,
      "byteLength": 96
    },
    {
      "buffer": 0,
      "byteOffset": 21928,
      "byteLength": 384
    },
    {
      "buffer": 0,
      "byteOffset": 22312,
      "byteLength": 96
    },
    {
      "buffer": 0,
      "byteOffset": 22408,
      "byteLength": 288
    },
    {
      "buffer": 0,
      "byteOffset": 22696,
      "byteLength": 96
    },
    {
      "buffer": 0,
      "byteOffset": 22792,
      "byteLength": 384
    },
    {
      "buffer": 0,
      "byteOffset": 23176,
      "byteLength": 96
    },
    {
      "buffer": 0,
      "byteOffset": 23272,
      "byteLength": 288
    },
    {
      "buffer": 0,
      "byteOffset": 23560,
      "byteLength": 96
    },
    {
      "buffer": 0,
      "byteOffset": 23656,
      "byteLength": 384
    },
    {
      "buffer": 0,
      "byteOffset": 24040,
      "byteLength": 96
    },
    {
      "buffer": 0,
      "byteOffset": 24136,
      "byteLength": 288
    },
    {
      "buffer": 0,
      "byteOffset": 24424,
      "byteLength": 96
    },
    {
      "buffer": 0,
      "byteOffset": 24520,
      "byteLength": 384
    },
    {
      "buffer": 0,
      "byteOffset": 24904,
      "byteLength": 96
    },
    {
      "buffer": 0,
      "byteOffset": 25000,
      "byteLength": 288
    },
    {
      "buffer": 0,
      "byteOffset": 25288,
      "byteLength": 96
    },
    {
      "buffer": 0,
      "byteOffset": 25384,
      "byteLength": 384
    },
    {
      "buffer": 0,
      "byteOffset": 25768,
      "byteLength": 96
    },
    {
      "buffer": 0,
      "byteOffset": 25864,
      "byteLength": 288
    },
    {
      "buffer": 0,
      "byteOffset": 26152,
      "byteLength": 96
    },
    {
      "buffer": 0,
      "byteOffset": 26248,
      "byteLength": 384
    },
    {
      "buffer": 0,
      "byteOffset": 26632,
      "byteLength": 96
    },
    {
      "buffer": 0,
      "byteOffset": 26728,
      "byteLength": 288
    },
    {
      "buffer": 0,
      "byteOffset": 27016,
      "byteLength": 96
    },
    {
      "buffer": 0,
      "byteOffset": 27112,
      "byteLength": 384
    },
    {
      "buffer": 0,
      "byteOffset": 27496,
      "byteLength": 96
    },
    {
      "buffer": 0,
      "byteOffset": 27592,
      "byteLength": 288
    },
    {
      "buffer": 0,
      "byteOffset": 27880,
      "byteLength": 96
    },
    {
      "buffer": 0,
      "byteOffset": 27976,
      "byteLength": 384
    },
    {
      "buffer": 0,
      "byteOffset": 28360,
      "byteLength": 96
    },
    {
      "buffer": 0,
      "byteOffset": 28456,
      "byteLength": 288
    },
    {
      "buffer": 0,
      "byteOffset": 28744,
      "byteLength": 96
    },
    {
      "buffer": 0,
      "byteOffset": 28840,
      "byteLength": 384
    },
    {
      "buffer": 0,
      "byteOffset": 29224,
      "byteLength": 96
    },
    {
      "buffer": 0,
      "byteOffset": 29320,
      "byteLength": 288
    },
    {
      "buffer": 0,
      "byteOffset": 29608,
      "byteLength": 96
    },
    {
      "buffer": 0,
      "byteOffset": 29704,
      "byteLength": 384
    },
    {
      "buffer": 0,
      "byteOffset": 30088,
      "byteLength": 96
    },
    {
      "buffer": 0,
      "byteOffset": 30184,
      "byteLength": 288
    },
    {
      "buffer": 0,
      "byteOffset": 30472,
      "byteLength": 96
    },
    {
      "buffer": 0,
      "byteOffset": 30568,
      "byteLength": 384
    },
    {
      "buffer": 0,
      "byteOffset": 30952,
      "byteLength": 96
    },
    {
      "buffer": 0,
      "byteOffset": 31048,
      "byteLength": 288
    }
  ],
  "accessors": [
    {
      "bufferView": 0,
      "componentType": 5126,
      "count": 288,
      "type": "VEC3",
      "min": [
        -0.3210032108139134,
        -0.8078527224504655,
        -0.1769035195682447
      ],
      "max": [
        0.3289967891860866,
        0.5851695452277906,
        0.16143762411327028
      ]
    },
    {
      "bufferView": 1,
      "componentType": 5126,
      "count": 288,
      "type": "VEC2"
    },
    {
      "bufferView": 2,
      "componentType": 5121,
      "count": 288,
      "type": "VEC4"
    },
    {
      "bufferView": 3,
      "componentType": 5126,
      "count": 288,
      "type": "VEC4"
    },
    {
      "bufferView": 4,
      "componentType": 5123,
      "count": 288,
      "type": "SCALAR"
    },
    {
      "bufferView": 5,
      "componentType": 5126,
      "count": 7,
      "type": "MAT4"
    },
    {
      "bufferView": 6,
      "componentType": 5126,
      "count": 15,
      "type": "SCALAR",
      "min": [
        0.0
      ],
      "max": [
        0.9333333333333333
      ]
    },
    {
      "bufferView": 7,
      "componentType": 5126,
      "count": 15,
      "type": "VEC4"
    },
    {
      "bufferView": 8,
      "componentType": 5126,
      "count": 15,
      "type": "SCALAR",
      "min": [
        0.0
      ],
      "max": [
        0.9333333333333333
      ]
    },
    {
      "bufferView": 9,
      "componentType": 5126,
      "count": 15,
      "type": "VEC3"
    },
    {
      "bufferView": 10,
      "componentType": 5126,
      "count": 15,
      "type": "SCALAR",
      "min": [
        0.0
      ],
      "max": [
        0.9333333333333333
      ]
    },
    {
      "bufferView": 11,
      "componentType": 5126,
      "count": 15,
      "type": "VEC4"
    },
    {
      "bufferView": 12,
      "componentType": 5126,
      "count": 15,
      "type": "SCALAR",
      "min": [
        0.0
      ],
      "max": [
        0.9333333333333333
      ]
    },
    {
      "bufferView": 13,
      "componentType": 5126,
      "count": 15,
      "type": "VEC3"
    },
    {
      "bufferView": 14,
      "componentType": 5126,
      "count": 15,
      "type": "SCALAR",
      "min": [
        0.0
      ],
      "max": [
        0.9333333333333333
      ]
    },
    {
      "bufferView": 15,
      "componentType": 5126,
      "count": 15,
      "type": "VEC4"
    },
    {
      "bufferView": 16,
      "componentType": 5126,
      "count": 15,
      "type": "SCALAR",
      "min": [
        0.0
      ],
      "max": [
        0.9333333333333333
      ]
    },
    {
      "bufferView": 17,
      "componentType": 5126,
      "count": 15,
      "type": "VEC3"
    },
    {
      "bufferView": 18,
      "componentType": 5126,
      "count": 15,
      "type": "SCALAR",
      "min": [
        0.0
      ],
      "max": [
        0.9333333333333333
      ]
    },
    {
      "bufferView": 19,
      "componentType": 5126,
      "count": 15,
      "type": "VEC4"
    },
    {
      "bufferView": 20,
      "componentType": 5126,
      "count": 15,
      "type": "SCALAR",
      "min": [
        0.0
      ],
      "max": [
        0.9333333333333333
      ]
    },
    {
      "bufferView": 21,
      "componentType": 5126,
      "count": 15,
      "type": "VEC3"
    },
    {
      "bufferView": 22,
      "componentType": 5126,
      "count": 15,
      "type": "SCALAR",
      "min": [
        0.0
      ],
      "max": [
        0.9333333333333333
      ]
    },
    {
      "bufferView": 23,
      "componentType": 5126,
      "count": 15,
      "type": "VEC4"
    },
    {
      "bufferView": 24,
      "componentType": 5126,
      "count": 15,
      "type": "SCALAR",
      "min": [
        0.0
      ],
      "max": [
        0.9333333333333333
      ]
    },
    {
      "bufferView": 25,
      "componentType": 5126,
      "count": 15,
      "type": "VEC3"
    },
    {
      "bufferView": 26,
      "componentType": 5126,
      "count": 15,
      "type": "SCALAR",
      "min": [
        0.0
      ],
      "max": [
        0.9333333333333333
      ]
    },
    {
      "bufferView": 27,
      "componentType": 5126,
      "count": 15,
      "type": "VEC4"
    },
    {
      "bufferView": 28,
      "componentType": 5126,
      "count": 15,
      "type": "SCALAR",
      "min": [
        0.0
      ],
      "max": [
        0.9333333333333333
      ]
    },
    {
      "bufferView": 29,
      "componentType": 5126,
      "count": 15,
      "type": "VEC3"
    },
    {
      "bufferView": 30,
      "componentType": 5126,
      "count": 24,
      "type": "SCALAR",
      "min": [
        0.0
      ],
      "max": [
        1.5333333333333334
      ]
    },
    {
      "bufferView": 31,
      "componentType": 5126,
      "count": 24,
      "type": "VEC4"
    },
    {
      "bufferView": 32,
      "componentType": 5126,
      "count": 24,
      "type": "SCALAR",
      "min": [
        0.0
      ],
      "max": [
        1.5333333333333334
      ]
    },
    {
      "bufferView": 33,
      "componentType": 5126,
      "count": 24,
      "type": "VEC3"
    },
    {
      "bufferView": 34,
      "componentType": 5126,
      "count": 24,
      "type": "SCALAR",
      "min": [
        0.0
      ],
      "max": [
        1.5333333333333334
      ]
    },
    {
      "bufferView": 35,
      "componentType": 5126,
      "count": 24,
      "type": "VEC4"
    },
    {
      "bufferView": 36,
      "componentType": 5126,
      "count": 24,
      "type": "SCALAR",
      "min": [
        0.0
      ],
      "max": [
        1.5333333333333334
      ]
    },
    {
      "bufferView": 37,
      "componentType": 5126,
      "count": 24,
      "type": "VEC3"
    },
    {
      "bufferView": 38,
      "componentType": 5126,
      "count": 24,
      "type": "SCALAR",
      "min": [
        0.0
      ],
      "max": [
        1.5333333333333334
      ]
    },
    {
      "bufferView": 39,
      "componentType": 5126,
      "count": 24,
      "type": "VEC4"
    },
    {
      "bufferView": 40,
      "componentType": 5126,
      "count": 24,
      "type": "SCALAR",
      "min": [
        0.0
      ],
      "max": [
        1.5333333333333334
      ]
    },
    {
      "bufferView": 41,
      "componentType": 5126,
      "count": 24,
      "type": "VEC3"
    },
    {
      "bufferView": 42,
      "componentType": 5126,
      "count": 24,
      "type": "SCALAR",
      "min": [
        0.0
      ],
      "max": [
        1.5333333333333334
      ]
    },
    {
      "bufferView": 43,
      "componentType": 5126,
      "count": 24,
      "type": "VEC4"
    },
    {
      "bufferView": 44,
      "componentType": 5126,
      "count": 24,
      "type": "SCALAR",
      "min": [
        0.0
      ],
      "max": [
        1.5333333333333334
      ]
    },
    {
      "bufferView": 45,
      "componentType": 5126,
      "count": 24,
      "type": "VEC3"
    },
    {
      "bufferView": 46,
      "componentType": 5126,
      "count": 24,
      "type": "SCALAR",
      "min": [
        0.0
      ],
      "max": [
        1.5333333333333334
      ]
    },
    {
      "bufferView": 47,
      "componentType": 5126,
      "count": 24,
      "type": "VEC4"
    },
    {
      "bufferView": 48,
      "componentType": 5126,
      "count": 24,
      "type": "SCALAR",
      "min": [
        0.0
      ],
      "max": [
        1.5333333333333334
      ]
    },
    {
      "bufferView": 49,
      "componentType": 5126,
      "count": 24,
      "type": "VEC3"
    },
    {
      "bufferView": 50,
      "componentType": 5126,
      "count": 24,
      "type": "SCALAR",
      "min": [
        0.0
      ],
      "max": [
        1.5333333333333334
      ]
    },
    {
      "bufferView": 51,
      "componentType": 5126,
      "count": 24,
      "type": "VEC4"
    },
    {
      "bufferView": 52,
      "componentType": 5126,
      "count": 24,
      "type": "SCALAR",
      "min": [
        0.0
      ],
      "max": [
        1.5333333333333334
      ]
    },
    {
      "bufferView": 53,
      "componentType": 5126,
      "count": 24,
      "type": "VEC3"
    },
    {
      "bufferView": 54,
      "componentType": 5126,
      "count": 24,
      "type": "SCALAR",
      "min": [
        0.0
      ],
      "max": [
        1.5333333333333334
      ]
    },
    {
      "bufferView": 55,
      "componentType": 5126,
      "count": 24,
      "type": "VEC4"
    },
    {
      "bufferView": 56,
      "componentType": 5126,
      "count": 24,
      "type": "SCALAR",
      "min": [
        0.0
      ],
      "max": [
        1.5333333333333334
      ]
    },
    {
      "bufferView": 57,
      "componentType": 5126,
      "count": 24,
      "type": "VEC3"
    },
    {
      "bufferView": 58,
      "componentType": 5126,
      "count": 24,
      "type": "SCALAR",
      "min": [
        0.0
      ],
      "max": [
        1.5333333333333334
      ]
    },
    {
      "bufferView": 59,
      "componentType": 5126,
      "count": 24,
      "type": "VEC4"
    },
    {
      "bufferView": 60,
      "componentType": 5126,
      "count": 24,
      "type": "SCALAR",
      "min": [
        0.0
      ],
      "max": [
        1.5333333333333334
      ]
    },
    {
      "bufferView": 61,
      "componentType": 5126,
      "count": 24,
      "type": "VEC3"
    },
    {
      "bufferView": 62,
      "componentType": 5126,
      "count": 24,
      "type": "SCALAR",
      "min": [
        0.0
      ],
      "max": [
        1.5333333333333334
      ]
    },
    {
      "bufferView": 63,
      "componentType": 5126,
      "count": 24,
      "type": "VEC4"
    },
    {
      "bufferView": 64,
      "componentType": 5126,
      "count": 24,
      "type": "SCALAR",
      "min": [
        0.0
      ],
      "max": [
        1.5333333333333334
      ]
    },
    {
      "bufferView": 65,
      "componentType": 5126,
      "count": 24,
      "type": "VEC3"
    },
    {
      "bufferView": 66,
      "componentType": 5126,
      "count": 24,
      "type": "SCALAR",
      "min": [
        0.0
      ],
      "max": [
        1.5333333333333334
      ]
    },
    {
      "bufferView": 67,
      "componentType": 5126,
      "count": 24,
      "type": "VEC4"
    },
    {
      "bufferView": 68,
      "componentType": 5126,
      "count": 24,
      "type": "SCALAR",
      "min": [
        0.0
      ],
      "max": [
        1.5333333333333334
      ]
    },
    {
      "bufferView": 69,
      "componentType": 5126,
      "count": 24,
      "type": "VEC3"
    },
    {
      "bufferView": 70,
      "componentType": 5126,
      "count": 24,
      "type": "SCALAR",
      "min": [
        0.0
      ],
      "max": [
        1.5333333333333334
      ]
    },
    {
      "bufferView": 71,
      "componentType": 5126,
      "count": 24,
      "type": "VEC4"
    },
    {
      "bufferView": 72,
      "componentType": 5126,
      "count": 24,
      "type": "SCALAR",
      "min": [
        0.0
      ],
      "max": [
        1.5333333333333334
      ]
    },
    {
      "bufferView": 73,
      "componentType": 5126,
      "count": 24,
      "type": "VEC3"
    },
    {
      "bufferView": 74,
      "componentType": 5126,
      "count": 24,
      "type": "SCALAR",
      "min": [
        0.0
      ],
      "max": [
        1.5333333333333334
      ]
    },
    {
      "bufferView": 75,
      "componentType": 5126,
      "count": 24,
      "type": "VEC4"
    },
    {
      "bufferView": 76,
      "componentType": 5126,
      "count": 24,
      "type": "SCALAR",
      "min": [
        0.0
      ],
      "max": [
        1.5333333333333334
      ]
    },
    {
      "bufferView": 77,
      "componentType": 5126,
      "count": 24,
      "type": "VEC3"
    },
    {
      "bufferView": 78,
      "componentType": 5126,
      "count": 24,
      "type": "SCALAR",
      "min": [
        0.0
      ],
      "max": [
        1.5333333333333334
      ]
    },
    {
      "bufferView": 79,
      "componentType": 5126,
      "count": 24,
      "type": "VEC4"
    },
    {
      "bufferView": 80,
      "componentType": 5126,
      "count": 24,
      "type": "SCALAR",
      "min": [
        0.0
      ],
      "max": [
        1.5333333333333334
      ]
    },
    {
      "bufferView": 81,
      "componentType": 5126,
      "count": 24,
      "type": "VEC3"
    },
    {
      "bufferView": 82,
      "componentType": 5126,
      "count": 24,
      "type": "SCALAR",
      "min": [
        0.0
      ],
      "max": [
        1.5333333333333334
      ]
    },
    {
      "bufferView": 83,
      "componentType": 5126,
      "count": 24,
      "type": "VEC4"
    },
    {
      "bufferView": 84,
      "componentType": 5126,
      "count": 24,
      "type": "SCALAR",
      "min": [
        0.0
      ],
      "max": [
        1.5333333333333334
      ]
    },
    {
      "bufferView": 85,
      "componentType": 5126,
      "count": 24,
      "type": "VEC3"
    },
    {
      "bufferView": 86,
      "componentType": 5126,
      "count": 24,
      "type": "SCALAR",
      "min": [
        0.0
      ],
      "max": [
        1.5333333333333334
      ]
    },
    {
      "bufferView": 87,
      "componentType": 5126,
      "count": 24,
      "type": "VEC4"
    },
    {
      "bufferView": 88,
      "componentType": 5126,
      "count": 24,
      "type": "SCALAR",
      "min": [
        0.0
      ],
      "max": [
        1.5333333333333334
      ]
    },
    {
      "bufferView": 89,
      "componentType": 5126,
      "count": 24,
      "type": "VEC3"
    },
    {
      "bufferView": 90,
      "componentType": 5126,
      "count": 24,
      "type": "SCALAR",
      "min": [
        0.0
      ],
      "max": [
        1.5333333333333334
      ]
    },
    {
      "bufferView": 91,
      "componentType": 5126,
      "count": 24,
      "type": "VEC4"
    },
    {
      "bufferView": 92,
      "componentType": 5126,
      "count": 24,
      "type": "SCALAR",
      "min": [
        0.0
      ],
      "max": [
        1.5333333333333334
      ]
    },
    {
      "bufferView": 93,
      "componentType": 5126,
      "count": 24,
      "type": "VEC3"
    },
    {
      "bufferView": 94,
      "componentType": 5126,
      "count": 24,
      "type": "SCALAR",
      "min": [
        0.0
      ],
      "max": [
        1.5333333333333334
      ]
    },
    {
      "bufferView": 95,
      "componentType": 5126,
      "count": 24,
      "type": "VEC4"
    },
    {
      "bufferView": 96,
      "componentType": 5126,
      "count": 24,
      "type": "SCALAR",
      "min": [
        0.0
      ],
      "max": [
        1.5333333333333334
      ]
    },
    {
      "bufferView": 97,
      "componentType": 5126,
      "count": 24,
      "type": "VEC3"
    },
    {
      "bufferView": 98,
      "componentType": 5126,
      "count": 24,
      "type": "SCALAR",
      "min": [
        0.0
      ],
      "max": [
        1.5333333333333334
      ]
    },
    {
      "bufferView": 99,
      "componentType": 5126,
      "count": 24,
      "type": "VEC4"
    },
    {
      "bufferView": 100,
      "componentType": 5126,
      "count": 24,
      "type": "SCALAR",
      "min": [
        0.0
      ],
      "max": [
        1.5333333333333334
      ]
    },
    {
      "bufferView": 101,
      "componentType": 5126,
      "count": 24,
      "type": "VEC3"
    }
  ],
  "animations": [
    {
      "name": "idle",
      "channels": [
        {
          "sampler": 0,
          "target": {
            "node": 2,
            "path": "rotation"
          }
        },
        {
          "sampler": 1,
          "target": {
            "node": 2,
            "path": "translation"
          }
        },
        {
          "sampler": 2,
          "target": {
            "node": 3,
            "path": "rotation"
          }
        },
        {
          "sampler": 3,
          "target": {
            "node": 3,
            "path": "translation"
          }
        },
        {
          "sampler": 4,
          "target": {
            "node": 4,
            "path": "rotation"
          }
        },
        {
          "sampler": 5,
          "target": {
            "node": 4,
            "path": "translation"
          }
        },
        {
          "sampler": 6,
          "target": {
            "node": 5,
            "path": "rotation"
          }
        },
        {
          "sampler": 7,
          "target": {
            "node": 5,
            "path": "translation"
          }
        },
        {
          "sampler": 8,
          "target": {
            "node": 6,
            "path": "rotation"
          }
        },
        {
          "sampler": 9,
          "target": {
            "node": 6,
            "path": "translation"
          }
        },
        {
          "sampler": 10,
          "target": {
            "node": 7,
            "path": "rotation"
          }
        },
        {
          "sampler": 11,
          "target": {
            "node": 7,
            "path": "translation"
          }
        }
      ],
      "samplers": [
        {
          "input": 6,
          "interpolation": "LINEAR",
          "output": 7
        },
        {
          "input": 8,
          "interpolation": "LINEAR",
          "output": 9
        },
        {
          "input": 10,
          "interpolation": "LINEAR",
          "output": 11
        },
        {
          "input": 12,
          "interpolation": "LINEAR",
          "output": 13
        },
        {
          "input": 14,
          "interpolation": "LINEAR",
          "output": 15
        },
        {
          "input": 16,
          "interpolation": "LINEAR",
          "output": 17
        },
        {
          "input": 18,
          "interpolation": "LINEAR",
          "output": 19
        },
        {
          "input": 20,
          "interpolation": "LINEAR",
          "output": 21
        },
        {
          "input": 22,
          "interpolation": "LINEAR",
          "output": 23
        },
        {
          "input": 24,
          "interpolation": "LINEAR",
          "output": 25
        },
        {
          "input": 26,
          "interpolation": "LINEAR",
          "output": 27
        },
        {
          "input": 28,
          "interpolation": "LINEAR",
          "output": 29
        }
      ]
    },
    {
      "name": "walk",
      "channels": [
        {
          "sampler": 0,
          "target": {
            "node": 2,
            "path": "rotation"
          }
        },
        {
          "sampler": 1,
          "target": {
            "node": 2,
            "path": "translation"
          }
        },
        {
          "sampler": 2,
          "target": {
            "node": 3,
            "path": "rotation"
          }
        },
        {
          "sampler": 3,
          "target": {
            "node": 3,
            "path": "translation"
          }
        },
        {
          "sampler": 4,
          "target": {
            "node": 4,
            "path": "rotation"
          }
        },
        {
          "sampler": 5,
          "target": {
            "node": 4,
            "path": "translation"
          }
        },
        {
          "sampler": 6,
          "target": {
            "node": 5,
            "path": "rotation"
          }
        },
        {
          "sampler": 7,
          "target": {
            "node": 5,
            "path": "translation"
          }
        },
        {
          "sampler": 8,
          "target": {
            "node": 6,
            "path": "rotation"
          }
        },
        {
          "sampler": 9,
          "target": {
            "node": 6,
            "path": "translation"
          }
        },
        {
          "sampler": 10,
          "target": {
            "node": 7,
            "path": "rotation"
          }
        },
        {
          "sampler": 11,
          "target": {
            "node": 7,
            "path": "translation"
          }
        }
      ],
      "samplers": [
        {
          "input": 30,
          "interpolation": "LINEAR",
          "output": 31
        },
        {
          "input": 32,
          "interpolation": "LINEAR",
          "output": 33
        },
        {
          "input": 34,
          "interpolation": "LINEAR",
          "output": 35
        },
        {
          "input": 36,
          "interpolation": "LINEAR",
          "output": 37
        },
        {
          "input": 38,
          "interpolation": "LINEAR",
          "output": 39
        },
        {
          "input": 40,
          "interpolation": "LINEAR",
          "output": 41
        },
        {
          "input": 42,
          "interpolation": "LINEAR",
          "output": 43
        },
        {
          "input": 44,
          "interpolation": "LINEAR",
          "output": 45
        },
        {
          "input": 46,
          "interpolation": "LINEAR",
          "output": 47
        },
        {
          "input": 48,
          "interpolation": "LINEAR",
          "output": 49
        },
        {
          "input": 50,
          "interpolation": "LINEAR",
          "output": 51
        },
        {
          "input": 52,
          "interpolation": "LINEAR",
          "output": 53
        }
      ]
    },
    {
      "name": "run",
      "channels": [
        {
          "sampler": 0,
          "target": {
            "node": 2,
            "path": "rotation"
          }
        },
        {
          "sampler": 1,
          "target": {
            "node": 2,
            "path": "translation"
          }
        },
        {
          "sampler": 2,
          "target": {
            "node": 3,
            "path": "rotation"
          }
        },
        {
          "sampler": 3,
          "target": {
            "node": 3,
            "path": "translation"
          }
        },
        {
          "sampler": 4,
          "target": {
            "node": 4,
            "path": "rotation"
          }
        },
        {
          "sampler": 5,
          "target": {
            "node": 4,
            "path": "translation"
          }
        },
        {
          "sampler": 6,
          "target": {
            "node": 5,
            "path": "rotation"
          }
        },
        {
          "sampler": 7,
          "target": {
            "node": 5,
            "path": "translation"
          }
        },
        {
          "sampler": 8,
          "target": {
            "node": 6,
            "path": "rotation"
          }
        },
        {
          "sampler": 9,
          "target": {
            "node": 6,
            "path": "translation"
          }
        },
        {
          "sampler": 10,
          "target": {
            "node": 7,
            "path": "rotation"
          }
        },
        {
          "sampler": 11,
          "target": {
            "node": 7,
            "path": "translation"
          }
        }
      ],
      "samplers": [
        {
          "input": 54,
          "interpolation": "LINEAR",
          "output": 55
        },
        {
          "input": 56,
          "interpolation": "LINEAR",
          "output": 57
        },
        {
          "input": 58,
          "interpolation": "LINEAR",
          "output": 59
        },
        {
          "input": 60,
          "interpolation": "LINEAR",
          "output": 61
        },
        {
          "input": 62,
          "interpolation": "LINEAR",
          "output": 63
        },
        {
          "input": 64,
          "interpolation": "LINEAR",
          "output": 65
        },
        {
          "input": 66,
          "interpolation": "LINEAR",
          "output": 67
        },
        {
          "input": 68,
          "interpolation": "LINEAR",
          "output": 69
        },
        {
          "input": 70,
          "interpolation": "LINEAR",
          "output": 71
        },
        {
          "input": 72,
          "interpolation": "LINEAR",
          "output": 73
        },
        {
          "input": 74,
          "interpolation": "LINEAR",
          "output": 75
        },
        {
          "input": 76,
          "interpolation": "LINEAR",
          "output": 77
        }
      ]
    },
    {
      "name": "punch",
      "channels": [
        {
          "sampler": 0,
          "target": {
            "node": 2,
            "path": "rotation"
          }
        },
        {
          "sampler": 1,
          "target": {
            "node": 2,
            "path": "translation"
          }
        },
        {
          "sampler": 2,
          "target": {
            "node": 3,
            "path": "rotation"
          }
        },
        {
          "sampler": 3,
          "target": {
            "node": 3,
            "path": "translation"
          }
        },
        {
          "sampler": 4,
          "target": {
            "node": 4,
            "path": "rotation"
          }
        },
        {
          "sampler": 5,
          "target": {
            "node": 4,
            "path": "translation"
          }
        },
        {
          "sampler": 6,
          "target": {
            "node": 5,
            "path": "rotation"
          }
        },
        {
          "sampler": 7,
          "target": {
            "node": 5,
            "path": "translation"
          }
        },
        {
          "sampler": 8,
          "target": {
            "node": 6,
            "path": "rotation"
          }
        },
        {
          "sampler": 9,
          "target": {
            "node": 6,
            "path": "translation"
          }
        },
        {
          "sampler": 10,
          "target": {
            "node": 7,
            "path": "rotation"
          }
        },
        {
          "sampler": 11,
          "target": {
            "node": 7,
            "path": "translation"
          }
        }
      ],
      "samplers": [
        {
          "input": 78,
          "interpolation": "LINEAR",
          "output": 79
        },
        {
          "input": 80,
          "interpolation": "LINEAR",
          "output": 81
        },
        {
          "input": 82,
          "interpolation": "LINEAR",
          "output": 83
        },
        {
          "input": 84,
          "interpolation": "LINEAR",
          "output": 85
        },
        {
          "input": 86,
          "interpolation": "LINEAR",
          "output": 87
        },
        {
          "input": 88,
          "interpolation": "LINEAR",
          "output": 89
        },
        {
          "input": 90,
          "interpolation": "LINEAR",
          "output": 91
        },
        {
          "input": 92,
          "interpolation": "LINEAR",
          "output": 93
        },
        {
          "input": 94,
          "interpolation": "LINEAR",
          "output": 95
        },
        {
          "input": 96,
          "interpolation": "LINEAR",
          "output": 97
        },
        {
          "input": 98,
          "interpolation": "LINEAR",
          "output": 99
        },
        {
          "input": 100,
          "interpolation": "LINEAR",
          "output": 101
        }
      ]
    }
  ]
}