{
  "asset": {
    "version": "2.0",
    "generator": "b3d_export_gltf.py"
  },
  "scene": 0,
  "scenes": [
    {
      "nodes": [
        0
      ]
    }
  ],
  "nodes": [
    {
      "name": "armature",
      "children": [
        3
      ]
    },
    {
      "name": "mobs_rat.ms3d.mo",
      "translation": [
        0.0,
        0.0,
        0.0
      ],
      "rotation": [
        0.0,
        0.0,
        0.0,
        1.0
      ],
      "scale": [
        1.0,
        1.0,
        1.0
      ],
      "children": [
        2
      ]
    },
    {
      "name": "Cube.003",
      "translation": [
        0.0001360306782740387,
        -0.6321099495291693,
        -0.0005578724675820686
      ],
      "rotation": [
        -1.545431056999782e-08,
        0.7071067811865474,
        0.7071067811865474,
        -1.545431056999782e-08
      ],
      "scale": [
        1.0,
        1.0,
        1.0
      ]
    },
    {
      "name": "rat",
      "mesh": 0,
      "skin": 0
    }
  ],
  "meshes": [
    {
      "name": "rat",
      "primitives": [
        {
          "attributes": {
            "POSITION": 0,
            "TEXCOORD_0": 1,
            "JOINTS_0": 2,
            "WEIGHTS_0": 3
          },
          "indices": 4,
          "material": 0
        }
      ]
    }
  ],
  "skins": [
    {
      "inverseBindMatrices": 5,
      "joints": [
        1,
        2
      ],
      "skeleton": 1
    }
  ],
  "materials": [
    {
      "name": "body",
      "pbrMetallicRoughness": {
        "baseColorTexture": {
          "index": 0
        },
        "metallicFactor": 0.0,
        "roughnessFactor": 1.0
      },
      "doubleSided": true
    }
  ],
  "textures": [
    {
      "source": 0
    }
  ],
  "images": [
    {
      "uri": "textures/body.png"
    }
  ],
  "buffers": [
    {
      "byteLength": 14204,
      "uri": "model.bin"
    }
  ],
  "bufferViews": [
    {
      "buffer": 0,
      "byteOffset": 0,
      "byteLength": 3168,
      "target": 34962
    },
    {
      "buffer": 0,
      "byteOffset": 3168,
      "byteLength": 2112,
      "target": 34962
    },
    {
      "buffer": 0,
      "byteOffset": 5280,
      "byteLength": 1056,
      "target": 34962
    },
    {
      "buffer": 0,
      "byteOffset": 6336,
      "byteLength": 4224,
      "target": 34962
    },
    {
      "buffer": 0,
      "byteOffset": 10560,
      "byteLength": 528,
      "target": 34963
    },
    {
      "buffer": 0,
      "byteOffset": 11088,
      "byteLength": 128
    },
    {
      "buffer": 0,
      "byteOffset": 11216,
      "byteLength": 80
    },
    {
      "buffer": 0,
      "byteOffset": 11296,
      "byteLength": 320
    },
    {
      "buffer": 0,
      "byteOffset": 11616,
      "byteLength": 80
    },
    {
      "buffer": 0,
      "byteOffset": 11696,
      "byteLength": 240
    },
    {
      "buffer": 0,
      "byteOffset": 11936,
      "byteLength": 84
    },
    {
      "buffer": 0,
      "byteOffset": 12020,
      "byteLength": 336
    },
    {
      "buffer": 0,
      "byteOffset": 12356,
      "byteLength": 84
    },
    {
      "buffer": 0,
      "byteOffset": 12440,
      "byteLength": 252
    },
    {
      "buffer": 0,
      "byteOffset": 12692,
      "byteLength": 84
    },
    {
      "buffer": 0,
      "byteOffset": 12776,
      "byteLength": 336
    },
    {
      "buffer": 0,
      "byteOffset": 13112,
      "byteLength": 84
    },
    {
      "buffer": 0,
      "byteOffset": 13196,
      "byteLength": 252
    },
    {
      "buffer": 0,
      "byteOffset": 13448,
      "byteLength": 84
    },
    {
      "buffer": 0,
      "byteOffset": 13532,
      "byteLength": 336
    },
    {
      "buffer": 0,
      "byteOffset": 13868,
      "byteLength": 84
    },
    {
      "buffer": 0,
      "byteOffset": 13952,
      "byteLength": 252
    }
  ],
  "accessors": [
    {
      "bufferView": 0,
      "componentType": 5126,
      "count": 264,
      "type": "VEC3",
      "min": [
        -0.10508904297269724,
        -0.623878222108161,
        -0.3629970569964591
      ],
      "max": [
        0.10579285253184856,
        -0.4649987499730728,
        0.18700294300354092
      ]
    },
    {
      "bufferView": 1,
      "componentType": 5126,
      "count": 264,
      "type": "VEC2"
    },
    {
      "bufferView": 2,
      "componentType": 5121,
      "count": 264,
      "type": "VEC4"
    },
    {
      "bufferView": 3,
      "componentType": 5126,
      "count": 264,
      "type": "VEC4"
    },
    {
      "bufferView": 4,
      "componentType": 5123,
      "count": 264,
      "type": "SCALAR"
    },
    {
      "bufferView": 5,
      "componentType": 5126,
      "count": 2,
      "type": "MAT4"
    },
    {
      "bufferView": 6,
      "componentType": 5126,
      "count": 20,
      "type": "SCALAR",
      "min": [
        0.0
      ],
      "max": [
        1.9
      ]
    },
    {
      "bufferView": 7,
      "componentType": 5126,
      "count": 20,
      "type": "VEC4"
    },
    {
      "bufferView": 8,
      "componentType": 5126,
      "count": 20,
      "type": "SCALAR",
      "min": [
        0.0
      ],
      "max": [
        1.9
      ]
    },
    {
      "bufferView": 9,
      "componentType": 5126,
      "count": 20,
      "type": "VEC3"
    },
    {
      "bufferView": 10,
      "componentType": 5126,
      "count": 21,
      "type": "SCALAR",
      "min": [
        0.0
      ],
      "max": [
        2.0
      ]
    },
    {
      "bufferView": 11,
      "componentType": 5126,
      "count": 21,
      "type": "VEC4"
    },
    {
      "bufferView": 12,
      "componentType": 5126,
      "count": 21,
      "type": "SCALAR",
      "min": [
        0.0
      ],
      "max": [
        2.0
      ]
    },
    {
      "bufferView": 13,
      "componentType": 5126,
      "count": 21,
      "type": "VEC3"
    },
    {
      "bufferView": 14,
      "componentType": 5126,
      "count": 21,
      "type": "SCALAR",
      "min": [
        0.0
      ],
      "max": [
        2.0
      ]
    },
    {
      "bufferView": 15,
      "componentType": 5126,
      "count": 21,
      "type": "VEC4"
    },
    {
      "bufferView": 16,
      "componentType": 5126,
      "count": 21,
      "type": "SCALAR",
      "min": [
        0.0
      ],
      "max": [
        2.0
      ]
    },
    {
      "bufferView": 17,
      "componentType": 5126,
      "count": 21,
      "type": "VEC3"
    },
    {
      "bufferView": 18,
      "componentType": 5126,
      "count": 21,
      "type": "SCALAR",
      "min": [
        0.0
      ],
      "max": [
        2.0
      ]
    },
    {
      "bufferView": 19,
      "componentType": 5126,
      "count": 21,
      "type": "VEC4"
    },
    {
      "bufferView": 20,
      "componentType": 5126,
      "count": 21,
      "type": "SCALAR",
      "min": [
        0.0
      ],
      "max": [
        2.0
      ]
    },
    {
      "bufferView": 21,
      "componentType": 5126,
      "count": 21,
      "type": "VEC3"
    }
  ],
  "animations": [
    {
      "name": "idle",
      "channels": [
        {
          "sampler": 0,
          "target": {
            "node": 2,
            "path": "rotation"
          }
        },
        {
          "sampler": 1,
          "target": {
            "node": 2,
            "path": "translation"
          }
        }
      ],
      "samplers": [
        {
          "input": 6,
          "interpolation": "LINEAR",
          "output": 7
        },
        {
          "input": 8,
          "interpolation": "LINEAR",
          "output": 9
        }
      ]
    },
    {
      "name": "walk",
      "channels": [
        {
          "sampler": 0,
          "target": {
            "node": 2,
            "path": "rotation"
          }
        },
        {
          "sampler": 1,
          "target": {
            "node": 2,
            "path": "translation"
          }
        }
      ],
      "samplers": [
        {
          "input": 10,
          "interpolation": "LINEAR",
          "output": 11
        },
        {
          "input": 12,
          "interpolation": "LINEAR",
          "output": 13
        }
      ]
    },
    {
      "name": "run",
      "channels": [
        {
          "sampler": 0,
          "target": {
            "node": 2,
            "path": "rotation"
          }
        },
        {
          "sampler": 1,
          "target": {
            "node": 2,
            "path": "translation"
          }
        }
      ],
      "samplers": [
        {
          "input": 14,
          "interpolation": "LINEAR",
          "output": 15
        },
        {
          "input": 16,
          "interpolation": "LINEAR",
          "output": 17
        }
      ]
    },
    {
      "name": "punch",
      "channels": [
        {
          "sampler": 0,
          "target": {
            "node": 2,
            "path": "rotation"
          }
        },
        {
          "sampler": 1,
          "target": {
            "node": 2,
            "path": "translation"
          }
        }
      ],
      "samplers": [
        {
          "input": 18,
          "interpolation": "LINEAR",
          "output": 19
        },
        {
          "input": 20,
          "interpolation": "LINEAR",
          "output": 21
        }
      ]
    }
  ]
}