{
  "asset": {
    "version": "2.0",
    "generator": "b3d_export_gltf.py"
  },
  "scene": 0,
  "scenes": [
    {
      "nodes": [
        0
      ]
    }
  ],
  "nodes": [
    {
      "name": "armature",
      "children": [
        14
      ]
    },
    {
      "name": "ROOT",
      "translation": [
        0.0,
        0.0,
        0.0
      ],
      "rotation": [
        0.0,
        0.0,
        0.0,
        1.0
      ],
      "scale": [
        1.0,
        1.0,
        1.0
      ],
      "children": [
        2,
        4,
        6,
        8,
        10,
        12
      ]
    },
    {
      "name": "cube.002",
      "translation": [
        0.0,
        0.0,
        0.0
      ],
      "rotation": [
        0.0,
        0.0,
        0.0,
        1.0
      ],
      "scale": [
        1.0,
        1.0,
        1.0
      ],
      "children": [
        3
      ]
    },
    {
      "name": "Bone",
      "translation": [
        7.451053330728238e-17,
        0.33556561003785385,
        0.4349924345005337
      ],
      "rotation": [
        -7.243312858139516e-17,
        0.8198566970787547,
        0.5725687698915433,
        -1.9645413668053397e-17
      ],
      "scale": [
        3.3925442695617676,
        3.3925445079803467,
        3.3925445079803467
      ]
    },
    {
      "name": "cube.003",
      "translation": [
        0.0,
        0.0,
        0.0
      ],
      "rotation": [
        0.0,
        0.0,
        0.0,
        1.0
      ],
      "scale": [
        1.0,
        1.0,
        1.0
      ],
      "children": [
        5
      ]
    },
    {
      "name": "Bone",
      "translation": [
        0.0,
        0.3131945353398532,
        0.0
      ],
      "rotation": [
        0.0,
        1.0,
        0.0,
        0.0
      ],
      "scale": [
        2.923633337020874,
        2.923633337020874,
        2.923633337020874
      ]
    },
    {
      "name": "cube.004",
      "translation": [
        0.0,
        0.0,
        0.0
      ],
      "rotation": [
        0.0,
        0.0,
        0.0,
        1.0
      ],
      "scale": [
        1.0,
        1.0,
        1.0
      ],
      "children": [
        7
      ]
    },
    {
      "name": "Bone",
      "translation": [
        0.0,
        0.5095625984218433,
        -0.3728506737687888
      ],
      "rotation": [
        0.0,
        -0.6137752521761289,
        0.7894808039567076,
        0.0
      ],
      "scale": [
        3.8559510707855225,
        3.8559510707855225,
        3.8559510707855225
      ]
    },
    {
      "name": "cube.005",
      "translation": [
        0.0,
        0.0,
        0.0
      ],
      "rotation": [
        0.0,
        0.0,
        0.0,
        1.0
      ],
      "scale": [
        1.0,
        1.0,
        1.0
      ],
      "children": [
        9
      ]
    },
    {
      "name": "Bone",
      "translation": [
        0.0,
        0.1864253368843944,
        -1.068838663764186
      ],
      "rotation": [
        0.0,
        -0.6823099722081581,
        0.7310629944302355,
        0.0
      ],
      "scale": [
        2.624229907989502,
        2.624229907989502,
        2.624229907989502
      ]
    },
    {
      "name": "cube.008",
      "translation": [
        0.0,
        0.0,
        0.0
      ],
      "rotation": [
        0.0,
        0.0,
        0.0,
        1.0
      ],
      "scale": [
        1.0,
        1.0,
        1.0
      ],
      "children": [
        11
      ]
    },
    {
      "name": "Bone",
      "translation": [
        -0.2920663082526969,
        0.5717043591535882,
        0.3044947296719814
      ],
      "rotation": [
        0.9002345064277105,
        -0.4354053667984084,
        0.0,
        0.0
      ],
      "scale": [
        2.767277479171753,
        2.9862513542175293,
        2.3533387184143066
      ]
    },
    {
      "name": "cube",
      "translation": [
        0.0,
        0.0,
        0.0
      ],
      "rotation": [
        0.0,
        0.0,
        0.0,
        1.0
      ],
      "scale": [
        1.0,
        1.0,
        1.0
      ],
      "children": [
        13
      ]
    },
    {
      "name": "Bone",
      "translation": [
        0.34177968402459713,
        0.5717043591535882,
        0.3044947296719814
      ],
      "rotation": [
        0.9197108970807882,
        0.3925963140311581,
        0.0,
        0.0
      ],
      "scale": [
        2.767277479171753,
        2.9862515926361084,
        2.3533387184143066
      ]
    },
    {
      "name": "seal",
      "mesh": 0,
      "skin": 0
    }
  ],
  "meshes": [
    {
      "name": "seal",
      "primitives": [
        {
          "attributes": {
            "POSITION": 0,
            "TEXCOORD_0": 1,
            "JOINTS_0": 2,
            "WEIGHTS_0": 3
          },
          "indices": 4,
          "material": 0
        }
      ]
    }
  ],
  "skins": [
    {
      "inverseBindMatrices": 5,
      "joints": [
        1,
        2,
        3,
        4,
        5,
        6,
        7,
        8,
        9,
        10,
        11,
        12,
        13
      ],
      "skeleton": 1
    }
  ],
  "materials": [
    {
      "name": "body",
      "pbrMetallicRoughness": {
        "baseColorTexture": {
          "index": 0
        },
        "metallicFactor": 0.0,
        "roughnessFactor": 1.0
      },
      "doubleSided": true
    }
  ],
  "textures": [
    {
      "source": 0
    }
  ],
  "images": [
    {
      "uri": "textures/body.png"
    }
  ],
  "buffers": [
    {
      "byteLength": 219760,
      "uri": "model.bin"
    }
  ],
  "bufferViews": [
    {
      "buffer": 0,
      "byteOffset": 0,
      "byteLength": 576,
      "target": 34962
    },
    {
      "buffer": 0,
      "byteOffset": 576,
      "byteLength": 384,
      "target": 34962
    },
    {
      "buffer": 0,
      "byteOffset": 960,
      "byteLength": 192,
      "target": 34962
    },
    {
      "buffer": 0,
      "byteOffset": 1152,
      "byteLength": 768,
      "target": 34962
    },
    {
      "buffer": 0,
      "byteOffset": 1920,
      "byteLength": 144,
      "target": 34963
    },
    {
      "buffer": 0,
      "byteOffset": 2064,
      "byteLength": 832
    },
    {
      "buffer": 0,
      "byteOffset": 2896,
      "byteLength": 1604
    },
    {
      "buffer": 0,
      "byteOffset": 4500,
      "byteLength": 6416
    },
    {
      "buffer": 0,
      "byteOffset": 10916,
      "byteLength": 1604
    },
    {
      "buffer": 0,
      "byteOffset": 12520,
      "byteLength": 4812
    },
    {
      "buffer": 0,
      "byteOffset": 17332,
      "byteLength": 1604
    },
    {
      "buffer": 0,
      "byteOffset": 18936,
      "byteLength": 6416
    },
    {
      "buffer": 0,
      "byteOffset": 25352,
      "byteLength": 1604
    },
    {
      "buffer": 0,
      "byteOffset": 26956,
      "byteLength": 4812
    },
    {
      "buffer": 0,
      "byteOffset": 31768,
      "byteLength": 1604
    },
    {
      "buffer": 0,
      "byteOffset": 33372,
      "byteLength": 6416
    },
    {
      "buffer": 0,
      "byteOffset": 39788,
      "byteLength": 1604
    },
    {
      "buffer": 0,
      "byteOffset": 41392,
      "byteLength": 4812
    },
    {
      "buffer": 0,
      "byteOffset": 46204,
      "byteLength": 1604
    },
    {
      "buffer": 0,
      "byteOffset": 47808,
      "byteLength": 6416
    },
    {
      "buffer": 0,
      "byteOffset": 54224,
      "byteLength": 1604
    },
    {
      "buffer": 0,
      "byteOffset": 55828,
      "byteLength": 4812
    },
    {
      "buffer": 0,
      "byteOffset": 60640,
      "byteLength": 1604
    },
    {
      "buffer": 0,
      "byteOffset": 62244,
      "byteLength": 6416
    },
    {
      "buffer": 0,
      "byteOffset": 68660,
      "byteLength": 1604
    },
    {
      "buffer": 0,
      "byteOffset": 70264,
      "byteLength": 4812
    },
    {
      "buffer": 0,
      "byteOffset": 75076,
      "byteLength": 1604
    },
    {
      "buffer": 0,
      "byteOffset": 76680,
      "byteLength": 6416
    },
    {
      "buffer": 0,
      "byteOffset": 83096,
      "byteLength": 1604
    },
    {
      "buffer": 0,
      "byteOffset": 84700,
      "byteLength": 4812
    },
    {
      "buffer": 0,
      "byteOffset": 89512,
      "byteLength": 804
    },
    {
      "buffer": 0,
      "byteOffset": 90316,
      "byteLength": 3216
    },
    {
      "buffer": 0,
      "byteOffset": 93532,
      "byteLength": 804
    },
    {
      "buffer": 0,
      "byteOffset": 94336,
      "byteLength": 2412
    },
    {
      "buffer": 0,
      "byteOffset": 96748,
      "byteLength": 804
    },
    {
      "buffer": 0,
      "byteOffset": 97552,
      "byteLength": 3216
    },
    {
      "buffer": 0,
      "byteOffset": 100768,
      "byteLength": 804
    },
    {
      "buffer": 0,
      "byteOffset": 101572,
      "byteLength": 2412
    },
    {
      "buffer": 0,
      "byteOffset": 103984,
      "byteLength": 804
    },
    {
      "buffer": 0,
      "byteOffset": 104788,
      "byteLength": 3216
    },
    {
      "buffer": 0,
      "byteOffset": 108004,
      "byteLength": 804
    },
    {
      "buffer": 0,
      "byteOffset": 108808,
      "byteLength": 2412
    },
    {
      "buffer": 0,
      "byteOffset": 111220,
      "byteLength": 804
    },
    {
      "buffer": 0,
      "byteOffset": 112024,
      "byteLength": 3216
    },
    {
      "buffer": 0,
      "byteOffset": 115240,
      "byteLength": 804
    },
    {
      "buffer": 0,
      "byteOffset": 116044,
      "byteLength": 2412
    },
    {
      "buffer": 0,
      "byteOffset": 118456,
      "byteLength": 804
    },
    {
      "buffer": 0,
      "byteOffset": 119260,
      "byteLength": 3216
    },
    {
      "buffer": 0,
      "byteOffset": 122476,
      "byteLength": 804
    },
    {
      "buffer": 0,
      "byteOffset": 123280,
      "byteLength": 2412
    },
    {
      "buffer": 0,
      "byteOffset": 125692,
      "byteLength": 804
    },
    {
      "buffer": 0,
      "byteOffset": 126496,
      "byteLength": 3216
    },
    {
      "buffer": 0,
      "byteOffset": 129712,
      "byteLength": 804
    },
    {
      "buffer": 0,
      "byteOffset": 130516,
      "byteLength": 2412
    },
    {
      "buffer": 0,
      "byteOffset": 132928,
      "byteLength": 804
    },
    {
      "buffer": 0,
      "byteOffset": 133732,
      "byteLength": 3216
    },
    {
      "buffer": 0,
      "byteOffset": 136948,
      "byteLength": 804
    },
    {
      "buffer": 0,
      "byteOffset": 137752,
      "byteLength": 2412
    },
    {
      "buffer": 0,
      "byteOffset": 140164,
      "byteLength": 804
    },
    {
      "buffer": 0,
      "byteOffset": 140968,
      "byteLength": 3216
    },
    {
      "buffer": 0,
      "byteOffset": 144184,
      "byteLength": 804
    },
    {
      "buffer": 0,
      "byteOffset": 144988,
      "byteLength": 2412
    },
    {
      "buffer": 0,
      "byteOffset": 147400,
      "byteLength": 804
    },
    {
      "buffer": 0,
      "byteOffset": 148204,
      "byteLength": 3216
    },
    {
      "buffer": 0,
      "byteOffset": 151420,
      "byteLength": 804
    },
    {
      "buffer": 0,
      "byteOffset": 152224,
      "byteLength": 2412
    },
    {
      "buffer": 0,
      "byteOffset": 154636,
      "byteLength": 804
    },
    {
      "buffer": 0,
      "byteOffset": 155440,
      "byteLength": 3216
    },
    {
      "buffer": 0,
      "byteOffset": 158656,
      "byteLength": 804
    },
    {
      "buffer": 0,
      "byteOffset": 159460,
      "byteLength": 2412
    },
    {
      "buffer": 0,
      "byteOffset": 161872,
      "byteLength": 804
    },
    {
      "buffer": 0,
      "byteOffset": 162676,
      "byteLength": 3216
    },
    {
      "buffer": 0,
      "byteOffset": 165892,
      "byteLength": 804
    },
    {
      "buffer": 0,
      "byteOffset": 166696,
      "byteLength": 2412
    },
    {
      "buffer": 0,
      "byteOffset": 169108,
      "byteLength": 804
    },
    {
      "buffer": 0,
      "byteOffset": 169912,
      "byteLength": 3216
    },
    {
      "buffer": 0,
      "byteOffset": 173128,
      "byteLength": 804
    },
    {
      "buffer": 0,
      "byteOffset": 173932,
      "byteLength": 2412
    },
    {
      "buffer": 0,
      "byteOffset": 176344,
      "byteLength": 804
    },
    {
      "buffer": 0,
      "byteOffset": 177148,
      "byteLength": 3216
    },
    {
      "buffer": 0,
      "byteOffset": 180364,
      "byteLength": 804
    },
    {
      "buffer": 0,
      "byteOffset": 181168,
      "byteLength": 2412
    },
    {
      "buffer": 0,
      "byteOffset": 183580,
      "byteLength": 804
    },
    {
      "buffer": 0,
      "byteOffset": 184384,
      "byteLength": 3216
    },
    {
      "buffer": 0,
      "byteOffset": 187600,
      "byteLength": 804
    },
    {
      "buffer": 0,
      "byteOffset": 188404,
      "byteLength": 2412
    },
    {
      "buffer": 0,
      "byteOffset": 190816,
      "byteLength": 804
    },
    {
      "buffer": 0,
      "byteOffset": 191620,
      "byteLength": 3216
    },
    {
      "buffer": 0,
      "byteOffset": 194836,
      "byteLength": 804
    },
    {
      "buffer": 0,
      "byteOffset": 195640,
      "byteLength": 2412
    },
    {
      "buffer": 0,
      "byteOffset": 198052,
      "byteLength": 804
    },
    {
      "buffer": 0,
      "byteOffset": 198856,
      "byteLength": 3216
    },
    {
      "buffer": 0,
      "byteOffset": 202072,
      "byteLength": 804
    },
    {
      "buffer": 0,
      "byteOffset": 202876,
      "byteLength": 2412
    },
    {
      "buffer": 0,
      "byteOffset": 205288,
      "byteLength": 804
    },
    {
      "buffer": 0,
      "byteOffset": 206092,
      "byteLength": 3216
    },
    {
      "buffer": 0,
      "byteOffset": 209308,
      "byteLength": 804
    },
    {
      "buffer": 0,
      "byteOffset": 210112,
      "byteLength": 2412
    },
    {
      "buffer": 0,
      "byteOffset": 212524,
      "byteLength": 804
    },
    {
      "buffer": 0,
      "byteOffset": 213328,
      "byteLength": 3216
    },
    {
      "buffer": 0,
      "byteOffset": 216544,
      "byteLength": 804
    },
    {
      "buffer": 0,
      "byteOffset": 217348,
      "byteLength": 2412
    }
  ],
  "accessors": [
    {
      "bufferView": 0,
      "componentType": 5126,
      "count": 48,
      "type": "VEC3",
      "min": [
        -0.22995214731681893,
        0.24165941924819112,
        0.5561735857789359
      ],
      "max": [
        0.24193527136910137,
        0.7916594192481912,
        1.2636439294220818
      ]
    },
    {
      "bufferView": 1,
      "componentType": 5126,
      "count": 48,
      "type": "VEC2"
    },
    {
      "bufferView": 2,
      "componentType": 5121,
      "count": 48,
      "type": "VEC4"
    },
    {
      "bufferView": 3,
      "componentType": 5126,
      "count": 48,
      "type": "VEC4"
    },
    {
      "bufferView": 4,
      "componentType": 5123,
      "count": 72,
      "type": "SCALAR"
    },
    {
      "bufferView": 5,
      "componentType": 5126,
      "count": 13,
      "type": "MAT4"
    },
    {
      "bufferView": 6,
      "componentType": 5126,
      "count": 401,
      "type": "SCALAR",
      "min": [
        0.0
      ],
      "max": [
        3.2
      ]
    },
    {
      "bufferView": 7,
      "componentType": 5126,
      "count": 401,
      "type": "VEC4"
    },
    {
      "bufferView": 8,
      "componentType": 5126,
      "count": 401,
      "type": "SCALAR",
      "min": [
        0.0
      ],
      "max": [
        3.2
      ]
    },
    {
      "bufferView": 9,
      "componentType": 5126,
      "count": 401,
      "type": "VEC3"
    },
    {
      "bufferView": 10,
      "componentType": 5126,
      "count": 401,
      "type": "SCALAR",
      "min": [
        0.0
      ],
      "max": [
        3.2
      ]
    },
    {
      "bufferView": 11,
      "componentType": 5126,
      "count": 401,
      "type": "VEC4"
    },
    {
      "bufferView": 12,
      "componentType": 5126,
      "count": 401,
      "type": "SCALAR",
      "min": [
        0.0
      ],
      "max": [
        3.2
      ]
    },
    {
      "bufferView": 13,
      "componentType": 5126,
      "count": 401,
      "type": "VEC3"
    },
    {
      "bufferView": 14,
      "componentType": 5126,
      "count": 401,
      "type": "SCALAR",
      "min": [
        0.0
      ],
      "max": [
        3.2
      ]
    },
    {
      "bufferView": 15,
      "componentType": 5126,
      "count": 401,
      "type": "VEC4"
    },
    {
      "bufferView": 16,
      "componentType": 5126,
      "count": 401,
      "type": "SCALAR",
      "min": [
        0.0
      ],
      "max": [
        3.2
      ]
    },
    {
      "bufferView": 17,
      "componentType": 5126,
      "count": 401,
      "type": "VEC3"
    },
    {
      "bufferView": 18,
      "componentType": 5126,
      "count": 401,
      "type": "SCALAR",
      "min": [
        0.0
      ],
      "max": [
        3.2
      ]
    },
    {
      "bufferView": 19,
      "componentType": 5126,
      "count": 401,
      "type": "VEC4"
    },
    {
      "bufferView": 20,
      "componentType": 5126,
      "count": 401,
      "type": "SCALAR",
      "min": [
        0.0
      ],
      "max": [
        3.2
      ]
    },
    {
      "bufferView": 21,
      "componentType": 5126,
      "count": 401,
      "type": "VEC3"
    },
    {
      "bufferView": 22,
      "componentType": 5126,
      "count": 401,
      "type": "SCALAR",
      "min": [
        0.0
      ],
      "max": [
        3.2
      ]
    },
    {
      "bufferView": 23,
      "componentType": 5126,
      "count": 401,
      "type": "VEC4"
    },
    {
      "bufferView": 24,
      "componentType": 5126,
      "count": 401,
      "type": "SCALAR",
      "min": [
        0.0
      ],
      "max": [
        3.2
      ]
    },
    {
      "bufferView": 25,
      "componentType": 5126,
      "count": 401,
      "type": "VEC3"
    },
    {
      "bufferView": 26,
      "componentType": 5126,
      "count": 401,
      "type": "SCALAR",
      "min": [
        0.0
      ],
      "max": [
        3.2
      ]
    },
    {
      "bufferView": 27,
      "componentType": 5126,
      "count": 401,
      "type": "VEC4"
    },
    {
      "bufferView": 28,
      "componentType": 5126,
      "count": 401,
      "type": "SCALAR",
      "min": [
        0.0
      ],
      "max": [
        3.2
      ]
    },
    {
      "bufferView": 29,
      "componentType": 5126,
      "count": 401,
      "type": "VEC3"
    },
    {
      "bufferView": 30,
      "componentType": 5126,
      "count": 201,
      "type": "SCALAR",
      "min": [
        0.0
      ],
      "max": [
        1.6
      ]
    },
    {
      "bufferView": 31,
      "componentType": 5126,
      "count": 201,
      "type": "VEC4"
    },
    {
      "bufferView": 32,
      "componentType": 5126,
      "count": 201,
      "type": "SCALAR",
      "min": [
        0.0
      ],
      "max": [
        1.6
      ]
    },
    {
      "bufferView": 33,
      "componentType": 5126,
      "count": 201,
      "type": "VEC3"
    },
    {
      "bufferView": 34,
      "componentType": 5126,
      "count": 201,
      "type": "SCALAR",
      "min": [
        0.0
      ],
      "max": [
        1.6
      ]
    },
    {
      "bufferView": 35,
      "componentType": 5126,
      "count": 201,
      "type": "VEC4"
    },
    {
      "bufferView": 36,
      "componentType": 5126,
      "count": 201,
      "type": "SCALAR",
      "min": [
        0.0
      ],
      "max": [
        1.6
      ]
    },
    {
      "bufferView": 37,
      "componentType": 5126,
      "count": 201,
      "type": "VEC3"
    },
    {
      "bufferView": 38,
      "componentType": 5126,
      "count": 201,
      "type": "SCALAR",
      "min": [
        0.0
      ],
      "max": [
        1.6
      ]
    },
    {
      "bufferView": 39,
      "componentType": 5126,
      "count": 201,
      "type": "VEC4"
    },
    {
      "bufferView": 40,
      "componentType": 5126,
      "count": 201,
      "type": "SCALAR",
      "min": [
        0.0
      ],
      "max": [
        1.6
      ]
    },
    {
      "bufferView": 41,
      "componentType": 5126,
      "count": 201,
      "type": "VEC3"
    },
    {
      "bufferView": 42,
      "componentType": 5126,
      "count": 201,
      "type": "SCALAR",
      "min": [
        0.0
      ],
      "max": [
        1.6
      ]
    },
    {
      "bufferView": 43,
      "componentType": 5126,
      "count": 201,
      "type": "VEC4"
    },
    {
      "bufferView": 44,
      "componentType": 5126,
      "count": 201,
      "type": "SCALAR",
      "min": [
        0.0
      ],
      "max": [
        1.6
      ]
    },
    {
      "bufferView": 45,
      "componentType": 5126,
      "count": 201,
      "type": "VEC3"
    },
    {
      "bufferView": 46,
      "componentType": 5126,
      "count": 201,
      "type": "SCALAR",
      "min": [
        0.0
      ],
      "max": [
        1.6
      ]
    },
    {
      "bufferView": 47,
      "componentType": 5126,
      "count": 201,
      "type": "VEC4"
    },
    {
      "bufferView": 48,
      "componentType": 5126,
      "count": 201,
      "type": "SCALAR",
      "min": [
        0.0
      ],
      "max": [
        1.6
      ]
    },
    {
      "bufferView": 49,
      "componentType": 5126,
      "count": 201,
      "type": "VEC3"
    },
    {
      "bufferView": 50,
      "componentType": 5126,
      "count": 201,
      "type": "SCALAR",
      "min": [
        0.0
      ],
      "max": [
        1.6
      ]
    },
    {
      "bufferView": 51,
      "componentType": 5126,
      "count": 201,
      "type": "VEC4"
    },
    {
      "bufferView": 52,
      "componentType": 5126,
      "count": 201,
      "type": "SCALAR",
      "min": [
        0.0
      ],
      "max": [
        1.6
      ]
    },
    {
      "bufferView": 53,
      "componentType": 5126,
      "count": 201,
      "type": "VEC3"
    },
    {
      "bufferView": 54,
      "componentType": 5126,
      "count": 201,
      "type": "SCALAR",
      "min": [
        0.0
      ],
      "max": [
        1.6
      ]
    },
    {
      "bufferView": 55,
      "componentType": 5126,
      "count": 201,
      "type": "VEC4"
    },
    {
      "bufferView": 56,
      "componentType": 5126,
      "count": 201,
      "type": "SCALAR",
      "min": [
        0.0
      ],
      "max": [
        1.6
      ]
    },
    {
      "bufferView": 57,
      "componentType": 5126,
      "count": 201,
      "type": "VEC3"
    },
    {
      "bufferView": 58,
      "componentType": 5126,
      "count": 201,
      "type": "SCALAR",
      "min": [
        0.0
      ],
      "max": [
        1.6
      ]
    },
    {
      "bufferView": 59,
      "componentType": 5126,
      "count": 201,
      "type": "VEC4"
    },
    {
      "bufferView": 60,
      "componentType": 5126,
      "count": 201,
      "type": "SCALAR",
      "min": [
        0.0
      ],
      "max": [
        1.6
      ]
    },
    {
      "bufferView": 61,
      "componentType": 5126,
      "count": 201,
      "type": "VEC3"
    },
    {
      "bufferView": 62,
      "componentType": 5126,
      "count": 201,
      "type": "SCALAR",
      "min": [
        0.0
      ],
      "max": [
        1.6
      ]
    },
    {
      "bufferView": 63,
      "componentType": 5126,
      "count": 201,
      "type": "VEC4"
    },
    {
      "bufferView": 64,
      "componentType": 5126,
      "count": 201,
      "type": "SCALAR",
      "min": [
        0.0
      ],
      "max": [
        1.6
      ]
    },
    {
      "bufferView": 65,
      "componentType": 5126,
      "count": 201,
      "type": "VEC3"
    },
    {
      "bufferView": 66,
      "componentType": 5126,
      "count": 201,
      "type": "SCALAR",
      "min": [
        0.0
      ],
      "max": [
        1.6
      ]
    },
    {
      "bufferView": 67,
      "componentType": 5126,
      "count": 201,
      "type": "VEC4"
    },
    {
      "bufferView": 68,
      "componentType": 5126,
      "count": 201,
      "type": "SCALAR",
      "min": [
        0.0
      ],
      "max": [
        1.6
      ]
    },
    {
      "bufferView": 69,
      "componentType": 5126,
      "count": 201,
      "type": "VEC3"
    },
    {
      "bufferView": 70,
      "componentType": 5126,
      "count": 201,
      "type": "SCALAR",
      "min": [
        0.0
      ],
      "max": [
        1.6
      ]
    },
    {
      "bufferView": 71,
      "componentType": 5126,
      "count": 201,
      "type": "VEC4"
    },
    {
      "bufferView": 72,
      "componentType": 5126,
      "count": 201,
      "type": "SCALAR",
      "min": [
        0.0
      ],
      "max": [
        1.6
      ]
    },
    {
      "bufferView": 73,
      "componentType": 5126,
      "count": 201,
      "type": "VEC3"
    },
    {
      "bufferView": 74,
      "componentType": 5126,
      "count": 201,
      "type": "SCALAR",
      "min": [
        0.0
      ],
      "max": [
        1.6
      ]
    },
    {
      "bufferView": 75,
      "componentType": 5126,
      "count": 201,
      "type": "VEC4"
    },
    {
      "bufferView": 76,
      "componentType": 5126,
      "count": 201,
      "type": "SCALAR",
      "min": [
        0.0
      ],
      "max": [
        1.6
      ]
    },
    {
      "bufferView": 77,
      "componentType": 5126,
      "count": 201,
      "type": "VEC3"
    },
    {
      "bufferView": 78,
      "componentType": 5126,
      "count": 201,
      "type": "SCALAR",
      "min": [
        0.0
      ],
      "max": [
        1.6
      ]
    },
    {
      "bufferView": 79,
      "componentType": 5126,
      "count": 201,
      "type": "VEC4"
    },
    {
      "bufferView": 80,
      "componentType": 5126,
      "count": 201,
      "type": "SCALAR",
      "min": [
        0.0
      ],
      "max": [
        1.6
      ]
    },
    {
      "bufferView": 81,
      "componentType": 5126,
      "count": 201,
      "type": "VEC3"
    },
    {
      "bufferView": 82,
      "componentType": 5126,
      "count": 201,
      "type": "SCALAR",
      "min": [
        0.0
      ],
      "max": [
        1.6
      ]
    },
    {
      "bufferView": 83,
      "componentType": 5126,
      "count": 201,
      "type": "VEC4"
    },
    {
      "bufferView": 84,
      "componentType": 5126,
      "count": 201,
      "type": "SCALAR",
      "min": [
        0.0
      ],
      "max": [
        1.6
      ]
    },
    {
      "bufferView": 85,
      "componentType": 5126,
      "count": 201,
      "type": "VEC3"
    },
    {
      "bufferView": 86,
      "componentType": 5126,
      "count": 201,
      "type": "SCALAR",
      "min": [
        0.0
      ],
      "max": [
        1.6
      ]
    },
    {
      "bufferView": 87,
      "componentType": 5126,
      "count": 201,
      "type": "VEC4"
    },
    {
      "bufferView": 88,
      "componentType": 5126,
      "count": 201,
      "type": "SCALAR",
      "min": [
        0.0
      ],
      "max": [
        1.6
      ]
    },
    {
      "bufferView": 89,
      "componentType": 5126,
      "count": 201,
      "type": "VEC3"
    },
    {
      "bufferView": 90,
      "componentType": 5126,
      "count": 201,
      "type": "SCALAR",
      "min": [
        0.0
      ],
      "max": [
        1.6
      ]
    },
    {
      "bufferView": 91,
      "componentType": 5126,
      "count": 201,
      "type": "VEC4"
    },
    {
      "bufferView": 92,
      "componentType": 5126,
      "count": 201,
      "type": "SCALAR",
      "min": [
        0.0
      ],
      "max": [
        1.6
      ]
    },
    {
      "bufferView": 93,
      "componentType": 5126,
      "count": 201,
      "type": "VEC3"
    },
    {
      "bufferView": 94,
      "componentType": 5126,
      "count": 201,
      "type": "SCALAR",
      "min": [
        0.0
      ],
      "max": [
        1.6
      ]
    },
    {
      "bufferView": 95,
      "componentType": 5126,
      "count": 201,
      "type": "VEC4"
    },
    {
      "bufferView": 96,
      "componentType": 5126,
      "count": 201,
      "type": "SCALAR",
      "min": [
        0.0
      ],
      "max": [
        1.6
      ]
    },
    {
      "bufferView": 97,
      "componentType": 5126,
      "count": 201,
      "type": "VEC3"
    },
    {
      "bufferView": 98,
      "componentType": 5126,
      "count": 201,
      "type": "SCALAR",
      "min": [
        0.0
      ],
      "max": [
        1.6
      ]
    },
    {
      "bufferView": 99,
      "componentType": 5126,
      "count": 201,
      "type": "VEC4"
    },
    {
      "bufferView": 100,
      "componentType": 5126,
      "count": 201,
      "type": "SCALAR",
      "min": [
        0.0
      ],
      "max": [
        1.6
      ]
    },
    {
      "bufferView": 101,
      "componentType": 5126,
      "count": 201,
      "type": "VEC3"
    }
  ],
  "animations": [
    {
      "name": "idle",
      "channels": [
        {
          "sampler": 0,
          "target": {
            "node": 3,
            "path": "rotation"
          }
        },
        {
          "sampler": 1,
          "target": {
            "node": 3,
            "path": "translation"
          }
        },
        {
          "sampler": 2,
          "target": {
            "node": 5,
            "path": "rotation"
          }
        },
        {
          "sampler": 3,
          "target": {
            "node": 5,
            "path": "translation"
          }
        },
        {
          "sampler": 4,
          "target": {
            "node": 7,
            "path": "rotation"
          }
        },
        {
          "sampler": 5,
          "target": {
            "node": 7,
            "path": "translation"
          }
        },
        {
          "sampler": 6,
          "target": {
            "node": 9,
            "path": "rotation"
          }
        },
        {
          "sampler": 7,
          "target": {
            "node": 9,
            "path": "translation"
          }
        },
        {
          "sampler": 8,
          "target": {
            "node": 11,
            "path": "rotation"
          }
        },
        {
          "sampler": 9,
          "target": {
            "node": 11,
            "path": "translation"
          }
        },
        {
          "sampler": 10,
          "target": {
            "node": 13,
            "path": "rotation"
          }
        },
        {
          "sampler": 11,
          "target": {
            "node": 13,
            "path": "translation"
          }
        }
      ],
      "samplers": [
        {
          "input": 6,
          "interpolation": "LINEAR",
          "output": 7
        },
        {
          "input": 8,
          "interpolation": "LINEAR",
          "output": 9
        },
        {
          "input": 10,
          "interpolation": "LINEAR",
          "output": 11
        },
        {
          "input": 12,
          "interpolation": "LINEAR",
          "output": 13
        },
        {
          "input": 14,
          "interpolation": "LINEAR",
          "output": 15
        },
        {
          "input": 16,
          "interpolation": "LINEAR",
          "output": 17
        },
        {
          "input": 18,
          "interpolation": "LINEAR",
          "output": 19
        },
        {
          "input": 20,
          "interpolation": "LINEAR",
          "output": 21
        },
        {
          "input": 22,
          "interpolation": "LINEAR",
          "output": 23
        },
        {
          "input": 24,
          "interpolation": "LINEAR",
          "output": 25
        },
        {
          "input": 26,
          "interpolation": "LINEAR",
          "output": 27
        },
        {
          "input": 28,
          "interpolation": "LINEAR",
          "output": 29
        }
      ]
    },
    {
      "name": "walk",
      "channels": [
        {
          "sampler": 0,
          "target": {
            "node": 3,
            "path": "rotation"
          }
        },
        {
          "sampler": 1,
          "target": {
            "node": 3,
            "path": "translation"
          }
        },
        {
          "sampler": 2,
          "target": {
            "node": 5,
            "path": "rotation"
          }
        },
        {
          "sampler": 3,
          "target": {
            "node": 5,
            "path": "translation"
          }
        },
        {
          "sampler": 4,
          "target": {
            "node": 7,
            "path": "rotation"
          }
        },
        {
          "sampler": 5,
          "target": {
            "node": 7,
            "path": "translation"
          }
        },
        {
          "sampler": 6,
          "target": {
            "node": 9,
            "path": "rotation"
          }
        },
        {
          "sampler": 7,
          "target": {
            "node": 9,
            "path": "translation"
          }
        },
        {
          "sampler": 8,
          "target": {
            "node": 11,
            "path": "rotation"
          }
        },
        {
          "sampler": 9,
          "target": {
            "node": 11,
            "path": "translation"
          }
        },
        {
          "sampler": 10,
          "target": {
            "node": 13,
            "path": "rotation"
          }
        },
        {
          "sampler": 11,
          "target": {
            "node": 13,
            "path": "translation"
          }
        }
      ],
      "samplers": [
        {
          "input": 30,
          "interpolation": "LINEAR",
          "output": 31
        },
        {
          "input": 32,
          "interpolation": "LINEAR",
          "output": 33
        },
        {
          "input": 34,
          "interpolation": "LINEAR",
          "output": 35
        },
        {
          "input": 36,
          "interpolation": "LINEAR",
          "output": 37
        },
        {
          "input": 38,
          "interpolation": "LINEAR",
          "output": 39
        },
        {
          "input": 40,
          "interpolation": "LINEAR",
          "output": 41
        },
        {
          "input": 42,
          "interpolation": "LINEAR",
          "output": 43
        },
        {
          "input": 44,
          "interpolation": "LINEAR",
          "output": 45
        },
        {
          "input": 46,
          "interpolation": "LINEAR",
          "output": 47
        },
        {
          "input": 48,
          "interpolation": "LINEAR",
          "output": 49
        },
        {
          "input": 50,
          "interpolation": "LINEAR",
          "output": 51
        },
        {
          "input": 52,
          "interpolation": "LINEAR",
          "output": 53
        }
      ]
    },
    {
      "name": "fly",
      "channels": [
        {
          "sampler": 0,
          "target": {
            "node": 3,
            "path": "rotation"
          }
        },
        {
          "sampler": 1,
          "target": {
            "node": 3,
            "path": "translation"
          }
        },
        {
          "sampler": 2,
          "target": {
            "node": 5,
            "path": "rotation"
          }
        },
        {
          "sampler": 3,
          "target": {
            "node": 5,
            "path": "translation"
          }
        },
        {
          "sampler": 4,
          "target": {
            "node": 7,
            "path": "rotation"
          }
        },
        {
          "sampler": 5,
          "target": {
            "node": 7,
            "path": "translation"
          }
        },
        {
          "sampler": 6,
          "target": {
            "node": 9,
            "path": "rotation"
          }
        },
        {
          "sampler": 7,
          "target": {
            "node": 9,
            "path": "translation"
          }
        },
        {
          "sampler": 8,
          "target": {
            "node": 11,
            "path": "rotation"
          }
        },
        {
          "sampler": 9,
          "target": {
            "node": 11,
            "path": "translation"
          }
        },
        {
          "sampler": 10,
          "target": {
            "node": 13,
            "path": "rotation"
          }
        },
        {
          "sampler": 11,
          "target": {
            "node": 13,
            "path": "translation"
          }
        }
      ],
      "samplers": [
        {
          "input": 54,
          "interpolation": "LINEAR",
          "output": 55
        },
        {
          "input": 56,
          "interpolation": "LINEAR",
          "output": 57
        },
        {
          "input": 58,
          "interpolation": "LINEAR",
          "output": 59
        },
        {
          "input": 60,
          "interpolation": "LINEAR",
          "output": 61
        },
        {
          "input": 62,
          "interpolation": "LINEAR",
          "output": 63
        },
        {
          "input": 64,
          "interpolation": "LINEAR",
          "output": 65
        },
        {
          "input": 66,
          "interpolation": "LINEAR",
          "output": 67
        },
        {
          "input": 68,
          "interpolation": "LINEAR",
          "output": 69
        },
        {
          "input": 70,
          "interpolation": "LINEAR",
          "output": 71
        },
        {
          "input": 72,
          "interpolation": "LINEAR",
          "output": 73
        },
        {
          "input": 74,
          "interpolation": "LINEAR",
          "output": 75
        },
        {
          "input": 76,
          "interpolation": "LINEAR",
          "output": 77
        }
      ]
    },
    {
      "name": "die",
      "channels": [
        {
          "sampler": 0,
          "target": {
            "node": 3,
            "path": "rotation"
          }
        },
        {
          "sampler": 1,
          "target": {
            "node": 3,
            "path": "translation"
          }
        },
        {
          "sampler": 2,
          "target": {
            "node": 5,
            "path": "rotation"
          }
        },
        {
          "sampler": 3,
          "target": {
            "node": 5,
            "path": "translation"
          }
        },
        {
          "sampler": 4,
          "target": {
            "node": 7,
            "path": "rotation"
          }
        },
        {
          "sampler": 5,
          "target": {
            "node": 7,
            "path": "translation"
          }
        },
        {
          "sampler": 6,
          "target": {
            "node": 9,
            "path": "rotation"
          }
        },
        {
          "sampler": 7,
          "target": {
            "node": 9,
            "path": "translation"
          }
        },
        {
          "sampler": 8,
          "target": {
            "node": 11,
            "path": "rotation"
          }
        },
        {
          "sampler": 9,
          "target": {
            "node": 11,
            "path": "translation"
          }
        },
        {
          "sampler": 10,
          "target": {
            "node": 13,
            "path": "rotation"
          }
        },
        {
          "sampler": 11,
          "target": {
            "node": 13,
            "path": "translation"
          }
        }
      ],
      "samplers": [
        {
          "input": 78,
          "interpolation": "LINEAR",
          "output": 79
        },
        {
          "input": 80,
          "interpolation": "LINEAR",
          "output": 81
        },
        {
          "input": 82,
          "interpolation": "LINEAR",
          "output": 83
        },
        {
          "input": 84,
          "interpolation": "LINEAR",
          "output": 85
        },
        {
          "input": 86,
          "interpolation": "LINEAR",
          "output": 87
        },
        {
          "input": 88,
          "interpolation": "LINEAR",
          "output": 89
        },
        {
          "input": 90,
          "interpolation": "LINEAR",
          "output": 91
        },
        {
          "input": 92,
          "interpolation": "LINEAR",
          "output": 93
        },
        {
          "input": 94,
          "interpolation": "LINEAR",
          "output": 95
        },
        {
          "input": 96,
          "interpolation": "LINEAR",
          "output": 97
        },
        {
          "input": 98,
          "interpolation": "LINEAR",
          "output": 99
        },
        {
          "input": 100,
          "interpolation": "LINEAR",
          "output": 101
        }
      ]
    }
  ]
}