{
  "asset": {
    "version": "2.0",
    "generator": "b3d_export_gltf.py"
  },
  "scene": 0,
  "scenes": [
    {
      "nodes": [
        0
      ]
    }
  ],
  "nodes": [
    {
      "name": "armature",
      "children": [
        10
      ]
    },
    {
      "name": "Scene_Root",
      "translation": [
        0.0,
        0.0,
        0.0
      ],
      "rotation": [
        0.0,
        0.0,
        0.0,
        1.0
      ],
      "scale": [
        1.0,
        1.0,
        1.0
      ],
      "children": [
        2
      ]
    },
    {
      "name": "Scene_Root",
      "translation": [
        0.0,
        0.0,
        0.0
      ],
      "rotation": [
        0.0,
        0.0,
        0.0,
        1.0
      ],
      "scale": [
        1.0,
        1.0,
        1.0
      ],
      "children": [
        3
      ]
    },
    {
      "name": "Plane",
      "translation": [
        0.0,
        0.0,
        0.0
      ],
      "rotation": [
        0.0,
        0.0,
        0.0,
        1.0
      ],
      "scale": [
        1.0,
        1.0,
        1.0
      ],
      "children": [
        4
      ]
    },
    {
      "name": "root",
      "translation": [
        0.0023780563659754027,
        -0.8053189898314531,
        -0.0007356608301787461
      ],
      "rotation": [
        -7.549790126404288e-08,
        0.9999999999999942,
        7.549790126404288e-08,
        5.699933306244173e-15
      ],
      "scale": [
        1.0,
        1.0,
        1.0
      ],
      "children": [
        5,
        6,
        7,
        8,
        9
      ]
    },
    {
      "name": "Bone.002",
      "translation": [
        -0.10530377986948232,
        0.9511308127466584,
        9.121807456253558e-08
      ],
      "rotation": [
        0.9962141673316287,
        -0.08693292131126887,
        -5.286128508505702e-09,
        1.9590840197321672e-07
      ],
      "scale": [
        1.0,
        1.0000003576278687,
        1.0
      ]
    },
    {
      "name": "back",
      "translation": [
        0.00530043304626753,
        1.0061393737187074,
        -0.061815324342073666
      ],
      "rotation": [
        0.9999427441849679,
        -0.010700857526279353,
        -1.8249823428707364e-08,
        1.9491364373335268e-07
      ],
      "scale": [
        1.0,
        1.0000001192092896,
        0.9999997615814209
      ]
    },
    {
      "name": "Right_Hand",
      "translation": [
        0.11769250417408315,
        0.9542280276309801,
        9.198759861977127e-08
      ],
      "rotation": [
        0.9965053085156703,
        0.08352945648121926,
        -7.16175483938055e-08,
        1.8938685067052098e-07
      ],
      "scale": [
        1.0,
        1.0000003576278687,
        1.0
      ]
    },
    {
      "name": "root.002",
      "translation": [
        0.06365872455010017,
        1.2134596586929116,
        -9.11884211485146e-08
      ],
      "rotation": [
        -1.7205356741102976e-21,
        8.454544176502914e-22,
        6.394920981919678e-29,
        1.0
      ],
      "scale": [
        1.0,
        1.0,
        1.0
      ]
    },
    {
      "name": "root.001",
      "translation": [
        -0.04391324071251635,
        1.2202681221309866,
        -9.151874488879542e-08
      ],
      "rotation": [
        -1.7205356741102976e-21,
        8.454544176502914e-22,
        6.394920981919678e-29,
        1.0
      ],
      "scale": [
        1.0,
        1.0,
        1.0
      ]
    },
    {
      "name": "oerkki",
      "mesh": 0,
      "skin": 0
    }
  ],
  "meshes": [
    {
      "name": "oerkki",
      "primitives": [
        {
          "attributes": {
            "POSITION": 0,
            "TEXCOORD_0": 1,
            "JOINTS_0": 2,
            "WEIGHTS_0": 3
          },
          "indices": 4,
          "material": 0
        }
      ]
    }
  ],
  "skins": [
    {
      "inverseBindMatrices": 5,
      "joints": [
        1,
        2,
        3,
        4,
        5,
        6,
        7,
        8,
        9
      ],
      "skeleton": 1
    }
  ],
  "materials": [
    {
      "name": "body",
      "pbrMetallicRoughness": {
        "baseColorTexture": {
          "index": 0
        },
        "metallicFactor": 0.0,
        "roughnessFactor": 1.0
      },
      "doubleSided": true
    }
  ],
  "textures": [
    {
      "source": 0
    }
  ],
  "images": [
    {
      "uri": "textures/body.png"
    }
  ],
  "buffers": [
    {
      "byteLength": 28288,
      "uri": "model.bin"
    }
  ],
  "bufferViews": [
    {
      "buffer": 0,
      "byteOffset": 0,
      "byteLength": 3936,
      "target": 34962
    },
    {
      "buffer": 0,
      "byteOffset": 3936,
      "byteLength": 2624,
      "target": 34962
    },
    {
      "buffer": 0,
      "byteOffset": 6560,
      "byteLength": 1312,
      "target": 34962
    },
    {
      "buffer": 0,
      "byteOffset": 7872,
      "byteLength": 5248,
      "target": 34962
    },
    {
      "buffer": 0,
      "byteOffset": 13120,
      "byteLength": 984,
      "target": 34963
    },
    {
      "buffer": 0,
      "byteOffset": 14104,
      "byteLength": 576
    },
    {
      "buffer": 0,
      "byteOffset": 14680,
      "byteLength": 96
    },
    {
      "buffer": 0,
      "byteOffset": 14776,
      "byteLength": 384
    },
    {
      "buffer": 0,
      "byteOffset": 15160,
      "byteLength": 96
    },
    {
      "buffer": 0,
      "byteOffset": 15256,
      "byteLength": 288
    },
    {
      "buffer": 0,
      "byteOffset": 15544,
      "byteLength": 96
    },
    {
      "buffer": 0,
      "byteOffset": 15640,
      "byteLength": 384
    },
    {
      "buffer": 0,
      "byteOffset": 16024,
      "byteLength": 96
    },
    {
      "buffer": 0,
      "byteOffset": 16120,
      "byteLength": 288
    },
    {
      "buffer": 0,
      "byteOffset": 16408,
      "byteLength": 96
    },
    {
      "buffer": 0,
      "byteOffset": 16504,
      "byteLength": 384
    },
    {
      "buffer": 0,
      "byteOffset": 16888,
      "byteLength": 96
    },
    {
      "buffer": 0,
      "byteOffset": 16984,
      "byteLength": 288
    },
    {
      "buffer": 0,
      "byteOffset": 17272,
      "byteLength": 96
    },
    {
      "buffer": 0,
      "byteOffset": 17368,
      "byteLength": 384
    },
    {
      "buffer": 0,
      "byteOffset": 17752,
      "byteLength": 96
    },
    {
      "buffer": 0,
      "byteOffset": 17848,
      "byteLength": 288
    },
    {
      "buffer": 0,
      "byteOffset": 18136,
      "byteLength": 96
    },
    {
      "buffer": 0,
      "byteOffset": 18232,
      "byteLength": 384
    },
    {
      "buffer": 0,
      "byteOffset": 18616,
      "byteLength": 96
    },
    {
      "buffer": 0,
      "byteOffset": 18712,
      "byteLength": 288
    },
    {
      "buffer": 0,
      "byteOffset": 19000,
      "byteLength": 96
    },
    {
      "buffer": 0,
      "byteOffset": 19096,
      "byteLength": 384
    },
    {
      "buffer": 0,
      "byteOffset": 19480,
      "byteLength": 96
    },
    {
      "buffer": 0,
      "byteOffset": 19576,
      "byteLength": 288
    },
    {
      "buffer": 0,
      "byteOffset": 19864,
      "byteLength": 52
    },
    {
      "buffer": 0,
      "byteOffset": 19916,
      "byteLength": 208
    },
    {
      "buffer": 0,
      "byteOffset": 20124,
      "byteLength": 52
    },
    {
      "buffer": 0,
      "byteOffset": 20176,
      "byteLength": 156
    },
    {
      "buffer": 0,
      "byteOffset": 20332,
      "byteLength": 52
    },
    {
      "buffer": 0,
      "byteOffset": 20384,
      "byteLength": 208
    },
    {
      "buffer": 0,
      "byteOffset": 20592,
      "byteLength": 52
    },
    {
      "buffer": 0,
      "byteOffset": 20644,
      "byteLength": 156
    },
    {
      "buffer": 0,
      "byteOffset": 20800,
      "byteLength": 52
    },
    {
      "buffer": 0,
      "byteOffset": 20852,
      "byteLength": 208
    },
    {
      "buffer": 0,
      "byteOffset": 21060,
      "byteLength": 52
    },
    {
      "buffer": 0,
      "byteOffset": 21112,
      "byteLength": 156
    },
    {
      "buffer": 0,
      "byteOffset": 21268,
      "byteLength": 52
    },
    {
      "buffer": 0,
      "byteOffset": 21320,
      "byteLength": 208
    },
    {
      "buffer": 0,
      "byteOffset": 21528,
      "byteLength": 52
    },
    {
      "buffer": 0,
      "byteOffset": 21580,
      "byteLength": 156
    },
    {
      "buffer": 0,
      "byteOffset": 21736,
      "byteLength": 52
    },
    {
      "buffer": 0,
      "byteOffset": 21788,
      "byteLength": 208
    },
    {
      "buffer": 0,
      "byteOffset": 21996,
      "byteLength": 52
    },
    {
      "buffer": 0,
      "byteOffset": 22048,
      "byteLength": 156
    },
    {
      "buffer": 0,
      "byteOffset": 22204,
      "byteLength": 52
    },
    {
      "buffer": 0,
      "byteOffset": 22256,
      "byteLength": 208
    },
    {
      "buffer": 0,
      "byteOffset": 22464,
      "byteLength": 52
    },
    {
      "buffer": 0,
      "byteOffset": 22516,
      "byteLength": 156
    },
    {
      "buffer": 0,
      "byteOffset": 22672,
      "byteLength": 52
    },
    {
      "buffer": 0,
      "byteOffset": 22724,
      "byteLength": 208
    },
    {
      "buffer": 0,
      "byteOffset": 22932,
      "byteLength": 52
    },
    {
      "buffer": 0,
      "byteOffset": 22984,
      "byteLength": 156
    },
    {
      "buffer": 0,
      "byteOffset": 23140,
      "byteLength": 52
    },
    {
      "buffer": 0,
      "byteOffset": 23192,
      "byteLength": 208
    },
    {
      "buffer": 0,
      "byteOffset": 23400,
      "byteLength": 52
    },
    {
      "buffer": 0,
      "byteOffset": 23452,
      "byteLength": 156
    },
    {
      "buffer": 0,
      "byteOffset": 23608,
      "byteLength": 52
    },
    {
      "buffer": 0,
      "byteOffset": 23660,
      "byteLength": 208
    },
    {
      "buffer": 0,
      "byteOffset": 23868,
      "byteLength": 52
    },
    {
      "buffer": 0,
      "byteOffset": 23920,
      "byteLength": 156
    },
    {
      "buffer": 0,
      "byteOffset": 24076,
      "byteLength": 52
    },
    {
      "buffer": 0,
      "byteOffset": 24128,
      "byteLength": 208
    },
    {
      "buffer": 0,
      "byteOffset": 24336,
      "byteLength": 52
    },
    {
      "buffer": 0,
      "byteOffset": 24388,
      "byteLength": 156
    },
    {
      "buffer": 0,
      "byteOffset": 24544,
      "byteLength": 52
    },
    {
      "buffer": 0,
      "byteOffset": 24596,
      "byteLength": 208
    },
    {
      "buffer": 0,
      "byteOffset": 24804,
      "byteLength": 52
    },
    {
      "buffer": 0,
      "byteOffset": 24856,
      "byteLength": 156
    },
    {
      "buffer": 0,
      "byteOffset": 25012,
      "byteLength": 52
    },
    {
      "buffer": 0,
      "byteOffset": 25064,
      "byteLength": 208
    },
    {
      "buffer": 0,
      "byteOffset": 25272,
      "byteLength": 52
    },
    {
      "buffer": 0,
      "byteOffset": 25324,
      "byteLength": 156
    },
    {
      "buffer": 0,
      "byteOffset": 25480,
      "byteLength": 52
    },
    {
      "buffer": 0,
      "byteOffset": 25532,
      "byteLength": 208
    },
    {
      "buffer": 0,
      "byteOffset": 25740,
      "byteLength": 52
    },
    {
      "buffer": 0,
      "byteOffset": 25792,
      "byteLength": 156
    },
    {
      "buffer": 0,
      "byteOffset": 25948,
      "byteLength": 52
    },
    {
      "buffer": 0,
      "byteOffset": 26000,
      "byteLength": 208
    },
    {
      "buffer": 0,
      "byteOffset": 26208,
      "byteLength": 52
    },
    {
      "buffer": 0,
      "byteOffset": 26260,
      "byteLength": 156
    },
    {
      "buffer": 0,
      "byteOffset": 26416,
      "byteLength": 52
    },
    {
      "buffer": 0,
      "byteOffset": 26468,
      "byteLength": 208
    },
    {
      "buffer": 0,
      "byteOffset": 26676,
      "byteLength": 52
    },
    {
      "buffer": 0,
      "byteOffset": 26728,
      "byteLength": 156
    },
    {
      "buffer": 0,
      "byteOffset": 26884,
      "byteLength": 52
    },
    {
      "buffer": 0,
      "byteOffset": 26936,
      "byteLength": 208
    },
    {
      "buffer": 0,
      "byteOffset": 27144,
      "byteLength": 52
    },
    {
      "buffer": 0,
      "byteOffset": 27196,
      "byteLength": 156
    },
    {
      "buffer": 0,
      "byteOffset": 27352,
      "byteLength": 52
    },
    {
      "buffer": 0,
      "byteOffset": 27404,
      "byteLength": 208
    },
    {
      "buffer": 0,
      "byteOffset": 27612,
      "byteLength": 52
    },
    {
      "buffer": 0,
      "byteOffset": 27664,
      "byteLength": 156
    },
    {
      "buffer": 0,
      "byteOffset": 27820,
      "byteLength": 52
    },
    {
      "buffer": 0,
      "byteOffset": 27872,
      "byteLength": 208
    },
    {
      "buffer": 0,
      "byteOffset": 28080,
      "byteLength": 52
    },
    {
      "buffer": 0,
      "byteOffset": 28132,
      "byteLength": 156
    }
  ],
  "accessors": [
    {
      "bufferView": 0,
      "componentType": 5126,
      "count": 328,
      "type": "VEC3",
      "min": [
        -0.3252923730667373,
        -0.8067037725342237,
        -0.12838352700040945
      ],
      "max": [
        0.32470762693326266,
        0.7308110347018366,
        0.14160400959860797
      ]
    },
    {
      "bufferView": 1,
      "componentType": 5126,
      "count": 328,
      "type": "VEC2"
    },
    {
      "bufferView": 2,
      "componentType": 5121,
      "count": 328,
      "type": "VEC4"
    },
    {
      "bufferView": 3,
      "componentType": 5126,
      "count": 328,
      "type": "VEC4"
    },
    {
      "bufferView": 4,
      "componentType": 5123,
      "count": 492,
      "type": "SCALAR"
    },
    {
      "bufferView": 5,
      "componentType": 5126,
      "count": 9,
      "type": "MAT4"
    },
    {
      "bufferView": 6,
      "componentType": 5126,
      "count": 24,
      "type": "SCALAR",
      "min": [
        0.0
      ],
      "max": [
        1.5333333333333334
      ]
    },
    {
      "bufferView": 7,
      "componentType": 5126,
      "count": 24,
      "type": "VEC4"
    },
    {
      "bufferView": 8,
      "componentType": 5126,
      "count": 24,
      "type": "SCALAR",
      "min": [
        0.0
      ],
      "max": [
        1.5333333333333334
      ]
    },
    {
      "bufferView": 9,
      "componentType": 5126,
      "count": 24,
      "type": "VEC3"
    },
    {
      "bufferView": 10,
      "componentType": 5126,
      "count": 24,
      "type": "SCALAR",
      "min": [
        0.0
      ],
      "max": [
        1.5333333333333334
      ]
    },
    {
      "bufferView": 11,
      "componentType": 5126,
      "count": 24,
      "type": "VEC4"
    },
    {
      "bufferView": 12,
      "componentType": 5126,
      "count": 24,
      "type": "SCALAR",
      "min": [
        0.0
      ],
      "max": [
        1.5333333333333334
      ]
    },
    {
      "bufferView": 13,
      "componentType": 5126,
      "count": 24,
      "type": "VEC3"
    },
    {
      "bufferView": 14,
      "componentType": 5126,
      "count": 24,
      "type": "SCALAR",
      "min": [
        0.0
      ],
      "max": [
        1.5333333333333334
      ]
    },
    {
      "bufferView": 15,
      "componentType": 5126,
      "count": 24,
      "type": "VEC4"
    },
    {
      "bufferView": 16,
      "componentType": 5126,
      "count": 24,
      "type": "SCALAR",
      "min": [
        0.0
      ],
      "max": [
        1.5333333333333334
      ]
    },
    {
      "bufferView": 17,
      "componentType": 5126,
      "count": 24,
      "type": "VEC3"
    },
    {
      "bufferView": 18,
      "componentType": 5126,
      "count": 24,
      "type": "SCALAR",
      "min": [
        0.0
      ],
      "max": [
        1.5333333333333334
      ]
    },
    {
      "bufferView": 19,
      "componentType": 5126,
      "count": 24,
      "type": "VEC4"
    },
    {
      "bufferView": 20,
      "componentType": 5126,
      "count": 24,
      "type": "SCALAR",
      "min": [
        0.0
      ],
      "max": [
        1.5333333333333334
      ]
    },
    {
      "bufferView": 21,
      "componentType": 5126,
      "count": 24,
      "type": "VEC3"
    },
    {
      "bufferView": 22,
      "componentType": 5126,
      "count": 24,
      "type": "SCALAR",
      "min": [
        0.0
      ],
      "max": [
        1.5333333333333334
      ]
    },
    {
      "bufferView": 23,
      "componentType": 5126,
      "count": 24,
      "type": "VEC4"
    },
    {
      "bufferView": 24,
      "componentType": 5126,
      "count": 24,
      "type": "SCALAR",
      "min": [
        0.0
      ],
      "max": [
        1.5333333333333334
      ]
    },
    {
      "bufferView": 25,
      "componentType": 5126,
      "count": 24,
      "type": "VEC3"
    },
    {
      "bufferView": 26,
      "componentType": 5126,
      "count": 24,
      "type": "SCALAR",
      "min": [
        0.0
      ],
      "max": [
        1.5333333333333334
      ]
    },
    {
      "bufferView": 27,
      "componentType": 5126,
      "count": 24,
      "type": "VEC4"
    },
    {
      "bufferView": 28,
      "componentType": 5126,
      "count": 24,
      "type": "SCALAR",
      "min": [
        0.0
      ],
      "max": [
        1.5333333333333334
      ]
    },
    {
      "bufferView": 29,
      "componentType": 5126,
      "count": 24,
      "type": "VEC3"
    },
    {
      "bufferView": 30,
      "componentType": 5126,
      "count": 13,
      "type": "SCALAR",
      "min": [
        0.0
      ],
      "max": [
        0.8
      ]
    },
    {
      "bufferView": 31,
      "componentType": 5126,
      "count": 13,
      "type": "VEC4"
    },
    {
      "bufferView": 32,
      "componentType": 5126,
      "count": 13,
      "type": "SCALAR",
      "min": [
        0.0
      ],
      "max": [
        0.8
      ]
    },
    {
      "bufferView": 33,
      "componentType": 5126,
      "count": 13,
      "type": "VEC3"
    },
    {
      "bufferView": 34,
      "componentType": 5126,
      "count": 13,
      "type": "SCALAR",
      "min": [
        0.0
      ],
      "max": [
        0.8
      ]
    },
    {
      "bufferView": 35,
      "componentType": 5126,
      "count": 13,
      "type": "VEC4"
    },
    {
      "bufferView": 36,
      "componentType": 5126,
      "count": 13,
      "type": "SCALAR",
      "min": [
        0.0
      ],
      "max": [
        0.8
      ]
    },
    {
      "bufferView": 37,
      "componentType": 5126,
      "count": 13,
      "type": "VEC3"
    },
    {
      "bufferView": 38,
      "componentType": 5126,
      "count": 13,
      "type": "SCALAR",
      "min": [
        0.0
      ],
      "max": [
        0.8
      ]
    },
    {
      "bufferView": 39,
      "componentType": 5126,
      "count": 13,
      "type": "VEC4"
    },
    {
      "bufferView": 40,
      "componentType": 5126,
      "count": 13,
      "type": "SCALAR",
      "min": [
        0.0
      ],
      "max": [
        0.8
      ]
    },
    {
      "bufferView": 41,
      "componentType": 5126,
      "count": 13,
      "type": "VEC3"
    },
    {
      "bufferView": 42,
      "componentType": 5126,
      "count": 13,
      "type": "SCALAR",
      "min": [
        0.0
      ],
      "max": [
        0.8
      ]
    },
    {
      "bufferView": 43,
      "componentType": 5126,
      "count": 13,
      "type": "VEC4"
    },
    {
      "bufferView": 44,
      "componentType": 5126,
      "count": 13,
      "type": "SCALAR",
      "min": [
        0.0
      ],
      "max": [
        0.8
      ]
    },
    {
      "bufferView": 45,
      "componentType": 5126,
      "count": 13,
      "type": "VEC3"
    },
    {
      "bufferView": 46,
      "componentType": 5126,
      "count": 13,
      "type": "SCALAR",
      "min": [
        0.0
      ],
      "max": [
        0.8
      ]
    },
    {
      "bufferView": 47,
      "componentType": 5126,
      "count": 13,
      "type": "VEC4"
    },
    {
      "bufferView": 48,
      "componentType": 5126,
      "count": 13,
      "type": "SCALAR",
      "min": [
        0.0
      ],
      "max": [
        0.8
      ]
    },
    {
      "bufferView": 49,
      "componentType": 5126,
      "count": 13,
      "type": "VEC3"
    },
    {
      "bufferView": 50,
      "componentType": 5126,
      "count": 13,
      "type": "SCALAR",
      "min": [
        0.0
      ],
      "max": [
        0.8
      ]
    },
    {
      "bufferView": 51,
      "componentType": 5126,
      "count": 13,
      "type": "VEC4"
    },
    {
      "bufferView": 52,
      "componentType": 5126,
      "count": 13,
      "type": "SCALAR",
      "min": [
        0.0
      ],
      "max": [
        0.8
      ]
    },
    {
      "bufferView": 53,
      "componentType": 5126,
      "count": 13,
      "type": "VEC3"
    },
    {
      "bufferView": 54,
      "componentType": 5126,
      "count": 13,
      "type": "SCALAR",
      "min": [
        0.0
      ],
      "max": [
        0.8
      ]
    },
    {
      "bufferView": 55,
      "componentType": 5126,
      "count": 13,
      "type": "VEC4"
    },
    {
      "bufferView": 56,
      "componentType": 5126,
      "count": 13,
      "type": "SCALAR",
      "min": [
        0.0
      ],
      "max": [
        0.8
      ]
    },
    {
      "bufferView": 57,
      "componentType": 5126,
      "count": 13,
      "type": "VEC3"
    },
    {
      "bufferView": 58,
      "componentType": 5126,
      "count": 13,
      "type": "SCALAR",
      "min": [
        0.0
      ],
      "max": [
        0.8
      ]
    },
    {
      "bufferView": 59,
      "componentType": 5126,
      "count": 13,
      "type": "VEC4"
    },
    {
      "bufferView": 60,
      "componentType": 5126,
      "count": 13,
      "type": "SCALAR",
      "min": [
        0.0
      ],
      "max": [
        0.8
      ]
    },
    {
      "bufferView": 61,
      "componentType": 5126,
      "count": 13,
      "type": "VEC3"
    },
    {
      "bufferView": 62,
      "componentType": 5126,
      "count": 13,
      "type": "SCALAR",
      "min": [
        0.0
      ],
      "max": [
        0.8
      ]
    },
    {
      "bufferView": 63,
      "componentType": 5126,
      "count": 13,
      "type": "VEC4"
    },
    {
      "bufferView": 64,
      "componentType": 5126,
      "count": 13,
      "type": "SCALAR",
      "min": [
        0.0
      ],
      "max": [
        0.8
      ]
    },
    {
      "bufferView": 65,
      "componentType": 5126,
      "count": 13,
      "type": "VEC3"
    },
    {
      "bufferView": 66,
      "componentType": 5126,
      "count": 13,
      "type": "SCALAR",
      "min": [
        0.0
      ],
      "max": [
        0.8
      ]
    },
    {
      "bufferView": 67,
      "componentType": 5126,
      "count": 13,
      "type": "VEC4"
    },
    {
      "bufferView": 68,
      "componentType": 5126,
      "count": 13,
      "type": "SCALAR",
      "min": [
        0.0
      ],
      "max": [
        0.8
      ]
    },
    {
      "bufferView": 69,
      "componentType": 5126,
      "count": 13,
      "type": "VEC3"
    },
    {
      "bufferView": 70,
      "componentType": 5126,
      "count": 13,
      "type": "SCALAR",
      "min": [
        0.0
      ],
      "max": [
        0.8
      ]
    },
    {
      "bufferView": 71,
      "componentType": 5126,
      "count": 13,
      "type": "VEC4"
    },
    {
      "bufferView": 72,
      "componentType": 5126,
      "count": 13,
      "type": "SCALAR",
      "min": [
        0.0
      ],
      "max": [
        0.8
      ]
    },
    {
      "bufferView": 73,
      "componentType": 5126,
      "count": 13,
      "type": "VEC3"
    },
    {
      "bufferView": 74,
      "componentType": 5126,
      "count": 13,
      "type": "SCALAR",
      "min": [
        0.0
      ],
      "max": [
        0.8
      ]
    },
    {
      "bufferView": 75,
      "componentType": 5126,
      "count": 13,
      "type": "VEC4"
    },
    {
      "bufferView": 76,
      "componentType": 5126,
      "count": 13,
      "type": "SCALAR",
      "min": [
        0.0
      ],
      "max": [
        0.8
      ]
    },
    {
      "bufferView": 77,
      "componentType": 5126,
      "count": 13,
      "type": "VEC3"
    },
    {
      "bufferView": 78,
      "componentType": 5126,
      "count": 13,
      "type": "SCALAR",
      "min": [
        0.0
      ],
      "max": [
        0.8
      ]
    },
    {
      "bufferView": 79,
      "componentType": 5126,
      "count": 13,
      "type": "VEC4"
    },
    {
      "bufferView": 80,
      "componentType": 5126,
      "count": 13,
      "type": "SCALAR",
      "min": [
        0.0
      ],
      "max": [
        0.8
      ]
    },
    {
      "bufferView": 81,
      "componentType": 5126,
      "count": 13,
      "type": "VEC3"
    },
    {
      "bufferView": 82,
      "componentType": 5126,
      "count": 13,
      "type": "SCALAR",
      "min": [
        0.0
      ],
      "max": [
        0.8
      ]
    },
    {
      "bufferView": 83,
      "componentType": 5126,
      "count": 13,
      "type": "VEC4"
    },
    {
      "bufferView": 84,
      "componentType": 5126,
      "count": 13,
      "type": "SCALAR",
      "min": [
        0.0
      ],
      "max": [
        0.8
      ]
    },
    {
      "bufferView": 85,
      "componentType": 5126,
      "count": 13,
      "type": "VEC3"
    },
    {
      "bufferView": 86,
      "componentType": 5126,
      "count": 13,
      "type": "SCALAR",
      "min": [
        0.0
      ],
      "max": [
        0.8
      ]
    },
    {
      "bufferView": 87,
      "componentType": 5126,
      "count": 13,
      "type": "VEC4"
    },
    {
      "bufferView": 88,
      "componentType": 5126,
      "count": 13,
      "type": "SCALAR",
      "min": [
        0.0
      ],
      "max": [
        0.8
      ]
    },
    {
      "bufferView": 89,
      "componentType": 5126,
      "count": 13,
      "type": "VEC3"
    },
    {
      "bufferView": 90,
      "componentType": 5126,
      "count": 13,
      "type": "SCALAR",
      "min": [
        0.0
      ],
      "max": [
        0.8
      ]
    },
    {
      "bufferView": 91,
      "componentType": 5126,
      "count": 13,
      "type": "VEC4"
    },
    {
      "bufferView": 92,
      "componentType": 5126,
      "count": 13,
      "type": "SCALAR",
      "min": [
        0.0
      ],
      "max": [
        0.8
      ]
    },
    {
      "bufferView": 93,
      "componentType": 5126,
      "count": 13,
      "type": "VEC3"
    },
    {
      "bufferView": 94,
      "componentType": 5126,
      "count": 13,
      "type": "SCALAR",
      "min": [
        0.0
      ],
      "max": [
        0.8
      ]
    },
    {
      "bufferView": 95,
      "componentType": 5126,
      "count": 13,
      "type": "VEC4"
    },
    {
      "bufferView": 96,
      "componentType": 5126,
      "count": 13,
      "type": "SCALAR",
      "min": [
        0.0
      ],
      "max": [
        0.8
      ]
    },
    {
      "bufferView": 97,
      "componentType": 5126,
      "count": 13,
      "type": "VEC3"
    },
    {
      "bufferView": 98,
      "componentType": 5126,
      "count": 13,
      "type": "SCALAR",
      "min": [
        0.0
      ],
      "max": [
        0.8
      ]
    },
    {
      "bufferView": 99,
      "componentType": 5126,
      "count": 13,
      "type": "VEC4"
    },
    {
      "bufferView": 100,
      "componentType": 5126,
      "count": 13,
      "type": "SCALAR",
      "min": [
        0.0
      ],
      "max": [
        0.8
      ]
    },
    {
      "bufferView": 101,
      "componentType": 5126,
      "count": 13,
      "type": "VEC3"
    }
  ],
  "animations": [
    {
      "name": "idle",
      "channels": [
        {
          "sampler": 0,
          "target": {
            "node": 4,
            "path": "rotation"
          }
        },
        {
          "sampler": 1,
          "target": {
            "node": 4,
            "path": "translation"
          }
        },
        {
          "sampler": 2,
          "target": {
            "node": 5,
            "path": "rotation"
          }
        },
        {
          "sampler": 3,
          "target": {
            "node": 5,
            "path": "translation"
          }
        },
        {
          "sampler": 4,
          "target": {
            "node": 6,
            "path": "rotation"
          }
        },
        {
          "sampler": 5,
          "target": {
            "node": 6,
            "path": "translation"
          }
        },
        {
          "sampler": 6,
          "target": {
            "node": 7,
            "path": "rotation"
          }
        },
        {
          "sampler": 7,
          "target": {
            "node": 7,
            "path": "translation"
          }
        },
        {
          "sampler": 8,
          "target": {
            "node": 8,
            "path": "rotation"
          }
        },
        {
          "sampler": 9,
          "target": {
            "node": 8,
            "path": "translation"
          }
        },
        {
          "sampler": 10,
          "target": {
            "node": 9,
            "path": "rotation"
          }
        },
        {
          "sampler": 11,
          "target": {
            "node": 9,
            "path": "translation"
          }
        }
      ],
      "samplers": [
        {
          "input": 6,
          "interpolation": "LINEAR",
          "output": 7
        },
        {
          "input": 8,
          "interpolation": "LINEAR",
          "output": 9
        },
        {
          "input": 10,
          "interpolation": "LINEAR",
          "output": 11
        },
        {
          "input": 12,
          "interpolation": "LINEAR",
          "output": 13
        },
        {
          "input": 14,
          "interpolation": "LINEAR",
          "output": 15
        },
        {
          "input": 16,
          "interpolation": "LINEAR",
          "output": 17
        },
        {
          "input": 18,
          "interpolation": "LINEAR",
          "output": 19
        },
        {
          "input": 20,
          "interpolation": "LINEAR",
          "output": 21
        },
        {
          "input": 22,
          "interpolation": "LINEAR",
          "output": 23
        },
        {
          "input": 24,
          "interpolation": "LINEAR",
          "output": 25
        },
        {
          "input": 26,
          "interpolation": "LINEAR",
          "output": 27
        },
        {
          "input": 28,
          "interpolation": "LINEAR",
          "output": 29
        }
      ]
    },
    {
      "name": "walk",
      "channels": [
        {
          "sampler": 0,
          "target": {
            "node": 4,
            "path": "rotation"
          }
        },
        {
          "sampler": 1,
          "target": {
            "node": 4,
            "path": "translation"
          }
        },
        {
          "sampler": 2,
          "target": {
            "node": 5,
            "path": "rotation"
          }
        },
        {
          "sampler": 3,
          "target": {
            "node": 5,
            "path": "translation"
          }
        },
        {
          "sampler": 4,
          "target": {
            "node": 6,
            "path": "rotation"
          }
        },
        {
          "sampler": 5,
          "target": {
            "node": 6,
            "path": "translation"
          }
        },
        {
          "sampler": 6,
          "target": {
            "node": 7,
            "path": "rotation"
          }
        },
        {
          "sampler": 7,
          "target": {
            "node": 7,
            "path": "translation"
          }
        },
        {
          "sampler": 8,
          "target": {
            "node": 8,
            "path": "rotation"
          }
        },
        {
          "sampler": 9,
          "target": {
            "node": 8,
            "path": "translation"
          }
        },
        {
          "sampler": 10,
          "target": {
            "node": 9,
            "path": "rotation"
          }
        },
        {
          "sampler": 11,
          "target": {
            "node": 9,
            "path": "translation"
          }
        }
      ],
      "samplers": [
        {
          "input": 30,
          "interpolation": "LINEAR",
          "output": 31
        },
        {
          "input": 32,
          "interpolation": "LINEAR",
          "output": 33
        },
        {
          "input": 34,
          "interpolation": "LINEAR",
          "output": 35
        },
        {
          "input": 36,
          "interpolation": "LINEAR",
          "output": 37
        },
        {
          "input": 38,
          "interpolation": "LINEAR",
          "output": 39
        },
        {
          "input": 40,
          "interpolation": "LINEAR",
          "output": 41
        },
        {
          "input": 42,
          "interpolation": "LINEAR",
          "output": 43
        },
        {
          "input": 44,
          "interpolation": "LINEAR",
          "output": 45
        },
        {
          "input": 46,
          "interpolation": "LINEAR",
          "output": 47
        },
        {
          "input": 48,
          "interpolation": "LINEAR",
          "output": 49
        },
        {
          "input": 50,
          "interpolation": "LINEAR",
          "output": 51
        },
        {
          "input": 52,
          "interpolation": "LINEAR",
          "output": 53
        }
      ]
    },
    {
      "name": "run",
      "channels": [
        {
          "sampler": 0,
          "target": {
            "node": 4,
            "path": "rotation"
          }
        },
        {
          "sampler": 1,
          "target": {
            "node": 4,
            "path": "translation"
          }
        },
        {
          "sampler": 2,
          "target": {
            "node": 5,
            "path": "rotation"
          }
        },
        {
          "sampler": 3,
          "target": {
            "node": 5,
            "path": "translation"
          }
        },
        {
          "sampler": 4,
          "target": {
            "node": 6,
            "path": "rotation"
          }
        },
        {
          "sampler": 5,
          "target": {
            "node": 6,
            "path": "translation"
          }
        },
        {
          "sampler": 6,
          "target": {
            "node": 7,
            "path": "rotation"
          }
        },
        {
          "sampler": 7,
          "target": {
            "node": 7,
            "path": "translation"
          }
        },
        {
          "sampler": 8,
          "target": {
            "node": 8,
            "path": "rotation"
          }
        },
        {
          "sampler": 9,
          "target": {
            "node": 8,
            "path": "translation"
          }
        },
        {
          "sampler": 10,
          "target": {
            "node": 9,
            "path": "rotation"
          }
        },
        {
          "sampler": 11,
          "target": {
            "node": 9,
            "path": "translation"
          }
        }
      ],
      "samplers": [
        {
          "input": 54,
          "interpolation": "LINEAR",
          "output": 55
        },
        {
          "input": 56,
          "interpolation": "LINEAR",
          "output": 57
        },
        {
          "input": 58,
          "interpolation": "LINEAR",
          "output": 59
        },
        {
          "input": 60,
          "interpolation": "LINEAR",
          "output": 61
        },
        {
          "input": 62,
          "interpolation": "LINEAR",
          "output": 63
        },
        {
          "input": 64,
          "interpolation": "LINEAR",
          "output": 65
        },
        {
          "input": 66,
          "interpolation": "LINEAR",
          "output": 67
        },
        {
          "input": 68,
          "interpolation": "LINEAR",
          "output": 69
        },
        {
          "input": 70,
          "interpolation": "LINEAR",
          "output": 71
        },
        {
          "input": 72,
          "interpolation": "LINEAR",
          "output": 73
        },
        {
          "input": 74,
          "interpolation": "LINEAR",
          "output": 75
        },
        {
          "input": 76,
          "interpolation": "LINEAR",
          "output": 77
        }
      ]
    },
    {
      "name": "punch",
      "channels": [
        {
          "sampler": 0,
          "target": {
            "node": 4,
            "path": "rotation"
          }
        },
        {
          "sampler": 1,
          "target": {
            "node": 4,
            "path": "translation"
          }
        },
        {
          "sampler": 2,
          "target": {
            "node": 5,
            "path": "rotation"
          }
        },
        {
          "sampler": 3,
          "target": {
            "node": 5,
            "path": "translation"
          }
        },
        {
          "sampler": 4,
          "target": {
            "node": 6,
            "path": "rotation"
          }
        },
        {
          "sampler": 5,
          "target": {
            "node": 6,
            "path": "translation"
          }
        },
        {
          "sampler": 6,
          "target": {
            "node": 7,
            "path": "rotation"
          }
        },
        {
          "sampler": 7,
          "target": {
            "node": 7,
            "path": "translation"
          }
        },
        {
          "sampler": 8,
          "target": {
            "node": 8,
            "path": "rotation"
          }
        },
        {
          "sampler": 9,
          "target": {
            "node": 8,
            "path": "translation"
          }
        },
        {
          "sampler": 10,
          "target": {
            "node": 9,
            "path": "rotation"
          }
        },
        {
          "sampler": 11,
          "target": {
            "node": 9,
            "path": "translation"
          }
        }
      ],
      "samplers": [
        {
          "input": 78,
          "interpolation": "LINEAR",
          "output": 79
        },
        {
          "input": 80,
          "interpolation": "LINEAR",
          "output": 81
        },
        {
          "input": 82,
          "interpolation": "LINEAR",
          "output": 83
        },
        {
          "input": 84,
          "interpolation": "LINEAR",
          "output": 85
        },
        {
          "input": 86,
          "interpolation": "LINEAR",
          "output": 87
        },
        {
          "input": 88,
          "interpolation": "LINEAR",
          "output": 89
        },
        {
          "input": 90,
          "interpolation": "LINEAR",
          "output": 91
        },
        {
          "input": 92,
          "interpolation": "LINEAR",
          "output": 93
        },
        {
          "input": 94,
          "interpolation": "LINEAR",
          "output": 95
        },
        {
          "input": 96,
          "interpolation": "LINEAR",
          "output": 97
        },
        {
          "input": 98,
          "interpolation": "LINEAR",
          "output": 99
        },
        {
          "input": 100,
          "interpolation": "LINEAR",
          "output": 101
        }
      ]
    }
  ]
}