{
  "asset": {
    "version": "2.0",
    "generator": "b3d_export_gltf.py"
  },
  "scene": 0,
  "scenes": [
    {
      "nodes": [
        0
      ]
    }
  ],
  "nodes": [
    {
      "name": "armature",
      "children": [
        9
      ]
    },
    {
      "name": "group_6",
      "translation": [
        0.0,
        0.0,
        0.0
      ],
      "rotation": [
        0.0,
        0.0,
        0.0,
        1.0
      ],
      "scale": [
        1.0,
        1.0,
        1.0
      ],
      "children": [
        2
      ]
    },
    {
      "name": "Bone",
      "translation": [
        0.0,
        0.07466664157443736,
        -0.29999998092651486
      ],
      "rotation": [
        -6.978688101736158e-17,
        0.7071067811865476,
        0.7071067811865476,
        -6.978688101736158e-17
      ],
      "scale": [
        5.0,
        5.0,
        5.0
      ],
      "children": [
        3,
        4,
        5,
        6,
        7,
        8
      ]
    },
    {
      "name": "Bone.003",
      "translation": [
        0.05322666465589748,
        0.09993808110948682,
        -0.03999999745686865
      ],
      "rotation": [
        0.7071067811865476,
        6.978688101736158e-17,
        -6.978688101736158e-17,
        0.7071067811865476
      ],
      "scale": [
        1.0,
        1.0,
        1.0
      ]
    },
    {
      "name": "Bone.007",
      "translation": [
        0.05322666465589748,
        0.019938086195749525,
        -0.03999999745686865
      ],
      "rotation": [
        0.7071067811865476,
        6.978688101736158e-17,
        -6.978688101736158e-17,
        0.7071067811865476
      ],
      "scale": [
        1.0,
        1.0,
        1.0
      ]
    },
    {
      "name": "Bone.002",
      "translation": [
        -0.05322666465589748,
        0.09993808110948682,
        -0.03999999745686865
      ],
      "rotation": [
        0.707106525116313,
        -0.0005656947570224041,
        -0.0005656603562950742,
        0.7071065847209573
      ],
      "scale": [
        1.0,
        0.9999999403953552,
        1.0
      ]
    },
    {
      "name": "Bone.004",
      "translation": [
        -0.0,
        0.119991409302304,
        -0.0
      ],
      "rotation": [
        0.0,
        0.0,
        1.0,
        0.0
      ],
      "scale": [
        1.0,
        1.0,
        1.0
      ]
    },
    {
      "name": "Bone.006",
      "translation": [
        -0.05322666465589748,
        0.019938086195749525,
        -0.03999999745686865
      ],
      "rotation": [
        0.707106525116313,
        -0.0005656947570224041,
        -0.0005656603562950742,
        0.7071065847209573
      ],
      "scale": [
        1.0,
        0.9999999403953552,
        1.0
      ]
    },
    {
      "name": "Bone.001",
      "translation": [
        -0.0,
        0.119991409302304,
        -0.0
      ],
      "rotation": [
        0.0,
        0.0,
        -9.86935526267721e-17,
        1.0
      ],
      "scale": [
        1.0,
        0.9999999403953552,
        1.0
      ]
    },
    {
      "name": "panda",
      "mesh": 0,
      "skin": 0
    }
  ],
  "meshes": [
    {
      "name": "panda",
      "primitives": [
        {
          "attributes": {
            "POSITION": 0,
            "TEXCOORD_0": 1,
            "JOINTS_0": 2,
            "WEIGHTS_0": 3
          },
          "indices": 4,
          "material": 0
        }
      ]
    }
  ],
  "skins": [
    {
      "inverseBindMatrices": 5,
      "joints": [
        1,
        2,
        3,
        4,
        5,
        6,
        7,
        8
      ],
      "skeleton": 1
    }
  ],
  "materials": [
    {
      "name": "body",
      "pbrMetallicRoughness": {
        "baseColorTexture": {
          "index": 0
        },
        "metallicFactor": 0.0,
        "roughnessFactor": 1.0
      },
      "doubleSided": true
    }
  ],
  "textures": [
    {
      "source": 0
    }
  ],
  "images": [
    {
      "uri": "textures/body.png"
    }
  ],
  "buffers": [
    {
      "byteLength": 85376,
      "uri": "model.bin"
    }
  ],
  "bufferViews": [
    {
      "buffer": 0,
      "byteOffset": 0,
      "byteLength": 2304,
      "target": 34962
    },
    {
      "buffer": 0,
      "byteOffset": 2304,
      "byteLength": 1536,
      "target": 34962
    },
    {
      "buffer": 0,
      "byteOffset": 3840,
      "byteLength": 768,
      "target": 34962
    },
    {
      "buffer": 0,
      "byteOffset": 4608,
      "byteLength": 3072,
      "target": 34962
    },
    {
      "buffer": 0,
      "byteOffset": 7680,
      "byteLength": 576,
      "target": 34963
    },
    {
      "buffer": 0,
      "byteOffset": 8256,
      "byteLength": 512
    },
    {
      "buffer": 0,
      "byteOffset": 8768,
      "byteLength": 564
    },
    {
      "buffer": 0,
      "byteOffset": 9332,
      "byteLength": 2256
    },
    {
      "buffer": 0,
      "byteOffset": 11588,
      "byteLength": 564
    },
    {
      "buffer": 0,
      "byteOffset": 12152,
      "byteLength": 1692
    },
    {
      "buffer": 0,
      "byteOffset": 13844,
      "byteLength": 564
    },
    {
      "buffer": 0,
      "byteOffset": 14408,
      "byteLength": 2256
    },
    {
      "buffer": 0,
      "byteOffset": 16664,
      "byteLength": 564
    },
    {
      "buffer": 0,
      "byteOffset": 17228,
      "byteLength": 1692
    },
    {
      "buffer": 0,
      "byteOffset": 18920,
      "byteLength": 564
    },
    {
      "buffer": 0,
      "byteOffset": 19484,
      "byteLength": 2256
    },
    {
      "buffer": 0,
      "byteOffset": 21740,
      "byteLength": 564
    },
    {
      "buffer": 0,
      "byteOffset": 22304,
      "byteLength": 1692
    },
    {
      "buffer": 0,
      "byteOffset": 23996,
      "byteLength": 564
    },
    {
      "buffer": 0,
      "byteOffset": 24560,
      "byteLength": 2256
    },
    {
      "buffer": 0,
      "byteOffset": 26816,
      "byteLength": 564
    },
    {
      "buffer": 0,
      "byteOffset": 27380,
      "byteLength": 1692
    },
    {
      "buffer": 0,
      "byteOffset": 29072,
      "byteLength": 564
    },
    {
      "buffer": 0,
      "byteOffset": 29636,
      "byteLength": 2256
    },
    {
      "buffer": 0,
      "byteOffset": 31892,
      "byteLength": 564
    },
    {
      "buffer": 0,
      "byteOffset": 32456,
      "byteLength": 1692
    },
    {
      "buffer": 0,
      "byteOffset": 34148,
      "byteLength": 564
    },
    {
      "buffer": 0,
      "byteOffset": 34712,
      "byteLength": 2256
    },
    {
      "buffer": 0,
      "byteOffset": 36968,
      "byteLength": 564
    },
    {
      "buffer": 0,
      "byteOffset": 37532,
      "byteLength": 1692
    },
    {
      "buffer": 0,
      "byteOffset": 39224,
      "byteLength": 564
    },
    {
      "buffer": 0,
      "byteOffset": 39788,
      "byteLength": 2256
    },
    {
      "buffer": 0,
      "byteOffset": 42044,
      "byteLength": 564
    },
    {
      "buffer": 0,
      "byteOffset": 42608,
      "byteLength": 1692
    },
    {
      "buffer": 0,
      "byteOffset": 44300,
      "byteLength": 244
    },
    {
      "buffer": 0,
      "byteOffset": 44544,
      "byteLength": 976
    },
    {
      "buffer": 0,
      "byteOffset": 45520,
      "byteLength": 244
    },
    {
      "buffer": 0,
      "byteOffset": 45764,
      "byteLength": 732
    },
    {
      "buffer": 0,
      "byteOffset": 46496,
      "byteLength": 244
    },
    {
      "buffer": 0,
      "byteOffset": 46740,
      "byteLength": 976
    },
    {
      "buffer": 0,
      "byteOffset": 47716,
      "byteLength": 244
    },
    {
      "buffer": 0,
      "byteOffset": 47960,
      "byteLength": 732
    },
    {
      "buffer": 0,
      "byteOffset": 48692,
      "byteLength": 244
    },
    {
      "buffer": 0,
      "byteOffset": 48936,
      "byteLength": 976
    },
    {
      "buffer": 0,
      "byteOffset": 49912,
      "byteLength": 244
    },
    {
      "buffer": 0,
      "byteOffset": 50156,
      "byteLength": 732
    },
    {
      "buffer": 0,
      "byteOffset": 50888,
      "byteLength": 244
    },
    {
      "buffer": 0,
      "byteOffset": 51132,
      "byteLength": 976
    },
    {
      "buffer": 0,
      "byteOffset": 52108,
      "byteLength": 244
    },
    {
      "buffer": 0,
      "byteOffset": 52352,
      "byteLength": 732
    },
    {
      "buffer": 0,
      "byteOffset": 53084,
      "byteLength": 244
    },
    {
      "buffer": 0,
      "byteOffset": 53328,
      "byteLength": 976
    },
    {
      "buffer": 0,
      "byteOffset": 54304,
      "byteLength": 244
    },
    {
      "buffer": 0,
      "byteOffset": 54548,
      "byteLength": 732
    },
    {
      "buffer": 0,
      "byteOffset": 55280,
      "byteLength": 244
    },
    {
      "buffer": 0,
      "byteOffset": 55524,
      "byteLength": 976
    },
    {
      "buffer": 0,
      "byteOffset": 56500,
      "byteLength": 244
    },
    {
      "buffer": 0,
      "byteOffset": 56744,
      "byteLength": 732
    },
    {
      "buffer": 0,
      "byteOffset": 57476,
      "byteLength": 244
    },
    {
      "buffer": 0,
      "byteOffset": 57720,
      "byteLength": 976
    },
    {
      "buffer": 0,
      "byteOffset": 58696,
      "byteLength": 244
    },
    {
      "buffer": 0,
      "byteOffset": 58940,
      "byteLength": 732
    },
    {
      "buffer": 0,
      "byteOffset": 59672,
      "byteLength": 244
    },
    {
      "buffer": 0,
      "byteOffset": 59916,
      "byteLength": 976
    },
    {
      "buffer": 0,
      "byteOffset": 60892,
      "byteLength": 244
    },
    {
      "buffer": 0,
      "byteOffset": 61136,
      "byteLength": 732
    },
    {
      "buffer": 0,
      "byteOffset": 61868,
      "byteLength": 244
    },
    {
      "buffer": 0,
      "byteOffset": 62112,
      "byteLength": 976
    },
    {
      "buffer": 0,
      "byteOffset": 63088,
      "byteLength": 244
    },
    {
      "buffer": 0,
      "byteOffset": 63332,
      "byteLength": 732
    },
    {
      "buffer": 0,
      "byteOffset": 64064,
      "byteLength": 244
    },
    {
      "buffer": 0,
      "byteOffset": 64308,
      "byteLength": 976
    },
    {
      "buffer": 0,
      "byteOffset": 65284,
      "byteLength": 244
    },
    {
      "buffer": 0,
      "byteOffset": 65528,
      "byteLength": 732
    },
    {
      "buffer": 0,
      "byteOffset": 66260,
      "byteLength": 244
    },
    {
      "buffer": 0,
      "byteOffset": 66504,
      "byteLength": 976
    },
    {
      "buffer": 0,
      "byteOffset": 67480,
      "byteLength": 244
    },
    {
      "buffer": 0,
      "byteOffset": 67724,
      "byteLength": 732
    },
    {
      "buffer": 0,
      "byteOffset": 68456,
      "byteLength": 244
    },
    {
      "buffer": 0,
      "byteOffset": 68700,
      "byteLength": 976
    },
    {
      "buffer": 0,
      "byteOffset": 69676,
      "byteLength": 244
    },
    {
      "buffer": 0,
      "byteOffset": 69920,
      "byteLength": 732
    },
    {
      "buffer": 0,
      "byteOffset": 70652,
      "byteLength": 244
    },
    {
      "buffer": 0,
      "byteOffset": 70896,
      "byteLength": 976
    },
    {
      "buffer": 0,
      "byteOffset": 71872,
      "byteLength": 244
    },
    {
      "buffer": 0,
      "byteOffset": 72116,
      "byteLength": 732
    },
    {
      "buffer": 0,
      "byteOffset": 72848,
      "byteLength": 244
    },
    {
      "buffer": 0,
      "byteOffset": 73092,
      "byteLength": 976
    },
    {
      "buffer": 0,
      "byteOffset": 74068,
      "byteLength": 244
    },
    {
      "buffer": 0,
      "byteOffset": 74312,
      "byteLength": 732
    },
    {
      "buffer": 0,
      "byteOffset": 75044,
      "byteLength": 164
    },
    {
      "buffer": 0,
      "byteOffset": 75208,
      "byteLength": 656
    },
    {
      "buffer": 0,
      "byteOffset": 75864,
      "byteLength": 164
    },
    {
      "buffer": 0,
      "byteOffset": 76028,
      "byteLength": 492
    },
    {
      "buffer": 0,
      "byteOffset": 76520,
      "byteLength": 164
    },
    {
      "buffer": 0,
      "byteOffset": 76684,
      "byteLength": 656
    },
    {
      "buffer": 0,
      "byteOffset": 77340,
      "byteLength": 164
    },
    {
      "buffer": 0,
      "byteOffset": 77504,
      "byteLength": 492
    },
    {
      "buffer": 0,
      "byteOffset": 77996,
      "byteLength": 164
    },
    {
      "buffer": 0,
      "byteOffset": 78160,
      "byteLength": 656
    },
    {
      "buffer": 0,
      "byteOffset": 78816,
      "byteLength": 164
    },
    {
      "buffer": 0,
      "byteOffset": 78980,
      "byteLength": 492
    },
    {
      "buffer": 0,
      "byteOffset": 79472,
      "byteLength": 164
    },
    {
      "buffer": 0,
      "byteOffset": 79636,
      "byteLength": 656
    },
    {
      "buffer": 0,
      "byteOffset": 80292,
      "byteLength": 164
    },
    {
      "buffer": 0,
      "byteOffset": 80456,
      "byteLength": 492
    },
    {
      "buffer": 0,
      "byteOffset": 80948,
      "byteLength": 164
    },
    {
      "buffer": 0,
      "byteOffset": 81112,
      "byteLength": 656
    },
    {
      "buffer": 0,
      "byteOffset": 81768,
      "byteLength": 164
    },
    {
      "buffer": 0,
      "byteOffset": 81932,
      "byteLength": 492
    },
    {
      "buffer": 0,
      "byteOffset": 82424,
      "byteLength": 164
    },
    {
      "buffer": 0,
      "byteOffset": 82588,
      "byteLength": 656
    },
    {
      "buffer": 0,
      "byteOffset": 83244,
      "byteLength": 164
    },
    {
      "buffer": 0,
      "byteOffset": 83408,
      "byteLength": 492
    },
    {
      "buffer": 0,
      "byteOffset": 83900,
      "byteLength": 164
    },
    {
      "buffer": 0,
      "byteOffset": 84064,
      "byteLength": 656
    },
    {
      "buffer": 0,
      "byteOffset": 84720,
      "byteLength": 164
    },
    {
      "buffer": 0,
      "byteOffset": 84884,
      "byteLength": 492
    }
  ],
  "accessors": [
    {
      "bufferView": 0,
      "componentType": 5126,
      "count": 192,
      "type": "VEC3",
      "min": [
        -0.33333315955269116,
        -0.458666657850478,
        -0.3000001335143958
      ],
      "max": [
        0.333333566453707,
        0.341333342149522,
        0.6996002261098082
      ]
    },
    {
      "bufferView": 1,
      "componentType": 5126,
      "count": 192,
      "type": "VEC2"
    },
    {
      "bufferView": 2,
      "componentType": 5121,
      "count": 192,
      "type": "VEC4"
    },
    {
      "bufferView": 3,
      "componentType": 5126,
      "count": 192,
      "type": "VEC4"
    },
    {
      "bufferView": 4,
      "componentType": 5123,
      "count": 288,
      "type": "SCALAR"
    },
    {
      "bufferView": 5,
      "componentType": 5126,
      "count": 8,
      "type": "MAT4"
    },
    {
      "bufferView": 6,
      "componentType": 5126,
      "count": 141,
      "type": "SCALAR",
      "min": [
        0.0
      ],
      "max": [
        9.333333333333334
      ]
    },
    {
      "bufferView": 7,
      "componentType": 5126,
      "count": 141,
      "type": "VEC4"
    },
    {
      "bufferView": 8,
      "componentType": 5126,
      "count": 141,
      "type": "SCALAR",
      "min": [
        0.0
      ],
      "max": [
        9.333333333333334
      ]
    },
    {
      "bufferView": 9,
      "componentType": 5126,
      "count": 141,
      "type": "VEC3"
    },
    {
      "bufferView": 10,
      "componentType": 5126,
      "count": 141,
      "type": "SCALAR",
      "min": [
        0.0
      ],
      "max": [
        9.333333333333334
      ]
    },
    {
      "bufferView": 11,
      "componentType": 5126,
      "count": 141,
      "type": "VEC4"
    },
    {
      "bufferView": 12,
      "componentType": 5126,
      "count": 141,
      "type": "SCALAR",
      "min": [
        0.0
      ],
      "max": [
        9.333333333333334
      ]
    },
    {
      "bufferView": 13,
      "componentType": 5126,
      "count": 141,
      "type": "VEC3"
    },
    {
      "bufferView": 14,
      "componentType": 5126,
      "count": 141,
      "type": "SCALAR",
      "min": [
        0.0
      ],
      "max": [
        9.333333333333334
      ]
    },
    {
      "bufferView": 15,
      "componentType": 5126,
      "count": 141,
      "type": "VEC4"
    },
    {
      "bufferView": 16,
      "componentType": 5126,
      "count": 141,
      "type": "SCALAR",
      "min": [
        0.0
      ],
      "max": [
        9.333333333333334
      ]
    },
    {
      "bufferView": 17,
      "componentType": 5126,
      "count": 141,
      "type": "VEC3"
    },
    {
      "bufferView": 18,
      "componentType": 5126,
      "count": 141,
      "type": "SCALAR",
      "min": [
        0.0
      ],
      "max": [
        9.333333333333334
      ]
    },
    {
      "bufferView": 19,
      "componentType": 5126,
      "count": 141,
      "type": "VEC4"
    },
    {
      "bufferView": 20,
      "componentType": 5126,
      "count": 141,
      "type": "SCALAR",
      "min": [
        0.0
      ],
      "max": [
        9.333333333333334
      ]
    },
    {
      "bufferView": 21,
      "componentType": 5126,
      "count": 141,
      "type": "VEC3"
    },
    {
      "bufferView": 22,
      "componentType": 5126,
      "count": 141,
      "type": "SCALAR",
      "min": [
        0.0
      ],
      "max": [
        9.333333333333334
      ]
    },
    {
      "bufferView": 23,
      "componentType": 5126,
      "count": 141,
      "type": "VEC4"
    },
    {
      "bufferView": 24,
      "componentType": 5126,
      "count": 141,
      "type": "SCALAR",
      "min": [
        0.0
      ],
      "max": [
        9.333333333333334
      ]
    },
    {
      "bufferView": 25,
      "componentType": 5126,
      "count": 141,
      "type": "VEC3"
    },
    {
      "bufferView": 26,
      "componentType": 5126,
      "count": 141,
      "type": "SCALAR",
      "min": [
        0.0
      ],
      "max": [
        9.333333333333334
      ]
    },
    {
      "bufferView": 27,
      "componentType": 5126,
      "count": 141,
      "type": "VEC4"
    },
    {
      "bufferView": 28,
      "componentType": 5126,
      "count": 141,
      "type": "SCALAR",
      "min": [
        0.0
      ],
      "max": [
        9.333333333333334
      ]
    },
    {
      "bufferView": 29,
      "componentType": 5126,
      "count": 141,
      "type": "VEC3"
    },
    {
      "bufferView": 30,
      "componentType": 5126,
      "count": 141,
      "type": "SCALAR",
      "min": [
        0.0
      ],
      "max": [
        9.333333333333334
      ]
    },
    {
      "bufferView": 31,
      "componentType": 5126,
      "count": 141,
      "type": "VEC4"
    },
    {
      "bufferView": 32,
      "componentType": 5126,
      "count": 141,
      "type": "SCALAR",
      "min": [
        0.0
      ],
      "max": [
        9.333333333333334
      ]
    },
    {
      "bufferView": 33,
      "componentType": 5126,
      "count": 141,
      "type": "VEC3"
    },
    {
      "bufferView": 34,
      "componentType": 5126,
      "count": 61,
      "type": "SCALAR",
      "min": [
        0.0
      ],
      "max": [
        4.0
      ]
    },
    {
      "bufferView": 35,
      "componentType": 5126,
      "count": 61,
      "type": "VEC4"
    },
    {
      "bufferView": 36,
      "componentType": 5126,
      "count": 61,
      "type": "SCALAR",
      "min": [
        0.0
      ],
      "max": [
        4.0
      ]
    },
    {
      "bufferView": 37,
      "componentType": 5126,
      "count": 61,
      "type": "VEC3"
    },
    {
      "bufferView": 38,
      "componentType": 5126,
      "count": 61,
      "type": "SCALAR",
      "min": [
        0.0
      ],
      "max": [
        4.0
      ]
    },
    {
      "bufferView": 39,
      "componentType": 5126,
      "count": 61,
      "type": "VEC4"
    },
    {
      "bufferView": 40,
      "componentType": 5126,
      "count": 61,
      "type": "SCALAR",
      "min": [
        0.0
      ],
      "max": [
        4.0
      ]
    },
    {
      "bufferView": 41,
      "componentType": 5126,
      "count": 61,
      "type": "VEC3"
    },
    {
      "bufferView": 42,
      "componentType": 5126,
      "count": 61,
      "type": "SCALAR",
      "min": [
        0.0
      ],
      "max": [
        4.0
      ]
    },
    {
      "bufferView": 43,
      "componentType": 5126,
      "count": 61,
      "type": "VEC4"
    },
    {
      "bufferView": 44,
      "componentType": 5126,
      "count": 61,
      "type": "SCALAR",
      "min": [
        0.0
      ],
      "max": [
        4.0
      ]
    },
    {
      "bufferView": 45,
      "componentType": 5126,
      "count": 61,
      "type": "VEC3"
    },
    {
      "bufferView": 46,
      "componentType": 5126,
      "count": 61,
      "type": "SCALAR",
      "min": [
        0.0
      ],
      "max": [
        4.0
      ]
    },
    {
      "bufferView": 47,
      "componentType": 5126,
      "count": 61,
      "type": "VEC4"
    },
    {
      "bufferView": 48,
      "componentType": 5126,
      "count": 61,
      "type": "SCALAR",
      "min": [
        0.0
      ],
      "max": [
        4.0
      ]
    },
    {
      "bufferView": 49,
      "componentType": 5126,
      "count": 61,
      "type": "VEC3"
    },
    {
      "bufferView": 50,
      "componentType": 5126,
      "count": 61,
      "type": "SCALAR",
      "min": [
        0.0
      ],
      "max": [
        4.0
      ]
    },
    {
      "bufferView": 51,
      "componentType": 5126,
      "count": 61,
      "type": "VEC4"
    },
    {
      "bufferView": 52,
      "componentType": 5126,
      "count": 61,
      "type": "SCALAR",
      "min": [
        0.0
      ],
      "max": [
        4.0
      ]
    },
    {
      "bufferView": 53,
      "componentType": 5126,
      "count": 61,
      "type": "VEC3"
    },
    {
      "bufferView": 54,
      "componentType": 5126,
      "count": 61,
      "type": "SCALAR",
      "min": [
        0.0
      ],
      "max": [
        4.0
      ]
    },
    {
      "bufferView": 55,
      "componentType": 5126,
      "count": 61,
      "type": "VEC4"
    },
    {
      "bufferView": 56,
      "componentType": 5126,
      "count": 61,
      "type": "SCALAR",
      "min": [
        0.0
      ],
      "max": [
        4.0
      ]
    },
    {
      "bufferView": 57,
      "componentType": 5126,
      "count": 61,
      "type": "VEC3"
    },
    {
      "bufferView": 58,
      "componentType": 5126,
      "count": 61,
      "type": "SCALAR",
      "min": [
        0.0
      ],
      "max": [
        4.0
      ]
    },
    {
      "bufferView": 59,
      "componentType": 5126,
      "count": 61,
      "type": "VEC4"
    },
    {
      "bufferView": 60,
      "componentType": 5126,
      "count": 61,
      "type": "SCALAR",
      "min": [
        0.0
      ],
      "max": [
        4.0
      ]
    },
    {
      "bufferView": 61,
      "componentType": 5126,
      "count": 61,
      "type": "VEC3"
    },
    {
      "bufferView": 62,
      "componentType": 5126,
      "count": 61,
      "type": "SCALAR",
      "min": [
        0.0
      ],
      "max": [
        4.0
      ]
    },
    {
      "bufferView": 63,
      "componentType": 5126,
      "count": 61,
      "type": "VEC4"
    },
    {
      "bufferView": 64,
      "componentType": 5126,
      "count": 61,
      "type": "SCALAR",
      "min": [
        0.0
      ],
      "max": [
        4.0
      ]
    },
    {
      "bufferView": 65,
      "componentType": 5126,
      "count": 61,
      "type": "VEC3"
    },
    {
      "bufferView": 66,
      "componentType": 5126,
      "count": 61,
      "type": "SCALAR",
      "min": [
        0.0
      ],
      "max": [
        4.0
      ]
    },
    {
      "bufferView": 67,
      "componentType": 5126,
      "count": 61,
      "type": "VEC4"
    },
    {
      "bufferView": 68,
      "componentType": 5126,
      "count": 61,
      "type": "SCALAR",
      "min": [
        0.0
      ],
      "max": [
        4.0
      ]
    },
    {
      "bufferView": 69,
      "componentType": 5126,
      "count": 61,
      "type": "VEC3"
    },
    {
      "bufferView": 70,
      "componentType": 5126,
      "count": 61,
      "type": "SCALAR",
      "min": [
        0.0
      ],
      "max": [
        4.0
      ]
    },
    {
      "bufferView": 71,
      "componentType": 5126,
      "count": 61,
      "type": "VEC4"
    },
    {
      "bufferView": 72,
      "componentType": 5126,
      "count": 61,
      "type": "SCALAR",
      "min": [
        0.0
      ],
      "max": [
        4.0
      ]
    },
    {
      "bufferView": 73,
      "componentType": 5126,
      "count": 61,
      "type": "VEC3"
    },
    {
      "bufferView": 74,
      "componentType": 5126,
      "count": 61,
      "type": "SCALAR",
      "min": [
        0.0
      ],
      "max": [
        4.0
      ]
    },
    {
      "bufferView": 75,
      "componentType": 5126,
      "count": 61,
      "type": "VEC4"
    },
    {
      "bufferView": 76,
      "componentType": 5126,
      "count": 61,
      "type": "SCALAR",
      "min": [
        0.0
      ],
      "max": [
        4.0
      ]
    },
    {
      "bufferView": 77,
      "componentType": 5126,
      "count": 61,
      "type": "VEC3"
    },
    {
      "bufferView": 78,
      "componentType": 5126,
      "count": 61,
      "type": "SCALAR",
      "min": [
        0.0
      ],
      "max": [
        4.0
      ]
    },
    {
      "bufferView": 79,
      "componentType": 5126,
      "count": 61,
      "type": "VEC4"
    },
    {
      "bufferView": 80,
      "componentType": 5126,
      "count": 61,
      "type": "SCALAR",
      "min": [
        0.0
      ],
      "max": [
        4.0
      ]
    },
    {
      "bufferView": 81,
      "componentType": 5126,
      "count": 61,
      "type": "VEC3"
    },
    {
      "bufferView": 82,
      "componentType": 5126,
      "count": 61,
      "type": "SCALAR",
      "min": [
        0.0
      ],
      "max": [
        4.0
      ]
    },
    {
      "bufferView": 83,
      "componentType": 5126,
      "count": 61,
      "type": "VEC4"
    },
    {
      "bufferView": 84,
      "componentType": 5126,
      "count": 61,
      "type": "SCALAR",
      "min": [
        0.0
      ],
      "max": [
        4.0
      ]
    },
    {
      "bufferView": 85,
      "componentType": 5126,
      "count": 61,
      "type": "VEC3"
    },
    {
      "bufferView": 86,
      "componentType": 5126,
      "count": 61,
      "type": "SCALAR",
      "min": [
        0.0
      ],
      "max": [
        4.0
      ]
    },
    {
      "bufferView": 87,
      "componentType": 5126,
      "count": 61,
      "type": "VEC4"
    },
    {
      "bufferView": 88,
      "componentType": 5126,
      "count": 61,
      "type": "SCALAR",
      "min": [
        0.0
      ],
      "max": [
        4.0
      ]
    },
    {
      "bufferView": 89,
      "componentType": 5126,
      "count": 61,
      "type": "VEC3"
    },
    {
      "bufferView": 90,
      "componentType": 5126,
      "count": 41,
      "type": "SCALAR",
      "min": [
        0.0
      ],
      "max": [
        2.6666666666666665
      ]
    },
    {
      "bufferView": 91,
      "componentType": 5126,
      "count": 41,
      "type": "VEC4"
    },
    {
      "bufferView": 92,
      "componentType": 5126,
      "count": 41,
      "type": "SCALAR",
      "min": [
        0.0
      ],
      "max": [
        2.6666666666666665
      ]
    },
    {
      "bufferView": 93,
      "componentType": 5126,
      "count": 41,
      "type": "VEC3"
    },
    {
      "bufferView": 94,
      "componentType": 5126,
      "count": 41,
      "type": "SCALAR",
      "min": [
        0.0
      ],
      "max": [
        2.6666666666666665
      ]
    },
    {
      "bufferView": 95,
      "componentType": 5126,
      "count": 41,
      "type": "VEC4"
    },
    {
      "bufferView": 96,
      "componentType": 5126,
      "count": 41,
      "type": "SCALAR",
      "min": [
        0.0
      ],
      "max": [
        2.6666666666666665
      ]
    },
    {
      "bufferView": 97,
      "componentType": 5126,
      "count": 41,
      "type": "VEC3"
    },
    {
      "bufferView": 98,
      "componentType": 5126,
      "count": 41,
      "type": "SCALAR",
      "min": [
        0.0
      ],
      "max": [
        2.6666666666666665
      ]
    },
    {
      "bufferView": 99,
      "componentType": 5126,
      "count": 41,
      "type": "VEC4"
    },
    {
      "bufferView": 100,
      "componentType": 5126,
      "count": 41,
      "type": "SCALAR",
      "min": [
        0.0
      ],
      "max": [
        2.6666666666666665
      ]
    },
    {
      "bufferView": 101,
      "componentType": 5126,
      "count": 41,
      "type": "VEC3"
    },
    {
      "bufferView": 102,
      "componentType": 5126,
      "count": 41,
      "type": "SCALAR",
      "min": [
        0.0
      ],
      "max": [
        2.6666666666666665
      ]
    },
    {
      "bufferView": 103,
      "componentType": 5126,
      "count": 41,
      "type": "VEC4"
    },
    {
      "bufferView": 104,
      "componentType": 5126,
      "count": 41,
      "type": "SCALAR",
      "min": [
        0.0
      ],
      "max": [
        2.6666666666666665
      ]
    },
    {
      "bufferView": 105,
      "componentType": 5126,
      "count": 41,
      "type": "VEC3"
    },
    {
      "bufferView": 106,
      "componentType": 5126,
      "count": 41,
      "type": "SCALAR",
      "min": [
        0.0
      ],
      "max": [
        2.6666666666666665
      ]
    },
    {
      "bufferView": 107,
      "componentType": 5126,
      "count": 41,
      "type": "VEC4"
    },
    {
      "bufferView": 108,
      "componentType": 5126,
      "count": 41,
      "type": "SCALAR",
      "min": [
        0.0
      ],
      "max": [
        2.6666666666666665
      ]
    },
    {
      "bufferView": 109,
      "componentType": 5126,
      "count": 41,
      "type": "VEC3"
    },
    {
      "bufferView": 110,
      "componentType": 5126,
      "count": 41,
      "type": "SCALAR",
      "min": [
        0.0
      ],
      "max": [
        2.6666666666666665
      ]
    },
    {
      "bufferView": 111,
      "componentType": 5126,
      "count": 41,
      "type": "VEC4"
    },
    {
      "bufferView": 112,
      "componentType": 5126,
      "count": 41,
      "type": "SCALAR",
      "min": [
        0.0
      ],
      "max": [
        2.6666666666666665
      ]
    },
    {
      "bufferView": 113,
      "componentType": 5126,
      "count": 41,
      "type": "VEC3"
    },
    {
      "bufferView": 114,
      "componentType": 5126,
      "count": 41,
      "type": "SCALAR",
      "min": [
        0.0
      ],
      "max": [
        2.6666666666666665
      ]
    },
    {
      "bufferView": 115,
      "componentType": 5126,
      "count": 41,
      "type": "VEC4"
    },
    {
      "bufferView": 116,
      "componentType": 5126,
      "count": 41,
      "type": "SCALAR",
      "min": [
        0.0
      ],
      "max": [
        2.6666666666666665
      ]
    },
    {
      "bufferView": 117,
      "componentType": 5126,
      "count": 41,
      "type": "VEC3"
    }
  ],
  "animations": [
    {
      "name": "idle",
      "channels": [
        {
          "sampler": 0,
          "target": {
            "node": 2,
            "path": "rotation"
          }
        },
        {
          "sampler": 1,
          "target": {
            "node": 2,
            "path": "translation"
          }
        },
        {
          "sampler": 2,
          "target": {
            "node": 3,
            "path": "rotation"
          }
        },
        {
          "sampler": 3,
          "target": {
            "node": 3,
            "path": "translation"
          }
        },
        {
          "sampler": 4,
          "target": {
            "node": 4,
            "path": "rotation"
          }
        },
        {
          "sampler": 5,
          "target": {
            "node": 4,
            "path": "translation"
          }
        },
        {
          "sampler": 6,
          "target": {
            "node": 5,
            "path": "rotation"
          }
        },
        {
          "sampler": 7,
          "target": {
            "node": 5,
            "path": "translation"
          }
        },
        {
          "sampler": 8,
          "target": {
            "node": 6,
            "path": "rotation"
          }
        },
        {
          "sampler": 9,
          "target": {
            "node": 6,
            "path": "translation"
          }
        },
        {
          "sampler": 10,
          "target": {
            "node": 7,
            "path": "rotation"
          }
        },
        {
          "sampler": 11,
          "target": {
            "node": 7,
            "path": "translation"
          }
        },
        {
          "sampler": 12,
          "target": {
            "node": 8,
            "path": "rotation"
          }
        },
        {
          "sampler": 13,
          "target": {
            "node": 8,
            "path": "translation"
          }
        }
      ],
      "samplers": [
        {
          "input": 6,
          "interpolation": "LINEAR",
          "output": 7
        },
        {
          "input": 8,
          "interpolation": "LINEAR",
          "output": 9
        },
        {
          "input": 10,
          "interpolation": "LINEAR",
          "output": 11
        },
        {
          "input": 12,
          "interpolation": "LINEAR",
          "output": 13
        },
        {
          "input": 14,
          "interpolation": "LINEAR",
          "output": 15
        },
        {
          "input": 16,
          "interpolation": "LINEAR",
          "output": 17
        },
        {
          "input": 18,
          "interpolation": "LINEAR",
          "output": 19
        },
        {
          "input": 20,
          "interpolation": "LINEAR",
          "output": 21
        },
        {
          "input": 22,
          "interpolation": "LINEAR",
          "output": 23
        },
        {
          "input": 24,
          "interpolation": "LINEAR",
          "output": 25
        },
        {
          "input": 26,
          "interpolation": "LINEAR",
          "output": 27
        },
        {
          "input": 28,
          "interpolation": "LINEAR",
          "output": 29
        },
        {
          "input": 30,
          "interpolation": "LINEAR",
          "output": 31
        },
        {
          "input": 32,
          "interpolation": "LINEAR",
          "output": 33
        }
      ]
    },
    {
      "name": "walk",
      "channels": [
        {
          "sampler": 0,
          "target": {
            "node": 2,
            "path": "rotation"
          }
        },
        {
          "sampler": 1,
          "target": {
            "node": 2,
            "path": "translation"
          }
        },
        {
          "sampler": 2,
          "target": {
            "node": 3,
            "path": "rotation"
          }
        },
        {
          "sampler": 3,
          "target": {
            "node": 3,
            "path": "translation"
          }
        },
        {
          "sampler": 4,
          "target": {
            "node": 4,
            "path": "rotation"
          }
        },
        {
          "sampler": 5,
          "target": {
            "node": 4,
            "path": "translation"
          }
        },
        {
          "sampler": 6,
          "target": {
            "node": 5,
            "path": "rotation"
          }
        },
        {
          "sampler": 7,
          "target": {
            "node": 5,
            "path": "translation"
          }
        },
        {
          "sampler": 8,
          "target": {
            "node": 6,
            "path": "rotation"
          }
        },
        {
          "sampler": 9,
          "target": {
            "node": 6,
            "path": "translation"
          }
        },
        {
          "sampler": 10,
          "target": {
            "node": 7,
            "path": "rotation"
          }
        },
        {
          "sampler": 11,
          "target": {
            "node": 7,
            "path": "translation"
          }
        },
        {
          "sampler": 12,
          "target": {
            "node": 8,
            "path": "rotation"
          }
        },
        {
          "sampler": 13,
          "target": {
            "node": 8,
            "path": "translation"
          }
        }
      ],
      "samplers": [
        {
          "input": 34,
          "interpolation": "LINEAR",
          "output": 35
        },
        {
          "input": 36,
          "interpolation": "LINEAR",
          "output": 37
        },
        {
          "input": 38,
          "interpolation": "LINEAR",
          "output": 39
        },
        {
          "input": 40,
          "interpolation": "LINEAR",
          "output": 41
        },
        {
          "input": 42,
          "interpolation": "LINEAR",
          "output": 43
        },
        {
          "input": 44,
          "interpolation": "LINEAR",
          "output": 45
        },
        {
          "input": 46,
          "interpolation": "LINEAR",
          "output": 47
        },
        {
          "input": 48,
          "interpolation": "LINEAR",
          "output": 49
        },
        {
          "input": 50,
          "interpolation": "LINEAR",
          "output": 51
        },
        {
          "input": 52,
          "interpolation": "LINEAR",
          "output": 53
        },
        {
          "input": 54,
          "interpolation": "LINEAR",
          "output": 55
        },
        {
          "input": 56,
          "interpolation": "LINEAR",
          "output": 57
        },
        {
          "input": 58,
          "interpolation": "LINEAR",
          "output": 59
        },
        {
          "input": 60,
          "interpolation": "LINEAR",
          "output": 61
        }
      ]
    },
    {
      "name": "run",
      "channels": [
        {
          "sampler": 0,
          "target": {
            "node": 2,
            "path": "rotation"
          }
        },
        {
          "sampler": 1,
          "target": {
            "node": 2,
            "path": "translation"
          }
        },
        {
          "sampler": 2,
          "target": {
            "node": 3,
            "path": "rotation"
          }
        },
        {
          "sampler": 3,
          "target": {
            "node": 3,
            "path": "translation"
          }
        },
        {
          "sampler": 4,
          "target": {
            "node": 4,
            "path": "rotation"
          }
        },
        {
          "sampler": 5,
          "target": {
            "node": 4,
            "path": "translation"
          }
        },
        {
          "sampler": 6,
          "target": {
            "node": 5,
            "path": "rotation"
          }
        },
        {
          "sampler": 7,
          "target": {
            "node": 5,
            "path": "translation"
          }
        },
        {
          "sampler": 8,
          "target": {
            "node": 6,
            "path": "rotation"
          }
        },
        {
          "sampler": 9,
          "target": {
            "node": 6,
            "path": "translation"
          }
        },
        {
          "sampler": 10,
          "target": {
            "node": 7,
            "path": "rotation"
          }
        },
        {
          "sampler": 11,
          "target": {
            "node": 7,
            "path": "translation"
          }
        },
        {
          "sampler": 12,
          "target": {
            "node": 8,
            "path": "rotation"
          }
        },
        {
          "sampler": 13,
          "target": {
            "node": 8,
            "path": "translation"
          }
        }
      ],
      "samplers": [
        {
          "input": 62,
          "interpolation": "LINEAR",
          "output": 63
        },
        {
          "input": 64,
          "interpolation": "LINEAR",
          "output": 65
        },
        {
          "input": 66,
          "interpolation": "LINEAR",
          "output": 67
        },
        {
          "input": 68,
          "interpolation": "LINEAR",
          "output": 69
        },
        {
          "input": 70,
          "interpolation": "LINEAR",
          "output": 71
        },
        {
          "input": 72,
          "interpolation": "LINEAR",
          "output": 73
        },
        {
          "input": 74,
          "interpolation": "LINEAR",
          "output": 75
        },
        {
          "input": 76,
          "interpolation": "LINEAR",
          "output": 77
        },
        {
          "input": 78,
          "interpolation": "LINEAR",
          "output": 79
        },
        {
          "input": 80,
          "interpolation": "LINEAR",
          "output": 81
        },
        {
          "input": 82,
          "interpolation": "LINEAR",
          "output": 83
        },
        {
          "input": 84,
          "interpolation": "LINEAR",
          "output": 85
        },
        {
          "input": 86,
          "interpolation": "LINEAR",
          "output": 87
        },
        {
          "input": 88,
          "interpolation": "LINEAR",
          "output": 89
        }
      ]
    },
    {
      "name": "punch",
      "channels": [
        {
          "sampler": 0,
          "target": {
            "node": 2,
            "path": "rotation"
          }
        },
        {
          "sampler": 1,
          "target": {
            "node": 2,
            "path": "translation"
          }
        },
        {
          "sampler": 2,
          "target": {
            "node": 3,
            "path": "rotation"
          }
        },
        {
          "sampler": 3,
          "target": {
            "node": 3,
            "path": "translation"
          }
        },
        {
          "sampler": 4,
          "target": {
            "node": 4,
            "path": "rotation"
          }
        },
        {
          "sampler": 5,
          "target": {
            "node": 4,
            "path": "translation"
          }
        },
        {
          "sampler": 6,
          "target": {
            "node": 5,
            "path": "rotation"
          }
        },
        {
          "sampler": 7,
          "target": {
            "node": 5,
            "path": "translation"
          }
        },
        {
          "sampler": 8,
          "target": {
            "node": 6,
            "path": "rotation"
          }
        },
        {
          "sampler": 9,
          "target": {
            "node": 6,
            "path": "translation"
          }
        },
        {
          "sampler": 10,
          "target": {
            "node": 7,
            "path": "rotation"
          }
        },
        {
          "sampler": 11,
          "target": {
            "node": 7,
            "path": "translation"
          }
        },
        {
          "sampler": 12,
          "target": {
            "node": 8,
            "path": "rotation"
          }
        },
        {
          "sampler": 13,
          "target": {
            "node": 8,
            "path": "translation"
          }
        }
      ],
      "samplers": [
        {
          "input": 90,
          "interpolation": "LINEAR",
          "output": 91
        },
        {
          "input": 92,
          "interpolation": "LINEAR",
          "output": 93
        },
        {
          "input": 94,
          "interpolation": "LINEAR",
          "output": 95
        },
        {
          "input": 96,
          "interpolation": "LINEAR",
          "output": 97
        },
        {
          "input": 98,
          "interpolation": "LINEAR",
          "output": 99
        },
        {
          "input": 100,
          "interpolation": "LINEAR",
          "output": 101
        },
        {
          "input": 102,
          "interpolation": "LINEAR",
          "output": 103
        },
        {
          "input": 104,
          "interpolation": "LINEAR",
          "output": 105
        },
        {
          "input": 106,
          "interpolation": "LINEAR",
          "output": 107
        },
        {
          "input": 108,
          "interpolation": "LINEAR",
          "output": 109
        },
        {
          "input": 110,
          "interpolation": "LINEAR",
          "output": 111
        },
        {
          "input": 112,
          "interpolation": "LINEAR",
          "output": 113
        },
        {
          "input": 114,
          "interpolation": "LINEAR",
          "output": 115
        },
        {
          "input": 116,
          "interpolation": "LINEAR",
          "output": 117
        }
      ]
    }
  ]
}