{"scene":0,"scenes":[{"nodes":[0]}],"asset":{"version":"2.0","generator":"https://github.com/mikedh/trimesh"},"accessors":[{"componentType":5125,"type":"SCALAR","bufferView":0,"count":1680,"max":[1111],"min":[0]},{"componentType":5126,"type":"VEC3","byteOffset":0,"bufferView":1,"count":1112,"max":[0.4157559871673584,0.36436399817466736,0.4157559871673584],"min":[-0.4157559871673584,-0.12759000062942505,-0.4157559871673584]}],"meshes":[{"name":"Crown_Cylinder.011","extras":{"processed":true,"name":"Crown_Cylinder.011","node":"Crown_Cylinder.011"},"primitives":[{"attributes":{"POSITION":1},"indices":0,"mode":4,"material":0}]}],"materials":[{"pbrMetallicRoughness":{"baseColorFactor":[0.4823529411764706,0.3764705882352941,0.0784313725490196,1.0],"roughnessFactor":0.377888888028231},"doubleSided":false}],"nodes":[{"name":"Crown_Cylinder.011","mesh":0}],"buffers":[{"uri":"gltf_buffer_0.bin","byteLength":6720},{"uri":"gltf_buffer_1.bin","byteLength":13344}],"bufferViews":[{"buffer":0,"byteOffset":0,"byteLength":6720},{"buffer":1,"byteOffset":0,"byteLength":13344}]}