{
  "asset": {
    "version": "2.0",
    "generator": "b3d_export_gltf.py"
  },
  "scene": 0,
  "scenes": [
    {
      "nodes": [
        0
      ]
    }
  ],
  "nodes": [
    {
      "name": "armature",
      "children": [
        5
      ]
    },
    {
      "name": "Cube.007",
      "translation": [
        0.0,
        0.0,
        0.0
      ],
      "rotation": [
        0.0,
        0.0,
        0.0,
        1.0
      ],
      "scale": [
        1.0,
        1.0,
        1.0
      ],
      "children": [
        2,
        3
      ]
    },
    {
      "name": "Bone.002",
      "translation": [
        -0.2842397212982178,
        -0.012354516983032226,
        -0.0023746617138385774
      ],
      "rotation": [
        -1.2102051120739247e-05,
        0.004154047440359748,
        0.9999871199251523,
        0.0029161150873335336
      ],
      "scale": [
        1.0,
        1.0,
        1.0
      ]
    },
    {
      "name": "Bone",
      "translation": [
        -0.038448849320411684,
        -0.07348194122314453,
        -0.00014409050345420837
      ],
      "rotation": [
        0.0,
        1.0,
        0.0,
        0.0
      ],
      "scale": [
        1.0,
        1.0,
        1.0
      ],
      "children": [
        4
      ]
    },
    {
      "name": "Bone.001",
      "translation": [
        -0.0,
        0.5217220306396484,
        -0.0
      ],
      "rotation": [
        0.0,
        0.0,
        0.0,
        1.0
      ],
      "scale": [
        1.0,
        1.0,
        1.0
      ]
    },
    {
      "name": "owl",
      "mesh": 0,
      "skin": 0
    }
  ],
  "meshes": [
    {
      "name": "owl",
      "primitives": [
        {
          "attributes": {
            "POSITION": 0,
            "TEXCOORD_0": 1,
            "JOINTS_0": 2,
            "WEIGHTS_0": 3
          },
          "indices": 4,
          "material": 0
        },
        {
          "attributes": {
            "POSITION": 5,
            "TEXCOORD_0": 6,
            "JOINTS_0": 7,
            "WEIGHTS_0": 8
          },
          "indices": 9,
          "material": 1
        },
        {
          "attributes": {
            "POSITION": 10,
            "TEXCOORD_0": 11,
            "JOINTS_0": 12,
            "WEIGHTS_0": 13
          },
          "indices": 14,
          "material": 2
        },
        {
          "attributes": {
            "POSITION": 15,
            "TEXCOORD_0": 16,
            "JOINTS_0": 17,
            "WEIGHTS_0": 18
          },
          "indices": 19,
          "material": 3
        }
      ]
    }
  ],
  "skins": [
    {
      "inverseBindMatrices": 20,
      "joints": [
        1,
        2,
        3,
        4
      ],
      "skeleton": 1
    }
  ],
  "materials": [
    {
      "name": "body",
      "pbrMetallicRoughness": {
        "baseColorTexture": {
          "index": 0
        },
        "metallicFactor": 0.0,
        "roughnessFactor": 1.0
      },
      "doubleSided": true
    },
    {
      "name": "face",
      "pbrMetallicRoughness": {
        "baseColorTexture": {
          "index": 1
        },
        "metallicFactor": 0.0,
        "roughnessFactor": 1.0
      },
      "doubleSided": true
    },
    {
      "name": "leg",
      "pbrMetallicRoughness": {
        "baseColorTexture": {
          "index": 2
        },
        "metallicFactor": 0.0,
        "roughnessFactor": 1.0
      },
      "doubleSided": true
    },
    {
      "name": "wing",
      "pbrMetallicRoughness": {
        "baseColorTexture": {
          "index": 3
        },
        "metallicFactor": 0.0,
        "roughnessFactor": 1.0
      },
      "doubleSided": true
    }
  ],
  "textures": [
    {
      "source": 0
    },
    {
      "source": 1
    },
    {
      "source": 2
    },
    {
      "source": 3
    }
  ],
  "images": [
    {
      "uri": "textures/body.png"
    },
    {
      "uri": "textures/face.png"
    },
    {
      "uri": "textures/leg.png"
    },
    {
      "uri": "textures/wing.png"
    }
  ],
  "buffers": [
    {
      "byteLength": 40752,
      "uri": "model.bin"
    }
  ],
  "bufferViews": [
    {
      "buffer": 0,
      "byteOffset": 0,
      "byteLength": 5448,
      "target": 34962
    },
    {
      "buffer": 0,
      "byteOffset": 5448,
      "byteLength": 3632,
      "target": 34962
    },
    {
      "buffer": 0,
      "byteOffset": 9080,
      "byteLength": 1816,
      "target": 34962
    },
    {
      "buffer": 0,
      "byteOffset": 10896,
      "byteLength": 7264,
      "target": 34962
    },
    {
      "buffer": 0,
      "byteOffset": 18160,
      "byteLength": 1332,
      "target": 34963
    },
    {
      "buffer": 0,
      "byteOffset": 19492,
      "byteLength": 1812,
      "target": 34962
    },
    {
      "buffer": 0,
      "byteOffset": 21304,
      "byteLength": 1208,
      "target": 34962
    },
    {
      "buffer": 0,
      "byteOffset": 22512,
      "byteLength": 604,
      "target": 34962
    },
    {
      "buffer": 0,
      "byteOffset": 23116,
      "byteLength": 2416,
      "target": 34962
    },
    {
      "buffer": 0,
      "byteOffset": 25532,
      "byteLength": 438,
      "target": 34963
    },
    {
      "buffer": 0,
      "byteOffset": 25970,
      "byteLength": 240,
      "target": 34962
    },
    {
      "buffer": 0,
      "byteOffset": 26210,
      "byteLength": 160,
      "target": 34962
    },
    {
      "buffer": 0,
      "byteOffset": 26370,
      "byteLength": 80,
      "target": 34962
    },
    {
      "buffer": 0,
      "byteOffset": 26450,
      "byteLength": 320,
      "target": 34962
    },
    {
      "buffer": 0,
      "byteOffset": 26770,
      "byteLength": 60,
      "target": 34963
    },
    {
      "buffer": 0,
      "byteOffset": 26830,
      "byteLength": 804,
      "target": 34962
    },
    {
      "buffer": 0,
      "byteOffset": 27634,
      "byteLength": 536,
      "target": 34962
    },
    {
      "buffer": 0,
      "byteOffset": 28170,
      "byteLength": 268,
      "target": 34962
    },
    {
      "buffer": 0,
      "byteOffset": 28438,
      "byteLength": 1072,
      "target": 34962
    },
    {
      "buffer": 0,
      "byteOffset": 29510,
      "byteLength": 186,
      "target": 34963
    },
    {
      "buffer": 0,
      "byteOffset": 29696,
      "byteLength": 256
    },
    {
      "buffer": 0,
      "byteOffset": 29952,
      "byteLength": 200
    },
    {
      "buffer": 0,
      "byteOffset": 30152,
      "byteLength": 800
    },
    {
      "buffer": 0,
      "byteOffset": 30952,
      "byteLength": 200
    },
    {
      "buffer": 0,
      "byteOffset": 31152,
      "byteLength": 600
    },
    {
      "buffer": 0,
      "byteOffset": 31752,
      "byteLength": 200
    },
    {
      "buffer": 0,
      "byteOffset": 31952,
      "byteLength": 800
    },
    {
      "buffer": 0,
      "byteOffset": 32752,
      "byteLength": 200
    },
    {
      "buffer": 0,
      "byteOffset": 32952,
      "byteLength": 600
    },
    {
      "buffer": 0,
      "byteOffset": 33552,
      "byteLength": 200
    },
    {
      "buffer": 0,
      "byteOffset": 33752,
      "byteLength": 800
    },
    {
      "buffer": 0,
      "byteOffset": 34552,
      "byteLength": 200
    },
    {
      "buffer": 0,
      "byteOffset": 34752,
      "byteLength": 600
    },
    {
      "buffer": 0,
      "byteOffset": 35352,
      "byteLength": 200
    },
    {
      "buffer": 0,
      "byteOffset": 35552,
      "byteLength": 800
    },
    {
      "buffer": 0,
      "byteOffset": 36352,
      "byteLength": 200
    },
    {
      "buffer": 0,
      "byteOffset": 36552,
      "byteLength": 600
    },
    {
      "buffer": 0,
      "byteOffset": 37152,
      "byteLength": 200
    },
    {
      "buffer": 0,
      "byteOffset": 37352,
      "byteLength": 800
    },
    {
      "buffer": 0,
      "byteOffset": 38152,
      "byteLength": 200
    },
    {
      "buffer": 0,
      "byteOffset": 38352,
      "byteLength": 600
    },
    {
      "buffer": 0,
      "byteOffset": 38952,
      "byteLength": 200
    },
    {
      "buffer": 0,
      "byteOffset": 39152,
      "byteLength": 800
    },
    {
      "buffer": 0,
      "byteOffset": 39952,
      "byteLength": 200
    },
    {
      "buffer": 0,
      "byteOffset": 40152,
      "byteLength": 600
    }
  ],
  "accessors": [
    {
      "bufferView": 0,
      "componentType": 5126,
      "count": 454,
      "type": "VEC3",
      "min": [
        -0.3161849737167358,
        0.0,
        -0.3281548976898193
      ],
      "max": [
        0.20689029693603517,
        1.5639860153198242,
        0.3133354663848877
      ]
    },
    {
      "bufferView": 1,
      "componentType": 5126,
      "count": 454,
      "type": "VEC2"
    },
    {
      "bufferView": 2,
      "componentType": 5121,
      "count": 454,
      "type": "VEC4"
    },
    {
      "bufferView": 3,
      "componentType": 5126,
      "count": 454,
      "type": "VEC4"
    },
    {
      "bufferView": 4,
      "componentType": 5123,
      "count": 666,
      "type": "SCALAR"
    },
    {
      "bufferView": 5,
      "componentType": 5126,
      "count": 151,
      "type": "VEC3",
      "min": [
        -0.3161849737167358,
        0.0,
        -0.2680060386657715
      ],
      "max": [
        0.20689029693603517,
        1.5639860153198242,
        0.3133354663848877
      ]
    },
    {
      "bufferView": 6,
      "componentType": 5126,
      "count": 151,
      "type": "VEC2"
    },
    {
      "bufferView": 7,
      "componentType": 5121,
      "count": 151,
      "type": "VEC4"
    },
    {
      "bufferView": 8,
      "componentType": 5126,
      "count": 151,
      "type": "VEC4"
    },
    {
      "bufferView": 9,
      "componentType": 5123,
      "count": 219,
      "type": "SCALAR"
    },
    {
      "bufferView": 10,
      "componentType": 5126,
      "count": 20,
      "type": "VEC3",
      "min": [
        -0.2506150245666504,
        0.5265984296798706,
        -0.2680060386657715
      ],
      "max": [
        0.1493849754333496,
        1.1567832946777343,
        -0.19771549701690674
      ]
    },
    {
      "bufferView": 11,
      "componentType": 5126,
      "count": 20,
      "type": "VEC2"
    },
    {
      "bufferView": 12,
      "componentType": 5121,
      "count": 20,
      "type": "VEC4"
    },
    {
      "bufferView": 13,
      "componentType": 5126,
      "count": 20,
      "type": "VEC4"
    },
    {
      "bufferView": 14,
      "componentType": 5123,
      "count": 30,
      "type": "SCALAR"
    },
    {
      "bufferView": 15,
      "componentType": 5126,
      "count": 67,
      "type": "VEC3",
      "min": [
        -0.2480691909790039,
        0.2822923183441162,
        -0.3281548976898193
      ],
      "max": [
        0.20689029693603517,
        1.4161940574645997,
        0.3133354663848877
      ]
    },
    {
      "bufferView": 16,
      "componentType": 5126,
      "count": 67,
      "type": "VEC2"
    },
    {
      "bufferView": 17,
      "componentType": 5121,
      "count": 67,
      "type": "VEC4"
    },
    {
      "bufferView": 18,
      "componentType": 5126,
      "count": 67,
      "type": "VEC4"
    },
    {
      "bufferView": 19,
      "componentType": 5123,
      "count": 93,
      "type": "SCALAR"
    },
    {
      "bufferView": 20,
      "componentType": 5126,
      "count": 4,
      "type": "MAT4"
    },
    {
      "bufferView": 21,
      "componentType": 5126,
      "count": 50,
      "type": "SCALAR",
      "min": [
        0.0
      ],
      "max": [
        49.0
      ]
    },
    {
      "bufferView": 22,
      "componentType": 5126,
      "count": 50,
      "type": "VEC4"
    },
    {
      "bufferView": 23,
      "componentType": 5126,
      "count": 50,
      "type": "SCALAR",
      "min": [
        0.0
      ],
      "max": [
        49.0
      ]
    },
    {
      "bufferView": 24,
      "componentType": 5126,
      "count": 50,
      "type": "VEC3"
    },
    {
      "bufferView": 25,
      "componentType": 5126,
      "count": 50,
      "type": "SCALAR",
      "min": [
        0.0
      ],
      "max": [
        49.0
      ]
    },
    {
      "bufferView": 26,
      "componentType": 5126,
      "count": 50,
      "type": "VEC4"
    },
    {
      "bufferView": 27,
      "componentType": 5126,
      "count": 50,
      "type": "SCALAR",
      "min": [
        0.0
      ],
      "max": [
        49.0
      ]
    },
    {
      "bufferView": 28,
      "componentType": 5126,
      "count": 50,
      "type": "VEC3"
    },
    {
      "bufferView": 29,
      "componentType": 5126,
      "count": 50,
      "type": "SCALAR",
      "min": [
        0.0
      ],
      "max": [
        49.0
      ]
    },
    {
      "bufferView": 30,
      "componentType": 5126,
      "count": 50,
      "type": "VEC4"
    },
    {
      "bufferView": 31,
      "componentType": 5126,
      "count": 50,
      "type": "SCALAR",
      "min": [
        0.0
      ],
      "max": [
        49.0
      ]
    },
    {
      "bufferView": 32,
      "componentType": 5126,
      "count": 50,
      "type": "VEC3"
    },
    {
      "bufferView": 33,
      "componentType": 5126,
      "count": 50,
      "type": "SCALAR",
      "min": [
        0.0
      ],
      "max": [
        49.0
      ]
    },
    {
      "bufferView": 34,
      "componentType": 5126,
      "count": 50,
      "type": "VEC4"
    },
    {
      "bufferView": 35,
      "componentType": 5126,
      "count": 50,
      "type": "SCALAR",
      "min": [
        0.0
      ],
      "max": [
        49.0
      ]
    },
    {
      "bufferView": 36,
      "componentType": 5126,
      "count": 50,
      "type": "VEC3"
    },
    {
      "bufferView": 37,
      "componentType": 5126,
      "count": 50,
      "type": "SCALAR",
      "min": [
        0.0
      ],
      "max": [
        49.0
      ]
    },
    {
      "bufferView": 38,
      "componentType": 5126,
      "count": 50,
      "type": "VEC4"
    },
    {
      "bufferView": 39,
      "componentType": 5126,
      "count": 50,
      "type": "SCALAR",
      "min": [
        0.0
      ],
      "max": [
        49.0
      ]
    },
    {
      "bufferView": 40,
      "componentType": 5126,
      "count": 50,
      "type": "VEC3"
    },
    {
      "bufferView": 41,
      "componentType": 5126,
      "count": 50,
      "type": "SCALAR",
      "min": [
        0.0
      ],
      "max": [
        49.0
      ]
    },
    {
      "bufferView": 42,
      "componentType": 5126,
      "count": 50,
      "type": "VEC4"
    },
    {
      "bufferView": 43,
      "componentType": 5126,
      "count": 50,
      "type": "SCALAR",
      "min": [
        0.0
      ],
      "max": [
        49.0
      ]
    },
    {
      "bufferView": 44,
      "componentType": 5126,
      "count": 50,
      "type": "VEC3"
    }
  ],
  "animations": [
    {
      "name": "walk",
      "channels": [
        {
          "sampler": 0,
          "target": {
            "node": 2,
            "path": "rotation"
          }
        },
        {
          "sampler": 1,
          "target": {
            "node": 2,
            "path": "translation"
          }
        },
        {
          "sampler": 2,
          "target": {
            "node": 3,
            "path": "rotation"
          }
        },
        {
          "sampler": 3,
          "target": {
            "node": 3,
            "path": "translation"
          }
        },
        {
          "sampler": 4,
          "target": {
            "node": 4,
            "path": "rotation"
          }
        },
        {
          "sampler": 5,
          "target": {
            "node": 4,
            "path": "translation"
          }
        }
      ],
      "samplers": [
        {
          "input": 21,
          "interpolation": "LINEAR",
          "output": 22
        },
        {
          "input": 23,
          "interpolation": "LINEAR",
          "output": 24
        },
        {
          "input": 25,
          "interpolation": "LINEAR",
          "output": 26
        },
        {
          "input": 27,
          "interpolation": "LINEAR",
          "output": 28
        },
        {
          "input": 29,
          "interpolation": "LINEAR",
          "output": 30
        },
        {
          "input": 31,
          "interpolation": "LINEAR",
          "output": 32
        }
      ]
    },
    {
      "name": "idle",
      "channels": [
        {
          "sampler": 0,
          "target": {
            "node": 2,
            "path": "rotation"
          }
        },
        {
          "sampler": 1,
          "target": {
            "node": 2,
            "path": "translation"
          }
        },
        {
          "sampler": 2,
          "target": {
            "node": 3,
            "path": "rotation"
          }
        },
        {
          "sampler": 3,
          "target": {
            "node": 3,
            "path": "translation"
          }
        },
        {
          "sampler": 4,
          "target": {
            "node": 4,
            "path": "rotation"
          }
        },
        {
          "sampler": 5,
          "target": {
            "node": 4,
            "path": "translation"
          }
        }
      ],
      "samplers": [
        {
          "input": 33,
          "interpolation": "LINEAR",
          "output": 34
        },
        {
          "input": 35,
          "interpolation": "LINEAR",
          "output": 36
        },
        {
          "input": 37,
          "interpolation": "LINEAR",
          "output": 38
        },
        {
          "input": 39,
          "interpolation": "LINEAR",
          "output": 40
        },
        {
          "input": 41,
          "interpolation": "LINEAR",
          "output": 42
        },
        {
          "input": 43,
          "interpolation": "LINEAR",
          "output": 44
        }
      ]
    }
  ]
}