{
  "asset": {
    "version": "2.0",
    "generator": "b3d_export_gltf.py"
  },
  "scene": 0,
  "scenes": [
    {
      "nodes": [
        0
      ]
    }
  ],
  "nodes": [
    {
      "name": "armature",
      "children": [
        17
      ]
    },
    {
      "name": "Cube.021",
      "translation": [
        0.0,
        0.0,
        0.0
      ],
      "rotation": [
        0.0,
        0.0,
        0.0,
        1.0
      ],
      "scale": [
        1.0,
        1.0,
        1.0
      ],
      "children": [
        2,
        6,
        8,
        12,
        14
      ]
    },
    {
      "name": "Bone.006",
      "translation": [
        0.3487217664718628,
        3.026543617248535,
        0.03372810184955597
      ],
      "rotation": [
        0.6686597905380683,
        0.2299874370887503,
        0.6686596117241382,
        0.22998736258294608
      ],
      "scale": [
        1.0,
        1.0,
        1.0
      ],
      "children": [
        3
      ]
    },
    {
      "name": "Bone.007",
      "translation": [
        -2.1731807464675512e-10,
        0.2401115894317627,
        2.4947453880486137e-08
      ],
      "rotation": [
        -0.017965691247145112,
        -0.5438905979491034,
        0.4571724555158052,
        0.7034583124238624
      ],
      "scale": [
        1.0,
        1.0,
        1.0
      ],
      "children": [
        4,
        5
      ]
    },
    {
      "name": "Bone.011",
      "translation": [
        -2.216547727584839e-08,
        0.23604288101196289,
        2.4747538418523617e-08
      ],
      "rotation": [
        -0.32327342066412923,
        -0.0023527124455020357,
        -0.006886748604061604,
        0.946277619374952
      ],
      "scale": [
        1.0,
        1.0,
        1.0
      ]
    },
    {
      "name": "Bone.014",
      "translation": [
        0.0021920107305049897,
        0.2253805637359619,
        -0.04694064855575562
      ],
      "rotation": [
        -0.09180667229378243,
        0.701121686211245,
        0.08159235100293778,
        0.7023835165381204
      ],
      "scale": [
        1.0,
        1.0,
        1.0
      ]
    },
    {
      "name": "Bone.002",
      "translation": [
        -0.28645977973937986,
        1.6501338958740235,
        0.04487578570842743
      ],
      "rotation": [
        -0.6995353044262898,
        0.10469398560112436,
        -0.6964153589262227,
        0.12122365731089843
      ],
      "scale": [
        1.0,
        1.0,
        1.0
      ],
      "children": [
        7
      ]
    },
    {
      "name": "Bone.003",
      "translation": [
        4.656612873077393e-10,
        0.27822558879852294,
        -2.8292561182752253e-09
      ],
      "rotation": [
        -0.10469402934182866,
        -0.6995352979932788,
        -0.12122369344901342,
        0.6964153525219032
      ],
      "scale": [
        1.0,
        1.0,
        1.0
      ]
    },
    {
      "name": "Bone.008",
      "translation": [
        -0.42522239685058594,
        3.026543617248535,
        0.03372810184955597
      ],
      "rotation": [
        -0.6770280919828027,
        0.20404190483933624,
        -0.6770279131688756,
        0.2040418303335333
      ],
      "scale": [
        1.0,
        1.0,
        1.0
      ],
      "children": [
        9
      ]
    },
    {
      "name": "Bone.009",
      "translation": [
        1.8943637769552879e-10,
        0.2271347761154175,
        -2.3254592917965056e-08
      ],
      "rotation": [
        -0.4277942202814965,
        -0.7071901699879789,
        0.05149356316295316,
        0.560555600738145
      ],
      "scale": [
        1.0,
        1.0,
        1.0
      ],
      "children": [
        10,
        11
      ]
    },
    {
      "name": "Bone.010",
      "translation": [
        -3.4831464290618895e-08,
        0.23602612018585206,
        -4.306390906094748e-08
      ],
      "rotation": [
        -0.32027750896280044,
        -0.0013382986523613025,
        -0.003958190287203409,
        0.9473145512125056
      ],
      "scale": [
        1.0,
        1.0,
        1.0
      ]
    },
    {
      "name": "Bone.013",
      "translation": [
        0.0005761160049587488,
        0.22533745765686036,
        -0.046940732002258304
      ],
      "rotation": [
        -0.08963320474543021,
        0.7014028484958937,
        0.08376879310698317,
        0.7021272833541717
      ],
      "scale": [
        1.0,
        1.0,
        1.0
      ]
    },
    {
      "name": "Bone.004",
      "translation": [
        0.32254173755645754,
        1.6501338958740235,
        0.04487578570842743
      ],
      "rotation": [
        0.7010253812444779,
        0.13062807076400923,
        0.6920441539480782,
        0.1121365728288323
      ],
      "scale": [
        1.0,
        1.0,
        1.0
      ],
      "children": [
        13
      ]
    },
    {
      "name": "Bone.005",
      "translation": [
        -0.0,
        0.2805811405181885,
        2.4097971618175506e-09
      ],
      "rotation": [
        0.13062807290754763,
        -0.7010253331432963,
        0.11213643310791034,
        0.6920442249088031
      ],
      "scale": [
        1.0,
        1.0,
        1.0
      ]
    },
    {
      "name": "Bone",
      "translation": [
        0.0,
        1.544654083251953,
        0.04251995086669922
      ],
      "rotation": [
        0.0,
        1.0,
        0.0,
        0.0
      ],
      "scale": [
        1.0,
        1.0,
        1.0
      ],
      "children": [
        15
      ]
    },
    {
      "name": "Bone.001",
      "translation": [
        -0.0,
        0.1179008960723877,
        -0.0
      ],
      "rotation": [
        0.0,
        0.0,
        0.0,
        1.0
      ],
      "scale": [
        1.0,
        1.0,
        1.0
      ],
      "children": [
        16
      ]
    },
    {
      "name": "Bone.012",
      "translation": [
        -0.0,
        0.645031213760376,
        -0.0
      ],
      "rotation": [
        0.0,
        0.0,
        0.0,
        1.0
      ],
      "scale": [
        1.0,
        1.0,
        1.0
      ]
    },
    {
      "name": "treeman",
      "mesh": 0,
      "skin": 0
    }
  ],
  "meshes": [
    {
      "name": "treeman",
      "primitives": [
        {
          "attributes": {
            "POSITION": 0,
            "TEXCOORD_0": 1,
            "JOINTS_0": 2,
            "WEIGHTS_0": 3
          },
          "indices": 4,
          "material": 0
        },
        {
          "attributes": {
            "POSITION": 5,
            "TEXCOORD_0": 6,
            "JOINTS_0": 7,
            "WEIGHTS_0": 8
          },
          "indices": 9,
          "material": 1
        },
        {
          "attributes": {
            "POSITION": 10,
            "TEXCOORD_0": 11,
            "JOINTS_0": 12,
            "WEIGHTS_0": 13
          },
          "indices": 14,
          "material": 2
        },
        {
          "attributes": {
            "POSITION": 15,
            "TEXCOORD_0": 16,
            "JOINTS_0": 17,
            "WEIGHTS_0": 18
          },
          "indices": 19,
          "material": 3
        }
      ]
    }
  ],
  "skins": [
    {
      "inverseBindMatrices": 20,
      "joints": [
        1,
        2,
        3,
        4,
        5,
        6,
        7,
        8,
        9,
        10,
        11,
        12,
        13,
        14,
        15,
        16
      ],
      "skeleton": 1
    }
  ],
  "materials": [
    {
      "name": "arm",
      "pbrMetallicRoughness": {
        "baseColorTexture": {
          "index": 0
        },
        "metallicFactor": 0.0,
        "roughnessFactor": 1.0
      },
      "doubleSided": true
    },
    {
      "name": "body",
      "pbrMetallicRoughness": {
        "baseColorTexture": {
          "index": 1
        },
        "metallicFactor": 0.0,
        "roughnessFactor": 1.0
      },
      "doubleSided": true
    },
    {
      "name": "face",
      "pbrMetallicRoughness": {
        "baseColorTexture": {
          "index": 2
        },
        "metallicFactor": 0.0,
        "roughnessFactor": 1.0
      },
      "doubleSided": true
    },
    {
      "name": "leg",
      "pbrMetallicRoughness": {
        "baseColorTexture": {
          "index": 3
        },
        "metallicFactor": 0.0,
        "roughnessFactor": 1.0
      },
      "doubleSided": true
    }
  ],
  "textures": [
    {
      "source": 0
    },
    {
      "source": 1
    },
    {
      "source": 2
    },
    {
      "source": 3
    }
  ],
  "images": [
    {
      "uri": "textures/arm.png"
    },
    {
      "uri": "textures/body.png"
    },
    {
      "uri": "textures/face.png"
    },
    {
      "uri": "textures/leg.png"
    }
  ],
  "buffers": [
    {
      "byteLength": 84696,
      "uri": "model.bin"
    }
  ],
  "bufferViews": [
    {
      "buffer": 0,
      "byteOffset": 0,
      "byteLength": 1908,
      "target": 34962
    },
    {
      "buffer": 0,
      "byteOffset": 1908,
      "byteLength": 1272,
      "target": 34962
    },
    {
      "buffer": 0,
      "byteOffset": 3180,
      "byteLength": 636,
      "target": 34962
    },
    {
      "buffer": 0,
      "byteOffset": 3816,
      "byteLength": 2544,
      "target": 34962
    },
    {
      "buffer": 0,
      "byteOffset": 6360,
      "byteLength": 474,
      "target": 34963
    },
    {
      "buffer": 0,
      "byteOffset": 6834,
      "byteLength": 5616,
      "target": 34962
    },
    {
      "buffer": 0,
      "byteOffset": 12450,
      "byteLength": 3744,
      "target": 34962
    },
    {
      "buffer": 0,
      "byteOffset": 16194,
      "byteLength": 1872,
      "target": 34962
    },
    {
      "buffer": 0,
      "byteOffset": 18066,
      "byteLength": 7488,
      "target": 34962
    },
    {
      "buffer": 0,
      "byteOffset": 25554,
      "byteLength": 1380,
      "target": 34963
    },
    {
      "buffer": 0,
      "byteOffset": 26934,
      "byteLength": 2472,
      "target": 34962
    },
    {
      "buffer": 0,
      "byteOffset": 29406,
      "byteLength": 1648,
      "target": 34962
    },
    {
      "buffer": 0,
      "byteOffset": 31054,
      "byteLength": 824,
      "target": 34962
    },
    {
      "buffer": 0,
      "byteOffset": 31878,
      "byteLength": 3296,
      "target": 34962
    },
    {
      "buffer": 0,
      "byteOffset": 35174,
      "byteLength": 600,
      "target": 34963
    },
    {
      "buffer": 0,
      "byteOffset": 35774,
      "byteLength": 108,
      "target": 34962
    },
    {
      "buffer": 0,
      "byteOffset": 35882,
      "byteLength": 72,
      "target": 34962
    },
    {
      "buffer": 0,
      "byteOffset": 35954,
      "byteLength": 36,
      "target": 34962
    },
    {
      "buffer": 0,
      "byteOffset": 35990,
      "byteLength": 144,
      "target": 34962
    },
    {
      "buffer": 0,
      "byteOffset": 36134,
      "byteLength": 18,
      "target": 34963
    },
    {
      "buffer": 0,
      "byteOffset": 36152,
      "byteLength": 1024
    },
    {
      "buffer": 0,
      "byteOffset": 37176,
      "byteLength": 80
    },
    {
      "buffer": 0,
      "byteOffset": 37256,
      "byteLength": 320
    },
    {
      "buffer": 0,
      "byteOffset": 37576,
      "byteLength": 80
    },
    {
      "buffer": 0,
      "byteOffset": 37656,
      "byteLength": 240
    },
    {
      "buffer": 0,
      "byteOffset": 37896,
      "byteLength": 80
    },
    {
      "buffer": 0,
      "byteOffset": 37976,
      "byteLength": 320
    },
    {
      "buffer": 0,
      "byteOffset": 38296,
      "byteLength": 80
    },
    {
      "buffer": 0,
      "byteOffset": 38376,
      "byteLength": 240
    },
    {
      "buffer": 0,
      "byteOffset": 38616,
      "byteLength": 80
    },
    {
      "buffer": 0,
      "byteOffset": 38696,
      "byteLength": 320
    },
    {
      "buffer": 0,
      "byteOffset": 39016,
      "byteLength": 80
    },
    {
      "buffer": 0,
      "byteOffset": 39096,
      "byteLength": 240
    },
    {
      "buffer": 0,
      "byteOffset": 39336,
      "byteLength": 80
    },
    {
      "buffer": 0,
      "byteOffset": 39416,
      "byteLength": 320
    },
    {
      "buffer": 0,
      "byteOffset": 39736,
      "byteLength": 80
    },
    {
      "buffer": 0,
      "byteOffset": 39816,
      "byteLength": 240
    },
    {
      "buffer": 0,
      "byteOffset": 40056,
      "byteLength": 80
    },
    {
      "buffer": 0,
      "byteOffset": 40136,
      "byteLength": 320
    },
    {
      "buffer": 0,
      "byteOffset": 40456,
      "byteLength": 80
    },
    {
      "buffer": 0,
      "byteOffset": 40536,
      "byteLength": 240
    },
    {
      "buffer": 0,
      "byteOffset": 40776,
      "byteLength": 80
    },
    {
      "buffer": 0,
      "byteOffset": 40856,
      "byteLength": 320
    },
    {
      "buffer": 0,
      "byteOffset": 41176,
      "byteLength": 80
    },
    {
      "buffer": 0,
      "byteOffset": 41256,
      "byteLength": 240
    },
    {
      "buffer": 0,
      "byteOffset": 41496,
      "byteLength": 80
    },
    {
      "buffer": 0,
      "byteOffset": 41576,
      "byteLength": 320
    },
    {
      "buffer": 0,
      "byteOffset": 41896,
      "byteLength": 80
    },
    {
      "buffer": 0,
      "byteOffset": 41976,
      "byteLength": 240
    },
    {
      "buffer": 0,
      "byteOffset": 42216,
      "byteLength": 80
    },
    {
      "buffer": 0,
      "byteOffset": 42296,
      "byteLength": 320
    },
    {
      "buffer": 0,
      "byteOffset": 42616,
      "byteLength": 80
    },
    {
      "buffer": 0,
      "byteOffset": 42696,
      "byteLength": 240
    },
    {
      "buffer": 0,
      "byteOffset": 42936,
      "byteLength": 80
    },
    {
      "buffer": 0,
      "byteOffset": 43016,
      "byteLength": 320
    },
    {
      "buffer": 0,
      "byteOffset": 43336,
      "byteLength": 80
    },
    {
      "buffer": 0,
      "byteOffset": 43416,
      "byteLength": 240
    },
    {
      "buffer": 0,
      "byteOffset": 43656,
      "byteLength": 80
    },
    {
      "buffer": 0,
      "byteOffset": 43736,
      "byteLength": 320
    },
    {
      "buffer": 0,
      "byteOffset": 44056,
      "byteLength": 80
    },
    {
      "buffer": 0,
      "byteOffset": 44136,
      "byteLength": 240
    },
    {
      "buffer": 0,
      "byteOffset": 44376,
      "byteLength": 80
    },
    {
      "buffer": 0,
      "byteOffset": 44456,
      "byteLength": 320
    },
    {
      "buffer": 0,
      "byteOffset": 44776,
      "byteLength": 80
    },
    {
      "buffer": 0,
      "byteOffset": 44856,
      "byteLength": 240
    },
    {
      "buffer": 0,
      "byteOffset": 45096,
      "byteLength": 80
    },
    {
      "buffer": 0,
      "byteOffset": 45176,
      "byteLength": 320
    },
    {
      "buffer": 0,
      "byteOffset": 45496,
      "byteLength": 80
    },
    {
      "buffer": 0,
      "byteOffset": 45576,
      "byteLength": 240
    },
    {
      "buffer": 0,
      "byteOffset": 45816,
      "byteLength": 80
    },
    {
      "buffer": 0,
      "byteOffset": 45896,
      "byteLength": 320
    },
    {
      "buffer": 0,
      "byteOffset": 46216,
      "byteLength": 80
    },
    {
      "buffer": 0,
      "byteOffset": 46296,
      "byteLength": 240
    },
    {
      "buffer": 0,
      "byteOffset": 46536,
      "byteLength": 80
    },
    {
      "buffer": 0,
      "byteOffset": 46616,
      "byteLength": 320
    },
    {
      "buffer": 0,
      "byteOffset": 46936,
      "byteLength": 80
    },
    {
      "buffer": 0,
      "byteOffset": 47016,
      "byteLength": 240
    },
    {
      "buffer": 0,
      "byteOffset": 47256,
      "byteLength": 80
    },
    {
      "buffer": 0,
      "byteOffset": 47336,
      "byteLength": 320
    },
    {
      "buffer": 0,
      "byteOffset": 47656,
      "byteLength": 80
    },
    {
      "buffer": 0,
      "byteOffset": 47736,
      "byteLength": 240
    },
    {
      "buffer": 0,
      "byteOffset": 47976,
      "byteLength": 84
    },
    {
      "buffer": 0,
      "byteOffset": 48060,
      "byteLength": 336
    },
    {
      "buffer": 0,
      "byteOffset": 48396,
      "byteLength": 84
    },
    {
      "buffer": 0,
      "byteOffset": 48480,
      "byteLength": 252
    },
    {
      "buffer": 0,
      "byteOffset": 48732,
      "byteLength": 84
    },
    {
      "buffer": 0,
      "byteOffset": 48816,
      "byteLength": 336
    },
    {
      "buffer": 0,
      "byteOffset": 49152,
      "byteLength": 84
    },
    {
      "buffer": 0,
      "byteOffset": 49236,
      "byteLength": 252
    },
    {
      "buffer": 0,
      "byteOffset": 49488,
      "byteLength": 84
    },
    {
      "buffer": 0,
      "byteOffset": 49572,
      "byteLength": 336
    },
    {
      "buffer": 0,
      "byteOffset": 49908,
      "byteLength": 84
    },
    {
      "buffer": 0,
      "byteOffset": 49992,
      "byteLength": 252
    },
    {
      "buffer": 0,
      "byteOffset": 50244,
      "byteLength": 84
    },
    {
      "buffer": 0,
      "byteOffset": 50328,
      "byteLength": 336
    },
    {
      "buffer": 0,
      "byteOffset": 50664,
      "byteLength": 84
    },
    {
      "buffer": 0,
      "byteOffset": 50748,
      "byteLength": 252
    },
    {
      "buffer": 0,
      "byteOffset": 51000,
      "byteLength": 84
    },
    {
      "buffer": 0,
      "byteOffset": 51084,
      "byteLength": 336
    },
    {
      "buffer": 0,
      "byteOffset": 51420,
      "byteLength": 84
    },
    {
      "buffer": 0,
      "byteOffset": 51504,
      "byteLength": 252
    },
    {
      "buffer": 0,
      "byteOffset": 51756,
      "byteLength": 84
    },
    {
      "buffer": 0,
      "byteOffset": 51840,
      "byteLength": 336
    },
    {
      "buffer": 0,
      "byteOffset": 52176,
      "byteLength": 84
    },
    {
      "buffer": 0,
      "byteOffset": 52260,
      "byteLength": 252
    },
    {
      "buffer": 0,
      "byteOffset": 52512,
      "byteLength": 84
    },
    {
      "buffer": 0,
      "byteOffset": 52596,
      "byteLength": 336
    },
    {
      "buffer": 0,
      "byteOffset": 52932,
      "byteLength": 84
    },
    {
      "buffer": 0,
      "byteOffset": 53016,
      "byteLength": 252
    },
    {
      "buffer": 0,
      "byteOffset": 53268,
      "byteLength": 84
    },
    {
      "buffer": 0,
      "byteOffset": 53352,
      "byteLength": 336
    },
    {
      "buffer": 0,
      "byteOffset": 53688,
      "byteLength": 84
    },
    {
      "buffer": 0,
      "byteOffset": 53772,
      "byteLength": 252
    },
    {
      "buffer": 0,
      "byteOffset": 54024,
      "byteLength": 84
    },
    {
      "buffer": 0,
      "byteOffset": 54108,
      "byteLength": 336
    },
    {
      "buffer": 0,
      "byteOffset": 54444,
      "byteLength": 84
    },
    {
      "buffer": 0,
      "byteOffset": 54528,
      "byteLength": 252
    },
    {
      "buffer": 0,
      "byteOffset": 54780,
      "byteLength": 84
    },
    {
      "buffer": 0,
      "byteOffset": 54864,
      "byteLength": 336
    },
    {
      "buffer": 0,
      "byteOffset": 55200,
      "byteLength": 84
    },
    {
      "buffer": 0,
      "byteOffset": 55284,
      "byteLength": 252
    },
    {
      "buffer": 0,
      "byteOffset": 55536,
      "byteLength": 84
    },
    {
      "buffer": 0,
      "byteOffset": 55620,
      "byteLength": 336
    },
    {
      "buffer": 0,
      "byteOffset": 55956,
      "byteLength": 84
    },
    {
      "buffer": 0,
      "byteOffset": 56040,
      "byteLength": 252
    },
    {
      "buffer": 0,
      "byteOffset": 56292,
      "byteLength": 84
    },
    {
      "buffer": 0,
      "byteOffset": 56376,
      "byteLength": 336
    },
    {
      "buffer": 0,
      "byteOffset": 56712,
      "byteLength": 84
    },
    {
      "buffer": 0,
      "byteOffset": 56796,
      "byteLength": 252
    },
    {
      "buffer": 0,
      "byteOffset": 57048,
      "byteLength": 84
    },
    {
      "buffer": 0,
      "byteOffset": 57132,
      "byteLength": 336
    },
    {
      "buffer": 0,
      "byteOffset": 57468,
      "byteLength": 84
    },
    {
      "buffer": 0,
      "byteOffset": 57552,
      "byteLength": 252
    },
    {
      "buffer": 0,
      "byteOffset": 57804,
      "byteLength": 84
    },
    {
      "buffer": 0,
      "byteOffset": 57888,
      "byteLength": 336
    },
    {
      "buffer": 0,
      "byteOffset": 58224,
      "byteLength": 84
    },
    {
      "buffer": 0,
      "byteOffset": 58308,
      "byteLength": 252
    },
    {
      "buffer": 0,
      "byteOffset": 58560,
      "byteLength": 84
    },
    {
      "buffer": 0,
      "byteOffset": 58644,
      "byteLength": 336
    },
    {
      "buffer": 0,
      "byteOffset": 58980,
      "byteLength": 84
    },
    {
      "buffer": 0,
      "byteOffset": 59064,
      "byteLength": 252
    },
    {
      "buffer": 0,
      "byteOffset": 59316,
      "byteLength": 84
    },
    {
      "buffer": 0,
      "byteOffset": 59400,
      "byteLength": 336
    },
    {
      "buffer": 0,
      "byteOffset": 59736,
      "byteLength": 84
    },
    {
      "buffer": 0,
      "byteOffset": 59820,
      "byteLength": 252
    },
    {
      "buffer": 0,
      "byteOffset": 60072,
      "byteLength": 84
    },
    {
      "buffer": 0,
      "byteOffset": 60156,
      "byteLength": 336
    },
    {
      "buffer": 0,
      "byteOffset": 60492,
      "byteLength": 84
    },
    {
      "buffer": 0,
      "byteOffset": 60576,
      "byteLength": 252
    },
    {
      "buffer": 0,
      "byteOffset": 60828,
      "byteLength": 84
    },
    {
      "buffer": 0,
      "byteOffset": 60912,
      "byteLength": 336
    },
    {
      "buffer": 0,
      "byteOffset": 61248,
      "byteLength": 84
    },
    {
      "buffer": 0,
      "byteOffset": 61332,
      "byteLength": 252
    },
    {
      "buffer": 0,
      "byteOffset": 61584,
      "byteLength": 84
    },
    {
      "buffer": 0,
      "byteOffset": 61668,
      "byteLength": 336
    },
    {
      "buffer": 0,
      "byteOffset": 62004,
      "byteLength": 84
    },
    {
      "buffer": 0,
      "byteOffset": 62088,
      "byteLength": 252
    },
    {
      "buffer": 0,
      "byteOffset": 62340,
      "byteLength": 84
    },
    {
      "buffer": 0,
      "byteOffset": 62424,
      "byteLength": 336
    },
    {
      "buffer": 0,
      "byteOffset": 62760,
      "byteLength": 84
    },
    {
      "buffer": 0,
      "byteOffset": 62844,
      "byteLength": 252
    },
    {
      "buffer": 0,
      "byteOffset": 63096,
      "byteLength": 84
    },
    {
      "buffer": 0,
      "byteOffset": 63180,
      "byteLength": 336
    },
    {
      "buffer": 0,
      "byteOffset": 63516,
      "byteLength": 84
    },
    {
      "buffer": 0,
      "byteOffset": 63600,
      "byteLength": 252
    },
    {
      "buffer": 0,
      "byteOffset": 63852,
      "byteLength": 84
    },
    {
      "buffer": 0,
      "byteOffset": 63936,
      "byteLength": 336
    },
    {
      "buffer": 0,
      "byteOffset": 64272,
      "byteLength": 84
    },
    {
      "buffer": 0,
      "byteOffset": 64356,
      "byteLength": 252
    },
    {
      "buffer": 0,
      "byteOffset": 64608,
      "byteLength": 84
    },
    {
      "buffer": 0,
      "byteOffset": 64692,
      "byteLength": 336
    },
    {
      "buffer": 0,
      "byteOffset": 65028,
      "byteLength": 84
    },
    {
      "buffer": 0,
      "byteOffset": 65112,
      "byteLength": 252
    },
    {
      "buffer": 0,
      "byteOffset": 65364,
      "byteLength": 84
    },
    {
      "buffer": 0,
      "byteOffset": 65448,
      "byteLength": 336
    },
    {
      "buffer": 0,
      "byteOffset": 65784,
      "byteLength": 84
    },
    {
      "buffer": 0,
      "byteOffset": 65868,
      "byteLength": 252
    },
    {
      "buffer": 0,
      "byteOffset": 66120,
      "byteLength": 84
    },
    {
      "buffer": 0,
      "byteOffset": 66204,
      "byteLength": 336
    },
    {
      "buffer": 0,
      "byteOffset": 66540,
      "byteLength": 84
    },
    {
      "buffer": 0,
      "byteOffset": 66624,
      "byteLength": 252
    },
    {
      "buffer": 0,
      "byteOffset": 66876,
      "byteLength": 84
    },
    {
      "buffer": 0,
      "byteOffset": 66960,
      "byteLength": 336
    },
    {
      "buffer": 0,
      "byteOffset": 67296,
      "byteLength": 84
    },
    {
      "buffer": 0,
      "byteOffset": 67380,
      "byteLength": 252
    },
    {
      "buffer": 0,
      "byteOffset": 67632,
      "byteLength": 84
    },
    {
      "buffer": 0,
      "byteOffset": 67716,
      "byteLength": 336
    },
    {
      "buffer": 0,
      "byteOffset": 68052,
      "byteLength": 84
    },
    {
      "buffer": 0,
      "byteOffset": 68136,
      "byteLength": 252
    },
    {
      "buffer": 0,
      "byteOffset": 68388,
      "byteLength": 84
    },
    {
      "buffer": 0,
      "byteOffset": 68472,
      "byteLength": 336
    },
    {
      "buffer": 0,
      "byteOffset": 68808,
      "byteLength": 84
    },
    {
      "buffer": 0,
      "byteOffset": 68892,
      "byteLength": 252
    },
    {
      "buffer": 0,
      "byteOffset": 69144,
      "byteLength": 84
    },
    {
      "buffer": 0,
      "byteOffset": 69228,
      "byteLength": 336
    },
    {
      "buffer": 0,
      "byteOffset": 69564,
      "byteLength": 84
    },
    {
      "buffer": 0,
      "byteOffset": 69648,
      "byteLength": 252
    },
    {
      "buffer": 0,
      "byteOffset": 69900,
      "byteLength": 84
    },
    {
      "buffer": 0,
      "byteOffset": 69984,
      "byteLength": 336
    },
    {
      "buffer": 0,
      "byteOffset": 70320,
      "byteLength": 84
    },
    {
      "buffer": 0,
      "byteOffset": 70404,
      "byteLength": 252
    },
    {
      "buffer": 0,
      "byteOffset": 70656,
      "byteLength": 104
    },
    {
      "buffer": 0,
      "byteOffset": 70760,
      "byteLength": 416
    },
    {
      "buffer": 0,
      "byteOffset": 71176,
      "byteLength": 104
    },
    {
      "buffer": 0,
      "byteOffset": 71280,
      "byteLength": 312
    },
    {
      "buffer": 0,
      "byteOffset": 71592,
      "byteLength": 104
    },
    {
      "buffer": 0,
      "byteOffset": 71696,
      "byteLength": 416
    },
    {
      "buffer": 0,
      "byteOffset": 72112,
      "byteLength": 104
    },
    {
      "buffer": 0,
      "byteOffset": 72216,
      "byteLength": 312
    },
    {
      "buffer": 0,
      "byteOffset": 72528,
      "byteLength": 104
    },
    {
      "buffer": 0,
      "byteOffset": 72632,
      "byteLength": 416
    },
    {
      "buffer": 0,
      "byteOffset": 73048,
      "byteLength": 104
    },
    {
      "buffer": 0,
      "byteOffset": 73152,
      "byteLength": 312
    },
    {
      "buffer": 0,
      "byteOffset": 73464,
      "byteLength": 104
    },
    {
      "buffer": 0,
      "byteOffset": 73568,
      "byteLength": 416
    },
    {
      "buffer": 0,
      "byteOffset": 73984,
      "byteLength": 104
    },
    {
      "buffer": 0,
      "byteOffset": 74088,
      "byteLength": 312
    },
    {
      "buffer": 0,
      "byteOffset": 74400,
      "byteLength": 104
    },
    {
      "buffer": 0,
      "byteOffset": 74504,
      "byteLength": 416
    },
    {
      "buffer": 0,
      "byteOffset": 74920,
      "byteLength": 104
    },
    {
      "buffer": 0,
      "byteOffset": 75024,
      "byteLength": 312
    },
    {
      "buffer": 0,
      "byteOffset": 75336,
      "byteLength": 104
    },
    {
      "buffer": 0,
      "byteOffset": 75440,
      "byteLength": 416
    },
    {
      "buffer": 0,
      "byteOffset": 75856,
      "byteLength": 104
    },
    {
      "buffer": 0,
      "byteOffset": 75960,
      "byteLength": 312
    },
    {
      "buffer": 0,
      "byteOffset": 76272,
      "byteLength": 104
    },
    {
      "buffer": 0,
      "byteOffset": 76376,
      "byteLength": 416
    },
    {
      "buffer": 0,
      "byteOffset": 76792,
      "byteLength": 104
    },
    {
      "buffer": 0,
      "byteOffset": 76896,
      "byteLength": 312
    },
    {
      "buffer": 0,
      "byteOffset": 77208,
      "byteLength": 104
    },
    {
      "buffer": 0,
      "byteOffset": 77312,
      "byteLength": 416
    },
    {
      "buffer": 0,
      "byteOffset": 77728,
      "byteLength": 104
    },
    {
      "buffer": 0,
      "byteOffset": 77832,
      "byteLength": 312
    },
    {
      "buffer": 0,
      "byteOffset": 78144,
      "byteLength": 104
    },
    {
      "buffer": 0,
      "byteOffset": 78248,
      "byteLength": 416
    },
    {
      "buffer": 0,
      "byteOffset": 78664,
      "byteLength": 104
    },
    {
      "buffer": 0,
      "byteOffset": 78768,
      "byteLength": 312
    },
    {
      "buffer": 0,
      "byteOffset": 79080,
      "byteLength": 104
    },
    {
      "buffer": 0,
      "byteOffset": 79184,
      "byteLength": 416
    },
    {
      "buffer": 0,
      "byteOffset": 79600,
      "byteLength": 104
    },
    {
      "buffer": 0,
      "byteOffset": 79704,
      "byteLength": 312
    },
    {
      "buffer": 0,
      "byteOffset": 80016,
      "byteLength": 104
    },
    {
      "buffer": 0,
      "byteOffset": 80120,
      "byteLength": 416
    },
    {
      "buffer": 0,
      "byteOffset": 80536,
      "byteLength": 104
    },
    {
      "buffer": 0,
      "byteOffset": 80640,
      "byteLength": 312
    },
    {
      "buffer": 0,
      "byteOffset": 80952,
      "byteLength": 104
    },
    {
      "buffer": 0,
      "byteOffset": 81056,
      "byteLength": 416
    },
    {
      "buffer": 0,
      "byteOffset": 81472,
      "byteLength": 104
    },
    {
      "buffer": 0,
      "byteOffset": 81576,
      "byteLength": 312
    },
    {
      "buffer": 0,
      "byteOffset": 81888,
      "byteLength": 104
    },
    {
      "buffer": 0,
      "byteOffset": 81992,
      "byteLength": 416
    },
    {
      "buffer": 0,
      "byteOffset": 82408,
      "byteLength": 104
    },
    {
      "buffer": 0,
      "byteOffset": 82512,
      "byteLength": 312
    },
    {
      "buffer": 0,
      "byteOffset": 82824,
      "byteLength": 104
    },
    {
      "buffer": 0,
      "byteOffset": 82928,
      "byteLength": 416
    },
    {
      "buffer": 0,
      "byteOffset": 83344,
      "byteLength": 104
    },
    {
      "buffer": 0,
      "byteOffset": 83448,
      "byteLength": 312
    },
    {
      "buffer": 0,
      "byteOffset": 83760,
      "byteLength": 104
    },
    {
      "buffer": 0,
      "byteOffset": 83864,
      "byteLength": 416
    },
    {
      "buffer": 0,
      "byteOffset": 84280,
      "byteLength": 104
    },
    {
      "buffer": 0,
      "byteOffset": 84384,
      "byteLength": 312
    }
  ],
  "accessors": [
    {
      "bufferView": 0,
      "componentType": 5126,
      "count": 159,
      "type": "VEC3",
      "min": [
        -0.8882851600646973,
        0.016771316528320312,
        -0.1548431396484375
      ],
      "max": [
        0.8622184753417969,
        4.5358024597167965,
        0.8775976181030274
      ]
    },
    {
      "bufferView": 1,
      "componentType": 5126,
      "count": 159,
      "type": "VEC2"
    },
    {
      "bufferView": 2,
      "componentType": 5121,
      "count": 159,
      "type": "VEC4"
    },
    {
      "bufferView": 3,
      "componentType": 5126,
      "count": 159,
      "type": "VEC4"
    },
    {
      "bufferView": 4,
      "componentType": 5123,
      "count": 237,
      "type": "SCALAR"
    },
    {
      "bufferView": 5,
      "componentType": 5126,
      "count": 468,
      "type": "VEC3",
      "min": [
        -0.9056042671203614,
        0.0,
        -0.9480269432067872
      ],
      "max": [
        0.8976092338562012,
        4.872025680541992,
        0.8775976181030274
      ]
    },
    {
      "bufferView": 6,
      "componentType": 5126,
      "count": 468,
      "type": "VEC2"
    },
    {
      "bufferView": 7,
      "componentType": 5121,
      "count": 468,
      "type": "VEC4"
    },
    {
      "bufferView": 8,
      "componentType": 5126,
      "count": 468,
      "type": "VEC4"
    },
    {
      "bufferView": 9,
      "componentType": 5123,
      "count": 690,
      "type": "SCALAR"
    },
    {
      "bufferView": 10,
      "componentType": 5126,
      "count": 206,
      "type": "VEC3",
      "min": [
        -0.8808990478515625,
        0.0,
        -0.7094314575195313
      ],
      "max": [
        0.8577134132385253,
        4.693508529663085,
        0.8775976181030274
      ]
    },
    {
      "bufferView": 11,
      "componentType": 5126,
      "count": 206,
      "type": "VEC2"
    },
    {
      "bufferView": 12,
      "componentType": 5121,
      "count": 206,
      "type": "VEC4"
    },
    {
      "bufferView": 13,
      "componentType": 5126,
      "count": 206,
      "type": "VEC4"
    },
    {
      "bufferView": 14,
      "componentType": 5123,
      "count": 300,
      "type": "SCALAR"
    },
    {
      "bufferView": 15,
      "componentType": 5126,
      "count": 9,
      "type": "VEC3",
      "min": [
        -0.33205695152282716,
        1.0189462661743165,
        -0.17600812911987304
      ],
      "max": [
        0.7070882797241211,
        3.5931335449218746,
        0.27904863357543946
      ]
    },
    {
      "bufferView": 16,
      "componentType": 5126,
      "count": 9,
      "type": "VEC2"
    },
    {
      "bufferView": 17,
      "componentType": 5121,
      "count": 9,
      "type": "VEC4"
    },
    {
      "bufferView": 18,
      "componentType": 5126,
      "count": 9,
      "type": "VEC4"
    },
    {
      "bufferView": 19,
      "componentType": 5123,
      "count": 9,
      "type": "SCALAR"
    },
    {
      "bufferView": 20,
      "componentType": 5126,
      "count": 16,
      "type": "MAT4"
    },
    {
      "bufferView": 21,
      "componentType": 5126,
      "count": 20,
      "type": "SCALAR",
      "min": [
        0.0
      ],
      "max": [
        1.9
      ]
    },
    {
      "bufferView": 22,
      "componentType": 5126,
      "count": 20,
      "type": "VEC4"
    },
    {
      "bufferView": 23,
      "componentType": 5126,
      "count": 20,
      "type": "SCALAR",
      "min": [
        0.0
      ],
      "max": [
        1.9
      ]
    },
    {
      "bufferView": 24,
      "componentType": 5126,
      "count": 20,
      "type": "VEC3"
    },
    {
      "bufferView": 25,
      "componentType": 5126,
      "count": 20,
      "type": "SCALAR",
      "min": [
        0.0
      ],
      "max": [
        1.9
      ]
    },
    {
      "bufferView": 26,
      "componentType": 5126,
      "count": 20,
      "type": "VEC4"
    },
    {
      "bufferView": 27,
      "componentType": 5126,
      "count": 20,
      "type": "SCALAR",
      "min": [
        0.0
      ],
      "max": [
        1.9
      ]
    },
    {
      "bufferView": 28,
      "componentType": 5126,
      "count": 20,
      "type": "VEC3"
    },
    {
      "bufferView": 29,
      "componentType": 5126,
      "count": 20,
      "type": "SCALAR",
      "min": [
        0.0
      ],
      "max": [
        1.9
      ]
    },
    {
      "bufferView": 30,
      "componentType": 5126,
      "count": 20,
      "type": "VEC4"
    },
    {
      "bufferView": 31,
      "componentType": 5126,
      "count": 20,
      "type": "SCALAR",
      "min": [
        0.0
      ],
      "max": [
        1.9
      ]
    },
    {
      "bufferView": 32,
      "componentType": 5126,
      "count": 20,
      "type": "VEC3"
    },
    {
      "bufferView": 33,
      "componentType": 5126,
      "count": 20,
      "type": "SCALAR",
      "min": [
        0.0
      ],
      "max": [
        1.9
      ]
    },
    {
      "bufferView": 34,
      "componentType": 5126,
      "count": 20,
      "type": "VEC4"
    },
    {
      "bufferView": 35,
      "componentType": 5126,
      "count": 20,
      "type": "SCALAR",
      "min": [
        0.0
      ],
      "max": [
        1.9
      ]
    },
    {
      "bufferView": 36,
      "componentType": 5126,
      "count": 20,
      "type": "VEC3"
    },
    {
      "bufferView": 37,
      "componentType": 5126,
      "count": 20,
      "type": "SCALAR",
      "min": [
        0.0
      ],
      "max": [
        1.9
      ]
    },
    {
      "bufferView": 38,
      "componentType": 5126,
      "count": 20,
      "type": "VEC4"
    },
    {
      "bufferView": 39,
      "componentType": 5126,
      "count": 20,
      "type": "SCALAR",
      "min": [
        0.0
      ],
      "max": [
        1.9
      ]
    },
    {
      "bufferView": 40,
      "componentType": 5126,
      "count": 20,
      "type": "VEC3"
    },
    {
      "bufferView": 41,
      "componentType": 5126,
      "count": 20,
      "type": "SCALAR",
      "min": [
        0.0
      ],
      "max": [
        1.9
      ]
    },
    {
      "bufferView": 42,
      "componentType": 5126,
      "count": 20,
      "type": "VEC4"
    },
    {
      "bufferView": 43,
      "componentType": 5126,
      "count": 20,
      "type": "SCALAR",
      "min": [
        0.0
      ],
      "max": [
        1.9
      ]
    },
    {
      "bufferView": 44,
      "componentType": 5126,
      "count": 20,
      "type": "VEC3"
    },
    {
      "bufferView": 45,
      "componentType": 5126,
      "count": 20,
      "type": "SCALAR",
      "min": [
        0.0
      ],
      "max": [
        1.9
      ]
    },
    {
      "bufferView": 46,
      "componentType": 5126,
      "count": 20,
      "type": "VEC4"
    },
    {
      "bufferView": 47,
      "componentType": 5126,
      "count": 20,
      "type": "SCALAR",
      "min": [
        0.0
      ],
      "max": [
        1.9
      ]
    },
    {
      "bufferView": 48,
      "componentType": 5126,
      "count": 20,
      "type": "VEC3"
    },
    {
      "bufferView": 49,
      "componentType": 5126,
      "count": 20,
      "type": "SCALAR",
      "min": [
        0.0
      ],
      "max": [
        1.9
      ]
    },
    {
      "bufferView": 50,
      "componentType": 5126,
      "count": 20,
      "type": "VEC4"
    },
    {
      "bufferView": 51,
      "componentType": 5126,
      "count": 20,
      "type": "SCALAR",
      "min": [
        0.0
      ],
      "max": [
        1.9
      ]
    },
    {
      "bufferView": 52,
      "componentType": 5126,
      "count": 20,
      "type": "VEC3"
    },
    {
      "bufferView": 53,
      "componentType": 5126,
      "count": 20,
      "type": "SCALAR",
      "min": [
        0.0
      ],
      "max": [
        1.9
      ]
    },
    {
      "bufferView": 54,
      "componentType": 5126,
      "count": 20,
      "type": "VEC4"
    },
    {
      "bufferView": 55,
      "componentType": 5126,
      "count": 20,
      "type": "SCALAR",
      "min": [
        0.0
      ],
      "max": [
        1.9
      ]
    },
    {
      "bufferView": 56,
      "componentType": 5126,
      "count": 20,
      "type": "VEC3"
    },
    {
      "bufferView": 57,
      "componentType": 5126,
      "count": 20,
      "type": "SCALAR",
      "min": [
        0.0
      ],
      "max": [
        1.9
      ]
    },
    {
      "bufferView": 58,
      "componentType": 5126,
      "count": 20,
      "type": "VEC4"
    },
    {
      "bufferView": 59,
      "componentType": 5126,
      "count": 20,
      "type": "SCALAR",
      "min": [
        0.0
      ],
      "max": [
        1.9
      ]
    },
    {
      "bufferView": 60,
      "componentType": 5126,
      "count": 20,
      "type": "VEC3"
    },
    {
      "bufferView": 61,
      "componentType": 5126,
      "count": 20,
      "type": "SCALAR",
      "min": [
        0.0
      ],
      "max": [
        1.9
      ]
    },
    {
      "bufferView": 62,
      "componentType": 5126,
      "count": 20,
      "type": "VEC4"
    },
    {
      "bufferView": 63,
      "componentType": 5126,
      "count": 20,
      "type": "SCALAR",
      "min": [
        0.0
      ],
      "max": [
        1.9
      ]
    },
    {
      "bufferView": 64,
      "componentType": 5126,
      "count": 20,
      "type": "VEC3"
    },
    {
      "bufferView": 65,
      "componentType": 5126,
      "count": 20,
      "type": "SCALAR",
      "min": [
        0.0
      ],
      "max": [
        1.9
      ]
    },
    {
      "bufferView": 66,
      "componentType": 5126,
      "count": 20,
      "type": "VEC4"
    },
    {
      "bufferView": 67,
      "componentType": 5126,
      "count": 20,
      "type": "SCALAR",
      "min": [
        0.0
      ],
      "max": [
        1.9
      ]
    },
    {
      "bufferView": 68,
      "componentType": 5126,
      "count": 20,
      "type": "VEC3"
    },
    {
      "bufferView": 69,
      "componentType": 5126,
      "count": 20,
      "type": "SCALAR",
      "min": [
        0.0
      ],
      "max": [
        1.9
      ]
    },
    {
      "bufferView": 70,
      "componentType": 5126,
      "count": 20,
      "type": "VEC4"
    },
    {
      "bufferView": 71,
      "componentType": 5126,
      "count": 20,
      "type": "SCALAR",
      "min": [
        0.0
      ],
      "max": [
        1.9
      ]
    },
    {
      "bufferView": 72,
      "componentType": 5126,
      "count": 20,
      "type": "VEC3"
    },
    {
      "bufferView": 73,
      "componentType": 5126,
      "count": 20,
      "type": "SCALAR",
      "min": [
        0.0
      ],
      "max": [
        1.9
      ]
    },
    {
      "bufferView": 74,
      "componentType": 5126,
      "count": 20,
      "type": "VEC4"
    },
    {
      "bufferView": 75,
      "componentType": 5126,
      "count": 20,
      "type": "SCALAR",
      "min": [
        0.0
      ],
      "max": [
        1.9
      ]
    },
    {
      "bufferView": 76,
      "componentType": 5126,
      "count": 20,
      "type": "VEC3"
    },
    {
      "bufferView": 77,
      "componentType": 5126,
      "count": 20,
      "type": "SCALAR",
      "min": [
        0.0
      ],
      "max": [
        1.9
      ]
    },
    {
      "bufferView": 78,
      "componentType": 5126,
      "count": 20,
      "type": "VEC4"
    },
    {
      "bufferView": 79,
      "componentType": 5126,
      "count": 20,
      "type": "SCALAR",
      "min": [
        0.0
      ],
      "max": [
        1.9
      ]
    },
    {
      "bufferView": 80,
      "componentType": 5126,
      "count": 20,
      "type": "VEC3"
    },
    {
      "bufferView": 81,
      "componentType": 5126,
      "count": 21,
      "type": "SCALAR",
      "min": [
        0.0
      ],
      "max": [
        2.0
      ]
    },
    {
      "bufferView": 82,
      "componentType": 5126,
      "count": 21,
      "type": "VEC4"
    },
    {
      "bufferView": 83,
      "componentType": 5126,
      "count": 21,
      "type": "SCALAR",
      "min": [
        0.0
      ],
      "max": [
        2.0
      ]
    },
    {
      "bufferView": 84,
      "componentType": 5126,
      "count": 21,
      "type": "VEC3"
    },
    {
      "bufferView": 85,
      "componentType": 5126,
      "count": 21,
      "type": "SCALAR",
      "min": [
        0.0
      ],
      "max": [
        2.0
      ]
    },
    {
      "bufferView": 86,
      "componentType": 5126,
      "count": 21,
      "type": "VEC4"
    },
    {
      "bufferView": 87,
      "componentType": 5126,
      "count": 21,
      "type": "SCALAR",
      "min": [
        0.0
      ],
      "max": [
        2.0
      ]
    },
    {
      "bufferView": 88,
      "componentType": 5126,
      "count": 21,
      "type": "VEC3"
    },
    {
      "bufferView": 89,
      "componentType": 5126,
      "count": 21,
      "type": "SCALAR",
      "min": [
        0.0
      ],
      "max": [
        2.0
      ]
    },
    {
      "bufferView": 90,
      "componentType": 5126,
      "count": 21,
      "type": "VEC4"
    },
    {
      "bufferView": 91,
      "componentType": 5126,
      "count": 21,
      "type": "SCALAR",
      "min": [
        0.0
      ],
      "max": [
        2.0
      ]
    },
    {
      "bufferView": 92,
      "componentType": 5126,
      "count": 21,
      "type": "VEC3"
    },
    {
      "bufferView": 93,
      "componentType": 5126,
      "count": 21,
      "type": "SCALAR",
      "min": [
        0.0
      ],
      "max": [
        2.0
      ]
    },
    {
      "bufferView": 94,
      "componentType": 5126,
      "count": 21,
      "type": "VEC4"
    },
    {
      "bufferView": 95,
      "componentType": 5126,
      "count": 21,
      "type": "SCALAR",
      "min": [
        0.0
      ],
      "max": [
        2.0
      ]
    },
    {
      "bufferView": 96,
      "componentType": 5126,
      "count": 21,
      "type": "VEC3"
    },
    {
      "bufferView": 97,
      "componentType": 5126,
      "count": 21,
      "type": "SCALAR",
      "min": [
        0.0
      ],
      "max": [
        2.0
      ]
    },
    {
      "bufferView": 98,
      "componentType": 5126,
      "count": 21,
      "type": "VEC4"
    },
    {
      "bufferView": 99,
      "componentType": 5126,
      "count": 21,
      "type": "SCALAR",
      "min": [
        0.0
      ],
      "max": [
        2.0
      ]
    },
    {
      "bufferView": 100,
      "componentType": 5126,
      "count": 21,
      "type": "VEC3"
    },
    {
      "bufferView": 101,
      "componentType": 5126,
      "count": 21,
      "type": "SCALAR",
      "min": [
        0.0
      ],
      "max": [
        2.0
      ]
    },
    {
      "bufferView": 102,
      "componentType": 5126,
      "count": 21,
      "type": "VEC4"
    },
    {
      "bufferView": 103,
      "componentType": 5126,
      "count": 21,
      "type": "SCALAR",
      "min": [
        0.0
      ],
      "max": [
        2.0
      ]
    },
    {
      "bufferView": 104,
      "componentType": 5126,
      "count": 21,
      "type": "VEC3"
    },
    {
      "bufferView": 105,
      "componentType": 5126,
      "count": 21,
      "type": "SCALAR",
      "min": [
        0.0
      ],
      "max": [
        2.0
      ]
    },
    {
      "bufferView": 106,
      "componentType": 5126,
      "count": 21,
      "type": "VEC4"
    },
    {
      "bufferView": 107,
      "componentType": 5126,
      "count": 21,
      "type": "SCALAR",
      "min": [
        0.0
      ],
      "max": [
        2.0
      ]
    },
    {
      "bufferView": 108,
      "componentType": 5126,
      "count": 21,
      "type": "VEC3"
    },
    {
      "bufferView": 109,
      "componentType": 5126,
      "count": 21,
      "type": "SCALAR",
      "min": [
        0.0
      ],
      "max": [
        2.0
      ]
    },
    {
      "bufferView": 110,
      "componentType": 5126,
      "count": 21,
      "type": "VEC4"
    },
    {
      "bufferView": 111,
      "componentType": 5126,
      "count": 21,
      "type": "SCALAR",
      "min": [
        0.0
      ],
      "max": [
        2.0
      ]
    },
    {
      "bufferView": 112,
      "componentType": 5126,
      "count": 21,
      "type": "VEC3"
    },
    {
      "bufferView": 113,
      "componentType": 5126,
      "count": 21,
      "type": "SCALAR",
      "min": [
        0.0
      ],
      "max": [
        2.0
      ]
    },
    {
      "bufferView": 114,
      "componentType": 5126,
      "count": 21,
      "type": "VEC4"
    },
    {
      "bufferView": 115,
      "componentType": 5126,
      "count": 21,
      "type": "SCALAR",
      "min": [
        0.0
      ],
      "max": [
        2.0
      ]
    },
    {
      "bufferView": 116,
      "componentType": 5126,
      "count": 21,
      "type": "VEC3"
    },
    {
      "bufferView": 117,
      "componentType": 5126,
      "count": 21,
      "type": "SCALAR",
      "min": [
        0.0
      ],
      "max": [
        2.0
      ]
    },
    {
      "bufferView": 118,
      "componentType": 5126,
      "count": 21,
      "type": "VEC4"
    },
    {
      "bufferView": 119,
      "componentType": 5126,
      "count": 21,
      "type": "SCALAR",
      "min": [
        0.0
      ],
      "max": [
        2.0
      ]
    },
    {
      "bufferView": 120,
      "componentType": 5126,
      "count": 21,
      "type": "VEC3"
    },
    {
      "bufferView": 121,
      "componentType": 5126,
      "count": 21,
      "type": "SCALAR",
      "min": [
        0.0
      ],
      "max": [
        2.0
      ]
    },
    {
      "bufferView": 122,
      "componentType": 5126,
      "count": 21,
      "type": "VEC4"
    },
    {
      "bufferView": 123,
      "componentType": 5126,
      "count": 21,
      "type": "SCALAR",
      "min": [
        0.0
      ],
      "max": [
        2.0
      ]
    },
    {
      "bufferView": 124,
      "componentType": 5126,
      "count": 21,
      "type": "VEC3"
    },
    {
      "bufferView": 125,
      "componentType": 5126,
      "count": 21,
      "type": "SCALAR",
      "min": [
        0.0
      ],
      "max": [
        2.0
      ]
    },
    {
      "bufferView": 126,
      "componentType": 5126,
      "count": 21,
      "type": "VEC4"
    },
    {
      "bufferView": 127,
      "componentType": 5126,
      "count": 21,
      "type": "SCALAR",
      "min": [
        0.0
      ],
      "max": [
        2.0
      ]
    },
    {
      "bufferView": 128,
      "componentType": 5126,
      "count": 21,
      "type": "VEC3"
    },
    {
      "bufferView": 129,
      "componentType": 5126,
      "count": 21,
      "type": "SCALAR",
      "min": [
        0.0
      ],
      "max": [
        2.0
      ]
    },
    {
      "bufferView": 130,
      "componentType": 5126,
      "count": 21,
      "type": "VEC4"
    },
    {
      "bufferView": 131,
      "componentType": 5126,
      "count": 21,
      "type": "SCALAR",
      "min": [
        0.0
      ],
      "max": [
        2.0
      ]
    },
    {
      "bufferView": 132,
      "componentType": 5126,
      "count": 21,
      "type": "VEC3"
    },
    {
      "bufferView": 133,
      "componentType": 5126,
      "count": 21,
      "type": "SCALAR",
      "min": [
        0.0
      ],
      "max": [
        2.0
      ]
    },
    {
      "bufferView": 134,
      "componentType": 5126,
      "count": 21,
      "type": "VEC4"
    },
    {
      "bufferView": 135,
      "componentType": 5126,
      "count": 21,
      "type": "SCALAR",
      "min": [
        0.0
      ],
      "max": [
        2.0
      ]
    },
    {
      "bufferView": 136,
      "componentType": 5126,
      "count": 21,
      "type": "VEC3"
    },
    {
      "bufferView": 137,
      "componentType": 5126,
      "count": 21,
      "type": "SCALAR",
      "min": [
        0.0
      ],
      "max": [
        2.0
      ]
    },
    {
      "bufferView": 138,
      "componentType": 5126,
      "count": 21,
      "type": "VEC4"
    },
    {
      "bufferView": 139,
      "componentType": 5126,
      "count": 21,
      "type": "SCALAR",
      "min": [
        0.0
      ],
      "max": [
        2.0
      ]
    },
    {
      "bufferView": 140,
      "componentType": 5126,
      "count": 21,
      "type": "VEC3"
    },
    {
      "bufferView": 141,
      "componentType": 5126,
      "count": 21,
      "type": "SCALAR",
      "min": [
        0.0
      ],
      "max": [
        2.0
      ]
    },
    {
      "bufferView": 142,
      "componentType": 5126,
      "count": 21,
      "type": "VEC4"
    },
    {
      "bufferView": 143,
      "componentType": 5126,
      "count": 21,
      "type": "SCALAR",
      "min": [
        0.0
      ],
      "max": [
        2.0
      ]
    },
    {
      "bufferView": 144,
      "componentType": 5126,
      "count": 21,
      "type": "VEC3"
    },
    {
      "bufferView": 145,
      "componentType": 5126,
      "count": 21,
      "type": "SCALAR",
      "min": [
        0.0
      ],
      "max": [
        2.0
      ]
    },
    {
      "bufferView": 146,
      "componentType": 5126,
      "count": 21,
      "type": "VEC4"
    },
    {
      "bufferView": 147,
      "componentType": 5126,
      "count": 21,
      "type": "SCALAR",
      "min": [
        0.0
      ],
      "max": [
        2.0
      ]
    },
    {
      "bufferView": 148,
      "componentType": 5126,
      "count": 21,
      "type": "VEC3"
    },
    {
      "bufferView": 149,
      "componentType": 5126,
      "count": 21,
      "type": "SCALAR",
      "min": [
        0.0
      ],
      "max": [
        2.0
      ]
    },
    {
      "bufferView": 150,
      "componentType": 5126,
      "count": 21,
      "type": "VEC4"
    },
    {
      "bufferView": 151,
      "componentType": 5126,
      "count": 21,
      "type": "SCALAR",
      "min": [
        0.0
      ],
      "max": [
        2.0
      ]
    },
    {
      "bufferView": 152,
      "componentType": 5126,
      "count": 21,
      "type": "VEC3"
    },
    {
      "bufferView": 153,
      "componentType": 5126,
      "count": 21,
      "type": "SCALAR",
      "min": [
        0.0
      ],
      "max": [
        2.0
      ]
    },
    {
      "bufferView": 154,
      "componentType": 5126,
      "count": 21,
      "type": "VEC4"
    },
    {
      "bufferView": 155,
      "componentType": 5126,
      "count": 21,
      "type": "SCALAR",
      "min": [
        0.0
      ],
      "max": [
        2.0
      ]
    },
    {
      "bufferView": 156,
      "componentType": 5126,
      "count": 21,
      "type": "VEC3"
    },
    {
      "bufferView": 157,
      "componentType": 5126,
      "count": 21,
      "type": "SCALAR",
      "min": [
        0.0
      ],
      "max": [
        2.0
      ]
    },
    {
      "bufferView": 158,
      "componentType": 5126,
      "count": 21,
      "type": "VEC4"
    },
    {
      "bufferView": 159,
      "componentType": 5126,
      "count": 21,
      "type": "SCALAR",
      "min": [
        0.0
      ],
      "max": [
        2.0
      ]
    },
    {
      "bufferView": 160,
      "componentType": 5126,
      "count": 21,
      "type": "VEC3"
    },
    {
      "bufferView": 161,
      "componentType": 5126,
      "count": 21,
      "type": "SCALAR",
      "min": [
        0.0
      ],
      "max": [
        2.0
      ]
    },
    {
      "bufferView": 162,
      "componentType": 5126,
      "count": 21,
      "type": "VEC4"
    },
    {
      "bufferView": 163,
      "componentType": 5126,
      "count": 21,
      "type": "SCALAR",
      "min": [
        0.0
      ],
      "max": [
        2.0
      ]
    },
    {
      "bufferView": 164,
      "componentType": 5126,
      "count": 21,
      "type": "VEC3"
    },
    {
      "bufferView": 165,
      "componentType": 5126,
      "count": 21,
      "type": "SCALAR",
      "min": [
        0.0
      ],
      "max": [
        2.0
      ]
    },
    {
      "bufferView": 166,
      "componentType": 5126,
      "count": 21,
      "type": "VEC4"
    },
    {
      "bufferView": 167,
      "componentType": 5126,
      "count": 21,
      "type": "SCALAR",
      "min": [
        0.0
      ],
      "max": [
        2.0
      ]
    },
    {
      "bufferView": 168,
      "componentType": 5126,
      "count": 21,
      "type": "VEC3"
    },
    {
      "bufferView": 169,
      "componentType": 5126,
      "count": 21,
      "type": "SCALAR",
      "min": [
        0.0
      ],
      "max": [
        2.0
      ]
    },
    {
      "bufferView": 170,
      "componentType": 5126,
      "count": 21,
      "type": "VEC4"
    },
    {
      "bufferView": 171,
      "componentType": 5126,
      "count": 21,
      "type": "SCALAR",
      "min": [
        0.0
      ],
      "max": [
        2.0
      ]
    },
    {
      "bufferView": 172,
      "componentType": 5126,
      "count": 21,
      "type": "VEC3"
    },
    {
      "bufferView": 173,
      "componentType": 5126,
      "count": 21,
      "type": "SCALAR",
      "min": [
        0.0
      ],
      "max": [
        2.0
      ]
    },
    {
      "bufferView": 174,
      "componentType": 5126,
      "count": 21,
      "type": "VEC4"
    },
    {
      "bufferView": 175,
      "componentType": 5126,
      "count": 21,
      "type": "SCALAR",
      "min": [
        0.0
      ],
      "max": [
        2.0
      ]
    },
    {
      "bufferView": 176,
      "componentType": 5126,
      "count": 21,
      "type": "VEC3"
    },
    {
      "bufferView": 177,
      "componentType": 5126,
      "count": 21,
      "type": "SCALAR",
      "min": [
        0.0
      ],
      "max": [
        2.0
      ]
    },
    {
      "bufferView": 178,
      "componentType": 5126,
      "count": 21,
      "type": "VEC4"
    },
    {
      "bufferView": 179,
      "componentType": 5126,
      "count": 21,
      "type": "SCALAR",
      "min": [
        0.0
      ],
      "max": [
        2.0
      ]
    },
    {
      "bufferView": 180,
      "componentType": 5126,
      "count": 21,
      "type": "VEC3"
    },
    {
      "bufferView": 181,
      "componentType": 5126,
      "count": 21,
      "type": "SCALAR",
      "min": [
        0.0
      ],
      "max": [
        2.0
      ]
    },
    {
      "bufferView": 182,
      "componentType": 5126,
      "count": 21,
      "type": "VEC4"
    },
    {
      "bufferView": 183,
      "componentType": 5126,
      "count": 21,
      "type": "SCALAR",
      "min": [
        0.0
      ],
      "max": [
        2.0
      ]
    },
    {
      "bufferView": 184,
      "componentType": 5126,
      "count": 21,
      "type": "VEC3"
    },
    {
      "bufferView": 185,
      "componentType": 5126,
      "count": 21,
      "type": "SCALAR",
      "min": [
        0.0
      ],
      "max": [
        2.0
      ]
    },
    {
      "bufferView": 186,
      "componentType": 5126,
      "count": 21,
      "type": "VEC4"
    },
    {
      "bufferView": 187,
      "componentType": 5126,
      "count": 21,
      "type": "SCALAR",
      "min": [
        0.0
      ],
      "max": [
        2.0
      ]
    },
    {
      "bufferView": 188,
      "componentType": 5126,
      "count": 21,
      "type": "VEC3"
    },
    {
      "bufferView": 189,
      "componentType": 5126,
      "count": 21,
      "type": "SCALAR",
      "min": [
        0.0
      ],
      "max": [
        2.0
      ]
    },
    {
      "bufferView": 190,
      "componentType": 5126,
      "count": 21,
      "type": "VEC4"
    },
    {
      "bufferView": 191,
      "componentType": 5126,
      "count": 21,
      "type": "SCALAR",
      "min": [
        0.0
      ],
      "max": [
        2.0
      ]
    },
    {
      "bufferView": 192,
      "componentType": 5126,
      "count": 21,
      "type": "VEC3"
    },
    {
      "bufferView": 193,
      "componentType": 5126,
      "count": 21,
      "type": "SCALAR",
      "min": [
        0.0
      ],
      "max": [
        2.0
      ]
    },
    {
      "bufferView": 194,
      "componentType": 5126,
      "count": 21,
      "type": "VEC4"
    },
    {
      "bufferView": 195,
      "componentType": 5126,
      "count": 21,
      "type": "SCALAR",
      "min": [
        0.0
      ],
      "max": [
        2.0
      ]
    },
    {
      "bufferView": 196,
      "componentType": 5126,
      "count": 21,
      "type": "VEC3"
    },
    {
      "bufferView": 197,
      "componentType": 5126,
      "count": 21,
      "type": "SCALAR",
      "min": [
        0.0
      ],
      "max": [
        2.0
      ]
    },
    {
      "bufferView": 198,
      "componentType": 5126,
      "count": 21,
      "type": "VEC4"
    },
    {
      "bufferView": 199,
      "componentType": 5126,
      "count": 21,
      "type": "SCALAR",
      "min": [
        0.0
      ],
      "max": [
        2.0
      ]
    },
    {
      "bufferView": 200,
      "componentType": 5126,
      "count": 21,
      "type": "VEC3"
    },
    {
      "bufferView": 201,
      "componentType": 5126,
      "count": 26,
      "type": "SCALAR",
      "min": [
        0.0
      ],
      "max": [
        2.5
      ]
    },
    {
      "bufferView": 202,
      "componentType": 5126,
      "count": 26,
      "type": "VEC4"
    },
    {
      "bufferView": 203,
      "componentType": 5126,
      "count": 26,
      "type": "SCALAR",
      "min": [
        0.0
      ],
      "max": [
        2.5
      ]
    },
    {
      "bufferView": 204,
      "componentType": 5126,
      "count": 26,
      "type": "VEC3"
    },
    {
      "bufferView": 205,
      "componentType": 5126,
      "count": 26,
      "type": "SCALAR",
      "min": [
        0.0
      ],
      "max": [
        2.5
      ]
    },
    {
      "bufferView": 206,
      "componentType": 5126,
      "count": 26,
      "type": "VEC4"
    },
    {
      "bufferView": 207,
      "componentType": 5126,
      "count": 26,
      "type": "SCALAR",
      "min": [
        0.0
      ],
      "max": [
        2.5
      ]
    },
    {
      "bufferView": 208,
      "componentType": 5126,
      "count": 26,
      "type": "VEC3"
    },
    {
      "bufferView": 209,
      "componentType": 5126,
      "count": 26,
      "type": "SCALAR",
      "min": [
        0.0
      ],
      "max": [
        2.5
      ]
    },
    {
      "bufferView": 210,
      "componentType": 5126,
      "count": 26,
      "type": "VEC4"
    },
    {
      "bufferView": 211,
      "componentType": 5126,
      "count": 26,
      "type": "SCALAR",
      "min": [
        0.0
      ],
      "max": [
        2.5
      ]
    },
    {
      "bufferView": 212,
      "componentType": 5126,
      "count": 26,
      "type": "VEC3"
    },
    {
      "bufferView": 213,
      "componentType": 5126,
      "count": 26,
      "type": "SCALAR",
      "min": [
        0.0
      ],
      "max": [
        2.5
      ]
    },
    {
      "bufferView": 214,
      "componentType": 5126,
      "count": 26,
      "type": "VEC4"
    },
    {
      "bufferView": 215,
      "componentType": 5126,
      "count": 26,
      "type": "SCALAR",
      "min": [
        0.0
      ],
      "max": [
        2.5
      ]
    },
    {
      "bufferView": 216,
      "componentType": 5126,
      "count": 26,
      "type": "VEC3"
    },
    {
      "bufferView": 217,
      "componentType": 5126,
      "count": 26,
      "type": "SCALAR",
      "min": [
        0.0
      ],
      "max": [
        2.5
      ]
    },
    {
      "bufferView": 218,
      "componentType": 5126,
      "count": 26,
      "type": "VEC4"
    },
    {
      "bufferView": 219,
      "componentType": 5126,
      "count": 26,
      "type": "SCALAR",
      "min": [
        0.0
      ],
      "max": [
        2.5
      ]
    },
    {
      "bufferView": 220,
      "componentType": 5126,
      "count": 26,
      "type": "VEC3"
    },
    {
      "bufferView": 221,
      "componentType": 5126,
      "count": 26,
      "type": "SCALAR",
      "min": [
        0.0
      ],
      "max": [
        2.5
      ]
    },
    {
      "bufferView": 222,
      "componentType": 5126,
      "count": 26,
      "type": "VEC4"
    },
    {
      "bufferView": 223,
      "componentType": 5126,
      "count": 26,
      "type": "SCALAR",
      "min": [
        0.0
      ],
      "max": [
        2.5
      ]
    },
    {
      "bufferView": 224,
      "componentType": 5126,
      "count": 26,
      "type": "VEC3"
    },
    {
      "bufferView": 225,
      "componentType": 5126,
      "count": 26,
      "type": "SCALAR",
      "min": [
        0.0
      ],
      "max": [
        2.5
      ]
    },
    {
      "bufferView": 226,
      "componentType": 5126,
      "count": 26,
      "type": "VEC4"
    },
    {
      "bufferView": 227,
      "componentType": 5126,
      "count": 26,
      "type": "SCALAR",
      "min": [
        0.0
      ],
      "max": [
        2.5
      ]
    },
    {
      "bufferView": 228,
      "componentType": 5126,
      "count": 26,
      "type": "VEC3"
    },
    {
      "bufferView": 229,
      "componentType": 5126,
      "count": 26,
      "type": "SCALAR",
      "min": [
        0.0
      ],
      "max": [
        2.5
      ]
    },
    {
      "bufferView": 230,
      "componentType": 5126,
      "count": 26,
      "type": "VEC4"
    },
    {
      "bufferView": 231,
      "componentType": 5126,
      "count": 26,
      "type": "SCALAR",
      "min": [
        0.0
      ],
      "max": [
        2.5
      ]
    },
    {
      "bufferView": 232,
      "componentType": 5126,
      "count": 26,
      "type": "VEC3"
    },
    {
      "bufferView": 233,
      "componentType": 5126,
      "count": 26,
      "type": "SCALAR",
      "min": [
        0.0
      ],
      "max": [
        2.5
      ]
    },
    {
      "bufferView": 234,
      "componentType": 5126,
      "count": 26,
      "type": "VEC4"
    },
    {
      "bufferView": 235,
      "componentType": 5126,
      "count": 26,
      "type": "SCALAR",
      "min": [
        0.0
      ],
      "max": [
        2.5
      ]
    },
    {
      "bufferView": 236,
      "componentType": 5126,
      "count": 26,
      "type": "VEC3"
    },
    {
      "bufferView": 237,
      "componentType": 5126,
      "count": 26,
      "type": "SCALAR",
      "min": [
        0.0
      ],
      "max": [
        2.5
      ]
    },
    {
      "bufferView": 238,
      "componentType": 5126,
      "count": 26,
      "type": "VEC4"
    },
    {
      "bufferView": 239,
      "componentType": 5126,
      "count": 26,
      "type": "SCALAR",
      "min": [
        0.0
      ],
      "max": [
        2.5
      ]
    },
    {
      "bufferView": 240,
      "componentType": 5126,
      "count": 26,
      "type": "VEC3"
    },
    {
      "bufferView": 241,
      "componentType": 5126,
      "count": 26,
      "type": "SCALAR",
      "min": [
        0.0
      ],
      "max": [
        2.5
      ]
    },
    {
      "bufferView": 242,
      "componentType": 5126,
      "count": 26,
      "type": "VEC4"
    },
    {
      "bufferView": 243,
      "componentType": 5126,
      "count": 26,
      "type": "SCALAR",
      "min": [
        0.0
      ],
      "max": [
        2.5
      ]
    },
    {
      "bufferView": 244,
      "componentType": 5126,
      "count": 26,
      "type": "VEC3"
    },
    {
      "bufferView": 245,
      "componentType": 5126,
      "count": 26,
      "type": "SCALAR",
      "min": [
        0.0
      ],
      "max": [
        2.5
      ]
    },
    {
      "bufferView": 246,
      "componentType": 5126,
      "count": 26,
      "type": "VEC4"
    },
    {
      "bufferView": 247,
      "componentType": 5126,
      "count": 26,
      "type": "SCALAR",
      "min": [
        0.0
      ],
      "max": [
        2.5
      ]
    },
    {
      "bufferView": 248,
      "componentType": 5126,
      "count": 26,
      "type": "VEC3"
    },
    {
      "bufferView": 249,
      "componentType": 5126,
      "count": 26,
      "type": "SCALAR",
      "min": [
        0.0
      ],
      "max": [
        2.5
      ]
    },
    {
      "bufferView": 250,
      "componentType": 5126,
      "count": 26,
      "type": "VEC4"
    },
    {
      "bufferView": 251,
      "componentType": 5126,
      "count": 26,
      "type": "SCALAR",
      "min": [
        0.0
      ],
      "max": [
        2.5
      ]
    },
    {
      "bufferView": 252,
      "componentType": 5126,
      "count": 26,
      "type": "VEC3"
    },
    {
      "bufferView": 253,
      "componentType": 5126,
      "count": 26,
      "type": "SCALAR",
      "min": [
        0.0
      ],
      "max": [
        2.5
      ]
    },
    {
      "bufferView": 254,
      "componentType": 5126,
      "count": 26,
      "type": "VEC4"
    },
    {
      "bufferView": 255,
      "componentType": 5126,
      "count": 26,
      "type": "SCALAR",
      "min": [
        0.0
      ],
      "max": [
        2.5
      ]
    },
    {
      "bufferView": 256,
      "componentType": 5126,
      "count": 26,
      "type": "VEC3"
    },
    {
      "bufferView": 257,
      "componentType": 5126,
      "count": 26,
      "type": "SCALAR",
      "min": [
        0.0
      ],
      "max": [
        2.5
      ]
    },
    {
      "bufferView": 258,
      "componentType": 5126,
      "count": 26,
      "type": "VEC4"
    },
    {
      "bufferView": 259,
      "componentType": 5126,
      "count": 26,
      "type": "SCALAR",
      "min": [
        0.0
      ],
      "max": [
        2.5
      ]
    },
    {
      "bufferView": 260,
      "componentType": 5126,
      "count": 26,
      "type": "VEC3"
    }
  ],
  "animations": [
    {
      "name": "idle",
      "channels": [
        {
          "sampler": 0,
          "target": {
            "node": 2,
            "path": "rotation"
          }
        },
        {
          "sampler": 1,
          "target": {
            "node": 2,
            "path": "translation"
          }
        },
        {
          "sampler": 2,
          "target": {
            "node": 3,
            "path": "rotation"
          }
        },
        {
          "sampler": 3,
          "target": {
            "node": 3,
            "path": "translation"
          }
        },
        {
          "sampler": 4,
          "target": {
            "node": 4,
            "path": "rotation"
          }
        },
        {
          "sampler": 5,
          "target": {
            "node": 4,
            "path": "translation"
          }
        },
        {
          "sampler": 6,
          "target": {
            "node": 5,
            "path": "rotation"
          }
        },
        {
          "sampler": 7,
          "target": {
            "node": 5,
            "path": "translation"
          }
        },
        {
          "sampler": 8,
          "target": {
            "node": 6,
            "path": "rotation"
          }
        },
        {
          "sampler": 9,
          "target": {
            "node": 6,
            "path": "translation"
          }
        },
        {
          "sampler": 10,
          "target": {
            "node": 7,
            "path": "rotation"
          }
        },
        {
          "sampler": 11,
          "target": {
            "node": 7,
            "path": "translation"
          }
        },
        {
          "sampler": 12,
          "target": {
            "node": 8,
            "path": "rotation"
          }
        },
        {
          "sampler": 13,
          "target": {
            "node": 8,
            "path": "translation"
          }
        },
        {
          "sampler": 14,
          "target": {
            "node": 9,
            "path": "rotation"
          }
        },
        {
          "sampler": 15,
          "target": {
            "node": 9,
            "path": "translation"
          }
        },
        {
          "sampler": 16,
          "target": {
            "node": 10,
            "path": "rotation"
          }
        },
        {
          "sampler": 17,
          "target": {
            "node": 10,
            "path": "translation"
          }
        },
        {
          "sampler": 18,
          "target": {
            "node": 11,
            "path": "rotation"
          }
        },
        {
          "sampler": 19,
          "target": {
            "node": 11,
            "path": "translation"
          }
        },
        {
          "sampler": 20,
          "target": {
            "node": 12,
            "path": "rotation"
          }
        },
        {
          "sampler": 21,
          "target": {
            "node": 12,
            "path": "translation"
          }
        },
        {
          "sampler": 22,
          "target": {
            "node": 13,
            "path": "rotation"
          }
        },
        {
          "sampler": 23,
          "target": {
            "node": 13,
            "path": "translation"
          }
        },
        {
          "sampler": 24,
          "target": {
            "node": 14,
            "path": "rotation"
          }
        },
        {
          "sampler": 25,
          "target": {
            "node": 14,
            "path": "translation"
          }
        },
        {
          "sampler": 26,
          "target": {
            "node": 15,
            "path": "rotation"
          }
        },
        {
          "sampler": 27,
          "target": {
            "node": 15,
            "path": "translation"
          }
        },
        {
          "sampler": 28,
          "target": {
            "node": 16,
            "path": "rotation"
          }
        },
        {
          "sampler": 29,
          "target": {
            "node": 16,
            "path": "translation"
          }
        }
      ],
      "samplers": [
        {
          "input": 21,
          "interpolation": "LINEAR",
          "output": 22
        },
        {
          "input": 23,
          "interpolation": "LINEAR",
          "output": 24
        },
        {
          "input": 25,
          "interpolation": "LINEAR",
          "output": 26
        },
        {
          "input": 27,
          "interpolation": "LINEAR",
          "output": 28
        },
        {
          "input": 29,
          "interpolation": "LINEAR",
          "output": 30
        },
        {
          "input": 31,
          "interpolation": "LINEAR",
          "output": 32
        },
        {
          "input": 33,
          "interpolation": "LINEAR",
          "output": 34
        },
        {
          "input": 35,
          "interpolation": "LINEAR",
          "output": 36
        },
        {
          "input": 37,
          "interpolation": "LINEAR",
          "output": 38
        },
        {
          "input": 39,
          "interpolation": "LINEAR",
          "output": 40
        },
        {
          "input": 41,
          "interpolation": "LINEAR",
          "output": 42
        },
        {
          "input": 43,
          "interpolation": "LINEAR",
          "output": 44
        },
        {
          "input": 45,
          "interpolation": "LINEAR",
          "output": 46
        },
        {
          "input": 47,
          "interpolation": "LINEAR",
          "output": 48
        },
        {
          "input": 49,
          "interpolation": "LINEAR",
          "output": 50
        },
        {
          "input": 51,
          "interpolation": "LINEAR",
          "output": 52
        },
        {
          "input": 53,
          "interpolation": "LINEAR",
          "output": 54
        },
        {
          "input": 55,
          "interpolation": "LINEAR",
          "output": 56
        },
        {
          "input": 57,
          "interpolation": "LINEAR",
          "output": 58
        },
        {
          "input": 59,
          "interpolation": "LINEAR",
          "output": 60
        },
        {
          "input": 61,
          "interpolation": "LINEAR",
          "output": 62
        },
        {
          "input": 63,
          "interpolation": "LINEAR",
          "output": 64
        },
        {
          "input": 65,
          "interpolation": "LINEAR",
          "output": 66
        },
        {
          "input": 67,
          "interpolation": "LINEAR",
          "output": 68
        },
        {
          "input": 69,
          "interpolation": "LINEAR",
          "output": 70
        },
        {
          "input": 71,
          "interpolation": "LINEAR",
          "output": 72
        },
        {
          "input": 73,
          "interpolation": "LINEAR",
          "output": 74
        },
        {
          "input": 75,
          "interpolation": "LINEAR",
          "output": 76
        },
        {
          "input": 77,
          "interpolation": "LINEAR",
          "output": 78
        },
        {
          "input": 79,
          "interpolation": "LINEAR",
          "output": 80
        }
      ]
    },
    {
      "name": "walk",
      "channels": [
        {
          "sampler": 0,
          "target": {
            "node": 2,
            "path": "rotation"
          }
        },
        {
          "sampler": 1,
          "target": {
            "node": 2,
            "path": "translation"
          }
        },
        {
          "sampler": 2,
          "target": {
            "node": 3,
            "path": "rotation"
          }
        },
        {
          "sampler": 3,
          "target": {
            "node": 3,
            "path": "translation"
          }
        },
        {
          "sampler": 4,
          "target": {
            "node": 4,
            "path": "rotation"
          }
        },
        {
          "sampler": 5,
          "target": {
            "node": 4,
            "path": "translation"
          }
        },
        {
          "sampler": 6,
          "target": {
            "node": 5,
            "path": "rotation"
          }
        },
        {
          "sampler": 7,
          "target": {
            "node": 5,
            "path": "translation"
          }
        },
        {
          "sampler": 8,
          "target": {
            "node": 6,
            "path": "rotation"
          }
        },
        {
          "sampler": 9,
          "target": {
            "node": 6,
            "path": "translation"
          }
        },
        {
          "sampler": 10,
          "target": {
            "node": 7,
            "path": "rotation"
          }
        },
        {
          "sampler": 11,
          "target": {
            "node": 7,
            "path": "translation"
          }
        },
        {
          "sampler": 12,
          "target": {
            "node": 8,
            "path": "rotation"
          }
        },
        {
          "sampler": 13,
          "target": {
            "node": 8,
            "path": "translation"
          }
        },
        {
          "sampler": 14,
          "target": {
            "node": 9,
            "path": "rotation"
          }
        },
        {
          "sampler": 15,
          "target": {
            "node": 9,
            "path": "translation"
          }
        },
        {
          "sampler": 16,
          "target": {
            "node": 10,
            "path": "rotation"
          }
        },
        {
          "sampler": 17,
          "target": {
            "node": 10,
            "path": "translation"
          }
        },
        {
          "sampler": 18,
          "target": {
            "node": 11,
            "path": "rotation"
          }
        },
        {
          "sampler": 19,
          "target": {
            "node": 11,
            "path": "translation"
          }
        },
        {
          "sampler": 20,
          "target": {
            "node": 12,
            "path": "rotation"
          }
        },
        {
          "sampler": 21,
          "target": {
            "node": 12,
            "path": "translation"
          }
        },
        {
          "sampler": 22,
          "target": {
            "node": 13,
            "path": "rotation"
          }
        },
        {
          "sampler": 23,
          "target": {
            "node": 13,
            "path": "translation"
          }
        },
        {
          "sampler": 24,
          "target": {
            "node": 14,
            "path": "rotation"
          }
        },
        {
          "sampler": 25,
          "target": {
            "node": 14,
            "path": "translation"
          }
        },
        {
          "sampler": 26,
          "target": {
            "node": 15,
            "path": "rotation"
          }
        },
        {
          "sampler": 27,
          "target": {
            "node": 15,
            "path": "translation"
          }
        },
        {
          "sampler": 28,
          "target": {
            "node": 16,
            "path": "rotation"
          }
        },
        {
          "sampler": 29,
          "target": {
            "node": 16,
            "path": "translation"
          }
        }
      ],
      "samplers": [
        {
          "input": 81,
          "interpolation": "LINEAR",
          "output": 82
        },
        {
          "input": 83,
          "interpolation": "LINEAR",
          "output": 84
        },
        {
          "input": 85,
          "interpolation": "LINEAR",
          "output": 86
        },
        {
          "input": 87,
          "interpolation": "LINEAR",
          "output": 88
        },
        {
          "input": 89,
          "interpolation": "LINEAR",
          "output": 90
        },
        {
          "input": 91,
          "interpolation": "LINEAR",
          "output": 92
        },
        {
          "input": 93,
          "interpolation": "LINEAR",
          "output": 94
        },
        {
          "input": 95,
          "interpolation": "LINEAR",
          "output": 96
        },
        {
          "input": 97,
          "interpolation": "LINEAR",
          "output": 98
        },
        {
          "input": 99,
          "interpolation": "LINEAR",
          "output": 100
        },
        {
          "input": 101,
          "interpolation": "LINEAR",
          "output": 102
        },
        {
          "input": 103,
          "interpolation": "LINEAR",
          "output": 104
        },
        {
          "input": 105,
          "interpolation": "LINEAR",
          "output": 106
        },
        {
          "input": 107,
          "interpolation": "LINEAR",
          "output": 108
        },
        {
          "input": 109,
          "interpolation": "LINEAR",
          "output": 110
        },
        {
          "input": 111,
          "interpolation": "LINEAR",
          "output": 112
        },
        {
          "input": 113,
          "interpolation": "LINEAR",
          "output": 114
        },
        {
          "input": 115,
          "interpolation": "LINEAR",
          "output": 116
        },
        {
          "input": 117,
          "interpolation": "LINEAR",
          "output": 118
        },
        {
          "input": 119,
          "interpolation": "LINEAR",
          "output": 120
        },
        {
          "input": 121,
          "interpolation": "LINEAR",
          "output": 122
        },
        {
          "input": 123,
          "interpolation": "LINEAR",
          "output": 124
        },
        {
          "input": 125,
          "interpolation": "LINEAR",
          "output": 126
        },
        {
          "input": 127,
          "interpolation": "LINEAR",
          "output": 128
        },
        {
          "input": 129,
          "interpolation": "LINEAR",
          "output": 130
        },
        {
          "input": 131,
          "interpolation": "LINEAR",
          "output": 132
        },
        {
          "input": 133,
          "interpolation": "LINEAR",
          "output": 134
        },
        {
          "input": 135,
          "interpolation": "LINEAR",
          "output": 136
        },
        {
          "input": 137,
          "interpolation": "LINEAR",
          "output": 138
        },
        {
          "input": 139,
          "interpolation": "LINEAR",
          "output": 140
        }
      ]
    },
    {
      "name": "run",
      "channels": [
        {
          "sampler": 0,
          "target": {
            "node": 2,
            "path": "rotation"
          }
        },
        {
          "sampler": 1,
          "target": {
            "node": 2,
            "path": "translation"
          }
        },
        {
          "sampler": 2,
          "target": {
            "node": 3,
            "path": "rotation"
          }
        },
        {
          "sampler": 3,
          "target": {
            "node": 3,
            "path": "translation"
          }
        },
        {
          "sampler": 4,
          "target": {
            "node": 4,
            "path": "rotation"
          }
        },
        {
          "sampler": 5,
          "target": {
            "node": 4,
            "path": "translation"
          }
        },
        {
          "sampler": 6,
          "target": {
            "node": 5,
            "path": "rotation"
          }
        },
        {
          "sampler": 7,
          "target": {
            "node": 5,
            "path": "translation"
          }
        },
        {
          "sampler": 8,
          "target": {
            "node": 6,
            "path": "rotation"
          }
        },
        {
          "sampler": 9,
          "target": {
            "node": 6,
            "path": "translation"
          }
        },
        {
          "sampler": 10,
          "target": {
            "node": 7,
            "path": "rotation"
          }
        },
        {
          "sampler": 11,
          "target": {
            "node": 7,
            "path": "translation"
          }
        },
        {
          "sampler": 12,
          "target": {
            "node": 8,
            "path": "rotation"
          }
        },
        {
          "sampler": 13,
          "target": {
            "node": 8,
            "path": "translation"
          }
        },
        {
          "sampler": 14,
          "target": {
            "node": 9,
            "path": "rotation"
          }
        },
        {
          "sampler": 15,
          "target": {
            "node": 9,
            "path": "translation"
          }
        },
        {
          "sampler": 16,
          "target": {
            "node": 10,
            "path": "rotation"
          }
        },
        {
          "sampler": 17,
          "target": {
            "node": 10,
            "path": "translation"
          }
        },
        {
          "sampler": 18,
          "target": {
            "node": 11,
            "path": "rotation"
          }
        },
        {
          "sampler": 19,
          "target": {
            "node": 11,
            "path": "translation"
          }
        },
        {
          "sampler": 20,
          "target": {
            "node": 12,
            "path": "rotation"
          }
        },
        {
          "sampler": 21,
          "target": {
            "node": 12,
            "path": "translation"
          }
        },
        {
          "sampler": 22,
          "target": {
            "node": 13,
            "path": "rotation"
          }
        },
        {
          "sampler": 23,
          "target": {
            "node": 13,
            "path": "translation"
          }
        },
        {
          "sampler": 24,
          "target": {
            "node": 14,
            "path": "rotation"
          }
        },
        {
          "sampler": 25,
          "target": {
            "node": 14,
            "path": "translation"
          }
        },
        {
          "sampler": 26,
          "target": {
            "node": 15,
            "path": "rotation"
          }
        },
        {
          "sampler": 27,
          "target": {
            "node": 15,
            "path": "translation"
          }
        },
        {
          "sampler": 28,
          "target": {
            "node": 16,
            "path": "rotation"
          }
        },
        {
          "sampler": 29,
          "target": {
            "node": 16,
            "path": "translation"
          }
        }
      ],
      "samplers": [
        {
          "input": 141,
          "interpolation": "LINEAR",
          "output": 142
        },
        {
          "input": 143,
          "interpolation": "LINEAR",
          "output": 144
        },
        {
          "input": 145,
          "interpolation": "LINEAR",
          "output": 146
        },
        {
          "input": 147,
          "interpolation": "LINEAR",
          "output": 148
        },
        {
          "input": 149,
          "interpolation": "LINEAR",
          "output": 150
        },
        {
          "input": 151,
          "interpolation": "LINEAR",
          "output": 152
        },
        {
          "input": 153,
          "interpolation": "LINEAR",
          "output": 154
        },
        {
          "input": 155,
          "interpolation": "LINEAR",
          "output": 156
        },
        {
          "input": 157,
          "interpolation": "LINEAR",
          "output": 158
        },
        {
          "input": 159,
          "interpolation": "LINEAR",
          "output": 160
        },
        {
          "input": 161,
          "interpolation": "LINEAR",
          "output": 162
        },
        {
          "input": 163,
          "interpolation": "LINEAR",
          "output": 164
        },
        {
          "input": 165,
          "interpolation": "LINEAR",
          "output": 166
        },
        {
          "input": 167,
          "interpolation": "LINEAR",
          "output": 168
        },
        {
          "input": 169,
          "interpolation": "LINEAR",
          "output": 170
        },
        {
          "input": 171,
          "interpolation": "LINEAR",
          "output": 172
        },
        {
          "input": 173,
          "interpolation": "LINEAR",
          "output": 174
        },
        {
          "input": 175,
          "interpolation": "LINEAR",
          "output": 176
        },
        {
          "input": 177,
          "interpolation": "LINEAR",
          "output": 178
        },
        {
          "input": 179,
          "interpolation": "LINEAR",
          "output": 180
        },
        {
          "input": 181,
          "interpolation": "LINEAR",
          "output": 182
        },
        {
          "input": 183,
          "interpolation": "LINEAR",
          "output": 184
        },
        {
          "input": 185,
          "interpolation": "LINEAR",
          "output": 186
        },
        {
          "input": 187,
          "interpolation": "LINEAR",
          "output": 188
        },
        {
          "input": 189,
          "interpolation": "LINEAR",
          "output": 190
        },
        {
          "input": 191,
          "interpolation": "LINEAR",
          "output": 192
        },
        {
          "input": 193,
          "interpolation": "LINEAR",
          "output": 194
        },
        {
          "input": 195,
          "interpolation": "LINEAR",
          "output": 196
        },
        {
          "input": 197,
          "interpolation": "LINEAR",
          "output": 198
        },
        {
          "input": 199,
          "interpolation": "LINEAR",
          "output": 200
        }
      ]
    },
    {
      "name": "punch",
      "channels": [
        {
          "sampler": 0,
          "target": {
            "node": 2,
            "path": "rotation"
          }
        },
        {
          "sampler": 1,
          "target": {
            "node": 2,
            "path": "translation"
          }
        },
        {
          "sampler": 2,
          "target": {
            "node": 3,
            "path": "rotation"
          }
        },
        {
          "sampler": 3,
          "target": {
            "node": 3,
            "path": "translation"
          }
        },
        {
          "sampler": 4,
          "target": {
            "node": 4,
            "path": "rotation"
          }
        },
        {
          "sampler": 5,
          "target": {
            "node": 4,
            "path": "translation"
          }
        },
        {
          "sampler": 6,
          "target": {
            "node": 5,
            "path": "rotation"
          }
        },
        {
          "sampler": 7,
          "target": {
            "node": 5,
            "path": "translation"
          }
        },
        {
          "sampler": 8,
          "target": {
            "node": 6,
            "path": "rotation"
          }
        },
        {
          "sampler": 9,
          "target": {
            "node": 6,
            "path": "translation"
          }
        },
        {
          "sampler": 10,
          "target": {
            "node": 7,
            "path": "rotation"
          }
        },
        {
          "sampler": 11,
          "target": {
            "node": 7,
            "path": "translation"
          }
        },
        {
          "sampler": 12,
          "target": {
            "node": 8,
            "path": "rotation"
          }
        },
        {
          "sampler": 13,
          "target": {
            "node": 8,
            "path": "translation"
          }
        },
        {
          "sampler": 14,
          "target": {
            "node": 9,
            "path": "rotation"
          }
        },
        {
          "sampler": 15,
          "target": {
            "node": 9,
            "path": "translation"
          }
        },
        {
          "sampler": 16,
          "target": {
            "node": 10,
            "path": "rotation"
          }
        },
        {
          "sampler": 17,
          "target": {
            "node": 10,
            "path": "translation"
          }
        },
        {
          "sampler": 18,
          "target": {
            "node": 11,
            "path": "rotation"
          }
        },
        {
          "sampler": 19,
          "target": {
            "node": 11,
            "path": "translation"
          }
        },
        {
          "sampler": 20,
          "target": {
            "node": 12,
            "path": "rotation"
          }
        },
        {
          "sampler": 21,
          "target": {
            "node": 12,
            "path": "translation"
          }
        },
        {
          "sampler": 22,
          "target": {
            "node": 13,
            "path": "rotation"
          }
        },
        {
          "sampler": 23,
          "target": {
            "node": 13,
            "path": "translation"
          }
        },
        {
          "sampler": 24,
          "target": {
            "node": 14,
            "path": "rotation"
          }
        },
        {
          "sampler": 25,
          "target": {
            "node": 14,
            "path": "translation"
          }
        },
        {
          "sampler": 26,
          "target": {
            "node": 15,
            "path": "rotation"
          }
        },
        {
          "sampler": 27,
          "target": {
            "node": 15,
            "path": "translation"
          }
        },
        {
          "sampler": 28,
          "target": {
            "node": 16,
            "path": "rotation"
          }
        },
        {
          "sampler": 29,
          "target": {
            "node": 16,
            "path": "translation"
          }
        }
      ],
      "samplers": [
        {
          "input": 201,
          "interpolation": "LINEAR",
          "output": 202
        },
        {
          "input": 203,
          "interpolation": "LINEAR",
          "output": 204
        },
        {
          "input": 205,
          "interpolation": "LINEAR",
          "output": 206
        },
        {
          "input": 207,
          "interpolation": "LINEAR",
          "output": 208
        },
        {
          "input": 209,
          "interpolation": "LINEAR",
          "output": 210
        },
        {
          "input": 211,
          "interpolation": "LINEAR",
          "output": 212
        },
        {
          "input": 213,
          "interpolation": "LINEAR",
          "output": 214
        },
        {
          "input": 215,
          "interpolation": "LINEAR",
          "output": 216
        },
        {
          "input": 217,
          "interpolation": "LINEAR",
          "output": 218
        },
        {
          "input": 219,
          "interpolation": "LINEAR",
          "output": 220
        },
        {
          "input": 221,
          "interpolation": "LINEAR",
          "output": 222
        },
        {
          "input": 223,
          "interpolation": "LINEAR",
          "output": 224
        },
        {
          "input": 225,
          "interpolation": "LINEAR",
          "output": 226
        },
        {
          "input": 227,
          "interpolation": "LINEAR",
          "output": 228
        },
        {
          "input": 229,
          "interpolation": "LINEAR",
          "output": 230
        },
        {
          "input": 231,
          "interpolation": "LINEAR",
          "output": 232
        },
        {
          "input": 233,
          "interpolation": "LINEAR",
          "output": 234
        },
        {
          "input": 235,
          "interpolation": "LINEAR",
          "output": 236
        },
        {
          "input": 237,
          "interpolation": "LINEAR",
          "output": 238
        },
        {
          "input": 239,
          "interpolation": "LINEAR",
          "output": 240
        },
        {
          "input": 241,
          "interpolation": "LINEAR",
          "output": 242
        },
        {
          "input": 243,
          "interpolation": "LINEAR",
          "output": 244
        },
        {
          "input": 245,
          "interpolation": "LINEAR",
          "output": 246
        },
        {
          "input": 247,
          "interpolation": "LINEAR",
          "output": 248
        },
        {
          "input": 249,
          "interpolation": "LINEAR",
          "output": 250
        },
        {
          "input": 251,
          "interpolation": "LINEAR",
          "output": 252
        },
        {
          "input": 253,
          "interpolation": "LINEAR",
          "output": 254
        },
        {
          "input": 255,
          "interpolation": "LINEAR",
          "output": 256
        },
        {
          "input": 257,
          "interpolation": "LINEAR",
          "output": 258
        },
        {
          "input": 259,
          "interpolation": "LINEAR",
          "output": 260
        }
      ]
    }
  ]
}