{
  "asset": {
    "version": "2.0",
    "generator": "b3d_export_gltf.py"
  },
  "scene": 0,
  "scenes": [
    {
      "nodes": [
        0
      ]
    }
  ],
  "nodes": [
    {
      "name": "armature",
      "children": [
        10
      ]
    },
    {
      "name": "Cube.004",
      "translation": [
        0.0,
        0.0,
        0.0
      ],
      "rotation": [
        0.0,
        0.0,
        0.0,
        1.0
      ],
      "scale": [
        1.0,
        1.0,
        1.0
      ],
      "children": [
        2,
        4,
        6,
        8,
        9
      ]
    },
    {
      "name": "Bone",
      "translation": [
        0.01304265707731247,
        -0.0651953548192978,
        -0.01970280408859253
      ],
      "rotation": [
        -1.7939135672814745e-09,
        0.9990937676596678,
        -0.04256340474642625,
        -4.2108641766702935e-08
      ],
      "scale": [
        1.7127023935317993,
        1.7127025127410889,
        1.7127025127410889
      ],
      "children": [
        3
      ]
    },
    {
      "name": "Bone.001",
      "translation": [
        4.662936703425658e-16,
        0.7735763669013976,
        2.6077032089233397e-09
      ],
      "rotation": [
        -0.2787385576569109,
        2.1551910784615492e-07,
        8.604852277749315e-08,
        0.9603670217553761
      ],
      "scale": [
        1.0,
        0.9999998807907104,
        0.9999999403953552
      ]
    },
    {
      "name": "Bone.004",
      "translation": [
        0.96783047914505,
        0.6720457136631012,
        -0.16851634234189986
      ],
      "rotation": [
        0.707106900395829,
        0.0,
        0.7071066619772459,
        0.0
      ],
      "scale": [
        1.7127023935317993,
        1.7127025127410889,
        1.7127023935317993
      ],
      "children": [
        5
      ]
    },
    {
      "name": "Bone.005",
      "translation": [
        -5.261085789243225e-10,
        0.5314392328262328,
        -6.851624689829805e-09
      ],
      "rotation": [
        -0.4898259886572583,
        0.5099697059741303,
        -0.5099710768809458,
        0.48982741916871797
      ],
      "scale": [
        0.9999998807907104,
        0.9999997615814209,
        1.0
      ]
    },
    {
      "name": "Bone.006",
      "translation": [
        -0.9909807920455932,
        0.6720457136631012,
        -0.16851634234189986
      ],
      "rotation": [
        0.707106900395829,
        0.0,
        0.7071066619772459,
        0.0
      ],
      "scale": [
        1.7127023935317993,
        1.7127025127410889,
        1.7127023935317993
      ],
      "children": [
        7
      ]
    },
    {
      "name": "Bone.007",
      "translation": [
        -5.805418368254323e-10,
        0.5314392328262328,
        -6.851624689829805e-09
      ],
      "rotation": [
        -0.5038258414148035,
        0.49614375640683805,
        -0.4961445908718617,
        0.5038267950891163
      ],
      "scale": [
        0.9999997615814209,
        0.9999997615814209,
        1.0
      ]
    },
    {
      "name": "Bone.003",
      "translation": [
        0.269417005777359,
        -0.45125340223312377,
        -0.04190902151167392
      ],
      "rotation": [
        -3.348341685795699e-08,
        -4.181155413144011e-09,
        0.9999999979083389,
        -6.467859916597426e-05
      ],
      "scale": [
        1.7127023935317993,
        1.7127023935317993,
        1.7127023935317993
      ]
    },
    {
      "name": "Bone.002",
      "translation": [
        -0.2586393475532532,
        -0.43674914836883544,
        -0.04705640599131584
      ],
      "rotation": [
        -3.347616577156537e-08,
        2.575326613409127e-08,
        0.9999999979744052,
        -6.364894203056183e-05
      ],
      "scale": [
        1.7127023935317993,
        1.7127022743225098,
        1.7127022743225098
      ]
    },
    {
      "name": "ogre",
      "mesh": 0,
      "skin": 0
    }
  ],
  "meshes": [
    {
      "name": "ogre",
      "primitives": [
        {
          "attributes": {
            "POSITION": 0,
            "TEXCOORD_0": 1,
            "JOINTS_0": 2,
            "WEIGHTS_0": 3
          },
          "indices": 4,
          "material": 0
        },
        {
          "attributes": {
            "POSITION": 5,
            "TEXCOORD_0": 6,
            "JOINTS_0": 7,
            "WEIGHTS_0": 8
          },
          "indices": 9,
          "material": 1
        },
        {
          "attributes": {
            "POSITION": 10,
            "TEXCOORD_0": 11,
            "JOINTS_0": 12,
            "WEIGHTS_0": 13
          },
          "indices": 14,
          "material": 2
        },
        {
          "attributes": {
            "POSITION": 15,
            "TEXCOORD_0": 16,
            "JOINTS_0": 17,
            "WEIGHTS_0": 18
          },
          "indices": 19,
          "material": 3
        }
      ]
    }
  ],
  "skins": [
    {
      "inverseBindMatrices": 20,
      "joints": [
        1,
        2,
        3,
        4,
        5,
        6,
        7,
        8,
        9
      ],
      "skeleton": 1
    }
  ],
  "materials": [
    {
      "name": "arm",
      "pbrMetallicRoughness": {
        "baseColorTexture": {
          "index": 0
        },
        "metallicFactor": 0.0,
        "roughnessFactor": 1.0
      },
      "doubleSided": true
    },
    {
      "name": "body",
      "pbrMetallicRoughness": {
        "baseColorTexture": {
          "index": 1
        },
        "metallicFactor": 0.0,
        "roughnessFactor": 1.0
      },
      "doubleSided": true
    },
    {
      "name": "face",
      "pbrMetallicRoughness": {
        "baseColorTexture": {
          "index": 2
        },
        "metallicFactor": 0.0,
        "roughnessFactor": 1.0
      },
      "doubleSided": true
    },
    {
      "name": "leg",
      "pbrMetallicRoughness": {
        "baseColorTexture": {
          "index": 3
        },
        "metallicFactor": 0.0,
        "roughnessFactor": 1.0
      },
      "doubleSided": true
    }
  ],
  "textures": [
    {
      "source": 0
    },
    {
      "source": 1
    },
    {
      "source": 2
    },
    {
      "source": 3
    }
  ],
  "images": [
    {
      "uri": "textures/arm.png"
    },
    {
      "uri": "textures/body.png"
    },
    {
      "uri": "textures/face.png"
    },
    {
      "uri": "textures/leg.png"
    }
  ],
  "buffers": [
    {
      "byteLength": 54648,
      "uri": "model.bin"
    }
  ],
  "bufferViews": [
    {
      "buffer": 0,
      "byteOffset": 0,
      "byteLength": 384,
      "target": 34962
    },
    {
      "buffer": 0,
      "byteOffset": 384,
      "byteLength": 256,
      "target": 34962
    },
    {
      "buffer": 0,
      "byteOffset": 640,
      "byteLength": 128,
      "target": 34962
    },
    {
      "buffer": 0,
      "byteOffset": 768,
      "byteLength": 512,
      "target": 34962
    },
    {
      "buffer": 0,
      "byteOffset": 1280,
      "byteLength": 96,
      "target": 34963
    },
    {
      "buffer": 0,
      "byteOffset": 1376,
      "byteLength": 2640,
      "target": 34962
    },
    {
      "buffer": 0,
      "byteOffset": 4016,
      "byteLength": 1760,
      "target": 34962
    },
    {
      "buffer": 0,
      "byteOffset": 5776,
      "byteLength": 880,
      "target": 34962
    },
    {
      "buffer": 0,
      "byteOffset": 6656,
      "byteLength": 3520,
      "target": 34962
    },
    {
      "buffer": 0,
      "byteOffset": 10176,
      "byteLength": 660,
      "target": 34963
    },
    {
      "buffer": 0,
      "byteOffset": 10836,
      "byteLength": 1200,
      "target": 34962
    },
    {
      "buffer": 0,
      "byteOffset": 12036,
      "byteLength": 800,
      "target": 34962
    },
    {
      "buffer": 0,
      "byteOffset": 12836,
      "byteLength": 400,
      "target": 34962
    },
    {
      "buffer": 0,
      "byteOffset": 13236,
      "byteLength": 1600,
      "target": 34962
    },
    {
      "buffer": 0,
      "byteOffset": 14836,
      "byteLength": 300,
      "target": 34963
    },
    {
      "buffer": 0,
      "byteOffset": 15136,
      "byteLength": 96,
      "target": 34962
    },
    {
      "buffer": 0,
      "byteOffset": 15232,
      "byteLength": 64,
      "target": 34962
    },
    {
      "buffer": 0,
      "byteOffset": 15296,
      "byteLength": 32,
      "target": 34962
    },
    {
      "buffer": 0,
      "byteOffset": 15328,
      "byteLength": 128,
      "target": 34962
    },
    {
      "buffer": 0,
      "byteOffset": 15456,
      "byteLength": 24,
      "target": 34963
    },
    {
      "buffer": 0,
      "byteOffset": 15480,
      "byteLength": 576
    },
    {
      "buffer": 0,
      "byteOffset": 16056,
      "byteLength": 124
    },
    {
      "buffer": 0,
      "byteOffset": 16180,
      "byteLength": 496
    },
    {
      "buffer": 0,
      "byteOffset": 16676,
      "byteLength": 124
    },
    {
      "buffer": 0,
      "byteOffset": 16800,
      "byteLength": 372
    },
    {
      "buffer": 0,
      "byteOffset": 17172,
      "byteLength": 124
    },
    {
      "buffer": 0,
      "byteOffset": 17296,
      "byteLength": 496
    },
    {
      "buffer": 0,
      "byteOffset": 17792,
      "byteLength": 124
    },
    {
      "buffer": 0,
      "byteOffset": 17916,
      "byteLength": 372
    },
    {
      "buffer": 0,
      "byteOffset": 18288,
      "byteLength": 124
    },
    {
      "buffer": 0,
      "byteOffset": 18412,
      "byteLength": 496
    },
    {
      "buffer": 0,
      "byteOffset": 18908,
      "byteLength": 124
    },
    {
      "buffer": 0,
      "byteOffset": 19032,
      "byteLength": 372
    },
    {
      "buffer": 0,
      "byteOffset": 19404,
      "byteLength": 124
    },
    {
      "buffer": 0,
      "byteOffset": 19528,
      "byteLength": 496
    },
    {
      "buffer": 0,
      "byteOffset": 20024,
      "byteLength": 124
    },
    {
      "buffer": 0,
      "byteOffset": 20148,
      "byteLength": 372
    },
    {
      "buffer": 0,
      "byteOffset": 20520,
      "byteLength": 124
    },
    {
      "buffer": 0,
      "byteOffset": 20644,
      "byteLength": 496
    },
    {
      "buffer": 0,
      "byteOffset": 21140,
      "byteLength": 124
    },
    {
      "buffer": 0,
      "byteOffset": 21264,
      "byteLength": 372
    },
    {
      "buffer": 0,
      "byteOffset": 21636,
      "byteLength": 124
    },
    {
      "buffer": 0,
      "byteOffset": 21760,
      "byteLength": 496
    },
    {
      "buffer": 0,
      "byteOffset": 22256,
      "byteLength": 124
    },
    {
      "buffer": 0,
      "byteOffset": 22380,
      "byteLength": 372
    },
    {
      "buffer": 0,
      "byteOffset": 22752,
      "byteLength": 124
    },
    {
      "buffer": 0,
      "byteOffset": 22876,
      "byteLength": 496
    },
    {
      "buffer": 0,
      "byteOffset": 23372,
      "byteLength": 124
    },
    {
      "buffer": 0,
      "byteOffset": 23496,
      "byteLength": 372
    },
    {
      "buffer": 0,
      "byteOffset": 23868,
      "byteLength": 124
    },
    {
      "buffer": 0,
      "byteOffset": 23992,
      "byteLength": 496
    },
    {
      "buffer": 0,
      "byteOffset": 24488,
      "byteLength": 124
    },
    {
      "buffer": 0,
      "byteOffset": 24612,
      "byteLength": 372
    },
    {
      "buffer": 0,
      "byteOffset": 24984,
      "byteLength": 144
    },
    {
      "buffer": 0,
      "byteOffset": 25128,
      "byteLength": 576
    },
    {
      "buffer": 0,
      "byteOffset": 25704,
      "byteLength": 144
    },
    {
      "buffer": 0,
      "byteOffset": 25848,
      "byteLength": 432
    },
    {
      "buffer": 0,
      "byteOffset": 26280,
      "byteLength": 144
    },
    {
      "buffer": 0,
      "byteOffset": 26424,
      "byteLength": 576
    },
    {
      "buffer": 0,
      "byteOffset": 27000,
      "byteLength": 144
    },
    {
      "buffer": 0,
      "byteOffset": 27144,
      "byteLength": 432
    },
    {
      "buffer": 0,
      "byteOffset": 27576,
      "byteLength": 144
    },
    {
      "buffer": 0,
      "byteOffset": 27720,
      "byteLength": 576
    },
    {
      "buffer": 0,
      "byteOffset": 28296,
      "byteLength": 144
    },
    {
      "buffer": 0,
      "byteOffset": 28440,
      "byteLength": 432
    },
    {
      "buffer": 0,
      "byteOffset": 28872,
      "byteLength": 144
    },
    {
      "buffer": 0,
      "byteOffset": 29016,
      "byteLength": 576
    },
    {
      "buffer": 0,
      "byteOffset": 29592,
      "byteLength": 144
    },
    {
      "buffer": 0,
      "byteOffset": 29736,
      "byteLength": 432
    },
    {
      "buffer": 0,
      "byteOffset": 30168,
      "byteLength": 144
    },
    {
      "buffer": 0,
      "byteOffset": 30312,
      "byteLength": 576
    },
    {
      "buffer": 0,
      "byteOffset": 30888,
      "byteLength": 144
    },
    {
      "buffer": 0,
      "byteOffset": 31032,
      "byteLength": 432
    },
    {
      "buffer": 0,
      "byteOffset": 31464,
      "byteLength": 144
    },
    {
      "buffer": 0,
      "byteOffset": 31608,
      "byteLength": 576
    },
    {
      "buffer": 0,
      "byteOffset": 32184,
      "byteLength": 144
    },
    {
      "buffer": 0,
      "byteOffset": 32328,
      "byteLength": 432
    },
    {
      "buffer": 0,
      "byteOffset": 32760,
      "byteLength": 144
    },
    {
      "buffer": 0,
      "byteOffset": 32904,
      "byteLength": 576
    },
    {
      "buffer": 0,
      "byteOffset": 33480,
      "byteLength": 144
    },
    {
      "buffer": 0,
      "byteOffset": 33624,
      "byteLength": 432
    },
    {
      "buffer": 0,
      "byteOffset": 34056,
      "byteLength": 144
    },
    {
      "buffer": 0,
      "byteOffset": 34200,
      "byteLength": 576
    },
    {
      "buffer": 0,
      "byteOffset": 34776,
      "byteLength": 144
    },
    {
      "buffer": 0,
      "byteOffset": 34920,
      "byteLength": 432
    },
    {
      "buffer": 0,
      "byteOffset": 35352,
      "byteLength": 144
    },
    {
      "buffer": 0,
      "byteOffset": 35496,
      "byteLength": 576
    },
    {
      "buffer": 0,
      "byteOffset": 36072,
      "byteLength": 144
    },
    {
      "buffer": 0,
      "byteOffset": 36216,
      "byteLength": 432
    },
    {
      "buffer": 0,
      "byteOffset": 36648,
      "byteLength": 144
    },
    {
      "buffer": 0,
      "byteOffset": 36792,
      "byteLength": 576
    },
    {
      "buffer": 0,
      "byteOffset": 37368,
      "byteLength": 144
    },
    {
      "buffer": 0,
      "byteOffset": 37512,
      "byteLength": 432
    },
    {
      "buffer": 0,
      "byteOffset": 37944,
      "byteLength": 144
    },
    {
      "buffer": 0,
      "byteOffset": 38088,
      "byteLength": 576
    },
    {
      "buffer": 0,
      "byteOffset": 38664,
      "byteLength": 144
    },
    {
      "buffer": 0,
      "byteOffset": 38808,
      "byteLength": 432
    },
    {
      "buffer": 0,
      "byteOffset": 39240,
      "byteLength": 144
    },
    {
      "buffer": 0,
      "byteOffset": 39384,
      "byteLength": 576
    },
    {
      "buffer": 0,
      "byteOffset": 39960,
      "byteLength": 144
    },
    {
      "buffer": 0,
      "byteOffset": 40104,
      "byteLength": 432
    },
    {
      "buffer": 0,
      "byteOffset": 40536,
      "byteLength": 144
    },
    {
      "buffer": 0,
      "byteOffset": 40680,
      "byteLength": 576
    },
    {
      "buffer": 0,
      "byteOffset": 41256,
      "byteLength": 144
    },
    {
      "buffer": 0,
      "byteOffset": 41400,
      "byteLength": 432
    },
    {
      "buffer": 0,
      "byteOffset": 41832,
      "byteLength": 144
    },
    {
      "buffer": 0,
      "byteOffset": 41976,
      "byteLength": 576
    },
    {
      "buffer": 0,
      "byteOffset": 42552,
      "byteLength": 144
    },
    {
      "buffer": 0,
      "byteOffset": 42696,
      "byteLength": 432
    },
    {
      "buffer": 0,
      "byteOffset": 43128,
      "byteLength": 144
    },
    {
      "buffer": 0,
      "byteOffset": 43272,
      "byteLength": 576
    },
    {
      "buffer": 0,
      "byteOffset": 43848,
      "byteLength": 144
    },
    {
      "buffer": 0,
      "byteOffset": 43992,
      "byteLength": 432
    },
    {
      "buffer": 0,
      "byteOffset": 44424,
      "byteLength": 144
    },
    {
      "buffer": 0,
      "byteOffset": 44568,
      "byteLength": 576
    },
    {
      "buffer": 0,
      "byteOffset": 45144,
      "byteLength": 144
    },
    {
      "buffer": 0,
      "byteOffset": 45288,
      "byteLength": 432
    },
    {
      "buffer": 0,
      "byteOffset": 45720,
      "byteLength": 124
    },
    {
      "buffer": 0,
      "byteOffset": 45844,
      "byteLength": 496
    },
    {
      "buffer": 0,
      "byteOffset": 46340,
      "byteLength": 124
    },
    {
      "buffer": 0,
      "byteOffset": 46464,
      "byteLength": 372
    },
    {
      "buffer": 0,
      "byteOffset": 46836,
      "byteLength": 124
    },
    {
      "buffer": 0,
      "byteOffset": 46960,
      "byteLength": 496
    },
    {
      "buffer": 0,
      "byteOffset": 47456,
      "byteLength": 124
    },
    {
      "buffer": 0,
      "byteOffset": 47580,
      "byteLength": 372
    },
    {
      "buffer": 0,
      "byteOffset": 47952,
      "byteLength": 124
    },
    {
      "buffer": 0,
      "byteOffset": 48076,
      "byteLength": 496
    },
    {
      "buffer": 0,
      "byteOffset": 48572,
      "byteLength": 124
    },
    {
      "buffer": 0,
      "byteOffset": 48696,
      "byteLength": 372
    },
    {
      "buffer": 0,
      "byteOffset": 49068,
      "byteLength": 124
    },
    {
      "buffer": 0,
      "byteOffset": 49192,
      "byteLength": 496
    },
    {
      "buffer": 0,
      "byteOffset": 49688,
      "byteLength": 124
    },
    {
      "buffer": 0,
      "byteOffset": 49812,
      "byteLength": 372
    },
    {
      "buffer": 0,
      "byteOffset": 50184,
      "byteLength": 124
    },
    {
      "buffer": 0,
      "byteOffset": 50308,
      "byteLength": 496
    },
    {
      "buffer": 0,
      "byteOffset": 50804,
      "byteLength": 124
    },
    {
      "buffer": 0,
      "byteOffset": 50928,
      "byteLength": 372
    },
    {
      "buffer": 0,
      "byteOffset": 51300,
      "byteLength": 124
    },
    {
      "buffer": 0,
      "byteOffset": 51424,
      "byteLength": 496
    },
    {
      "buffer": 0,
      "byteOffset": 51920,
      "byteLength": 124
    },
    {
      "buffer": 0,
      "byteOffset": 52044,
      "byteLength": 372
    },
    {
      "buffer": 0,
      "byteOffset": 52416,
      "byteLength": 124
    },
    {
      "buffer": 0,
      "byteOffset": 52540,
      "byteLength": 496
    },
    {
      "buffer": 0,
      "byteOffset": 53036,
      "byteLength": 124
    },
    {
      "buffer": 0,
      "byteOffset": 53160,
      "byteLength": 372
    },
    {
      "buffer": 0,
      "byteOffset": 53532,
      "byteLength": 124
    },
    {
      "buffer": 0,
      "byteOffset": 53656,
      "byteLength": 496
    },
    {
      "buffer": 0,
      "byteOffset": 54152,
      "byteLength": 124
    },
    {
      "buffer": 0,
      "byteOffset": 54276,
      "byteLength": 372
    }
  ],
  "accessors": [
    {
      "bufferView": 0,
      "componentType": 5126,
      "count": 32,
      "type": "VEC3",
      "min": [
        -1.1859939336776733,
        0.9081564664840698,
        -0.7239265322685241
      ],
      "max": [
        1.1707187175750733,
        3.139771795272827,
        0.5596973061561584
      ]
    },
    {
      "bufferView": 1,
      "componentType": 5126,
      "count": 32,
      "type": "VEC2"
    },
    {
      "bufferView": 2,
      "componentType": 5121,
      "count": 32,
      "type": "VEC4"
    },
    {
      "bufferView": 3,
      "componentType": 5126,
      "count": 32,
      "type": "VEC4"
    },
    {
      "bufferView": 4,
      "componentType": 5123,
      "count": 48,
      "type": "SCALAR"
    },
    {
      "bufferView": 5,
      "componentType": 5126,
      "count": 220,
      "type": "VEC3",
      "min": [
        -1.3367800116539001,
        0.0,
        -2.3018794536590574
      ],
      "max": [
        1.2453144669532776,
        3.139771795272827,
        0.5596973061561584
      ]
    },
    {
      "bufferView": 6,
      "componentType": 5126,
      "count": 220,
      "type": "VEC2"
    },
    {
      "bufferView": 7,
      "componentType": 5121,
      "count": 220,
      "type": "VEC4"
    },
    {
      "bufferView": 8,
      "componentType": 5126,
      "count": 220,
      "type": "VEC4"
    },
    {
      "bufferView": 9,
      "componentType": 5123,
      "count": 330,
      "type": "SCALAR"
    },
    {
      "bufferView": 10,
      "componentType": 5126,
      "count": 100,
      "type": "VEC3",
      "min": [
        -1.3367800116539001,
        0.0,
        -1.703054666519165
      ],
      "max": [
        1.2453144669532776,
        3.139771795272827,
        0.3529752016067505
      ]
    },
    {
      "bufferView": 11,
      "componentType": 5126,
      "count": 100,
      "type": "VEC2"
    },
    {
      "bufferView": 12,
      "componentType": 5121,
      "count": 100,
      "type": "VEC4"
    },
    {
      "bufferView": 13,
      "componentType": 5126,
      "count": 100,
      "type": "VEC4"
    },
    {
      "bufferView": 14,
      "componentType": 5123,
      "count": 150,
      "type": "SCALAR"
    },
    {
      "bufferView": 15,
      "componentType": 5126,
      "count": 8,
      "type": "VEC3",
      "min": [
        -1.3367800116539001,
        0.7573703050613403,
        -1.703054666519165
      ],
      "max": [
        -0.6564295351505279,
        1.437720990180969,
        -1.5325475931167603
      ]
    },
    {
      "bufferView": 16,
      "componentType": 5126,
      "count": 8,
      "type": "VEC2"
    },
    {
      "bufferView": 17,
      "componentType": 5121,
      "count": 8,
      "type": "VEC4"
    },
    {
      "bufferView": 18,
      "componentType": 5126,
      "count": 8,
      "type": "VEC4"
    },
    {
      "bufferView": 19,
      "componentType": 5123,
      "count": 12,
      "type": "SCALAR"
    },
    {
      "bufferView": 20,
      "componentType": 5126,
      "count": 9,
      "type": "MAT4"
    },
    {
      "bufferView": 21,
      "componentType": 5126,
      "count": 31,
      "type": "SCALAR",
      "min": [
        0.0
      ],
      "max": [
        3.0
      ]
    },
    {
      "bufferView": 22,
      "componentType": 5126,
      "count": 31,
      "type": "VEC4"
    },
    {
      "bufferView": 23,
      "componentType": 5126,
      "count": 31,
      "type": "SCALAR",
      "min": [
        0.0
      ],
      "max": [
        3.0
      ]
    },
    {
      "bufferView": 24,
      "componentType": 5126,
      "count": 31,
      "type": "VEC3"
    },
    {
      "bufferView": 25,
      "componentType": 5126,
      "count": 31,
      "type": "SCALAR",
      "min": [
        0.0
      ],
      "max": [
        3.0
      ]
    },
    {
      "bufferView": 26,
      "componentType": 5126,
      "count": 31,
      "type": "VEC4"
    },
    {
      "bufferView": 27,
      "componentType": 5126,
      "count": 31,
      "type": "SCALAR",
      "min": [
        0.0
      ],
      "max": [
        3.0
      ]
    },
    {
      "bufferView": 28,
      "componentType": 5126,
      "count": 31,
      "type": "VEC3"
    },
    {
      "bufferView": 29,
      "componentType": 5126,
      "count": 31,
      "type": "SCALAR",
      "min": [
        0.0
      ],
      "max": [
        3.0
      ]
    },
    {
      "bufferView": 30,
      "componentType": 5126,
      "count": 31,
      "type": "VEC4"
    },
    {
      "bufferView": 31,
      "componentType": 5126,
      "count": 31,
      "type": "SCALAR",
      "min": [
        0.0
      ],
      "max": [
        3.0
      ]
    },
    {
      "bufferView": 32,
      "componentType": 5126,
      "count": 31,
      "type": "VEC3"
    },
    {
      "bufferView": 33,
      "componentType": 5126,
      "count": 31,
      "type": "SCALAR",
      "min": [
        0.0
      ],
      "max": [
        3.0
      ]
    },
    {
      "bufferView": 34,
      "componentType": 5126,
      "count": 31,
      "type": "VEC4"
    },
    {
      "bufferView": 35,
      "componentType": 5126,
      "count": 31,
      "type": "SCALAR",
      "min": [
        0.0
      ],
      "max": [
        3.0
      ]
    },
    {
      "bufferView": 36,
      "componentType": 5126,
      "count": 31,
      "type": "VEC3"
    },
    {
      "bufferView": 37,
      "componentType": 5126,
      "count": 31,
      "type": "SCALAR",
      "min": [
        0.0
      ],
      "max": [
        3.0
      ]
    },
    {
      "bufferView": 38,
      "componentType": 5126,
      "count": 31,
      "type": "VEC4"
    },
    {
      "bufferView": 39,
      "componentType": 5126,
      "count": 31,
      "type": "SCALAR",
      "min": [
        0.0
      ],
      "max": [
        3.0
      ]
    },
    {
      "bufferView": 40,
      "componentType": 5126,
      "count": 31,
      "type": "VEC3"
    },
    {
      "bufferView": 41,
      "componentType": 5126,
      "count": 31,
      "type": "SCALAR",
      "min": [
        0.0
      ],
      "max": [
        3.0
      ]
    },
    {
      "bufferView": 42,
      "componentType": 5126,
      "count": 31,
      "type": "VEC4"
    },
    {
      "bufferView": 43,
      "componentType": 5126,
      "count": 31,
      "type": "SCALAR",
      "min": [
        0.0
      ],
      "max": [
        3.0
      ]
    },
    {
      "bufferView": 44,
      "componentType": 5126,
      "count": 31,
      "type": "VEC3"
    },
    {
      "bufferView": 45,
      "componentType": 5126,
      "count": 31,
      "type": "SCALAR",
      "min": [
        0.0
      ],
      "max": [
        3.0
      ]
    },
    {
      "bufferView": 46,
      "componentType": 5126,
      "count": 31,
      "type": "VEC4"
    },
    {
      "bufferView": 47,
      "componentType": 5126,
      "count": 31,
      "type": "SCALAR",
      "min": [
        0.0
      ],
      "max": [
        3.0
      ]
    },
    {
      "bufferView": 48,
      "componentType": 5126,
      "count": 31,
      "type": "VEC3"
    },
    {
      "bufferView": 49,
      "componentType": 5126,
      "count": 31,
      "type": "SCALAR",
      "min": [
        0.0
      ],
      "max": [
        3.0
      ]
    },
    {
      "bufferView": 50,
      "componentType": 5126,
      "count": 31,
      "type": "VEC4"
    },
    {
      "bufferView": 51,
      "componentType": 5126,
      "count": 31,
      "type": "SCALAR",
      "min": [
        0.0
      ],
      "max": [
        3.0
      ]
    },
    {
      "bufferView": 52,
      "componentType": 5126,
      "count": 31,
      "type": "VEC3"
    },
    {
      "bufferView": 53,
      "componentType": 5126,
      "count": 36,
      "type": "SCALAR",
      "min": [
        0.0
      ],
      "max": [
        3.5
      ]
    },
    {
      "bufferView": 54,
      "componentType": 5126,
      "count": 36,
      "type": "VEC4"
    },
    {
      "bufferView": 55,
      "componentType": 5126,
      "count": 36,
      "type": "SCALAR",
      "min": [
        0.0
      ],
      "max": [
        3.5
      ]
    },
    {
      "bufferView": 56,
      "componentType": 5126,
      "count": 36,
      "type": "VEC3"
    },
    {
      "bufferView": 57,
      "componentType": 5126,
      "count": 36,
      "type": "SCALAR",
      "min": [
        0.0
      ],
      "max": [
        3.5
      ]
    },
    {
      "bufferView": 58,
      "componentType": 5126,
      "count": 36,
      "type": "VEC4"
    },
    {
      "bufferView": 59,
      "componentType": 5126,
      "count": 36,
      "type": "SCALAR",
      "min": [
        0.0
      ],
      "max": [
        3.5
      ]
    },
    {
      "bufferView": 60,
      "componentType": 5126,
      "count": 36,
      "type": "VEC3"
    },
    {
      "bufferView": 61,
      "componentType": 5126,
      "count": 36,
      "type": "SCALAR",
      "min": [
        0.0
      ],
      "max": [
        3.5
      ]
    },
    {
      "bufferView": 62,
      "componentType": 5126,
      "count": 36,
      "type": "VEC4"
    },
    {
      "bufferView": 63,
      "componentType": 5126,
      "count": 36,
      "type": "SCALAR",
      "min": [
        0.0
      ],
      "max": [
        3.5
      ]
    },
    {
      "bufferView": 64,
      "componentType": 5126,
      "count": 36,
      "type": "VEC3"
    },
    {
      "bufferView": 65,
      "componentType": 5126,
      "count": 36,
      "type": "SCALAR",
      "min": [
        0.0
      ],
      "max": [
        3.5
      ]
    },
    {
      "bufferView": 66,
      "componentType": 5126,
      "count": 36,
      "type": "VEC4"
    },
    {
      "bufferView": 67,
      "componentType": 5126,
      "count": 36,
      "type": "SCALAR",
      "min": [
        0.0
      ],
      "max": [
        3.5
      ]
    },
    {
      "bufferView": 68,
      "componentType": 5126,
      "count": 36,
      "type": "VEC3"
    },
    {
      "bufferView": 69,
      "componentType": 5126,
      "count": 36,
      "type": "SCALAR",
      "min": [
        0.0
      ],
      "max": [
        3.5
      ]
    },
    {
      "bufferView": 70,
      "componentType": 5126,
      "count": 36,
      "type": "VEC4"
    },
    {
      "bufferView": 71,
      "componentType": 5126,
      "count": 36,
      "type": "SCALAR",
      "min": [
        0.0
      ],
      "max": [
        3.5
      ]
    },
    {
      "bufferView": 72,
      "componentType": 5126,
      "count": 36,
      "type": "VEC3"
    },
    {
      "bufferView": 73,
      "componentType": 5126,
      "count": 36,
      "type": "SCALAR",
      "min": [
        0.0
      ],
      "max": [
        3.5
      ]
    },
    {
      "bufferView": 74,
      "componentType": 5126,
      "count": 36,
      "type": "VEC4"
    },
    {
      "bufferView": 75,
      "componentType": 5126,
      "count": 36,
      "type": "SCALAR",
      "min": [
        0.0
      ],
      "max": [
        3.5
      ]
    },
    {
      "bufferView": 76,
      "componentType": 5126,
      "count": 36,
      "type": "VEC3"
    },
    {
      "bufferView": 77,
      "componentType": 5126,
      "count": 36,
      "type": "SCALAR",
      "min": [
        0.0
      ],
      "max": [
        3.5
      ]
    },
    {
      "bufferView": 78,
      "componentType": 5126,
      "count": 36,
      "type": "VEC4"
    },
    {
      "bufferView": 79,
      "componentType": 5126,
      "count": 36,
      "type": "SCALAR",
      "min": [
        0.0
      ],
      "max": [
        3.5
      ]
    },
    {
      "bufferView": 80,
      "componentType": 5126,
      "count": 36,
      "type": "VEC3"
    },
    {
      "bufferView": 81,
      "componentType": 5126,
      "count": 36,
      "type": "SCALAR",
      "min": [
        0.0
      ],
      "max": [
        3.5
      ]
    },
    {
      "bufferView": 82,
      "componentType": 5126,
      "count": 36,
      "type": "VEC4"
    },
    {
      "bufferView": 83,
      "componentType": 5126,
      "count": 36,
      "type": "SCALAR",
      "min": [
        0.0
      ],
      "max": [
        3.5
      ]
    },
    {
      "bufferView": 84,
      "componentType": 5126,
      "count": 36,
      "type": "VEC3"
    },
    {
      "bufferView": 85,
      "componentType": 5126,
      "count": 36,
      "type": "SCALAR",
      "min": [
        0.0
      ],
      "max": [
        3.5
      ]
    },
    {
      "bufferView": 86,
      "componentType": 5126,
      "count": 36,
      "type": "VEC4"
    },
    {
      "bufferView": 87,
      "componentType": 5126,
      "count": 36,
      "type": "SCALAR",
      "min": [
        0.0
      ],
      "max": [
        3.5
      ]
    },
    {
      "bufferView": 88,
      "componentType": 5126,
      "count": 36,
      "type": "VEC3"
    },
    {
      "bufferView": 89,
      "componentType": 5126,
      "count": 36,
      "type": "SCALAR",
      "min": [
        0.0
      ],
      "max": [
        3.5
      ]
    },
    {
      "bufferView": 90,
      "componentType": 5126,
      "count": 36,
      "type": "VEC4"
    },
    {
      "bufferView": 91,
      "componentType": 5126,
      "count": 36,
      "type": "SCALAR",
      "min": [
        0.0
      ],
      "max": [
        3.5
      ]
    },
    {
      "bufferView": 92,
      "componentType": 5126,
      "count": 36,
      "type": "VEC3"
    },
    {
      "bufferView": 93,
      "componentType": 5126,
      "count": 36,
      "type": "SCALAR",
      "min": [
        0.0
      ],
      "max": [
        3.5
      ]
    },
    {
      "bufferView": 94,
      "componentType": 5126,
      "count": 36,
      "type": "VEC4"
    },
    {
      "bufferView": 95,
      "componentType": 5126,
      "count": 36,
      "type": "SCALAR",
      "min": [
        0.0
      ],
      "max": [
        3.5
      ]
    },
    {
      "bufferView": 96,
      "componentType": 5126,
      "count": 36,
      "type": "VEC3"
    },
    {
      "bufferView": 97,
      "componentType": 5126,
      "count": 36,
      "type": "SCALAR",
      "min": [
        0.0
      ],
      "max": [
        3.5
      ]
    },
    {
      "bufferView": 98,
      "componentType": 5126,
      "count": 36,
      "type": "VEC4"
    },
    {
      "bufferView": 99,
      "componentType": 5126,
      "count": 36,
      "type": "SCALAR",
      "min": [
        0.0
      ],
      "max": [
        3.5
      ]
    },
    {
      "bufferView": 100,
      "componentType": 5126,
      "count": 36,
      "type": "VEC3"
    },
    {
      "bufferView": 101,
      "componentType": 5126,
      "count": 36,
      "type": "SCALAR",
      "min": [
        0.0
      ],
      "max": [
        3.5
      ]
    },
    {
      "bufferView": 102,
      "componentType": 5126,
      "count": 36,
      "type": "VEC4"
    },
    {
      "bufferView": 103,
      "componentType": 5126,
      "count": 36,
      "type": "SCALAR",
      "min": [
        0.0
      ],
      "max": [
        3.5
      ]
    },
    {
      "bufferView": 104,
      "componentType": 5126,
      "count": 36,
      "type": "VEC3"
    },
    {
      "bufferView": 105,
      "componentType": 5126,
      "count": 36,
      "type": "SCALAR",
      "min": [
        0.0
      ],
      "max": [
        3.5
      ]
    },
    {
      "bufferView": 106,
      "componentType": 5126,
      "count": 36,
      "type": "VEC4"
    },
    {
      "bufferView": 107,
      "componentType": 5126,
      "count": 36,
      "type": "SCALAR",
      "min": [
        0.0
      ],
      "max": [
        3.5
      ]
    },
    {
      "bufferView": 108,
      "componentType": 5126,
      "count": 36,
      "type": "VEC3"
    },
    {
      "bufferView": 109,
      "componentType": 5126,
      "count": 36,
      "type": "SCALAR",
      "min": [
        0.0
      ],
      "max": [
        3.5
      ]
    },
    {
      "bufferView": 110,
      "componentType": 5126,
      "count": 36,
      "type": "VEC4"
    },
    {
      "bufferView": 111,
      "componentType": 5126,
      "count": 36,
      "type": "SCALAR",
      "min": [
        0.0
      ],
      "max": [
        3.5
      ]
    },
    {
      "bufferView": 112,
      "componentType": 5126,
      "count": 36,
      "type": "VEC3"
    },
    {
      "bufferView": 113,
      "componentType": 5126,
      "count": 36,
      "type": "SCALAR",
      "min": [
        0.0
      ],
      "max": [
        3.5
      ]
    },
    {
      "bufferView": 114,
      "componentType": 5126,
      "count": 36,
      "type": "VEC4"
    },
    {
      "bufferView": 115,
      "componentType": 5126,
      "count": 36,
      "type": "SCALAR",
      "min": [
        0.0
      ],
      "max": [
        3.5
      ]
    },
    {
      "bufferView": 116,
      "componentType": 5126,
      "count": 36,
      "type": "VEC3"
    },
    {
      "bufferView": 117,
      "componentType": 5126,
      "count": 31,
      "type": "SCALAR",
      "min": [
        0.0
      ],
      "max": [
        3.0
      ]
    },
    {
      "bufferView": 118,
      "componentType": 5126,
      "count": 31,
      "type": "VEC4"
    },
    {
      "bufferView": 119,
      "componentType": 5126,
      "count": 31,
      "type": "SCALAR",
      "min": [
        0.0
      ],
      "max": [
        3.0
      ]
    },
    {
      "bufferView": 120,
      "componentType": 5126,
      "count": 31,
      "type": "VEC3"
    },
    {
      "bufferView": 121,
      "componentType": 5126,
      "count": 31,
      "type": "SCALAR",
      "min": [
        0.0
      ],
      "max": [
        3.0
      ]
    },
    {
      "bufferView": 122,
      "componentType": 5126,
      "count": 31,
      "type": "VEC4"
    },
    {
      "bufferView": 123,
      "componentType": 5126,
      "count": 31,
      "type": "SCALAR",
      "min": [
        0.0
      ],
      "max": [
        3.0
      ]
    },
    {
      "bufferView": 124,
      "componentType": 5126,
      "count": 31,
      "type": "VEC3"
    },
    {
      "bufferView": 125,
      "componentType": 5126,
      "count": 31,
      "type": "SCALAR",
      "min": [
        0.0
      ],
      "max": [
        3.0
      ]
    },
    {
      "bufferView": 126,
      "componentType": 5126,
      "count": 31,
      "type": "VEC4"
    },
    {
      "bufferView": 127,
      "componentType": 5126,
      "count": 31,
      "type": "SCALAR",
      "min": [
        0.0
      ],
      "max": [
        3.0
      ]
    },
    {
      "bufferView": 128,
      "componentType": 5126,
      "count": 31,
      "type": "VEC3"
    },
    {
      "bufferView": 129,
      "componentType": 5126,
      "count": 31,
      "type": "SCALAR",
      "min": [
        0.0
      ],
      "max": [
        3.0
      ]
    },
    {
      "bufferView": 130,
      "componentType": 5126,
      "count": 31,
      "type": "VEC4"
    },
    {
      "bufferView": 131,
      "componentType": 5126,
      "count": 31,
      "type": "SCALAR",
      "min": [
        0.0
      ],
      "max": [
        3.0
      ]
    },
    {
      "bufferView": 132,
      "componentType": 5126,
      "count": 31,
      "type": "VEC3"
    },
    {
      "bufferView": 133,
      "componentType": 5126,
      "count": 31,
      "type": "SCALAR",
      "min": [
        0.0
      ],
      "max": [
        3.0
      ]
    },
    {
      "bufferView": 134,
      "componentType": 5126,
      "count": 31,
      "type": "VEC4"
    },
    {
      "bufferView": 135,
      "componentType": 5126,
      "count": 31,
      "type": "SCALAR",
      "min": [
        0.0
      ],
      "max": [
        3.0
      ]
    },
    {
      "bufferView": 136,
      "componentType": 5126,
      "count": 31,
      "type": "VEC3"
    },
    {
      "bufferView": 137,
      "componentType": 5126,
      "count": 31,
      "type": "SCALAR",
      "min": [
        0.0
      ],
      "max": [
        3.0
      ]
    },
    {
      "bufferView": 138,
      "componentType": 5126,
      "count": 31,
      "type": "VEC4"
    },
    {
      "bufferView": 139,
      "componentType": 5126,
      "count": 31,
      "type": "SCALAR",
      "min": [
        0.0
      ],
      "max": [
        3.0
      ]
    },
    {
      "bufferView": 140,
      "componentType": 5126,
      "count": 31,
      "type": "VEC3"
    },
    {
      "bufferView": 141,
      "componentType": 5126,
      "count": 31,
      "type": "SCALAR",
      "min": [
        0.0
      ],
      "max": [
        3.0
      ]
    },
    {
      "bufferView": 142,
      "componentType": 5126,
      "count": 31,
      "type": "VEC4"
    },
    {
      "bufferView": 143,
      "componentType": 5126,
      "count": 31,
      "type": "SCALAR",
      "min": [
        0.0
      ],
      "max": [
        3.0
      ]
    },
    {
      "bufferView": 144,
      "componentType": 5126,
      "count": 31,
      "type": "VEC3"
    },
    {
      "bufferView": 145,
      "componentType": 5126,
      "count": 31,
      "type": "SCALAR",
      "min": [
        0.0
      ],
      "max": [
        3.0
      ]
    },
    {
      "bufferView": 146,
      "componentType": 5126,
      "count": 31,
      "type": "VEC4"
    },
    {
      "bufferView": 147,
      "componentType": 5126,
      "count": 31,
      "type": "SCALAR",
      "min": [
        0.0
      ],
      "max": [
        3.0
      ]
    },
    {
      "bufferView": 148,
      "componentType": 5126,
      "count": 31,
      "type": "VEC3"
    }
  ],
  "animations": [
    {
      "name": "idle",
      "channels": [
        {
          "sampler": 0,
          "target": {
            "node": 2,
            "path": "rotation"
          }
        },
        {
          "sampler": 1,
          "target": {
            "node": 2,
            "path": "translation"
          }
        },
        {
          "sampler": 2,
          "target": {
            "node": 3,
            "path": "rotation"
          }
        },
        {
          "sampler": 3,
          "target": {
            "node": 3,
            "path": "translation"
          }
        },
        {
          "sampler": 4,
          "target": {
            "node": 4,
            "path": "rotation"
          }
        },
        {
          "sampler": 5,
          "target": {
            "node": 4,
            "path": "translation"
          }
        },
        {
          "sampler": 6,
          "target": {
            "node": 5,
            "path": "rotation"
          }
        },
        {
          "sampler": 7,
          "target": {
            "node": 5,
            "path": "translation"
          }
        },
        {
          "sampler": 8,
          "target": {
            "node": 6,
            "path": "rotation"
          }
        },
        {
          "sampler": 9,
          "target": {
            "node": 6,
            "path": "translation"
          }
        },
        {
          "sampler": 10,
          "target": {
            "node": 7,
            "path": "rotation"
          }
        },
        {
          "sampler": 11,
          "target": {
            "node": 7,
            "path": "translation"
          }
        },
        {
          "sampler": 12,
          "target": {
            "node": 8,
            "path": "rotation"
          }
        },
        {
          "sampler": 13,
          "target": {
            "node": 8,
            "path": "translation"
          }
        },
        {
          "sampler": 14,
          "target": {
            "node": 9,
            "path": "rotation"
          }
        },
        {
          "sampler": 15,
          "target": {
            "node": 9,
            "path": "translation"
          }
        }
      ],
      "samplers": [
        {
          "input": 21,
          "interpolation": "LINEAR",
          "output": 22
        },
        {
          "input": 23,
          "interpolation": "LINEAR",
          "output": 24
        },
        {
          "input": 25,
          "interpolation": "LINEAR",
          "output": 26
        },
        {
          "input": 27,
          "interpolation": "LINEAR",
          "output": 28
        },
        {
          "input": 29,
          "interpolation": "LINEAR",
          "output": 30
        },
        {
          "input": 31,
          "interpolation": "LINEAR",
          "output": 32
        },
        {
          "input": 33,
          "interpolation": "LINEAR",
          "output": 34
        },
        {
          "input": 35,
          "interpolation": "LINEAR",
          "output": 36
        },
        {
          "input": 37,
          "interpolation": "LINEAR",
          "output": 38
        },
        {
          "input": 39,
          "interpolation": "LINEAR",
          "output": 40
        },
        {
          "input": 41,
          "interpolation": "LINEAR",
          "output": 42
        },
        {
          "input": 43,
          "interpolation": "LINEAR",
          "output": 44
        },
        {
          "input": 45,
          "interpolation": "LINEAR",
          "output": 46
        },
        {
          "input": 47,
          "interpolation": "LINEAR",
          "output": 48
        },
        {
          "input": 49,
          "interpolation": "LINEAR",
          "output": 50
        },
        {
          "input": 51,
          "interpolation": "LINEAR",
          "output": 52
        }
      ]
    },
    {
      "name": "walk",
      "channels": [
        {
          "sampler": 0,
          "target": {
            "node": 2,
            "path": "rotation"
          }
        },
        {
          "sampler": 1,
          "target": {
            "node": 2,
            "path": "translation"
          }
        },
        {
          "sampler": 2,
          "target": {
            "node": 3,
            "path": "rotation"
          }
        },
        {
          "sampler": 3,
          "target": {
            "node": 3,
            "path": "translation"
          }
        },
        {
          "sampler": 4,
          "target": {
            "node": 4,
            "path": "rotation"
          }
        },
        {
          "sampler": 5,
          "target": {
            "node": 4,
            "path": "translation"
          }
        },
        {
          "sampler": 6,
          "target": {
            "node": 5,
            "path": "rotation"
          }
        },
        {
          "sampler": 7,
          "target": {
            "node": 5,
            "path": "translation"
          }
        },
        {
          "sampler": 8,
          "target": {
            "node": 6,
            "path": "rotation"
          }
        },
        {
          "sampler": 9,
          "target": {
            "node": 6,
            "path": "translation"
          }
        },
        {
          "sampler": 10,
          "target": {
            "node": 7,
            "path": "rotation"
          }
        },
        {
          "sampler": 11,
          "target": {
            "node": 7,
            "path": "translation"
          }
        },
        {
          "sampler": 12,
          "target": {
            "node": 8,
            "path": "rotation"
          }
        },
        {
          "sampler": 13,
          "target": {
            "node": 8,
            "path": "translation"
          }
        },
        {
          "sampler": 14,
          "target": {
            "node": 9,
            "path": "rotation"
          }
        },
        {
          "sampler": 15,
          "target": {
            "node": 9,
            "path": "translation"
          }
        }
      ],
      "samplers": [
        {
          "input": 53,
          "interpolation": "LINEAR",
          "output": 54
        },
        {
          "input": 55,
          "interpolation": "LINEAR",
          "output": 56
        },
        {
          "input": 57,
          "interpolation": "LINEAR",
          "output": 58
        },
        {
          "input": 59,
          "interpolation": "LINEAR",
          "output": 60
        },
        {
          "input": 61,
          "interpolation": "LINEAR",
          "output": 62
        },
        {
          "input": 63,
          "interpolation": "LINEAR",
          "output": 64
        },
        {
          "input": 65,
          "interpolation": "LINEAR",
          "output": 66
        },
        {
          "input": 67,
          "interpolation": "LINEAR",
          "output": 68
        },
        {
          "input": 69,
          "interpolation": "LINEAR",
          "output": 70
        },
        {
          "input": 71,
          "interpolation": "LINEAR",
          "output": 72
        },
        {
          "input": 73,
          "interpolation": "LINEAR",
          "output": 74
        },
        {
          "input": 75,
          "interpolation": "LINEAR",
          "output": 76
        },
        {
          "input": 77,
          "interpolation": "LINEAR",
          "output": 78
        },
        {
          "input": 79,
          "interpolation": "LINEAR",
          "output": 80
        },
        {
          "input": 81,
          "interpolation": "LINEAR",
          "output": 82
        },
        {
          "input": 83,
          "interpolation": "LINEAR",
          "output": 84
        }
      ]
    },
    {
      "name": "run",
      "channels": [
        {
          "sampler": 0,
          "target": {
            "node": 2,
            "path": "rotation"
          }
        },
        {
          "sampler": 1,
          "target": {
            "node": 2,
            "path": "translation"
          }
        },
        {
          "sampler": 2,
          "target": {
            "node": 3,
            "path": "rotation"
          }
        },
        {
          "sampler": 3,
          "target": {
            "node": 3,
            "path": "translation"
          }
        },
        {
          "sampler": 4,
          "target": {
            "node": 4,
            "path": "rotation"
          }
        },
        {
          "sampler": 5,
          "target": {
            "node": 4,
            "path": "translation"
          }
        },
        {
          "sampler": 6,
          "target": {
            "node": 5,
            "path": "rotation"
          }
        },
        {
          "sampler": 7,
          "target": {
            "node": 5,
            "path": "translation"
          }
        },
        {
          "sampler": 8,
          "target": {
            "node": 6,
            "path": "rotation"
          }
        },
        {
          "sampler": 9,
          "target": {
            "node": 6,
            "path": "translation"
          }
        },
        {
          "sampler": 10,
          "target": {
            "node": 7,
            "path": "rotation"
          }
        },
        {
          "sampler": 11,
          "target": {
            "node": 7,
            "path": "translation"
          }
        },
        {
          "sampler": 12,
          "target": {
            "node": 8,
            "path": "rotation"
          }
        },
        {
          "sampler": 13,
          "target": {
            "node": 8,
            "path": "translation"
          }
        },
        {
          "sampler": 14,
          "target": {
            "node": 9,
            "path": "rotation"
          }
        },
        {
          "sampler": 15,
          "target": {
            "node": 9,
            "path": "translation"
          }
        }
      ],
      "samplers": [
        {
          "input": 85,
          "interpolation": "LINEAR",
          "output": 86
        },
        {
          "input": 87,
          "interpolation": "LINEAR",
          "output": 88
        },
        {
          "input": 89,
          "interpolation": "LINEAR",
          "output": 90
        },
        {
          "input": 91,
          "interpolation": "LINEAR",
          "output": 92
        },
        {
          "input": 93,
          "interpolation": "LINEAR",
          "output": 94
        },
        {
          "input": 95,
          "interpolation": "LINEAR",
          "output": 96
        },
        {
          "input": 97,
          "interpolation": "LINEAR",
          "output": 98
        },
        {
          "input": 99,
          "interpolation": "LINEAR",
          "output": 100
        },
        {
          "input": 101,
          "interpolation": "LINEAR",
          "output": 102
        },
        {
          "input": 103,
          "interpolation": "LINEAR",
          "output": 104
        },
        {
          "input": 105,
          "interpolation": "LINEAR",
          "output": 106
        },
        {
          "input": 107,
          "interpolation": "LINEAR",
          "output": 108
        },
        {
          "input": 109,
          "interpolation": "LINEAR",
          "output": 110
        },
        {
          "input": 111,
          "interpolation": "LINEAR",
          "output": 112
        },
        {
          "input": 113,
          "interpolation": "LINEAR",
          "output": 114
        },
        {
          "input": 115,
          "interpolation": "LINEAR",
          "output": 116
        }
      ]
    },
    {
      "name": "punch",
      "channels": [
        {
          "sampler": 0,
          "target": {
            "node": 2,
            "path": "rotation"
          }
        },
        {
          "sampler": 1,
          "target": {
            "node": 2,
            "path": "translation"
          }
        },
        {
          "sampler": 2,
          "target": {
            "node": 3,
            "path": "rotation"
          }
        },
        {
          "sampler": 3,
          "target": {
            "node": 3,
            "path": "translation"
          }
        },
        {
          "sampler": 4,
          "target": {
            "node": 4,
            "path": "rotation"
          }
        },
        {
          "sampler": 5,
          "target": {
            "node": 4,
            "path": "translation"
          }
        },
        {
          "sampler": 6,
          "target": {
            "node": 5,
            "path": "rotation"
          }
        },
        {
          "sampler": 7,
          "target": {
            "node": 5,
            "path": "translation"
          }
        },
        {
          "sampler": 8,
          "target": {
            "node": 6,
            "path": "rotation"
          }
        },
        {
          "sampler": 9,
          "target": {
            "node": 6,
            "path": "translation"
          }
        },
        {
          "sampler": 10,
          "target": {
            "node": 7,
            "path": "rotation"
          }
        },
        {
          "sampler": 11,
          "target": {
            "node": 7,
            "path": "translation"
          }
        },
        {
          "sampler": 12,
          "target": {
            "node": 8,
            "path": "rotation"
          }
        },
        {
          "sampler": 13,
          "target": {
            "node": 8,
            "path": "translation"
          }
        },
        {
          "sampler": 14,
          "target": {
            "node": 9,
            "path": "rotation"
          }
        },
        {
          "sampler": 15,
          "target": {
            "node": 9,
            "path": "translation"
          }
        }
      ],
      "samplers": [
        {
          "input": 117,
          "interpolation": "LINEAR",
          "output": 118
        },
        {
          "input": 119,
          "interpolation": "LINEAR",
          "output": 120
        },
        {
          "input": 121,
          "interpolation": "LINEAR",
          "output": 122
        },
        {
          "input": 123,
          "interpolation": "LINEAR",
          "output": 124
        },
        {
          "input": 125,
          "interpolation": "LINEAR",
          "output": 126
        },
        {
          "input": 127,
          "interpolation": "LINEAR",
          "output": 128
        },
        {
          "input": 129,
          "interpolation": "LINEAR",
          "output": 130
        },
        {
          "input": 131,
          "interpolation": "LINEAR",
          "output": 132
        },
        {
          "input": 133,
          "interpolation": "LINEAR",
          "output": 134
        },
        {
          "input": 135,
          "interpolation": "LINEAR",
          "output": 136
        },
        {
          "input": 137,
          "interpolation": "LINEAR",
          "output": 138
        },
        {
          "input": 139,
          "interpolation": "LINEAR",
          "output": 140
        },
        {
          "input": 141,
          "interpolation": "LINEAR",
          "output": 142
        },
        {
          "input": 143,
          "interpolation": "LINEAR",
          "output": 144
        },
        {
          "input": 145,
          "interpolation": "LINEAR",
          "output": 146
        },
        {
          "input": 147,
          "interpolation": "LINEAR",
          "output": 148
        }
      ]
    }
  ]
}