{"scene":0,"scenes":[{"nodes":[0]}],"asset":{"version":"2.0","generator":"https://github.com/mikedh/trimesh"},"accessors":[{"componentType":5125,"type":"SCALAR","bufferView":0,"count":864,"max":[579],"min":[0]},{"componentType":5126,"type":"VEC3","byteOffset":0,"bufferView":1,"count":580,"max":[0.48771101236343384,0.3935149908065796,0.33521100878715515],"min":[-0.48771101236343384,-0.42811399698257446,-0.33521100878715515]}],"meshes":[{"name":"Armor_Leather_Cylinder.048","extras":{"processed":true,"name":"Armor_Leather_Cylinder.048","node":"Armor_Leather_Cylinder.048"},"primitives":[{"attributes":{"POSITION":1},"indices":0,"mode":4,"material":0}]}],"materials":[{"pbrMetallicRoughness":{"baseColorFactor":[0.10980392156862745,0.058823529411764705,0.0392156862745098,1.0],"roughnessFactor":0.377888888028231},"doubleSided":false}],"nodes":[{"name":"Armor_Leather_Cylinder.048","mesh":0}],"buffers":[{"uri":"gltf_buffer_0.bin","byteLength":3456},{"uri":"gltf_buffer_1.bin","byteLength":6960}],"bufferViews":[{"buffer":0,"byteOffset":0,"byteLength":3456},{"buffer":1,"byteOffset":0,"byteLength":6960}]}