{
  "asset": {
    "version": "2.0",
    "generator": "b3d_export_gltf.py"
  },
  "scene": 0,
  "scenes": [
    {
      "nodes": [
        0
      ]
    }
  ],
  "nodes": [
    {
      "name": "armature",
      "children": [
        34
      ]
    },
    {
      "name": "ROOT",
      "translation": [
        0.0,
        0.0,
        0.0
      ],
      "rotation": [
        0.0,
        0.0,
        0.0,
        1.0
      ],
      "scale": [
        1.0,
        1.0,
        1.0
      ],
      "children": [
        2,
        4,
        6,
        8,
        10,
        12,
        14,
        16,
        18,
        20,
        22,
        24,
        26,
        28,
        30,
        32
      ]
    },
    {
      "name": "cube.002",
      "translation": [
        0.0,
        0.0,
        0.0
      ],
      "rotation": [
        0.0,
        0.0,
        0.0,
        1.0
      ],
      "scale": [
        1.0,
        1.0,
        1.0
      ],
      "children": [
        3
      ]
    },
    {
      "name": "Bone",
      "translation": [
        0.0,
        0.47967729568481443,
        0.17960411310195923
      ],
      "rotation": [
        0.0,
        0.7411114024756696,
        0.6713820738748881,
        0.0
      ],
      "scale": [
        1.0,
        1.0,
        1.0
      ]
    },
    {
      "name": "cube.003",
      "translation": [
        0.0,
        0.0,
        0.0
      ],
      "rotation": [
        0.0,
        0.0,
        0.0,
        1.0
      ],
      "scale": [
        1.0,
        1.0,
        1.0
      ],
      "children": [
        5
      ]
    },
    {
      "name": "Bone",
      "translation": [
        0.0,
        0.47967729568481443,
        0.17960411310195923
      ],
      "rotation": [
        0.0,
        0.7411114024756696,
        0.6713820738748881,
        0.0
      ],
      "scale": [
        1.0,
        1.0,
        1.0
      ]
    },
    {
      "name": "cube.004",
      "translation": [
        0.0,
        0.0,
        0.0
      ],
      "rotation": [
        0.0,
        0.0,
        0.0,
        1.0
      ],
      "scale": [
        1.0,
        1.0,
        1.0
      ],
      "children": [
        7
      ]
    },
    {
      "name": "Bone",
      "translation": [
        0.0,
        0.4252616882324219,
        0.07832127809524536
      ],
      "rotation": [
        0.0,
        0.9427117706853191,
        0.3336083293494787,
        0.0
      ],
      "scale": [
        1.0,
        1.0,
        1.0
      ]
    },
    {
      "name": "cube.005",
      "translation": [
        0.0,
        0.0,
        0.0
      ],
      "rotation": [
        0.0,
        0.0,
        0.0,
        1.0
      ],
      "scale": [
        1.0,
        1.0,
        1.0
      ],
      "children": [
        9
      ]
    },
    {
      "name": "Bone",
      "translation": [
        0.0,
        0.4252616882324219,
        0.07832127809524536
      ],
      "rotation": [
        0.0,
        0.9427117706853191,
        0.3336083293494787,
        0.0
      ],
      "scale": [
        1.0,
        1.0,
        1.0
      ]
    },
    {
      "name": "cube.006",
      "translation": [
        0.0,
        0.0,
        0.0
      ],
      "rotation": [
        0.0,
        0.0,
        0.0,
        1.0
      ],
      "scale": [
        1.0,
        1.0,
        1.0
      ],
      "children": [
        11
      ]
    },
    {
      "name": "Bone",
      "translation": [
        0.0,
        0.4252616882324219,
        0.07832127809524536
      ],
      "rotation": [
        0.0,
        0.9427117706853191,
        0.3336083293494787,
        0.0
      ],
      "scale": [
        1.0,
        1.0,
        1.0
      ]
    },
    {
      "name": "cube.007",
      "translation": [
        0.0,
        0.0,
        0.0
      ],
      "rotation": [
        0.0,
        0.0,
        0.0,
        1.0
      ],
      "scale": [
        1.0,
        1.0,
        1.0
      ],
      "children": [
        13
      ]
    },
    {
      "name": "Bone",
      "translation": [
        0.0,
        0.3615083932876587,
        0.02460373193025589
      ],
      "rotation": [
        0.0,
        0.9435072399180755,
        0.33135190994194536,
        0.0
      ],
      "scale": [
        1.0,
        1.0,
        1.0
      ]
    },
    {
      "name": "cube.008",
      "translation": [
        0.0,
        0.0,
        0.0
      ],
      "rotation": [
        0.0,
        0.0,
        0.0,
        1.0
      ],
      "scale": [
        1.0,
        1.0,
        1.0
      ],
      "children": [
        15
      ]
    },
    {
      "name": "Bone",
      "translation": [
        0.0,
        0.5432278156280518,
        -0.09109956622123719
      ],
      "rotation": [
        0.0,
        1.0,
        0.0,
        0.0
      ],
      "scale": [
        2.3920764923095703,
        2.3920764923095703,
        2.3920764923095703
      ]
    },
    {
      "name": "cube.009",
      "translation": [
        0.0,
        0.0,
        0.0
      ],
      "rotation": [
        0.0,
        0.0,
        0.0,
        1.0
      ],
      "scale": [
        1.0,
        1.0,
        1.0
      ],
      "children": [
        17
      ]
    },
    {
      "name": "Bone",
      "translation": [
        0.0,
        0.17257683277130126,
        -0.11279795169830323
      ],
      "rotation": [
        0.0,
        -0.6088497360800667,
        0.793285572083114,
        0.0
      ],
      "scale": [
        1.0,
        0.9999999403953552,
        0.9999999403953552
      ]
    },
    {
      "name": "cube.010",
      "translation": [
        0.0,
        0.0,
        0.0
      ],
      "rotation": [
        0.0,
        0.0,
        0.0,
        1.0
      ],
      "scale": [
        1.0,
        1.0,
        1.0
      ],
      "children": [
        19
      ]
    },
    {
      "name": "Bone",
      "translation": [
        0.0,
        0.17257683277130126,
        -0.11279795169830323
      ],
      "rotation": [
        0.0,
        -0.6088497360800667,
        0.793285572083114,
        0.0
      ],
      "scale": [
        1.0,
        0.9999999403953552,
        0.9999999403953552
      ]
    },
    {
      "name": "cube.011",
      "translation": [
        0.0,
        0.0,
        0.0
      ],
      "rotation": [
        0.0,
        0.0,
        0.0,
        1.0
      ],
      "scale": [
        1.0,
        1.0,
        1.0
      ],
      "children": [
        21
      ]
    },
    {
      "name": "Bone",
      "translation": [
        -0.06205704212188721,
        0.2302643060684204,
        -0.034294682741165164
      ],
      "rotation": [
        0.9999651484194925,
        -0.00834876915373467,
        0.0,
        0.0
      ],
      "scale": [
        0.9999999403953552,
        0.9999999403953552,
        1.0
      ]
    },
    {
      "name": "cube.012",
      "translation": [
        0.0,
        0.0,
        0.0
      ],
      "rotation": [
        0.0,
        0.0,
        0.0,
        1.0
      ],
      "scale": [
        1.0,
        1.0,
        1.0
      ],
      "children": [
        23
      ]
    },
    {
      "name": "Bone",
      "translation": [
        0.044093158841133115,
        0.2302643060684204,
        -0.034294682741165164
      ],
      "rotation": [
        0.9999651484194925,
        -0.00834876915373467,
        0.0,
        0.0
      ],
      "scale": [
        0.9999999403953552,
        0.9999999403953552,
        1.0
      ]
    },
    {
      "name": "cube.013",
      "translation": [
        0.0,
        0.0,
        0.0
      ],
      "rotation": [
        0.0,
        0.0,
        0.0,
        1.0
      ],
      "scale": [
        1.0,
        1.0,
        1.0
      ],
      "children": [
        25
      ]
    },
    {
      "name": "Bone",
      "translation": [
        -0.06205704212188721,
        0.2302643060684204,
        -0.034294682741165164
      ],
      "rotation": [
        0.9999651484194925,
        -0.00834876915373467,
        0.0,
        0.0
      ],
      "scale": [
        0.9999999403953552,
        0.9999999403953552,
        1.0
      ]
    },
    {
      "name": "cube.014",
      "translation": [
        0.0,
        0.0,
        0.0
      ],
      "rotation": [
        0.0,
        0.0,
        0.0,
        1.0
      ],
      "scale": [
        1.0,
        1.0,
        1.0
      ],
      "children": [
        27
      ]
    },
    {
      "name": "Bone",
      "translation": [
        0.044093158841133115,
        0.2302643060684204,
        -0.034294682741165164
      ],
      "rotation": [
        0.9999651484194925,
        -0.00834876915373467,
        0.0,
        0.0
      ],
      "scale": [
        0.9999999403953552,
        0.9999999403953552,
        1.0
      ]
    },
    {
      "name": "cube.015",
      "translation": [
        0.0,
        0.0,
        0.0
      ],
      "rotation": [
        0.0,
        0.0,
        0.0,
        1.0
      ],
      "scale": [
        1.0,
        1.0,
        1.0
      ],
      "children": [
        29
      ]
    },
    {
      "name": "Bone",
      "translation": [
        -0.09308556914329529,
        0.4523632526397705,
        0.06042396426200867
      ],
      "rotation": [
        0.0,
        -0.4233598581519109,
        0.9059616054257453,
        0.0
      ],
      "scale": [
        1.0,
        1.0,
        1.0
      ]
    },
    {
      "name": "cube.001",
      "translation": [
        0.0,
        0.0,
        0.0
      ],
      "rotation": [
        0.0,
        0.0,
        0.0,
        1.0
      ],
      "scale": [
        1.0,
        1.0,
        1.0
      ],
      "children": [
        31
      ]
    },
    {
      "name": "Bone",
      "translation": [
        0.0,
        0.4252616882324219,
        0.07832127809524536
      ],
      "rotation": [
        0.0,
        0.9427117706853191,
        0.3336083293494787,
        0.0
      ],
      "scale": [
        1.0,
        1.0,
        1.0
      ]
    },
    {
      "name": "cube",
      "translation": [
        0.0,
        0.0,
        0.0
      ],
      "rotation": [
        0.0,
        0.0,
        0.0,
        1.0
      ],
      "scale": [
        1.0,
        1.0,
        1.0
      ],
      "children": [
        33
      ]
    },
    {
      "name": "Bone",
      "translation": [
        0.07512167692184449,
        0.4523632526397705,
        0.06042396426200867
      ],
      "rotation": [
        0.0,
        -0.4233598581519109,
        0.9059616054257453,
        0.0
      ],
      "scale": [
        1.0,
        1.0,
        1.0
      ]
    },
    {
      "name": "puffin",
      "mesh": 0,
      "skin": 0
    }
  ],
  "meshes": [
    {
      "name": "puffin",
      "primitives": [
        {
          "attributes": {
            "POSITION": 0,
            "TEXCOORD_0": 1,
            "JOINTS_0": 2,
            "WEIGHTS_0": 3
          },
          "indices": 4,
          "material": 0
        },
        {
          "attributes": {
            "POSITION": 5,
            "TEXCOORD_0": 6,
            "JOINTS_0": 7,
            "WEIGHTS_0": 8
          },
          "indices": 9,
          "material": 1
        },
        {
          "attributes": {
            "POSITION": 10,
            "TEXCOORD_0": 11,
            "JOINTS_0": 12,
            "WEIGHTS_0": 13
          },
          "indices": 14,
          "material": 2
        }
      ]
    }
  ],
  "skins": [
    {
      "inverseBindMatrices": 15,
      "joints": [
        1,
        2,
        3,
        4,
        5,
        6,
        7,
        8,
        9,
        10,
        11,
        12,
        13,
        14,
        15,
        16,
        17,
        18,
        19,
        20,
        21,
        22,
        23,
        24,
        25,
        26,
        27,
        28,
        29,
        30,
        31,
        32,
        33
      ],
      "skeleton": 1
    }
  ],
  "materials": [
    {
      "name": "body",
      "pbrMetallicRoughness": {
        "baseColorTexture": {
          "index": 0
        },
        "metallicFactor": 0.0,
        "roughnessFactor": 1.0
      },
      "doubleSided": true
    },
    {
      "name": "face",
      "pbrMetallicRoughness": {
        "baseColorTexture": {
          "index": 1
        },
        "metallicFactor": 0.0,
        "roughnessFactor": 1.0
      },
      "doubleSided": true
    },
    {
      "name": "wing",
      "pbrMetallicRoughness": {
        "baseColorTexture": {
          "index": 2
        },
        "metallicFactor": 0.0,
        "roughnessFactor": 1.0
      },
      "doubleSided": true
    }
  ],
  "textures": [
    {
      "source": 0
    },
    {
      "source": 1
    },
    {
      "source": 2
    }
  ],
  "images": [
    {
      "uri": "textures/body.png"
    },
    {
      "uri": "textures/face.png"
    },
    {
      "uri": "textures/wing.png"
    }
  ],
  "buffers": [
    {
      "byteLength": 194272,
      "uri": "model.bin"
    }
  ],
  "bufferViews": [
    {
      "buffer": 0,
      "byteOffset": 0,
      "byteLength": 2712,
      "target": 34962
    },
    {
      "buffer": 0,
      "byteOffset": 2712,
      "byteLength": 1808,
      "target": 34962
    },
    {
      "buffer": 0,
      "byteOffset": 4520,
      "byteLength": 904,
      "target": 34962
    },
    {
      "buffer": 0,
      "byteOffset": 5424,
      "byteLength": 3616,
      "target": 34962
    },
    {
      "buffer": 0,
      "byteOffset": 9040,
      "byteLength": 636,
      "target": 34963
    },
    {
      "buffer": 0,
      "byteOffset": 9676,
      "byteLength": 48,
      "target": 34962
    },
    {
      "buffer": 0,
      "byteOffset": 9724,
      "byteLength": 32,
      "target": 34962
    },
    {
      "buffer": 0,
      "byteOffset": 9756,
      "byteLength": 16,
      "target": 34962
    },
    {
      "buffer": 0,
      "byteOffset": 9772,
      "byteLength": 64,
      "target": 34962
    },
    {
      "buffer": 0,
      "byteOffset": 9836,
      "byteLength": 12,
      "target": 34963
    },
    {
      "buffer": 0,
      "byteOffset": 9848,
      "byteLength": 2184,
      "target": 34962
    },
    {
      "buffer": 0,
      "byteOffset": 12032,
      "byteLength": 1456,
      "target": 34962
    },
    {
      "buffer": 0,
      "byteOffset": 13488,
      "byteLength": 728,
      "target": 34962
    },
    {
      "buffer": 0,
      "byteOffset": 14216,
      "byteLength": 2912,
      "target": 34962
    },
    {
      "buffer": 0,
      "byteOffset": 17128,
      "byteLength": 504,
      "target": 34963
    },
    {
      "buffer": 0,
      "byteOffset": 17632,
      "byteLength": 2112
    },
    {
      "buffer": 0,
      "byteOffset": 19744,
      "byteLength": 404
    },
    {
      "buffer": 0,
      "byteOffset": 20148,
      "byteLength": 1616
    },
    {
      "buffer": 0,
      "byteOffset": 21764,
      "byteLength": 404
    },
    {
      "buffer": 0,
      "byteOffset": 22168,
      "byteLength": 1212
    },
    {
      "buffer": 0,
      "byteOffset": 23380,
      "byteLength": 404
    },
    {
      "buffer": 0,
      "byteOffset": 23784,
      "byteLength": 1616
    },
    {
      "buffer": 0,
      "byteOffset": 25400,
      "byteLength": 404
    },
    {
      "buffer": 0,
      "byteOffset": 25804,
      "byteLength": 1212
    },
    {
      "buffer": 0,
      "byteOffset": 27016,
      "byteLength": 404
    },
    {
      "buffer": 0,
      "byteOffset": 27420,
      "byteLength": 1616
    },
    {
      "buffer": 0,
      "byteOffset": 29036,
      "byteLength": 404
    },
    {
      "buffer": 0,
      "byteOffset": 29440,
      "byteLength": 1212
    },
    {
      "buffer": 0,
      "byteOffset": 30652,
      "byteLength": 404
    },
    {
      "buffer": 0,
      "byteOffset": 31056,
      "byteLength": 1616
    },
    {
      "buffer": 0,
      "byteOffset": 32672,
      "byteLength": 404
    },
    {
      "buffer": 0,
      "byteOffset": 33076,
      "byteLength": 1212
    },
    {
      "buffer": 0,
      "byteOffset": 34288,
      "byteLength": 404
    },
    {
      "buffer": 0,
      "byteOffset": 34692,
      "byteLength": 1616
    },
    {
      "buffer": 0,
      "byteOffset": 36308,
      "byteLength": 404
    },
    {
      "buffer": 0,
      "byteOffset": 36712,
      "byteLength": 1212
    },
    {
      "buffer": 0,
      "byteOffset": 37924,
      "byteLength": 404
    },
    {
      "buffer": 0,
      "byteOffset": 38328,
      "byteLength": 1616
    },
    {
      "buffer": 0,
      "byteOffset": 39944,
      "byteLength": 404
    },
    {
      "buffer": 0,
      "byteOffset": 40348,
      "byteLength": 1212
    },
    {
      "buffer": 0,
      "byteOffset": 41560,
      "byteLength": 404
    },
    {
      "buffer": 0,
      "byteOffset": 41964,
      "byteLength": 1616
    },
    {
      "buffer": 0,
      "byteOffset": 43580,
      "byteLength": 404
    },
    {
      "buffer": 0,
      "byteOffset": 43984,
      "byteLength": 1212
    },
    {
      "buffer": 0,
      "byteOffset": 45196,
      "byteLength": 404
    },
    {
      "buffer": 0,
      "byteOffset": 45600,
      "byteLength": 1616
    },
    {
      "buffer": 0,
      "byteOffset": 47216,
      "byteLength": 404
    },
    {
      "buffer": 0,
      "byteOffset": 47620,
      "byteLength": 1212
    },
    {
      "buffer": 0,
      "byteOffset": 48832,
      "byteLength": 404
    },
    {
      "buffer": 0,
      "byteOffset": 49236,
      "byteLength": 1616
    },
    {
      "buffer": 0,
      "byteOffset": 50852,
      "byteLength": 404
    },
    {
      "buffer": 0,
      "byteOffset": 51256,
      "byteLength": 1212
    },
    {
      "buffer": 0,
      "byteOffset": 52468,
      "byteLength": 404
    },
    {
      "buffer": 0,
      "byteOffset": 52872,
      "byteLength": 1616
    },
    {
      "buffer": 0,
      "byteOffset": 54488,
      "byteLength": 404
    },
    {
      "buffer": 0,
      "byteOffset": 54892,
      "byteLength": 1212
    },
    {
      "buffer": 0,
      "byteOffset": 56104,
      "byteLength": 404
    },
    {
      "buffer": 0,
      "byteOffset": 56508,
      "byteLength": 1616
    },
    {
      "buffer": 0,
      "byteOffset": 58124,
      "byteLength": 404
    },
    {
      "buffer": 0,
      "byteOffset": 58528,
      "byteLength": 1212
    },
    {
      "buffer": 0,
      "byteOffset": 59740,
      "byteLength": 404
    },
    {
      "buffer": 0,
      "byteOffset": 60144,
      "byteLength": 1616
    },
    {
      "buffer": 0,
      "byteOffset": 61760,
      "byteLength": 404
    },
    {
      "buffer": 0,
      "byteOffset": 62164,
      "byteLength": 1212
    },
    {
      "buffer": 0,
      "byteOffset": 63376,
      "byteLength": 404
    },
    {
      "buffer": 0,
      "byteOffset": 63780,
      "byteLength": 1616
    },
    {
      "buffer": 0,
      "byteOffset": 65396,
      "byteLength": 404
    },
    {
      "buffer": 0,
      "byteOffset": 65800,
      "byteLength": 1212
    },
    {
      "buffer": 0,
      "byteOffset": 67012,
      "byteLength": 404
    },
    {
      "buffer": 0,
      "byteOffset": 67416,
      "byteLength": 1616
    },
    {
      "buffer": 0,
      "byteOffset": 69032,
      "byteLength": 404
    },
    {
      "buffer": 0,
      "byteOffset": 69436,
      "byteLength": 1212
    },
    {
      "buffer": 0,
      "byteOffset": 70648,
      "byteLength": 404
    },
    {
      "buffer": 0,
      "byteOffset": 71052,
      "byteLength": 1616
    },
    {
      "buffer": 0,
      "byteOffset": 72668,
      "byteLength": 404
    },
    {
      "buffer": 0,
      "byteOffset": 73072,
      "byteLength": 1212
    },
    {
      "buffer": 0,
      "byteOffset": 74284,
      "byteLength": 404
    },
    {
      "buffer": 0,
      "byteOffset": 74688,
      "byteLength": 1616
    },
    {
      "buffer": 0,
      "byteOffset": 76304,
      "byteLength": 404
    },
    {
      "buffer": 0,
      "byteOffset": 76708,
      "byteLength": 1212
    },
    {
      "buffer": 0,
      "byteOffset": 77920,
      "byteLength": 404
    },
    {
      "buffer": 0,
      "byteOffset": 78324,
      "byteLength": 1616
    },
    {
      "buffer": 0,
      "byteOffset": 79940,
      "byteLength": 404
    },
    {
      "buffer": 0,
      "byteOffset": 80344,
      "byteLength": 1212
    },
    {
      "buffer": 0,
      "byteOffset": 81556,
      "byteLength": 404
    },
    {
      "buffer": 0,
      "byteOffset": 81960,
      "byteLength": 1616
    },
    {
      "buffer": 0,
      "byteOffset": 83576,
      "byteLength": 404
    },
    {
      "buffer": 0,
      "byteOffset": 83980,
      "byteLength": 1212
    },
    {
      "buffer": 0,
      "byteOffset": 85192,
      "byteLength": 404
    },
    {
      "buffer": 0,
      "byteOffset": 85596,
      "byteLength": 1616
    },
    {
      "buffer": 0,
      "byteOffset": 87212,
      "byteLength": 404
    },
    {
      "buffer": 0,
      "byteOffset": 87616,
      "byteLength": 1212
    },
    {
      "buffer": 0,
      "byteOffset": 88828,
      "byteLength": 404
    },
    {
      "buffer": 0,
      "byteOffset": 89232,
      "byteLength": 1616
    },
    {
      "buffer": 0,
      "byteOffset": 90848,
      "byteLength": 404
    },
    {
      "buffer": 0,
      "byteOffset": 91252,
      "byteLength": 1212
    },
    {
      "buffer": 0,
      "byteOffset": 92464,
      "byteLength": 404
    },
    {
      "buffer": 0,
      "byteOffset": 92868,
      "byteLength": 1616
    },
    {
      "buffer": 0,
      "byteOffset": 94484,
      "byteLength": 404
    },
    {
      "buffer": 0,
      "byteOffset": 94888,
      "byteLength": 1212
    },
    {
      "buffer": 0,
      "byteOffset": 96100,
      "byteLength": 404
    },
    {
      "buffer": 0,
      "byteOffset": 96504,
      "byteLength": 1616
    },
    {
      "buffer": 0,
      "byteOffset": 98120,
      "byteLength": 404
    },
    {
      "buffer": 0,
      "byteOffset": 98524,
      "byteLength": 1212
    },
    {
      "buffer": 0,
      "byteOffset": 99736,
      "byteLength": 404
    },
    {
      "buffer": 0,
      "byteOffset": 100140,
      "byteLength": 1616
    },
    {
      "buffer": 0,
      "byteOffset": 101756,
      "byteLength": 404
    },
    {
      "buffer": 0,
      "byteOffset": 102160,
      "byteLength": 1212
    },
    {
      "buffer": 0,
      "byteOffset": 103372,
      "byteLength": 404
    },
    {
      "buffer": 0,
      "byteOffset": 103776,
      "byteLength": 1616
    },
    {
      "buffer": 0,
      "byteOffset": 105392,
      "byteLength": 404
    },
    {
      "buffer": 0,
      "byteOffset": 105796,
      "byteLength": 1212
    },
    {
      "buffer": 0,
      "byteOffset": 107008,
      "byteLength": 404
    },
    {
      "buffer": 0,
      "byteOffset": 107412,
      "byteLength": 1616
    },
    {
      "buffer": 0,
      "byteOffset": 109028,
      "byteLength": 404
    },
    {
      "buffer": 0,
      "byteOffset": 109432,
      "byteLength": 1212
    },
    {
      "buffer": 0,
      "byteOffset": 110644,
      "byteLength": 404
    },
    {
      "buffer": 0,
      "byteOffset": 111048,
      "byteLength": 1616
    },
    {
      "buffer": 0,
      "byteOffset": 112664,
      "byteLength": 404
    },
    {
      "buffer": 0,
      "byteOffset": 113068,
      "byteLength": 1212
    },
    {
      "buffer": 0,
      "byteOffset": 114280,
      "byteLength": 404
    },
    {
      "buffer": 0,
      "byteOffset": 114684,
      "byteLength": 1616
    },
    {
      "buffer": 0,
      "byteOffset": 116300,
      "byteLength": 404
    },
    {
      "buffer": 0,
      "byteOffset": 116704,
      "byteLength": 1212
    },
    {
      "buffer": 0,
      "byteOffset": 117916,
      "byteLength": 404
    },
    {
      "buffer": 0,
      "byteOffset": 118320,
      "byteLength": 1616
    },
    {
      "buffer": 0,
      "byteOffset": 119936,
      "byteLength": 404
    },
    {
      "buffer": 0,
      "byteOffset": 120340,
      "byteLength": 1212
    },
    {
      "buffer": 0,
      "byteOffset": 121552,
      "byteLength": 404
    },
    {
      "buffer": 0,
      "byteOffset": 121956,
      "byteLength": 1616
    },
    {
      "buffer": 0,
      "byteOffset": 123572,
      "byteLength": 404
    },
    {
      "buffer": 0,
      "byteOffset": 123976,
      "byteLength": 1212
    },
    {
      "buffer": 0,
      "byteOffset": 125188,
      "byteLength": 404
    },
    {
      "buffer": 0,
      "byteOffset": 125592,
      "byteLength": 1616
    },
    {
      "buffer": 0,
      "byteOffset": 127208,
      "byteLength": 404
    },
    {
      "buffer": 0,
      "byteOffset": 127612,
      "byteLength": 1212
    },
    {
      "buffer": 0,
      "byteOffset": 128824,
      "byteLength": 404
    },
    {
      "buffer": 0,
      "byteOffset": 129228,
      "byteLength": 1616
    },
    {
      "buffer": 0,
      "byteOffset": 130844,
      "byteLength": 404
    },
    {
      "buffer": 0,
      "byteOffset": 131248,
      "byteLength": 1212
    },
    {
      "buffer": 0,
      "byteOffset": 132460,
      "byteLength": 404
    },
    {
      "buffer": 0,
      "byteOffset": 132864,
      "byteLength": 1616
    },
    {
      "buffer": 0,
      "byteOffset": 134480,
      "byteLength": 404
    },
    {
      "buffer": 0,
      "byteOffset": 134884,
      "byteLength": 1212
    },
    {
      "buffer": 0,
      "byteOffset": 136096,
      "byteLength": 404
    },
    {
      "buffer": 0,
      "byteOffset": 136500,
      "byteLength": 1616
    },
    {
      "buffer": 0,
      "byteOffset": 138116,
      "byteLength": 404
    },
    {
      "buffer": 0,
      "byteOffset": 138520,
      "byteLength": 1212
    },
    {
      "buffer": 0,
      "byteOffset": 139732,
      "byteLength": 404
    },
    {
      "buffer": 0,
      "byteOffset": 140136,
      "byteLength": 1616
    },
    {
      "buffer": 0,
      "byteOffset": 141752,
      "byteLength": 404
    },
    {
      "buffer": 0,
      "byteOffset": 142156,
      "byteLength": 1212
    },
    {
      "buffer": 0,
      "byteOffset": 143368,
      "byteLength": 404
    },
    {
      "buffer": 0,
      "byteOffset": 143772,
      "byteLength": 1616
    },
    {
      "buffer": 0,
      "byteOffset": 145388,
      "byteLength": 404
    },
    {
      "buffer": 0,
      "byteOffset": 145792,
      "byteLength": 1212
    },
    {
      "buffer": 0,
      "byteOffset": 147004,
      "byteLength": 404
    },
    {
      "buffer": 0,
      "byteOffset": 147408,
      "byteLength": 1616
    },
    {
      "buffer": 0,
      "byteOffset": 149024,
      "byteLength": 404
    },
    {
      "buffer": 0,
      "byteOffset": 149428,
      "byteLength": 1212
    },
    {
      "buffer": 0,
      "byteOffset": 150640,
      "byteLength": 404
    },
    {
      "buffer": 0,
      "byteOffset": 151044,
      "byteLength": 1616
    },
    {
      "buffer": 0,
      "byteOffset": 152660,
      "byteLength": 404
    },
    {
      "buffer": 0,
      "byteOffset": 153064,
      "byteLength": 1212
    },
    {
      "buffer": 0,
      "byteOffset": 154276,
      "byteLength": 404
    },
    {
      "buffer": 0,
      "byteOffset": 154680,
      "byteLength": 1616
    },
    {
      "buffer": 0,
      "byteOffset": 156296,
      "byteLength": 404
    },
    {
      "buffer": 0,
      "byteOffset": 156700,
      "byteLength": 1212
    },
    {
      "buffer": 0,
      "byteOffset": 157912,
      "byteLength": 404
    },
    {
      "buffer": 0,
      "byteOffset": 158316,
      "byteLength": 1616
    },
    {
      "buffer": 0,
      "byteOffset": 159932,
      "byteLength": 404
    },
    {
      "buffer": 0,
      "byteOffset": 160336,
      "byteLength": 1212
    },
    {
      "buffer": 0,
      "byteOffset": 161548,
      "byteLength": 404
    },
    {
      "buffer": 0,
      "byteOffset": 161952,
      "byteLength": 1616
    },
    {
      "buffer": 0,
      "byteOffset": 163568,
      "byteLength": 404
    },
    {
      "buffer": 0,
      "byteOffset": 163972,
      "byteLength": 1212
    },
    {
      "buffer": 0,
      "byteOffset": 165184,
      "byteLength": 404
    },
    {
      "buffer": 0,
      "byteOffset": 165588,
      "byteLength": 1616
    },
    {
      "buffer": 0,
      "byteOffset": 167204,
      "byteLength": 404
    },
    {
      "buffer": 0,
      "byteOffset": 167608,
      "byteLength": 1212
    },
    {
      "buffer": 0,
      "byteOffset": 168820,
      "byteLength": 404
    },
    {
      "buffer": 0,
      "byteOffset": 169224,
      "byteLength": 1616
    },
    {
      "buffer": 0,
      "byteOffset": 170840,
      "byteLength": 404
    },
    {
      "buffer": 0,
      "byteOffset": 171244,
      "byteLength": 1212
    },
    {
      "buffer": 0,
      "byteOffset": 172456,
      "byteLength": 404
    },
    {
      "buffer": 0,
      "byteOffset": 172860,
      "byteLength": 1616
    },
    {
      "buffer": 0,
      "byteOffset": 174476,
      "byteLength": 404
    },
    {
      "buffer": 0,
      "byteOffset": 174880,
      "byteLength": 1212
    },
    {
      "buffer": 0,
      "byteOffset": 176092,
      "byteLength": 404
    },
    {
      "buffer": 0,
      "byteOffset": 176496,
      "byteLength": 1616
    },
    {
      "buffer": 0,
      "byteOffset": 178112,
      "byteLength": 404
    },
    {
      "buffer": 0,
      "byteOffset": 178516,
      "byteLength": 1212
    },
    {
      "buffer": 0,
      "byteOffset": 179728,
      "byteLength": 404
    },
    {
      "buffer": 0,
      "byteOffset": 180132,
      "byteLength": 1616
    },
    {
      "buffer": 0,
      "byteOffset": 181748,
      "byteLength": 404
    },
    {
      "buffer": 0,
      "byteOffset": 182152,
      "byteLength": 1212
    },
    {
      "buffer": 0,
      "byteOffset": 183364,
      "byteLength": 404
    },
    {
      "buffer": 0,
      "byteOffset": 183768,
      "byteLength": 1616
    },
    {
      "buffer": 0,
      "byteOffset": 185384,
      "byteLength": 404
    },
    {
      "buffer": 0,
      "byteOffset": 185788,
      "byteLength": 1212
    },
    {
      "buffer": 0,
      "byteOffset": 187000,
      "byteLength": 404
    },
    {
      "buffer": 0,
      "byteOffset": 187404,
      "byteLength": 1616
    },
    {
      "buffer": 0,
      "byteOffset": 189020,
      "byteLength": 404
    },
    {
      "buffer": 0,
      "byteOffset": 189424,
      "byteLength": 1212
    },
    {
      "buffer": 0,
      "byteOffset": 190636,
      "byteLength": 404
    },
    {
      "buffer": 0,
      "byteOffset": 191040,
      "byteLength": 1616
    },
    {
      "buffer": 0,
      "byteOffset": 192656,
      "byteLength": 404
    },
    {
      "buffer": 0,
      "byteOffset": 193060,
      "byteLength": 1212
    }
  ],
  "accessors": [
    {
      "bufferView": 0,
      "componentType": 5126,
      "count": 226,
      "type": "VEC3",
      "min": [
        -0.11998559236526489,
        0.0,
        -0.4094554424285889
      ],
      "max": [
        0.10028285980224609,
        0.5864171823486686,
        0.36110939979553225
      ]
    },
    {
      "bufferView": 1,
      "componentType": 5126,
      "count": 226,
      "type": "VEC2"
    },
    {
      "bufferView": 2,
      "componentType": 5121,
      "count": 226,
      "type": "VEC4"
    },
    {
      "bufferView": 3,
      "componentType": 5126,
      "count": 226,
      "type": "VEC4"
    },
    {
      "bufferView": 4,
      "componentType": 5123,
      "count": 318,
      "type": "SCALAR"
    },
    {
      "bufferView": 5,
      "componentType": 5126,
      "count": 4,
      "type": "VEC3",
      "min": [
        -0.11978282928466796,
        0.0,
        -0.006972190737724304
      ],
      "max": [
        -0.022046658396720886,
        0.02443405594676733,
        -0.006874644011259079
      ]
    },
    {
      "bufferView": 6,
      "componentType": 5126,
      "count": 4,
      "type": "VEC2"
    },
    {
      "bufferView": 7,
      "componentType": 5121,
      "count": 4,
      "type": "VEC4"
    },
    {
      "bufferView": 8,
      "componentType": 5126,
      "count": 4,
      "type": "VEC4"
    },
    {
      "bufferView": 9,
      "componentType": 5123,
      "count": 6,
      "type": "SCALAR"
    },
    {
      "bufferView": 10,
      "componentType": 5126,
      "count": 182,
      "type": "VEC3",
      "min": [
        -0.11998559236526489,
        0.0,
        -0.31915898323059083
      ],
      "max": [
        0.10028285980224609,
        0.5864172300323843,
        0.3122412204742432
      ]
    },
    {
      "bufferView": 11,
      "componentType": 5126,
      "count": 182,
      "type": "VEC2"
    },
    {
      "bufferView": 12,
      "componentType": 5121,
      "count": 182,
      "type": "VEC4"
    },
    {
      "bufferView": 13,
      "componentType": 5126,
      "count": 182,
      "type": "VEC4"
    },
    {
      "bufferView": 14,
      "componentType": 5123,
      "count": 252,
      "type": "SCALAR"
    },
    {
      "bufferView": 15,
      "componentType": 5126,
      "count": 33,
      "type": "MAT4"
    },
    {
      "bufferView": 16,
      "componentType": 5126,
      "count": 101,
      "type": "SCALAR",
      "min": [
        0.0
      ],
      "max": [
        0.7692307692307693
      ]
    },
    {
      "bufferView": 17,
      "componentType": 5126,
      "count": 101,
      "type": "VEC4"
    },
    {
      "bufferView": 18,
      "componentType": 5126,
      "count": 101,
      "type": "SCALAR",
      "min": [
        0.0
      ],
      "max": [
        0.7692307692307693
      ]
    },
    {
      "bufferView": 19,
      "componentType": 5126,
      "count": 101,
      "type": "VEC3"
    },
    {
      "bufferView": 20,
      "componentType": 5126,
      "count": 101,
      "type": "SCALAR",
      "min": [
        0.0
      ],
      "max": [
        0.7692307692307693
      ]
    },
    {
      "bufferView": 21,
      "componentType": 5126,
      "count": 101,
      "type": "VEC4"
    },
    {
      "bufferView": 22,
      "componentType": 5126,
      "count": 101,
      "type": "SCALAR",
      "min": [
        0.0
      ],
      "max": [
        0.7692307692307693
      ]
    },
    {
      "bufferView": 23,
      "componentType": 5126,
      "count": 101,
      "type": "VEC3"
    },
    {
      "bufferView": 24,
      "componentType": 5126,
      "count": 101,
      "type": "SCALAR",
      "min": [
        0.0
      ],
      "max": [
        0.7692307692307693
      ]
    },
    {
      "bufferView": 25,
      "componentType": 5126,
      "count": 101,
      "type": "VEC4"
    },
    {
      "bufferView": 26,
      "componentType": 5126,
      "count": 101,
      "type": "SCALAR",
      "min": [
        0.0
      ],
      "max": [
        0.7692307692307693
      ]
    },
    {
      "bufferView": 27,
      "componentType": 5126,
      "count": 101,
      "type": "VEC3"
    },
    {
      "bufferView": 28,
      "componentType": 5126,
      "count": 101,
      "type": "SCALAR",
      "min": [
        0.0
      ],
      "max": [
        0.7692307692307693
      ]
    },
    {
      "bufferView": 29,
      "componentType": 5126,
      "count": 101,
      "type": "VEC4"
    },
    {
      "bufferView": 30,
      "componentType": 5126,
      "count": 101,
      "type": "SCALAR",
      "min": [
        0.0
      ],
      "max": [
        0.7692307692307693
      ]
    },
    {
      "bufferView": 31,
      "componentType": 5126,
      "count": 101,
      "type": "VEC3"
    },
    {
      "bufferView": 32,
      "componentType": 5126,
      "count": 101,
      "type": "SCALAR",
      "min": [
        0.0
      ],
      "max": [
        0.7692307692307693
      ]
    },
    {
      "bufferView": 33,
      "componentType": 5126,
      "count": 101,
      "type": "VEC4"
    },
    {
      "bufferView": 34,
      "componentType": 5126,
      "count": 101,
      "type": "SCALAR",
      "min": [
        0.0
      ],
      "max": [
        0.7692307692307693
      ]
    },
    {
      "bufferView": 35,
      "componentType": 5126,
      "count": 101,
      "type": "VEC3"
    },
    {
      "bufferView": 36,
      "componentType": 5126,
      "count": 101,
      "type": "SCALAR",
      "min": [
        0.0
      ],
      "max": [
        0.7692307692307693
      ]
    },
    {
      "bufferView": 37,
      "componentType": 5126,
      "count": 101,
      "type": "VEC4"
    },
    {
      "bufferView": 38,
      "componentType": 5126,
      "count": 101,
      "type": "SCALAR",
      "min": [
        0.0
      ],
      "max": [
        0.7692307692307693
      ]
    },
    {
      "bufferView": 39,
      "componentType": 5126,
      "count": 101,
      "type": "VEC3"
    },
    {
      "bufferView": 40,
      "componentType": 5126,
      "count": 101,
      "type": "SCALAR",
      "min": [
        0.0
      ],
      "max": [
        0.7692307692307693
      ]
    },
    {
      "bufferView": 41,
      "componentType": 5126,
      "count": 101,
      "type": "VEC4"
    },
    {
      "bufferView": 42,
      "componentType": 5126,
      "count": 101,
      "type": "SCALAR",
      "min": [
        0.0
      ],
      "max": [
        0.7692307692307693
      ]
    },
    {
      "bufferView": 43,
      "componentType": 5126,
      "count": 101,
      "type": "VEC3"
    },
    {
      "bufferView": 44,
      "componentType": 5126,
      "count": 101,
      "type": "SCALAR",
      "min": [
        0.0
      ],
      "max": [
        0.7692307692307693
      ]
    },
    {
      "bufferView": 45,
      "componentType": 5126,
      "count": 101,
      "type": "VEC4"
    },
    {
      "bufferView": 46,
      "componentType": 5126,
      "count": 101,
      "type": "SCALAR",
      "min": [
        0.0
      ],
      "max": [
        0.7692307692307693
      ]
    },
    {
      "bufferView": 47,
      "componentType": 5126,
      "count": 101,
      "type": "VEC3"
    },
    {
      "bufferView": 48,
      "componentType": 5126,
      "count": 101,
      "type": "SCALAR",
      "min": [
        0.0
      ],
      "max": [
        0.7692307692307693
      ]
    },
    {
      "bufferView": 49,
      "componentType": 5126,
      "count": 101,
      "type": "VEC4"
    },
    {
      "bufferView": 50,
      "componentType": 5126,
      "count": 101,
      "type": "SCALAR",
      "min": [
        0.0
      ],
      "max": [
        0.7692307692307693
      ]
    },
    {
      "bufferView": 51,
      "componentType": 5126,
      "count": 101,
      "type": "VEC3"
    },
    {
      "bufferView": 52,
      "componentType": 5126,
      "count": 101,
      "type": "SCALAR",
      "min": [
        0.0
      ],
      "max": [
        0.7692307692307693
      ]
    },
    {
      "bufferView": 53,
      "componentType": 5126,
      "count": 101,
      "type": "VEC4"
    },
    {
      "bufferView": 54,
      "componentType": 5126,
      "count": 101,
      "type": "SCALAR",
      "min": [
        0.0
      ],
      "max": [
        0.7692307692307693
      ]
    },
    {
      "bufferView": 55,
      "componentType": 5126,
      "count": 101,
      "type": "VEC3"
    },
    {
      "bufferView": 56,
      "componentType": 5126,
      "count": 101,
      "type": "SCALAR",
      "min": [
        0.0
      ],
      "max": [
        0.7692307692307693
      ]
    },
    {
      "bufferView": 57,
      "componentType": 5126,
      "count": 101,
      "type": "VEC4"
    },
    {
      "bufferView": 58,
      "componentType": 5126,
      "count": 101,
      "type": "SCALAR",
      "min": [
        0.0
      ],
      "max": [
        0.7692307692307693
      ]
    },
    {
      "bufferView": 59,
      "componentType": 5126,
      "count": 101,
      "type": "VEC3"
    },
    {
      "bufferView": 60,
      "componentType": 5126,
      "count": 101,
      "type": "SCALAR",
      "min": [
        0.0
      ],
      "max": [
        0.7692307692307693
      ]
    },
    {
      "bufferView": 61,
      "componentType": 5126,
      "count": 101,
      "type": "VEC4"
    },
    {
      "bufferView": 62,
      "componentType": 5126,
      "count": 101,
      "type": "SCALAR",
      "min": [
        0.0
      ],
      "max": [
        0.7692307692307693
      ]
    },
    {
      "bufferView": 63,
      "componentType": 5126,
      "count": 101,
      "type": "VEC3"
    },
    {
      "bufferView": 64,
      "componentType": 5126,
      "count": 101,
      "type": "SCALAR",
      "min": [
        0.0
      ],
      "max": [
        0.7692307692307693
      ]
    },
    {
      "bufferView": 65,
      "componentType": 5126,
      "count": 101,
      "type": "VEC4"
    },
    {
      "bufferView": 66,
      "componentType": 5126,
      "count": 101,
      "type": "SCALAR",
      "min": [
        0.0
      ],
      "max": [
        0.7692307692307693
      ]
    },
    {
      "bufferView": 67,
      "componentType": 5126,
      "count": 101,
      "type": "VEC3"
    },
    {
      "bufferView": 68,
      "componentType": 5126,
      "count": 101,
      "type": "SCALAR",
      "min": [
        0.0
      ],
      "max": [
        0.7692307692307693
      ]
    },
    {
      "bufferView": 69,
      "componentType": 5126,
      "count": 101,
      "type": "VEC4"
    },
    {
      "bufferView": 70,
      "componentType": 5126,
      "count": 101,
      "type": "SCALAR",
      "min": [
        0.0
      ],
      "max": [
        0.7692307692307693
      ]
    },
    {
      "bufferView": 71,
      "componentType": 5126,
      "count": 101,
      "type": "VEC3"
    },
    {
      "bufferView": 72,
      "componentType": 5126,
      "count": 101,
      "type": "SCALAR",
      "min": [
        0.0
      ],
      "max": [
        0.7692307692307693
      ]
    },
    {
      "bufferView": 73,
      "componentType": 5126,
      "count": 101,
      "type": "VEC4"
    },
    {
      "bufferView": 74,
      "componentType": 5126,
      "count": 101,
      "type": "SCALAR",
      "min": [
        0.0
      ],
      "max": [
        0.7692307692307693
      ]
    },
    {
      "bufferView": 75,
      "componentType": 5126,
      "count": 101,
      "type": "VEC3"
    },
    {
      "bufferView": 76,
      "componentType": 5126,
      "count": 101,
      "type": "SCALAR",
      "min": [
        0.0
      ],
      "max": [
        0.7692307692307693
      ]
    },
    {
      "bufferView": 77,
      "componentType": 5126,
      "count": 101,
      "type": "VEC4"
    },
    {
      "bufferView": 78,
      "componentType": 5126,
      "count": 101,
      "type": "SCALAR",
      "min": [
        0.0
      ],
      "max": [
        0.7692307692307693
      ]
    },
    {
      "bufferView": 79,
      "componentType": 5126,
      "count": 101,
      "type": "VEC3"
    },
    {
      "bufferView": 80,
      "componentType": 5126,
      "count": 101,
      "type": "SCALAR",
      "min": [
        0.0
      ],
      "max": [
        0.7692307692307693
      ]
    },
    {
      "bufferView": 81,
      "componentType": 5126,
      "count": 101,
      "type": "VEC4"
    },
    {
      "bufferView": 82,
      "componentType": 5126,
      "count": 101,
      "type": "SCALAR",
      "min": [
        0.0
      ],
      "max": [
        0.7692307692307693
      ]
    },
    {
      "bufferView": 83,
      "componentType": 5126,
      "count": 101,
      "type": "VEC3"
    },
    {
      "bufferView": 84,
      "componentType": 5126,
      "count": 101,
      "type": "SCALAR",
      "min": [
        0.0
      ],
      "max": [
        0.7692307692307693
      ]
    },
    {
      "bufferView": 85,
      "componentType": 5126,
      "count": 101,
      "type": "VEC4"
    },
    {
      "bufferView": 86,
      "componentType": 5126,
      "count": 101,
      "type": "SCALAR",
      "min": [
        0.0
      ],
      "max": [
        0.7692307692307693
      ]
    },
    {
      "bufferView": 87,
      "componentType": 5126,
      "count": 101,
      "type": "VEC3"
    },
    {
      "bufferView": 88,
      "componentType": 5126,
      "count": 101,
      "type": "SCALAR",
      "min": [
        0.0
      ],
      "max": [
        0.7692307692307693
      ]
    },
    {
      "bufferView": 89,
      "componentType": 5126,
      "count": 101,
      "type": "VEC4"
    },
    {
      "bufferView": 90,
      "componentType": 5126,
      "count": 101,
      "type": "SCALAR",
      "min": [
        0.0
      ],
      "max": [
        0.7692307692307693
      ]
    },
    {
      "bufferView": 91,
      "componentType": 5126,
      "count": 101,
      "type": "VEC3"
    },
    {
      "bufferView": 92,
      "componentType": 5126,
      "count": 101,
      "type": "SCALAR",
      "min": [
        0.0
      ],
      "max": [
        0.7692307692307693
      ]
    },
    {
      "bufferView": 93,
      "componentType": 5126,
      "count": 101,
      "type": "VEC4"
    },
    {
      "bufferView": 94,
      "componentType": 5126,
      "count": 101,
      "type": "SCALAR",
      "min": [
        0.0
      ],
      "max": [
        0.7692307692307693
      ]
    },
    {
      "bufferView": 95,
      "componentType": 5126,
      "count": 101,
      "type": "VEC3"
    },
    {
      "bufferView": 96,
      "componentType": 5126,
      "count": 101,
      "type": "SCALAR",
      "min": [
        0.0
      ],
      "max": [
        0.7692307692307693
      ]
    },
    {
      "bufferView": 97,
      "componentType": 5126,
      "count": 101,
      "type": "VEC4"
    },
    {
      "bufferView": 98,
      "componentType": 5126,
      "count": 101,
      "type": "SCALAR",
      "min": [
        0.0
      ],
      "max": [
        0.7692307692307693
      ]
    },
    {
      "bufferView": 99,
      "componentType": 5126,
      "count": 101,
      "type": "VEC3"
    },
    {
      "bufferView": 100,
      "componentType": 5126,
      "count": 101,
      "type": "SCALAR",
      "min": [
        0.0
      ],
      "max": [
        0.7692307692307693
      ]
    },
    {
      "bufferView": 101,
      "componentType": 5126,
      "count": 101,
      "type": "VEC4"
    },
    {
      "bufferView": 102,
      "componentType": 5126,
      "count": 101,
      "type": "SCALAR",
      "min": [
        0.0
      ],
      "max": [
        0.7692307692307693
      ]
    },
    {
      "bufferView": 103,
      "componentType": 5126,
      "count": 101,
      "type": "VEC3"
    },
    {
      "bufferView": 104,
      "componentType": 5126,
      "count": 101,
      "type": "SCALAR",
      "min": [
        0.0
      ],
      "max": [
        0.7692307692307693
      ]
    },
    {
      "bufferView": 105,
      "componentType": 5126,
      "count": 101,
      "type": "VEC4"
    },
    {
      "bufferView": 106,
      "componentType": 5126,
      "count": 101,
      "type": "SCALAR",
      "min": [
        0.0
      ],
      "max": [
        0.7692307692307693
      ]
    },
    {
      "bufferView": 107,
      "componentType": 5126,
      "count": 101,
      "type": "VEC3"
    },
    {
      "bufferView": 108,
      "componentType": 5126,
      "count": 101,
      "type": "SCALAR",
      "min": [
        0.0
      ],
      "max": [
        0.7692307692307693
      ]
    },
    {
      "bufferView": 109,
      "componentType": 5126,
      "count": 101,
      "type": "VEC4"
    },
    {
      "bufferView": 110,
      "componentType": 5126,
      "count": 101,
      "type": "SCALAR",
      "min": [
        0.0
      ],
      "max": [
        0.7692307692307693
      ]
    },
    {
      "bufferView": 111,
      "componentType": 5126,
      "count": 101,
      "type": "VEC3"
    },
    {
      "bufferView": 112,
      "componentType": 5126,
      "count": 101,
      "type": "SCALAR",
      "min": [
        0.0
      ],
      "max": [
        0.7692307692307693
      ]
    },
    {
      "bufferView": 113,
      "componentType": 5126,
      "count": 101,
      "type": "VEC4"
    },
    {
      "bufferView": 114,
      "componentType": 5126,
      "count": 101,
      "type": "SCALAR",
      "min": [
        0.0
      ],
      "max": [
        0.7692307692307693
      ]
    },
    {
      "bufferView": 115,
      "componentType": 5126,
      "count": 101,
      "type": "VEC3"
    },
    {
      "bufferView": 116,
      "componentType": 5126,
      "count": 101,
      "type": "SCALAR",
      "min": [
        0.0
      ],
      "max": [
        0.7692307692307693
      ]
    },
    {
      "bufferView": 117,
      "componentType": 5126,
      "count": 101,
      "type": "VEC4"
    },
    {
      "bufferView": 118,
      "componentType": 5126,
      "count": 101,
      "type": "SCALAR",
      "min": [
        0.0
      ],
      "max": [
        0.7692307692307693
      ]
    },
    {
      "bufferView": 119,
      "componentType": 5126,
      "count": 101,
      "type": "VEC3"
    },
    {
      "bufferView": 120,
      "componentType": 5126,
      "count": 101,
      "type": "SCALAR",
      "min": [
        0.0
      ],
      "max": [
        0.7692307692307693
      ]
    },
    {
      "bufferView": 121,
      "componentType": 5126,
      "count": 101,
      "type": "VEC4"
    },
    {
      "bufferView": 122,
      "componentType": 5126,
      "count": 101,
      "type": "SCALAR",
      "min": [
        0.0
      ],
      "max": [
        0.7692307692307693
      ]
    },
    {
      "bufferView": 123,
      "componentType": 5126,
      "count": 101,
      "type": "VEC3"
    },
    {
      "bufferView": 124,
      "componentType": 5126,
      "count": 101,
      "type": "SCALAR",
      "min": [
        0.0
      ],
      "max": [
        0.7692307692307693
      ]
    },
    {
      "bufferView": 125,
      "componentType": 5126,
      "count": 101,
      "type": "VEC4"
    },
    {
      "bufferView": 126,
      "componentType": 5126,
      "count": 101,
      "type": "SCALAR",
      "min": [
        0.0
      ],
      "max": [
        0.7692307692307693
      ]
    },
    {
      "bufferView": 127,
      "componentType": 5126,
      "count": 101,
      "type": "VEC3"
    },
    {
      "bufferView": 128,
      "componentType": 5126,
      "count": 101,
      "type": "SCALAR",
      "min": [
        0.0
      ],
      "max": [
        0.7692307692307693
      ]
    },
    {
      "bufferView": 129,
      "componentType": 5126,
      "count": 101,
      "type": "VEC4"
    },
    {
      "bufferView": 130,
      "componentType": 5126,
      "count": 101,
      "type": "SCALAR",
      "min": [
        0.0
      ],
      "max": [
        0.7692307692307693
      ]
    },
    {
      "bufferView": 131,
      "componentType": 5126,
      "count": 101,
      "type": "VEC3"
    },
    {
      "bufferView": 132,
      "componentType": 5126,
      "count": 101,
      "type": "SCALAR",
      "min": [
        0.0
      ],
      "max": [
        0.7692307692307693
      ]
    },
    {
      "bufferView": 133,
      "componentType": 5126,
      "count": 101,
      "type": "VEC4"
    },
    {
      "bufferView": 134,
      "componentType": 5126,
      "count": 101,
      "type": "SCALAR",
      "min": [
        0.0
      ],
      "max": [
        0.7692307692307693
      ]
    },
    {
      "bufferView": 135,
      "componentType": 5126,
      "count": 101,
      "type": "VEC3"
    },
    {
      "bufferView": 136,
      "componentType": 5126,
      "count": 101,
      "type": "SCALAR",
      "min": [
        0.0
      ],
      "max": [
        0.7692307692307693
      ]
    },
    {
      "bufferView": 137,
      "componentType": 5126,
      "count": 101,
      "type": "VEC4"
    },
    {
      "bufferView": 138,
      "componentType": 5126,
      "count": 101,
      "type": "SCALAR",
      "min": [
        0.0
      ],
      "max": [
        0.7692307692307693
      ]
    },
    {
      "bufferView": 139,
      "componentType": 5126,
      "count": 101,
      "type": "VEC3"
    },
    {
      "bufferView": 140,
      "componentType": 5126,
      "count": 101,
      "type": "SCALAR",
      "min": [
        0.0
      ],
      "max": [
        0.7692307692307693
      ]
    },
    {
      "bufferView": 141,
      "componentType": 5126,
      "count": 101,
      "type": "VEC4"
    },
    {
      "bufferView": 142,
      "componentType": 5126,
      "count": 101,
      "type": "SCALAR",
      "min": [
        0.0
      ],
      "max": [
        0.7692307692307693
      ]
    },
    {
      "bufferView": 143,
      "componentType": 5126,
      "count": 101,
      "type": "VEC3"
    },
    {
      "bufferView": 144,
      "componentType": 5126,
      "count": 101,
      "type": "SCALAR",
      "min": [
        0.0
      ],
      "max": [
        0.7692307692307693
      ]
    },
    {
      "bufferView": 145,
      "componentType": 5126,
      "count": 101,
      "type": "VEC4"
    },
    {
      "bufferView": 146,
      "componentType": 5126,
      "count": 101,
      "type": "SCALAR",
      "min": [
        0.0
      ],
      "max": [
        0.7692307692307693
      ]
    },
    {
      "bufferView": 147,
      "componentType": 5126,
      "count": 101,
      "type": "VEC3"
    },
    {
      "bufferView": 148,
      "componentType": 5126,
      "count": 101,
      "type": "SCALAR",
      "min": [
        0.0
      ],
      "max": [
        0.7692307692307693
      ]
    },
    {
      "bufferView": 149,
      "componentType": 5126,
      "count": 101,
      "type": "VEC4"
    },
    {
      "bufferView": 150,
      "componentType": 5126,
      "count": 101,
      "type": "SCALAR",
      "min": [
        0.0
      ],
      "max": [
        0.7692307692307693
      ]
    },
    {
      "bufferView": 151,
      "componentType": 5126,
      "count": 101,
      "type": "VEC3"
    },
    {
      "bufferView": 152,
      "componentType": 5126,
      "count": 101,
      "type": "SCALAR",
      "min": [
        0.0
      ],
      "max": [
        0.7692307692307693
      ]
    },
    {
      "bufferView": 153,
      "componentType": 5126,
      "count": 101,
      "type": "VEC4"
    },
    {
      "bufferView": 154,
      "componentType": 5126,
      "count": 101,
      "type": "SCALAR",
      "min": [
        0.0
      ],
      "max": [
        0.7692307692307693
      ]
    },
    {
      "bufferView": 155,
      "componentType": 5126,
      "count": 101,
      "type": "VEC3"
    },
    {
      "bufferView": 156,
      "componentType": 5126,
      "count": 101,
      "type": "SCALAR",
      "min": [
        0.0
      ],
      "max": [
        0.7692307692307693
      ]
    },
    {
      "bufferView": 157,
      "componentType": 5126,
      "count": 101,
      "type": "VEC4"
    },
    {
      "bufferView": 158,
      "componentType": 5126,
      "count": 101,
      "type": "SCALAR",
      "min": [
        0.0
      ],
      "max": [
        0.7692307692307693
      ]
    },
    {
      "bufferView": 159,
      "componentType": 5126,
      "count": 101,
      "type": "VEC3"
    },
    {
      "bufferView": 160,
      "componentType": 5126,
      "count": 101,
      "type": "SCALAR",
      "min": [
        0.0
      ],
      "max": [
        0.7692307692307693
      ]
    },
    {
      "bufferView": 161,
      "componentType": 5126,
      "count": 101,
      "type": "VEC4"
    },
    {
      "bufferView": 162,
      "componentType": 5126,
      "count": 101,
      "type": "SCALAR",
      "min": [
        0.0
      ],
      "max": [
        0.7692307692307693
      ]
    },
    {
      "bufferView": 163,
      "componentType": 5126,
      "count": 101,
      "type": "VEC3"
    },
    {
      "bufferView": 164,
      "componentType": 5126,
      "count": 101,
      "type": "SCALAR",
      "min": [
        0.0
      ],
      "max": [
        0.7692307692307693
      ]
    },
    {
      "bufferView": 165,
      "componentType": 5126,
      "count": 101,
      "type": "VEC4"
    },
    {
      "bufferView": 166,
      "componentType": 5126,
      "count": 101,
      "type": "SCALAR",
      "min": [
        0.0
      ],
      "max": [
        0.7692307692307693
      ]
    },
    {
      "bufferView": 167,
      "componentType": 5126,
      "count": 101,
      "type": "VEC3"
    },
    {
      "bufferView": 168,
      "componentType": 5126,
      "count": 101,
      "type": "SCALAR",
      "min": [
        0.0
      ],
      "max": [
        0.7692307692307693
      ]
    },
    {
      "bufferView": 169,
      "componentType": 5126,
      "count": 101,
      "type": "VEC4"
    },
    {
      "bufferView": 170,
      "componentType": 5126,
      "count": 101,
      "type": "SCALAR",
      "min": [
        0.0
      ],
      "max": [
        0.7692307692307693
      ]
    },
    {
      "bufferView": 171,
      "componentType": 5126,
      "count": 101,
      "type": "VEC3"
    },
    {
      "bufferView": 172,
      "componentType": 5126,
      "count": 101,
      "type": "SCALAR",
      "min": [
        0.0
      ],
      "max": [
        0.7692307692307693
      ]
    },
    {
      "bufferView": 173,
      "componentType": 5126,
      "count": 101,
      "type": "VEC4"
    },
    {
      "bufferView": 174,
      "componentType": 5126,
      "count": 101,
      "type": "SCALAR",
      "min": [
        0.0
      ],
      "max": [
        0.7692307692307693
      ]
    },
    {
      "bufferView": 175,
      "componentType": 5126,
      "count": 101,
      "type": "VEC3"
    },
    {
      "bufferView": 176,
      "componentType": 5126,
      "count": 101,
      "type": "SCALAR",
      "min": [
        0.0
      ],
      "max": [
        0.7692307692307693
      ]
    },
    {
      "bufferView": 177,
      "componentType": 5126,
      "count": 101,
      "type": "VEC4"
    },
    {
      "bufferView": 178,
      "componentType": 5126,
      "count": 101,
      "type": "SCALAR",
      "min": [
        0.0
      ],
      "max": [
        0.7692307692307693
      ]
    },
    {
      "bufferView": 179,
      "componentType": 5126,
      "count": 101,
      "type": "VEC3"
    },
    {
      "bufferView": 180,
      "componentType": 5126,
      "count": 101,
      "type": "SCALAR",
      "min": [
        0.0
      ],
      "max": [
        0.7692307692307693
      ]
    },
    {
      "bufferView": 181,
      "componentType": 5126,
      "count": 101,
      "type": "VEC4"
    },
    {
      "bufferView": 182,
      "componentType": 5126,
      "count": 101,
      "type": "SCALAR",
      "min": [
        0.0
      ],
      "max": [
        0.7692307692307693
      ]
    },
    {
      "bufferView": 183,
      "componentType": 5126,
      "count": 101,
      "type": "VEC3"
    },
    {
      "bufferView": 184,
      "componentType": 5126,
      "count": 101,
      "type": "SCALAR",
      "min": [
        0.0
      ],
      "max": [
        0.7692307692307693
      ]
    },
    {
      "bufferView": 185,
      "componentType": 5126,
      "count": 101,
      "type": "VEC4"
    },
    {
      "bufferView": 186,
      "componentType": 5126,
      "count": 101,
      "type": "SCALAR",
      "min": [
        0.0
      ],
      "max": [
        0.7692307692307693
      ]
    },
    {
      "bufferView": 187,
      "componentType": 5126,
      "count": 101,
      "type": "VEC3"
    },
    {
      "bufferView": 188,
      "componentType": 5126,
      "count": 101,
      "type": "SCALAR",
      "min": [
        0.0
      ],
      "max": [
        0.7692307692307693
      ]
    },
    {
      "bufferView": 189,
      "componentType": 5126,
      "count": 101,
      "type": "VEC4"
    },
    {
      "bufferView": 190,
      "componentType": 5126,
      "count": 101,
      "type": "SCALAR",
      "min": [
        0.0
      ],
      "max": [
        0.7692307692307693
      ]
    },
    {
      "bufferView": 191,
      "componentType": 5126,
      "count": 101,
      "type": "VEC3"
    },
    {
      "bufferView": 192,
      "componentType": 5126,
      "count": 101,
      "type": "SCALAR",
      "min": [
        0.0
      ],
      "max": [
        0.7692307692307693
      ]
    },
    {
      "bufferView": 193,
      "componentType": 5126,
      "count": 101,
      "type": "VEC4"
    },
    {
      "bufferView": 194,
      "componentType": 5126,
      "count": 101,
      "type": "SCALAR",
      "min": [
        0.0
      ],
      "max": [
        0.7692307692307693
      ]
    },
    {
      "bufferView": 195,
      "componentType": 5126,
      "count": 101,
      "type": "VEC3"
    },
    {
      "bufferView": 196,
      "componentType": 5126,
      "count": 101,
      "type": "SCALAR",
      "min": [
        0.0
      ],
      "max": [
        0.7692307692307693
      ]
    },
    {
      "bufferView": 197,
      "componentType": 5126,
      "count": 101,
      "type": "VEC4"
    },
    {
      "bufferView": 198,
      "componentType": 5126,
      "count": 101,
      "type": "SCALAR",
      "min": [
        0.0
      ],
      "max": [
        0.7692307692307693
      ]
    },
    {
      "bufferView": 199,
      "componentType": 5126,
      "count": 101,
      "type": "VEC3"
    },
    {
      "bufferView": 200,
      "componentType": 5126,
      "count": 101,
      "type": "SCALAR",
      "min": [
        0.0
      ],
      "max": [
        0.7692307692307693
      ]
    },
    {
      "bufferView": 201,
      "componentType": 5126,
      "count": 101,
      "type": "VEC4"
    },
    {
      "bufferView": 202,
      "componentType": 5126,
      "count": 101,
      "type": "SCALAR",
      "min": [
        0.0
      ],
      "max": [
        0.7692307692307693
      ]
    },
    {
      "bufferView": 203,
      "componentType": 5126,
      "count": 101,
      "type": "VEC3"
    },
    {
      "bufferView": 204,
      "componentType": 5126,
      "count": 101,
      "type": "SCALAR",
      "min": [
        0.0
      ],
      "max": [
        0.7692307692307693
      ]
    },
    {
      "bufferView": 205,
      "componentType": 5126,
      "count": 101,
      "type": "VEC4"
    },
    {
      "bufferView": 206,
      "componentType": 5126,
      "count": 101,
      "type": "SCALAR",
      "min": [
        0.0
      ],
      "max": [
        0.7692307692307693
      ]
    },
    {
      "bufferView": 207,
      "componentType": 5126,
      "count": 101,
      "type": "VEC3"
    }
  ],
  "animations": [
    {
      "name": "idle",
      "channels": [
        {
          "sampler": 0,
          "target": {
            "node": 3,
            "path": "rotation"
          }
        },
        {
          "sampler": 1,
          "target": {
            "node": 3,
            "path": "translation"
          }
        },
        {
          "sampler": 2,
          "target": {
            "node": 5,
            "path": "rotation"
          }
        },
        {
          "sampler": 3,
          "target": {
            "node": 5,
            "path": "translation"
          }
        },
        {
          "sampler": 4,
          "target": {
            "node": 7,
            "path": "rotation"
          }
        },
        {
          "sampler": 5,
          "target": {
            "node": 7,
            "path": "translation"
          }
        },
        {
          "sampler": 6,
          "target": {
            "node": 9,
            "path": "rotation"
          }
        },
        {
          "sampler": 7,
          "target": {
            "node": 9,
            "path": "translation"
          }
        },
        {
          "sampler": 8,
          "target": {
            "node": 11,
            "path": "rotation"
          }
        },
        {
          "sampler": 9,
          "target": {
            "node": 11,
            "path": "translation"
          }
        },
        {
          "sampler": 10,
          "target": {
            "node": 13,
            "path": "rotation"
          }
        },
        {
          "sampler": 11,
          "target": {
            "node": 13,
            "path": "translation"
          }
        },
        {
          "sampler": 12,
          "target": {
            "node": 15,
            "path": "rotation"
          }
        },
        {
          "sampler": 13,
          "target": {
            "node": 15,
            "path": "translation"
          }
        },
        {
          "sampler": 14,
          "target": {
            "node": 17,
            "path": "rotation"
          }
        },
        {
          "sampler": 15,
          "target": {
            "node": 17,
            "path": "translation"
          }
        },
        {
          "sampler": 16,
          "target": {
            "node": 19,
            "path": "rotation"
          }
        },
        {
          "sampler": 17,
          "target": {
            "node": 19,
            "path": "translation"
          }
        },
        {
          "sampler": 18,
          "target": {
            "node": 21,
            "path": "rotation"
          }
        },
        {
          "sampler": 19,
          "target": {
            "node": 21,
            "path": "translation"
          }
        },
        {
          "sampler": 20,
          "target": {
            "node": 23,
            "path": "rotation"
          }
        },
        {
          "sampler": 21,
          "target": {
            "node": 23,
            "path": "translation"
          }
        },
        {
          "sampler": 22,
          "target": {
            "node": 25,
            "path": "rotation"
          }
        },
        {
          "sampler": 23,
          "target": {
            "node": 25,
            "path": "translation"
          }
        },
        {
          "sampler": 24,
          "target": {
            "node": 27,
            "path": "rotation"
          }
        },
        {
          "sampler": 25,
          "target": {
            "node": 27,
            "path": "translation"
          }
        },
        {
          "sampler": 26,
          "target": {
            "node": 29,
            "path": "rotation"
          }
        },
        {
          "sampler": 27,
          "target": {
            "node": 29,
            "path": "translation"
          }
        },
        {
          "sampler": 28,
          "target": {
            "node": 31,
            "path": "rotation"
          }
        },
        {
          "sampler": 29,
          "target": {
            "node": 31,
            "path": "translation"
          }
        },
        {
          "sampler": 30,
          "target": {
            "node": 33,
            "path": "rotation"
          }
        },
        {
          "sampler": 31,
          "target": {
            "node": 33,
            "path": "translation"
          }
        }
      ],
      "samplers": [
        {
          "input": 16,
          "interpolation": "LINEAR",
          "output": 17
        },
        {
          "input": 18,
          "interpolation": "LINEAR",
          "output": 19
        },
        {
          "input": 20,
          "interpolation": "LINEAR",
          "output": 21
        },
        {
          "input": 22,
          "interpolation": "LINEAR",
          "output": 23
        },
        {
          "input": 24,
          "interpolation": "LINEAR",
          "output": 25
        },
        {
          "input": 26,
          "interpolation": "LINEAR",
          "output": 27
        },
        {
          "input": 28,
          "interpolation": "LINEAR",
          "output": 29
        },
        {
          "input": 30,
          "interpolation": "LINEAR",
          "output": 31
        },
        {
          "input": 32,
          "interpolation": "LINEAR",
          "output": 33
        },
        {
          "input": 34,
          "interpolation": "LINEAR",
          "output": 35
        },
        {
          "input": 36,
          "interpolation": "LINEAR",
          "output": 37
        },
        {
          "input": 38,
          "interpolation": "LINEAR",
          "output": 39
        },
        {
          "input": 40,
          "interpolation": "LINEAR",
          "output": 41
        },
        {
          "input": 42,
          "interpolation": "LINEAR",
          "output": 43
        },
        {
          "input": 44,
          "interpolation": "LINEAR",
          "output": 45
        },
        {
          "input": 46,
          "interpolation": "LINEAR",
          "output": 47
        },
        {
          "input": 48,
          "interpolation": "LINEAR",
          "output": 49
        },
        {
          "input": 50,
          "interpolation": "LINEAR",
          "output": 51
        },
        {
          "input": 52,
          "interpolation": "LINEAR",
          "output": 53
        },
        {
          "input": 54,
          "interpolation": "LINEAR",
          "output": 55
        },
        {
          "input": 56,
          "interpolation": "LINEAR",
          "output": 57
        },
        {
          "input": 58,
          "interpolation": "LINEAR",
          "output": 59
        },
        {
          "input": 60,
          "interpolation": "LINEAR",
          "output": 61
        },
        {
          "input": 62,
          "interpolation": "LINEAR",
          "output": 63
        },
        {
          "input": 64,
          "interpolation": "LINEAR",
          "output": 65
        },
        {
          "input": 66,
          "interpolation": "LINEAR",
          "output": 67
        },
        {
          "input": 68,
          "interpolation": "LINEAR",
          "output": 69
        },
        {
          "input": 70,
          "interpolation": "LINEAR",
          "output": 71
        },
        {
          "input": 72,
          "interpolation": "LINEAR",
          "output": 73
        },
        {
          "input": 74,
          "interpolation": "LINEAR",
          "output": 75
        },
        {
          "input": 76,
          "interpolation": "LINEAR",
          "output": 77
        },
        {
          "input": 78,
          "interpolation": "LINEAR",
          "output": 79
        }
      ]
    },
    {
      "name": "fly",
      "channels": [
        {
          "sampler": 0,
          "target": {
            "node": 3,
            "path": "rotation"
          }
        },
        {
          "sampler": 1,
          "target": {
            "node": 3,
            "path": "translation"
          }
        },
        {
          "sampler": 2,
          "target": {
            "node": 5,
            "path": "rotation"
          }
        },
        {
          "sampler": 3,
          "target": {
            "node": 5,
            "path": "translation"
          }
        },
        {
          "sampler": 4,
          "target": {
            "node": 7,
            "path": "rotation"
          }
        },
        {
          "sampler": 5,
          "target": {
            "node": 7,
            "path": "translation"
          }
        },
        {
          "sampler": 6,
          "target": {
            "node": 9,
            "path": "rotation"
          }
        },
        {
          "sampler": 7,
          "target": {
            "node": 9,
            "path": "translation"
          }
        },
        {
          "sampler": 8,
          "target": {
            "node": 11,
            "path": "rotation"
          }
        },
        {
          "sampler": 9,
          "target": {
            "node": 11,
            "path": "translation"
          }
        },
        {
          "sampler": 10,
          "target": {
            "node": 13,
            "path": "rotation"
          }
        },
        {
          "sampler": 11,
          "target": {
            "node": 13,
            "path": "translation"
          }
        },
        {
          "sampler": 12,
          "target": {
            "node": 15,
            "path": "rotation"
          }
        },
        {
          "sampler": 13,
          "target": {
            "node": 15,
            "path": "translation"
          }
        },
        {
          "sampler": 14,
          "target": {
            "node": 17,
            "path": "rotation"
          }
        },
        {
          "sampler": 15,
          "target": {
            "node": 17,
            "path": "translation"
          }
        },
        {
          "sampler": 16,
          "target": {
            "node": 19,
            "path": "rotation"
          }
        },
        {
          "sampler": 17,
          "target": {
            "node": 19,
            "path": "translation"
          }
        },
        {
          "sampler": 18,
          "target": {
            "node": 21,
            "path": "rotation"
          }
        },
        {
          "sampler": 19,
          "target": {
            "node": 21,
            "path": "translation"
          }
        },
        {
          "sampler": 20,
          "target": {
            "node": 23,
            "path": "rotation"
          }
        },
        {
          "sampler": 21,
          "target": {
            "node": 23,
            "path": "translation"
          }
        },
        {
          "sampler": 22,
          "target": {
            "node": 25,
            "path": "rotation"
          }
        },
        {
          "sampler": 23,
          "target": {
            "node": 25,
            "path": "translation"
          }
        },
        {
          "sampler": 24,
          "target": {
            "node": 27,
            "path": "rotation"
          }
        },
        {
          "sampler": 25,
          "target": {
            "node": 27,
            "path": "translation"
          }
        },
        {
          "sampler": 26,
          "target": {
            "node": 29,
            "path": "rotation"
          }
        },
        {
          "sampler": 27,
          "target": {
            "node": 29,
            "path": "translation"
          }
        },
        {
          "sampler": 28,
          "target": {
            "node": 31,
            "path": "rotation"
          }
        },
        {
          "sampler": 29,
          "target": {
            "node": 31,
            "path": "translation"
          }
        },
        {
          "sampler": 30,
          "target": {
            "node": 33,
            "path": "rotation"
          }
        },
        {
          "sampler": 31,
          "target": {
            "node": 33,
            "path": "translation"
          }
        }
      ],
      "samplers": [
        {
          "input": 80,
          "interpolation": "LINEAR",
          "output": 81
        },
        {
          "input": 82,
          "interpolation": "LINEAR",
          "output": 83
        },
        {
          "input": 84,
          "interpolation": "LINEAR",
          "output": 85
        },
        {
          "input": 86,
          "interpolation": "LINEAR",
          "output": 87
        },
        {
          "input": 88,
          "interpolation": "LINEAR",
          "output": 89
        },
        {
          "input": 90,
          "interpolation": "LINEAR",
          "output": 91
        },
        {
          "input": 92,
          "interpolation": "LINEAR",
          "output": 93
        },
        {
          "input": 94,
          "interpolation": "LINEAR",
          "output": 95
        },
        {
          "input": 96,
          "interpolation": "LINEAR",
          "output": 97
        },
        {
          "input": 98,
          "interpolation": "LINEAR",
          "output": 99
        },
        {
          "input": 100,
          "interpolation": "LINEAR",
          "output": 101
        },
        {
          "input": 102,
          "interpolation": "LINEAR",
          "output": 103
        },
        {
          "input": 104,
          "interpolation": "LINEAR",
          "output": 105
        },
        {
          "input": 106,
          "interpolation": "LINEAR",
          "output": 107
        },
        {
          "input": 108,
          "interpolation": "LINEAR",
          "output": 109
        },
        {
          "input": 110,
          "interpolation": "LINEAR",
          "output": 111
        },
        {
          "input": 112,
          "interpolation": "LINEAR",
          "output": 113
        },
        {
          "input": 114,
          "interpolation": "LINEAR",
          "output": 115
        },
        {
          "input": 116,
          "interpolation": "LINEAR",
          "output": 117
        },
        {
          "input": 118,
          "interpolation": "LINEAR",
          "output": 119
        },
        {
          "input": 120,
          "interpolation": "LINEAR",
          "output": 121
        },
        {
          "input": 122,
          "interpolation": "LINEAR",
          "output": 123
        },
        {
          "input": 124,
          "interpolation": "LINEAR",
          "output": 125
        },
        {
          "input": 126,
          "interpolation": "LINEAR",
          "output": 127
        },
        {
          "input": 128,
          "interpolation": "LINEAR",
          "output": 129
        },
        {
          "input": 130,
          "interpolation": "LINEAR",
          "output": 131
        },
        {
          "input": 132,
          "interpolation": "LINEAR",
          "output": 133
        },
        {
          "input": 134,
          "interpolation": "LINEAR",
          "output": 135
        },
        {
          "input": 136,
          "interpolation": "LINEAR",
          "output": 137
        },
        {
          "input": 138,
          "interpolation": "LINEAR",
          "output": 139
        },
        {
          "input": 140,
          "interpolation": "LINEAR",
          "output": 141
        },
        {
          "input": 142,
          "interpolation": "LINEAR",
          "output": 143
        }
      ]
    },
    {
      "name": "die",
      "channels": [
        {
          "sampler": 0,
          "target": {
            "node": 3,
            "path": "rotation"
          }
        },
        {
          "sampler": 1,
          "target": {
            "node": 3,
            "path": "translation"
          }
        },
        {
          "sampler": 2,
          "target": {
            "node": 5,
            "path": "rotation"
          }
        },
        {
          "sampler": 3,
          "target": {
            "node": 5,
            "path": "translation"
          }
        },
        {
          "sampler": 4,
          "target": {
            "node": 7,
            "path": "rotation"
          }
        },
        {
          "sampler": 5,
          "target": {
            "node": 7,
            "path": "translation"
          }
        },
        {
          "sampler": 6,
          "target": {
            "node": 9,
            "path": "rotation"
          }
        },
        {
          "sampler": 7,
          "target": {
            "node": 9,
            "path": "translation"
          }
        },
        {
          "sampler": 8,
          "target": {
            "node": 11,
            "path": "rotation"
          }
        },
        {
          "sampler": 9,
          "target": {
            "node": 11,
            "path": "translation"
          }
        },
        {
          "sampler": 10,
          "target": {
            "node": 13,
            "path": "rotation"
          }
        },
        {
          "sampler": 11,
          "target": {
            "node": 13,
            "path": "translation"
          }
        },
        {
          "sampler": 12,
          "target": {
            "node": 15,
            "path": "rotation"
          }
        },
        {
          "sampler": 13,
          "target": {
            "node": 15,
            "path": "translation"
          }
        },
        {
          "sampler": 14,
          "target": {
            "node": 17,
            "path": "rotation"
          }
        },
        {
          "sampler": 15,
          "target": {
            "node": 17,
            "path": "translation"
          }
        },
        {
          "sampler": 16,
          "target": {
            "node": 19,
            "path": "rotation"
          }
        },
        {
          "sampler": 17,
          "target": {
            "node": 19,
            "path": "translation"
          }
        },
        {
          "sampler": 18,
          "target": {
            "node": 21,
            "path": "rotation"
          }
        },
        {
          "sampler": 19,
          "target": {
            "node": 21,
            "path": "translation"
          }
        },
        {
          "sampler": 20,
          "target": {
            "node": 23,
            "path": "rotation"
          }
        },
        {
          "sampler": 21,
          "target": {
            "node": 23,
            "path": "translation"
          }
        },
        {
          "sampler": 22,
          "target": {
            "node": 25,
            "path": "rotation"
          }
        },
        {
          "sampler": 23,
          "target": {
            "node": 25,
            "path": "translation"
          }
        },
        {
          "sampler": 24,
          "target": {
            "node": 27,
            "path": "rotation"
          }
        },
        {
          "sampler": 25,
          "target": {
            "node": 27,
            "path": "translation"
          }
        },
        {
          "sampler": 26,
          "target": {
            "node": 29,
            "path": "rotation"
          }
        },
        {
          "sampler": 27,
          "target": {
            "node": 29,
            "path": "translation"
          }
        },
        {
          "sampler": 28,
          "target": {
            "node": 31,
            "path": "rotation"
          }
        },
        {
          "sampler": 29,
          "target": {
            "node": 31,
            "path": "translation"
          }
        },
        {
          "sampler": 30,
          "target": {
            "node": 33,
            "path": "rotation"
          }
        },
        {
          "sampler": 31,
          "target": {
            "node": 33,
            "path": "translation"
          }
        }
      ],
      "samplers": [
        {
          "input": 144,
          "interpolation": "LINEAR",
          "output": 145
        },
        {
          "input": 146,
          "interpolation": "LINEAR",
          "output": 147
        },
        {
          "input": 148,
          "interpolation": "LINEAR",
          "output": 149
        },
        {
          "input": 150,
          "interpolation": "LINEAR",
          "output": 151
        },
        {
          "input": 152,
          "interpolation": "LINEAR",
          "output": 153
        },
        {
          "input": 154,
          "interpolation": "LINEAR",
          "output": 155
        },
        {
          "input": 156,
          "interpolation": "LINEAR",
          "output": 157
        },
        {
          "input": 158,
          "interpolation": "LINEAR",
          "output": 159
        },
        {
          "input": 160,
          "interpolation": "LINEAR",
          "output": 161
        },
        {
          "input": 162,
          "interpolation": "LINEAR",
          "output": 163
        },
        {
          "input": 164,
          "interpolation": "LINEAR",
          "output": 165
        },
        {
          "input": 166,
          "interpolation": "LINEAR",
          "output": 167
        },
        {
          "input": 168,
          "interpolation": "LINEAR",
          "output": 169
        },
        {
          "input": 170,
          "interpolation": "LINEAR",
          "output": 171
        },
        {
          "input": 172,
          "interpolation": "LINEAR",
          "output": 173
        },
        {
          "input": 174,
          "interpolation": "LINEAR",
          "output": 175
        },
        {
          "input": 176,
          "interpolation": "LINEAR",
          "output": 177
        },
        {
          "input": 178,
          "interpolation": "LINEAR",
          "output": 179
        },
        {
          "input": 180,
          "interpolation": "LINEAR",
          "output": 181
        },
        {
          "input": 182,
          "interpolation": "LINEAR",
          "output": 183
        },
        {
          "input": 184,
          "interpolation": "LINEAR",
          "output": 185
        },
        {
          "input": 186,
          "interpolation": "LINEAR",
          "output": 187
        },
        {
          "input": 188,
          "interpolation": "LINEAR",
          "output": 189
        },
        {
          "input": 190,
          "interpolation": "LINEAR",
          "output": 191
        },
        {
          "input": 192,
          "interpolation": "LINEAR",
          "output": 193
        },
        {
          "input": 194,
          "interpolation": "LINEAR",
          "output": 195
        },
        {
          "input": 196,
          "interpolation": "LINEAR",
          "output": 197
        },
        {
          "input": 198,
          "interpolation": "LINEAR",
          "output": 199
        },
        {
          "input": 200,
          "interpolation": "LINEAR",
          "output": 201
        },
        {
          "input": 202,
          "interpolation": "LINEAR",
          "output": 203
        },
        {
          "input": 204,
          "interpolation": "LINEAR",
          "output": 205
        },
        {
          "input": 206,
          "interpolation": "LINEAR",
          "output": 207
        }
      ]
    }
  ]
}