{"scene":0,"scenes":[{"nodes":[0]}],"asset":{"version":"2.0","generator":"https://github.com/mikedh/trimesh"},"accessors":[{"componentType":5125,"type":"SCALAR","bufferView":0,"count":2520,"max":[1651],"min":[0]},{"componentType":5126,"type":"VEC3","byteOffset":0,"bufferView":1,"count":1652,"max":[0.4431209862232208,0.45740100741386414,0.4431209862232208],"min":[-0.4431209862232208,-0.12759000062942505,-0.4431209862232208]},{"componentType":5126,"type":"VEC2","byteOffset":0,"bufferView":3,"count":1652,"max":[0.5645833611488342,0.6517857313156128],"min":[0.16458334028720856,0.6517857313156128]}],"meshes":[{"name":"geometry_0","extras":{},"primitives":[{"attributes":{"POSITION":1,"TEXCOORD_0":2},"indices":0,"mode":4,"material":0}]}],"images":[{"bufferView":2,"mimeType":"image/png"}],"textures":[{"source":0}],"materials":[{"pbrMetallicRoughness":{"baseColorTexture":{"index":0},"baseColorFactor":[0.4,0.4,0.4,1.0],"roughnessFactor":0.9036020036098448},"doubleSided":false}],"nodes":[{"name":"geometry_0","mesh":0}],"buffers":[{"uri":"gltf_buffer_0.bin","byteLength":10080},{"uri":"gltf_buffer_1.bin","byteLength":19824},{"uri":"gltf_buffer_2.bin","byteLength":96},{"uri":"gltf_buffer_3.bin","byteLength":13216}],"bufferViews":[{"buffer":0,"byteOffset":0,"byteLength":10080},{"buffer":1,"byteOffset":0,"byteLength":19824},{"buffer":2,"byteOffset":0,"byteLength":96},{"buffer":3,"byteOffset":0,"byteLength":13216}]}