{
  "asset": {
    "version": "2.0",
    "generator": "b3d_export_gltf.py"
  },
  "scene": 0,
  "scenes": [
    {
      "nodes": [
        0
      ]
    }
  ],
  "nodes": [
    {
      "name": "armature",
      "children": [
        13
      ]
    },
    {
      "name": "ROOT",
      "translation": [
        0.0,
        0.0,
        0.0
      ],
      "rotation": [
        0.0,
        0.0,
        0.0,
        1.0
      ],
      "scale": [
        1.0,
        1.0,
        1.0
      ],
      "children": [
        2,
        4,
        6,
        8,
        10,
        12
      ]
    },
    {
      "name": "cube",
      "translation": [
        0.0,
        0.0,
        0.0
      ],
      "rotation": [
        0.0,
        0.0,
        0.0,
        1.0
      ],
      "scale": [
        1.0,
        1.0,
        1.0
      ],
      "children": [
        3
      ]
    },
    {
      "name": "Bone",
      "translation": [
        0.3300314426422119,
        0.4845142364501953,
        0.17554866075515746
      ],
      "rotation": [
        0.9650119215855862,
        0.26220600908006353,
        0.0,
        0.0
      ],
      "scale": [
        1.0,
        1.0,
        1.0
      ]
    },
    {
      "name": "cube.002",
      "translation": [
        0.0,
        0.0,
        0.0
      ],
      "rotation": [
        0.0,
        0.0,
        0.0,
        1.0
      ],
      "scale": [
        1.0,
        1.0,
        1.0
      ],
      "children": [
        5
      ]
    },
    {
      "name": "Bone",
      "translation": [
        0.042131674289703366,
        0.7443263053894043,
        -0.835611629486084
      ],
      "rotation": [
        0.0,
        -0.5409769980537352,
        0.841037387740146,
        0.0
      ],
      "scale": [
        1.0,
        1.0,
        1.0
      ]
    },
    {
      "name": "cube.003",
      "translation": [
        0.0,
        0.0,
        0.0
      ],
      "rotation": [
        0.0,
        0.0,
        0.0,
        1.0
      ],
      "scale": [
        1.0,
        1.0,
        1.0
      ],
      "children": [
        7
      ]
    },
    {
      "name": "Bone",
      "translation": [
        0.06319751739501953,
        0.5336679458618164,
        -1.123511505126953
      ],
      "rotation": [
        0.0,
        0.7111494068294774,
        -0.7030409100230814,
        0.0
      ],
      "scale": [
        1.0,
        1.0,
        1.0
      ]
    },
    {
      "name": "cube.004",
      "translation": [
        0.0,
        0.0,
        0.0
      ],
      "rotation": [
        0.0,
        0.0,
        0.0,
        1.0
      ],
      "scale": [
        1.0,
        1.0,
        1.0
      ],
      "children": [
        9
      ]
    },
    {
      "name": "Bone",
      "translation": [
        0.042131674289703366,
        0.7513483047485352,
        0.2808778524398804
      ],
      "rotation": [
        -0.03716087926743426,
        0.4940185334671106,
        0.8683995827543589,
        0.021140537247948347
      ],
      "scale": [
        1.0,
        1.0,
        1.0
      ]
    },
    {
      "name": "cube.005",
      "translation": [
        0.0,
        0.0,
        0.0
      ],
      "rotation": [
        0.0,
        0.0,
        0.0,
        1.0
      ],
      "scale": [
        1.0,
        1.0,
        1.0
      ],
      "children": [
        11
      ]
    },
    {
      "name": "Bone",
      "translation": [
        -0.23172411918640137,
        0.4845142364501953,
        0.17554866075515746
      ],
      "rotation": [
        0.9818693328989718,
        -0.1895589963903803,
        0.0,
        0.0
      ],
      "scale": [
        1.0,
        1.0,
        1.0
      ]
    },
    {
      "name": "cube.001",
      "translation": [
        0.046925407648086545,
        0.3712822914123535,
        0.43936891555786134
      ],
      "rotation": [
        0.0,
        -0.7065292746008695,
        0.0,
        0.7076838164971481
      ],
      "scale": [
        0.6641658544540405,
        0.6641658544540405,
        0.6641658544540405
      ]
    },
    {
      "name": "manatee",
      "mesh": 0,
      "skin": 0
    }
  ],
  "meshes": [
    {
      "name": "manatee",
      "primitives": [
        {
          "attributes": {
            "POSITION": 0,
            "TEXCOORD_0": 1,
            "JOINTS_0": 2,
            "WEIGHTS_0": 3
          },
          "indices": 4,
          "material": 0
        }
      ]
    }
  ],
  "skins": [
    {
      "inverseBindMatrices": 5,
      "joints": [
        1,
        2,
        3,
        4,
        5,
        6,
        7,
        8,
        9,
        10,
        11,
        12
      ],
      "skeleton": 1
    }
  ],
  "materials": [
    {
      "name": "body",
      "pbrMetallicRoughness": {
        "baseColorTexture": {
          "index": 0
        },
        "metallicFactor": 0.0,
        "roughnessFactor": 1.0
      },
      "doubleSided": true
    }
  ],
  "textures": [
    {
      "source": 0
    }
  ],
  "images": [
    {
      "uri": "textures/body.png"
    }
  ],
  "buffers": [
    {
      "byteLength": 88680,
      "uri": "model.bin"
    }
  ],
  "bufferViews": [
    {
      "buffer": 0,
      "byteOffset": 0,
      "byteLength": 1728,
      "target": 34962
    },
    {
      "buffer": 0,
      "byteOffset": 1728,
      "byteLength": 1152,
      "target": 34962
    },
    {
      "buffer": 0,
      "byteOffset": 2880,
      "byteLength": 576,
      "target": 34962
    },
    {
      "buffer": 0,
      "byteOffset": 3456,
      "byteLength": 2304,
      "target": 34962
    },
    {
      "buffer": 0,
      "byteOffset": 5760,
      "byteLength": 432,
      "target": 34963
    },
    {
      "buffer": 0,
      "byteOffset": 6192,
      "byteLength": 768
    },
    {
      "buffer": 0,
      "byteOffset": 6960,
      "byteLength": 404
    },
    {
      "buffer": 0,
      "byteOffset": 7364,
      "byteLength": 1616
    },
    {
      "buffer": 0,
      "byteOffset": 8980,
      "byteLength": 404
    },
    {
      "buffer": 0,
      "byteOffset": 9384,
      "byteLength": 1212
    },
    {
      "buffer": 0,
      "byteOffset": 10596,
      "byteLength": 404
    },
    {
      "buffer": 0,
      "byteOffset": 11000,
      "byteLength": 1616
    },
    {
      "buffer": 0,
      "byteOffset": 12616,
      "byteLength": 404
    },
    {
      "buffer": 0,
      "byteOffset": 13020,
      "byteLength": 1212
    },
    {
      "buffer": 0,
      "byteOffset": 14232,
      "byteLength": 404
    },
    {
      "buffer": 0,
      "byteOffset": 14636,
      "byteLength": 1616
    },
    {
      "buffer": 0,
      "byteOffset": 16252,
      "byteLength": 404
    },
    {
      "buffer": 0,
      "byteOffset": 16656,
      "byteLength": 1212
    },
    {
      "buffer": 0,
      "byteOffset": 17868,
      "byteLength": 404
    },
    {
      "buffer": 0,
      "byteOffset": 18272,
      "byteLength": 1616
    },
    {
      "buffer": 0,
      "byteOffset": 19888,
      "byteLength": 404
    },
    {
      "buffer": 0,
      "byteOffset": 20292,
      "byteLength": 1212
    },
    {
      "buffer": 0,
      "byteOffset": 21504,
      "byteLength": 404
    },
    {
      "buffer": 0,
      "byteOffset": 21908,
      "byteLength": 1616
    },
    {
      "buffer": 0,
      "byteOffset": 23524,
      "byteLength": 404
    },
    {
      "buffer": 0,
      "byteOffset": 23928,
      "byteLength": 1212
    },
    {
      "buffer": 0,
      "byteOffset": 25140,
      "byteLength": 604
    },
    {
      "buffer": 0,
      "byteOffset": 25744,
      "byteLength": 2416
    },
    {
      "buffer": 0,
      "byteOffset": 28160,
      "byteLength": 604
    },
    {
      "buffer": 0,
      "byteOffset": 28764,
      "byteLength": 1812
    },
    {
      "buffer": 0,
      "byteOffset": 30576,
      "byteLength": 604
    },
    {
      "buffer": 0,
      "byteOffset": 31180,
      "byteLength": 2416
    },
    {
      "buffer": 0,
      "byteOffset": 33596,
      "byteLength": 604
    },
    {
      "buffer": 0,
      "byteOffset": 34200,
      "byteLength": 1812
    },
    {
      "buffer": 0,
      "byteOffset": 36012,
      "byteLength": 604
    },
    {
      "buffer": 0,
      "byteOffset": 36616,
      "byteLength": 2416
    },
    {
      "buffer": 0,
      "byteOffset": 39032,
      "byteLength": 604
    },
    {
      "buffer": 0,
      "byteOffset": 39636,
      "byteLength": 1812
    },
    {
      "buffer": 0,
      "byteOffset": 41448,
      "byteLength": 604
    },
    {
      "buffer": 0,
      "byteOffset": 42052,
      "byteLength": 2416
    },
    {
      "buffer": 0,
      "byteOffset": 44468,
      "byteLength": 604
    },
    {
      "buffer": 0,
      "byteOffset": 45072,
      "byteLength": 1812
    },
    {
      "buffer": 0,
      "byteOffset": 46884,
      "byteLength": 604
    },
    {
      "buffer": 0,
      "byteOffset": 47488,
      "byteLength": 2416
    },
    {
      "buffer": 0,
      "byteOffset": 49904,
      "byteLength": 604
    },
    {
      "buffer": 0,
      "byteOffset": 50508,
      "byteLength": 1812
    },
    {
      "buffer": 0,
      "byteOffset": 52320,
      "byteLength": 404
    },
    {
      "buffer": 0,
      "byteOffset": 52724,
      "byteLength": 1616
    },
    {
      "buffer": 0,
      "byteOffset": 54340,
      "byteLength": 404
    },
    {
      "buffer": 0,
      "byteOffset": 54744,
      "byteLength": 1212
    },
    {
      "buffer": 0,
      "byteOffset": 55956,
      "byteLength": 404
    },
    {
      "buffer": 0,
      "byteOffset": 56360,
      "byteLength": 1616
    },
    {
      "buffer": 0,
      "byteOffset": 57976,
      "byteLength": 404
    },
    {
      "buffer": 0,
      "byteOffset": 58380,
      "byteLength": 1212
    },
    {
      "buffer": 0,
      "byteOffset": 59592,
      "byteLength": 404
    },
    {
      "buffer": 0,
      "byteOffset": 59996,
      "byteLength": 1616
    },
    {
      "buffer": 0,
      "byteOffset": 61612,
      "byteLength": 404
    },
    {
      "buffer": 0,
      "byteOffset": 62016,
      "byteLength": 1212
    },
    {
      "buffer": 0,
      "byteOffset": 63228,
      "byteLength": 404
    },
    {
      "buffer": 0,
      "byteOffset": 63632,
      "byteLength": 1616
    },
    {
      "buffer": 0,
      "byteOffset": 65248,
      "byteLength": 404
    },
    {
      "buffer": 0,
      "byteOffset": 65652,
      "byteLength": 1212
    },
    {
      "buffer": 0,
      "byteOffset": 66864,
      "byteLength": 404
    },
    {
      "buffer": 0,
      "byteOffset": 67268,
      "byteLength": 1616
    },
    {
      "buffer": 0,
      "byteOffset": 68884,
      "byteLength": 404
    },
    {
      "buffer": 0,
      "byteOffset": 69288,
      "byteLength": 1212
    },
    {
      "buffer": 0,
      "byteOffset": 70500,
      "byteLength": 404
    },
    {
      "buffer": 0,
      "byteOffset": 70904,
      "byteLength": 1616
    },
    {
      "buffer": 0,
      "byteOffset": 72520,
      "byteLength": 404
    },
    {
      "buffer": 0,
      "byteOffset": 72924,
      "byteLength": 1212
    },
    {
      "buffer": 0,
      "byteOffset": 74136,
      "byteLength": 404
    },
    {
      "buffer": 0,
      "byteOffset": 74540,
      "byteLength": 1616
    },
    {
      "buffer": 0,
      "byteOffset": 76156,
      "byteLength": 404
    },
    {
      "buffer": 0,
      "byteOffset": 76560,
      "byteLength": 1212
    },
    {
      "buffer": 0,
      "byteOffset": 77772,
      "byteLength": 404
    },
    {
      "buffer": 0,
      "byteOffset": 78176,
      "byteLength": 1616
    },
    {
      "buffer": 0,
      "byteOffset": 79792,
      "byteLength": 404
    },
    {
      "buffer": 0,
      "byteOffset": 80196,
      "byteLength": 1212
    },
    {
      "buffer": 0,
      "byteOffset": 81408,
      "byteLength": 404
    },
    {
      "buffer": 0,
      "byteOffset": 81812,
      "byteLength": 1616
    },
    {
      "buffer": 0,
      "byteOffset": 83428,
      "byteLength": 404
    },
    {
      "buffer": 0,
      "byteOffset": 83832,
      "byteLength": 1212
    },
    {
      "buffer": 0,
      "byteOffset": 85044,
      "byteLength": 404
    },
    {
      "buffer": 0,
      "byteOffset": 85448,
      "byteLength": 1616
    },
    {
      "buffer": 0,
      "byteOffset": 87064,
      "byteLength": 404
    },
    {
      "buffer": 0,
      "byteOffset": 87468,
      "byteLength": 1212
    }
  ],
  "accessors": [
    {
      "bufferView": 0,
      "componentType": 5126,
      "count": 144,
      "type": "VEC3",
      "min": [
        -0.47243461608886717,
        0.034677907824516296,
        -1.9909080505371093
      ],
      "max": [
        0.5738524436950684,
        0.96903156042099,
        1.8346575652224826
      ]
    },
    {
      "bufferView": 1,
      "componentType": 5126,
      "count": 144,
      "type": "VEC2"
    },
    {
      "bufferView": 2,
      "componentType": 5121,
      "count": 144,
      "type": "VEC4"
    },
    {
      "bufferView": 3,
      "componentType": 5126,
      "count": 144,
      "type": "VEC4"
    },
    {
      "bufferView": 4,
      "componentType": 5123,
      "count": 216,
      "type": "SCALAR"
    },
    {
      "bufferView": 5,
      "componentType": 5126,
      "count": 12,
      "type": "MAT4"
    },
    {
      "bufferView": 6,
      "componentType": 5126,
      "count": 101,
      "type": "SCALAR",
      "min": [
        0.0
      ],
      "max": [
        1.3333333333333333
      ]
    },
    {
      "bufferView": 7,
      "componentType": 5126,
      "count": 101,
      "type": "VEC4"
    },
    {
      "bufferView": 8,
      "componentType": 5126,
      "count": 101,
      "type": "SCALAR",
      "min": [
        0.0
      ],
      "max": [
        1.3333333333333333
      ]
    },
    {
      "bufferView": 9,
      "componentType": 5126,
      "count": 101,
      "type": "VEC3"
    },
    {
      "bufferView": 10,
      "componentType": 5126,
      "count": 101,
      "type": "SCALAR",
      "min": [
        0.0
      ],
      "max": [
        1.3333333333333333
      ]
    },
    {
      "bufferView": 11,
      "componentType": 5126,
      "count": 101,
      "type": "VEC4"
    },
    {
      "bufferView": 12,
      "componentType": 5126,
      "count": 101,
      "type": "SCALAR",
      "min": [
        0.0
      ],
      "max": [
        1.3333333333333333
      ]
    },
    {
      "bufferView": 13,
      "componentType": 5126,
      "count": 101,
      "type": "VEC3"
    },
    {
      "bufferView": 14,
      "componentType": 5126,
      "count": 101,
      "type": "SCALAR",
      "min": [
        0.0
      ],
      "max": [
        1.3333333333333333
      ]
    },
    {
      "bufferView": 15,
      "componentType": 5126,
      "count": 101,
      "type": "VEC4"
    },
    {
      "bufferView": 16,
      "componentType": 5126,
      "count": 101,
      "type": "SCALAR",
      "min": [
        0.0
      ],
      "max": [
        1.3333333333333333
      ]
    },
    {
      "bufferView": 17,
      "componentType": 5126,
      "count": 101,
      "type": "VEC3"
    },
    {
      "bufferView": 18,
      "componentType": 5126,
      "count": 101,
      "type": "SCALAR",
      "min": [
        0.0
      ],
      "max": [
        1.3333333333333333
      ]
    },
    {
      "bufferView": 19,
      "componentType": 5126,
      "count": 101,
      "type": "VEC4"
    },
    {
      "bufferView": 20,
      "componentType": 5126,
      "count": 101,
      "type": "SCALAR",
      "min": [
        0.0
      ],
      "max": [
        1.3333333333333333
      ]
    },
    {
      "bufferView": 21,
      "componentType": 5126,
      "count": 101,
      "type": "VEC3"
    },
    {
      "bufferView": 22,
      "componentType": 5126,
      "count": 101,
      "type": "SCALAR",
      "min": [
        0.0
      ],
      "max": [
        1.3333333333333333
      ]
    },
    {
      "bufferView": 23,
      "componentType": 5126,
      "count": 101,
      "type": "VEC4"
    },
    {
      "bufferView": 24,
      "componentType": 5126,
      "count": 101,
      "type": "SCALAR",
      "min": [
        0.0
      ],
      "max": [
        1.3333333333333333
      ]
    },
    {
      "bufferView": 25,
      "componentType": 5126,
      "count": 101,
      "type": "VEC3"
    },
    {
      "bufferView": 26,
      "componentType": 5126,
      "count": 151,
      "type": "SCALAR",
      "min": [
        0.0
      ],
      "max": [
        2.0
      ]
    },
    {
      "bufferView": 27,
      "componentType": 5126,
      "count": 151,
      "type": "VEC4"
    },
    {
      "bufferView": 28,
      "componentType": 5126,
      "count": 151,
      "type": "SCALAR",
      "min": [
        0.0
      ],
      "max": [
        2.0
      ]
    },
    {
      "bufferView": 29,
      "componentType": 5126,
      "count": 151,
      "type": "VEC3"
    },
    {
      "bufferView": 30,
      "componentType": 5126,
      "count": 151,
      "type": "SCALAR",
      "min": [
        0.0
      ],
      "max": [
        2.0
      ]
    },
    {
      "bufferView": 31,
      "componentType": 5126,
      "count": 151,
      "type": "VEC4"
    },
    {
      "bufferView": 32,
      "componentType": 5126,
      "count": 151,
      "type": "SCALAR",
      "min": [
        0.0
      ],
      "max": [
        2.0
      ]
    },
    {
      "bufferView": 33,
      "componentType": 5126,
      "count": 151,
      "type": "VEC3"
    },
    {
      "bufferView": 34,
      "componentType": 5126,
      "count": 151,
      "type": "SCALAR",
      "min": [
        0.0
      ],
      "max": [
        2.0
      ]
    },
    {
      "bufferView": 35,
      "componentType": 5126,
      "count": 151,
      "type": "VEC4"
    },
    {
      "bufferView": 36,
      "componentType": 5126,
      "count": 151,
      "type": "SCALAR",
      "min": [
        0.0
      ],
      "max": [
        2.0
      ]
    },
    {
      "bufferView": 37,
      "componentType": 5126,
      "count": 151,
      "type": "VEC3"
    },
    {
      "bufferView": 38,
      "componentType": 5126,
      "count": 151,
      "type": "SCALAR",
      "min": [
        0.0
      ],
      "max": [
        2.0
      ]
    },
    {
      "bufferView": 39,
      "componentType": 5126,
      "count": 151,
      "type": "VEC4"
    },
    {
      "bufferView": 40,
      "componentType": 5126,
      "count": 151,
      "type": "SCALAR",
      "min": [
        0.0
      ],
      "max": [
        2.0
      ]
    },
    {
      "bufferView": 41,
      "componentType": 5126,
      "count": 151,
      "type": "VEC3"
    },
    {
      "bufferView": 42,
      "componentType": 5126,
      "count": 151,
      "type": "SCALAR",
      "min": [
        0.0
      ],
      "max": [
        2.0
      ]
    },
    {
      "bufferView": 43,
      "componentType": 5126,
      "count": 151,
      "type": "VEC4"
    },
    {
      "bufferView": 44,
      "componentType": 5126,
      "count": 151,
      "type": "SCALAR",
      "min": [
        0.0
      ],
      "max": [
        2.0
      ]
    },
    {
      "bufferView": 45,
      "componentType": 5126,
      "count": 151,
      "type": "VEC3"
    },
    {
      "bufferView": 46,
      "componentType": 5126,
      "count": 101,
      "type": "SCALAR",
      "min": [
        0.0
      ],
      "max": [
        1.3333333333333333
      ]
    },
    {
      "bufferView": 47,
      "componentType": 5126,
      "count": 101,
      "type": "VEC4"
    },
    {
      "bufferView": 48,
      "componentType": 5126,
      "count": 101,
      "type": "SCALAR",
      "min": [
        0.0
      ],
      "max": [
        1.3333333333333333
      ]
    },
    {
      "bufferView": 49,
      "componentType": 5126,
      "count": 101,
      "type": "VEC3"
    },
    {
      "bufferView": 50,
      "componentType": 5126,
      "count": 101,
      "type": "SCALAR",
      "min": [
        0.0
      ],
      "max": [
        1.3333333333333333
      ]
    },
    {
      "bufferView": 51,
      "componentType": 5126,
      "count": 101,
      "type": "VEC4"
    },
    {
      "bufferView": 52,
      "componentType": 5126,
      "count": 101,
      "type": "SCALAR",
      "min": [
        0.0
      ],
      "max": [
        1.3333333333333333
      ]
    },
    {
      "bufferView": 53,
      "componentType": 5126,
      "count": 101,
      "type": "VEC3"
    },
    {
      "bufferView": 54,
      "componentType": 5126,
      "count": 101,
      "type": "SCALAR",
      "min": [
        0.0
      ],
      "max": [
        1.3333333333333333
      ]
    },
    {
      "bufferView": 55,
      "componentType": 5126,
      "count": 101,
      "type": "VEC4"
    },
    {
      "bufferView": 56,
      "componentType": 5126,
      "count": 101,
      "type": "SCALAR",
      "min": [
        0.0
      ],
      "max": [
        1.3333333333333333
      ]
    },
    {
      "bufferView": 57,
      "componentType": 5126,
      "count": 101,
      "type": "VEC3"
    },
    {
      "bufferView": 58,
      "componentType": 5126,
      "count": 101,
      "type": "SCALAR",
      "min": [
        0.0
      ],
      "max": [
        1.3333333333333333
      ]
    },
    {
      "bufferView": 59,
      "componentType": 5126,
      "count": 101,
      "type": "VEC4"
    },
    {
      "bufferView": 60,
      "componentType": 5126,
      "count": 101,
      "type": "SCALAR",
      "min": [
        0.0
      ],
      "max": [
        1.3333333333333333
      ]
    },
    {
      "bufferView": 61,
      "componentType": 5126,
      "count": 101,
      "type": "VEC3"
    },
    {
      "bufferView": 62,
      "componentType": 5126,
      "count": 101,
      "type": "SCALAR",
      "min": [
        0.0
      ],
      "max": [
        1.3333333333333333
      ]
    },
    {
      "bufferView": 63,
      "componentType": 5126,
      "count": 101,
      "type": "VEC4"
    },
    {
      "bufferView": 64,
      "componentType": 5126,
      "count": 101,
      "type": "SCALAR",
      "min": [
        0.0
      ],
      "max": [
        1.3333333333333333
      ]
    },
    {
      "bufferView": 65,
      "componentType": 5126,
      "count": 101,
      "type": "VEC3"
    },
    {
      "bufferView": 66,
      "componentType": 5126,
      "count": 101,
      "type": "SCALAR",
      "min": [
        0.0
      ],
      "max": [
        1.3333333333333333
      ]
    },
    {
      "bufferView": 67,
      "componentType": 5126,
      "count": 101,
      "type": "VEC4"
    },
    {
      "bufferView": 68,
      "componentType": 5126,
      "count": 101,
      "type": "SCALAR",
      "min": [
        0.0
      ],
      "max": [
        1.3333333333333333
      ]
    },
    {
      "bufferView": 69,
      "componentType": 5126,
      "count": 101,
      "type": "VEC3"
    },
    {
      "bufferView": 70,
      "componentType": 5126,
      "count": 101,
      "type": "SCALAR",
      "min": [
        0.0
      ],
      "max": [
        1.3333333333333333
      ]
    },
    {
      "bufferView": 71,
      "componentType": 5126,
      "count": 101,
      "type": "VEC4"
    },
    {
      "bufferView": 72,
      "componentType": 5126,
      "count": 101,
      "type": "SCALAR",
      "min": [
        0.0
      ],
      "max": [
        1.3333333333333333
      ]
    },
    {
      "bufferView": 73,
      "componentType": 5126,
      "count": 101,
      "type": "VEC3"
    },
    {
      "bufferView": 74,
      "componentType": 5126,
      "count": 101,
      "type": "SCALAR",
      "min": [
        0.0
      ],
      "max": [
        1.3333333333333333
      ]
    },
    {
      "bufferView": 75,
      "componentType": 5126,
      "count": 101,
      "type": "VEC4"
    },
    {
      "bufferView": 76,
      "componentType": 5126,
      "count": 101,
      "type": "SCALAR",
      "min": [
        0.0
      ],
      "max": [
        1.3333333333333333
      ]
    },
    {
      "bufferView": 77,
      "componentType": 5126,
      "count": 101,
      "type": "VEC3"
    },
    {
      "bufferView": 78,
      "componentType": 5126,
      "count": 101,
      "type": "SCALAR",
      "min": [
        0.0
      ],
      "max": [
        1.3333333333333333
      ]
    },
    {
      "bufferView": 79,
      "componentType": 5126,
      "count": 101,
      "type": "VEC4"
    },
    {
      "bufferView": 80,
      "componentType": 5126,
      "count": 101,
      "type": "SCALAR",
      "min": [
        0.0
      ],
      "max": [
        1.3333333333333333
      ]
    },
    {
      "bufferView": 81,
      "componentType": 5126,
      "count": 101,
      "type": "VEC3"
    },
    {
      "bufferView": 82,
      "componentType": 5126,
      "count": 101,
      "type": "SCALAR",
      "min": [
        0.0
      ],
      "max": [
        1.3333333333333333
      ]
    },
    {
      "bufferView": 83,
      "componentType": 5126,
      "count": 101,
      "type": "VEC4"
    },
    {
      "bufferView": 84,
      "componentType": 5126,
      "count": 101,
      "type": "SCALAR",
      "min": [
        0.0
      ],
      "max": [
        1.3333333333333333
      ]
    },
    {
      "bufferView": 85,
      "componentType": 5126,
      "count": 101,
      "type": "VEC3"
    }
  ],
  "animations": [
    {
      "name": "idle",
      "channels": [
        {
          "sampler": 0,
          "target": {
            "node": 3,
            "path": "rotation"
          }
        },
        {
          "sampler": 1,
          "target": {
            "node": 3,
            "path": "translation"
          }
        },
        {
          "sampler": 2,
          "target": {
            "node": 5,
            "path": "rotation"
          }
        },
        {
          "sampler": 3,
          "target": {
            "node": 5,
            "path": "translation"
          }
        },
        {
          "sampler": 4,
          "target": {
            "node": 7,
            "path": "rotation"
          }
        },
        {
          "sampler": 5,
          "target": {
            "node": 7,
            "path": "translation"
          }
        },
        {
          "sampler": 6,
          "target": {
            "node": 9,
            "path": "rotation"
          }
        },
        {
          "sampler": 7,
          "target": {
            "node": 9,
            "path": "translation"
          }
        },
        {
          "sampler": 8,
          "target": {
            "node": 11,
            "path": "rotation"
          }
        },
        {
          "sampler": 9,
          "target": {
            "node": 11,
            "path": "translation"
          }
        }
      ],
      "samplers": [
        {
          "input": 6,
          "interpolation": "LINEAR",
          "output": 7
        },
        {
          "input": 8,
          "interpolation": "LINEAR",
          "output": 9
        },
        {
          "input": 10,
          "interpolation": "LINEAR",
          "output": 11
        },
        {
          "input": 12,
          "interpolation": "LINEAR",
          "output": 13
        },
        {
          "input": 14,
          "interpolation": "LINEAR",
          "output": 15
        },
        {
          "input": 16,
          "interpolation": "LINEAR",
          "output": 17
        },
        {
          "input": 18,
          "interpolation": "LINEAR",
          "output": 19
        },
        {
          "input": 20,
          "interpolation": "LINEAR",
          "output": 21
        },
        {
          "input": 22,
          "interpolation": "LINEAR",
          "output": 23
        },
        {
          "input": 24,
          "interpolation": "LINEAR",
          "output": 25
        }
      ]
    },
    {
      "name": "fly",
      "channels": [
        {
          "sampler": 0,
          "target": {
            "node": 3,
            "path": "rotation"
          }
        },
        {
          "sampler": 1,
          "target": {
            "node": 3,
            "path": "translation"
          }
        },
        {
          "sampler": 2,
          "target": {
            "node": 5,
            "path": "rotation"
          }
        },
        {
          "sampler": 3,
          "target": {
            "node": 5,
            "path": "translation"
          }
        },
        {
          "sampler": 4,
          "target": {
            "node": 7,
            "path": "rotation"
          }
        },
        {
          "sampler": 5,
          "target": {
            "node": 7,
            "path": "translation"
          }
        },
        {
          "sampler": 6,
          "target": {
            "node": 9,
            "path": "rotation"
          }
        },
        {
          "sampler": 7,
          "target": {
            "node": 9,
            "path": "translation"
          }
        },
        {
          "sampler": 8,
          "target": {
            "node": 11,
            "path": "rotation"
          }
        },
        {
          "sampler": 9,
          "target": {
            "node": 11,
            "path": "translation"
          }
        }
      ],
      "samplers": [
        {
          "input": 26,
          "interpolation": "LINEAR",
          "output": 27
        },
        {
          "input": 28,
          "interpolation": "LINEAR",
          "output": 29
        },
        {
          "input": 30,
          "interpolation": "LINEAR",
          "output": 31
        },
        {
          "input": 32,
          "interpolation": "LINEAR",
          "output": 33
        },
        {
          "input": 34,
          "interpolation": "LINEAR",
          "output": 35
        },
        {
          "input": 36,
          "interpolation": "LINEAR",
          "output": 37
        },
        {
          "input": 38,
          "interpolation": "LINEAR",
          "output": 39
        },
        {
          "input": 40,
          "interpolation": "LINEAR",
          "output": 41
        },
        {
          "input": 42,
          "interpolation": "LINEAR",
          "output": 43
        },
        {
          "input": 44,
          "interpolation": "LINEAR",
          "output": 45
        }
      ]
    },
    {
      "name": "punch",
      "channels": [
        {
          "sampler": 0,
          "target": {
            "node": 3,
            "path": "rotation"
          }
        },
        {
          "sampler": 1,
          "target": {
            "node": 3,
            "path": "translation"
          }
        },
        {
          "sampler": 2,
          "target": {
            "node": 5,
            "path": "rotation"
          }
        },
        {
          "sampler": 3,
          "target": {
            "node": 5,
            "path": "translation"
          }
        },
        {
          "sampler": 4,
          "target": {
            "node": 7,
            "path": "rotation"
          }
        },
        {
          "sampler": 5,
          "target": {
            "node": 7,
            "path": "translation"
          }
        },
        {
          "sampler": 6,
          "target": {
            "node": 9,
            "path": "rotation"
          }
        },
        {
          "sampler": 7,
          "target": {
            "node": 9,
            "path": "translation"
          }
        },
        {
          "sampler": 8,
          "target": {
            "node": 11,
            "path": "rotation"
          }
        },
        {
          "sampler": 9,
          "target": {
            "node": 11,
            "path": "translation"
          }
        }
      ],
      "samplers": [
        {
          "input": 46,
          "interpolation": "LINEAR",
          "output": 47
        },
        {
          "input": 48,
          "interpolation": "LINEAR",
          "output": 49
        },
        {
          "input": 50,
          "interpolation": "LINEAR",
          "output": 51
        },
        {
          "input": 52,
          "interpolation": "LINEAR",
          "output": 53
        },
        {
          "input": 54,
          "interpolation": "LINEAR",
          "output": 55
        },
        {
          "input": 56,
          "interpolation": "LINEAR",
          "output": 57
        },
        {
          "input": 58,
          "interpolation": "LINEAR",
          "output": 59
        },
        {
          "input": 60,
          "interpolation": "LINEAR",
          "output": 61
        },
        {
          "input": 62,
          "interpolation": "LINEAR",
          "output": 63
        },
        {
          "input": 64,
          "interpolation": "LINEAR",
          "output": 65
        }
      ]
    },
    {
      "name": "die",
      "channels": [
        {
          "sampler": 0,
          "target": {
            "node": 3,
            "path": "rotation"
          }
        },
        {
          "sampler": 1,
          "target": {
            "node": 3,
            "path": "translation"
          }
        },
        {
          "sampler": 2,
          "target": {
            "node": 5,
            "path": "rotation"
          }
        },
        {
          "sampler": 3,
          "target": {
            "node": 5,
            "path": "translation"
          }
        },
        {
          "sampler": 4,
          "target": {
            "node": 7,
            "path": "rotation"
          }
        },
        {
          "sampler": 5,
          "target": {
            "node": 7,
            "path": "translation"
          }
        },
        {
          "sampler": 6,
          "target": {
            "node": 9,
            "path": "rotation"
          }
        },
        {
          "sampler": 7,
          "target": {
            "node": 9,
            "path": "translation"
          }
        },
        {
          "sampler": 8,
          "target": {
            "node": 11,
            "path": "rotation"
          }
        },
        {
          "sampler": 9,
          "target": {
            "node": 11,
            "path": "translation"
          }
        }
      ],
      "samplers": [
        {
          "input": 66,
          "interpolation": "LINEAR",
          "output": 67
        },
        {
          "input": 68,
          "interpolation": "LINEAR",
          "output": 69
        },
        {
          "input": 70,
          "interpolation": "LINEAR",
          "output": 71
        },
        {
          "input": 72,
          "interpolation": "LINEAR",
          "output": 73
        },
        {
          "input": 74,
          "interpolation": "LINEAR",
          "output": 75
        },
        {
          "input": 76,
          "interpolation": "LINEAR",
          "output": 77
        },
        {
          "input": 78,
          "interpolation": "LINEAR",
          "output": 79
        },
        {
          "input": 80,
          "interpolation": "LINEAR",
          "output": 81
        },
        {
          "input": 82,
          "interpolation": "LINEAR",
          "output": 83
        },
        {
          "input": 84,
          "interpolation": "LINEAR",
          "output": 85
        }
      ]
    }
  ]
}