{
  "asset": {
    "version": "2.0",
    "generator": "b3d_export_gltf.py"
  },
  "scene": 0,
  "scenes": [
    {
      "nodes": [
        0
      ]
    }
  ],
  "nodes": [
    {
      "name": "armature",
      "children": [
        23
      ]
    },
    {
      "name": "ROOT",
      "translation": [
        0.0,
        0.0,
        0.0
      ],
      "rotation": [
        0.0,
        0.0,
        0.0,
        1.0
      ],
      "scale": [
        1.0,
        1.0,
        1.0
      ],
      "children": [
        2,
        4,
        6,
        8,
        9,
        10,
        11,
        12,
        14,
        16,
        18,
        20,
        22
      ]
    },
    {
      "name": "cube.002",
      "translation": [
        0.0,
        0.0,
        0.0
      ],
      "rotation": [
        0.0,
        0.0,
        0.0,
        1.0
      ],
      "scale": [
        1.0,
        1.0,
        1.0
      ],
      "children": [
        3
      ]
    },
    {
      "name": "Bone",
      "translation": [
        0.0,
        0.6454045295715332,
        0.046270626783370974
      ],
      "rotation": [
        0.0,
        0.564335405035304,
        0.825545607839833,
        0.0
      ],
      "scale": [
        0.8108710050582886,
        0.8108710050582886,
        0.8108710050582886
      ]
    },
    {
      "name": "cube.003",
      "translation": [
        0.0,
        0.0,
        0.0
      ],
      "rotation": [
        0.0,
        0.0,
        0.0,
        1.0
      ],
      "scale": [
        1.0,
        1.0,
        1.0
      ],
      "children": [
        5
      ]
    },
    {
      "name": "Bone",
      "translation": [
        0.0,
        0.5528632640838623,
        -0.03946612477302551
      ],
      "rotation": [
        0.0,
        0.974517740981241,
        0.22431043781513807,
        0.0
      ],
      "scale": [
        0.8108710050582886,
        0.8108710050582886,
        0.8108710050582886
      ]
    },
    {
      "name": "cube.004",
      "translation": [
        0.0,
        0.0,
        0.0
      ],
      "rotation": [
        0.0,
        0.0,
        0.0,
        1.0
      ],
      "scale": [
        1.0,
        1.0,
        1.0
      ],
      "children": [
        7
      ]
    },
    {
      "name": "Bone",
      "translation": [
        0.0,
        0.5528632640838623,
        -0.03946612477302551
      ],
      "rotation": [
        0.0,
        0.974517740981241,
        0.22431043781513807,
        0.0
      ],
      "scale": [
        0.8108710050582886,
        0.8108710050582886,
        0.8108710050582886
      ]
    },
    {
      "name": "cube.005",
      "translation": [
        -0.028061425685882567,
        0.5172713756561279,
        -0.025287950038909913
      ],
      "rotation": [
        0.0,
        -0.7065993935681083,
        0.0,
        0.7076138049877078
      ],
      "scale": [
        0.21993760764598846,
        0.21993759274482727,
        0.21993760764598846
      ]
    },
    {
      "name": "cube.006",
      "translation": [
        -0.02815607190132141,
        0.5172713756561279,
        0.04069326519966125
      ],
      "rotation": [
        0.0,
        -0.7065993935681083,
        0.0,
        0.7076138049877078
      ],
      "scale": [
        0.21993760764598846,
        0.21993759274482727,
        0.21993760764598846
      ]
    },
    {
      "name": "cube.007",
      "translation": [
        -0.02815607190132141,
        0.42929630279541015,
        0.038199836015701295
      ],
      "rotation": [
        0.0,
        -0.7065993935681083,
        0.0,
        0.7076138049877078
      ],
      "scale": [
        0.21993760764598846,
        0.21993759274482727,
        0.21993760764598846
      ]
    },
    {
      "name": "cube.008",
      "translation": [
        0.01743374317884445,
        0.4073025703430176,
        -0.02522485554218292
      ],
      "rotation": [
        -0.13785072596392758,
        -0.6930223419474261,
        -0.13804859847531448,
        0.6940171434279734
      ],
      "scale": [
        0.21993759274482727,
        0.21993760764598846,
        0.2315823882818222
      ]
    },
    {
      "name": "cube.009",
      "translation": [
        0.0,
        0.0,
        0.0
      ],
      "rotation": [
        0.0,
        0.0,
        0.0,
        1.0
      ],
      "scale": [
        1.0,
        1.0,
        1.0
      ],
      "children": [
        13
      ]
    },
    {
      "name": "Bone",
      "translation": [
        0.0,
        0.32695374488830564,
        -0.07893224358558655
      ],
      "rotation": [
        0.0,
        0.18511373301335343,
        0.9827171036721916,
        0.0
      ],
      "scale": [
        0.7537205815315247,
        0.7537205815315247,
        0.7537205815315247
      ]
    },
    {
      "name": "cube.010",
      "translation": [
        0.0,
        0.0,
        0.0
      ],
      "rotation": [
        0.0,
        0.0,
        0.0,
        1.0
      ],
      "scale": [
        1.0,
        1.0,
        1.0
      ],
      "children": [
        15
      ]
    },
    {
      "name": "Bone",
      "translation": [
        0.0,
        0.25210421085357665,
        -0.05035332441329956
      ],
      "rotation": [
        0.0,
        0.6641225274862632,
        0.7476237479409394,
        0.0
      ],
      "scale": [
        0.6330190300941467,
        0.6330190300941467,
        0.6330190300941467
      ]
    },
    {
      "name": "cube.011",
      "translation": [
        0.0,
        0.0,
        0.0
      ],
      "rotation": [
        0.0,
        0.0,
        0.0,
        1.0
      ],
      "scale": [
        1.0,
        1.0,
        1.0
      ],
      "children": [
        17
      ]
    },
    {
      "name": "Bone",
      "translation": [
        0.0,
        0.2344125032424927,
        0.019052612781524658
      ],
      "rotation": [
        0.0,
        0.9305248646601818,
        0.36622872122370526,
        0.0
      ],
      "scale": [
        0.6330190300941467,
        0.633018970489502,
        0.633018970489502
      ]
    },
    {
      "name": "cube.012",
      "translation": [
        0.0,
        0.0,
        0.0
      ],
      "rotation": [
        0.0,
        0.0,
        0.0,
        1.0
      ],
      "scale": [
        1.0,
        1.0,
        1.0
      ],
      "children": [
        19
      ]
    },
    {
      "name": "Bone",
      "translation": [
        0.0,
        0.3215101480484009,
        0.0707668423652649
      ],
      "rotation": [
        0.0,
        0.842021461592579,
        -0.5394440269550651,
        0.0
      ],
      "scale": [
        0.6330190300941467,
        0.633018970489502,
        0.633018970489502
      ]
    },
    {
      "name": "cube.001",
      "translation": [
        0.0,
        0.0,
        0.0
      ],
      "rotation": [
        0.0,
        0.0,
        0.0,
        1.0
      ],
      "scale": [
        1.0,
        1.0,
        1.0
      ],
      "children": [
        21
      ]
    },
    {
      "name": "Bone",
      "translation": [
        0.0,
        0.6454045295715332,
        0.046270626783370974
      ],
      "rotation": [
        0.0,
        0.564335405035304,
        0.825545607839833,
        0.0
      ],
      "scale": [
        0.8108710050582886,
        0.8108710050582886,
        0.8108710050582886
      ]
    },
    {
      "name": "cube",
      "translation": [
        -0.006036151945590973,
        0.45129008293151857,
        -0.04725013375282287
      ],
      "rotation": [
        0.0,
        -0.7065993935681083,
        0.0,
        0.7076138049877078
      ],
      "scale": [
        0.21993760764598846,
        0.21993759274482727,
        0.21993760764598846
      ]
    },
    {
      "name": "seahorse",
      "mesh": 0,
      "skin": 0
    }
  ],
  "meshes": [
    {
      "name": "seahorse",
      "primitives": [
        {
          "attributes": {
            "POSITION": 0,
            "TEXCOORD_0": 1,
            "JOINTS_0": 2,
            "WEIGHTS_0": 3
          },
          "indices": 4,
          "material": 0
        },
        {
          "attributes": {
            "POSITION": 5,
            "TEXCOORD_0": 6,
            "JOINTS_0": 7,
            "WEIGHTS_0": 8
          },
          "indices": 9,
          "material": 1
        },
        {
          "attributes": {
            "POSITION": 10,
            "TEXCOORD_0": 11,
            "JOINTS_0": 12,
            "WEIGHTS_0": 13
          },
          "indices": 14,
          "material": 2
        }
      ]
    }
  ],
  "skins": [
    {
      "inverseBindMatrices": 15,
      "joints": [
        1,
        2,
        3,
        4,
        5,
        6,
        7,
        8,
        9,
        10,
        11,
        12,
        13,
        14,
        15,
        16,
        17,
        18,
        19,
        20,
        21,
        22
      ],
      "skeleton": 1
    }
  ],
  "materials": [
    {
      "name": "body",
      "pbrMetallicRoughness": {
        "baseColorTexture": {
          "index": 0
        },
        "metallicFactor": 0.0,
        "roughnessFactor": 1.0
      },
      "doubleSided": true
    },
    {
      "name": "face",
      "pbrMetallicRoughness": {
        "baseColorTexture": {
          "index": 1
        },
        "metallicFactor": 0.0,
        "roughnessFactor": 1.0
      },
      "doubleSided": true
    },
    {
      "name": "tail",
      "pbrMetallicRoughness": {
        "baseColorTexture": {
          "index": 2
        },
        "metallicFactor": 0.0,
        "roughnessFactor": 1.0
      },
      "doubleSided": true
    }
  ],
  "textures": [
    {
      "source": 0
    },
    {
      "source": 1
    },
    {
      "source": 2
    }
  ],
  "images": [
    {
      "uri": "textures/body.png"
    },
    {
      "uri": "textures/face.png"
    },
    {
      "uri": "textures/tail.png"
    }
  ],
  "buffers": [
    {
      "byteLength": 102168,
      "uri": "model.bin"
    }
  ],
  "bufferViews": [
    {
      "buffer": 0,
      "byteOffset": 0,
      "byteLength": 3108,
      "target": 34962
    },
    {
      "buffer": 0,
      "byteOffset": 3108,
      "byteLength": 2072,
      "target": 34962
    },
    {
      "buffer": 0,
      "byteOffset": 5180,
      "byteLength": 1036,
      "target": 34962
    },
    {
      "buffer": 0,
      "byteOffset": 6216,
      "byteLength": 4144,
      "target": 34962
    },
    {
      "buffer": 0,
      "byteOffset": 10360,
      "byteLength": 774,
      "target": 34963
    },
    {
      "buffer": 0,
      "byteOffset": 11134,
      "byteLength": 48,
      "target": 34962
    },
    {
      "buffer": 0,
      "byteOffset": 11182,
      "byteLength": 32,
      "target": 34962
    },
    {
      "buffer": 0,
      "byteOffset": 11214,
      "byteLength": 16,
      "target": 34962
    },
    {
      "buffer": 0,
      "byteOffset": 11230,
      "byteLength": 64,
      "target": 34962
    },
    {
      "buffer": 0,
      "byteOffset": 11294,
      "byteLength": 12,
      "target": 34963
    },
    {
      "buffer": 0,
      "byteOffset": 11306,
      "byteLength": 612,
      "target": 34962
    },
    {
      "buffer": 0,
      "byteOffset": 11918,
      "byteLength": 408,
      "target": 34962
    },
    {
      "buffer": 0,
      "byteOffset": 12326,
      "byteLength": 204,
      "target": 34962
    },
    {
      "buffer": 0,
      "byteOffset": 12530,
      "byteLength": 816,
      "target": 34962
    },
    {
      "buffer": 0,
      "byteOffset": 13346,
      "byteLength": 150,
      "target": 34963
    },
    {
      "buffer": 0,
      "byteOffset": 13496,
      "byteLength": 1408
    },
    {
      "buffer": 0,
      "byteOffset": 14904,
      "byteLength": 404
    },
    {
      "buffer": 0,
      "byteOffset": 15308,
      "byteLength": 1616
    },
    {
      "buffer": 0,
      "byteOffset": 16924,
      "byteLength": 404
    },
    {
      "buffer": 0,
      "byteOffset": 17328,
      "byteLength": 1212
    },
    {
      "buffer": 0,
      "byteOffset": 18540,
      "byteLength": 404
    },
    {
      "buffer": 0,
      "byteOffset": 18944,
      "byteLength": 1616
    },
    {
      "buffer": 0,
      "byteOffset": 20560,
      "byteLength": 404
    },
    {
      "buffer": 0,
      "byteOffset": 20964,
      "byteLength": 1212
    },
    {
      "buffer": 0,
      "byteOffset": 22176,
      "byteLength": 404
    },
    {
      "buffer": 0,
      "byteOffset": 22580,
      "byteLength": 1616
    },
    {
      "buffer": 0,
      "byteOffset": 24196,
      "byteLength": 404
    },
    {
      "buffer": 0,
      "byteOffset": 24600,
      "byteLength": 1212
    },
    {
      "buffer": 0,
      "byteOffset": 25812,
      "byteLength": 404
    },
    {
      "buffer": 0,
      "byteOffset": 26216,
      "byteLength": 1616
    },
    {
      "buffer": 0,
      "byteOffset": 27832,
      "byteLength": 404
    },
    {
      "buffer": 0,
      "byteOffset": 28236,
      "byteLength": 1212
    },
    {
      "buffer": 0,
      "byteOffset": 29448,
      "byteLength": 404
    },
    {
      "buffer": 0,
      "byteOffset": 29852,
      "byteLength": 1616
    },
    {
      "buffer": 0,
      "byteOffset": 31468,
      "byteLength": 404
    },
    {
      "buffer": 0,
      "byteOffset": 31872,
      "byteLength": 1212
    },
    {
      "buffer": 0,
      "byteOffset": 33084,
      "byteLength": 404
    },
    {
      "buffer": 0,
      "byteOffset": 33488,
      "byteLength": 1616
    },
    {
      "buffer": 0,
      "byteOffset": 35104,
      "byteLength": 404
    },
    {
      "buffer": 0,
      "byteOffset": 35508,
      "byteLength": 1212
    },
    {
      "buffer": 0,
      "byteOffset": 36720,
      "byteLength": 404
    },
    {
      "buffer": 0,
      "byteOffset": 37124,
      "byteLength": 1616
    },
    {
      "buffer": 0,
      "byteOffset": 38740,
      "byteLength": 404
    },
    {
      "buffer": 0,
      "byteOffset": 39144,
      "byteLength": 1212
    },
    {
      "buffer": 0,
      "byteOffset": 40356,
      "byteLength": 404
    },
    {
      "buffer": 0,
      "byteOffset": 40760,
      "byteLength": 1616
    },
    {
      "buffer": 0,
      "byteOffset": 42376,
      "byteLength": 404
    },
    {
      "buffer": 0,
      "byteOffset": 42780,
      "byteLength": 1212
    },
    {
      "buffer": 0,
      "byteOffset": 43992,
      "byteLength": 404
    },
    {
      "buffer": 0,
      "byteOffset": 44396,
      "byteLength": 1616
    },
    {
      "buffer": 0,
      "byteOffset": 46012,
      "byteLength": 404
    },
    {
      "buffer": 0,
      "byteOffset": 46416,
      "byteLength": 1212
    },
    {
      "buffer": 0,
      "byteOffset": 47628,
      "byteLength": 404
    },
    {
      "buffer": 0,
      "byteOffset": 48032,
      "byteLength": 1616
    },
    {
      "buffer": 0,
      "byteOffset": 49648,
      "byteLength": 404
    },
    {
      "buffer": 0,
      "byteOffset": 50052,
      "byteLength": 1212
    },
    {
      "buffer": 0,
      "byteOffset": 51264,
      "byteLength": 404
    },
    {
      "buffer": 0,
      "byteOffset": 51668,
      "byteLength": 1616
    },
    {
      "buffer": 0,
      "byteOffset": 53284,
      "byteLength": 404
    },
    {
      "buffer": 0,
      "byteOffset": 53688,
      "byteLength": 1212
    },
    {
      "buffer": 0,
      "byteOffset": 54900,
      "byteLength": 404
    },
    {
      "buffer": 0,
      "byteOffset": 55304,
      "byteLength": 1616
    },
    {
      "buffer": 0,
      "byteOffset": 56920,
      "byteLength": 404
    },
    {
      "buffer": 0,
      "byteOffset": 57324,
      "byteLength": 1212
    },
    {
      "buffer": 0,
      "byteOffset": 58536,
      "byteLength": 404
    },
    {
      "buffer": 0,
      "byteOffset": 58940,
      "byteLength": 1616
    },
    {
      "buffer": 0,
      "byteOffset": 60556,
      "byteLength": 404
    },
    {
      "buffer": 0,
      "byteOffset": 60960,
      "byteLength": 1212
    },
    {
      "buffer": 0,
      "byteOffset": 62172,
      "byteLength": 404
    },
    {
      "buffer": 0,
      "byteOffset": 62576,
      "byteLength": 1616
    },
    {
      "buffer": 0,
      "byteOffset": 64192,
      "byteLength": 404
    },
    {
      "buffer": 0,
      "byteOffset": 64596,
      "byteLength": 1212
    },
    {
      "buffer": 0,
      "byteOffset": 65808,
      "byteLength": 404
    },
    {
      "buffer": 0,
      "byteOffset": 66212,
      "byteLength": 1616
    },
    {
      "buffer": 0,
      "byteOffset": 67828,
      "byteLength": 404
    },
    {
      "buffer": 0,
      "byteOffset": 68232,
      "byteLength": 1212
    },
    {
      "buffer": 0,
      "byteOffset": 69444,
      "byteLength": 404
    },
    {
      "buffer": 0,
      "byteOffset": 69848,
      "byteLength": 1616
    },
    {
      "buffer": 0,
      "byteOffset": 71464,
      "byteLength": 404
    },
    {
      "buffer": 0,
      "byteOffset": 71868,
      "byteLength": 1212
    },
    {
      "buffer": 0,
      "byteOffset": 73080,
      "byteLength": 404
    },
    {
      "buffer": 0,
      "byteOffset": 73484,
      "byteLength": 1616
    },
    {
      "buffer": 0,
      "byteOffset": 75100,
      "byteLength": 404
    },
    {
      "buffer": 0,
      "byteOffset": 75504,
      "byteLength": 1212
    },
    {
      "buffer": 0,
      "byteOffset": 76716,
      "byteLength": 404
    },
    {
      "buffer": 0,
      "byteOffset": 77120,
      "byteLength": 1616
    },
    {
      "buffer": 0,
      "byteOffset": 78736,
      "byteLength": 404
    },
    {
      "buffer": 0,
      "byteOffset": 79140,
      "byteLength": 1212
    },
    {
      "buffer": 0,
      "byteOffset": 80352,
      "byteLength": 404
    },
    {
      "buffer": 0,
      "byteOffset": 80756,
      "byteLength": 1616
    },
    {
      "buffer": 0,
      "byteOffset": 82372,
      "byteLength": 404
    },
    {
      "buffer": 0,
      "byteOffset": 82776,
      "byteLength": 1212
    },
    {
      "buffer": 0,
      "byteOffset": 83988,
      "byteLength": 404
    },
    {
      "buffer": 0,
      "byteOffset": 84392,
      "byteLength": 1616
    },
    {
      "buffer": 0,
      "byteOffset": 86008,
      "byteLength": 404
    },
    {
      "buffer": 0,
      "byteOffset": 86412,
      "byteLength": 1212
    },
    {
      "buffer": 0,
      "byteOffset": 87624,
      "byteLength": 404
    },
    {
      "buffer": 0,
      "byteOffset": 88028,
      "byteLength": 1616
    },
    {
      "buffer": 0,
      "byteOffset": 89644,
      "byteLength": 404
    },
    {
      "buffer": 0,
      "byteOffset": 90048,
      "byteLength": 1212
    },
    {
      "buffer": 0,
      "byteOffset": 91260,
      "byteLength": 404
    },
    {
      "buffer": 0,
      "byteOffset": 91664,
      "byteLength": 1616
    },
    {
      "buffer": 0,
      "byteOffset": 93280,
      "byteLength": 404
    },
    {
      "buffer": 0,
      "byteOffset": 93684,
      "byteLength": 1212
    },
    {
      "buffer": 0,
      "byteOffset": 94896,
      "byteLength": 404
    },
    {
      "buffer": 0,
      "byteOffset": 95300,
      "byteLength": 1616
    },
    {
      "buffer": 0,
      "byteOffset": 96916,
      "byteLength": 404
    },
    {
      "buffer": 0,
      "byteOffset": 97320,
      "byteLength": 1212
    },
    {
      "buffer": 0,
      "byteOffset": 98532,
      "byteLength": 404
    },
    {
      "buffer": 0,
      "byteOffset": 98936,
      "byteLength": 1616
    },
    {
      "buffer": 0,
      "byteOffset": 100552,
      "byteLength": 404
    },
    {
      "buffer": 0,
      "byteOffset": 100956,
      "byteLength": 1212
    }
  ],
  "accessors": [
    {
      "bufferView": 0,
      "componentType": 5126,
      "count": 259,
      "type": "VEC3",
      "min": [
        -0.11609948245054136,
        0.21965961456298827,
        -0.10356894731521607
      ],
      "max": [
        0.0665478106588141,
        0.6949485301971435,
        0.20611178874969482
      ]
    },
    {
      "bufferView": 1,
      "componentType": 5126,
      "count": 259,
      "type": "VEC2"
    },
    {
      "bufferView": 2,
      "componentType": 5121,
      "count": 259,
      "type": "VEC4"
    },
    {
      "bufferView": 3,
      "componentType": 5126,
      "count": 259,
      "type": "VEC4"
    },
    {
      "bufferView": 4,
      "componentType": 5123,
      "count": 387,
      "type": "SCALAR"
    },
    {
      "bufferView": 5,
      "componentType": 5126,
      "count": 4,
      "type": "VEC3",
      "min": [
        -0.006551714986562729,
        0.22241511344909667,
        -0.0674044668674469
      ],
      "max": [
        0.017418770492076872,
        0.2664026260375977,
        -0.06737008094787597
      ]
    },
    {
      "bufferView": 6,
      "componentType": 5126,
      "count": 4,
      "type": "VEC2"
    },
    {
      "bufferView": 7,
      "componentType": 5121,
      "count": 4,
      "type": "VEC4"
    },
    {
      "bufferView": 8,
      "componentType": 5126,
      "count": 4,
      "type": "VEC4"
    },
    {
      "bufferView": 9,
      "componentType": 5123,
      "count": 6,
      "type": "SCALAR"
    },
    {
      "bufferView": 10,
      "componentType": 5126,
      "count": 51,
      "type": "VEC3",
      "min": [
        -0.044998205489481205,
        0.21681876182556153,
        -0.04844950809888596
      ],
      "max": [
        0.0665478106588141,
        0.49527760148048405,
        0.08831323981285095
      ]
    },
    {
      "bufferView": 11,
      "componentType": 5126,
      "count": 51,
      "type": "VEC2"
    },
    {
      "bufferView": 12,
      "componentType": 5121,
      "count": 51,
      "type": "VEC4"
    },
    {
      "bufferView": 13,
      "componentType": 5126,
      "count": 51,
      "type": "VEC4"
    },
    {
      "bufferView": 14,
      "componentType": 5123,
      "count": 75,
      "type": "SCALAR"
    },
    {
      "bufferView": 15,
      "componentType": 5126,
      "count": 22,
      "type": "MAT4"
    },
    {
      "bufferView": 16,
      "componentType": 5126,
      "count": 101,
      "type": "SCALAR",
      "min": [
        0.0
      ],
      "max": [
        2.0
      ]
    },
    {
      "bufferView": 17,
      "componentType": 5126,
      "count": 101,
      "type": "VEC4"
    },
    {
      "bufferView": 18,
      "componentType": 5126,
      "count": 101,
      "type": "SCALAR",
      "min": [
        0.0
      ],
      "max": [
        2.0
      ]
    },
    {
      "bufferView": 19,
      "componentType": 5126,
      "count": 101,
      "type": "VEC3"
    },
    {
      "bufferView": 20,
      "componentType": 5126,
      "count": 101,
      "type": "SCALAR",
      "min": [
        0.0
      ],
      "max": [
        2.0
      ]
    },
    {
      "bufferView": 21,
      "componentType": 5126,
      "count": 101,
      "type": "VEC4"
    },
    {
      "bufferView": 22,
      "componentType": 5126,
      "count": 101,
      "type": "SCALAR",
      "min": [
        0.0
      ],
      "max": [
        2.0
      ]
    },
    {
      "bufferView": 23,
      "componentType": 5126,
      "count": 101,
      "type": "VEC3"
    },
    {
      "bufferView": 24,
      "componentType": 5126,
      "count": 101,
      "type": "SCALAR",
      "min": [
        0.0
      ],
      "max": [
        2.0
      ]
    },
    {
      "bufferView": 25,
      "componentType": 5126,
      "count": 101,
      "type": "VEC4"
    },
    {
      "bufferView": 26,
      "componentType": 5126,
      "count": 101,
      "type": "SCALAR",
      "min": [
        0.0
      ],
      "max": [
        2.0
      ]
    },
    {
      "bufferView": 27,
      "componentType": 5126,
      "count": 101,
      "type": "VEC3"
    },
    {
      "bufferView": 28,
      "componentType": 5126,
      "count": 101,
      "type": "SCALAR",
      "min": [
        0.0
      ],
      "max": [
        2.0
      ]
    },
    {
      "bufferView": 29,
      "componentType": 5126,
      "count": 101,
      "type": "VEC4"
    },
    {
      "bufferView": 30,
      "componentType": 5126,
      "count": 101,
      "type": "SCALAR",
      "min": [
        0.0
      ],
      "max": [
        2.0
      ]
    },
    {
      "bufferView": 31,
      "componentType": 5126,
      "count": 101,
      "type": "VEC3"
    },
    {
      "bufferView": 32,
      "componentType": 5126,
      "count": 101,
      "type": "SCALAR",
      "min": [
        0.0
      ],
      "max": [
        2.0
      ]
    },
    {
      "bufferView": 33,
      "componentType": 5126,
      "count": 101,
      "type": "VEC4"
    },
    {
      "bufferView": 34,
      "componentType": 5126,
      "count": 101,
      "type": "SCALAR",
      "min": [
        0.0
      ],
      "max": [
        2.0
      ]
    },
    {
      "bufferView": 35,
      "componentType": 5126,
      "count": 101,
      "type": "VEC3"
    },
    {
      "bufferView": 36,
      "componentType": 5126,
      "count": 101,
      "type": "SCALAR",
      "min": [
        0.0
      ],
      "max": [
        2.0
      ]
    },
    {
      "bufferView": 37,
      "componentType": 5126,
      "count": 101,
      "type": "VEC4"
    },
    {
      "bufferView": 38,
      "componentType": 5126,
      "count": 101,
      "type": "SCALAR",
      "min": [
        0.0
      ],
      "max": [
        2.0
      ]
    },
    {
      "bufferView": 39,
      "componentType": 5126,
      "count": 101,
      "type": "VEC3"
    },
    {
      "bufferView": 40,
      "componentType": 5126,
      "count": 101,
      "type": "SCALAR",
      "min": [
        0.0
      ],
      "max": [
        2.0
      ]
    },
    {
      "bufferView": 41,
      "componentType": 5126,
      "count": 101,
      "type": "VEC4"
    },
    {
      "bufferView": 42,
      "componentType": 5126,
      "count": 101,
      "type": "SCALAR",
      "min": [
        0.0
      ],
      "max": [
        2.0
      ]
    },
    {
      "bufferView": 43,
      "componentType": 5126,
      "count": 101,
      "type": "VEC3"
    },
    {
      "bufferView": 44,
      "componentType": 5126,
      "count": 101,
      "type": "SCALAR",
      "min": [
        0.0
      ],
      "max": [
        2.0
      ]
    },
    {
      "bufferView": 45,
      "componentType": 5126,
      "count": 101,
      "type": "VEC4"
    },
    {
      "bufferView": 46,
      "componentType": 5126,
      "count": 101,
      "type": "SCALAR",
      "min": [
        0.0
      ],
      "max": [
        2.0
      ]
    },
    {
      "bufferView": 47,
      "componentType": 5126,
      "count": 101,
      "type": "VEC3"
    },
    {
      "bufferView": 48,
      "componentType": 5126,
      "count": 101,
      "type": "SCALAR",
      "min": [
        0.0
      ],
      "max": [
        2.0
      ]
    },
    {
      "bufferView": 49,
      "componentType": 5126,
      "count": 101,
      "type": "VEC4"
    },
    {
      "bufferView": 50,
      "componentType": 5126,
      "count": 101,
      "type": "SCALAR",
      "min": [
        0.0
      ],
      "max": [
        2.0
      ]
    },
    {
      "bufferView": 51,
      "componentType": 5126,
      "count": 101,
      "type": "VEC3"
    },
    {
      "bufferView": 52,
      "componentType": 5126,
      "count": 101,
      "type": "SCALAR",
      "min": [
        0.0
      ],
      "max": [
        2.0
      ]
    },
    {
      "bufferView": 53,
      "componentType": 5126,
      "count": 101,
      "type": "VEC4"
    },
    {
      "bufferView": 54,
      "componentType": 5126,
      "count": 101,
      "type": "SCALAR",
      "min": [
        0.0
      ],
      "max": [
        2.0
      ]
    },
    {
      "bufferView": 55,
      "componentType": 5126,
      "count": 101,
      "type": "VEC3"
    },
    {
      "bufferView": 56,
      "componentType": 5126,
      "count": 101,
      "type": "SCALAR",
      "min": [
        0.0
      ],
      "max": [
        2.0
      ]
    },
    {
      "bufferView": 57,
      "componentType": 5126,
      "count": 101,
      "type": "VEC4"
    },
    {
      "bufferView": 58,
      "componentType": 5126,
      "count": 101,
      "type": "SCALAR",
      "min": [
        0.0
      ],
      "max": [
        2.0
      ]
    },
    {
      "bufferView": 59,
      "componentType": 5126,
      "count": 101,
      "type": "VEC3"
    },
    {
      "bufferView": 60,
      "componentType": 5126,
      "count": 101,
      "type": "SCALAR",
      "min": [
        0.0
      ],
      "max": [
        2.0
      ]
    },
    {
      "bufferView": 61,
      "componentType": 5126,
      "count": 101,
      "type": "VEC4"
    },
    {
      "bufferView": 62,
      "componentType": 5126,
      "count": 101,
      "type": "SCALAR",
      "min": [
        0.0
      ],
      "max": [
        2.0
      ]
    },
    {
      "bufferView": 63,
      "componentType": 5126,
      "count": 101,
      "type": "VEC3"
    },
    {
      "bufferView": 64,
      "componentType": 5126,
      "count": 101,
      "type": "SCALAR",
      "min": [
        0.0
      ],
      "max": [
        2.0
      ]
    },
    {
      "bufferView": 65,
      "componentType": 5126,
      "count": 101,
      "type": "VEC4"
    },
    {
      "bufferView": 66,
      "componentType": 5126,
      "count": 101,
      "type": "SCALAR",
      "min": [
        0.0
      ],
      "max": [
        2.0
      ]
    },
    {
      "bufferView": 67,
      "componentType": 5126,
      "count": 101,
      "type": "VEC3"
    },
    {
      "bufferView": 68,
      "componentType": 5126,
      "count": 101,
      "type": "SCALAR",
      "min": [
        0.0
      ],
      "max": [
        2.0
      ]
    },
    {
      "bufferView": 69,
      "componentType": 5126,
      "count": 101,
      "type": "VEC4"
    },
    {
      "bufferView": 70,
      "componentType": 5126,
      "count": 101,
      "type": "SCALAR",
      "min": [
        0.0
      ],
      "max": [
        2.0
      ]
    },
    {
      "bufferView": 71,
      "componentType": 5126,
      "count": 101,
      "type": "VEC3"
    },
    {
      "bufferView": 72,
      "componentType": 5126,
      "count": 101,
      "type": "SCALAR",
      "min": [
        0.0
      ],
      "max": [
        2.0
      ]
    },
    {
      "bufferView": 73,
      "componentType": 5126,
      "count": 101,
      "type": "VEC4"
    },
    {
      "bufferView": 74,
      "componentType": 5126,
      "count": 101,
      "type": "SCALAR",
      "min": [
        0.0
      ],
      "max": [
        2.0
      ]
    },
    {
      "bufferView": 75,
      "componentType": 5126,
      "count": 101,
      "type": "VEC3"
    },
    {
      "bufferView": 76,
      "componentType": 5126,
      "count": 101,
      "type": "SCALAR",
      "min": [
        0.0
      ],
      "max": [
        2.0
      ]
    },
    {
      "bufferView": 77,
      "componentType": 5126,
      "count": 101,
      "type": "VEC4"
    },
    {
      "bufferView": 78,
      "componentType": 5126,
      "count": 101,
      "type": "SCALAR",
      "min": [
        0.0
      ],
      "max": [
        2.0
      ]
    },
    {
      "bufferView": 79,
      "componentType": 5126,
      "count": 101,
      "type": "VEC3"
    },
    {
      "bufferView": 80,
      "componentType": 5126,
      "count": 101,
      "type": "SCALAR",
      "min": [
        0.0
      ],
      "max": [
        2.0
      ]
    },
    {
      "bufferView": 81,
      "componentType": 5126,
      "count": 101,
      "type": "VEC4"
    },
    {
      "bufferView": 82,
      "componentType": 5126,
      "count": 101,
      "type": "SCALAR",
      "min": [
        0.0
      ],
      "max": [
        2.0
      ]
    },
    {
      "bufferView": 83,
      "componentType": 5126,
      "count": 101,
      "type": "VEC3"
    },
    {
      "bufferView": 84,
      "componentType": 5126,
      "count": 101,
      "type": "SCALAR",
      "min": [
        0.0
      ],
      "max": [
        2.0
      ]
    },
    {
      "bufferView": 85,
      "componentType": 5126,
      "count": 101,
      "type": "VEC4"
    },
    {
      "bufferView": 86,
      "componentType": 5126,
      "count": 101,
      "type": "SCALAR",
      "min": [
        0.0
      ],
      "max": [
        2.0
      ]
    },
    {
      "bufferView": 87,
      "componentType": 5126,
      "count": 101,
      "type": "VEC3"
    },
    {
      "bufferView": 88,
      "componentType": 5126,
      "count": 101,
      "type": "SCALAR",
      "min": [
        0.0
      ],
      "max": [
        2.0
      ]
    },
    {
      "bufferView": 89,
      "componentType": 5126,
      "count": 101,
      "type": "VEC4"
    },
    {
      "bufferView": 90,
      "componentType": 5126,
      "count": 101,
      "type": "SCALAR",
      "min": [
        0.0
      ],
      "max": [
        2.0
      ]
    },
    {
      "bufferView": 91,
      "componentType": 5126,
      "count": 101,
      "type": "VEC3"
    },
    {
      "bufferView": 92,
      "componentType": 5126,
      "count": 101,
      "type": "SCALAR",
      "min": [
        0.0
      ],
      "max": [
        2.0
      ]
    },
    {
      "bufferView": 93,
      "componentType": 5126,
      "count": 101,
      "type": "VEC4"
    },
    {
      "bufferView": 94,
      "componentType": 5126,
      "count": 101,
      "type": "SCALAR",
      "min": [
        0.0
      ],
      "max": [
        2.0
      ]
    },
    {
      "bufferView": 95,
      "componentType": 5126,
      "count": 101,
      "type": "VEC3"
    },
    {
      "bufferView": 96,
      "componentType": 5126,
      "count": 101,
      "type": "SCALAR",
      "min": [
        0.0
      ],
      "max": [
        2.0
      ]
    },
    {
      "bufferView": 97,
      "componentType": 5126,
      "count": 101,
      "type": "VEC4"
    },
    {
      "bufferView": 98,
      "componentType": 5126,
      "count": 101,
      "type": "SCALAR",
      "min": [
        0.0
      ],
      "max": [
        2.0
      ]
    },
    {
      "bufferView": 99,
      "componentType": 5126,
      "count": 101,
      "type": "VEC3"
    },
    {
      "bufferView": 100,
      "componentType": 5126,
      "count": 101,
      "type": "SCALAR",
      "min": [
        0.0
      ],
      "max": [
        2.0
      ]
    },
    {
      "bufferView": 101,
      "componentType": 5126,
      "count": 101,
      "type": "VEC4"
    },
    {
      "bufferView": 102,
      "componentType": 5126,
      "count": 101,
      "type": "SCALAR",
      "min": [
        0.0
      ],
      "max": [
        2.0
      ]
    },
    {
      "bufferView": 103,
      "componentType": 5126,
      "count": 101,
      "type": "VEC3"
    },
    {
      "bufferView": 104,
      "componentType": 5126,
      "count": 101,
      "type": "SCALAR",
      "min": [
        0.0
      ],
      "max": [
        2.0
      ]
    },
    {
      "bufferView": 105,
      "componentType": 5126,
      "count": 101,
      "type": "VEC4"
    },
    {
      "bufferView": 106,
      "componentType": 5126,
      "count": 101,
      "type": "SCALAR",
      "min": [
        0.0
      ],
      "max": [
        2.0
      ]
    },
    {
      "bufferView": 107,
      "componentType": 5126,
      "count": 101,
      "type": "VEC3"
    },
    {
      "bufferView": 108,
      "componentType": 5126,
      "count": 101,
      "type": "SCALAR",
      "min": [
        0.0
      ],
      "max": [
        2.0
      ]
    },
    {
      "bufferView": 109,
      "componentType": 5126,
      "count": 101,
      "type": "VEC4"
    },
    {
      "bufferView": 110,
      "componentType": 5126,
      "count": 101,
      "type": "SCALAR",
      "min": [
        0.0
      ],
      "max": [
        2.0
      ]
    },
    {
      "bufferView": 111,
      "componentType": 5126,
      "count": 101,
      "type": "VEC3"
    }
  ],
  "animations": [
    {
      "name": "idle",
      "channels": [
        {
          "sampler": 0,
          "target": {
            "node": 3,
            "path": "rotation"
          }
        },
        {
          "sampler": 1,
          "target": {
            "node": 3,
            "path": "translation"
          }
        },
        {
          "sampler": 2,
          "target": {
            "node": 5,
            "path": "rotation"
          }
        },
        {
          "sampler": 3,
          "target": {
            "node": 5,
            "path": "translation"
          }
        },
        {
          "sampler": 4,
          "target": {
            "node": 7,
            "path": "rotation"
          }
        },
        {
          "sampler": 5,
          "target": {
            "node": 7,
            "path": "translation"
          }
        },
        {
          "sampler": 6,
          "target": {
            "node": 13,
            "path": "rotation"
          }
        },
        {
          "sampler": 7,
          "target": {
            "node": 13,
            "path": "translation"
          }
        },
        {
          "sampler": 8,
          "target": {
            "node": 15,
            "path": "rotation"
          }
        },
        {
          "sampler": 9,
          "target": {
            "node": 15,
            "path": "translation"
          }
        },
        {
          "sampler": 10,
          "target": {
            "node": 17,
            "path": "rotation"
          }
        },
        {
          "sampler": 11,
          "target": {
            "node": 17,
            "path": "translation"
          }
        },
        {
          "sampler": 12,
          "target": {
            "node": 19,
            "path": "rotation"
          }
        },
        {
          "sampler": 13,
          "target": {
            "node": 19,
            "path": "translation"
          }
        },
        {
          "sampler": 14,
          "target": {
            "node": 21,
            "path": "rotation"
          }
        },
        {
          "sampler": 15,
          "target": {
            "node": 21,
            "path": "translation"
          }
        }
      ],
      "samplers": [
        {
          "input": 16,
          "interpolation": "LINEAR",
          "output": 17
        },
        {
          "input": 18,
          "interpolation": "LINEAR",
          "output": 19
        },
        {
          "input": 20,
          "interpolation": "LINEAR",
          "output": 21
        },
        {
          "input": 22,
          "interpolation": "LINEAR",
          "output": 23
        },
        {
          "input": 24,
          "interpolation": "LINEAR",
          "output": 25
        },
        {
          "input": 26,
          "interpolation": "LINEAR",
          "output": 27
        },
        {
          "input": 28,
          "interpolation": "LINEAR",
          "output": 29
        },
        {
          "input": 30,
          "interpolation": "LINEAR",
          "output": 31
        },
        {
          "input": 32,
          "interpolation": "LINEAR",
          "output": 33
        },
        {
          "input": 34,
          "interpolation": "LINEAR",
          "output": 35
        },
        {
          "input": 36,
          "interpolation": "LINEAR",
          "output": 37
        },
        {
          "input": 38,
          "interpolation": "LINEAR",
          "output": 39
        },
        {
          "input": 40,
          "interpolation": "LINEAR",
          "output": 41
        },
        {
          "input": 42,
          "interpolation": "LINEAR",
          "output": 43
        },
        {
          "input": 44,
          "interpolation": "LINEAR",
          "output": 45
        },
        {
          "input": 46,
          "interpolation": "LINEAR",
          "output": 47
        }
      ]
    },
    {
      "name": "fly",
      "channels": [
        {
          "sampler": 0,
          "target": {
            "node": 3,
            "path": "rotation"
          }
        },
        {
          "sampler": 1,
          "target": {
            "node": 3,
            "path": "translation"
          }
        },
        {
          "sampler": 2,
          "target": {
            "node": 5,
            "path": "rotation"
          }
        },
        {
          "sampler": 3,
          "target": {
            "node": 5,
            "path": "translation"
          }
        },
        {
          "sampler": 4,
          "target": {
            "node": 7,
            "path": "rotation"
          }
        },
        {
          "sampler": 5,
          "target": {
            "node": 7,
            "path": "translation"
          }
        },
        {
          "sampler": 6,
          "target": {
            "node": 13,
            "path": "rotation"
          }
        },
        {
          "sampler": 7,
          "target": {
            "node": 13,
            "path": "translation"
          }
        },
        {
          "sampler": 8,
          "target": {
            "node": 15,
            "path": "rotation"
          }
        },
        {
          "sampler": 9,
          "target": {
            "node": 15,
            "path": "translation"
          }
        },
        {
          "sampler": 10,
          "target": {
            "node": 17,
            "path": "rotation"
          }
        },
        {
          "sampler": 11,
          "target": {
            "node": 17,
            "path": "translation"
          }
        },
        {
          "sampler": 12,
          "target": {
            "node": 19,
            "path": "rotation"
          }
        },
        {
          "sampler": 13,
          "target": {
            "node": 19,
            "path": "translation"
          }
        },
        {
          "sampler": 14,
          "target": {
            "node": 21,
            "path": "rotation"
          }
        },
        {
          "sampler": 15,
          "target": {
            "node": 21,
            "path": "translation"
          }
        }
      ],
      "samplers": [
        {
          "input": 48,
          "interpolation": "LINEAR",
          "output": 49
        },
        {
          "input": 50,
          "interpolation": "LINEAR",
          "output": 51
        },
        {
          "input": 52,
          "interpolation": "LINEAR",
          "output": 53
        },
        {
          "input": 54,
          "interpolation": "LINEAR",
          "output": 55
        },
        {
          "input": 56,
          "interpolation": "LINEAR",
          "output": 57
        },
        {
          "input": 58,
          "interpolation": "LINEAR",
          "output": 59
        },
        {
          "input": 60,
          "interpolation": "LINEAR",
          "output": 61
        },
        {
          "input": 62,
          "interpolation": "LINEAR",
          "output": 63
        },
        {
          "input": 64,
          "interpolation": "LINEAR",
          "output": 65
        },
        {
          "input": 66,
          "interpolation": "LINEAR",
          "output": 67
        },
        {
          "input": 68,
          "interpolation": "LINEAR",
          "output": 69
        },
        {
          "input": 70,
          "interpolation": "LINEAR",
          "output": 71
        },
        {
          "input": 72,
          "interpolation": "LINEAR",
          "output": 73
        },
        {
          "input": 74,
          "interpolation": "LINEAR",
          "output": 75
        },
        {
          "input": 76,
          "interpolation": "LINEAR",
          "output": 77
        },
        {
          "input": 78,
          "interpolation": "LINEAR",
          "output": 79
        }
      ]
    },
    {
      "name": "die",
      "channels": [
        {
          "sampler": 0,
          "target": {
            "node": 3,
            "path": "rotation"
          }
        },
        {
          "sampler": 1,
          "target": {
            "node": 3,
            "path": "translation"
          }
        },
        {
          "sampler": 2,
          "target": {
            "node": 5,
            "path": "rotation"
          }
        },
        {
          "sampler": 3,
          "target": {
            "node": 5,
            "path": "translation"
          }
        },
        {
          "sampler": 4,
          "target": {
            "node": 7,
            "path": "rotation"
          }
        },
        {
          "sampler": 5,
          "target": {
            "node": 7,
            "path": "translation"
          }
        },
        {
          "sampler": 6,
          "target": {
            "node": 13,
            "path": "rotation"
          }
        },
        {
          "sampler": 7,
          "target": {
            "node": 13,
            "path": "translation"
          }
        },
        {
          "sampler": 8,
          "target": {
            "node": 15,
            "path": "rotation"
          }
        },
        {
          "sampler": 9,
          "target": {
            "node": 15,
            "path": "translation"
          }
        },
        {
          "sampler": 10,
          "target": {
            "node": 17,
            "path": "rotation"
          }
        },
        {
          "sampler": 11,
          "target": {
            "node": 17,
            "path": "translation"
          }
        },
        {
          "sampler": 12,
          "target": {
            "node": 19,
            "path": "rotation"
          }
        },
        {
          "sampler": 13,
          "target": {
            "node": 19,
            "path": "translation"
          }
        },
        {
          "sampler": 14,
          "target": {
            "node": 21,
            "path": "rotation"
          }
        },
        {
          "sampler": 15,
          "target": {
            "node": 21,
            "path": "translation"
          }
        }
      ],
      "samplers": [
        {
          "input": 80,
          "interpolation": "LINEAR",
          "output": 81
        },
        {
          "input": 82,
          "interpolation": "LINEAR",
          "output": 83
        },
        {
          "input": 84,
          "interpolation": "LINEAR",
          "output": 85
        },
        {
          "input": 86,
          "interpolation": "LINEAR",
          "output": 87
        },
        {
          "input": 88,
          "interpolation": "LINEAR",
          "output": 89
        },
        {
          "input": 90,
          "interpolation": "LINEAR",
          "output": 91
        },
        {
          "input": 92,
          "interpolation": "LINEAR",
          "output": 93
        },
        {
          "input": 94,
          "interpolation": "LINEAR",
          "output": 95
        },
        {
          "input": 96,
          "interpolation": "LINEAR",
          "output": 97
        },
        {
          "input": 98,
          "interpolation": "LINEAR",
          "output": 99
        },
        {
          "input": 100,
          "interpolation": "LINEAR",
          "output": 101
        },
        {
          "input": 102,
          "interpolation": "LINEAR",
          "output": 103
        },
        {
          "input": 104,
          "interpolation": "LINEAR",
          "output": 105
        },
        {
          "input": 106,
          "interpolation": "LINEAR",
          "output": 107
        },
        {
          "input": 108,
          "interpolation": "LINEAR",
          "output": 109
        },
        {
          "input": 110,
          "interpolation": "LINEAR",
          "output": 111
        }
      ]
    }
  ]
}